  0
SECTION
  2
HEADER
  9
$ACADVER
  1
AC1015
  9
$ACADMAINTVER
 70
     6
  9
$DWGCODEPAGE
  3
ANSI_1252
  9
$INSBASE
 10
0.0
 20
0.0
 30
0.0
  9
$EXTMIN
 10
0.0
 20
0.0
 30
0.0
  9
$EXTMAX
 10
840.0
 20
1188.0
 30
0.0
  9
$LIMMIN
 10
0.0
 20
0.0
  9
$LIMMAX
 10
840.0
 20
1188.0
  9
$ORTHOMODE
 70
     0
  9
$REGENMODE
 70
     1
  9
$FILLMODE
 70
     1
  9
$QTEXTMODE
 70
     0
  9
$MIRRTEXT
 70
     1
  9
$LTSCALE
 40
4.0
  9
$ATTMODE
 70
     1
  9
$TEXTSIZE
 40
12.0
  9
$TRACEWID
 40
1.0
  9
$TEXTSTYLE
  7
Standard
  9
$CLAYER
  8
0
  9
$CELTYPE
  6
ByLayer
  9
$CECOLOR
 62
   256
  9
$CELTSCALE
 40
1.0
  9
$DISPSILH
 70
     0
  9
$DIMSCALE
 40
1.0
  9
$DIMASZ
 40
12.0
  9
$DIMEXO
 40
4.0
  9
$DIMDLI
 40
3.75
  9
$DIMRND
 40
0.0
  9
$DIMDLE
 40
0.0
  9
$DIMEXE
 40
4.0
  9
$DIMTP
 40
0.0
  9
$DIMTM
 40
0.0
  9
$DIMTXT
 40
11.2
  9
$DIMCEN
 40
2.5
  9
$DIMTSZ
 40
0.0
  9
$DIMTOL
 70
     0
  9
$DIMLIM
 70
     0
  9
$DIMTIH
 70
     1
  9
$DIMTOH
 70
     1
  9
$DIMSE1
 70
     0
  9
$DIMSE2
 70
     0
  9
$DIMTAD
 70
     1
  9
$DIMZIN
 70
     0
  9
$DIMBLK
  1

  9
$DIMASO
 70
     1
  9
$DIMSHO
 70
     1
  9
$DIMPOST
  1

  9
$DIMAPOST
  1

  9
$DIMALT
 70
     0
  9
$DIMALTD
 70
     3
  9
$DIMALTF
 40
0.0393700787
  9
$DIMLFAC
 40
1.0
  9
$DIMTOFL
 70
     1
  9
$DIMTVP
 40
0.0
  9
$DIMTIX
 70
     0
  9
$DIMSOXD
 70
     0
  9
$DIMSAH
 70
     0
  9
$DIMBLK1
  1

  9
$DIMBLK2
  1

  9
$DIMSTYLE
  2
ISO-25
  9
$DIMCLRD
 70
     0
  9
$DIMCLRE
 70
     0
  9
$DIMCLRT
 70
     0
  9
$DIMTFAC
 40
1.0
  9
$DIMGAP
 40
6.096
  9
$DIMJUST
 70
     0
  9
$DIMSD1
 70
     0
  9
$DIMSD2
 70
     0
  9
$DIMTOLJ
 70
     0
  9
$DIMTZIN
 70
     0
  9
$DIMALTZ
 70
     0
  9
$DIMALTTZ
 70
     0
  9
$DIMUPT
 70
     0
  9
$DIMDEC
 70
     2
  9
$DIMTDEC
 70
     2
  9
$DIMALTU
 70
     2
  9
$DIMALTTD
 70
     3
  9
$DIMTXSTY
  7
Standard
  9
$DIMAUNIT
 70
     0
  9
$DIMADEC
 70
     2
  9
$DIMALTRND
 40
0.0
  9
$DIMAZIN
 70
     0
  9
$DIMDSEP
 70
    44
  9
$DIMATFIT
 70
     3
  9
$DIMFRAC
 70
     0
  9
$DIMLDRBLK
  1

  9
$DIMLUNIT
 70
     2
  9
$DIMLWD
 70
    -2
  9
$DIMLWE
 70
    -2
  9
$DIMTMOVE
 70
     0
  9
$LUNITS
 70
     2
  9
$LUPREC
 70
     2
  9
$SKETCHINC
 40
1.0
  9
$FILLETRAD
 40
0.0
  9
$AUNITS
 70
     0
  9
$AUPREC
 70
     2
  9
$MENU
  1
.
  9
$ELEVATION
 40
0.0
  9
$PELEVATION
 40
0.0
  9
$THICKNESS
 40
0.0
  9
$LIMCHECK
 70
     0
  9
$CHAMFERA
 40
0.0
  9
$CHAMFERB
 40
0.0
  9
$CHAMFERC
 40
0.0
  9
$CHAMFERD
 40
0.0
  9
$SKPOLY
 70
     0
  9
$TDCREATE
 40
2459977.440400359
  9
$TDUCREATE
 40
2459977.398733692
  9
$TDUPDATE
 40
2459977.440406158
  9
$TDUUPDATE
 40
2459977.398739491
  9
$TDINDWG
 40
0.0000000116
  9
$TDUSRTIMER
 40
0.0000000116
  9
$USRTIMER
 70
     1
  9
$ANGBASE
 50
0.0
  9
$ANGDIR
 70
     0
  9
$PDMODE
 70
     0
  9
$PDSIZE
 40
-1.0
  9
$PLINEWID
 40
0.0
  9
$SPLFRAME
 70
     0
  9
$SPLINETYPE
 70
     6
  9
$SPLINESEGS
 70
     8
  9
$HANDSEED
  5
25A
  9
$SURFTAB1
 70
     6
  9
$SURFTAB2
 70
     6
  9
$SURFTYPE
 70
     6
  9
$SURFU
 70
     6
  9
$SURFV
 70
     6
  9
$UCSBASE
  2

  9
$UCSNAME
  2

  9
$UCSORG
 10
0.0
 20
0.0
 30
0.0
  9
$UCSXDIR
 10
1.0
 20
0.0
 30
0.0
  9
$UCSYDIR
 10
0.0
 20
1.0
 30
0.0
  9
$UCSORTHOREF
  2

  9
$UCSORTHOVIEW
 70
     0
  9
$UCSORGTOP
 10
0.0
 20
0.0
 30
0.0
  9
$UCSORGBOTTOM
 10
0.0
 20
0.0
 30
0.0
  9
$UCSORGLEFT
 10
0.0
 20
0.0
 30
0.0
  9
$UCSORGRIGHT
 10
0.0
 20
0.0
 30
0.0
  9
$UCSORGFRONT
 10
0.0
 20
0.0
 30
0.0
  9
$UCSORGBACK
 10
0.0
 20
0.0
 30
0.0
  9
$PUCSBASE
  2

  9
$PUCSNAME
  2

  9
$PUCSORG
 10
0.0
 20
0.0
 30
0.0
  9
$PUCSXDIR
 10
1.0
 20
0.0
 30
0.0
  9
$PUCSYDIR
 10
0.0
 20
1.0
 30
0.0
  9
$PUCSORTHOREF
  2

  9
$PUCSORTHOVIEW
 70
     0
  9
$PUCSORGTOP
 10
0.0
 20
0.0
 30
0.0
  9
$PUCSORGBOTTOM
 10
0.0
 20
0.0
 30
0.0
  9
$PUCSORGLEFT
 10
0.0
 20
0.0
 30
0.0
  9
$PUCSORGRIGHT
 10
0.0
 20
0.0
 30
0.0
  9
$PUCSORGFRONT
 10
0.0
 20
0.0
 30
0.0
  9
$PUCSORGBACK
 10
0.0
 20
0.0
 30
0.0
  9
$USERI1
 70
     0
  9
$USERI2
 70
     0
  9
$USERI3
 70
     0
  9
$USERI4
 70
     0
  9
$USERI5
 70
     0
  9
$USERR1
 40
0.0
  9
$USERR2
 40
0.0
  9
$USERR3
 40
0.0
  9
$USERR4
 40
0.0
  9
$USERR5
 40
0.0
  9
$WORLDVIEW
 70
     1
  9
$SHADEDGE
 70
     3
  9
$SHADEDIF
 70
    70
  9
$TILEMODE
 70
     1
  9
$MAXACTVP
 70
    64
  9
$PINSBASE
 10
0.0
 20
0.0
 30
0.0
  9
$PLIMCHECK
 70
     0
  9
$PEXTMIN
 10
1.0000000000E+20
 20
1.0000000000E+20
 30
1.0000000000E+20
  9
$PEXTMAX
 10
-1.0000000000E+20
 20
-1.0000000000E+20
 30
-1.0000000000E+20
  9
$PLIMMIN
 10
0.0
 20
0.0
  9
$PLIMMAX
 10
420.0
 20
297.0
  9
$UNITMODE
 70
     0
  9
$VISRETAIN
 70
     1
  9
$PLINEGEN
 70
     0
  9
$PSLTSCALE
 70
     1
  9
$TREEDEPTH
 70
  3020
  9
$CMLSTYLE
  2
Standard
  9
$CMLJUST
 70
     0
  9
$CMLSCALE
 40
20.0
  9
$PROXYGRAPHICS
 70
     1
  9
$MEASUREMENT
 70
     1
  9
$CELWEIGHT
370
    -1
  9
$ENDCAPS
280
     0
  9
$JOINSTYLE
280
     0
  9
$LWDISPLAY
290
     1
  9
$INSUNITS
 70
     4
  9
$HYPERLINKBASE
  1

  9
$STYLESHEET
  1

  9
$XEDIT
290
     1
  9
$CEPSNTYPE
380
     0
  9
$PSTYLEMODE
290
     1
  9
$FINGERPRINTGUID
  2
{60dc4200-08b2-43eb-9ae4-52444eafe8f5}
  9
$VERSIONGUID
  2
{FAEB1C32-E019-11D5-929B-00C0DF256EC4}
  9
$EXTNAMES
290
     1
  9
$PSVPSCALE
 40
0.0
  9
$OLESTARTUP
290
     0
  0
ENDSEC
  0
SECTION
  2
CLASSES
  0
CLASS
  1
ACDBDICTIONARYWDFLT
  2
AcDbDictionaryWithDefault
  3
ObjectDBX Classes
 90
        0
280
     0
281
     0
  0
CLASS
  1
VISUALSTYLE
  2
AcDbVisualStyle
  3
ObjectDBX Classes
 90
     4095
280
     0
281
     0
  0
CLASS
  1
MATERIAL
  2
AcDbMaterial
  3
ObjectDBX Classes
 90
     1153
280
     0
281
     0
  0
CLASS
  1
SCALE
  2
AcDbScale
  3
ObjectDBX Classes
 90
     1153
280
     0
281
     0
  0
CLASS
  1
TABLESTYLE
  2
AcDbTableStyle
  3
ObjectDBX Classes
 90
     4095
280
     0
281
     0
  0
CLASS
  1
MLEADERSTYLE
  2
AcDbMLeaderStyle
  3
ACDB_MLEADERSTYLE_CLASS
 90
     4095
280
     0
281
     0
  0
CLASS
  1
SUN
  2
AcDbSun
  3
SCENEOE
 90
     1153
280
     0
281
     0
  0
CLASS
  1
ACDBPLACEHOLDER
  2
AcDbPlaceHolder
  3
ObjectDBX Classes
 90
        0
280
     0
281
     0
  0
CLASS
  1
LAYOUT
  2
AcDbLayout
  3
ObjectDBX Classes
 90
        0
280
     0
281
     0
  0
ENDSEC
  0
SECTION
  2
TABLES
  0
TABLE
  2
VPORT
  5
8
330
0
100
AcDbSymbolTable
 70
     1
  0
VPORT
  5
29
330
8
100
AcDbSymbolTableRecord
100
AcDbViewportTableRecord
  2
*Active
 70
     0
 10
0.0
 20
0.0
 11
1.0
 21
1.0
 12
420.0
 22
594.0
 13
0.0
 23
0.0
 14
10.0
 24
10.0
 15
10.0
 25
10.0
 16
0.0
 26
0.0
 36
1.0
 17
0.0
 27
0.0
 37
0.0
 40
1188.0
 41
0.7070707071
 42
50.0
 43
0.0
 44
0.0
 50
0.0
 51
0.0
 71
     0
 72
  2000
 73
     1
 74
     3
 75
     0
 76
     0
 77
     0
 78
     0
281
     0
 65
     1
110
0.0
120
0.0
130
0.0
111
1.0
121
0.0
131
0.0
112
0.0
122
1.0
132
0.0
 79
     0
146
0.0
  0
ENDTAB
  0
TABLE
  2
LTYPE
  5
5
330
0
100
AcDbSymbolTable
 70
     6
  0
LTYPE
  5
14
330
5
100
AcDbSymbolTableRecord
100
AcDbLinetypeTableRecord
  2
ByBlock
 70
     0
  3

 72
    65
 73
     0
 40
0.0
  0
LTYPE
  5
15
330
5
100
AcDbSymbolTableRecord
100
AcDbLinetypeTableRecord
  2
ByLayer
 70
     0
  3

 72
    65
 73
     0
 40
0.0
  0
LTYPE
  5
16
330
5
100
AcDbSymbolTableRecord
100
AcDbLinetypeTableRecord
  2
Continuous
 70
     0
  3
Solid line
 72
    65
 73
     0
 40
0.0
  0
LTYPE
  5
5E
330
5
100
AcDbSymbolTableRecord
100
AcDbLinetypeTableRecord
  2
HIDDEN
 70
     0
  3
Hidden __ __ __ __ __ __ __ __ __ __ __ __ __ __
 72
    65
 73
     2
 40
1.905
 49
1.27
 74
     0
 49
-0.635
 74
     0
  0
LTYPE
  5
5F
330
5
100
AcDbSymbolTableRecord
100
AcDbLinetypeTableRecord
  2
PHANTOM
 70
     0
  3
Phantom ______  __  __  ______  __  __  ______
 72
    65
 73
     6
 40
12.7
 49
6.35
 74
     0
 49
-1.27
 74
     0
 49
1.27
 74
     0
 49
-1.27
 74
     0
 49
1.27
 74
     0
 49
-1.27
 74
     0
  0
LTYPE
  5
60
330
5
100
AcDbSymbolTableRecord
100
AcDbLinetypeTableRecord
  2
CENTER
 70
     0
  3
Center ____ _ ____ _ ____ _ ____ _ ____ _ ____
 72
    65
 73
     4
 40
10.16
 49
6.35
 74
     0
 49
-1.27
 74
     0
 49
1.27
 74
     0
 49
-1.27
 74
     0
  0
LTYPE
  5
61
330
5
100
AcDbSymbolTableRecord
100
AcDbLinetypeTableRecord
  2
CENTERX2
 70
     0
  3
Center (2x) ________  __  ________  __  _____
 72
    65
 73
     4
 40
20.32
 49
12.7
 74
     0
 49
-2.54
 74
     0
 49
2.54
 74
     0
 49
-2.54
 74
     0
  0
LTYPE
  5
62
330
5
100
AcDbSymbolTableRecord
100
AcDbLinetypeTableRecord
  2
DOT2
 70
     0
  3
Dot (.5x) ........................................
 72
    65
 73
     2
 40
0.635
 49
0.0
 74
     0
 49
-0.635
 74
     0
  0
ENDTAB
  0
TABLE
  2
LAYER
  5
2
330
0
100
AcDbSymbolTable
 70
     3
  0
LAYER
  5
10
330
2
100
AcDbSymbolTableRecord
100
AcDbLayerTableRecord
  2
0
 70
     0
 62
     7
  6
Continuous
370
    -3
390
F
  0
LAYER
  5
63
330
2
100
AcDbSymbolTableRecord
100
AcDbLayerTableRecord
  2
FORMAT
 70
     0
 62
     7
  6
Continuous
370
    -3
390
F
  0
LAYER
  5
64
330
2
100
AcDbSymbolTableRecord
100
AcDbLayerTableRecord
  2
TESTO
 70
     0
 62
   179
  6
Continuous
370
    -3
390
F
  0
ENDTAB
  0
TABLE
  2
STYLE
  5
3
330
0
100
AcDbSymbolTable
 70
     8
  0
STYLE
  5
11
330
3
100
AcDbSymbolTableRecord
100
AcDbTextStyleTableRecord
  2
Standard
 70
     0
 40
0.0
 41
1.0
 50
0.0
 71
     0
 42
12.0
  3
txt
  4

  0
STYLE
  5
BB
330
3
100
AcDbSymbolTableRecord
100
AcDbTextStyleTableRecord
  2
SLDTEXTSTYLE0
 70
     0
 40
0.0
 41
0.75
 50
0.0
 71
     0
 42
12.0
  3
TXT
  4

  0
STYLE
  5
C7
330
3
100
AcDbSymbolTableRecord
100
AcDbTextStyleTableRecord
  2
SLDTEXTSTYLE1
 70
     0
 40
0.0
 41
0.6923076923
 50
0.0
 71
     0
 42
12.0
  3
TXT
  4

  0
STYLE
  5
D9
330
3
100
AcDbSymbolTableRecord
100
AcDbTextStyleTableRecord
  2
SLDTEXTSTYLE2
 70
     0
 40
0.0
 41
0.6944444444
 50
0.0
 71
     0
 42
12.0
  3
TXT
  4

  0
STYLE
  5
E5
330
3
100
AcDbSymbolTableRecord
100
AcDbTextStyleTableRecord
  2
SLDTEXTSTYLE3
 70
     0
 40
0.0
 41
0.7329842932
 50
0.0
 71
     0
 42
12.0
  3
TXT
  4

  0
STYLE
  5
EA
330
3
100
AcDbSymbolTableRecord
100
AcDbTextStyleTableRecord
  2
SLDTEXTSTYLE4
 70
     0
 40
0.0
 41
0.6436170213
 50
0.0
 71
     0
 42
12.0
  3
TXT
  4

  0
STYLE
  5
F3
330
3
100
AcDbSymbolTableRecord
100
AcDbTextStyleTableRecord
  2
SLDTEXTSTYLE5
 70
     0
 40
0.0
 41
0.605
 50
0.0
 71
     0
 42
12.0
  3
TXT
  4

  0
STYLE
  5
13D
330
3
100
AcDbSymbolTableRecord
100
AcDbTextStyleTableRecord
  2
SLDTEXTSTYLE6
 70
     0
 40
0.0
 41
0.7
 50
0.0
 71
     0
 42
12.0
  3
TXT
  4

  0
ENDTAB
  0
TABLE
  2
VIEW
  5
6
330
0
100
AcDbSymbolTable
 70
     0
  0
ENDTAB
  0
TABLE
  2
UCS
  5
7
330
0
100
AcDbSymbolTable
 70
     0
  0
ENDTAB
  0
TABLE
  2
APPID
  5
9
330
0
100
AcDbSymbolTable
 70
     1
  0
APPID
  5
12
330
9
100
AcDbSymbolTableRecord
100
AcDbRegAppTableRecord
  2
ACAD
 70
     0
  0
ENDTAB
  0
TABLE
  2
DIMSTYLE
  5
A
330
0
100
AcDbSymbolTable
 70
     4
100
AcDbDimStyleTable
  0
DIMSTYLE
105
27
330
A
100
AcDbSymbolTableRecord
100
AcDbDimStyleTableRecord
  2
ISO-25
 70
     0
 41
2.5
 42
0.625
 43
3.75
 44
1.25
 73
     0
 74
     0
 77
     1
 78
     8
140
2.5
141
2.5
143
0.0393700787
147
0.625
171
     3
172
     1
178
     0
271
     2
272
     2
274
     3
278
    44
283
     0
284
     8
340
11
  0
DIMSTYLE
105
185
102
{ACAD_REACTORS
330
184
330
18F
330
1A6
330
1E0
330
1EA
330
1F4
330
1FE
102
}
330
A
100
AcDbSymbolTableRecord
100
AcDbDimStyleTableRecord
  2
SLDDIMSTYLE0
 70
     0
 41
12.0
 44
0.0
 45
0.000000001
 73
     0
 74
     0
 77
     1
 78
    12
 79
     3
140
11.2
147
2.8
173
     1
178
     0
271
     2
272
     2
276
     2
284
    12
340
BB
  0
DIMSTYLE
105
19A
102
{ACAD_REACTORS
330
199
330
1B0
330
1BC
330
1C8
330
1D4
330
208
330
214
330
24D
102
}
330
A
100
AcDbSymbolTableRecord
100
AcDbDimStyleTableRecord
  2
SLDDIMSTYLE1
 70
     0
 41
12.0
 44
0.0
 45
0.000000001
 73
     0
 74
     0
 77
     1
 78
    12
 79
     3
140
11.2
147
2.8
172
     1
173
     1
178
     0
271
     2
272
     2
276
     2
284
    12
289
     0
340
BB
  0
DIMSTYLE
105
221
102
{ACAD_REACTORS
330
220
102
}
330
A
100
AcDbSymbolTableRecord
100
AcDbDimStyleTableRecord
  2
SLDDIMSTYLE2
 70
     0
 41
12.0
 44
0.0
 45
0.000000001
 73
     0
 74
     0
 77
     1
 78
    12
 79
     3
140
11.2
141
0.0
147
2.8
173
     1
178
     0
271
     2
272
     2
276
     2
284
    12
340
BB
  0
ENDTAB
  0
TABLE
  2
BLOCK_RECORD
  5
1
330
0
100
AcDbSymbolTable
 70
    19
  0
BLOCK_RECORD
  5
1F
330
1
100
AcDbSymbolTableRecord
100
AcDbBlockTableRecord
  2
*Model_Space
340
22
  0
BLOCK_RECORD
  5
1B
330
1
100
AcDbSymbolTableRecord
100
AcDbBlockTableRecord
  2
*Paper_Space
340
1E
  0
BLOCK_RECORD
  5
23
330
1
100
AcDbSymbolTableRecord
100
AcDbBlockTableRecord
  2
*Paper_Space0
340
26
  0
BLOCK_RECORD
  5
10E
330
1
100
AcDbSymbolTableRecord
100
AcDbBlockTableRecord
  2
SW_TABLEANNOTATION_0
340
0
102
{BLKREFS
331
140
102
}
  0
BLOCK_RECORD
  5
135
330
1
100
AcDbSymbolTableRecord
100
AcDbBlockTableRecord
  2
SW_SYMBOL_HOLE_SINK
340
0
102
{BLKREFS
331
13A
102
}
  0
BLOCK_RECORD
  5
186
330
1
100
AcDbSymbolTableRecord
100
AcDbBlockTableRecord
  2
_D
340
0
  0
BLOCK_RECORD
  5
190
330
1
100
AcDbSymbolTableRecord
100
AcDbBlockTableRecord
  2
_D_1
340
0
  0
BLOCK_RECORD
  5
19B
330
1
100
AcDbSymbolTableRecord
100
AcDbBlockTableRecord
  2
_D_2
340
0
  0
BLOCK_RECORD
  5
1A7
330
1
100
AcDbSymbolTableRecord
100
AcDbBlockTableRecord
  2
_D_3
340
0
  0
BLOCK_RECORD
  5
1B1
330
1
100
AcDbSymbolTableRecord
100
AcDbBlockTableRecord
  2
_D_4
340
0
  0
BLOCK_RECORD
  5
1BD
330
1
100
AcDbSymbolTableRecord
100
AcDbBlockTableRecord
  2
_D_5
340
0
  0
BLOCK_RECORD
  5
1C9
330
1
100
AcDbSymbolTableRecord
100
AcDbBlockTableRecord
  2
_D_6
340
0
  0
BLOCK_RECORD
  5
1D5
330
1
100
AcDbSymbolTableRecord
100
AcDbBlockTableRecord
  2
_D_7
340
0
  0
BLOCK_RECORD
  5
1E1
330
1
100
AcDbSymbolTableRecord
100
AcDbBlockTableRecord
  2
_D_8
340
0
  0
BLOCK_RECORD
  5
1EB
330
1
100
AcDbSymbolTableRecord
100
AcDbBlockTableRecord
  2
_D_9
340
0
  0
BLOCK_RECORD
  5
1F5
330
1
100
AcDbSymbolTableRecord
100
AcDbBlockTableRecord
  2
_D_10
340
0
  0
BLOCK_RECORD
  5
1FF
330
1
100
AcDbSymbolTableRecord
100
AcDbBlockTableRecord
  2
_D_11
340
0
  0
BLOCK_RECORD
  5
209
330
1
100
AcDbSymbolTableRecord
100
AcDbBlockTableRecord
  2
_D_12
340
0
  0
BLOCK_RECORD
  5
215
330
1
100
AcDbSymbolTableRecord
100
AcDbBlockTableRecord
  2
_D_13
340
0
  0
BLOCK_RECORD
  5
222
330
1
100
AcDbSymbolTableRecord
100
AcDbBlockTableRecord
  2
_D_14
340
0
  0
BLOCK_RECORD
  5
24E
330
1
100
AcDbSymbolTableRecord
100
AcDbBlockTableRecord
  2
_D_15
340
0
  0
ENDTAB
  0
ENDSEC
  0
SECTION
  2
BLOCKS
  0
BLOCK
  5
20
330
1F
100
AcDbEntity
  8
0
100
AcDbBlockBegin
  2
*Model_Space
 70
     0
 10
0.0
 20
0.0
 30
0.0
  3
*Model_Space
  1

  0
ENDBLK
  5
21
330
1F
100
AcDbEntity
  8
0
100
AcDbBlockEnd
  0
BLOCK
  5
1C
330
1B
100
AcDbEntity
 67
     1
  8
0
100
AcDbBlockBegin
  2
*Paper_Space
 70
     0
 10
0.0
 20
0.0
 30
0.0
  3
*Paper_Space
  1

  0
ENDBLK
  5
1D
330
1B
100
AcDbEntity
 67
     1
  8
0
100
AcDbBlockEnd
  0
BLOCK
  5
24
330
23
100
AcDbEntity
  8
0
100
AcDbBlockBegin
  2
*Paper_Space0
 70
     0
 10
0.0
 20
0.0
 30
0.0
  3
*Paper_Space0
  1

  0
ENDBLK
  5
25
330
23
100
AcDbEntity
  8
0
100
AcDbBlockEnd
  0
BLOCK
  5
10F
330
10E
100
AcDbEntity
  8
0
100
AcDbBlockBegin
  2
SW_TABLEANNOTATION_0
 70
     0
 10
0.0
 20
0.0
 30
0.0
  3
SW_TABLEANNOTATION_0
  1

  0
LINE
  5
111
330
10E
100
AcDbEntity
  8
0
  6
Continuous
 62
     0
370
    18
100
AcDbLine
 10
0.0
 20
0.0
 30
0.0
 11
0.0
 21
-24.1169451541
 31
0.0
  0
LINE
  5
112
330
10E
100
AcDbEntity
  8
0
  6
Continuous
 62
     0
370
    18
100
AcDbLine
 10
78.7071722047
 20
0.0
 30
0.0
 11
78.7071722047
 21
-24.1169451541
 31
0.0
  0
LINE
  5
113
330
10E
100
AcDbEntity
  8
0
  6
Continuous
 62
     0
370
    18
100
AcDbLine
 10
330.7192972718
 20
0.0
 30
0.0
 11
330.7192972718
 21
-24.1169451541
 31
0.0
  0
LINE
  5
114
330
10E
100
AcDbEntity
  8
0
  6
Continuous
 62
     0
370
    18
100
AcDbLine
 10
427.231241089
 20
0.0
 30
0.0
 11
427.231241089
 21
-24.1169451541
 31
0.0
  0
LINE
  5
115
330
10E
100
AcDbEntity
  8
0
  6
Continuous
 62
     0
370
    18
100
AcDbLine
 10
0.0
 20
0.0
 30
0.0
 11
78.7071722047
 21
0.0
 31
0.0
  0
LINE
  5
116
330
10E
100
AcDbEntity
  8
0
  6
Continuous
 62
     0
370
    18
100
AcDbLine
 10
0.0
 20
-24.1169451541
 30
0.0
 11
78.7071722047
 21
-24.1169451541
 31
0.0
  0
LINE
  5
117
330
10E
100
AcDbEntity
  8
0
  6
Continuous
 62
     0
370
    18
100
AcDbLine
 10
78.7071722047
 20
0.0
 30
0.0
 11
330.7192972718
 21
0.0
 31
0.0
  0
LINE
  5
118
330
10E
100
AcDbEntity
  8
0
  6
Continuous
 62
     0
370
    18
100
AcDbLine
 10
78.7071722047
 20
-24.1169451541
 30
0.0
 11
330.7192972718
 21
-24.1169451541
 31
0.0
  0
LINE
  5
119
330
10E
100
AcDbEntity
  8
0
  6
Continuous
 62
     0
370
    18
100
AcDbLine
 10
330.7192972718
 20
0.0
 30
0.0
 11
427.231241089
 21
0.0
 31
0.0
  0
LINE
  5
11A
330
10E
100
AcDbEntity
  8
0
  6
Continuous
 62
     0
370
    18
100
AcDbLine
 10
330.7192972718
 20
-24.1169451541
 30
0.0
 11
427.231241089
 21
-24.1169451541
 31
0.0
  0
LINE
  5
11B
330
10E
100
AcDbEntity
  8
0
  6
Continuous
 62
     0
370
    18
100
AcDbLine
 10
0.0
 20
-24.1169451541
 30
0.0
 11
0.0
 21
-51.0407177982
 31
0.0
  0
LINE
  5
11C
330
10E
100
AcDbEntity
  8
0
  6
Continuous
 62
     0
370
    18
100
AcDbLine
 10
78.7071722047
 20
-24.1169451541
 30
0.0
 11
78.7071722047
 21
-51.0407177982
 31
0.0
  0
LINE
  5
11D
330
10E
100
AcDbEntity
  8
0
  6
Continuous
 62
     0
370
    18
100
AcDbLine
 10
0.0
 20
-51.0407177982
 30
0.0
 11
0.0
 21
-100.3580791373
 31
0.0
  0
LINE
  5
11E
330
10E
100
AcDbEntity
  8
0
  6
Continuous
 62
     0
370
    18
100
AcDbLine
 10
78.7071722047
 20
-51.0407177982
 30
0.0
 11
78.7071722047
 21
-100.3580791373
 31
0.0
  0
LINE
  5
11F
330
10E
100
AcDbEntity
  8
0
  6
Continuous
 62
     0
370
    18
100
AcDbLine
 10
330.7192972718
 20
-24.1169451541
 30
0.0
 11
330.7192972718
 21
-51.0407177982
 31
0.0
  0
LINE
  5
120
330
10E
100
AcDbEntity
  8
0
  6
Continuous
 62
     0
370
    18
100
AcDbLine
 10
330.7192972718
 20
-51.0407177982
 30
0.0
 11
330.7192972718
 21
-100.3580791373
 31
0.0
  0
LINE
  5
121
330
10E
100
AcDbEntity
  8
0
  6
Continuous
 62
     0
370
    18
100
AcDbLine
 10
427.231241089
 20
-24.1169451541
 30
0.0
 11
427.231241089
 21
-51.0407177982
 31
0.0
  0
LINE
  5
122
330
10E
100
AcDbEntity
  8
0
  6
Continuous
 62
     0
370
    18
100
AcDbLine
 10
427.231241089
 20
-51.0407177982
 30
0.0
 11
427.231241089
 21
-100.3580791373
 31
0.0
  0
LINE
  5
123
330
10E
100
AcDbEntity
  8
0
  6
Continuous
 62
     0
370
    18
100
AcDbLine
 10
0.0
 20
-51.0407177982
 30
0.0
 11
78.7071722047
 21
-51.0407177982
 31
0.0
  0
LINE
  5
124
330
10E
100
AcDbEntity
  8
0
  6
Continuous
 62
     0
370
    18
100
AcDbLine
 10
78.7071722047
 20
-51.0407177982
 30
0.0
 11
330.7192972718
 21
-51.0407177982
 31
0.0
  0
LINE
  5
125
330
10E
100
AcDbEntity
  8
0
  6
Continuous
 62
     0
370
    18
100
AcDbLine
 10
330.7192972718
 20
-51.0407177982
 30
0.0
 11
427.231241089
 21
-51.0407177982
 31
0.0
  0
LINE
  5
126
330
10E
100
AcDbEntity
  8
0
  6
Continuous
 62
     0
370
    18
100
AcDbLine
 10
0.0
 20
-100.3580791373
 30
0.0
 11
78.7071722047
 21
-100.3580791373
 31
0.0
  0
LINE
  5
127
330
10E
100
AcDbEntity
  8
0
  6
Continuous
 62
     0
370
    18
100
AcDbLine
 10
78.7071722047
 20
-100.3580791373
 30
0.0
 11
330.7192972718
 21
-100.3580791373
 31
0.0
  0
LINE
  5
128
330
10E
100
AcDbEntity
  8
0
  6
Continuous
 62
     0
370
    18
100
AcDbLine
 10
330.7192972718
 20
-100.3580791373
 30
0.0
 11
427.231241089
 21
-100.3580791373
 31
0.0
  0
MTEXT
  5
129
330
10E
100
AcDbEntity
  8
0
  6
Continuous
 62
     0
370
     0
100
AcDbMText
 10
4.1396946855
 20
-4.7951367448
 30
0.0
 40
14.0
 41
0.0
 71
     1
 72
     1
  1
Scheda
  7
SLDTEXTSTYLE0
 73
     1
 44
1.0
  0
MTEXT
  5
12A
330
10E
100
AcDbEntity
  8
0
  6
Continuous
 62
     0
370
     0
100
AcDbMText
 10
152.0382371403
 20
-4.7951367448
 30
0.0
 40
14.0
 41
0.0
 71
     1
 72
     1
  1
Dimensione
  7
SLDTEXTSTYLE0
 73
     1
 44
1.0
  0
MTEXT
  5
12B
330
10E
100
AcDbEntity
  8
0
  6
Continuous
 62
     0
370
     0
100
AcDbMText
 10
334.7192972718
 20
-5.2274944991
 30
0.0
 40
13.7583333333
 41
0.0
 71
     1
 72
     1
  1
QUANTITÀ
  7
SLDTEXTSTYLE0
 73
     1
 44
1.0
  0
MTEXT
  5
12C
330
10E
100
AcDbEntity
  8
0
  6
Continuous
 62
     0
370
     0
100
AcDbMText
 10
32.5635940046
 20
-31.0365573088
 30
0.0
 40
13.7583333333
 41
0.0
 71
     1
 72
     1
  1
A
  7
SLDTEXTSTYLE0
 73
     1
 44
1.0
  0
MTEXT
  5
12D
330
10E
100
AcDbEntity
  8
0
  6
Continuous
 62
     0
370
     0
100
AcDbMText
 10
135.3215445436
 20
-31.0365573088
 30
0.0
 40
13.7583333333
 41
0.0
 71
     1
 72
     1
  1
%%c
  7
SLDTEXTSTYLE0
 73
     1
 44
1.0
  0
MTEXT
  5
12E
330
10E
100
AcDbEntity
  8
0
  6
Continuous
 62
     0
370
     0
100
AcDbMText
 10
161.2483587004
 20
-31.0365573088
 30
0.0
 40
13.7583333333
 41
0.0
 71
     1
 72
     1
  1
10
  7
SLDTEXTSTYLE0
 73
     1
 44
1.0
  0
MTEXT
  5
12F
330
10E
100
AcDbEntity
  8
0
  6
Continuous
 62
     0
370
     0
100
AcDbMText
 10
186.6503197588
 20
-31.0365573088
 30
0.0
 40
13.7583333333
 41
0.0
 71
     1
 72
     1
  1
PASSANTE
  7
SLDTEXTSTYLE0
 73
     1
 44
1.0
  0
MTEXT
  5
130
330
10E
100
AcDbEntity
  8
0
  6
Continuous
 62
     0
370
     0
100
AcDbMText
 10
375.4286025936
 20
-32.8041914746
 30
0.0
 40
9.6
 41
0.0
 71
     1
 72
     1
  1
4
  7
SLDTEXTSTYLE0
 73
     1
 44
1.0
  0
MTEXT
  5
131
330
10E
100
AcDbEntity
  8
0
  6
Continuous
 62
     0
370
     0
100
AcDbMText
 10
34.0922976122
 20
-69.1571243004
 30
0.0
 40
13.7583333333
 41
0.0
 71
     1
 72
     1
  1
B
  7
SLDTEXTSTYLE0
 73
     1
 44
1.0
  0
MTEXT
  5
132
330
10E
100
AcDbEntity
  8
0
  6
Continuous
 62
     0
370
     0
100
AcDbMText
 10
140.4044945396
 20
-57.9593701185
 30
0.0
 40
13.7583333333
 41
0.0
 71
     1
 72
     1
  1
%%c
  7
SLDTEXTSTYLE0
 73
     1
 44
1.0
  0
MTEXT
  5
133
330
10E
100
AcDbEntity
  8
0
  6
Continuous
 62
     0
370
     0
100
AcDbMText
 10
166.3313086964
 20
-57.9593701185
 30
0.0
 40
13.7583333333
 41
0.0
 71
     1
 72
     1
  1
9
  7
SLDTEXTSTYLE0
 73
     1
 44
1.0
  0
MTEXT
  5
134
330
10E
100
AcDbEntity
  8
0
  6
Continuous
 62
     0
370
     0
100
AcDbMText
 10
181.5673883892
 20
-57.9593701185
 30
0.0
 40
13.7583333333
 41
0.0
 71
     1
 72
     1
  1
PASSANTE
  7
SLDTEXTSTYLE0
 73
     1
 44
1.0
  0
INSERT
  5
13A
330
10E
100
AcDbEntity
  8
0
  6
Continuous
 62
     0
370
     0
100
AcDbBlockReference
  2
SW_SYMBOL_HOLE_SINK
 10
125.8614231504
 20
-96.1824101178
 30
0.0
 41
0.0043935303
 42
0.0043935303
 43
0.0043935303
  0
MTEXT
  5
13B
330
10E
100
AcDbEntity
  8
0
  6
Continuous
 62
     0
370
     0
100
AcDbMText
 10
163.0242113627
 20
-80.354880345
 30
0.0
 40
13.7583333333
 41
0.0
 71
     1
 72
     1
  1
%%c
  7
SLDTEXTSTYLE0
 73
     1
 44
1.0
  0
MTEXT
  5
13C
330
10E
100
AcDbEntity
  8
0
  6
Continuous
 62
     0
370
     0
100
AcDbMText
 10
188.9510255195
 20
-80.354880345
 30
0.0
 40
13.7583333333
 41
0.0
 71
     1
 72
     1
  1
18,25
  7
SLDTEXTSTYLE0
 73
     1
 44
1.0
  0
MTEXT
  5
13E
330
10E
100
AcDbEntity
  8
0
  6
Continuous
 62
     0
370
     0
100
AcDbMText
 10
239.754943911
 20
-80.354880345
 30
0.0
 40
13.7583333333
 41
0.0
 71
     1
 72
     1
  1
X 90°
  7
SLDTEXTSTYLE6
 73
     1
 44
1.0
  0
MTEXT
  5
13F
330
10E
100
AcDbEntity
  8
0
  6
Continuous
 62
     0
370
     0
100
AcDbMText
 10
375.4286025936
 20
-70.9247584663
 30
0.0
 40
9.6
 41
0.0
 71
     1
 72
     1
  1
4
  7
SLDTEXTSTYLE0
 73
     1
 44
1.0
  0
ENDBLK
  5
110
330
10E
100
AcDbEntity
  8
0
100
AcDbBlockEnd
  0
BLOCK
  5
136
330
135
100
AcDbEntity
  8
0
100
AcDbBlockBegin
  2
SW_SYMBOL_HOLE_SINK
 70
     0
 10
0.0
 20
0.0
 30
0.0
  3
SW_SYMBOL_HOLE_SINK
  1

  0
LINE
  5
138
330
135
100
AcDbEntity
  8
0
  6
Continuous
 62
     0
370
     0
100
AcDbLine
 10
0.0
 20
3500.0
 30
0.0
 11
3200.0
 21
300.0
 31
0.0
  0
LINE
  5
139
330
135
100
AcDbEntity
  8
0
  6
Continuous
 62
     0
370
     0
100
AcDbLine
 10
3200.0
 20
300.0
 30
0.0
 11
6400.0
 21
3500.0
 31
0.0
  0
ENDBLK
  5
137
330
135
100
AcDbEntity
  8
0
100
AcDbBlockEnd
  0
BLOCK
  5
187
330
186
100
AcDbEntity
  8
0
100
AcDbBlockBegin
  2
_D
 70
     0
 10
0.0
 20
0.0
 30
0.0
  3
_D
  1

  0
SOLID
  5
189
330
186
100
AcDbEntity
  8
0
  6
Continuous
 62
     7
370
    18
100
AcDbTrace
 10
686.4917561121
 20
835.3368754598
 30
0.0
 11
684.645602266
 21
823.3368754598
 31
0.0
 12
688.3379099583
 22
823.3368754598
 32
0.0
 13
688.3379099583
 23
823.3368754598
 33
0.0
  0
SOLID
  5
18A
330
186
100
AcDbEntity
  8
0
  6
Continuous
 62
     7
370
    18
100
AcDbTrace
 10
686.4917561121
 20
671.3368754598
 30
0.0
 11
688.3379099583
 21
683.3368754598
 31
0.0
 12
684.645602266
 22
683.3368754598
 32
0.0
 13
684.645602266
 23
683.3368754598
 33
0.0
  0
LINE
  5
18B
330
186
100
AcDbEntity
  8
0
  6
Continuous
 62
     7
370
     0
100
AcDbLine
 10
589.4917561121
 20
835.3368754598
 30
0.0
 11
690.4917561121
 21
835.3368754598
 31
0.0
  0
LINE
  5
18C
330
186
100
AcDbEntity
  8
0
  6
Continuous
 62
     7
370
     0
100
AcDbLine
 10
589.4917561121
 20
671.3368754598
 30
0.0
 11
690.4917561121
 21
671.3368754598
 31
0.0
  0
LINE
  5
18D
330
186
100
AcDbEntity
  8
0
  6
Continuous
 62
     7
370
     0
100
AcDbLine
 10
686.4917561121
 20
835.3368754598
 30
0.0
 11
686.4917561121
 21
671.3368754598
 31
0.0
  0
MTEXT
  5
18E
330
186
100
AcDbEntity
  8
0
  6
Continuous
 62
     7
370
    18
100
AcDbMText
 10
672.0541974267
 20
740.9235422896
 30
0.0
 40
11.2
 41
0.0
 71
     1
 72
     1
  1
164
  7
SLDTEXTSTYLE0
 11
-7.044195017643634E-15
 21
1.0
 31
0.0
 73
     1
 44
1.0
  0
ENDBLK
  5
188
330
186
100
AcDbEntity
  8
0
100
AcDbBlockEnd
  0
BLOCK
  5
191
330
190
100
AcDbEntity
  8
0
100
AcDbBlockBegin
  2
_D_1
 70
     0
 10
0.0
 20
0.0
 30
0.0
  3
_D_1
  1

  0
SOLID
  5
193
330
190
100
AcDbEntity
  8
0
  6
Continuous
 62
     7
370
    18
100
AcDbTrace
 10
590.4917561121
 20
575.3368754598
 30
0.0
 11
578.4917561121
 21
577.1830293059
 31
0.0
 12
578.4917561121
 22
573.4907216136
 32
0.0
 13
578.4917561121
 23
573.4907216136
 33
0.0
  0
SOLID
  5
194
330
190
100
AcDbEntity
  8
0
  6
Continuous
 62
     7
370
    18
100
AcDbTrace
 10
240.4917561121
 20
575.3368754598
 30
0.0
 11
252.4917561121
 21
573.4907216136
 31
0.0
 12
252.4917561121
 22
577.1830293059
 32
0.0
 13
252.4917561121
 23
577.1830293059
 33
0.0
  0
LINE
  5
195
330
190
100
AcDbEntity
  8
0
  6
Continuous
 62
     7
370
     0
100
AcDbLine
 10
590.4917561121
 20
672.3368754598
 30
0.0
 11
590.4917561121
 21
571.3368754598
 31
0.0
  0
LINE
  5
196
330
190
100
AcDbEntity
  8
0
  6
Continuous
 62
     7
370
     0
100
AcDbLine
 10
240.4917561121
 20
672.3368754598
 30
0.0
 11
240.4917561121
 21
571.3368754598
 31
0.0
  0
LINE
  5
197
330
190
100
AcDbEntity
  8
0
  6
Continuous
 62
     7
370
     0
100
AcDbLine
 10
590.4917561121
 20
575.3368754598
 30
0.0
 11
240.4917561121
 21
575.3368754598
 31
0.0
  0
MTEXT
  5
198
330
190
100
AcDbEntity
  8
0
  6
Continuous
 62
     7
370
    18
100
AcDbMText
 10
403.078422942
 20
589.7744341452
 30
0.0
 40
11.2
 41
0.0
 71
     1
 72
     1
  1
350
  7
SLDTEXTSTYLE0
 73
     1
 44
1.0
  0
ENDBLK
  5
192
330
190
100
AcDbEntity
  8
0
100
AcDbBlockEnd
  0
BLOCK
  5
19C
330
19B
100
AcDbEntity
  8
0
100
AcDbBlockBegin
  2
_D_2
 70
     0
 10
0.0
 20
0.0
 30
0.0
  3
_D_2
  1

  0
SOLID
  5
19E
330
19B
100
AcDbEntity
  8
0
  6
Continuous
 62
     7
370
    18
100
AcDbTrace
 10
622.4917561121
 20
733.3368754598
 30
0.0
 11
620.645602266
 21
721.3368754598
 31
0.0
 12
624.3379099583
 22
721.3368754598
 32
0.0
 13
624.3379099583
 23
721.3368754598
 33
0.0
  0
SOLID
  5
19F
330
19B
100
AcDbEntity
  8
0
  6
Continuous
 62
     7
370
    18
100
AcDbTrace
 10
622.4917561121
 20
773.3368754598
 30
0.0
 11
624.3379099583
 21
785.3368754598
 31
0.0
 12
620.645602266
 22
785.3368754598
 32
0.0
 13
620.645602266
 23
785.3368754598
 33
0.0
  0
LINE
  5
1A0
330
19B
100
AcDbEntity
  8
0
  6
Continuous
 62
     7
370
     0
100
AcDbLine
 10
524.4917561121
 20
733.3368754598
 30
0.0
 11
626.4917561121
 21
733.3368754598
 31
0.0
  0
LINE
  5
1A1
330
19B
100
AcDbEntity
  8
0
  6
Continuous
 62
     7
370
     0
100
AcDbLine
 10
524.4917561121
 20
773.3368754598
 30
0.0
 11
626.4917561121
 21
773.3368754598
 31
0.0
  0
LINE
  5
1A2
330
19B
100
AcDbEntity
  8
0
  6
Continuous
 62
     7
370
     0
100
AcDbLine
 10
622.4917561121
 20
733.3368754598
 30
0.0
 11
622.4917561121
 21
710.2599523828
 31
0.0
  0
LINE
  5
1A3
330
19B
100
AcDbEntity
  8
0
  6
Continuous
 62
     7
370
     0
100
AcDbLine
 10
622.4917561121
 20
733.3368754598
 30
0.0
 11
622.4917561121
 21
773.3368754598
 31
0.0
  0
LINE
  5
1A4
330
19B
100
AcDbEntity
  8
0
  6
Continuous
 62
     7
370
     0
100
AcDbLine
 10
622.4917561121
 20
773.3368754598
 30
0.0
 11
622.4917561121
 21
796.4137985367
 31
0.0
  0
MTEXT
  5
1A5
330
19B
100
AcDbEntity
  8
0
  6
Continuous
 62
     7
370
    18
100
AcDbMText
 10
608.0541974267
 20
745.061320013
 30
0.0
 40
11.2
 41
0.0
 71
     1
 72
     1
  1
40
  7
SLDTEXTSTYLE0
 11
2.832769448823990E-16
 21
1.0
 31
0.0
 73
     1
 44
1.0
  0
ENDBLK
  5
19D
330
19B
100
AcDbEntity
  8
0
100
AcDbBlockEnd
  0
BLOCK
  5
1A8
330
1A7
100
AcDbEntity
  8
0
100
AcDbBlockBegin
  2
_D_3
 70
     0
 10
0.0
 20
0.0
 30
0.0
  3
_D_3
  1

  0
SOLID
  5
1AA
330
1A7
100
AcDbEntity
  8
0
  6
Continuous
 62
     7
370
    18
100
AcDbTrace
 10
654.4917561121
 20
701.3368754598
 30
0.0
 11
656.3379099583
 21
713.3368754598
 31
0.0
 12
652.645602266
 22
713.3368754598
 32
0.0
 13
652.645602266
 23
713.3368754598
 33
0.0
  0
SOLID
  5
1AB
330
1A7
100
AcDbEntity
  8
0
  6
Continuous
 62
     7
370
    18
100
AcDbTrace
 10
654.4917561121
 20
805.3368754598
 30
0.0
 11
652.645602266
 21
793.3368754598
 31
0.0
 12
656.3379099583
 22
793.3368754598
 32
0.0
 13
656.3379099583
 23
793.3368754598
 33
0.0
  0
LINE
  5
1AC
330
1A7
100
AcDbEntity
  8
0
  6
Continuous
 62
     7
370
     0
100
AcDbLine
 10
564.4917561121
 20
701.3368754598
 30
0.0
 11
658.4917561121
 21
701.3368754598
 31
0.0
  0
LINE
  5
1AD
330
1A7
100
AcDbEntity
  8
0
  6
Continuous
 62
     7
370
     0
100
AcDbLine
 10
564.4917561121
 20
805.3368754598
 30
0.0
 11
658.4917561121
 21
805.3368754598
 31
0.0
  0
LINE
  5
1AE
330
1A7
100
AcDbEntity
  8
0
  6
Continuous
 62
     7
370
     0
100
AcDbLine
 10
654.4917561121
 20
701.3368754598
 30
0.0
 11
654.4917561121
 21
805.3368754598
 31
0.0
  0
MTEXT
  5
1AF
330
1A7
100
AcDbEntity
  8
0
  6
Continuous
 62
     7
370
    18
100
AcDbMText
 10
640.0541974267
 20
740.9235422896
 30
0.0
 40
11.2
 41
0.0
 71
     1
 72
     1
  1
104
  7
SLDTEXTSTYLE0
 11
6.123233995736766E-17
 21
1.0
 31
0.0
 73
     1
 44
1.0
  0
ENDBLK
  5
1A9
330
1A7
100
AcDbEntity
  8
0
100
AcDbBlockEnd
  0
BLOCK
  5
1B2
330
1B1
100
AcDbEntity
  8
0
100
AcDbBlockBegin
  2
_D_4
 70
     0
 10
0.0
 20
0.0
 30
0.0
  3
_D_4
  1

  0
SOLID
  5
1B4
330
1B1
100
AcDbEntity
  8
0
  6
Continuous
 62
     7
370
    18
100
AcDbTrace
 10
654.4917561121
 20
805.3368754598
 30
0.0
 11
652.645602266
 21
793.3368754598
 31
0.0
 12
656.3379099583
 22
793.3368754598
 32
0.0
 13
656.3379099583
 23
793.3368754598
 33
0.0
  0
SOLID
  5
1B5
330
1B1
100
AcDbEntity
  8
0
  6
Continuous
 62
     7
370
    18
100
AcDbTrace
 10
654.4917561121
 20
835.3368754598
 30
0.0
 11
656.3379099583
 21
847.3368754598
 31
0.0
 12
652.645602266
 22
847.3368754598
 32
0.0
 13
652.645602266
 23
847.3368754598
 33
0.0
  0
LINE
  5
1B6
330
1B1
100
AcDbEntity
  8
0
  6
Continuous
 62
     7
370
     0
100
AcDbLine
 10
564.4917561121
 20
805.3368754598
 30
0.0
 11
658.4917561121
 21
805.3368754598
 31
0.0
  0
LINE
  5
1B7
330
1B1
100
AcDbEntity
  8
0
  6
Continuous
 62
     7
370
     0
100
AcDbLine
 10
589.4917561121
 20
835.3368754598
 30
0.0
 11
658.4917561121
 21
835.3368754598
 31
0.0
  0
LINE
  5
1B8
330
1B1
100
AcDbEntity
  8
0
  6
Continuous
 62
     7
370
     0
100
AcDbLine
 10
654.4917561121
 20
805.3368754598
 30
0.0
 11
654.4917561121
 21
782.2599523828
 31
0.0
  0
LINE
  5
1B9
330
1B1
100
AcDbEntity
  8
0
  6
Continuous
 62
     7
370
     0
100
AcDbLine
 10
654.4917561121
 20
805.3368754598
 30
0.0
 11
654.4917561121
 21
835.3368754598
 31
0.0
  0
LINE
  5
1BA
330
1B1
100
AcDbEntity
  8
0
  6
Continuous
 62
     7
370
     0
100
AcDbLine
 10
654.4917561121
 20
835.3368754598
 30
0.0
 11
654.4917561121
 21
858.4137985367
 31
0.0
  0
MTEXT
  5
1BB
330
1B1
100
AcDbEntity
  8
0
  6
Continuous
 62
     7
370
    18
100
AcDbMText
 10
640.0541974267
 20
812.061320013
 30
0.0
 40
11.2
 41
0.0
 71
     1
 72
     1
  1
30
  7
SLDTEXTSTYLE0
 11
6.123233995736766E-17
 21
1.0
 31
0.0
 73
     1
 44
1.0
  0
ENDBLK
  5
1B3
330
1B1
100
AcDbEntity
  8
0
100
AcDbBlockEnd
  0
BLOCK
  5
1BE
330
1BD
100
AcDbEntity
  8
0
100
AcDbBlockBegin
  2
_D_5
 70
     0
 10
0.0
 20
0.0
 30
0.0
  3
_D_5
  1

  0
SOLID
  5
1C0
330
1BD
100
AcDbEntity
  8
0
  6
Continuous
 62
     7
370
    18
100
AcDbTrace
 10
622.4917561121
 20
773.3368754598
 30
0.0
 11
620.645602266
 21
761.3368754598
 31
0.0
 12
624.3379099583
 22
761.3368754598
 32
0.0
 13
624.3379099583
 23
761.3368754598
 33
0.0
  0
SOLID
  5
1C1
330
1BD
100
AcDbEntity
  8
0
  6
Continuous
 62
     7
370
    18
100
AcDbTrace
 10
622.4917561121
 20
835.3368754598
 30
0.0
 11
624.3379099583
 21
847.3368754598
 31
0.0
 12
620.645602266
 22
847.3368754598
 32
0.0
 13
620.645602266
 23
847.3368754598
 33
0.0
  0
LINE
  5
1C2
330
1BD
100
AcDbEntity
  8
0
  6
Continuous
 62
     7
370
     0
100
AcDbLine
 10
524.4917561121
 20
773.3368754598
 30
0.0
 11
626.4917561121
 21
773.3368754598
 31
0.0
  0
LINE
  5
1C3
330
1BD
100
AcDbEntity
  8
0
  6
Continuous
 62
     7
370
     0
100
AcDbLine
 10
589.4917561121
 20
835.3368754598
 30
0.0
 11
626.4917561121
 21
835.3368754598
 31
0.0
  0
LINE
  5
1C4
330
1BD
100
AcDbEntity
  8
0
  6
Continuous
 62
     7
370
     0
100
AcDbLine
 10
622.4917561121
 20
773.3368754598
 30
0.0
 11
622.4917561121
 21
750.2599523828
 31
0.0
  0
LINE
  5
1C5
330
1BD
100
AcDbEntity
  8
0
  6
Continuous
 62
     7
370
     0
100
AcDbLine
 10
622.4917561121
 20
773.3368754598
 30
0.0
 11
622.4917561121
 21
835.3368754598
 31
0.0
  0
LINE
  5
1C6
330
1BD
100
AcDbEntity
  8
0
  6
Continuous
 62
     7
370
     0
100
AcDbLine
 10
622.4917561121
 20
835.3368754598
 30
0.0
 11
622.4917561121
 21
858.4137985367
 31
0.0
  0
MTEXT
  5
1C7
330
1BD
100
AcDbEntity
  8
0
  6
Continuous
 62
     7
370
    18
100
AcDbMText
 10
608.0541974267
 20
796.061320013
 30
0.0
 40
11.2
 41
0.0
 71
     1
 72
     1
  1
62
  7
SLDTEXTSTYLE0
 11
6.123233995736766E-17
 21
1.0
 31
0.0
 73
     1
 44
1.0
  0
ENDBLK
  5
1BF
330
1BD
100
AcDbEntity
  8
0
100
AcDbBlockEnd
  0
BLOCK
  5
1CA
330
1C9
100
AcDbEntity
  8
0
100
AcDbBlockBegin
  2
_D_6
 70
     0
 10
0.0
 20
0.0
 30
0.0
  3
_D_6
  1

  0
SOLID
  5
1CC
330
1C9
100
AcDbEntity
  8
0
  6
Continuous
 62
     7
370
    18
100
AcDbTrace
 10
622.4917561121
 20
733.3368754598
 30
0.0
 11
624.3379099583
 21
745.3368754598
 31
0.0
 12
620.645602266
 22
745.3368754598
 32
0.0
 13
620.645602266
 23
745.3368754598
 33
0.0
  0
SOLID
  5
1CD
330
1C9
100
AcDbEntity
  8
0
  6
Continuous
 62
     7
370
    18
100
AcDbTrace
 10
622.4917561121
 20
671.3368754598
 30
0.0
 11
620.645602266
 21
659.3368754598
 31
0.0
 12
624.3379099583
 22
659.3368754598
 32
0.0
 13
624.3379099583
 23
659.3368754598
 33
0.0
  0
LINE
  5
1CE
330
1C9
100
AcDbEntity
  8
0
  6
Continuous
 62
     7
370
     0
100
AcDbLine
 10
524.4917561121
 20
733.3368754598
 30
0.0
 11
626.4917561121
 21
733.3368754598
 31
0.0
  0
LINE
  5
1CF
330
1C9
100
AcDbEntity
  8
0
  6
Continuous
 62
     7
370
     0
100
AcDbLine
 10
589.4917561121
 20
671.3368754598
 30
0.0
 11
626.4917561121
 21
671.3368754598
 31
0.0
  0
LINE
  5
1D0
330
1C9
100
AcDbEntity
  8
0
  6
Continuous
 62
     7
370
     0
100
AcDbLine
 10
622.4917561121
 20
733.3368754598
 30
0.0
 11
622.4917561121
 21
756.4137985367
 31
0.0
  0
LINE
  5
1D1
330
1C9
100
AcDbEntity
  8
0
  6
Continuous
 62
     7
370
     0
100
AcDbLine
 10
622.4917561121
 20
733.3368754598
 30
0.0
 11
622.4917561121
 21
671.3368754598
 31
0.0
  0
LINE
  5
1D2
330
1C9
100
AcDbEntity
  8
0
  6
Continuous
 62
     7
370
     0
100
AcDbLine
 10
622.4917561121
 20
671.3368754598
 30
0.0
 11
622.4917561121
 21
648.2599523828
 31
0.0
  0
MTEXT
  5
1D3
330
1C9
100
AcDbEntity
  8
0
  6
Continuous
 62
     7
370
    18
100
AcDbMText
 10
608.0541974267
 20
694.061320013
 30
0.0
 40
11.2
 41
0.0
 71
     1
 72
     1
  1
62
  7
SLDTEXTSTYLE0
 11
-7.044195017643634E-15
 21
1.0
 31
0.0
 73
     1
 44
1.0
  0
ENDBLK
  5
1CB
330
1C9
100
AcDbEntity
  8
0
100
AcDbBlockEnd
  0
BLOCK
  5
1D6
330
1D5
100
AcDbEntity
  8
0
100
AcDbBlockBegin
  2
_D_7
 70
     0
 10
0.0
 20
0.0
 30
0.0
  3
_D_7
  1

  0
SOLID
  5
1D8
330
1D5
100
AcDbEntity
  8
0
  6
Continuous
 62
     7
370
    18
100
AcDbTrace
 10
654.4917561121
 20
701.3368754598
 30
0.0
 11
656.3379099583
 21
713.3368754598
 31
0.0
 12
652.645602266
 22
713.3368754598
 32
0.0
 13
652.645602266
 23
713.3368754598
 33
0.0
  0
SOLID
  5
1D9
330
1D5
100
AcDbEntity
  8
0
  6
Continuous
 62
     7
370
    18
100
AcDbTrace
 10
654.4917561121
 20
671.3368754598
 30
0.0
 11
652.645602266
 21
659.3368754598
 31
0.0
 12
656.3379099583
 22
659.3368754598
 32
0.0
 13
656.3379099583
 23
659.3368754598
 33
0.0
  0
LINE
  5
1DA
330
1D5
100
AcDbEntity
  8
0
  6
Continuous
 62
     7
370
     0
100
AcDbLine
 10
564.4917561121
 20
701.3368754598
 30
0.0
 11
658.4917561121
 21
701.3368754598
 31
0.0
  0
LINE
  5
1DB
330
1D5
100
AcDbEntity
  8
0
  6
Continuous
 62
     7
370
     0
100
AcDbLine
 10
589.4917561121
 20
671.3368754598
 30
0.0
 11
658.4917561121
 21
671.3368754598
 31
0.0
  0
LINE
  5
1DC
330
1D5
100
AcDbEntity
  8
0
  6
Continuous
 62
     7
370
     0
100
AcDbLine
 10
654.4917561121
 20
701.3368754598
 30
0.0
 11
654.4917561121
 21
724.4137985367
 31
0.0
  0
LINE
  5
1DD
330
1D5
100
AcDbEntity
  8
0
  6
Continuous
 62
     7
370
     0
100
AcDbLine
 10
654.4917561121
 20
701.3368754598
 30
0.0
 11
654.4917561121
 21
671.3368754598
 31
0.0
  0
LINE
  5
1DE
330
1D5
100
AcDbEntity
  8
0
  6
Continuous
 62
     7
370
     0
100
AcDbLine
 10
654.4917561121
 20
671.3368754598
 30
0.0
 11
654.4917561121
 21
648.2599523828
 31
0.0
  0
MTEXT
  5
1DF
330
1D5
100
AcDbEntity
  8
0
  6
Continuous
 62
     7
370
    18
100
AcDbMText
 10
640.0541974267
 20
678.061320013
 30
0.0
 40
11.2
 41
0.0
 71
     1
 72
     1
  1
30
  7
SLDTEXTSTYLE0
 11
-7.044195017643634E-15
 21
1.0
 31
0.0
 73
     1
 44
1.0
  0
ENDBLK
  5
1D7
330
1D5
100
AcDbEntity
  8
0
100
AcDbBlockEnd
  0
BLOCK
  5
1E2
330
1E1
100
AcDbEntity
  8
0
100
AcDbBlockBegin
  2
_D_8
 70
     0
 10
0.0
 20
0.0
 30
0.0
  3
_D_8
  1

  0
SOLID
  5
1E4
330
1E1
100
AcDbEntity
  8
0
  6
Continuous
 62
     7
370
    18
100
AcDbTrace
 10
560.4917561121
 20
607.3368754598
 30
0.0
 11
548.4917561121
 21
609.1830293059
 31
0.0
 12
548.4917561121
 22
605.4907216136
 32
0.0
 13
548.4917561121
 23
605.4907216136
 33
0.0
  0
SOLID
  5
1E5
330
1E1
100
AcDbEntity
  8
0
  6
Continuous
 62
     7
370
    18
100
AcDbTrace
 10
270.4917561121
 20
607.3368754598
 30
0.0
 11
282.4917561121
 21
605.4907216136
 31
0.0
 12
282.4917561121
 22
609.1830293059
 32
0.0
 13
282.4917561121
 23
609.1830293059
 33
0.0
  0
LINE
  5
1E6
330
1E1
100
AcDbEntity
  8
0
  6
Continuous
 62
     7
370
     0
100
AcDbLine
 10
560.4917561121
 20
697.3368754598
 30
0.0
 11
560.4917561121
 21
603.3368754598
 31
0.0
  0
LINE
  5
1E7
330
1E1
100
AcDbEntity
  8
0
  6
Continuous
 62
     7
370
     0
100
AcDbLine
 10
270.4917561121
 20
697.3368754598
 30
0.0
 11
270.4917561121
 21
603.3368754598
 31
0.0
  0
LINE
  5
1E8
330
1E1
100
AcDbEntity
  8
0
  6
Continuous
 62
     7
370
     0
100
AcDbLine
 10
560.4917561121
 20
607.3368754598
 30
0.0
 11
270.4917561121
 21
607.3368754598
 31
0.0
  0
MTEXT
  5
1E9
330
1E1
100
AcDbEntity
  8
0
  6
Continuous
 62
     7
370
    18
100
AcDbMText
 10
403.078422942
 20
621.7744341452
 30
0.0
 40
11.2
 41
0.0
 71
     1
 72
     1
  1
290
  7
SLDTEXTSTYLE0
 73
     1
 44
1.0
  0
ENDBLK
  5
1E3
330
1E1
100
AcDbEntity
  8
0
100
AcDbBlockEnd
  0
BLOCK
  5
1EC
330
1EB
100
AcDbEntity
  8
0
100
AcDbBlockBegin
  2
_D_9
 70
     0
 10
0.0
 20
0.0
 30
0.0
  3
_D_9
  1

  0
SOLID
  5
1EE
330
1EB
100
AcDbEntity
  8
0
  6
Continuous
 62
     7
370
    18
100
AcDbTrace
 10
310.4917561121
 20
651.3368754598
 30
0.0
 11
322.4917561121
 21
649.4907216136
 31
0.0
 12
322.4917561121
 22
653.1830293059
 32
0.0
 13
322.4917561121
 23
653.1830293059
 33
0.0
  0
SOLID
  5
1EF
330
1EB
100
AcDbEntity
  8
0
  6
Continuous
 62
     7
370
    18
100
AcDbTrace
 10
520.4917561121
 20
651.3368754598
 30
0.0
 11
508.4917561121
 21
653.1830293059
 31
0.0
 12
508.4917561121
 22
649.4907216136
 32
0.0
 13
508.4917561121
 23
649.4907216136
 33
0.0
  0
LINE
  5
1F0
330
1EB
100
AcDbEntity
  8
0
  6
Continuous
 62
     7
370
     0
100
AcDbLine
 10
310.4917561121
 20
729.3368754598
 30
0.0
 11
310.4917561121
 21
647.3368754598
 31
0.0
  0
LINE
  5
1F1
330
1EB
100
AcDbEntity
  8
0
  6
Continuous
 62
     7
370
     0
100
AcDbLine
 10
520.4917561121
 20
729.3368754598
 30
0.0
 11
520.4917561121
 21
647.3368754598
 31
0.0
  0
LINE
  5
1F2
330
1EB
100
AcDbEntity
  8
0
  6
Continuous
 62
     7
370
     0
100
AcDbLine
 10
310.4917561121
 20
651.3368754598
 30
0.0
 11
520.4917561121
 21
651.3368754598
 31
0.0
  0
MTEXT
  5
1F3
330
1EB
100
AcDbEntity
  8
0
  6
Continuous
 62
     7
370
    18
100
AcDbMText
 10
403.078422942
 20
665.7744341452
 30
0.0
 40
11.2
 41
0.0
 71
     1
 72
     1
  1
210
  7
SLDTEXTSTYLE0
 73
     1
 44
1.0
  0
ENDBLK
  5
1ED
330
1EB
100
AcDbEntity
  8
0
100
AcDbBlockEnd
  0
BLOCK
  5
1F6
330
1F5
100
AcDbEntity
  8
0
100
AcDbBlockBegin
  2
_D_10
 70
     0
 10
0.0
 20
0.0
 30
0.0
  3
_D_10
  1

  0
SOLID
  5
1F8
330
1F5
100
AcDbEntity
  8
0
  6
Continuous
 62
     7
370
    18
100
AcDbTrace
 10
310.4917561121
 20
651.3368754598
 30
0.0
 11
298.4917561121
 21
653.1830293059
 31
0.0
 12
298.4917561121
 22
649.4907216136
 32
0.0
 13
298.4917561121
 23
649.4907216136
 33
0.0
  0
SOLID
  5
1F9
330
1F5
100
AcDbEntity
  8
0
  6
Continuous
 62
     7
370
    18
100
AcDbTrace
 10
240.4917561121
 20
651.3368754598
 30
0.0
 11
252.4917561121
 21
649.4907216136
 31
0.0
 12
252.4917561121
 22
653.1830293059
 32
0.0
 13
252.4917561121
 23
653.1830293059
 33
0.0
  0
LINE
  5
1FA
330
1F5
100
AcDbEntity
  8
0
  6
Continuous
 62
     7
370
     0
100
AcDbLine
 10
310.4917561121
 20
729.3368754598
 30
0.0
 11
310.4917561121
 21
647.3368754598
 31
0.0
  0
LINE
  5
1FB
330
1F5
100
AcDbEntity
  8
0
  6
Continuous
 62
     7
370
     0
100
AcDbLine
 10
240.4917561121
 20
672.3368754598
 30
0.0
 11
240.4917561121
 21
647.3368754598
 31
0.0
  0
LINE
  5
1FC
330
1F5
100
AcDbEntity
  8
0
  6
Continuous
 62
     7
370
     0
100
AcDbLine
 10
310.4917561121
 20
651.3368754598
 30
0.0
 11
240.4917561121
 21
651.3368754598
 31
0.0
  0
MTEXT
  5
1FD
330
1F5
100
AcDbEntity
  8
0
  6
Continuous
 62
     7
370
    18
100
AcDbMText
 10
267.2162006654
 20
665.7744341452
 30
0.0
 40
11.2
 41
0.0
 71
     1
 72
     1
  1
70
  7
SLDTEXTSTYLE0
 73
     1
 44
1.0
  0
ENDBLK
  5
1F7
330
1F5
100
AcDbEntity
  8
0
100
AcDbBlockEnd
  0
BLOCK
  5
200
330
1FF
100
AcDbEntity
  8
0
100
AcDbBlockBegin
  2
_D_11
 70
     0
 10
0.0
 20
0.0
 30
0.0
  3
_D_11
  1

  0
SOLID
  5
202
330
1FF
100
AcDbEntity
  8
0
  6
Continuous
 62
     7
370
    18
100
AcDbTrace
 10
520.4917561121
 20
651.3368754598
 30
0.0
 11
532.4917561121
 21
649.4907216136
 31
0.0
 12
532.4917561121
 22
653.1830293059
 32
0.0
 13
532.4917561121
 23
653.1830293059
 33
0.0
  0
SOLID
  5
203
330
1FF
100
AcDbEntity
  8
0
  6
Continuous
 62
     7
370
    18
100
AcDbTrace
 10
590.4917561121
 20
651.3368754598
 30
0.0
 11
578.4917561121
 21
653.1830293059
 31
0.0
 12
578.4917561121
 22
649.4907216136
 32
0.0
 13
578.4917561121
 23
649.4907216136
 33
0.0
  0
LINE
  5
204
330
1FF
100
AcDbEntity
  8
0
  6
Continuous
 62
     7
370
     0
100
AcDbLine
 10
520.4917561121
 20
729.3368754598
 30
0.0
 11
520.4917561121
 21
647.3368754598
 31
0.0
  0
LINE
  5
205
330
1FF
100
AcDbEntity
  8
0
  6
Continuous
 62
     7
370
     0
100
AcDbLine
 10
590.4917561121
 20
672.3368754598
 30
0.0
 11
590.4917561121
 21
647.3368754598
 31
0.0
  0
LINE
  5
206
330
1FF
100
AcDbEntity
  8
0
  6
Continuous
 62
     7
370
     0
100
AcDbLine
 10
520.4917561121
 20
651.3368754598
 30
0.0
 11
590.4917561121
 21
651.3368754598
 31
0.0
  0
MTEXT
  5
207
330
1FF
100
AcDbEntity
  8
0
  6
Continuous
 62
     7
370
    18
100
AcDbMText
 10
547.2162006654
 20
665.7744341452
 30
0.0
 40
11.2
 41
0.0
 71
     1
 72
     1
  1
70
  7
SLDTEXTSTYLE0
 73
     1
 44
1.0
  0
ENDBLK
  5
201
330
1FF
100
AcDbEntity
  8
0
100
AcDbBlockEnd
  0
BLOCK
  5
20A
330
209
100
AcDbEntity
  8
0
100
AcDbBlockBegin
  2
_D_12
 70
     0
 10
0.0
 20
0.0
 30
0.0
  3
_D_12
  1

  0
SOLID
  5
20C
330
209
100
AcDbEntity
  8
0
  6
Continuous
 62
     7
370
    18
100
AcDbTrace
 10
560.4917561121
 20
607.3368754598
 30
0.0
 11
548.4917561121
 21
609.1830293059
 31
0.0
 12
548.4917561121
 22
605.4907216136
 32
0.0
 13
548.4917561121
 23
605.4907216136
 33
0.0
  0
SOLID
  5
20D
330
209
100
AcDbEntity
  8
0
  6
Continuous
 62
     7
370
    18
100
AcDbTrace
 10
590.4917561121
 20
607.3368754598
 30
0.0
 11
602.4917561121
 21
605.4907216136
 31
0.0
 12
602.4917561121
 22
609.1830293059
 32
0.0
 13
602.4917561121
 23
609.1830293059
 33
0.0
  0
LINE
  5
20E
330
209
100
AcDbEntity
  8
0
  6
Continuous
 62
     7
370
     0
100
AcDbLine
 10
560.4917561121
 20
697.3368754598
 30
0.0
 11
560.4917561121
 21
603.3368754598
 31
0.0
  0
LINE
  5
20F
330
209
100
AcDbEntity
  8
0
  6
Continuous
 62
     7
370
     0
100
AcDbLine
 10
590.4917561121
 20
672.3368754598
 30
0.0
 11
590.4917561121
 21
603.3368754598
 31
0.0
  0
LINE
  5
210
330
209
100
AcDbEntity
  8
0
  6
Continuous
 62
     7
370
     0
100
AcDbLine
 10
560.4917561121
 20
607.3368754598
 30
0.0
 11
537.4148330352
 21
607.3368754598
 31
0.0
  0
LINE
  5
211
330
209
100
AcDbEntity
  8
0
  6
Continuous
 62
     7
370
     0
100
AcDbLine
 10
560.4917561121
 20
607.3368754598
 30
0.0
 11
590.4917561121
 21
607.3368754598
 31
0.0
  0
LINE
  5
212
330
209
100
AcDbEntity
  8
0
  6
Continuous
 62
     7
370
     0
100
AcDbLine
 10
590.4917561121
 20
607.3368754598
 30
0.0
 11
613.568679189
 21
607.3368754598
 31
0.0
  0
MTEXT
  5
213
330
209
100
AcDbEntity
  8
0
  6
Continuous
 62
     7
370
    18
100
AcDbMText
 10
567.2162006654
 20
621.7744341452
 30
0.0
 40
11.2
 41
0.0
 71
     1
 72
     1
  1
30
  7
SLDTEXTSTYLE0
 73
     1
 44
1.0
  0
ENDBLK
  5
20B
330
209
100
AcDbEntity
  8
0
100
AcDbBlockEnd
  0
BLOCK
  5
216
330
215
100
AcDbEntity
  8
0
100
AcDbBlockBegin
  2
_D_13
 70
     0
 10
0.0
 20
0.0
 30
0.0
  3
_D_13
  1

  0
SOLID
  5
218
330
215
100
AcDbEntity
  8
0
  6
Continuous
 62
     7
370
    18
100
AcDbTrace
 10
270.4917561121
 20
607.3368754598
 30
0.0
 11
282.4917561121
 21
605.4907216136
 31
0.0
 12
282.4917561121
 22
609.1830293059
 32
0.0
 13
282.4917561121
 23
609.1830293059
 33
0.0
  0
SOLID
  5
219
330
215
100
AcDbEntity
  8
0
  6
Continuous
 62
     7
370
    18
100
AcDbTrace
 10
240.4917561121
 20
607.3368754598
 30
0.0
 11
228.4917561121
 21
609.1830293059
 31
0.0
 12
228.4917561121
 22
605.4907216136
 32
0.0
 13
228.4917561121
 23
605.4907216136
 33
0.0
  0
LINE
  5
21A
330
215
100
AcDbEntity
  8
0
  6
Continuous
 62
     7
370
     0
100
AcDbLine
 10
270.4917561121
 20
697.3368754598
 30
0.0
 11
270.4917561121
 21
603.3368754598
 31
0.0
  0
LINE
  5
21B
330
215
100
AcDbEntity
  8
0
  6
Continuous
 62
     7
370
     0
100
AcDbLine
 10
240.4917561121
 20
672.3368754598
 30
0.0
 11
240.4917561121
 21
603.3368754598
 31
0.0
  0
LINE
  5
21C
330
215
100
AcDbEntity
  8
0
  6
Continuous
 62
     7
370
     0
100
AcDbLine
 10
270.4917561121
 20
607.3368754598
 30
0.0
 11
293.568679189
 21
607.3368754598
 31
0.0
  0
LINE
  5
21D
330
215
100
AcDbEntity
  8
0
  6
Continuous
 62
     7
370
     0
100
AcDbLine
 10
270.4917561121
 20
607.3368754598
 30
0.0
 11
240.4917561121
 21
607.3368754598
 31
0.0
  0
LINE
  5
21E
330
215
100
AcDbEntity
  8
0
  6
Continuous
 62
     7
370
     0
100
AcDbLine
 10
240.4917561121
 20
607.3368754598
 30
0.0
 11
217.4148330352
 21
607.3368754598
 31
0.0
  0
MTEXT
  5
21F
330
215
100
AcDbEntity
  8
0
  6
Continuous
 62
     7
370
    18
100
AcDbMText
 10
247.2162006654
 20
621.7744341452
 30
0.0
 40
11.2
 41
0.0
 71
     1
 72
     1
  1
30
  7
SLDTEXTSTYLE0
 73
     1
 44
1.0
  0
ENDBLK
  5
217
330
215
100
AcDbEntity
  8
0
100
AcDbBlockEnd
  0
BLOCK
  5
223
330
222
100
AcDbEntity
  8
0
100
AcDbBlockBegin
  2
_D_14
 70
     0
 10
0.0
 20
0.0
 30
0.0
  3
_D_14
  1

  0
SOLID
  5
225
330
222
100
AcDbEntity
  8
0
  6
Continuous
 62
     7
370
    18
100
AcDbTrace
 10
241.8133890912
 20
833.7235576207
 30
0.0
 11
234.2357755004
 21
843.2097610917
 31
0.0
 12
231.7348409816
 22
840.4934285224
 32
0.0
 13
231.7348409816
 23
840.4934285224
 33
0.0
  0
LINE
  5
226
330
222
100
AcDbEntity
  8
0
  6
Continuous
 62
     7
370
     0
100
AcDbLine
 10
241.8133890912
 20
833.7235576207
 30
0.0
 11
213.0727671147
 21
860.1851236336
 31
0.0
  0
LINE
  5
227
330
222
100
AcDbEntity
  8
0
  6
Continuous
 62
     7
370
     0
100
AcDbLine
 10
241.8133890912
 20
833.7235576207
 30
0.0
 11
245.4917561121
 21
830.3368754598
 31
0.0
  0
MTEXT
  5
228
330
222
100
AcDbEntity
  8
0
  6
Continuous
 62
     7
370
    18
100
AcDbMText
 10
222.6802194665
 20
870.6200372766
 30
0.0
 40
11.2
 41
0.0
 71
     1
 72
     1
  1
R5
  7
SLDTEXTSTYLE0
 11
0.7356734041822266
 21
-0.6773364321952084
 31
0.0
 73
     1
 44
1.0
  0
ENDBLK
  5
224
330
222
100
AcDbEntity
  8
0
100
AcDbBlockEnd
  0
BLOCK
  5
24F
330
24E
100
AcDbEntity
  8
0
100
AcDbBlockBegin
  2
_D_15
 70
     0
 10
0.0
 20
0.0
 30
0.0
  3
_D_15
  1

  0
SOLID
  5
251
330
24E
100
AcDbEntity
  8
0
  6
Continuous
 62
     7
370
    18
100
AcDbTrace
 10
622.4917561121
 20
944.687517566
 30
0.0
 11
624.3379099583
 21
956.687517566
 31
0.0
 12
620.645602266
 22
956.687517566
 32
0.0
 13
620.645602266
 23
956.687517566
 33
0.0
  0
SOLID
  5
252
330
24E
100
AcDbEntity
  8
0
  6
Continuous
 62
     7
370
    18
100
AcDbTrace
 10
622.4917561121
 20
934.687517566
 30
0.0
 11
620.645602266
 21
922.687517566
 31
0.0
 12
624.3379099583
 22
922.687517566
 32
0.0
 13
624.3379099583
 23
922.687517566
 33
0.0
  0
LINE
  5
253
330
24E
100
AcDbEntity
  8
0
  6
Continuous
 62
     7
370
     0
100
AcDbLine
 10
594.4917561121
 20
944.687517566
 30
0.0
 11
626.4917561121
 21
944.687517566
 31
0.0
  0
LINE
  5
254
330
24E
100
AcDbEntity
  8
0
  6
Continuous
 62
     7
370
     0
100
AcDbLine
 10
594.4917561121
 20
934.687517566
 30
0.0
 11
626.4917561121
 21
934.687517566
 31
0.0
  0
LINE
  5
255
330
24E
100
AcDbEntity
  8
0
  6
Continuous
 62
     7
370
     0
100
AcDbLine
 10
622.4917561121
 20
944.687517566
 30
0.0
 11
622.4917561121
 21
967.7644406429
 31
0.0
  0
LINE
  5
256
330
24E
100
AcDbEntity
  8
0
  6
Continuous
 62
     7
370
     0
100
AcDbLine
 10
622.4917561121
 20
944.687517566
 30
0.0
 11
622.4917561121
 21
934.687517566
 31
0.0
  0
LINE
  5
257
330
24E
100
AcDbEntity
  8
0
  6
Continuous
 62
     7
370
     0
100
AcDbLine
 10
622.4917561121
 20
934.687517566
 30
0.0
 11
622.4917561121
 21
890.9217068035
 31
0.0
  0
MTEXT
  5
258
330
24E
100
AcDbEntity
  8
0
  6
Continuous
 62
     7
370
    18
100
AcDbMText
 10
608.0541974267
 20
890.9217068035
 30
0.0
 40
11.2
 41
0.0
 71
     1
 72
     1
  1
10
  7
SLDTEXTSTYLE0
 11
-7.044195017643634E-15
 21
1.0
 31
0.0
 73
     1
 44
1.0
  0
ENDBLK
  5
250
330
24E
100
AcDbEntity
  8
0
100
AcDbBlockEnd
  0
ENDSEC
  0
SECTION
  2
ENTITIES
  0
LINE
  5
65
330
1F
100
AcDbEntity
  8
0
  6
Continuous
 62
     7
370
    18
100
AcDbLine
 10
731.804
 20
27.9412
 30
0.0
 11
799.804
 21
27.9412
 31
0.0
  0
LINE
  5
66
330
1F
100
AcDbEntity
  8
0
  6
Continuous
 62
     7
370
    18
100
AcDbLine
 10
731.804
 20
51.9412
 30
0.0
 11
799.804
 21
51.9412
 31
0.0
  0
LINE
  5
67
330
1F
100
AcDbEntity
  8
0
  6
Continuous
 62
     7
370
    18
100
AcDbLine
 10
731.804
 20
65.9412
 30
0.0
 11
799.804
 21
65.9412
 31
0.0
  0
LINE
  5
68
330
1F
100
AcDbEntity
  8
0
  6
Continuous
 62
     7
370
    18
100
AcDbLine
 10
731.804
 20
65.9412
 30
0.0
 11
731.804
 21
13.9412
 31
0.0
  0
LINE
  5
69
330
1F
100
AcDbEntity
  8
0
  6
Continuous
 62
     7
370
    18
100
AcDbLine
 10
51.004
 20
13.9412
 30
0.0
 11
799.804
 21
13.9412
 31
0.0
  0
LINE
  5
6A
330
1F
100
AcDbEntity
  8
0
  6
Continuous
 62
     7
370
    18
100
AcDbLine
 10
51.0028644725
 20
13.9412
 30
0.0
 11
799.804
 21
13.9412
 31
0.0
  0
LINE
  5
6B
330
1F
100
AcDbEntity
  8
0
  6
Continuous
 62
     7
370
    18
100
AcDbLine
 10
799.804
 20
190.7412
 30
0.0
 11
799.804
 21
13.9412
 31
0.0
  0
LINE
  5
6C
330
1F
100
AcDbEntity
  8
0
  6
Continuous
 62
     7
370
    18
100
AcDbLine
 10
51.004
 20
243.0469177355
 30
0.0
 11
51.004
 21
13.9412
 31
0.0
  0
LINE
  5
6D
330
1F
100
AcDbEntity
  8
0
  6
Continuous
 62
     7
370
    18
100
AcDbLine
 10
731.8028644725
 20
126.7375468821
 30
0.0
 11
731.8028644725
 21
13.9412
 31
0.0
  0
LINE
  5
6E
330
1F
100
AcDbEntity
  8
0
  6
Continuous
 62
     7
370
    18
100
AcDbLine
 10
731.8028644725
 20
65.9412
 30
0.0
 11
799.804
 21
65.9412
 31
0.0
  0
LINE
  5
6F
330
1F
100
AcDbEntity
  8
0
  6
Continuous
 62
     7
370
    18
100
AcDbLine
 10
51.0028644725
 20
190.7412
 30
0.0
 11
51.0028644725
 21
13.9412
 31
0.0
  0
LINE
  5
70
330
1F
100
AcDbEntity
  8
0
  6
Continuous
 62
     7
370
    18
100
AcDbLine
 10
151.2689668219
 20
126.7375468821
 30
0.0
 11
151.2689668219
 21
102.7412
 31
0.0
  0
LINE
  5
71
330
1F
100
AcDbEntity
  8
0
  6
Continuous
 62
     7
370
    18
100
AcDbLine
 10
51.0028644725
 20
102.7412
 30
0.0
 11
289.0028644725
 21
102.7412
 31
0.0
  0
LINE
  5
72
330
1F
100
AcDbEntity
  8
0
  6
Continuous
 62
     7
370
    18
100
AcDbLine
 10
51.0028644725
 20
37.9412
 30
0.0
 11
289.2648473029
 21
37.9412
 31
0.0
  0
LINE
  5
73
330
1F
100
AcDbEntity
  8
0
  6
Continuous
 62
     7
370
    18
100
AcDbLine
 10
289.0028644725
 20
102.7412
 30
0.0
 11
289.0028644725
 21
13.9412
 31
0.0
  0
LINE
  5
74
330
1F
100
AcDbEntity
  8
0
  6
CENTERX2
 62
     7
370
    18
100
AcDbLine
 10
738.2056136402
 20
84.9685871321
 30
0.0
 11
792.1962211909
 21
84.9685871321
 31
0.0
  0
LINE
  5
75
330
1F
100
AcDbEntity
  8
0
  6
CENTERX2
 62
     7
370
    18
100
AcDbLine
 10
779.7779632637
 20
97.9766374304
 30
0.0
 11
779.7779632637
 21
71.5971010763
 31
0.0
  0
LINE
  5
76
330
1F
100
AcDbEntity
  8
0
  6
Continuous
 62
     7
370
    18
100
AcDbLine
 10
289.0028644725
 20
102.7412
 30
0.0
 11
731.8028644725
 21
102.7412
 31
0.0
  0
LINE
  5
77
330
1F
100
AcDbEntity
  8
TESTO
100
AcDbLine
 10
130.8021135119
 20
74.0411029127
 30
0.0
 11
114.0119512011
 21
61.1425830661
 31
0.0
  0
LINE
  5
78
330
1F
100
AcDbEntity
  8
0
  6
Continuous
 62
     7
370
    18
100
AcDbLine
 10
289.0028644725
 20
45.9412
 30
0.0
 11
731.8028644725
 21
45.9412
 31
0.0
  0
LINE
  5
79
330
1F
100
AcDbEntity
  8
TESTO
100
AcDbLine
 10
98.8124908248
 20
73.2498051369
 30
0.0
 11
103.6979676226
 21
69.4263885126
 31
0.0
  0
LINE
  5
7A
330
1F
100
AcDbEntity
  8
0
  6
Continuous
 62
     7
370
    18
100
AcDbLine
 10
626.3380263986
 20
102.7412
 30
0.0
 11
626.3380263986
 21
83.8078666667
 31
0.0
  0
LINE
  5
7B
330
1F
100
AcDbEntity
  8
0
  6
Continuous
 62
     7
370
    18
100
AcDbLine
 10
626.3380263986
 20
83.8078666667
 30
0.0
 11
626.3380263986
 21
64.8745333333
 31
0.0
  0
LINE
  5
7C
330
1F
100
AcDbEntity
  8
0
  6
Continuous
 62
     7
370
    18
100
AcDbLine
 10
799.804
 20
1181.9412
 30
0.0
 11
31.004
 21
1181.9412
 31
0.0
  0
LINE
  5
7D
330
1F
100
AcDbEntity
  8
0
  6
Continuous
 62
     7
370
    18
100
AcDbLine
 10
744.6866664469
 20
89.8541535258
 30
0.0
 11
744.6866664469
 21
79.8541535258
 31
0.0
  0
LINE
  5
7E
330
1F
100
AcDbEntity
  8
0
  6
Continuous
 62
     7
370
    18
100
AcDbLine
 10
761.7030957618
 20
92.8541535258
 30
0.0
 11
761.6216774397
 21
76.8541535258
 31
0.0
  0
LINE
  5
7F
330
1F
100
AcDbEntity
  8
0
  6
Continuous
 62
     7
370
    18
100
AcDbLine
 10
761.7030957618
 20
92.8541535258
 30
0.0
 11
744.6866664469
 21
89.8541535258
 31
0.0
  0
LINE
  5
80
330
1F
100
AcDbEntity
  8
0
  6
Continuous
 62
     7
370
    18
100
AcDbLine
 10
761.6216774397
 20
76.8541535258
 30
0.0
 11
744.6866664469
 21
79.8541535258
 31
0.0
  0
LINE
  5
81
330
1F
100
AcDbEntity
  8
0
  6
Continuous
 62
     7
370
    18
100
AcDbLine
 10
626.3380263986
 20
64.8745333333
 30
0.0
 11
626.3380263986
 21
45.9412
 31
0.0
  0
LINE
  5
82
330
1F
100
AcDbEntity
  8
0
  6
Continuous
 62
     7
370
    18
100
AcDbLine
 10
626.3380263986
 20
83.8078666667
 30
0.0
 11
731.8028644725
 21
83.8078666667
 31
0.0
  0
LINE
  5
83
330
1F
100
AcDbEntity
  8
0
  6
Continuous
 62
     7
370
    18
100
AcDbLine
 10
626.3380263986
 20
64.8745333333
 30
0.0
 11
731.8028644725
 21
64.8745333333
 31
0.0
  0
LINE
  5
84
330
1F
100
AcDbEntity
  8
0
  6
Continuous
 62
     7
370
    18
100
AcDbLine
 10
673.0279738854
 20
45.9412
 30
0.0
 11
673.0279738854
 21
13.9412
 31
0.0
  0
LINE
  5
85
330
1F
100
AcDbEntity
  8
0
  6
Continuous
 62
     7
370
    18
100
AcDbLine
 10
445.0865459197
 20
45.9412
 30
0.0
 11
445.0865459197
 21
13.9412
 31
0.0
  0
LINE
  5
86
330
1F
100
AcDbEntity
  8
0
  6
Continuous
 62
     7
370
    18
100
AcDbLine
 10
445.0865459197
 20
29.9412
 30
0.0
 11
289.0028644725
 21
29.9412
 31
0.0
  0
LINE
  5
87
330
1F
100
AcDbEntity
  8
0
  6
Continuous
 62
     7
370
    18
100
AcDbLine
 10
31.004
 20
1181.9412
 30
0.0
 11
31.004
 21
13.9412
 31
0.0
  0
LINE
  5
88
330
1F
100
AcDbEntity
  8
0
  6
Continuous
 62
     7
370
    18
100
AcDbLine
 10
51.004
 20
187.9412
 30
0.0
 11
31.004
 21
187.9412
 31
0.0
  0
LINE
  5
89
330
1F
100
AcDbEntity
  8
0
  6
Continuous
 62
     7
370
    18
100
AcDbLine
 10
31.004
 20
13.9412
 30
0.0
 11
51.004
 21
13.9412
 31
0.0
  0
LINE
  5
8A
330
1F
100
AcDbEntity
  8
0
  6
Continuous
 62
     7
370
    18
100
AcDbLine
 10
51.004
 20
1161.9412
 30
0.0
 11
51.004
 21
13.9412
 31
0.0
  0
LINE
  5
8B
330
1F
100
AcDbEntity
  8
0
  6
Continuous
 62
     7
370
    18
100
AcDbLine
 10
799.804
 20
13.9412
 30
0.0
 11
799.804
 21
1161.9412
 31
0.0
  0
LINE
  5
8C
330
1F
100
AcDbEntity
  8
0
  6
Continuous
 62
     7
370
    18
100
AcDbLine
 10
799.804
 20
1161.9412
 30
0.0
 11
51.004
 21
1161.9412
 31
0.0
  0
LINE
  5
8D
330
1F
100
AcDbEntity
  8
0
  6
Continuous
 62
     7
370
    18
100
AcDbLine
 10
31.004
 20
387.9412
 30
0.0
 11
51.004
 21
387.9412
 31
0.0
  0
LINE
  5
8E
330
1F
100
AcDbEntity
  8
0
  6
Continuous
 62
     7
370
    18
100
AcDbLine
 10
31.004
 20
787.9412
 30
0.0
 11
51.004
 21
787.9412
 31
0.0
  0
LINE
  5
8F
330
1F
100
AcDbEntity
  8
0
  6
Continuous
 62
     7
370
    18
100
AcDbLine
 10
51.004
 20
987.9412
 30
0.0
 11
31.004
 21
987.9412
 31
0.0
  0
LINE
  5
90
330
1F
100
AcDbEntity
  8
0
  6
Continuous
 62
     7
370
    18
100
AcDbLine
 10
215.404
 20
1161.9412
 30
0.0
 11
215.404
 21
1181.9412
 31
0.0
  0
LINE
  5
91
330
1F
100
AcDbEntity
  8
0
  6
Continuous
 62
     7
370
    18
100
AcDbLine
 10
615.404
 20
1161.9412
 30
0.0
 11
615.404
 21
1181.9412
 31
0.0
  0
LINE
  5
92
330
1F
100
AcDbEntity
  8
0
  6
Continuous
 62
     7
370
    18
100
AcDbLine
 10
51.004
 20
1161.9412
 30
0.0
 11
31.004
 21
1161.9412
 31
0.0
  0
LINE
  5
93
330
1F
100
AcDbEntity
  8
0
  6
Continuous
 62
     7
370
    18
100
AcDbLine
 10
51.004
 20
1161.9412
 30
0.0
 11
51.004
 21
1181.9412
 31
0.0
  0
LINE
  5
94
330
1F
100
AcDbEntity
  8
0
  6
Continuous
 62
     7
370
    18
100
AcDbLine
 10
799.804
 20
1161.9412
 30
0.0
 11
799.804
 21
1181.9412
 31
0.0
  0
LINE
  5
95
330
1F
100
AcDbEntity
  8
0
  6
Continuous
 62
     7
370
    18
100
AcDbLine
 10
415.404
 20
1181.9412
 30
0.0
 11
415.404
 21
1161.9412
 31
0.0
  0
LINE
  5
96
330
1F
100
AcDbEntity
  8
0
  6
Continuous
 62
     7
370
    18
100
AcDbLine
 10
31.004
 20
587.9412
 30
0.0
 11
71.004
 21
587.9412
 31
0.0
  0
LINE
  5
97
330
1F
100
AcDbEntity
  8
0
  6
Continuous
 62
     7
370
    18
100
AcDbLine
 10
291.0028644725
 20
190.7412
 30
0.0
 11
291.0028644725
 21
158.7412
 31
0.0
  0
LINE
  5
98
330
1F
100
AcDbEntity
  8
0
  6
Continuous
 62
     7
370
    18
100
AcDbLine
 10
51.0028644725
 20
126.7375468821
 30
0.0
 11
799.804
 21
126.7375468821
 31
0.0
  0
LINE
  5
99
330
1F
100
AcDbEntity
  8
TESTO
100
AcDbLine
 10
67.609000777
 20
97.1732322932
 30
0.0
 11
155.89325018
 21
97.1732322932
 31
0.0
  0
LINE
  5
9A
330
1F
100
AcDbEntity
  8
TESTO
100
AcDbLine
 10
67.609000777
 20
97.1732322932
 30
0.0
 11
75.9145455104
 21
90.7927559406
 31
0.0
  0
LINE
  5
9B
330
1F
100
AcDbEntity
  8
0
  6
Continuous
 62
     7
370
    18
100
AcDbLine
 10
272.0589687715
 20
126.7375468821
 30
0.0
 11
272.0589687715
 21
102.7412
 31
0.0
  0
LINE
  5
9C
330
1F
100
AcDbEntity
  8
0
  6
Continuous
 62
     7
370
    18
100
AcDbLine
 10
531.0686389071
 20
126.7375468821
 30
0.0
 11
531.0686389071
 21
102.7412
 31
0.0
  0
LINE
  5
9D
330
1F
100
AcDbEntity
  8
0
  6
Continuous
 62
     7
370
    18
100
AcDbLine
 10
638.249195863
 20
126.7375468821
 30
0.0
 11
638.249195863
 21
102.7412
 31
0.0
  0
LINE
  5
9E
330
1F
100
AcDbEntity
  8
0
  6
Continuous
 62
     7
370
    18
100
AcDbLine
 10
51.0028644725
 20
158.7412
 30
0.0
 11
799.804
 21
158.7412
 31
0.0
  0
LINE
  5
9F
330
1F
100
AcDbEntity
  8
TESTO
100
AcDbLine
 10
155.89325018
 20
97.1732322932
 30
0.0
 11
147.5148225111
 21
90.7367658928
 31
0.0
  0
LINE
  5
A0
330
1F
100
AcDbEntity
  8
TESTO
100
AcDbLine
 10
88.5270685886
 20
81.1035774664
 30
0.0
 11
95.7552981889
 21
75.550714949
 31
0.0
  0
LINE
  5
A1
330
1F
100
AcDbEntity
  8
0
  6
Continuous
 62
     7
370
    18
100
AcDbLine
 10
51.0028644725
 20
190.7412
 30
0.0
 11
799.804
 21
190.7412
 31
0.0
  0
LINE
  5
A2
330
1F
100
AcDbEntity
  8
0
  6
Continuous
 62
     7
370
    18
100
AcDbLine
 10
415.0028644725
 20
190.7412
 30
0.0
 11
415.0028644725
 21
158.7412
 31
0.0
  0
LINE
  5
A3
330
1F
100
AcDbEntity
  8
0
  6
Continuous
 62
     7
370
    18
100
AcDbLine
 10
531.0028644725
 20
158.7412
 30
0.0
 11
531.0028644725
 21
126.7375468821
 31
0.0
  0
LINE
  5
A4
330
1F
100
AcDbEntity
  8
0
  6
Continuous
 62
     7
370
    18
100
AcDbLine
 10
531.0028644725
 20
158.7412
 30
0.0
 11
531.0028644725
 21
190.7412
 31
0.0
  0
LINE
  5
A5
330
1F
100
AcDbEntity
  8
0
  6
Continuous
 62
     7
370
    18
100
AcDbLine
 10
531.0028644725
 20
142.7412
 30
0.0
 11
799.804
 21
142.7412
 31
0.0
  0
LINE
  5
A6
330
1F
100
AcDbEntity
  8
0
  6
Continuous
 62
     7
370
    18
100
AcDbLine
 10
115.004
 20
1141.9412
 30
0.0
 11
115.004
 21
1161.9412
 31
0.0
  0
LINE
  5
A7
330
1F
100
AcDbEntity
  8
0
  6
Continuous
 62
     7
370
    18
100
AcDbLine
 10
51.004
 20
1141.9412
 30
0.0
 11
799.804
 21
1141.9412
 31
0.0
  0
LINE
  5
A8
330
1F
100
AcDbEntity
  8
0
  6
Continuous
 62
     7
370
    18
100
AcDbLine
 10
51.004
 20
1141.9412
 30
0.0
 11
51.004
 21
1161.9412
 31
0.0
  0
LINE
  5
A9
330
1F
100
AcDbEntity
  8
0
  6
Continuous
 62
     7
370
    18
100
AcDbLine
 10
51.004
 20
1161.9412
 30
0.0
 11
799.804
 21
1161.9412
 31
0.0
  0
LINE
  5
AA
330
1F
100
AcDbEntity
  8
0
  6
Continuous
 62
     7
370
    18
100
AcDbLine
 10
799.804
 20
1141.9412
 30
0.0
 11
799.804
 21
1161.9412
 31
0.0
  0
LINE
  5
AB
330
1F
100
AcDbEntity
  8
0
  6
Continuous
 62
     7
370
    18
100
AcDbLine
 10
735.804
 20
1141.9412
 30
0.0
 11
735.804
 21
1161.9412
 31
0.0
  0
LINE
  5
AC
330
1F
100
AcDbEntity
  8
0
  6
Continuous
 62
     7
370
    18
100
AcDbLine
 10
617.4516497353
 20
1141.9412
 30
0.0
 11
617.4516497353
 21
1161.9412
 31
0.0
  0
LINE
  5
AD
330
1F
100
AcDbEntity
  8
0
  6
Continuous
 62
     7
370
    18
100
AcDbLine
 10
51.004
 20
1121.9412
 30
0.0
 11
799.804
 21
1121.9412
 31
0.0
  0
LINE
  5
AE
330
1F
100
AcDbEntity
  8
0
  6
Continuous
 62
     7
370
    18
100
AcDbLine
 10
51.004
 20
1101.9412
 30
0.0
 11
799.804
 21
1101.9412
 31
0.0
  0
LINE
  5
AF
330
1F
100
AcDbEntity
  8
0
  6
Continuous
 62
     7
370
    18
100
AcDbLine
 10
51.004
 20
1081.9412
 30
0.0
 11
799.804
 21
1081.9412
 31
0.0
  0
LINE
  5
B0
330
1F
100
AcDbEntity
  8
0
  6
Continuous
 62
     7
370
    18
100
AcDbLine
 10
51.004
 20
1141.9412
 30
0.0
 11
51.004
 21
1081.9412
 31
0.0
  0
LINE
  5
B1
330
1F
100
AcDbEntity
  8
0
  6
Continuous
 62
     7
370
    18
100
AcDbLine
 10
115.004
 20
1141.9412
 30
0.0
 11
115.004
 21
1081.9412
 31
0.0
  0
LINE
  5
B2
330
1F
100
AcDbEntity
  8
0
  6
Continuous
 62
     7
370
    18
100
AcDbLine
 10
617.4516497353
 20
1141.9412
 30
0.0
 11
617.4516497353
 21
1081.9412
 31
0.0
  0
LINE
  5
B3
330
1F
100
AcDbEntity
  8
0
  6
Continuous
 62
     7
370
    18
100
AcDbLine
 10
735.804
 20
1141.9412
 30
0.0
 11
735.804
 21
1081.9412
 31
0.0
  0
LINE
  5
B4
330
1F
100
AcDbEntity
  8
0
  6
Continuous
 62
     7
370
    18
100
AcDbLine
 10
799.804
 20
1141.9412
 30
0.0
 11
799.804
 21
1081.9412
 31
0.0
  0
LINE
  5
B5
330
1F
100
AcDbEntity
  8
0
  6
Continuous
 62
     7
370
    18
100
AcDbLine
 10
395.9793136014
 20
126.7375468821
 30
0.0
 11
395.9793136014
 21
102.7412
 31
0.0
  0
LINE
  5
B6
330
1F
100
AcDbEntity
  8
0
  6
Continuous
 62
     7
370
    18
100
AcDbLine
 10
289.0028644725
 20
58.3412
 30
0.0
 11
626.3380263986
 21
58.3412
 31
0.0
  0
LINE
  5
B7
330
1F
100
AcDbEntity
  8
0
  6
Continuous
 62
     7
370
    18
100
AcDbLine
 10
532.0723341162
 20
58.3412
 30
0.0
 11
532.0723341162
 21
45.9412
 31
0.0
  0
LINE
  5
B8
330
1F
100
AcDbEntity
  8
0
  6
Continuous
 62
     7
370
    18
100
AcDbLine
 10
51.004
 20
240.9142832505
 30
0.0
 11
51.004
 21
166.9412
 31
0.0
  0
CIRCLE
  5
B9
330
1F
100
AcDbEntity
  8
0
  6
Continuous
 62
     7
370
    18
100
AcDbCircle
 10
779.7779632637
 20
84.9685871321
 30
0.0
 40
5.00000000000012
  0
CIRCLE
  5
BA
330
1F
100
AcDbEntity
  8
0
  6
Continuous
 62
     7
370
    18
100
AcDbCircle
 10
779.7779632637
 20
84.9685871321
 30
0.0
 40
7.999999999999976
  0
MTEXT
  5
BC
330
1F
100
AcDbEntity
  8
0
  6
Continuous
 62
     7
370
     0
100
AcDbMText
 10
37.6706666667
 20
692.6132816142
 30
0.0
 40
7.4083333333
 41
0.0
 71
     1
 72
     1
  1
C
  7
SLDTEXTSTYLE0
 73
     1
 44
1.0
  0
MTEXT
  5
BD
330
1F
100
AcDbEntity
  8
0
  6
Continuous
 62
     7
370
     0
100
AcDbMText
 10
312.0706786667
 20
1176.6132976142
 30
0.0
 40
7.4083333333
 41
0.0
 71
     1
 72
     1
  1
2
  7
SLDTEXTSTYLE0
 73
     1
 44
1.0
  0
MTEXT
  5
BE
330
1F
100
AcDbEntity
  8
0
  6
Continuous
 62
     7
370
     0
100
AcDbMText
 10
512.0706786667
 20
1176.6132976142
 30
0.0
 40
7.4083333333
 41
0.0
 71
     1
 72
     1
  1
3
  7
SLDTEXTSTYLE0
 73
     1
 44
1.0
  0
MTEXT
  5
BF
330
1F
100
AcDbEntity
  8
0
  6
Continuous
 62
     7
370
     0
100
AcDbMText
 10
113.7373453333
 20
1176.6132976142
 30
0.0
 40
7.4083333333
 41
0.0
 71
     1
 72
     1
  1
1
  7
SLDTEXTSTYLE0
 73
     1
 44
1.0
  0
MTEXT
  5
C0
330
1F
100
AcDbEntity
  8
0
  6
Continuous
 62
     7
370
     0
100
AcDbMText
 10
712.0706426667
 20
1176.6132976142
 30
0.0
 40
7.4083333333
 41
0.0
 71
     1
 72
     1
  1
4
  7
SLDTEXTSTYLE0
 73
     1
 44
1.0
  0
MTEXT
  5
C1
330
1F
100
AcDbEntity
  8
0
  6
Continuous
 62
     7
370
     0
100
AcDbMText
 10
37.6706666667
 20
892.6132816142
 30
0.0
 40
7.4083333333
 41
0.0
 71
     1
 72
     1
  1
B
  7
SLDTEXTSTYLE0
 73
     1
 44
1.0
  0
MTEXT
  5
C2
330
1F
100
AcDbEntity
  8
0
  6
Continuous
 62
     7
370
     0
100
AcDbMText
 10
37.6706666667
 20
1092.6132816142
 30
0.0
 40
7.4083333333
 41
0.0
 71
     1
 72
     1
  1
A
  7
SLDTEXTSTYLE0
 73
     1
 44
1.0
  0
MTEXT
  5
C3
330
1F
100
AcDbEntity
  8
0
  6
Continuous
 62
     7
370
     0
100
AcDbMText
 10
37.6706666667
 20
492.6132816142
 30
0.0
 40
7.4083333333
 41
0.0
 71
     1
 72
     1
  1
D
  7
SLDTEXTSTYLE0
 73
     1
 44
1.0
  0
MTEXT
  5
C4
330
1F
100
AcDbEntity
  8
0
  6
Continuous
 62
     7
370
     0
100
AcDbMText
 10
37.6706666667
 20
292.6132816142
 30
0.0
 40
7.4083333333
 41
0.0
 71
     1
 72
     1
  1
E
  7
SLDTEXTSTYLE0
 73
     1
 44
1.0
  0
MTEXT
  5
C5
330
1F
100
AcDbEntity
  8
0
  6
Continuous
 62
     7
370
     0
100
AcDbMText
 10
37.6706666667
 20
92.6132816142
 30
0.0
 40
7.4083333333
 41
0.0
 71
     1
 72
     1
  1
F
  7
SLDTEXTSTYLE0
 73
     1
 44
1.0
  0
MTEXT
  5
C6
330
1F
100
AcDbEntity
  8
0
  6
Continuous
 62
     7
370
     0
100
AcDbMText
 10
755.3853717807
 20
45.3556391695
 30
0.0
 40
11.6416666667
 41
0.0
 71
     1
 72
     1
  1
A4
  7
SLDTEXTSTYLE0
 73
     1
 44
1.0
  0
MTEXT
  5
C8
330
1F
100
AcDbEntity
  8
0
  6
Continuous
 62
     7
370
     0
100
AcDbMText
 10
738.6967328365
 20
23.8791271077
 30
0.0
 40
6.0
 41
0.0
 71
     1
 72
     1
  1
FOGLIO 1 DI 1
  7
SLDTEXTSTYLE1
 73
     1
 44
1.0
  0
MTEXT
  5
C9
330
1F
100
AcDbEntity
  8
0
  6
Continuous
 62
     7
370
     0
100
AcDbMText
 10
746.4055204007
 20
62.420075159
 30
0.0
 40
6.0
 41
0.0
 71
     1
 72
     1
  1
SCALA:1:4
  7
SLDTEXTSTYLE0
 73
     1
 44
1.0
  0
MTEXT
  5
CA
330
1F
100
AcDbEntity
  8
0
  6
Continuous
 62
     7
370
     0
100
AcDbMText
 10
419.2647671401
 20
185.832165153
 30
0.0
 40
5.2916666667
 41
0.0
 71
     1
 72
     1
  1
Grado di finitura
  7
SLDTEXTSTYLE0
 73
     1
 44
1.0
  0
MTEXT
  5
CB
330
1F
100
AcDbEntity
  8
0
  6
Continuous
 62
     7
370
     0
100
AcDbMText
 10
534.9671390472
 20
135.1762583935
 30
0.0
 40
5.2916666667
 41
0.0
 71
     1
 72
     1
  1
Profondità
  7
SLDTEXTSTYLE0
 73
     1
 44
1.0
  0
MTEXT
  5
CC
330
1F
100
AcDbEntity
  8
0
  6
Continuous
 62
     7
370
     0
100
AcDbMText
 10
534.9671390472
 20
152.1876062321
 30
0.0
 40
5.2916666667
 41
0.0
 71
     1
 72
     1
  1
Durezza
  7
SLDTEXTSTYLE0
 73
     1
 44
1.0
  0
MTEXT
  5
CD
330
1F
100
AcDbEntity
  8
0
  6
Continuous
 62
     7
370
     0
100
AcDbMText
 10
535.0028644725
 20
185.832165153
 30
0.0
 40
5.2916666667
 41
0.0
 71
     1
 72
     1
  1
Trattamento
  7
SLDTEXTSTYLE0
 73
     1
 44
1.0
  0
MTEXT
  5
CE
330
1F
100
AcDbEntity
  8
0
  6
Continuous
 62
     7
370
     0
100
AcDbMText
 10
294.4808759279
 20
185.832165153
 30
0.0
 40
5.2916666667
 41
0.0
 71
     1
 72
     1
  1
Peso Kg
  7
SLDTEXTSTYLE0
 73
     1
 44
1.0
  0
MTEXT
  5
CF
330
1F
100
AcDbEntity
  8
0
  6
Continuous
 62
     7
370
     0
100
AcDbMText
 10
55.7324972066
 20
185.832165153
 30
0.0
 40
5.2916666667
 41
0.0
 71
     1
 72
     1
  1
Materiale
  7
SLDTEXTSTYLE0
 73
     1
 44
1.0
  0
MTEXT
  5
D0
330
1F
100
AcDbEntity
  8
0
  6
Continuous
 62
     7
370
     0
100
AcDbMText
 10
55.7324972066
 20
155.6995879647
 30
0.0
 40
5.2916666667
 41
0.0
 71
     1
 72
     1
  1
Note
  7
SLDTEXTSTYLE0
 73
     1
 44
1.0
  0
MTEXT
  5
D1
330
1F
100
AcDbEntity
  8
0
  6
Continuous
 62
     7
370
     0
100
AcDbMText
 10
57.7075441265
 20
113.7253039917
 30
0.0
 40
7.4083333333
 41
0.0
 71
     1
 72
     1
  1
ISO 286-1 ISO 8015
  7
SLDTEXTSTYLE0
 73
     1
 44
1.0
  0
MTEXT
  5
D2
330
1F
100
AcDbEntity
  8
0
  6
Continuous
 62
     7
370
     0
100
AcDbMText
 10
179.5005676183
 20
113.7253039917
 30
0.0
 40
7.4083333333
 41
0.0
 71
     1
 72
     1
  1
UNI EN 2768 H
  7
SLDTEXTSTYLE1
 73
     1
 44
1.0
  0
MTEXT
  5
D3
330
1F
100
AcDbEntity
  8
0
  6
Continuous
 62
     7
370
     0
100
AcDbMText
 10
158.2418675276
 20
124.2860749135
 30
0.0
 40
5.2916666667
 41
0.0
 71
     1
 72
     1
  1
Tolleranze generali geometriche
  7
SLDTEXTSTYLE0
 73
     1
 44
1.0
  0
MTEXT
  5
D4
330
1F
100
AcDbEntity
  8
0
  6
Continuous
 62
     7
370
     0
100
AcDbMText
 10
652.787763192
 20
124.2860749135
 30
0.0
 40
5.2916666667
 41
0.0
 71
     1
 72
     1
  1
Raggi non quotati
  7
SLDTEXTSTYLE0
 73
     1
 44
1.0
  0
MTEXT
  5
D5
330
1F
100
AcDbEntity
  8
0
  6
Continuous
 62
     7
370
     0
100
AcDbMText
 10
550.5371869627
 20
124.2860749135
 30
0.0
 40
5.2916666667
 41
0.0
 71
     1
 72
     1
  1
Smussi non quotati
  7
SLDTEXTSTYLE0
 73
     1
 44
1.0
  0
MTEXT
  5
D6
330
1F
100
AcDbEntity
  8
0
  6
Continuous
 62
     7
370
     0
100
AcDbMText
 10
400.9647666068
 20
124.2860749135
 30
0.0
 40
5.2916666667
 41
0.0
 71
     1
 72
     1
  1
Tolleranze angolari
  7
SLDTEXTSTYLE0
 73
     1
 44
1.0
  0
MTEXT
  5
D7
330
1F
100
AcDbEntity
  8
0
  6
Continuous
 62
     7
370
     0
100
AcDbMText
 10
54.7842483017
 20
124.2860749135
 30
0.0
 40
5.2916666667
 41
0.0
 71
     1
 72
     1
  1
Tolleranze generali lineari
  7
SLDTEXTSTYLE0
 73
     1
 44
1.0
  0
MTEXT
  5
D8
330
1F
100
AcDbEntity
  8
0
  6
Continuous
 62
     7
370
     0
100
AcDbMText
 10
749.6887844528
 20
120.4317086963
 30
0.0
 40
5.2916666667
 41
0.0
 71
     1
 72
     1
  1
Sistema E
  7
SLDTEXTSTYLE0
 73
     1
 44
1.0
  0
MTEXT
  5
DA
330
1F
100
AcDbEntity
  8
0
  6
Continuous
 62
     7
370
     0
100
AcDbMText
 10
749.6887844528
 20
109.3761535017
 30
0.0
 40
5.2916666667
 41
0.0
 71
     1
 72
     1
  1
UNI  3970
  7
SLDTEXTSTYLE2
 73
     1
 44
1.0
  0
MTEXT
  5
DB
330
1F
100
AcDbEntity
  8
0
  6
Continuous
 62
     7
370
     0
100
AcDbMText
 10
296.3652935459
 20
95.0599522591
 30
0.0
 40
5.2916666667
 41
0.0
 71
     1
 72
     1
  1
Descrizione
  7
SLDTEXTSTYLE0
 73
     1
 44
1.0
  0
MTEXT
  5
DC
330
1F
100
AcDbEntity
  8
0
  6
Continuous
 62
     7
370
     0
100
AcDbMText
 10
296.3652935459
 20
24.2503895958
 30
0.0
 40
5.2916666667
 41
0.0
 71
     1
 72
     1
  1
Data
  7
SLDTEXTSTYLE0
 73
     1
 44
1.0
  0
MTEXT
  5
DD
330
1F
100
AcDbEntity
  8
0
  6
Continuous
 62
     7
370
     0
100
AcDbMText
 10
296.3652935459
 20
40.3252261701
 30
0.0
 40
5.2916666667
 41
0.0
 71
     1
 72
     1
  1
Disegnatore
  7
SLDTEXTSTYLE0
 73
     1
 44
1.0
  0
MTEXT
  5
DE
330
1F
100
AcDbEntity
  8
0
  6
Continuous
 62
     7
370
     0
100
AcDbMText
 10
630.1359996228
 20
58.5472657865
 30
0.0
 40
5.2916666667
 41
0.0
 71
     1
 72
     1
  1
Sp./Ø:
  7
SLDTEXTSTYLE0
 73
     1
 44
1.0
  0
MTEXT
  5
DF
330
1F
100
AcDbEntity
  8
0
  6
Continuous
 62
     7
370
     0
100
AcDbMText
 10
630.1359996228
 20
77.0570404124
 30
0.0
 40
5.2916666667
 41
0.0
 71
     1
 72
     1
  1
Larghezza:
  7
SLDTEXTSTYLE0
 73
     1
 44
1.0
  0
MTEXT
  5
E0
330
1F
100
AcDbEntity
  8
0
  6
Continuous
 62
     7
370
     0
100
AcDbMText
 10
630.072279847
 20
95.0599522591
 30
0.0
 40
5.2916666667
 41
0.0
 71
     1
 72
     1
  1
Lunghezza:
  7
SLDTEXTSTYLE0
 73
     1
 44
1.0
  0
MTEXT
  5
E1
330
1F
100
AcDbEntity
  8
0
  6
Continuous
 62
     7
370
     0
100
AcDbMText
 10
296.3652935459
 20
54.6494263118
 30
0.0
 40
5.2916666667
 41
0.0
 71
     1
 72
     1
  1
Disegno
  7
SLDTEXTSTYLE0
 73
     1
 44
1.0
  0
MTEXT
  5
E2
330
1F
100
AcDbEntity
  8
0
  6
Continuous
 62
     7
370
     0
100
AcDbMText
 10
678.4031450112
 20
42.2114991199
 30
0.0
 40
5.2916666667
 41
0.0
 71
     1
 72
     1
  1
Revisione
  7
SLDTEXTSTYLE0
 73
     1
 44
1.0
  0
MTEXT
  5
E3
330
1F
100
AcDbEntity
  8
0
  6
Continuous
 62
     7
370
     0
100
AcDbMText
 10
53.1691922196
 20
32.8421907554
 30
0.0
 40
4.2333333333
 41
0.0
 71
     1
 72
     1
  1
Deca S.r.l. si riserva tutti i diritti sul presente documento e con quanto rappresentato.
  7
SLDTEXTSTYLE0
 73
     1
 44
1.0
  0
MTEXT
  5
E4
330
1F
100
AcDbEntity
  8
0
  6
Continuous
 62
     7
370
     0
100
AcDbMText
 10
53.1691922196
 20
23.1977466549
 30
0.0
 40
4.2333333333
 41
0.0
 71
     1
 72
     1
  1
E' vietato riprodurlo, utilizzarlo e renderlo accessibile a terzi senza autorizzazione scritta
  7
SLDTEXTSTYLE0
 73
     1
 44
1.0
  0
MTEXT
  5
E6
330
1F
100
AcDbEntity
  8
TESTO
100
AcDbMText
 10
76.7742506896
 20
95.361942898
 30
0.0
 40
19.2
 41
0.0
 71
     1
 72
     1
  1
D
  7
SLDTEXTSTYLE3
 73
     1
 44
1.0
  0
MTEXT
  5
E7
330
1F
100
AcDbEntity
  8
TESTO
100
AcDbMText
 10
104.5241622451
 20
71.992381888
 30
0.0
 40
8.0
 41
0.0
 71
     1
 72
     1
  1
s.r.l.
  7
SLDTEXTSTYLE3
 73
     1
 44
1.0
  0
MTEXT
  5
E8
330
1F
100
AcDbEntity
  8
TESTO
100
AcDbMText
 10
96.3807838866
 20
94.9371188286
 30
0.0
 40
19.2
 41
0.0
 71
     1
 72
     1
  1
E
  7
SLDTEXTSTYLE3
 73
     1
 44
1.0
  0
MTEXT
  5
E9
330
1F
100
AcDbEntity
  8
TESTO
100
AcDbMText
 10
116.9764058479
 20
95.9219415741
 30
0.0
 40
19.2
 41
0.0
 71
     1
 72
     1
  1
C
  7
SLDTEXTSTYLE3
 73
     1
 44
1.0
  0
MTEXT
  5
EB
330
1F
100
AcDbEntity
  8
FORMAT
100
AcDbMText
 10
169.1059767887
 20
98.416409624
 30
0.0
 40
5.4
 41
0.0
 71
     1
 72
     1
  1
Via XXV Aprile,2
  7
SLDTEXTSTYLE4
 73
     1
 44
1.0
  0
MTEXT
  5
EC
330
1F
100
AcDbEntity
  8
FORMAT
100
AcDbMText
 10
169.1059767887
 20
88.1773640891
 30
0.0
 40
5.4
 41
0.0
 71
     1
 72
     1
  1
23804 Monte Marenzo (Lc)
  7
SLDTEXTSTYLE4
 73
     1
 44
1.0
  0
MTEXT
  5
ED
330
1F
100
AcDbEntity
  8
FORMAT
100
AcDbMText
 10
89.1065894285
 20
50.3335729136
 30
0.0
 40
5.4
 41
0.0
 71
     1
 72
     1
  1
ELEVATORI
  7
SLDTEXTSTYLE4
 73
     1
 44
1.0
  0
MTEXT
  5
EE
330
1F
100
AcDbEntity
  8
FORMAT
100
AcDbMText
 10
70.344997217
 20
59.3019195044
 30
0.0
 40
5.4
 41
0.0
 71
     1
 72
     1
  1
VIBROALIMENTATORI
  7
SLDTEXTSTYLE4
 73
     1
 44
1.0
  0
MTEXT
  5
EF
330
1F
100
AcDbEntity
  8
FORMAT
100
AcDbMText
 10
170.4282155158
 20
48.1098992049
 30
0.0
 40
5.4
 41
0.0
 71
     1
 72
     1
  1
E-mail: info@decasrl.biz
  7
SLDTEXTSTYLE4
 73
     1
 44
1.0
  0
MTEXT
  5
F0
330
1F
100
AcDbEntity
  8
FORMAT
100
AcDbMText
 10
170.4282155157
 20
62.7883268827
 30
0.0
 40
5.4
 41
0.0
 71
     1
 72
     1
  1
Fax 0341/608154
  7
SLDTEXTSTYLE4
 73
     1
 44
1.0
  0
MTEXT
  5
F1
330
1F
100
AcDbEntity
  8
FORMAT
100
AcDbMText
 10
169.9095893686
 20
72.4447903428
 30
0.0
 40
5.4
 41
0.0
 71
     1
 72
     1
  1
Tel. 0341/632080
  7
SLDTEXTSTYLE4
 73
     1
 44
1.0
  0
MTEXT
  5
F2
330
1F
100
AcDbEntity
  8
TESTO
100
AcDbMText
 10
136.567207892
 20
95.361942898
 30
0.0
 40
19.2
 41
0.0
 71
     1
 72
     1
  1
A
  7
SLDTEXTSTYLE3
 73
     1
 44
1.0
  0
MTEXT
  5
F4
330
1F
100
AcDbEntity
  8
0
  6
Continuous
 62
     7
370
     0
100
AcDbMText
 10
742.9753272477
 20
1156.3831473387
 30
0.0
 40
8.4666666667
 41
0.0
 71
     1
 72
     1
  1
Data
  7
SLDTEXTSTYLE5
 73
     1
 44
1.0
  0
MTEXT
  5
F5
330
1F
100
AcDbEntity
  8
0
  6
Continuous
 62
     7
370
     0
100
AcDbMText
 10
644.1009084901
 20
1156.3831473387
 30
0.0
 40
8.4666666667
 41
0.0
 71
     1
 72
     1
  1
Disegnatore
  7
SLDTEXTSTYLE5
 73
     1
 44
1.0
  0
MTEXT
  5
F6
330
1F
100
AcDbEntity
  8
0
  6
Continuous
 62
     7
370
     0
100
AcDbMText
 10
122.1299356704
 20
1156.3831473387
 30
0.0
 40
8.4666666667
 41
0.0
 71
     1
 72
     1
  1
Descrizione revisione
  7
SLDTEXTSTYLE5
 73
     1
 44
1.0
  0
MTEXT
  5
F7
330
1F
100
AcDbEntity
  8
0
  6
Continuous
 62
     7
370
     0
100
AcDbMText
 10
58.1220033598
 20
1156.4564180501
 30
0.0
 40
8.4666666667
 41
0.0
 71
     1
 72
     1
  1
Revisione
  7
SLDTEXTSTYLE5
 73
     1
 44
1.0
  0
MTEXT
  5
F8
330
1F
100
AcDbEntity
  8
0
  6
Continuous
 62
     7
370
     0
100
AcDbMText
 10
341.1478880816
 20
56.7547125428
 30
0.0
 40
7.4083333333
 41
0.0
 71
     1
 72
     1
  1
12000015
  7
SLDTEXTSTYLE0
 73
     1
 44
1.0
  0
MTEXT
  5
F9
330
1F
100
AcDbEntity
  8
0
  6
Continuous
 62
     7
370
     0
100
AcDbMText
 10
300.6458175724
 20
84.5119679365
 30
0.0
 40
8.4666666667
 41
0.0
 71
     1
 72
     1
  1
Piastra sup.colonna sostegno 401 TR
  7
SLDTEXTSTYLE0
 73
     1
 44
1.0
  0
MTEXT
  5
FA
330
1F
100
AcDbEntity
  8
0
  6
Continuous
 62
     7
370
     0
100
AcDbMText
 10
300.6458175724
 20
71.4676510627
 30
0.0
 40
8.4666666667
 41
0.0
 71
     1
 72
     1
  1
Verniciata Ral9006
  7
SLDTEXTSTYLE0
 73
     1
 44
1.0
  0
MTEXT
  5
FB
330
1F
100
AcDbEntity
  8
0
  6
Continuous
 62
     7
370
     0
100
AcDbMText
 10
122.1299356704
 20
1137.0195542067
 30
0.0
 40
10.5833333333
 41
0.0
 71
     1
 72
     1
  1
EMISSIONE
  7
SLDTEXTSTYLE0
 73
     1
 44
1.0
  0
MTEXT
  5
FC
330
1F
100
AcDbEntity
  8
0
  6
Continuous
 62
     7
370
     0
100
AcDbMText
 10
341.1478880816
 20
42.4305124011
 30
0.0
 40
7.4083333333
 41
0.0
 71
     1
 72
     1
  1
Andrea Ponzoni
  7
SLDTEXTSTYLE0
 73
     1
 44
1.0
  0
MTEXT
  5
FD
330
1F
100
AcDbEntity
  8
0
  6
Continuous
 62
     7
370
     0
100
AcDbMText
 10
341.1478880816
 20
26.3556758268
 30
0.0
 40
7.4083333333
 41
0.0
 71
     1
 72
     1
  1
13/01/2021
  7
SLDTEXTSTYLE0
 73
     1
 44
1.0
  0
MTEXT
  5
FE
330
1F
100
AcDbEntity
  8
0
  6
Continuous
 62
     7
370
     0
100
AcDbMText
 10
96.3807838866
 20
181.152501898
 30
0.0
 40
10.5833333333
 41
0.0
 71
     1
 72
     1
  1
1.0037 (S235JR)
  7
SLDTEXTSTYLE0
 73
     1
 44
1.0
  0
MTEXT
  5
FF
330
1F
100
AcDbEntity
  8
0
  6
Continuous
 62
     7
370
     0
100
AcDbMText
 10
76.9537040571
 20
1137.0195542067
 30
0.0
 40
10.5833333333
 41
0.0
 71
     1
 72
     1
  1
00
  7
SLDTEXTSTYLE0
 73
     1
 44
1.0
  0
MTEXT
  5
100
330
1F
100
AcDbEntity
  8
0
  6
Continuous
 62
     7
370
     0
100
AcDbMText
 10
621.4504232775
 20
1134.9142685578
 30
0.0
 40
8.4666666667
 41
0.0
 71
     1
 72
     1
  1
Andrea Ponzoni
  7
SLDTEXTSTYLE0
 73
     1
 44
1.0
  0
MTEXT
  5
101
330
1F
100
AcDbEntity
  8
0
  6
Continuous
 62
     7
370
     0
100
AcDbMText
 10
737.9673706262
 20
1134.9142685578
 30
0.0
 40
8.4666666667
 41
0.0
 71
     1
 72
     1
  1
13/01/2021
  7
SLDTEXTSTYLE0
 73
     1
 44
1.0
  0
MTEXT
  5
102
330
1F
100
AcDbEntity
  8
0
  6
Continuous
 62
     7
370
     0
100
AcDbMText
 10
624.5197000498
 20
56.7547125428
 30
0.0
 40
7.4083333333
 41
0.0
 71
     3
 72
     1
  1
00
  7
SLDTEXTSTYLE0
 73
     1
 44
1.0
  0
MTEXT
  5
103
330
1F
100
AcDbEntity
  8
0
  6
Continuous
 62
     7
370
     0
100
AcDbMText
 10
409.6411470076
 20
181.152501898
 30
0.0
 40
10.5833333333
 41
0.0
 71
     3
 72
     1
  1
4.42
  7
SLDTEXTSTYLE0
 73
     1
 44
1.0
  0
MTEXT
  5
104
330
1F
100
AcDbEntity
  8
0
  6
Continuous
 62
     7
370
     0
100
AcDbMText
 10
585.5589693984
 20
181.152501898
 30
0.0
 40
10.5833333333
 41
0.0
 71
     1
 72
     1
  1
Verniciatura
  7
SLDTEXTSTYLE0
 73
     1
 44
1.0
  0
MTEXT
  5
105
330
1F
100
AcDbEntity
  8
0
  6
Continuous
 62
     7
370
     0
100
AcDbMText
 10
281.2816042746
 20
124.2860749135
 30
0.0
 40
5.2916666667
 41
0.0
 71
     1
 72
     1
  1
Grado Tolleranza
  7
SLDTEXTSTYLE0
 73
     1
 44
1.0
  0
MTEXT
  5
106
330
1F
100
AcDbEntity
  8
0
  6
Continuous
 62
     7
370
     0
100
AcDbMText
 10
354.0342355195
 20
116.8832331635
 30
0.0
 40
10.5833333333
 41
0.0
 71
     1
 72
     1
  1
IT10
  7
SLDTEXTSTYLE0
 73
     1
 44
1.0
  0
MTEXT
  5
107
330
1F
100
AcDbEntity
  8
0
  6
Continuous
 62
     7
370
     0
100
AcDbMText
 10
723.6251714012
 20
81.267612758
 30
0.0
 40
9.525
 41
0.0
 71
     3
 72
     1
  1
164
  7
SLDTEXTSTYLE0
 73
     1
 44
1.0
  0
MTEXT
  5
108
330
1F
100
AcDbEntity
  8
0
  6
Continuous
 62
     7
370
     0
100
AcDbMText
 10
724.0551057039
 20
99.2705246046
 30
0.0
 40
9.525
 41
0.0
 71
     3
 72
     1
  1
350
  7
SLDTEXTSTYLE0
 73
     1
 44
1.0
  0
MTEXT
  5
109
330
1F
100
AcDbEntity
  8
0
  6
Continuous
 62
     7
370
     0
100
AcDbMText
 10
725.2159934563
 20
62.7578381321
 30
0.0
 40
9.525
 41
0.0
 71
     3
 72
     1
  1
10
  7
SLDTEXTSTYLE0
 73
     1
 44
1.0
  0
MTEXT
  5
10A
330
1F
100
AcDbEntity
  8
0
  6
Continuous
 62
     7
370
     0
100
AcDbMText
 10
452.9456433847
 20
40.3252261701
 30
0.0
 40
5.2916666667
 41
0.0
 71
     1
 72
     1
  1
Codice
  7
SLDTEXTSTYLE0
 73
     1
 44
1.0
  0
MTEXT
  5
10B
330
1F
100
AcDbEntity
  8
0
  6
Continuous
 62
     7
370
     0
100
AcDbMText
 10
482.0834224974
 20
29.5136047658
 30
0.0
 40
10.5833333333
 41
0.0
 71
     1
 72
     1
  1
12A402101
  7
SLDTEXTSTYLE0
 73
     1
 44
1.0
  0
MTEXT
  5
10C
330
1F
100
AcDbEntity
  8
0
  6
Continuous
 62
     7
370
     0
100
AcDbMText
 10
534.9671390472
 20
54.6494263118
 30
0.0
 40
5.2916666667
 41
0.0
 71
     1
 72
     1
  1
Revisione disegno
  7
SLDTEXTSTYLE0
 73
     1
 44
1.0
  0
MTEXT
  5
10D
330
1F
100
AcDbEntity
  8
0
  6
Continuous
 62
     7
370
     0
100
AcDbMText
 10
729.1439223558
 20
29.5136047658
 30
0.0
 40
10.5833333333
 41
0.0
 71
     3
 72
     1
  1
00
  7
SLDTEXTSTYLE0
 73
     1
 44
1.0
  0
INSERT
  5
140
330
1F
100
AcDbEntity
  8
0
  6
Continuous
 62
     7
370
     0
100
AcDbBlockReference
  2
SW_TABLEANNOTATION_0
 10
210.4765577689
 20
535.5844780876
 30
0.0
  0
LINE
  5
141
330
1F
100
AcDbEntity
  8
0
  6
Continuous
 62
     7
370
    25
100
AcDbLine
 10
587.9896982865
 20
217.3601240298
 30
0.0
 11
590.5778887375
 21
219.8601240298
 31
0.0
  0
LINE
  5
142
330
1F
100
AcDbEntity
  8
0
  6
Continuous
 62
     7
370
    25
100
AcDbLine
 10
255.2156418932
 20
398.5809286018
 30
0.0
 11
252.6274514422
 21
396.0809286018
 31
0.0
  0
ARC
  5
143
330
1F
100
AcDbEntity
  8
0
  6
Continuous
 62
     7
370
    25
100
AcDbCircle
 10
584.1018790714
 20
369.3108818661
 30
0.0
 40
5.244095708212993
100
AcDbArc
 50
0.6900435254
 51
85.4710743676
  0
LINE
  5
144
330
1F
100
AcDbEntity
  8
0
  6
Continuous
 62
     7
370
    25
100
AcDbLine
 10
589.3455944649
 20
220.6214605227
 30
0.0
 11
589.3455944649
 21
369.3740377712
 31
0.0
  0
ARC
  5
145
330
1F
100
AcDbEntity
  8
0
  6
Continuous
 62
     7
370
    25
100
AcDbCircle
 10
584.8872553143
 20
220.5699185997
 30
0.0
 40
4.458637073392865
100
AcDbArc
 50
265.2232010276
 51
0.6623549713
  0
LINE
  5
146
330
1F
100
AcDbEntity
  8
0
  6
Continuous
 62
     7
370
    25
100
AcDbLine
 10
256.1011843952
 20
238.9024492384
 30
0.0
 11
584.5159653335
 21
216.1267678818
 31
0.0
  0
ARC
  5
147
330
1F
100
AcDbEntity
  8
0
  6
Continuous
 62
     7
370
    25
100
AcDbCircle
 10
256.5152706573
 20
244.1301707655
 30
0.0
 40
5.244095708213083
100
AcDbArc
 50
180.6900435254
 51
265.4710743676
  0
LINE
  5
148
330
1F
100
AcDbEntity
  8
0
  6
Continuous
 62
     7
370
    25
100
AcDbLine
 10
251.2715552638
 20
392.8195921089
 30
0.0
 11
251.2715552638
 21
244.0670148604
 31
0.0
  0
ARC
  5
149
330
1F
100
AcDbEntity
  8
0
  6
Continuous
 62
     7
370
    25
100
AcDbCircle
 10
255.7298944144
 20
392.8711340319
 30
0.0
 40
4.458637073392901
100
AcDbArc
 50
85.2232010276
 51
180.6623549713
  0
LINE
  5
14A
330
1F
100
AcDbEntity
  8
0
  6
Continuous
 62
     7
370
    25
100
AcDbLine
 10
584.5159653335
 20
374.5386033932
 30
0.0
 11
256.1011843952
 21
397.3142847498
 31
0.0
  0
LWPOLYLINE
  5
14B
330
1F
100
AcDbEntity
  8
0
  6
Continuous
 62
     7
370
    25
100
AcDbPolyline
 90
       37
 70
   128
 43
0.0
 10
521.7307866247
 20
271.5542703238
 10
523.2613343676
 20
271.5820318723
 10
524.7453771918
 20
271.8767610532
 10
526.1378232071
 20
272.4295026695
 10
527.396363646
 20
273.2234619468
 10
528.4827583939
 20
274.2345148342
 10
529.3639978963
 20
275.4319410015
 10
530.0133061368
 20
276.7793572604
 10
530.4109542131
 20
278.2358230497
 10
530.5448597896
 20
279.7570843935
 10
530.4109542131
 20
281.2969185355
 10
530.0133061368
 20
282.8085383946
 10
529.3639978963
 20
284.2460141664
 10
528.4827583939
 20
285.5656688767
 10
527.396363646
 20
286.7274054852
 10
526.1378232071
 20
287.6959252127
 10
524.7453771918
 20
288.4418000774
 10
523.2613343676
 20
288.9423670491
 10
521.7307866247
 20
289.1824166536
 10
520.2002388818
 20
289.1546551051
 10
518.7161960576
 20
288.8599259242
 10
517.3237500423
 20
288.3071843079
 10
516.0652096034
 20
287.5132250306
 10
514.9788148555
 20
286.5021721432
 10
514.0975753531
 20
285.3047459759
 10
513.4482671126
 20
283.957329717
 10
513.0506190363
 20
282.5008639277
 10
512.9167134598
 20
280.9796025839
 10
513.0506190363
 20
279.4397684419
 10
513.4482671126
 20
277.9281485827
 10
514.0975753531
 20
276.490672811
 10
514.9788148555
 20
275.1710181006
 10
516.0652096034
 20
274.0092814922
 10
517.3237500423
 20
273.0407617647
 10
518.7161960576
 20
272.2948868999
 10
520.2002388818
 20
271.7943199283
 10
521.7307866247
 20
271.5542703238
  0
LWPOLYLINE
  5
14C
330
1F
100
AcDbEntity
  8
0
  6
Continuous
 62
     7
370
    25
100
AcDbPolyline
 90
       37
 70
   128
 43
0.0
 10
521.7307866247
 20
310.1913033754
 10
523.2613343676
 20
310.2190649239
 10
524.7453771918
 20
310.5137941048
 10
526.1378232071
 20
311.066535721
 10
527.396363646
 20
311.8604949983
 10
528.4827583939
 20
312.8715478858
 10
529.3639978963
 20
314.068974053
 10
530.0133061368
 20
315.4163903119
 10
530.4109542131
 20
316.8728561013
 10
530.5448597896
 20
318.394117445
 10
530.4109542131
 20
319.9339515871
 10
530.0133061368
 20
321.4455714462
 10
529.3639978963
 20
322.8830472179
 10
528.4827583939
 20
324.2027019283
 10
527.396363646
 20
325.3644385367
 10
526.1378232071
 20
326.3329582642
 10
524.7453771918
 20
327.078833129
 10
523.2613343676
 20
327.5794001007
 10
521.7307866247
 20
327.8194497051
 10
520.2002388818
 20
327.7916881566
 10
518.7161960576
 20
327.4969589757
 10
517.3237500423
 20
326.9442173595
 10
516.0652096034
 20
326.1502580822
 10
514.9788148555
 20
325.1392051947
 10
514.0975753531
 20
323.9417790275
 10
513.4482671126
 20
322.5943627686
 10
513.0506190363
 20
321.1378969792
 10
512.9167134598
 20
319.6166356355
 10
513.0506190363
 20
318.0768014934
 10
513.4482671126
 20
316.5651816343
 10
514.0975753531
 20
315.1277058626
 10
514.9788148555
 20
313.8080511522
 10
516.0652096034
 20
312.6463145438
 10
517.3237500423
 20
311.6777948163
 10
518.7161960576
 20
310.9319199515
 10
520.2002388818
 20
310.4313529798
 10
521.7307866247
 20
310.1913033754
  0
LWPOLYLINE
  5
14D
330
1F
100
AcDbEntity
  8
0
  6
Continuous
 62
     7
370
    25
100
AcDbPolyline
 90
       37
 70
   128
 43
0.0
 10
318.886363104
 20
285.6216029264
 10
320.4169108469
 20
285.649364475
 10
321.9009536711
 20
285.9440936559
 10
323.2933996864
 20
286.4968352721
 10
324.5519401253
 20
287.2907945494
 10
325.6383348732
 20
288.3018474369
 10
326.5195743756
 20
289.4992736041
 10
327.1688826161
 20
290.846689863
 10
327.5665306924
 20
292.3031556523
 10
327.7004362689
 20
293.8244169961
 10
327.5665306924
 20
295.3642511381
 10
327.1688826161
 20
296.8758709973
 10
326.5195743756
 20
298.313346769
 10
325.6383348732
 20
299.6330014794
 10
324.5519401253
 20
300.7947380878
 10
323.2933996864
 20
301.7632578153
 10
321.9009536711
 20
302.5091326801
 10
320.4169108469
 20
303.0096996518
 10
318.886363104
 20
303.2497492562
 10
317.3558153611
 20
303.2219877077
 10
315.8717725369
 20
302.9272585268
 10
314.4793265215
 20
302.3745169105
 10
313.2207860827
 20
301.5805576333
 10
312.1343913348
 20
300.5695047458
 10
311.2531518324
 20
299.3720785785
 10
310.6038435919
 20
298.0246623196
 10
310.2061955156
 20
296.5681965303
 10
310.0722899391
 20
295.0469351866
 10
310.2061955156
 20
293.5071010445
 10
310.6038435919
 20
291.9954811854
 10
311.2531518324
 20
290.5580054136
 10
312.1343913348
 20
289.2383507033
 10
313.2207860827
 20
288.0766140948
 10
314.4793265216
 20
287.1080943673
 10
315.8717725369
 20
286.3622195026
 10
317.3558153611
 20
285.8616525309
 10
318.886363104
 20
285.6216029264
  0
LWPOLYLINE
  5
14E
330
1F
100
AcDbEntity
  8
0
  6
Continuous
 62
     7
370
    25
100
AcDbPolyline
 90
       37
 70
   128
 43
0.0
 10
318.886363104
 20
324.258635978
 10
320.4169108469
 20
324.2863975265
 10
321.9009536711
 20
324.5811267074
 10
323.2933996864
 20
325.1338683237
 10
324.5519401253
 20
325.927827601
 10
325.6383348732
 20
326.9388804884
 10
326.5195743756
 20
328.1363066557
 10
327.1688826161
 20
329.4837229146
 10
327.5665306924
 20
330.9401887039
 10
327.7004362689
 20
332.4614500477
 10
327.5665306924
 20
334.0012841897
 10
327.1688826161
 20
335.5129040488
 10
326.5195743756
 20
336.9503798206
 10
325.6383348732
 20
338.2700345309
 10
324.5519401253
 20
339.4317711394
 10
323.2933996864
 20
340.4002908669
 10
321.9009536711
 20
341.1461657316
 10
320.4169108469
 20
341.6467327033
 10
318.886363104
 20
341.8867823078
 10
317.3558153611
 20
341.8590207593
 10
315.8717725369
 20
341.5642915784
 10
314.4793265215
 20
341.0115499621
 10
313.2207860827
 20
340.2175906848
 10
312.1343913348
 20
339.2065377974
 10
311.2531518324
 20
338.0091116301
 10
310.6038435919
 20
336.6616953712
 10
310.2061955156
 20
335.2052295819
 10
310.0722899391
 20
333.6839682381
 10
310.2061955156
 20
332.1441340961
 10
310.6038435919
 20
330.6325142369
 10
311.2531518324
 20
329.1950384652
 10
312.1343913348
 20
327.8753837548
 10
313.2207860827
 20
326.7136471464
 10
314.4793265216
 20
325.7451274189
 10
315.8717725369
 20
324.9992525541
 10
317.3558153611
 20
324.4986855825
 10
318.886363104
 20
324.258635978
  0
LWPOLYLINE
  5
14F
330
1F
100
AcDbEntity
  8
0
  6
Continuous
 62
     7
370
    25
100
AcDbPolyline
 90
       28
 70
   128
 43
0.0
 10
280.2493300524
 20
261.3759124429
 10
281.3631191799
 20
261.4288540508
 10
282.4168636473
 20
261.7393081195
 10
283.3537558175
 20
262.2905379898
 10
284.1232875912
 20
263.0528267166
 10
284.6839733112
 20
263.9850791176
 10
285.0055862653
 20
265.0370372243
 10
285.0707882158
 20
266.1519897029
 10
284.8760641087
 20
267.2698291769
 10
284.4319115711
 20
268.3302926306
 10
283.7622749812
 20
269.276210205
 10
282.9032546209
 20
270.0565872387
 10
281.9011605002
 20
270.6293534038
 10
280.8100157724
 20
270.9636307282
 10
279.6886443324
 20
271.0413982346
 10
278.5974996047
 20
270.8584634568
 10
277.5954054839
 20
270.424688456
 10
276.7363851236
 20
269.7634581547
 10
276.0667485337
 20
268.9104196496
 10
275.6225959961
 20
267.9115604673
 10
275.4278718891
 20
266.8207293649
 10
275.4930738396
 20
265.6967333296
 10
275.8146867937
 20
264.6001672783
 10
276.3753725137
 20
263.590147371
 10
277.1449042874
 20
262.7211240421
 10
278.0817964576
 20
262.0399465642
 10
279.1355409249
 20
261.5833373916
 10
280.2493300524
 20
261.3759124429
  0
LWPOLYLINE
  5
150
330
1F
100
AcDbEntity
  8
0
  6
Continuous
 62
     7
370
    25
100
AcDbPolyline
 90
       28
 70
   128
 43
0.0
 10
280.2493300524
 20
361.832198377
 10
281.3631191799
 20
361.8851399849
 10
282.4168636473
 20
362.1955940536
 10
283.3537558175
 20
362.7468239238
 10
284.1232875912
 20
363.5091126507
 10
284.6839733112
 20
364.4413650516
 10
285.0055862653
 20
365.4933231583
 10
285.0707882158
 20
366.608275637
 10
284.8760641087
 20
367.7261151109
 10
284.4319115711
 20
368.7865785647
 10
283.7622749812
 20
369.7324961391
 10
282.9032546209
 20
370.5128731728
 10
281.9011605002
 20
371.0856393379
 10
280.8100157724
 20
371.4199166622
 10
279.6886443324
 20
371.4976841687
 10
278.5974996047
 20
371.3147493909
 10
277.5954054839
 20
370.8809743901
 10
276.7363851236
 20
370.2197440887
 10
276.0667485337
 20
369.3667055836
 10
275.6225959961
 20
368.3678464014
 10
275.4278718891
 20
367.277015299
 10
275.4930738396
 20
366.1530192636
 10
275.8146867937
 20
365.0564532124
 10
276.3753725137
 20
364.046433305
 10
277.1449042874
 20
363.1774099761
 10
278.0817964576
 20
362.4962324983
 10
279.1355409249
 20
362.0396233257
 10
280.2493300524
 20
361.832198377
  0
LWPOLYLINE
  5
151
330
1F
100
AcDbEntity
  8
0
  6
Continuous
 62
     7
370
    25
100
AcDbPolyline
 90
       28
 70
   128
 43
0.0
 10
560.3678196763
 20
241.9495959917
 10
561.4816088038
 20
242.0025375996
 10
562.5353532711
 20
242.3129916682
 10
563.4722454413
 20
242.8642215385
 10
564.241777215
 20
243.6265102654
 10
564.802462935
 20
244.5587626663
 10
565.1240758891
 20
245.610720773
 10
565.1892778396
 20
246.7256732517
 10
564.9945537326
 20
247.8435127256
 10
564.5504011949
 20
248.9039761794
 10
563.880764605
 20
249.8498937538
 10
563.0217442447
 20
250.6302707875
 10
562.019650124
 20
251.2030369526
 10
560.9285053963
 20
251.5373142769
 10
559.8071339562
 20
251.6150817834
 10
558.7159892285
 20
251.4321470056
 10
557.7138951078
 20
250.9983720047
 10
556.8548747475
 20
250.3371417034
 10
556.1852381576
 20
249.4841031983
 10
555.74108562
 20
248.4852440161
 10
555.5463615129
 20
247.3944129137
 10
555.6115634634
 20
246.2704168783
 10
555.9331764175
 20
245.1738508271
 10
556.4938621375
 20
244.1638309197
 10
557.2633939112
 20
243.2948075908
 10
558.2002860814
 20
242.613630113
 10
559.2540305487
 20
242.1570209404
 10
560.3678196763
 20
241.9495959917
  0
LWPOLYLINE
  5
152
330
1F
100
AcDbEntity
  8
0
  6
Continuous
 62
     7
370
    25
100
AcDbPolyline
 90
       28
 70
   128
 43
0.0
 10
560.3678196763
 20
342.4058819257
 10
561.4816088038
 20
342.4588235336
 10
562.5353532711
 20
342.7692776023
 10
563.4722454413
 20
343.3205074726
 10
564.241777215
 20
344.0827961995
 10
564.802462935
 20
345.0150486004
 10
565.1240758891
 20
346.0670067071
 10
565.1892778396
 20
347.1819591857
 10
564.9945537326
 20
348.2997986597
 10
564.5504011949
 20
349.3602621135
 10
563.880764605
 20
350.3061796878
 10
563.0217442447
 20
351.0865567215
 10
562.019650124
 20
351.6593228866
 10
560.9285053963
 20
351.993600211
 10
559.8071339562
 20
352.0713677174
 10
558.7159892285
 20
351.8884329396
 10
557.7138951078
 20
351.4546579388
 10
556.8548747475
 20
350.7934276375
 10
556.1852381576
 20
349.9403891324
 10
555.74108562
 20
348.9415299501
 10
555.5463615129
 20
347.8506988477
 10
555.6115634634
 20
346.7267028124
 10
555.9331764175
 20
345.6301367611
 10
556.4938621375
 20
344.6201168538
 10
557.2633939112
 20
343.7510935249
 10
558.2002860814
 20
343.069916047
 10
559.2540305487
 20
342.6133068744
 10
560.3678196763
 20
342.4058819257
  0
LINE
  5
153
330
1F
100
AcDbEntity
  8
0
  6
Continuous
 62
     7
370
    25
100
AcDbLine
 10
584.5159653335
 20
374.5386033932
 30
0.0
 11
587.1041557845
 21
377.0386033932
 31
0.0
  0
ARC
  5
154
330
1F
100
AcDbEntity
  8
0
  6
Continuous
 62
     7
370
    25
100
AcDbCircle
 10
586.6900695224
 20
371.8108818661
 30
0.0
 40
5.244095708213304
100
AcDbArc
 50
0.6900435254
 51
85.4710743676
  0
LINE
  5
155
330
1F
100
AcDbEntity
  8
0
  6
Continuous
 62
     7
370
    25
100
AcDbLine
 10
591.933784916
 20
371.8740377712
 30
0.0
 11
589.3455944649
 21
369.3740377712
 31
0.0
  0
LINE
  5
156
330
1F
100
AcDbEntity
  8
0
  6
Continuous
 62
     7
370
    25
100
AcDbLine
 10
258.6893748462
 20
399.8142847498
 30
0.0
 11
256.1011843952
 21
397.3142847498
 31
0.0
  0
LINE
  5
157
330
1F
100
AcDbEntity
  8
0
  6
Continuous
 62
     7
370
    25
100
AcDbLine
 10
587.1041557845
 20
377.0386033932
 30
0.0
 11
258.6893748462
 21
399.8142847498
 31
0.0
  0
LINE
  5
158
330
1F
100
AcDbEntity
  8
0
  6
Continuous
 62
     7
370
    25
100
AcDbLine
 10
589.3455944649
 20
220.6214605227
 30
0.0
 11
591.933784916
 21
223.1214605227
 31
0.0
  0
LINE
  5
159
330
1F
100
AcDbEntity
  8
0
  6
Continuous
 62
     7
370
    25
100
AcDbLine
 10
591.933784916
 20
223.1214605227
 30
0.0
 11
591.933784916
 21
371.8740377712
 31
0.0
  0
LWPOLYLINE
  5
15A
330
1F
100
AcDbEntity
  8
0
  6
Continuous
 62
     7
370
    25
100
AcDbPolyline
 90
        3
 70
   128
 43
0.0
 10
562.9560101273
 20
344.9058819257
 10
564.0697992548
 20
344.9588235336
 10
564.8668956171
 20
345.1674708639
  0
ARC
  5
15B
330
1F
100
AcDbEntity
  8
0
  6
Continuous
 62
     7
370
    25
100
AcDbCircle
 10
563.3014666283
 20
350.0473284898
 30
0.0
 40
5.153039196952862
100
AcDbArc
 50
160.0735856928
 51
266.1560440664
  0
LWPOLYLINE
  5
15C
330
1F
100
AcDbEntity
  8
0
  6
Continuous
 62
     7
370
    25
100
AcDbPolyline
 90
       26
 70
   128
 43
0.0
 10
522.9278247083
 20
315.814960322
 10
524.0087966397
 20
315.8765530479
 10
525.0218471291
 20
316.2073927008
 10
525.9033224885
 20
316.7866914085
 10
526.5978363792
 20
317.5780497026
 10
527.0617499394
 20
318.5317436312
 10
527.2659137737
 20
319.5878490973
 10
527.1974995177
 20
320.6800071103
 10
526.8608058907
 20
321.7395933656
 10
526.2769885914
 20
322.7000301619
 10
525.4827310081
 20
323.5009697231
 10
524.5279392656
 20
324.0920860709
 10
523.4726064407
 20
324.4362371911
 10
522.3830429759
 20
324.5117988032
 10
521.327710151
 20
324.3140230932
 10
520.3729184085
 20
323.8553370364
 10
519.5786608252
 20
323.1645615645
 10
518.9948435259
 20
322.2851006411
 10
518.6581498989
 20
321.2722140303
 10
518.5897356429
 20
320.1895451231
 10
518.7938994772
 20
319.1051219886
 10
519.2578130373
 20
318.0870829207
 10
519.9523269281
 20
317.199395058
 10
520.8338022875
 20
316.4978350937
 10
521.8468527769
 20
316.0264846204
 10
522.9278247083
 20
315.814960322
  0
ARC
  5
15D
330
1F
100
AcDbEntity
  8
0
  6
Continuous
 62
     7
370
    25
100
AcDbCircle
 10
524.6321421649
 20
321.2650339236
 30
0.0
 40
4.118247915650599
100
AcDbArc
 50
265.6388308164
 51
299.5900650487
  0
ARC
  5
15E
330
1F
100
AcDbEntity
  8
0
  6
Continuous
 62
     7
370
    25
100
AcDbCircle
 10
524.5933117585
 20
321.7448283067
 30
0.0
 40
4.59431580200305
100
AcDbArc
 50
150.8441664344
 51
266.5767318292
  0
LWPOLYLINE
  5
15F
330
1F
100
AcDbEntity
  8
0
  6
Continuous
 62
     7
370
    25
100
AcDbPolyline
 90
       26
 70
   128
 43
0.0
 10
522.9278247083
 20
277.1779272704
 10
524.0087966397
 20
277.2395199964
 10
525.0218471291
 20
277.5703596493
 10
525.9033224885
 20
278.1496583569
 10
526.5978363792
 20
278.9410166511
 10
527.0617499394
 20
279.8947105797
 10
527.2659137737
 20
280.9508160457
 10
527.1974995177
 20
282.0429740587
 10
526.8608058907
 20
283.102560314
 10
526.2769885914
 20
284.0629971104
 10
525.4827310081
 20
284.8639366715
 10
524.5279392656
 20
285.4550530193
 10
523.4726064407
 20
285.7992041395
 10
522.3830429759
 20
285.8747657516
 10
521.327710151
 20
285.6769900417
 10
520.3729184085
 20
285.2183039848
 10
519.5786608252
 20
284.527528513
 10
518.9948435259
 20
283.6480675895
 10
518.6581498989
 20
282.6351809788
 10
518.5897356429
 20
281.5525120715
 10
518.7938994772
 20
280.468088937
 10
519.2578130373
 20
279.4500498691
 10
519.9523269281
 20
278.5623620064
 10
520.8338022875
 20
277.8608020421
 10
521.8468527769
 20
277.3894515688
 10
522.9278247083
 20
277.1779272704
  0
LWPOLYLINE
  5
160
330
1F
100
AcDbEntity
  8
0
  6
Continuous
 62
     7
370
    25
100
AcDbPolyline
 90
        3
 70
   128
 43
0.0
 10
562.9560101273
 20
244.4495959917
 10
564.0697992548
 20
244.5025375996
 10
564.8668956171
 20
244.7111849298
  0
ARC
  5
161
330
1F
100
AcDbEntity
  8
0
  6
Continuous
 62
     7
370
    25
100
AcDbCircle
 10
563.3014666283
 20
249.5910425558
 30
0.0
 40
5.153039196952947
100
AcDbArc
 50
160.0735856928
 51
266.1560440664
  0
ARC
  5
162
330
1F
100
AcDbEntity
  8
0
  6
Continuous
 62
     7
370
    25
100
AcDbCircle
 10
587.4270324343
 20
223.0826124564
 30
0.0
 40
4.506919913067296
100
AcDbArc
 50
314.3560609515
 51
0.493875606
  0
ARC
  5
163
330
1F
100
AcDbEntity
  8
0
  6
Continuous
 62
     7
370
    25
100
AcDbCircle
 10
524.6321421649
 20
282.6280008721
 30
0.0
 40
4.118247915648518
100
AcDbArc
 50
265.6388308164
 51
299.5900650493
  0
ARC
  5
164
330
1F
100
AcDbEntity
  8
0
  6
Continuous
 62
     7
370
    25
100
AcDbCircle
 10
524.5933117585
 20
283.1077952552
 30
0.0
 40
4.594315802000796
100
AcDbArc
 50
150.8441664339
 51
266.5767318292
  0
LWPOLYLINE
  5
165
330
1F
100
AcDbEntity
  8
0
  6
Continuous
 62
     7
370
    25
100
AcDbPolyline
 90
       26
 70
   128
 43
0.0
 10
320.0834011876
 20
329.8822929246
 10
321.164373119
 20
329.9438856506
 10
322.1774236084
 20
330.2747253035
 10
323.0588989678
 20
330.8540240111
 10
323.7534128585
 20
331.6453823053
 10
324.2173264187
 20
332.5990762339
 10
324.421490253
 20
333.6551816999
 10
324.353075997
 20
334.7473397129
 10
324.01638237
 20
335.8069259682
 10
323.4325650707
 20
336.7673627646
 10
322.6383074873
 20
337.5683023257
 10
321.6835157449
 20
338.1594186735
 10
320.62818292
 20
338.5035697937
 10
319.5386194552
 20
338.5791314058
 10
318.4832866303
 20
338.3813556959
 10
317.5284948878
 20
337.922669639
 10
316.7342373045
 20
337.2318941672
 10
316.1504200052
 20
336.3524332437
 10
315.8137263782
 20
335.339546633
 10
315.7453121222
 20
334.2568777257
 10
315.9494759565
 20
333.1724545912
 10
316.4133895166
 20
332.1544155233
 10
317.1079034074
 20
331.2667276606
 10
317.9893787668
 20
330.5651676963
 10
319.0024292562
 20
330.093817223
 10
320.0834011876
 20
329.8822929246
  0
LWPOLYLINE
  5
166
330
1F
100
AcDbEntity
  8
0
  6
Continuous
 62
     7
370
    25
100
AcDbPolyline
 90
        3
 70
   128
 43
0.0
 10
282.8375205035
 20
364.332198377
 10
283.951309631
 20
364.3851399849
 10
284.7484059933
 20
364.5937873152
  0
ARC
  5
167
330
1F
100
AcDbEntity
  8
0
  6
Continuous
 62
     7
370
    25
100
AcDbCircle
 10
283.1829770044
 20
369.4736449411
 30
0.0
 40
5.153039196953041
100
AcDbArc
 50
160.0735856928
 51
266.1560440664
  0
ARC
  5
168
330
1F
100
AcDbEntity
  8
0
  6
Continuous
 62
     7
370
    25
100
AcDbCircle
 10
258.3310683404
 20
395.3149088797
 30
0.0
 40
4.513620140455597
100
AcDbArc
 50
85.4468756531
 51
133.6481500146
  0
ARC
  5
169
330
1F
100
AcDbEntity
  8
0
  6
Continuous
 62
     7
370
    25
100
AcDbCircle
 10
321.7877186442
 20
335.3323665263
 30
0.0
 40
4.118247915650939
100
AcDbArc
 50
265.6388308164
 51
299.5900650488
  0
ARC
  5
16A
330
1F
100
AcDbEntity
  8
0
  6
Continuous
 62
     7
370
    25
100
AcDbCircle
 10
321.7488882378
 20
335.8121609094
 30
0.0
 40
4.594315802002906
100
AcDbArc
 50
150.8441664344
 51
266.5767318292
  0
LWPOLYLINE
  5
16B
330
1F
100
AcDbEntity
  8
0
  6
Continuous
 62
     7
370
    25
100
AcDbPolyline
 90
       26
 70
   128
 43
0.0
 10
320.0834011876
 20
291.245259873
 10
321.164373119
 20
291.306852599
 10
322.1774236084
 20
291.6376922519
 10
323.0588989678
 20
292.2169909596
 10
323.7534128585
 20
293.0083492537
 10
324.2173264187
 20
293.9620431823
 10
324.421490253
 20
295.0181486484
 10
324.353075997
 20
296.1103066614
 10
324.01638237
 20
297.1698929167
 10
323.4325650707
 20
298.130329713
 10
322.6383074873
 20
298.9312692742
 10
321.6835157449
 20
299.5223856219
 10
320.62818292
 20
299.8665367422
 10
319.5386194552
 20
299.9420983543
 10
318.4832866303
 20
299.7443226443
 10
317.5284948878
 20
299.2856365874
 10
316.7342373045
 20
298.5948611156
 10
316.1504200052
 20
297.7154001922
 10
315.8137263782
 20
296.7025135814
 10
315.7453121222
 20
295.6198446742
 10
315.9494759565
 20
294.5354215397
 10
316.4133895166
 20
293.5173824717
 10
317.1079034074
 20
292.6296946091
 10
317.9893787668
 20
291.9281346447
 10
319.0024292562
 20
291.4567841715
 10
320.0834011876
 20
291.245259873
  0
ARC
  5
16C
330
1F
100
AcDbEntity
  8
0
  6
Continuous
 62
     7
370
    25
100
AcDbCircle
 10
321.7877186442
 20
296.6953334747
 30
0.0
 40
4.118247915647705
100
AcDbArc
 50
265.6388308164
 51
299.5900650493
  0
ARC
  5
16D
330
1F
100
AcDbEntity
  8
0
  6
Continuous
 62
     7
370
    25
100
AcDbCircle
 10
321.7488882378
 20
297.1751278578
 30
0.0
 40
4.594315802001189
100
AcDbArc
 50
150.844166434
 51
266.5767318292
  0
LWPOLYLINE
  5
16E
330
1F
100
AcDbEntity
  8
0
  6
Continuous
 62
     7
370
    25
100
AcDbPolyline
 90
        3
 70
   128
 43
0.0
 10
282.8375205035
 20
263.8759124429
 10
283.951309631
 20
263.9288540508
 10
284.7484059933
 20
264.1375013811
  0
ARC
  5
16F
330
1F
100
AcDbEntity
  8
0
  6
Continuous
 62
     7
370
    25
100
AcDbCircle
 10
283.1829770044
 20
269.017359007
 30
0.0
 40
5.153039196952934
100
AcDbArc
 50
160.0735856928
 51
266.1560440664
  0
ARC
  5
170
330
1F
100
AcDbEntity
  8
0
  6
Continuous
 62
     7
370
    25
100
AcDbCircle
 10
585.4917561121
 20
830.3368754598
 30
0.0
 40
5.0
100
AcDbArc
 50
0.0
 51
90.0
  0
LINE
  5
171
330
1F
100
AcDbEntity
  8
0
  6
Continuous
 62
     7
370
    25
100
AcDbLine
 10
590.4917561121
 20
676.3368754598
 30
0.0
 11
590.4917561121
 21
830.3368754598
 31
0.0
  0
ARC
  5
172
330
1F
100
AcDbEntity
  8
0
  6
Continuous
 62
     7
370
    25
100
AcDbCircle
 10
585.4917561121
 20
676.3368754598
 30
0.0
 40
5.0
100
AcDbArc
 50
270.0
 51
0.0
  0
LINE
  5
173
330
1F
100
AcDbEntity
  8
0
  6
Continuous
 62
     7
370
    25
100
AcDbLine
 10
245.4917561121
 20
671.3368754598
 30
0.0
 11
585.4917561121
 21
671.3368754598
 31
0.0
  0
ARC
  5
174
330
1F
100
AcDbEntity
  8
0
  6
Continuous
 62
     7
370
    25
100
AcDbCircle
 10
245.4917561121
 20
676.3368754598
 30
0.0
 40
5.0
100
AcDbArc
 50
180.0
 51
270.0
  0
LINE
  5
175
330
1F
100
AcDbEntity
  8
0
  6
Continuous
 62
     7
370
    25
100
AcDbLine
 10
240.4917561121
 20
830.3368754598
 30
0.0
 11
240.4917561121
 21
676.3368754598
 31
0.0
  0
ARC
  5
176
330
1F
100
AcDbEntity
  8
0
  6
Continuous
 62
     7
370
    25
100
AcDbCircle
 10
245.4917561121
 20
830.3368754598
 30
0.0
 40
5.0
100
AcDbArc
 50
90.0
 51
180.0
  0
LINE
  5
177
330
1F
100
AcDbEntity
  8
0
  6
Continuous
 62
     7
370
    25
100
AcDbLine
 10
585.4917561121
 20
835.3368754598
 30
0.0
 11
245.4917561121
 21
835.3368754598
 31
0.0
  0
CIRCLE
  5
178
330
1F
100
AcDbEntity
  8
0
  6
Continuous
 62
     7
370
    25
100
AcDbCircle
 10
520.4917561121
 20
733.3368754598
 30
0.0
 40
9.124999999999886
  0
CIRCLE
  5
179
330
1F
100
AcDbEntity
  8
0
  6
Continuous
 62
     7
370
    25
100
AcDbCircle
 10
520.4917561121
 20
773.3368754598
 30
0.0
 40
9.125
  0
CIRCLE
  5
17A
330
1F
100
AcDbEntity
  8
0
  6
Continuous
 62
     7
370
    25
100
AcDbCircle
 10
310.4917561121
 20
733.3368754598
 30
0.0
 40
9.124999999999886
  0
CIRCLE
  5
17B
330
1F
100
AcDbEntity
  8
0
  6
Continuous
 62
     7
370
    25
100
AcDbCircle
 10
310.4917561121
 20
773.3368754598
 30
0.0
 40
9.125000000000114
  0
CIRCLE
  5
17C
330
1F
100
AcDbEntity
  8
0
  6
Continuous
 62
     7
370
    25
100
AcDbCircle
 10
270.4917561121
 20
701.3368754598
 30
0.0
 40
4.999999999999886
  0
CIRCLE
  5
17D
330
1F
100
AcDbEntity
  8
0
  6
Continuous
 62
     7
370
    25
100
AcDbCircle
 10
270.4917561121
 20
805.3368754598
 30
0.0
 40
5.0
  0
CIRCLE
  5
17E
330
1F
100
AcDbEntity
  8
0
  6
Continuous
 62
     7
370
    25
100
AcDbCircle
 10
560.4917561121
 20
701.3368754598
 30
0.0
 40
4.999999999999886
  0
CIRCLE
  5
17F
330
1F
100
AcDbEntity
  8
0
  6
Continuous
 62
     7
370
    25
100
AcDbCircle
 10
560.4917561121
 20
805.3368754598
 30
0.0
 40
5.0
  0
CIRCLE
  5
180
330
1F
100
AcDbEntity
  8
0
  6
Continuous
 62
     7
370
    25
100
AcDbCircle
 10
520.4917561121
 20
733.3368754598
 30
0.0
 40
4.499999999999886
  0
CIRCLE
  5
181
330
1F
100
AcDbEntity
  8
0
  6
Continuous
 62
     7
370
    25
100
AcDbCircle
 10
310.4917561121
 20
773.3368754598
 30
0.0
 40
4.500000000000114
  0
CIRCLE
  5
182
330
1F
100
AcDbEntity
  8
0
  6
Continuous
 62
     7
370
    25
100
AcDbCircle
 10
520.4917561121
 20
773.3368754598
 30
0.0
 40
4.5
  0
CIRCLE
  5
183
330
1F
100
AcDbEntity
  8
0
  6
Continuous
 62
     7
370
    25
100
AcDbCircle
 10
310.4917561121
 20
733.3368754598
 30
0.0
 40
4.499999999999886
  0
DIMENSION
  5
184
330
1F
100
AcDbEntity
  8
0
  6
Continuous
 62
     7
370
    18
100
AcDbDimension
  2
_D
 10
686.4917561121
 20
671.3368754598
 30
0.0
 11
686.4917561121
 21
753.3368754598
 31
0.0
 70
   160
  1
<>
 71
     2
 42
-1.0
  3
SLDDIMSTYLE0
100
AcDbAlignedDimension
 13
585.4917561121
 23
835.3368754598
 33
0.0
 14
585.4917561121
 24
671.3368754598
 34
0.0
 50
90.0
100
AcDbRotatedDimension
  0
DIMENSION
  5
18F
330
1F
100
AcDbEntity
  8
0
  6
Continuous
 62
     7
370
    18
100
AcDbDimension
  2
_D_1
 10
240.4917561121
 20
575.3368754598
 30
0.0
 11
415.4917561121
 21
575.3368754598
 31
0.0
 70
   160
  1
<>
 71
     2
 42
-1.0
  3
SLDDIMSTYLE0
100
AcDbAlignedDimension
 13
590.4917561121
 23
676.3368754598
 33
0.0
 14
240.4917561121
 24
676.3368754598
 34
0.0
100
AcDbRotatedDimension
  0
DIMENSION
  5
199
330
1F
100
AcDbEntity
  8
0
  6
Continuous
 62
     7
370
    18
100
AcDbDimension
  2
_D_2
 10
622.4917561121
 20
773.3368754598
 30
0.0
 11
622.4917561121
 21
753.3368754598
 31
0.0
 70
   160
  1
<>
 71
     2
 42
-1.0
  3
SLDDIMSTYLE1
100
AcDbAlignedDimension
 13
520.4917561121
 23
733.3368754598
 33
0.0
 14
520.4917561121
 24
773.3368754598
 34
0.0
 50
90.0
100
AcDbRotatedDimension
  0
DIMENSION
  5
1A6
330
1F
100
AcDbEntity
  8
0
  6
Continuous
 62
     7
370
    18
100
AcDbDimension
  2
_D_3
 10
654.4917561121
 20
805.3368754598
 30
0.0
 11
654.4917561121
 21
753.3368754598
 31
0.0
 70
   160
  1
<>
 71
     2
 42
-1.0
  3
SLDDIMSTYLE0
100
AcDbAlignedDimension
 13
560.4917561121
 23
701.3368754598
 33
0.0
 14
560.4917561121
 24
805.3368754598
 34
0.0
 50
90.0
100
AcDbRotatedDimension
  0
DIMENSION
  5
1B0
330
1F
100
AcDbEntity
  8
0
  6
Continuous
 62
     7
370
    18
100
AcDbDimension
  2
_D_4
 10
654.4917561121
 20
835.3368754598
 30
0.0
 11
654.4917561121
 21
820.3368754598
 31
0.0
 70
   160
  1
<>
 71
     2
 42
-1.0
  3
SLDDIMSTYLE1
100
AcDbAlignedDimension
 13
560.4917561121
 23
805.3368754598
 33
0.0
 14
585.4917561121
 24
835.3368754598
 34
0.0
 50
90.0
100
AcDbRotatedDimension
  0
DIMENSION
  5
1BC
330
1F
100
AcDbEntity
  8
0
  6
Continuous
 62
     7
370
    18
100
AcDbDimension
  2
_D_5
 10
622.4917561121
 20
835.3368754598
 30
0.0
 11
622.4917561121
 21
804.3368754598
 31
0.0
 70
   160
  1
<>
 71
     2
 42
-1.0
  3
SLDDIMSTYLE1
100
AcDbAlignedDimension
 13
520.4917561121
 23
773.3368754598
 33
0.0
 14
585.4917561121
 24
835.3368754598
 34
0.0
 50
90.0
100
AcDbRotatedDimension
  0
DIMENSION
  5
1C8
330
1F
100
AcDbEntity
  8
0
  6
Continuous
 62
     7
370
    18
100
AcDbDimension
  2
_D_6
 10
622.4917561121
 20
671.3368754598
 30
0.0
 11
622.4917561121
 21
702.3368754598
 31
0.0
 70
   160
  1
<>
 71
     2
 42
-1.0
  3
SLDDIMSTYLE1
100
AcDbAlignedDimension
 13
520.4917561121
 23
733.3368754598
 33
0.0
 14
585.4917561121
 24
671.3368754598
 34
0.0
 50
90.0
100
AcDbRotatedDimension
  0
DIMENSION
  5
1D4
330
1F
100
AcDbEntity
  8
0
  6
Continuous
 62
     7
370
    18
100
AcDbDimension
  2
_D_7
 10
654.4917561121
 20
671.3368754598
 30
0.0
 11
654.4917561121
 21
686.3368754598
 31
0.0
 70
   160
  1
<>
 71
     2
 42
-1.0
  3
SLDDIMSTYLE1
100
AcDbAlignedDimension
 13
560.4917561121
 23
701.3368754598
 33
0.0
 14
585.4917561121
 24
671.3368754598
 34
0.0
 50
90.0
100
AcDbRotatedDimension
  0
DIMENSION
  5
1E0
330
1F
100
AcDbEntity
  8
0
  6
Continuous
 62
     7
370
    18
100
AcDbDimension
  2
_D_8
 10
270.4917561121
 20
607.3368754598
 30
0.0
 11
415.4917561121
 21
607.3368754598
 31
0.0
 70
   160
  1
<>
 71
     2
 42
-1.0
  3
SLDDIMSTYLE0
100
AcDbAlignedDimension
 13
560.4917561121
 23
701.3368754598
 33
0.0
 14
270.4917561121
 24
701.3368754598
 34
0.0
100
AcDbRotatedDimension
  0
DIMENSION
  5
1EA
330
1F
100
AcDbEntity
  8
0
  6
Continuous
 62
     7
370
    18
100
AcDbDimension
  2
_D_9
 10
520.4917561121
 20
651.3368754598
 30
0.0
 11
415.4917561121
 21
651.3368754598
 31
0.0
 70
   160
  1
<>
 71
     2
 42
-1.0
  3
SLDDIMSTYLE0
100
AcDbAlignedDimension
 13
310.4917561121
 23
733.3368754598
 33
0.0
 14
520.4917561121
 24
733.3368754598
 34
0.0
100
AcDbRotatedDimension
  0
DIMENSION
  5
1F4
330
1F
100
AcDbEntity
  8
0
  6
Continuous
 62
     7
370
    18
100
AcDbDimension
  2
_D_10
 10
240.4917561121
 20
651.3368754598
 30
0.0
 11
275.4917561121
 21
651.3368754598
 31
0.0
 70
   160
  1
<>
 71
     2
 42
-1.0
  3
SLDDIMSTYLE0
100
AcDbAlignedDimension
 13
310.4917561121
 23
733.3368754598
 33
0.0
 14
240.4917561121
 24
676.3368754598
 34
0.0
100
AcDbRotatedDimension
  0
DIMENSION
  5
1FE
330
1F
100
AcDbEntity
  8
0
  6
Continuous
 62
     7
370
    18
100
AcDbDimension
  2
_D_11
 10
590.4917561121
 20
651.3368754598
 30
0.0
 11
555.4917561121
 21
651.3368754598
 31
0.0
 70
   160
  1
<>
 71
     2
 42
-1.0
  3
SLDDIMSTYLE0
100
AcDbAlignedDimension
 13
520.4917561121
 23
733.3368754598
 33
0.0
 14
590.4917561121
 24
676.3368754598
 34
0.0
100
AcDbRotatedDimension
  0
DIMENSION
  5
208
330
1F
100
AcDbEntity
  8
0
  6
Continuous
 62
     7
370
    18
100
AcDbDimension
  2
_D_12
 10
590.4917561121
 20
607.3368754598
 30
0.0
 11
575.4917561121
 21
607.3368754598
 31
0.0
 70
   160
  1
<>
 71
     2
 42
-1.0
  3
SLDDIMSTYLE1
100
AcDbAlignedDimension
 13
560.4917561121
 23
701.3368754598
 33
0.0
 14
590.4917561121
 24
676.3368754598
 34
0.0
100
AcDbRotatedDimension
  0
DIMENSION
  5
214
330
1F
100
AcDbEntity
  8
0
  6
Continuous
 62
     7
370
    18
100
AcDbDimension
  2
_D_13
 10
240.4917561121
 20
607.3368754598
 30
0.0
 11
255.4917561121
 21
607.3368754598
 31
0.0
 70
   160
  1
<>
 71
     2
 42
-1.0
  3
SLDDIMSTYLE1
100
AcDbAlignedDimension
 13
270.4917561121
 23
701.3368754598
 33
0.0
 14
240.4917561121
 24
676.3368754598
 34
0.0
100
AcDbRotatedDimension
  0
DIMENSION
  5
220
330
1F
100
AcDbEntity
  8
0
  6
Continuous
 62
     7
370
    18
100
AcDbDimension
  2
_D_14
 10
245.4917561121
 20
830.3368754598
 30
0.0
 11
218.6887604068
 21
855.0145407123
 31
0.0
 70
   164
  1
<>
 71
     1
 42
-1.0
  3
SLDDIMSTYLE2
100
AcDbRadialDimension
 15
241.8133890912
 25
833.7235576207
 35
0.0
 40
0.0
  0
MTEXT
  5
229
330
1F
100
AcDbEntity
  8
0
  6
Continuous
 62
     7
370
     0
100
AcDbMText
 10
279.6841442675
 20
709.9980766638
 30
0.0
 40
12.0
 41
0.0
 71
     1
 72
     1
  1
A
  7
SLDTEXTSTYLE0
 73
     1
 44
1.0
  0
MTEXT
  5
22A
330
1F
100
AcDbEntity
  8
0
  6
Continuous
 62
     7
370
     0
100
AcDbMText
 10
279.6841442675
 20
813.9980766638
 30
0.0
 40
12.0
 41
0.0
 71
     1
 72
     1
  1
A
  7
SLDTEXTSTYLE0
 73
     1
 44
1.0
  0
MTEXT
  5
22B
330
1F
100
AcDbEntity
  8
0
  6
Continuous
 62
     7
370
     0
100
AcDbMText
 10
569.6841442675
 20
709.9980766638
 30
0.0
 40
12.0
 41
0.0
 71
     1
 72
     1
  1
A
  7
SLDTEXTSTYLE0
 73
     1
 44
1.0
  0
MTEXT
  5
22C
330
1F
100
AcDbEntity
  8
0
  6
Continuous
 62
     7
370
     0
100
AcDbMText
 10
569.6841442675
 20
813.9980766638
 30
0.0
 40
12.0
 41
0.0
 71
     1
 72
     1
  1
A
  7
SLDTEXTSTYLE0
 73
     1
 44
1.0
  0
MTEXT
  5
22D
330
1F
100
AcDbEntity
  8
0
  6
Continuous
 62
     7
370
     0
100
AcDbMText
 10
322.6009597399
 20
744.9148921362
 30
0.0
 40
12.0
 41
0.0
 71
     1
 72
     1
  1
B
  7
SLDTEXTSTYLE0
 73
     1
 44
1.0
  0
MTEXT
  5
22E
330
1F
100
AcDbEntity
  8
0
  6
Continuous
 62
     7
370
     0
100
AcDbMText
 10
322.6009597399
 20
784.9148921362
 30
0.0
 40
12.0
 41
0.0
 71
     1
 72
     1
  1
B
  7
SLDTEXTSTYLE0
 73
     1
 44
1.0
  0
MTEXT
  5
22F
330
1F
100
AcDbEntity
  8
0
  6
Continuous
 62
     7
370
     0
100
AcDbMText
 10
532.6009597399
 20
744.9148921362
 30
0.0
 40
12.0
 41
0.0
 71
     1
 72
     1
  1
B
  7
SLDTEXTSTYLE0
 73
     1
 44
1.0
  0
MTEXT
  5
230
330
1F
100
AcDbEntity
  8
0
  6
Continuous
 62
     7
370
     0
100
AcDbMText
 10
532.6009597399
 20
784.9148921362
 30
0.0
 40
12.0
 41
0.0
 71
     1
 72
     1
  1
B
  7
SLDTEXTSTYLE0
 73
     1
 44
1.0
  0
LINE
  5
231
330
1F
100
AcDbEntity
  8
0
  6
Continuous
 62
     7
370
    25
100
AcDbLine
 10
245.4917561121
 20
944.687517566
 30
0.0
 11
245.4917561121
 21
934.687517566
 31
0.0
  0
LINE
  5
232
330
1F
100
AcDbEntity
  8
0
  6
Continuous
 62
     7
370
    25
100
AcDbLine
 10
240.4917561121
 20
934.687517566
 30
0.0
 11
240.4917561121
 21
944.687517566
 31
0.0
  0
LINE
  5
233
330
1F
100
AcDbEntity
  8
0
  6
Continuous
 62
     7
370
    25
100
AcDbLine
 10
245.4917561121
 20
934.687517566
 30
0.0
 11
240.4917561121
 21
934.687517566
 31
0.0
  0
LINE
  5
234
330
1F
100
AcDbEntity
  8
0
  6
Continuous
 62
     7
370
    25
100
AcDbLine
 10
240.4917561121
 20
944.687517566
 30
0.0
 11
245.4917561121
 21
944.687517566
 31
0.0
  0
LINE
  5
235
330
1F
100
AcDbEntity
  8
0
  6
Continuous
 62
     7
370
    25
100
AcDbLine
 10
585.4917561121
 20
934.687517566
 30
0.0
 11
585.4917561121
 21
944.687517566
 31
0.0
  0
LINE
  5
236
330
1F
100
AcDbEntity
  8
0
  6
Continuous
 62
     7
370
    25
100
AcDbLine
 10
245.4917561121
 20
934.687517566
 30
0.0
 11
585.4917561121
 21
934.687517566
 31
0.0
  0
LINE
  5
237
330
1F
100
AcDbEntity
  8
0
  6
Continuous
 62
     7
370
    25
100
AcDbLine
 10
245.4917561121
 20
944.687517566
 30
0.0
 11
585.4917561121
 21
944.687517566
 31
0.0
  0
LINE
  5
238
330
1F
100
AcDbEntity
  8
0
  6
Continuous
 62
     7
370
    25
100
AcDbLine
 10
590.4917561121
 20
944.687517566
 30
0.0
 11
590.4917561121
 21
934.687517566
 31
0.0
  0
LINE
  5
239
330
1F
100
AcDbEntity
  8
0
  6
Continuous
 62
     7
370
    25
100
AcDbLine
 10
590.4917561121
 20
934.687517566
 30
0.0
 11
585.4917561121
 21
934.687517566
 31
0.0
  0
LINE
  5
23A
330
1F
100
AcDbEntity
  8
0
  6
Continuous
 62
     7
370
    25
100
AcDbLine
 10
585.4917561121
 20
944.687517566
 30
0.0
 11
590.4917561121
 21
944.687517566
 31
0.0
  0
LINE
  5
23B
330
1F
100
AcDbEntity
  8
0
  6
HIDDEN
 62
     7
370
    18
100
AcDbLine
 10
310.4917561121
 20
940.062517566
 30
0.0
 11
314.9917561121
 21
940.062517566
 31
0.0
  0
LINE
  5
23C
330
1F
100
AcDbEntity
  8
0
  6
HIDDEN
 62
     7
370
    18
100
AcDbLine
 10
305.9917561121
 20
940.062517566
 30
0.0
 11
310.4917561121
 21
940.062517566
 31
0.0
  0
LINE
  5
23D
330
1F
100
AcDbEntity
  8
0
  6
HIDDEN
 62
     7
370
    18
100
AcDbLine
 10
520.4917561121
 20
940.062517566
 30
0.0
 11
524.9917561121
 21
940.062517566
 31
0.0
  0
LINE
  5
23E
330
1F
100
AcDbEntity
  8
0
  6
HIDDEN
 62
     7
370
    18
100
AcDbLine
 10
515.9917561121
 20
940.062517566
 30
0.0
 11
520.4917561121
 21
940.062517566
 31
0.0
  0
LINE
  5
23F
330
1F
100
AcDbEntity
  8
0
  6
HIDDEN
 62
     7
370
    18
100
AcDbLine
 10
245.4917561121
 20
934.687517566
 30
0.0
 11
245.4917561121
 21
944.687517566
 31
0.0
  0
LINE
  5
240
330
1F
100
AcDbEntity
  8
0
  6
HIDDEN
 62
     7
370
    18
100
AcDbLine
 10
585.4917561121
 20
944.687517566
 30
0.0
 11
585.4917561121
 21
934.687517566
 31
0.0
  0
LINE
  5
241
330
1F
100
AcDbEntity
  8
0
  6
HIDDEN
 62
     7
370
    18
100
AcDbLine
 10
555.4917561121
 20
944.687517566
 30
0.0
 11
555.4917561121
 21
934.687517566
 31
0.0
  0
LINE
  5
242
330
1F
100
AcDbEntity
  8
0
  6
HIDDEN
 62
     7
370
    18
100
AcDbLine
 10
565.4917561121
 20
934.687517566
 30
0.0
 11
565.4917561121
 21
944.687517566
 31
0.0
  0
LINE
  5
243
330
1F
100
AcDbEntity
  8
0
  6
HIDDEN
 62
     7
370
    18
100
AcDbLine
 10
265.4917561121
 20
944.687517566
 30
0.0
 11
265.4917561121
 21
934.687517566
 31
0.0
  0
LINE
  5
244
330
1F
100
AcDbEntity
  8
0
  6
HIDDEN
 62
     7
370
    18
100
AcDbLine
 10
275.4917561121
 20
934.687517566
 30
0.0
 11
275.4917561121
 21
944.687517566
 31
0.0
  0
LINE
  5
245
330
1F
100
AcDbEntity
  8
0
  6
HIDDEN
 62
     7
370
    18
100
AcDbLine
 10
301.3667561121
 20
944.687517566
 30
0.0
 11
305.9917561121
 21
940.062517566
 31
0.0
  0
LINE
  5
246
330
1F
100
AcDbEntity
  8
0
  6
HIDDEN
 62
     7
370
    18
100
AcDbLine
 10
314.9917561121
 20
940.062517566
 30
0.0
 11
319.6167561121
 21
944.687517566
 31
0.0
  0
LINE
  5
247
330
1F
100
AcDbEntity
  8
0
  6
HIDDEN
 62
     7
370
    18
100
AcDbLine
 10
511.3667561121
 20
944.687517566
 30
0.0
 11
515.9917561121
 21
940.062517566
 31
0.0
  0
LINE
  5
248
330
1F
100
AcDbEntity
  8
0
  6
HIDDEN
 62
     7
370
    18
100
AcDbLine
 10
524.9917561121
 20
940.062517566
 30
0.0
 11
529.6167561121
 21
944.687517566
 31
0.0
  0
LINE
  5
249
330
1F
100
AcDbEntity
  8
0
  6
HIDDEN
 62
     7
370
    18
100
AcDbLine
 10
305.9917561121
 20
940.062517566
 30
0.0
 11
305.9917561121
 21
934.687517566
 31
0.0
  0
LINE
  5
24A
330
1F
100
AcDbEntity
  8
0
  6
HIDDEN
 62
     7
370
    18
100
AcDbLine
 10
314.9917561121
 20
934.687517566
 30
0.0
 11
314.9917561121
 21
940.062517566
 31
0.0
  0
LINE
  5
24B
330
1F
100
AcDbEntity
  8
0
  6
HIDDEN
 62
     7
370
    18
100
AcDbLine
 10
515.9917561121
 20
940.062517566
 30
0.0
 11
515.9917561121
 21
934.687517566
 31
0.0
  0
LINE
  5
24C
330
1F
100
AcDbEntity
  8
0
  6
HIDDEN
 62
     7
370
    18
100
AcDbLine
 10
524.9917561121
 20
934.687517566
 30
0.0
 11
524.9917561121
 21
940.062517566
 31
0.0
  0
DIMENSION
  5
24D
330
1F
100
AcDbEntity
  8
0
  6
Continuous
 62
     7
370
    18
100
AcDbDimension
  2
_D_15
 10
622.4917561121
 20
934.687517566
 30
0.0
 11
622.4917561121
 21
899.1972622502
 31
0.0
 70
   160
  1
<>
 71
     2
 42
-1.0
  3
SLDDIMSTYLE1
100
AcDbAlignedDimension
 13
590.4917561121
 23
944.687517566
 33
0.0
 14
590.4917561121
 24
934.687517566
 34
0.0
 50
90.0
100
AcDbRotatedDimension
  0
ENDSEC
  0
SECTION
  2
OBJECTS
  0
DICTIONARY
  5
C
330
0
100
AcDbDictionary
281
     1
  3
ACAD_GROUP
350
D
  3
ACAD_LAYOUT
350
1A
  3
ACAD_MLINESTYLE
350
17
  3
ACAD_PLOTSETTINGS
350
19
  3
ACAD_PLOTSTYLENAME
350
E
  3
ACAD_SCALELIST
350
47
  3
DWGPROPS
350
259
  0
DICTIONARY
  5
D
102
{ACAD_REACTORS
330
C
102
}
330
C
100
AcDbDictionary
281
     1
  0
DICTIONARY
  5
1A
102
{ACAD_REACTORS
330
C
102
}
330
C
100
AcDbDictionary
281
     1
  3
Layout1
350
1E
  3
Layout2
350
26
  3
Model
350
22
  0
DICTIONARY
  5
17
102
{ACAD_REACTORS
330
C
102
}
330
C
100
AcDbDictionary
281
     1
  3
Standard
350
18
  0
DICTIONARY
  5
19
102
{ACAD_REACTORS
330
C
102
}
330
C
100
AcDbDictionary
281
     1
  0
ACDBDICTIONARYWDFLT
  5
E
102
{ACAD_REACTORS
330
C
102
}
330
C
100
AcDbDictionary
281
     1
  3
Normal
350
F
100
AcDbDictionaryWithDefault
340
F
  0
DICTIONARY
  5
47
102
{ACAD_REACTORS
330
C
102
}
330
C
100
AcDbDictionary
281
     1
  3
A0
350
48
  3
A1
350
49
  3
A2
350
4A
  3
A3
350
4B
  3
A4
350
4C
  3
A5
350
4D
  3
A6
350
4E
  3
A7
350
4F
  3
A8
350
50
  3
A9
350
51
  3
B0
350
52
  3
B1
350
53
  3
B2
350
54
  3
B3
350
55
  3
B4
350
56
  3
B5
350
57
  3
B6
350
58
  0
XRECORD
  5
259
102
{ACAD_REACTORS
330
C
102
}
330
C
100
AcDbXrecord
280
     1
  1
DWGPROPS COOKIE
  2

  3

  4

  6

  7

  8
antonio messinetti
  9

300
=
301
=
302
=
303
=
304
=
305
=
306
=
307
=
308
=
309
=
 40
0.0
 41
2459977.398733692
 42
2459977.398739491
  1

 90
        0
  0
LAYOUT
  5
1E
102
{ACAD_REACTORS
330
1A
102
}
330
1A
100
AcDbPlotSettings
  1

  2
none_device
  4

  6

 40
0.0
 41
0.0
 42
0.0
 43
0.0
 44
0.0
 45
0.0
 46
0.0
 47
0.0
 48
0.0
 49
0.0
140
0.0
141
0.0
142
1.0
143
1.0
 70
   688
 72
     1
 73
     0
 74
     5
  7

 75
    16
147
1.0
148
0.0
149
0.0
100
AcDbLayout
  1
Layout1
 70
     1
 71
     1
 10
0.0
 20
0.0
 11
420.0
 21
297.0
 12
0.0
 22
0.0
 32
0.0
 14
1.0000000000E+20
 24
1.0000000000E+20
 34
1.0000000000E+20
 15
-1.0000000000E+20
 25
-1.0000000000E+20
 35
-1.0000000000E+20
146
0.0
 13
0.0
 23
0.0
 33
0.0
 16
1.0
 26
0.0
 36
0.0
 17
0.0
 27
1.0
 37
0.0
 76
     0
330
1B
  0
LAYOUT
  5
26
102
{ACAD_REACTORS
330
1A
102
}
330
1A
100
AcDbPlotSettings
  1

  2
none_device
  4

  6

 40
0.0
 41
0.0
 42
0.0
 43
0.0
 44
0.0
 45
0.0
 46
0.0
 47
0.0
 48
0.0
 49
0.0
140
0.0
141
0.0
142
1.0
143
1.0
 70
   688
 72
     1
 73
     0
 74
     5
  7

 75
    16
147
1.0
148
0.0
149
0.0
100
AcDbLayout
  1
Layout2
 70
     1
 71
     2
 10
0.0
 20
0.0
 11
0.0
 21
0.0
 12
0.0
 22
0.0
 32
0.0
 14
0.0
 24
0.0
 34
0.0
 15
0.0
 25
0.0
 35
0.0
146
0.0
 13
0.0
 23
0.0
 33
0.0
 16
1.0
 26
0.0
 36
0.0
 17
0.0
 27
1.0
 37
0.0
 76
     0
330
23
  0
LAYOUT
  5
22
102
{ACAD_REACTORS
330
1A
102
}
330
1A
100
AcDbPlotSettings
  1

  2
none_device
  4
Letter_(8.50_x_11.00_Inches)
  6

 40
6.35
 41
6.35
 42
6.35000508
 43
6.35000508
 44
215.9
 45
279.4
 46
0.0
 47
0.0
 48
0.0
 49
0.0
140
0.0
141
0.0
142
1.0
143
1.0
 70
  1712
 72
     1
 73
     0
 74
     0
  7

 75
     0
147
1.0
148
0.0
149
0.0
100
AcDbLayout
  1
Model
 70
     1
 71
     0
 10
0.0
 20
0.0
 11
840.0
 21
1188.0
 12
0.0
 22
0.0
 32
0.0
 14
0.0
 24
0.0
 34
0.0
 15
840.0
 25
1188.0
 35
0.0
146
0.0
 13
0.0
 23
0.0
 33
0.0
 16
1.0
 26
0.0
 36
0.0
 17
0.0
 27
1.0
 37
0.0
 76
     0
330
1F
331
29
  0
MLINESTYLE
  5
18
102
{ACAD_REACTORS
330
17
102
}
330
17
100
AcDbMlineStyle
  2
Standard
 70
     0
  3

 62
   256
 51
90.0
 52
90.0
 71
     2
 49
0.5
 62
   256
  6
BYLAYER
 49
-0.5
 62
   256
  6
BYLAYER
  0
ACDBPLACEHOLDER
  5
F
102
{ACAD_REACTORS
330
E
102
}
330
E
  0
SCALE
  5
48
102
{ACAD_REACTORS
330
47
102
}
330
47
100
AcDbScale
 70
     0
300
1:1
140
1.0
141
1.0
290
     1
  0
SCALE
  5
49
102
{ACAD_REACTORS
330
47
102
}
330
47
100
AcDbScale
 70
     0
300
1:2
140
1.0
141
2.0
290
     0
  0
SCALE
  5
4A
102
{ACAD_REACTORS
330
47
102
}
330
47
100
AcDbScale
 70
     0
300
1:4
140
1.0
141
4.0
290
     0
  0
SCALE
  5
4B
102
{ACAD_REACTORS
330
47
102
}
330
47
100
AcDbScale
 70
     0
300
1:5
140
1.0
141
5.0
290
     0
  0
SCALE
  5
4C
102
{ACAD_REACTORS
330
47
102
}
330
47
100
AcDbScale
 70
     0
300
1:8
140
1.0
141
8.0
290
     0
  0
SCALE
  5
4D
102
{ACAD_REACTORS
330
47
102
}
330
47
100
AcDbScale
 70
     0
300
1:10
140
1.0
141
10.0
290
     0
  0
SCALE
  5
4E
102
{ACAD_REACTORS
330
47
102
}
330
47
100
AcDbScale
 70
     0
300
1:16
140
1.0
141
16.0
290
     0
  0
SCALE
  5
4F
102
{ACAD_REACTORS
330
47
102
}
330
47
100
AcDbScale
 70
     0
300
1:20
140
1.0
141
20.0
290
     0
  0
SCALE
  5
50
102
{ACAD_REACTORS
330
47
102
}
330
47
100
AcDbScale
 70
     0
300
1:30
140
1.0
141
30.0
290
     0
  0
SCALE
  5
51
102
{ACAD_REACTORS
330
47
102
}
330
47
100
AcDbScale
 70
     0
300
1:40
140
1.0
141
40.0
290
     0
  0
SCALE
  5
52
102
{ACAD_REACTORS
330
47
102
}
330
47
100
AcDbScale
 70
     0
300
1:50
140
1.0
141
50.0
290
     0
  0
SCALE
  5
53
102
{ACAD_REACTORS
330
47
102
}
330
47
100
AcDbScale
 70
     0
300
1:100
140
1.0
141
100.0
290
     0
  0
SCALE
  5
54
102
{ACAD_REACTORS
330
47
102
}
330
47
100
AcDbScale
 70
     0
300
2:1
140
2.0
141
1.0
290
     0
  0
SCALE
  5
55
102
{ACAD_REACTORS
330
47
102
}
330
47
100
AcDbScale
 70
     0
300
4:1
140
4.0
141
1.0
290
     0
  0
SCALE
  5
56
102
{ACAD_REACTORS
330
47
102
}
330
47
100
AcDbScale
 70
     0
300
8:1
140
8.0
141
1.0
290
     0
  0
SCALE
  5
57
102
{ACAD_REACTORS
330
47
102
}
330
47
100
AcDbScale
 70
     0
300
10:1
140
10.0
141
1.0
290
     0
  0
SCALE
  5
58
102
{ACAD_REACTORS
330
47
102
}
330
47
100
AcDbScale
 70
     0
300
100:1
140
100.0
141
1.0
290
     0
  0
ENDSEC
  0
EOF
