  0
SECTION
  2
HEADER
  9
$ACADVER
  1
AC1015
  9
$ACADMAINTVER
 70
     6
  9
$DWGCODEPAGE
  3
ANSI_1252
  9
$INSBASE
 10
0.0
 20
0.0
 30
0.0
  9
$EXTMIN
 10
0.0
 20
0.0
 30
0.0
  9
$EXTMAX
 10
1188.0
 20
840.0
 30
0.0
  9
$LIMMIN
 10
0.0
 20
0.0
  9
$LIMMAX
 10
1188.0
 20
840.0
  9
$ORTHOMODE
 70
     0
  9
$REGENMODE
 70
     1
  9
$FILLMODE
 70
     1
  9
$QTEXTMODE
 70
     0
  9
$MIRRTEXT
 70
     1
  9
$LTSCALE
 40
4.0
  9
$ATTMODE
 70
     1
  9
$TEXTSIZE
 40
12.0
  9
$TRACEWID
 40
1.0
  9
$TEXTSTYLE
  7
Standard
  9
$CLAYER
  8
0
  9
$CELTYPE
  6
ByLayer
  9
$CECOLOR
 62
   256
  9
$CELTSCALE
 40
1.0
  9
$DISPSILH
 70
     0
  9
$DIMSCALE
 40
1.0
  9
$DIMASZ
 40
12.0
  9
$DIMEXO
 40
4.0
  9
$DIMDLI
 40
3.75
  9
$DIMRND
 40
0.0
  9
$DIMDLE
 40
0.0
  9
$DIMEXE
 40
4.0
  9
$DIMTP
 40
0.0
  9
$DIMTM
 40
0.0
  9
$DIMTXT
 40
11.2
  9
$DIMCEN
 40
2.5
  9
$DIMTSZ
 40
0.0
  9
$DIMTOL
 70
     0
  9
$DIMLIM
 70
     0
  9
$DIMTIH
 70
     1
  9
$DIMTOH
 70
     1
  9
$DIMSE1
 70
     0
  9
$DIMSE2
 70
     0
  9
$DIMTAD
 70
     1
  9
$DIMZIN
 70
     0
  9
$DIMBLK
  1

  9
$DIMASO
 70
     1
  9
$DIMSHO
 70
     1
  9
$DIMPOST
  1

  9
$DIMAPOST
  1

  9
$DIMALT
 70
     0
  9
$DIMALTD
 70
     3
  9
$DIMALTF
 40
0.0393700787
  9
$DIMLFAC
 40
1.0
  9
$DIMTOFL
 70
     1
  9
$DIMTVP
 40
0.0
  9
$DIMTIX
 70
     0
  9
$DIMSOXD
 70
     0
  9
$DIMSAH
 70
     0
  9
$DIMBLK1
  1

  9
$DIMBLK2
  1

  9
$DIMSTYLE
  2
ISO-25
  9
$DIMCLRD
 70
     0
  9
$DIMCLRE
 70
     0
  9
$DIMCLRT
 70
     0
  9
$DIMTFAC
 40
1.0
  9
$DIMGAP
 40
6.096
  9
$DIMJUST
 70
     0
  9
$DIMSD1
 70
     0
  9
$DIMSD2
 70
     0
  9
$DIMTOLJ
 70
     0
  9
$DIMTZIN
 70
     0
  9
$DIMALTZ
 70
     0
  9
$DIMALTTZ
 70
     0
  9
$DIMUPT
 70
     0
  9
$DIMDEC
 70
     2
  9
$DIMTDEC
 70
     2
  9
$DIMALTU
 70
     2
  9
$DIMALTTD
 70
     3
  9
$DIMTXSTY
  7
Standard
  9
$DIMAUNIT
 70
     0
  9
$DIMADEC
 70
     2
  9
$DIMALTRND
 40
0.0
  9
$DIMAZIN
 70
     0
  9
$DIMDSEP
 70
    44
  9
$DIMATFIT
 70
     3
  9
$DIMFRAC
 70
     0
  9
$DIMLDRBLK
  1

  9
$DIMLUNIT
 70
     2
  9
$DIMLWD
 70
    -2
  9
$DIMLWE
 70
    -2
  9
$DIMTMOVE
 70
     0
  9
$LUNITS
 70
     2
  9
$LUPREC
 70
     2
  9
$SKETCHINC
 40
1.0
  9
$FILLETRAD
 40
0.0
  9
$AUNITS
 70
     0
  9
$AUPREC
 70
     2
  9
$MENU
  1
.
  9
$ELEVATION
 40
0.0
  9
$PELEVATION
 40
0.0
  9
$THICKNESS
 40
0.0
  9
$LIMCHECK
 70
     0
  9
$CHAMFERA
 40
0.0
  9
$CHAMFERB
 40
0.0
  9
$CHAMFERC
 40
0.0
  9
$CHAMFERD
 40
0.0
  9
$SKPOLY
 70
     0
  9
$TDCREATE
 40
2460321.650653033
  9
$TDUCREATE
 40
2460321.608986366
  9
$TDUPDATE
 40
2460321.650656158
  9
$TDUUPDATE
 40
2460321.608989491
  9
$TDINDWG
 40
0.0000000116
  9
$TDUSRTIMER
 40
0.0000000116
  9
$USRTIMER
 70
     1
  9
$ANGBASE
 50
0.0
  9
$ANGDIR
 70
     0
  9
$PDMODE
 70
     0
  9
$PDSIZE
 40
-1.0
  9
$PLINEWID
 40
0.0
  9
$SPLFRAME
 70
     0
  9
$SPLINETYPE
 70
     6
  9
$SPLINESEGS
 70
     8
  9
$HANDSEED
  5
244
  9
$SURFTAB1
 70
     6
  9
$SURFTAB2
 70
     6
  9
$SURFTYPE
 70
     6
  9
$SURFU
 70
     6
  9
$SURFV
 70
     6
  9
$UCSBASE
  2

  9
$UCSNAME
  2

  9
$UCSORG
 10
0.0
 20
0.0
 30
0.0
  9
$UCSXDIR
 10
1.0
 20
0.0
 30
0.0
  9
$UCSYDIR
 10
0.0
 20
1.0
 30
0.0
  9
$UCSORTHOREF
  2

  9
$UCSORTHOVIEW
 70
     0
  9
$UCSORGTOP
 10
0.0
 20
0.0
 30
0.0
  9
$UCSORGBOTTOM
 10
0.0
 20
0.0
 30
0.0
  9
$UCSORGLEFT
 10
0.0
 20
0.0
 30
0.0
  9
$UCSORGRIGHT
 10
0.0
 20
0.0
 30
0.0
  9
$UCSORGFRONT
 10
0.0
 20
0.0
 30
0.0
  9
$UCSORGBACK
 10
0.0
 20
0.0
 30
0.0
  9
$PUCSBASE
  2

  9
$PUCSNAME
  2

  9
$PUCSORG
 10
0.0
 20
0.0
 30
0.0
  9
$PUCSXDIR
 10
1.0
 20
0.0
 30
0.0
  9
$PUCSYDIR
 10
0.0
 20
1.0
 30
0.0
  9
$PUCSORTHOREF
  2

  9
$PUCSORTHOVIEW
 70
     0
  9
$PUCSORGTOP
 10
0.0
 20
0.0
 30
0.0
  9
$PUCSORGBOTTOM
 10
0.0
 20
0.0
 30
0.0
  9
$PUCSORGLEFT
 10
0.0
 20
0.0
 30
0.0
  9
$PUCSORGRIGHT
 10
0.0
 20
0.0
 30
0.0
  9
$PUCSORGFRONT
 10
0.0
 20
0.0
 30
0.0
  9
$PUCSORGBACK
 10
0.0
 20
0.0
 30
0.0
  9
$USERI1
 70
     0
  9
$USERI2
 70
     0
  9
$USERI3
 70
     0
  9
$USERI4
 70
     0
  9
$USERI5
 70
     0
  9
$USERR1
 40
0.0
  9
$USERR2
 40
0.0
  9
$USERR3
 40
0.0
  9
$USERR4
 40
0.0
  9
$USERR5
 40
0.0
  9
$WORLDVIEW
 70
     1
  9
$SHADEDGE
 70
     3
  9
$SHADEDIF
 70
    70
  9
$TILEMODE
 70
     1
  9
$MAXACTVP
 70
    64
  9
$PINSBASE
 10
0.0
 20
0.0
 30
0.0
  9
$PLIMCHECK
 70
     0
  9
$PEXTMIN
 10
1.0000000000E+20
 20
1.0000000000E+20
 30
1.0000000000E+20
  9
$PEXTMAX
 10
-1.0000000000E+20
 20
-1.0000000000E+20
 30
-1.0000000000E+20
  9
$PLIMMIN
 10
0.0
 20
0.0
  9
$PLIMMAX
 10
420.0
 20
297.0
  9
$UNITMODE
 70
     0
  9
$VISRETAIN
 70
     1
  9
$PLINEGEN
 70
     0
  9
$PSLTSCALE
 70
     1
  9
$TREEDEPTH
 70
  3020
  9
$CMLSTYLE
  2
Standard
  9
$CMLJUST
 70
     0
  9
$CMLSCALE
 40
20.0
  9
$PROXYGRAPHICS
 70
     1
  9
$MEASUREMENT
 70
     1
  9
$CELWEIGHT
370
    -1
  9
$ENDCAPS
280
     0
  9
$JOINSTYLE
280
     0
  9
$LWDISPLAY
290
     1
  9
$INSUNITS
 70
     4
  9
$HYPERLINKBASE
  1

  9
$STYLESHEET
  1

  9
$XEDIT
290
     1
  9
$CEPSNTYPE
380
     0
  9
$PSTYLEMODE
290
     1
  9
$FINGERPRINTGUID
  2
{0564e767-99ca-4fe1-8101-360e11ae3219}
  9
$VERSIONGUID
  2
{FAEB1C32-E019-11D5-929B-00C0DF256EC4}
  9
$EXTNAMES
290
     1
  9
$PSVPSCALE
 40
0.0
  9
$OLESTARTUP
290
     0
  0
ENDSEC
  0
SECTION
  2
CLASSES
  0
CLASS
  1
ACDBDICTIONARYWDFLT
  2
AcDbDictionaryWithDefault
  3
ObjectDBX Classes
 90
        0
280
     0
281
     0
  0
CLASS
  1
VISUALSTYLE
  2
AcDbVisualStyle
  3
ObjectDBX Classes
 90
     4095
280
     0
281
     0
  0
CLASS
  1
MATERIAL
  2
AcDbMaterial
  3
ObjectDBX Classes
 90
     1153
280
     0
281
     0
  0
CLASS
  1
SCALE
  2
AcDbScale
  3
ObjectDBX Classes
 90
     1153
280
     0
281
     0
  0
CLASS
  1
TABLESTYLE
  2
AcDbTableStyle
  3
ObjectDBX Classes
 90
     4095
280
     0
281
     0
  0
CLASS
  1
MLEADERSTYLE
  2
AcDbMLeaderStyle
  3
ACDB_MLEADERSTYLE_CLASS
 90
     4095
280
     0
281
     0
  0
CLASS
  1
SUN
  2
AcDbSun
  3
SCENEOE
 90
     1153
280
     0
281
     0
  0
CLASS
  1
ACDBPLACEHOLDER
  2
AcDbPlaceHolder
  3
ObjectDBX Classes
 90
        0
280
     0
281
     0
  0
CLASS
  1
LAYOUT
  2
AcDbLayout
  3
ObjectDBX Classes
 90
        0
280
     0
281
     0
  0
ENDSEC
  0
SECTION
  2
TABLES
  0
TABLE
  2
VPORT
  5
8
330
0
100
AcDbSymbolTable
 70
     1
  0
VPORT
  5
29
330
8
100
AcDbSymbolTableRecord
100
AcDbViewportTableRecord
  2
*Active
 70
     0
 10
0.0
 20
0.0
 11
1.0
 21
1.0
 12
594.0
 22
420.0
 13
0.0
 23
0.0
 14
10.0
 24
10.0
 15
10.0
 25
10.0
 16
0.0
 26
0.0
 36
1.0
 17
0.0
 27
0.0
 37
0.0
 40
840.0
 41
1.4142857143
 42
50.0
 43
0.0
 44
0.0
 50
0.0
 51
0.0
 71
     0
 72
  2000
 73
     1
 74
     3
 75
     0
 76
     0
 77
     0
 78
     0
281
     0
 65
     1
110
0.0
120
0.0
130
0.0
111
1.0
121
0.0
131
0.0
112
0.0
122
1.0
132
0.0
 79
     0
146
0.0
  0
ENDTAB
  0
TABLE
  2
LTYPE
  5
5
330
0
100
AcDbSymbolTable
 70
     6
  0
LTYPE
  5
14
330
5
100
AcDbSymbolTableRecord
100
AcDbLinetypeTableRecord
  2
ByBlock
 70
     0
  3

 72
    65
 73
     0
 40
0.0
  0
LTYPE
  5
15
330
5
100
AcDbSymbolTableRecord
100
AcDbLinetypeTableRecord
  2
ByLayer
 70
     0
  3

 72
    65
 73
     0
 40
0.0
  0
LTYPE
  5
16
330
5
100
AcDbSymbolTableRecord
100
AcDbLinetypeTableRecord
  2
Continuous
 70
     0
  3
Solid line
 72
    65
 73
     0
 40
0.0
  0
LTYPE
  5
5E
330
5
100
AcDbSymbolTableRecord
100
AcDbLinetypeTableRecord
  2
HIDDEN
 70
     0
  3
Hidden __ __ __ __ __ __ __ __ __ __ __ __ __ __
 72
    65
 73
     2
 40
1.905
 49
1.27
 74
     0
 49
-0.635
 74
     0
  0
LTYPE
  5
5F
330
5
100
AcDbSymbolTableRecord
100
AcDbLinetypeTableRecord
  2
PHANTOM
 70
     0
  3
Phantom ______  __  __  ______  __  __  ______
 72
    65
 73
     6
 40
12.7
 49
6.35
 74
     0
 49
-1.27
 74
     0
 49
1.27
 74
     0
 49
-1.27
 74
     0
 49
1.27
 74
     0
 49
-1.27
 74
     0
  0
LTYPE
  5
60
330
5
100
AcDbSymbolTableRecord
100
AcDbLinetypeTableRecord
  2
CENTER
 70
     0
  3
Center ____ _ ____ _ ____ _ ____ _ ____ _ ____
 72
    65
 73
     4
 40
10.16
 49
6.35
 74
     0
 49
-1.27
 74
     0
 49
1.27
 74
     0
 49
-1.27
 74
     0
  0
LTYPE
  5
61
330
5
100
AcDbSymbolTableRecord
100
AcDbLinetypeTableRecord
  2
CENTERX2
 70
     0
  3
Center (2x) ________  __  ________  __  _____
 72
    65
 73
     4
 40
20.32
 49
12.7
 74
     0
 49
-2.54
 74
     0
 49
2.54
 74
     0
 49
-2.54
 74
     0
  0
LTYPE
  5
62
330
5
100
AcDbSymbolTableRecord
100
AcDbLinetypeTableRecord
  2
DOT2
 70
     0
  3
Dot (.5x) ........................................
 72
    65
 73
     2
 40
0.635
 49
0.0
 74
     0
 49
-0.635
 74
     0
  0
ENDTAB
  0
TABLE
  2
LAYER
  5
2
330
0
100
AcDbSymbolTable
 70
     3
  0
LAYER
  5
10
330
2
100
AcDbSymbolTableRecord
100
AcDbLayerTableRecord
  2
0
 70
     0
 62
     7
  6
Continuous
370
    -3
390
F
  0
LAYER
  5
63
330
2
100
AcDbSymbolTableRecord
100
AcDbLayerTableRecord
  2
FORMAT
 70
     0
 62
     7
  6
Continuous
370
    -3
390
F
  0
LAYER
  5
64
330
2
100
AcDbSymbolTableRecord
100
AcDbLayerTableRecord
  2
TESTO
 70
     0
 62
   179
  6
Continuous
370
    -3
390
F
  0
ENDTAB
  0
TABLE
  2
STYLE
  5
3
330
0
100
AcDbSymbolTable
 70
     8
  0
STYLE
  5
11
330
3
100
AcDbSymbolTableRecord
100
AcDbTextStyleTableRecord
  2
Standard
 70
     0
 40
0.0
 41
1.0
 50
0.0
 71
     0
 42
12.0
  3
txt
  4

  0
STYLE
  5
C2
330
3
100
AcDbSymbolTableRecord
100
AcDbTextStyleTableRecord
  2
SLDTEXTSTYLE0
 70
     0
 40
0.0
 41
0.75
 50
0.0
 71
     0
 42
12.0
  3
TXT
  4

  0
STYLE
  5
D2
330
3
100
AcDbSymbolTableRecord
100
AcDbTextStyleTableRecord
  2
SLDTEXTSTYLE1
 70
     0
 40
0.0
 41
0.605
 50
0.0
 71
     0
 42
12.0
  3
TXT
  4

  0
STYLE
  5
E3
330
3
100
AcDbSymbolTableRecord
100
AcDbTextStyleTableRecord
  2
SLDTEXTSTYLE2
 70
     0
 40
0.0
 41
0.7329842932
 50
0.0
 71
     0
 42
12.0
  3
TXT
  4

  0
STYLE
  5
E5
330
3
100
AcDbSymbolTableRecord
100
AcDbTextStyleTableRecord
  2
SLDTEXTSTYLE3
 70
     0
 40
0.0
 41
0.6436170213
 50
0.0
 71
     0
 42
12.0
  3
TXT
  4

  0
STYLE
  5
FB
330
3
100
AcDbSymbolTableRecord
100
AcDbTextStyleTableRecord
  2
SLDTEXTSTYLE4
 70
     0
 40
0.0
 41
0.6944444444
 50
0.0
 71
     0
 42
12.0
  3
TXT
  4

  0
STYLE
  5
102
330
3
100
AcDbSymbolTableRecord
100
AcDbTextStyleTableRecord
  2
SLDTEXTSTYLE5
 70
     0
 40
0.0
 41
0.6923076923
 50
0.0
 71
     0
 42
12.0
  3
TXT
  4

  0
STYLE
  5
1B1
330
3
100
AcDbSymbolTableRecord
100
AcDbTextStyleTableRecord
  2
SLDTEXTSTYLE6
 70
     0
 40
0.0
 41
0.6666666667
 50
0.0
 71
     0
 42
12.0
  3
TXT
  4

  0
ENDTAB
  0
TABLE
  2
VIEW
  5
6
330
0
100
AcDbSymbolTable
 70
     0
  0
ENDTAB
  0
TABLE
  2
UCS
  5
7
330
0
100
AcDbSymbolTable
 70
     0
  0
ENDTAB
  0
TABLE
  2
APPID
  5
9
330
0
100
AcDbSymbolTable
 70
     1
  0
APPID
  5
12
330
9
100
AcDbSymbolTableRecord
100
AcDbRegAppTableRecord
  2
ACAD
 70
     0
  0
ENDTAB
  0
TABLE
  2
DIMSTYLE
  5
A
330
0
100
AcDbSymbolTable
 70
     5
100
AcDbDimStyleTable
  0
DIMSTYLE
105
27
330
A
100
AcDbSymbolTableRecord
100
AcDbDimStyleTableRecord
  2
ISO-25
 70
     0
 41
2.5
 42
0.625
 43
3.75
 44
1.25
 73
     0
 74
     0
 77
     1
 78
     8
140
2.5
141
2.5
143
0.0393700787
147
0.625
171
     3
172
     1
178
     0
271
     2
272
     2
274
     3
278
    44
283
     0
284
     8
340
11
  0
DIMSTYLE
105
12F
102
{ACAD_REACTORS
330
12E
330
139
330
14C
330
156
330
16D
330
18F
330
1C8
330
1DE
102
}
330
A
100
AcDbSymbolTableRecord
100
AcDbDimStyleTableRecord
  2
SLDDIMSTYLE0
 70
     0
 41
12.0
 44
0.0
 45
0.000000001
 73
     0
 74
     0
 77
     1
 78
    12
 79
     3
140
11.2
147
2.8
173
     1
178
     0
271
     2
272
     2
276
     2
284
    12
340
C2
  0
DIMSTYLE
105
144
102
{ACAD_REACTORS
330
143
102
}
330
A
100
AcDbSymbolTableRecord
100
AcDbDimStyleTableRecord
  2
SLDDIMSTYLE1
 70
     0
 41
12.0
 44
0.0
 45
0.000000001
 73
     0
 74
     0
 77
     1
 78
    12
 79
     3
140
11.2
141
0.0
147
2.8
173
     1
178
     0
271
     2
272
     2
276
     2
284
    12
340
C2
  0
DIMSTYLE
105
161
102
{ACAD_REACTORS
330
160
330
177
330
183
330
199
330
1D2
330
210
102
}
330
A
100
AcDbSymbolTableRecord
100
AcDbDimStyleTableRecord
  2
SLDDIMSTYLE2
 70
     0
 41
12.0
 44
0.0
 45
0.000000001
 73
     0
 74
     0
 77
     1
 78
    12
 79
     3
140
11.2
147
2.8
172
     1
173
     1
178
     0
271
     2
272
     2
276
     2
284
    12
289
     0
340
C2
  0
DIMSTYLE
105
1A6
102
{ACAD_REACTORS
330
1A5
330
1B5
102
}
330
A
100
AcDbSymbolTableRecord
100
AcDbDimStyleTableRecord
  2
SLDDIMSTYLE3
 70
     0
 41
12.0
 44
0.0
 45
0.000000001
 78
    12
 79
     3
140
11.2
141
0.0
147
2.8
172
     1
173
     1
178
     0
271
     6
272
     2
276
     2
284
    12
340
C2
341
1A7
343
1A7
  0
ENDTAB
  0
TABLE
  2
BLOCK_RECORD
  5
1
330
0
100
AcDbSymbolTable
 70
    20
  0
BLOCK_RECORD
  5
1F
330
1
100
AcDbSymbolTableRecord
100
AcDbBlockTableRecord
  2
*Model_Space
340
22
  0
BLOCK_RECORD
  5
1B
330
1
100
AcDbSymbolTableRecord
100
AcDbBlockTableRecord
  2
*Paper_Space
340
1E
  0
BLOCK_RECORD
  5
23
330
1
100
AcDbSymbolTableRecord
100
AcDbBlockTableRecord
  2
*Paper_Space0
340
26
  0
BLOCK_RECORD
  5
130
330
1
100
AcDbSymbolTableRecord
100
AcDbBlockTableRecord
  2
_D
340
0
  0
BLOCK_RECORD
  5
13A
330
1
100
AcDbSymbolTableRecord
100
AcDbBlockTableRecord
  2
_D_1
340
0
  0
BLOCK_RECORD
  5
145
330
1
100
AcDbSymbolTableRecord
100
AcDbBlockTableRecord
  2
_D_2
340
0
  0
BLOCK_RECORD
  5
14D
330
1
100
AcDbSymbolTableRecord
100
AcDbBlockTableRecord
  2
_D_3
340
0
  0
BLOCK_RECORD
  5
157
330
1
100
AcDbSymbolTableRecord
100
AcDbBlockTableRecord
  2
_D_4
340
0
  0
BLOCK_RECORD
  5
162
330
1
100
AcDbSymbolTableRecord
100
AcDbBlockTableRecord
  2
_D_5
340
0
  0
BLOCK_RECORD
  5
16E
330
1
100
AcDbSymbolTableRecord
100
AcDbBlockTableRecord
  2
_D_6
340
0
  0
BLOCK_RECORD
  5
178
330
1
100
AcDbSymbolTableRecord
100
AcDbBlockTableRecord
  2
_D_7
340
0
  0
BLOCK_RECORD
  5
184
330
1
100
AcDbSymbolTableRecord
100
AcDbBlockTableRecord
  2
_D_8
340
0
  0
BLOCK_RECORD
  5
190
330
1
100
AcDbSymbolTableRecord
100
AcDbBlockTableRecord
  2
_D_9
340
0
  0
BLOCK_RECORD
  5
19A
330
1
100
AcDbSymbolTableRecord
100
AcDbBlockTableRecord
  2
_D_10
340
0
  0
BLOCK_RECORD
  5
1A7
330
1
100
AcDbSymbolTableRecord
100
AcDbBlockTableRecord
  2
_None
340
0
  0
BLOCK_RECORD
  5
1AA
330
1
100
AcDbSymbolTableRecord
100
AcDbBlockTableRecord
  2
_D_11
340
0
  0
BLOCK_RECORD
  5
1B6
330
1
100
AcDbSymbolTableRecord
100
AcDbBlockTableRecord
  2
_D_12
340
0
  0
BLOCK_RECORD
  5
1C0
330
1
100
AcDbSymbolTableRecord
100
AcDbBlockTableRecord
  2
SW_SYMBOL_HOLE_SINK
340
0
102
{BLKREFS
331
1C5
102
}
  0
BLOCK_RECORD
  5
1C9
330
1
100
AcDbSymbolTableRecord
100
AcDbBlockTableRecord
  2
_D_13
340
0
  0
BLOCK_RECORD
  5
1D3
330
1
100
AcDbSymbolTableRecord
100
AcDbBlockTableRecord
  2
_D_14
340
0
  0
BLOCK_RECORD
  5
1DF
330
1
100
AcDbSymbolTableRecord
100
AcDbBlockTableRecord
  2
_D_15
340
0
  0
BLOCK_RECORD
  5
211
330
1
100
AcDbSymbolTableRecord
100
AcDbBlockTableRecord
  2
_D_16
340
0
  0
ENDTAB
  0
ENDSEC
  0
SECTION
  2
BLOCKS
  0
BLOCK
  5
20
330
1F
100
AcDbEntity
  8
0
100
AcDbBlockBegin
  2
*Model_Space
 70
     0
 10
0.0
 20
0.0
 30
0.0
  3
*Model_Space
  1

  0
ENDBLK
  5
21
330
1F
100
AcDbEntity
  8
0
100
AcDbBlockEnd
  0
BLOCK
  5
1C
330
1B
100
AcDbEntity
 67
     1
  8
0
100
AcDbBlockBegin
  2
*Paper_Space
 70
     0
 10
0.0
 20
0.0
 30
0.0
  3
*Paper_Space
  1

  0
ENDBLK
  5
1D
330
1B
100
AcDbEntity
 67
     1
  8
0
100
AcDbBlockEnd
  0
BLOCK
  5
24
330
23
100
AcDbEntity
  8
0
100
AcDbBlockBegin
  2
*Paper_Space0
 70
     0
 10
0.0
 20
0.0
 30
0.0
  3
*Paper_Space0
  1

  0
ENDBLK
  5
25
330
23
100
AcDbEntity
  8
0
100
AcDbBlockEnd
  0
BLOCK
  5
131
330
130
100
AcDbEntity
  8
0
100
AcDbBlockBegin
  2
_D
 70
     0
 10
0.0
 20
0.0
 30
0.0
  3
_D
  1

  0
SOLID
  5
133
330
130
100
AcDbEntity
  8
0
  6
Continuous
 62
     7
370
    18
100
AcDbTrace
 10
896.7658955663
 20
485.9801568493
 30
0.0
 11
894.9197417202
 21
473.9801568493
 31
0.0
 12
898.6120494125
 22
473.9801568493
 32
0.0
 13
898.6120494125
 23
473.9801568493
 33
0.0
  0
SOLID
  5
134
330
130
100
AcDbEntity
  8
0
  6
Continuous
 62
     7
370
    18
100
AcDbTrace
 10
896.7658955663
 20
345.9801568493
 30
0.0
 11
898.6120494125
 21
357.9801568493
 31
0.0
 12
894.9197417202
 22
357.9801568493
 32
0.0
 13
894.9197417202
 23
357.9801568493
 33
0.0
  0
LINE
  5
135
330
130
100
AcDbEntity
  8
0
  6
Continuous
 62
     7
370
     0
100
AcDbLine
 10
831.7658955663
 20
485.9801568493
 30
0.0
 11
900.7658955663
 21
485.9801568493
 31
0.0
  0
LINE
  5
136
330
130
100
AcDbEntity
  8
0
  6
Continuous
 62
     7
370
     0
100
AcDbLine
 10
831.7658955663
 20
345.9801568493
 30
0.0
 11
900.7658955663
 21
345.9801568493
 31
0.0
  0
LINE
  5
137
330
130
100
AcDbEntity
  8
0
  6
Continuous
 62
     7
370
     0
100
AcDbLine
 10
896.7658955663
 20
485.9801568493
 30
0.0
 11
896.7658955663
 21
345.9801568493
 31
0.0
  0
MTEXT
  5
138
330
130
100
AcDbEntity
  8
0
  6
Continuous
 62
     7
370
    18
100
AcDbMText
 10
882.3283368809
 20
403.5668236792
 30
0.0
 40
11.2
 41
0.0
 71
     1
 72
     1
  1
140
  7
SLDTEXTSTYLE0
 11
-7.044195017643634E-15
 21
1.0
 31
0.0
 73
     1
 44
1.0
  0
ENDBLK
  5
132
330
130
100
AcDbEntity
  8
0
100
AcDbBlockEnd
  0
BLOCK
  5
13B
330
13A
100
AcDbEntity
  8
0
100
AcDbBlockBegin
  2
_D_1
 70
     0
 10
0.0
 20
0.0
 30
0.0
  3
_D_1
  1

  0
SOLID
  5
13D
330
13A
100
AcDbEntity
  8
0
  6
Continuous
 62
     7
370
    18
100
AcDbTrace
 10
832.7658955663
 20
265.9801568493
 30
0.0
 11
820.7658955663
 21
267.8263106954
 31
0.0
 12
820.7658955663
 22
264.1340030031
 32
0.0
 13
820.7658955663
 23
264.1340030031
 33
0.0
  0
SOLID
  5
13E
330
13A
100
AcDbEntity
  8
0
  6
Continuous
 62
     7
370
    18
100
AcDbTrace
 10
452.7658955663
 20
265.9801568493
 30
0.0
 11
464.7658955663
 21
264.1340030031
 31
0.0
 12
464.7658955663
 22
267.8263106954
 32
0.0
 13
464.7658955663
 23
267.8263106954
 33
0.0
  0
LINE
  5
13F
330
13A
100
AcDbEntity
  8
0
  6
Continuous
 62
     7
370
     0
100
AcDbLine
 10
832.7658955663
 20
346.9801568493
 30
0.0
 11
832.7658955663
 21
261.9801568493
 31
0.0
  0
LINE
  5
140
330
13A
100
AcDbEntity
  8
0
  6
Continuous
 62
     7
370
     0
100
AcDbLine
 10
452.7658955663
 20
346.9801568493
 30
0.0
 11
452.7658955663
 21
261.9801568493
 31
0.0
  0
LINE
  5
141
330
13A
100
AcDbEntity
  8
0
  6
Continuous
 62
     7
370
     0
100
AcDbLine
 10
832.7658955663
 20
265.9801568493
 30
0.0
 11
452.7658955663
 21
265.9801568493
 31
0.0
  0
MTEXT
  5
142
330
13A
100
AcDbEntity
  8
0
  6
Continuous
 62
     7
370
    18
100
AcDbMText
 10
630.3525623962
 20
280.4177155347
 30
0.0
 40
11.2
 41
0.0
 71
     1
 72
     1
  1
380
  7
SLDTEXTSTYLE0
 73
     1
 44
1.0
  0
ENDBLK
  5
13C
330
13A
100
AcDbEntity
  8
0
100
AcDbBlockEnd
  0
BLOCK
  5
146
330
145
100
AcDbEntity
  8
0
100
AcDbBlockBegin
  2
_D_2
 70
     0
 10
0.0
 20
0.0
 30
0.0
  3
_D_2
  1

  0
SOLID
  5
148
330
145
100
AcDbEntity
  8
0
  6
Continuous
 62
     7
370
    18
100
AcDbTrace
 10
454.0875285454
 20
484.3668390102
 30
0.0
 11
446.5099149547
 21
493.8530424812
 31
0.0
 12
444.0089804358
 22
491.1367099119
 32
0.0
 13
444.0089804358
 23
491.1367099119
 33
0.0
  0
LINE
  5
149
330
145
100
AcDbEntity
  8
0
  6
Continuous
 62
     7
370
     0
100
AcDbLine
 10
454.0875285454
 20
484.3668390102
 30
0.0
 11
425.3469065689
 21
510.8284050231
 31
0.0
  0
LINE
  5
14A
330
145
100
AcDbEntity
  8
0
  6
Continuous
 62
     7
370
     0
100
AcDbLine
 10
454.0875285454
 20
484.3668390102
 30
0.0
 11
457.7658955663
 21
480.9801568493
 31
0.0
  0
MTEXT
  5
14B
330
145
100
AcDbEntity
  8
0
  6
Continuous
 62
     7
370
    18
100
AcDbMText
 10
434.9543589207
 20
521.2633186661
 30
0.0
 40
11.2
 41
0.0
 71
     1
 72
     1
  1
R5
  7
SLDTEXTSTYLE0
 11
0.7356734041822266
 21
-0.6773364321952084
 31
0.0
 73
     1
 44
1.0
  0
ENDBLK
  5
147
330
145
100
AcDbEntity
  8
0
100
AcDbBlockEnd
  0
BLOCK
  5
14E
330
14D
100
AcDbEntity
  8
0
100
AcDbBlockBegin
  2
_D_3
 70
     0
 10
0.0
 20
0.0
 30
0.0
  3
_D_3
  1

  0
SOLID
  5
150
330
14D
100
AcDbEntity
  8
0
  6
Continuous
 62
     7
370
    18
100
AcDbTrace
 10
452.7658955663
 20
313.9801568493
 30
0.0
 11
464.7658955663
 21
312.1340030031
 31
0.0
 12
464.7658955663
 22
315.8263106954
 32
0.0
 13
464.7658955663
 23
315.8263106954
 33
0.0
  0
SOLID
  5
151
330
14D
100
AcDbEntity
  8
0
  6
Continuous
 62
     7
370
    18
100
AcDbTrace
 10
530.2658955663
 20
313.9801568493
 30
0.0
 11
518.2658955663
 21
315.8263106954
 31
0.0
 12
518.2658955663
 22
312.1340030031
 32
0.0
 13
518.2658955663
 23
312.1340030031
 33
0.0
  0
LINE
  5
152
330
14D
100
AcDbEntity
  8
0
  6
Continuous
 62
     7
370
     0
100
AcDbLine
 10
452.7658955663
 20
346.9801568493
 30
0.0
 11
452.7658955663
 21
309.9801568493
 31
0.0
  0
LINE
  5
153
330
14D
100
AcDbEntity
  8
0
  6
Continuous
 62
     7
370
     0
100
AcDbLine
 10
530.2658955663
 20
434.4801568493
 30
0.0
 11
530.2658955663
 21
309.9801568493
 31
0.0
  0
LINE
  5
154
330
14D
100
AcDbEntity
  8
0
  6
Continuous
 62
     7
370
     0
100
AcDbLine
 10
452.7658955663
 20
313.9801568493
 30
0.0
 11
530.2658955663
 21
313.9801568493
 31
0.0
  0
MTEXT
  5
155
330
14D
100
AcDbEntity
  8
0
  6
Continuous
 62
     7
370
    18
100
AcDbMText
 10
472.8958962768
 20
328.4177155347
 30
0.0
 40
11.2
 41
0.0
 71
     1
 72
     1
  1
77,50
  7
SLDTEXTSTYLE0
 73
     1
 44
1.0
  0
ENDBLK
  5
14F
330
14D
100
AcDbEntity
  8
0
100
AcDbBlockEnd
  0
BLOCK
  5
158
330
157
100
AcDbEntity
  8
0
100
AcDbBlockBegin
  2
_D_4
 70
     0
 10
0.0
 20
0.0
 30
0.0
  3
_D_4
  1

  0
SOLID
  5
15A
330
157
100
AcDbEntity
  8
0
  6
Continuous
 62
     7
370
    18
100
AcDbTrace
 10
530.2658955663
 20
313.9801568493
 30
0.0
 11
542.2658955663
 21
312.1340030031
 31
0.0
 12
542.2658955663
 22
315.8263106954
 32
0.0
 13
542.2658955663
 23
315.8263106954
 33
0.0
  0
SOLID
  5
15B
330
157
100
AcDbEntity
  8
0
  6
Continuous
 62
     7
370
    18
100
AcDbTrace
 10
575.2658955663
 20
313.9801568493
 30
0.0
 11
563.2658955663
 21
315.8263106954
 31
0.0
 12
563.2658955663
 22
312.1340030031
 32
0.0
 13
563.2658955663
 23
312.1340030031
 33
0.0
  0
LINE
  5
15C
330
157
100
AcDbEntity
  8
0
  6
Continuous
 62
     7
370
     0
100
AcDbLine
 10
530.2658955663
 20
434.4801568493
 30
0.0
 11
530.2658955663
 21
309.9801568493
 31
0.0
  0
LINE
  5
15D
330
157
100
AcDbEntity
  8
0
  6
Continuous
 62
     7
370
     0
100
AcDbLine
 10
575.2658955663
 20
434.4801568493
 30
0.0
 11
575.2658955663
 21
309.9801568493
 31
0.0
  0
LINE
  5
15E
330
157
100
AcDbEntity
  8
0
  6
Continuous
 62
     7
370
     0
100
AcDbLine
 10
530.2658955663
 20
313.9801568493
 30
0.0
 11
575.2658955663
 21
313.9801568493
 31
0.0
  0
MTEXT
  5
15F
330
157
100
AcDbEntity
  8
0
  6
Continuous
 62
     7
370
    18
100
AcDbMText
 10
544.4903401196
 20
328.4177155347
 30
0.0
 40
11.2
 41
0.0
 71
     1
 72
     1
  1
45
  7
SLDTEXTSTYLE0
 73
     1
 44
1.0
  0
ENDBLK
  5
159
330
157
100
AcDbEntity
  8
0
100
AcDbBlockEnd
  0
BLOCK
  5
163
330
162
100
AcDbEntity
  8
0
100
AcDbBlockBegin
  2
_D_5
 70
     0
 10
0.0
 20
0.0
 30
0.0
  3
_D_5
  1

  0
SOLID
  5
165
330
162
100
AcDbEntity
  8
0
  6
Continuous
 62
     7
370
    18
100
AcDbTrace
 10
452.7658955663
 20
281.9801568493
 30
0.0
 11
440.7658955663
 21
283.8263106954
 31
0.0
 12
440.7658955663
 22
280.1340030031
 32
0.0
 13
440.7658955663
 23
280.1340030031
 33
0.0
  0
SOLID
  5
166
330
162
100
AcDbEntity
  8
0
  6
Continuous
 62
     7
370
    18
100
AcDbTrace
 10
482.7658955663
 20
281.9801568493
 30
0.0
 11
494.7658955663
 21
280.1340030031
 31
0.0
 12
494.7658955663
 22
283.8263106954
 32
0.0
 13
494.7658955663
 23
283.8263106954
 33
0.0
  0
LINE
  5
167
330
162
100
AcDbEntity
  8
0
  6
Continuous
 62
     7
370
     0
100
AcDbLine
 10
452.7658955663
 20
346.9801568493
 30
0.0
 11
452.7658955663
 21
277.9801568493
 31
0.0
  0
LINE
  5
168
330
162
100
AcDbEntity
  8
0
  6
Continuous
 62
     7
370
     0
100
AcDbLine
 10
482.7658955663
 20
451.9801568493
 30
0.0
 11
482.7658955663
 21
277.9801568493
 31
0.0
  0
LINE
  5
169
330
162
100
AcDbEntity
  8
0
  6
Continuous
 62
     7
370
     0
100
AcDbLine
 10
452.7658955663
 20
281.9801568493
 30
0.0
 11
429.6889724894
 21
281.9801568493
 31
0.0
  0
LINE
  5
16A
330
162
100
AcDbEntity
  8
0
  6
Continuous
 62
     7
370
     0
100
AcDbLine
 10
452.7658955663
 20
281.9801568493
 30
0.0
 11
482.7658955663
 21
281.9801568493
 31
0.0
  0
LINE
  5
16B
330
162
100
AcDbEntity
  8
0
  6
Continuous
 62
     7
370
     0
100
AcDbLine
 10
482.7658955663
 20
281.9801568493
 30
0.0
 11
505.8428186432
 21
281.9801568493
 31
0.0
  0
MTEXT
  5
16C
330
162
100
AcDbEntity
  8
0
  6
Continuous
 62
     7
370
    18
100
AcDbMText
 10
459.4903401196
 20
296.4177155347
 30
0.0
 40
11.2
 41
0.0
 71
     1
 72
     1
  1
30
  7
SLDTEXTSTYLE0
 73
     1
 44
1.0
  0
ENDBLK
  5
164
330
162
100
AcDbEntity
  8
0
100
AcDbBlockEnd
  0
BLOCK
  5
16F
330
16E
100
AcDbEntity
  8
0
100
AcDbBlockBegin
  2
_D_6
 70
     0
 10
0.0
 20
0.0
 30
0.0
  3
_D_6
  1

  0
SOLID
  5
171
330
16E
100
AcDbEntity
  8
0
  6
Continuous
 62
     7
370
    18
100
AcDbTrace
 10
482.7658955663
 20
281.9801568493
 30
0.0
 11
494.7658955663
 21
280.1340030031
 31
0.0
 12
494.7658955663
 22
283.8263106954
 32
0.0
 13
494.7658955663
 23
283.8263106954
 33
0.0
  0
SOLID
  5
172
330
16E
100
AcDbEntity
  8
0
  6
Continuous
 62
     7
370
    18
100
AcDbTrace
 10
802.7658955663
 20
281.9801568493
 30
0.0
 11
790.7658955663
 21
283.8263106954
 31
0.0
 12
790.7658955663
 22
280.1340030031
 32
0.0
 13
790.7658955663
 23
280.1340030031
 33
0.0
  0
LINE
  5
173
330
16E
100
AcDbEntity
  8
0
  6
Continuous
 62
     7
370
     0
100
AcDbLine
 10
482.7658955663
 20
451.9801568493
 30
0.0
 11
482.7658955663
 21
277.9801568493
 31
0.0
  0
LINE
  5
174
330
16E
100
AcDbEntity
  8
0
  6
Continuous
 62
     7
370
     0
100
AcDbLine
 10
802.7658955663
 20
451.9801568493
 30
0.0
 11
802.7658955663
 21
277.9801568493
 31
0.0
  0
LINE
  5
175
330
16E
100
AcDbEntity
  8
0
  6
Continuous
 62
     7
370
     0
100
AcDbLine
 10
482.7658955663
 20
281.9801568493
 30
0.0
 11
802.7658955663
 21
281.9801568493
 31
0.0
  0
MTEXT
  5
176
330
16E
100
AcDbEntity
  8
0
  6
Continuous
 62
     7
370
    18
100
AcDbMText
 10
630.3525623962
 20
296.4177155347
 30
0.0
 40
11.2
 41
0.0
 71
     1
 72
     1
  1
320
  7
SLDTEXTSTYLE0
 73
     1
 44
1.0
  0
ENDBLK
  5
170
330
16E
100
AcDbEntity
  8
0
100
AcDbBlockEnd
  0
BLOCK
  5
179
330
178
100
AcDbEntity
  8
0
100
AcDbBlockBegin
  2
_D_7
 70
     0
 10
0.0
 20
0.0
 30
0.0
  3
_D_7
  1

  0
SOLID
  5
17B
330
178
100
AcDbEntity
  8
0
  6
Continuous
 62
     7
370
    18
100
AcDbTrace
 10
802.7658955663
 20
281.9801568493
 30
0.0
 11
790.7658955663
 21
283.8263106954
 31
0.0
 12
790.7658955663
 22
280.1340030031
 32
0.0
 13
790.7658955663
 23
280.1340030031
 33
0.0
  0
SOLID
  5
17C
330
178
100
AcDbEntity
  8
0
  6
Continuous
 62
     7
370
    18
100
AcDbTrace
 10
832.7658955663
 20
281.9801568493
 30
0.0
 11
844.7658955663
 21
280.1340030031
 31
0.0
 12
844.7658955663
 22
283.8263106954
 32
0.0
 13
844.7658955663
 23
283.8263106954
 33
0.0
  0
LINE
  5
17D
330
178
100
AcDbEntity
  8
0
  6
Continuous
 62
     7
370
     0
100
AcDbLine
 10
802.7658955663
 20
451.9801568493
 30
0.0
 11
802.7658955663
 21
277.9801568493
 31
0.0
  0
LINE
  5
17E
330
178
100
AcDbEntity
  8
0
  6
Continuous
 62
     7
370
     0
100
AcDbLine
 10
832.7658955663
 20
346.9801568493
 30
0.0
 11
832.7658955663
 21
277.9801568493
 31
0.0
  0
LINE
  5
17F
330
178
100
AcDbEntity
  8
0
  6
Continuous
 62
     7
370
     0
100
AcDbLine
 10
802.7658955663
 20
281.9801568493
 30
0.0
 11
779.6889724894
 21
281.9801568493
 31
0.0
  0
LINE
  5
180
330
178
100
AcDbEntity
  8
0
  6
Continuous
 62
     7
370
     0
100
AcDbLine
 10
802.7658955663
 20
281.9801568493
 30
0.0
 11
832.7658955663
 21
281.9801568493
 31
0.0
  0
LINE
  5
181
330
178
100
AcDbEntity
  8
0
  6
Continuous
 62
     7
370
     0
100
AcDbLine
 10
832.7658955663
 20
281.9801568493
 30
0.0
 11
855.8428186432
 21
281.9801568493
 31
0.0
  0
MTEXT
  5
182
330
178
100
AcDbEntity
  8
0
  6
Continuous
 62
     7
370
    18
100
AcDbMText
 10
809.4903401196
 20
296.4177155347
 30
0.0
 40
11.2
 41
0.0
 71
     1
 72
     1
  1
30
  7
SLDTEXTSTYLE0
 73
     1
 44
1.0
  0
ENDBLK
  5
17A
330
178
100
AcDbEntity
  8
0
100
AcDbBlockEnd
  0
BLOCK
  5
185
330
184
100
AcDbEntity
  8
0
100
AcDbBlockBegin
  2
_D_8
 70
     0
 10
0.0
 20
0.0
 30
0.0
  3
_D_8
  1

  0
SOLID
  5
187
330
184
100
AcDbEntity
  8
0
  6
Continuous
 62
     7
370
    18
100
AcDbTrace
 10
864.7658955663
 20
345.9801568493
 30
0.0
 11
862.9197417202
 21
333.9801568493
 31
0.0
 12
866.6120494125
 22
333.9801568493
 32
0.0
 13
866.6120494125
 23
333.9801568493
 33
0.0
  0
SOLID
  5
188
330
184
100
AcDbEntity
  8
0
  6
Continuous
 62
     7
370
    18
100
AcDbTrace
 10
864.7658955663
 20
375.9801568493
 30
0.0
 11
866.6120494125
 21
387.9801568493
 31
0.0
 12
862.9197417202
 22
387.9801568493
 32
0.0
 13
862.9197417202
 23
387.9801568493
 33
0.0
  0
LINE
  5
189
330
184
100
AcDbEntity
  8
0
  6
Continuous
 62
     7
370
     0
100
AcDbLine
 10
831.7658955663
 20
345.9801568493
 30
0.0
 11
868.7658955663
 21
345.9801568493
 31
0.0
  0
LINE
  5
18A
330
184
100
AcDbEntity
  8
0
  6
Continuous
 62
     7
370
     0
100
AcDbLine
 10
486.7658955663
 20
375.9801568493
 30
0.0
 11
868.7658955663
 21
375.9801568493
 31
0.0
  0
LINE
  5
18B
330
184
100
AcDbEntity
  8
0
  6
Continuous
 62
     7
370
     0
100
AcDbLine
 10
864.7658955663
 20
345.9801568493
 30
0.0
 11
864.7658955663
 21
322.9032337723
 31
0.0
  0
LINE
  5
18C
330
184
100
AcDbEntity
  8
0
  6
Continuous
 62
     7
370
     0
100
AcDbLine
 10
864.7658955663
 20
345.9801568493
 30
0.0
 11
864.7658955663
 21
375.9801568493
 31
0.0
  0
LINE
  5
18D
330
184
100
AcDbEntity
  8
0
  6
Continuous
 62
     7
370
     0
100
AcDbLine
 10
864.7658955663
 20
375.9801568493
 30
0.0
 11
864.7658955663
 21
399.0570799262
 31
0.0
  0
MTEXT
  5
18E
330
184
100
AcDbEntity
  8
0
  6
Continuous
 62
     7
370
    18
100
AcDbMText
 10
850.3283368809
 20
352.7046014025
 30
0.0
 40
11.2
 41
0.0
 71
     1
 72
     1
  1
30
  7
SLDTEXTSTYLE0
 11
6.123233995736766E-17
 21
1.0
 31
0.0
 73
     1
 44
1.0
  0
ENDBLK
  5
186
330
184
100
AcDbEntity
  8
0
100
AcDbBlockEnd
  0
BLOCK
  5
191
330
190
100
AcDbEntity
  8
0
100
AcDbBlockBegin
  2
_D_9
 70
     0
 10
0.0
 20
0.0
 30
0.0
  3
_D_9
  1

  0
SOLID
  5
193
330
190
100
AcDbEntity
  8
0
  6
Continuous
 62
     7
370
    18
100
AcDbTrace
 10
864.7658955663
 20
375.9801568493
 30
0.0
 11
866.6120494125
 21
387.9801568493
 31
0.0
 12
862.9197417202
 22
387.9801568493
 32
0.0
 13
862.9197417202
 23
387.9801568493
 33
0.0
  0
SOLID
  5
194
330
190
100
AcDbEntity
  8
0
  6
Continuous
 62
     7
370
    18
100
AcDbTrace
 10
864.7658955663
 20
455.9801568493
 30
0.0
 11
862.9197417202
 21
443.9801568493
 31
0.0
 12
866.6120494125
 22
443.9801568493
 32
0.0
 13
866.6120494125
 23
443.9801568493
 33
0.0
  0
LINE
  5
195
330
190
100
AcDbEntity
  8
0
  6
Continuous
 62
     7
370
     0
100
AcDbLine
 10
486.7658955663
 20
375.9801568493
 30
0.0
 11
868.7658955663
 21
375.9801568493
 31
0.0
  0
LINE
  5
196
330
190
100
AcDbEntity
  8
0
  6
Continuous
 62
     7
370
     0
100
AcDbLine
 10
486.7658955663
 20
455.9801568493
 30
0.0
 11
868.7658955663
 21
455.9801568493
 31
0.0
  0
LINE
  5
197
330
190
100
AcDbEntity
  8
0
  6
Continuous
 62
     7
370
     0
100
AcDbLine
 10
864.7658955663
 20
375.9801568493
 30
0.0
 11
864.7658955663
 21
455.9801568493
 31
0.0
  0
MTEXT
  5
198
330
190
100
AcDbEntity
  8
0
  6
Continuous
 62
     7
370
    18
100
AcDbMText
 10
850.3283368809
 20
407.7046014025
 30
0.0
 40
11.2
 41
0.0
 71
     1
 72
     1
  1
80
  7
SLDTEXTSTYLE0
 11
6.123233995736766E-17
 21
1.0
 31
0.0
 73
     1
 44
1.0
  0
ENDBLK
  5
192
330
190
100
AcDbEntity
  8
0
100
AcDbBlockEnd
  0
BLOCK
  5
19B
330
19A
100
AcDbEntity
  8
0
100
AcDbBlockBegin
  2
_D_10
 70
     0
 10
0.0
 20
0.0
 30
0.0
  3
_D_10
  1

  0
SOLID
  5
19D
330
19A
100
AcDbEntity
  8
0
  6
Continuous
 62
     7
370
    18
100
AcDbTrace
 10
864.7658955663
 20
455.9801568493
 30
0.0
 11
862.9197417202
 21
443.9801568493
 31
0.0
 12
866.6120494125
 22
443.9801568493
 32
0.0
 13
866.6120494125
 23
443.9801568493
 33
0.0
  0
SOLID
  5
19E
330
19A
100
AcDbEntity
  8
0
  6
Continuous
 62
     7
370
    18
100
AcDbTrace
 10
864.7658955663
 20
485.9801568493
 30
0.0
 11
866.6120494125
 21
497.9801568493
 31
0.0
 12
862.9197417202
 22
497.9801568493
 32
0.0
 13
862.9197417202
 23
497.9801568493
 33
0.0
  0
LINE
  5
19F
330
19A
100
AcDbEntity
  8
0
  6
Continuous
 62
     7
370
     0
100
AcDbLine
 10
486.7658955663
 20
455.9801568493
 30
0.0
 11
868.7658955663
 21
455.9801568493
 31
0.0
  0
LINE
  5
1A0
330
19A
100
AcDbEntity
  8
0
  6
Continuous
 62
     7
370
     0
100
AcDbLine
 10
831.7658955663
 20
485.9801568493
 30
0.0
 11
868.7658955663
 21
485.9801568493
 31
0.0
  0
LINE
  5
1A1
330
19A
100
AcDbEntity
  8
0
  6
Continuous
 62
     7
370
     0
100
AcDbLine
 10
864.7658955663
 20
455.9801568493
 30
0.0
 11
864.7658955663
 21
432.9032337723
 31
0.0
  0
LINE
  5
1A2
330
19A
100
AcDbEntity
  8
0
  6
Continuous
 62
     7
370
     0
100
AcDbLine
 10
864.7658955663
 20
455.9801568493
 30
0.0
 11
864.7658955663
 21
485.9801568493
 31
0.0
  0
LINE
  5
1A3
330
19A
100
AcDbEntity
  8
0
  6
Continuous
 62
     7
370
     0
100
AcDbLine
 10
864.7658955663
 20
485.9801568493
 30
0.0
 11
864.7658955663
 21
509.0570799262
 31
0.0
  0
MTEXT
  5
1A4
330
19A
100
AcDbEntity
  8
0
  6
Continuous
 62
     7
370
    18
100
AcDbMText
 10
850.3283368809
 20
462.7046014025
 30
0.0
 40
11.2
 41
0.0
 71
     1
 72
     1
  1
30
  7
SLDTEXTSTYLE0
 11
6.123233995736766E-17
 21
1.0
 31
0.0
 73
     1
 44
1.0
  0
ENDBLK
  5
19C
330
19A
100
AcDbEntity
  8
0
100
AcDbBlockEnd
  0
BLOCK
  5
1A8
330
1A7
100
AcDbEntity
  8
0
100
AcDbBlockBegin
  2
_None
 70
     0
 10
0.0
 20
0.0
 30
0.0
  3
_None
  1

  0
ENDBLK
  5
1A9
330
1A7
100
AcDbEntity
  8
0
100
AcDbBlockEnd
  0
BLOCK
  5
1AB
330
1AA
100
AcDbEntity
  8
0
100
AcDbBlockBegin
  2
_D_11
 70
     0
 10
0.0
 20
0.0
 30
0.0
  3
_D_11
  1

  0
SOLID
  5
1AD
330
1AA
100
AcDbEntity
  8
0
  6
Continuous
 62
     7
370
    18
100
AcDbTrace
 10
478.4357685474
 20
378.4801568493
 30
0.0
 11
468.9665406251
 21
386.0789729793
 31
0.0
 12
467.1203867789
 22
382.8813407192
 32
0.0
 13
467.1203867789
 23
382.8813407192
 33
0.0
  0
LINE
  5
1AE
330
1AA
100
AcDbEntity
  8
0
  6
Continuous
 62
     7
370
     0
100
AcDbLine
 10
478.4357685474
 20
378.4801568493
 30
0.0
 11
436.7401198825
 21
402.55315083
 31
0.0
  0
LINE
  5
1AF
330
1AA
100
AcDbEntity
  8
0
  6
Continuous
 62
     7
370
     0
100
AcDbLine
 10
487.0960225852
 20
373.4801568493
 30
0.0
 11
478.4357685474
 21
378.4801568493
 31
0.0
  0
LINE
  5
1B0
330
1AA
100
AcDbEntity
  8
0
  6
Continuous
 62
     7
370
     0
100
AcDbLine
 10
436.7401198825
 20
402.55315083
 30
0.0
 11
293.7369200906
 21
402.55315083
 31
0.0
  0
MTEXT
  5
1B2
330
1AA
100
AcDbEntity
  8
0
  6
Continuous
 62
     7
370
    18
100
AcDbMText
 10
293.7369200906
 20
417.161821412
 30
0.0
 40
11.2
 41
0.0
 71
     1
 72
     1
  1
4 x
  7
SLDTEXTSTYLE6
 73
     1
 44
1.0
  0
MTEXT
  5
1B3
330
1AA
100
AcDbEntity
  8
0
  6
Continuous
 62
     7
370
    18
100
AcDbMText
 10
317.4591421655
 20
416.9907102139
 30
0.0
 40
11.2
 41
0.0
 71
     1
 72
     1
  1
%%c
  7
SLDTEXTSTYLE0
 73
     1
 44
1.0
  0
MTEXT
  5
1B4
330
1AA
100
AcDbEntity
  8
0
  6
Continuous
 62
     7
370
    18
100
AcDbMText
 10
338.5501429579
 20
417.161821412
 30
0.0
 40
11.2
 41
0.0
 71
     1
 72
     1
  1
10 PASSANTE
  7
SLDTEXTSTYLE0
 73
     1
 44
1.0
  0
ENDBLK
  5
1AC
330
1AA
100
AcDbEntity
  8
0
100
AcDbBlockEnd
  0
BLOCK
  5
1B7
330
1B6
100
AcDbEntity
  8
0
100
AcDbBlockBegin
  2
_D_12
 70
     0
 10
0.0
 20
0.0
 30
0.0
  3
_D_12
  1

  0
SOLID
  5
1B9
330
1B6
100
AcDbEntity
  8
0
  6
Continuous
 62
     7
370
    18
100
AcDbTrace
 10
754.1012098634
 20
442.8268230676
 30
0.0
 11
752.7786290014
 21
454.8957527586
 31
0.0
 12
749.2121336428
 22
453.9401132075
 32
0.0
 13
749.2121336428
 23
453.9401132075
 33
0.0
  0
LINE
  5
1BA
330
1B6
100
AcDbEntity
  8
0
  6
Continuous
 62
     7
370
     0
100
AcDbLine
 10
754.1012098634
 20
442.8268230676
 30
0.0
 11
737.4799503319
 21
504.8582081247
 31
0.0
  0
LINE
  5
1BB
330
1B6
100
AcDbEntity
  8
0
  6
Continuous
 62
     7
370
     0
100
AcDbLine
 10
756.4305812693
 20
434.133490631
 30
0.0
 11
754.1012098634
 21
442.8268230676
 31
0.0
  0
LINE
  5
1BC
330
1B6
100
AcDbEntity
  8
0
  6
Continuous
 62
     7
370
     0
100
AcDbLine
 10
737.4799503319
 20
504.8582081247
 30
0.0
 11
602.7351826899
 21
504.8582081247
 31
0.0
  0
MTEXT
  5
1BD
330
1B6
100
AcDbEntity
  8
0
  6
Continuous
 62
     7
370
    18
100
AcDbMText
 10
602.743743407
 20
537.4179909474
 30
0.0
 40
11.2
 41
0.0
 71
     1
 72
     1
  1
8 x
  7
SLDTEXTSTYLE6
 73
     1
 44
1.0
  0
MTEXT
  5
1BE
330
1B6
100
AcDbEntity
  8
0
  6
Continuous
 62
     7
370
    18
100
AcDbMText
 10
626.4659654819
 20
537.2468797492
 30
0.0
 40
11.2
 41
0.0
 71
     1
 72
     1
  1
%%c
  7
SLDTEXTSTYLE0
 73
     1
 44
1.0
  0
MTEXT
  5
1BF
330
1B6
100
AcDbEntity
  8
0
  6
Continuous
 62
     7
370
    18
100
AcDbMText
 10
647.5569662742
 20
537.4179909474
 30
0.0
 40
11.2
 41
0.0
 71
     1
 72
     1
  1
9 PASSANTE
  7
SLDTEXTSTYLE0
 73
     1
 44
1.0
  0
INSERT
  5
1C5
330
1B6
100
AcDbEntity
  8
0
  6
Continuous
 62
     7
370
    18
100
AcDbBlockReference
  2
SW_SYMBOL_HOLE_SINK
 10
602.7351826899
 20
506.4113338232
 30
0.0
 41
0.0035765625
 42
0.0035765625
 43
0.0035765625
  0
MTEXT
  5
1C6
330
1B6
100
AcDbEntity
  8
0
  6
Continuous
 62
     7
370
    18
100
AcDbMText
 10
632.9611823432
 20
519.2957675087
 30
0.0
 40
11.2
 41
0.0
 71
     1
 72
     1
  1
%%c
  7
SLDTEXTSTYLE0
 73
     1
 44
1.0
  0
MTEXT
  5
1C7
330
1B6
100
AcDbEntity
  8
0
  6
Continuous
 62
     7
370
    18
100
AcDbMText
 10
654.0521849983
 20
519.4668787068
 30
0.0
 40
11.2
 41
0.0
 71
     1
 72
     1
  1
18,25 X 90°
  7
SLDTEXTSTYLE0
 73
     1
 44
1.0
  0
ENDBLK
  5
1B8
330
1B6
100
AcDbEntity
  8
0
100
AcDbBlockEnd
  0
BLOCK
  5
1C1
330
1C0
100
AcDbEntity
  8
0
100
AcDbBlockBegin
  2
SW_SYMBOL_HOLE_SINK
 70
     0
 10
0.0
 20
0.0
 30
0.0
  3
SW_SYMBOL_HOLE_SINK
  1

  0
LINE
  5
1C3
330
1C0
100
AcDbEntity
  8
0
  6
Continuous
 62
     0
370
    18
100
AcDbLine
 10
0.0
 20
3500.0
 30
0.0
 11
3200.0
 21
300.0
 31
0.0
  0
LINE
  5
1C4
330
1C0
100
AcDbEntity
  8
0
  6
Continuous
 62
     0
370
    18
100
AcDbLine
 10
3200.0
 20
300.0
 30
0.0
 11
6400.0
 21
3500.0
 31
0.0
  0
ENDBLK
  5
1C2
330
1C0
100
AcDbEntity
  8
0
100
AcDbBlockEnd
  0
BLOCK
  5
1CA
330
1C9
100
AcDbEntity
  8
0
100
AcDbBlockBegin
  2
_D_13
 70
     0
 10
0.0
 20
0.0
 30
0.0
  3
_D_13
  1

  0
SOLID
  5
1CC
330
1C9
100
AcDbEntity
  8
0
  6
Continuous
 62
     7
370
    18
100
AcDbTrace
 10
575.2658955663
 20
313.9801568493
 30
0.0
 11
587.2658955663
 21
312.1340030031
 31
0.0
 12
587.2658955663
 22
315.8263106954
 32
0.0
 13
587.2658955663
 23
315.8263106954
 33
0.0
  0
SOLID
  5
1CD
330
1C9
100
AcDbEntity
  8
0
  6
Continuous
 62
     7
370
    18
100
AcDbTrace
 10
710.2658955663
 20
313.9801568493
 30
0.0
 11
698.2658955663
 21
315.8263106954
 31
0.0
 12
698.2658955663
 22
312.1340030031
 32
0.0
 13
698.2658955663
 23
312.1340030031
 33
0.0
  0
LINE
  5
1CE
330
1C9
100
AcDbEntity
  8
0
  6
Continuous
 62
     7
370
     0
100
AcDbLine
 10
575.2658955663
 20
434.4801568493
 30
0.0
 11
575.2658955663
 21
309.9801568493
 31
0.0
  0
LINE
  5
1CF
330
1C9
100
AcDbEntity
  8
0
  6
Continuous
 62
     7
370
     0
100
AcDbLine
 10
710.2658955663
 20
434.4801568493
 30
0.0
 11
710.2658955663
 21
309.9801568493
 31
0.0
  0
LINE
  5
1D0
330
1C9
100
AcDbEntity
  8
0
  6
Continuous
 62
     7
370
     0
100
AcDbLine
 10
575.2658955663
 20
313.9801568493
 30
0.0
 11
710.2658955663
 21
313.9801568493
 31
0.0
  0
MTEXT
  5
1D1
330
1C9
100
AcDbEntity
  8
0
  6
Continuous
 62
     7
370
    18
100
AcDbMText
 10
630.3525623962
 20
328.4177155347
 30
0.0
 40
11.2
 41
0.0
 71
     1
 72
     1
  1
135
  7
SLDTEXTSTYLE0
 73
     1
 44
1.0
  0
ENDBLK
  5
1CB
330
1C9
100
AcDbEntity
  8
0
100
AcDbBlockEnd
  0
BLOCK
  5
1D4
330
1D3
100
AcDbEntity
  8
0
100
AcDbBlockBegin
  2
_D_14
 70
     0
 10
0.0
 20
0.0
 30
0.0
  3
_D_14
  1

  0
SOLID
  5
1D6
330
1D3
100
AcDbEntity
  8
0
  6
Continuous
 62
     7
370
    18
100
AcDbTrace
 10
710.2658955663
 20
313.9801568493
 30
0.0
 11
698.2658955663
 21
315.8263106954
 31
0.0
 12
698.2658955663
 22
312.1340030031
 32
0.0
 13
698.2658955663
 23
312.1340030031
 33
0.0
  0
SOLID
  5
1D7
330
1D3
100
AcDbEntity
  8
0
  6
Continuous
 62
     7
370
    18
100
AcDbTrace
 10
755.2658955663
 20
313.9801568493
 30
0.0
 11
767.2658955663
 21
312.1340030031
 31
0.0
 12
767.2658955663
 22
315.8263106954
 32
0.0
 13
767.2658955663
 23
315.8263106954
 33
0.0
  0
LINE
  5
1D8
330
1D3
100
AcDbEntity
  8
0
  6
Continuous
 62
     7
370
     0
100
AcDbLine
 10
710.2658955663
 20
434.4801568493
 30
0.0
 11
710.2658955663
 21
309.9801568493
 31
0.0
  0
LINE
  5
1D9
330
1D3
100
AcDbEntity
  8
0
  6
Continuous
 62
     7
370
     0
100
AcDbLine
 10
755.2658955663
 20
434.4801568493
 30
0.0
 11
755.2658955663
 21
309.9801568493
 31
0.0
  0
LINE
  5
1DA
330
1D3
100
AcDbEntity
  8
0
  6
Continuous
 62
     7
370
     0
100
AcDbLine
 10
710.2658955663
 20
313.9801568493
 30
0.0
 11
687.1889724894
 21
313.9801568493
 31
0.0
  0
LINE
  5
1DB
330
1D3
100
AcDbEntity
  8
0
  6
Continuous
 62
     7
370
     0
100
AcDbLine
 10
710.2658955663
 20
313.9801568493
 30
0.0
 11
755.2658955663
 21
313.9801568493
 31
0.0
  0
LINE
  5
1DC
330
1D3
100
AcDbEntity
  8
0
  6
Continuous
 62
     7
370
     0
100
AcDbLine
 10
755.2658955663
 20
313.9801568493
 30
0.0
 11
778.3428186432
 21
313.9801568493
 31
0.0
  0
MTEXT
  5
1DD
330
1D3
100
AcDbEntity
  8
0
  6
Continuous
 62
     7
370
    18
100
AcDbMText
 10
724.4903401196
 20
328.4177155347
 30
0.0
 40
11.2
 41
0.0
 71
     1
 72
     1
  1
45
  7
SLDTEXTSTYLE0
 73
     1
 44
1.0
  0
ENDBLK
  5
1D5
330
1D3
100
AcDbEntity
  8
0
100
AcDbBlockEnd
  0
BLOCK
  5
1E0
330
1DF
100
AcDbEntity
  8
0
100
AcDbBlockBegin
  2
_D_15
 70
     0
 10
0.0
 20
0.0
 30
0.0
  3
_D_15
  1

  0
SOLID
  5
1E2
330
1DF
100
AcDbEntity
  8
0
  6
Continuous
 62
     7
370
    18
100
AcDbTrace
 10
755.2658955663
 20
313.9801568493
 30
0.0
 11
767.2658955663
 21
312.1340030031
 31
0.0
 12
767.2658955663
 22
315.8263106954
 32
0.0
 13
767.2658955663
 23
315.8263106954
 33
0.0
  0
SOLID
  5
1E3
330
1DF
100
AcDbEntity
  8
0
  6
Continuous
 62
     7
370
    18
100
AcDbTrace
 10
832.7658955663
 20
313.9801568493
 30
0.0
 11
820.7658955663
 21
315.8263106954
 31
0.0
 12
820.7658955663
 22
312.1340030031
 32
0.0
 13
820.7658955663
 23
312.1340030031
 33
0.0
  0
LINE
  5
1E4
330
1DF
100
AcDbEntity
  8
0
  6
Continuous
 62
     7
370
     0
100
AcDbLine
 10
755.2658955663
 20
434.4801568493
 30
0.0
 11
755.2658955663
 21
309.9801568493
 31
0.0
  0
LINE
  5
1E5
330
1DF
100
AcDbEntity
  8
0
  6
Continuous
 62
     7
370
     0
100
AcDbLine
 10
832.7658955663
 20
346.9801568493
 30
0.0
 11
832.7658955663
 21
309.9801568493
 31
0.0
  0
LINE
  5
1E6
330
1DF
100
AcDbEntity
  8
0
  6
Continuous
 62
     7
370
     0
100
AcDbLine
 10
755.2658955663
 20
313.9801568493
 30
0.0
 11
832.7658955663
 21
313.9801568493
 31
0.0
  0
MTEXT
  5
1E7
330
1DF
100
AcDbEntity
  8
0
  6
Continuous
 62
     7
370
    18
100
AcDbMText
 10
775.3958962768
 20
328.4177155347
 30
0.0
 40
11.2
 41
0.0
 71
     1
 72
     1
  1
77,50
  7
SLDTEXTSTYLE0
 73
     1
 44
1.0
  0
ENDBLK
  5
1E1
330
1DF
100
AcDbEntity
  8
0
100
AcDbBlockEnd
  0
BLOCK
  5
212
330
211
100
AcDbEntity
  8
0
100
AcDbBlockBegin
  2
_D_16
 70
     0
 10
0.0
 20
0.0
 30
0.0
  3
_D_16
  1

  0
SOLID
  5
214
330
211
100
AcDbEntity
  8
0
  6
Continuous
 62
     7
370
    18
100
AcDbTrace
 10
864.7658955663
 20
610.8964533905
 30
0.0
 11
866.6120494125
 21
622.8964533905
 31
0.0
 12
862.9197417202
 22
622.8964533905
 32
0.0
 13
862.9197417202
 23
622.8964533905
 33
0.0
  0
SOLID
  5
215
330
211
100
AcDbEntity
  8
0
  6
Continuous
 62
     7
370
    18
100
AcDbTrace
 10
864.7658955663
 20
600.8964533905
 30
0.0
 11
862.9197417202
 21
588.8964533905
 31
0.0
 12
866.6120494125
 22
588.8964533905
 32
0.0
 13
866.6120494125
 23
588.8964533905
 33
0.0
  0
LINE
  5
216
330
211
100
AcDbEntity
  8
0
  6
Continuous
 62
     7
370
     0
100
AcDbLine
 10
836.7658955663
 20
610.8964533905
 30
0.0
 11
868.7658955663
 21
610.8964533905
 31
0.0
  0
LINE
  5
217
330
211
100
AcDbEntity
  8
0
  6
Continuous
 62
     7
370
     0
100
AcDbLine
 10
836.7658955663
 20
600.8964533905
 30
0.0
 11
868.7658955663
 21
600.8964533905
 31
0.0
  0
LINE
  5
218
330
211
100
AcDbEntity
  8
0
  6
Continuous
 62
     7
370
     0
100
AcDbLine
 10
864.7658955663
 20
610.8964533905
 30
0.0
 11
864.7658955663
 21
633.9733764674
 31
0.0
  0
LINE
  5
219
330
211
100
AcDbEntity
  8
0
  6
Continuous
 62
     7
370
     0
100
AcDbLine
 10
864.7658955663
 20
610.8964533905
 30
0.0
 11
864.7658955663
 21
600.8964533905
 31
0.0
  0
LINE
  5
21A
330
211
100
AcDbEntity
  8
0
  6
Continuous
 62
     7
370
     0
100
AcDbLine
 10
864.7658955663
 20
600.8964533905
 30
0.0
 11
864.7658955663
 21
557.130642628
 31
0.0
  0
MTEXT
  5
21B
330
211
100
AcDbEntity
  8
0
  6
Continuous
 62
     7
370
    18
100
AcDbMText
 10
850.3283368809
 20
557.130642628
 30
0.0
 40
11.2
 41
0.0
 71
     1
 72
     1
  1
10
  7
SLDTEXTSTYLE0
 11
-7.044195017643634E-15
 21
1.0
 31
0.0
 73
     1
 44
1.0
  0
ENDBLK
  5
213
330
211
100
AcDbEntity
  8
0
100
AcDbBlockEnd
  0
ENDSEC
  0
SECTION
  2
ENTITIES
  0
LINE
  5
65
330
1F
100
AcDbEntity
  8
0
  6
Continuous
 62
     7
370
    18
100
AcDbLine
 10
38.0288565525
 20
810.3930622957
 30
0.0
 11
1170.0288565525
 21
810.3930622957
 31
0.0
  0
LINE
  5
66
330
1F
100
AcDbEntity
  8
0
  6
Continuous
 62
     7
370
    18
100
AcDbLine
 10
38.0288565525
 20
26.3930622957
 30
0.0
 11
1170.0288565525
 21
26.3930622957
 31
0.0
  0
LINE
  5
67
330
1F
100
AcDbEntity
  8
0
  6
Continuous
 62
     7
370
    18
100
AcDbLine
 10
38.0288565525
 20
26.3930622957
 30
0.0
 11
38.0288565525
 21
790.3930622957
 31
0.0
  0
LINE
  5
68
330
1F
100
AcDbEntity
  8
0
  6
Continuous
 62
     7
370
    18
100
AcDbLine
 10
38.0288565525
 20
790.3930622957
 30
0.0
 11
1170.0288565525
 21
790.3930622957
 31
0.0
  0
LINE
  5
69
330
1F
100
AcDbEntity
  8
0
  6
Continuous
 62
     7
370
    18
100
AcDbLine
 10
1170.0288565525
 20
26.3930622957
 30
0.0
 11
1170.0288565525
 21
790.3930622957
 31
0.0
  0
LINE
  5
6A
330
1F
100
AcDbEntity
  8
0
  6
Continuous
 62
     7
370
    18
100
AcDbLine
 10
18.0288565525
 20
26.3930622957
 30
0.0
 11
18.0288565525
 21
790.3930622957
 31
0.0
  0
LINE
  5
6B
330
1F
100
AcDbEntity
  8
0
  6
Continuous
 62
     7
370
    18
100
AcDbLine
 10
1170.0288565525
 20
810.3930622957
 30
0.0
 11
1170.0288565525
 21
790.3930622957
 31
0.0
  0
LINE
  5
6C
330
1F
100
AcDbEntity
  8
0
  6
Continuous
 62
     7
370
    18
100
AcDbLine
 10
18.0288565525
 20
790.3930622957
 30
0.0
 11
38.0288565525
 21
790.3930622957
 31
0.0
  0
LINE
  5
6D
330
1F
100
AcDbEntity
  8
0
  6
Continuous
 62
     7
370
    18
100
AcDbLine
 10
18.0288565525
 20
790.3930622957
 30
0.0
 11
18.0288565525
 21
810.3930622957
 31
0.0
  0
LINE
  5
6E
330
1F
100
AcDbEntity
  8
0
  6
Continuous
 62
     7
370
    18
100
AcDbLine
 10
18.0288565525
 20
810.3930622957
 30
0.0
 11
38.0288565525
 21
810.3930622957
 31
0.0
  0
LINE
  5
6F
330
1F
100
AcDbEntity
  8
0
  6
Continuous
 62
     7
370
    18
100
AcDbLine
 10
38.0288565525
 20
790.3930622957
 30
0.0
 11
38.0288565525
 21
810.3930622957
 31
0.0
  0
LINE
  5
70
330
1F
100
AcDbEntity
  8
0
  6
Continuous
 62
     7
370
    18
100
AcDbLine
 10
18.0288565525
 20
26.3930622957
 30
0.0
 11
38.0288565525
 21
26.3930622957
 31
0.0
  0
LINE
  5
71
330
1F
100
AcDbEntity
  8
0
  6
Continuous
 62
     7
370
    18
100
AcDbLine
 10
604.0288565525
 20
810.3930622957
 30
0.0
 11
604.0288565525
 21
790.3930622957
 31
0.0
  0
LINE
  5
72
330
1F
100
AcDbEntity
  8
0
  6
Continuous
 62
     7
370
    18
100
AcDbLine
 10
38.0288565525
 20
408.3930622957
 30
0.0
 11
18.0288565525
 21
408.3930622957
 31
0.0
  0
LINE
  5
73
330
1F
100
AcDbEntity
  8
0
  6
Continuous
 62
     7
370
    18
100
AcDbLine
 10
38.0288565525
 20
608.3930622957
 30
0.0
 11
18.0288565525
 21
608.3930622957
 31
0.0
  0
LINE
  5
74
330
1F
100
AcDbEntity
  8
0
  6
Continuous
 62
     7
370
    18
100
AcDbLine
 10
38.0288565525
 20
208.3930622957
 30
0.0
 11
18.0288565525
 21
208.3930622957
 31
0.0
  0
LINE
  5
75
330
1F
100
AcDbEntity
  8
0
  6
Continuous
 62
     7
370
    18
100
AcDbLine
 10
404.0288565525
 20
810.3930622957
 30
0.0
 11
404.0288565525
 21
790.3930622957
 31
0.0
  0
LINE
  5
76
330
1F
100
AcDbEntity
  8
0
  6
Continuous
 62
     7
370
    18
100
AcDbLine
 10
804.0288565525
 20
810.3930622957
 30
0.0
 11
804.0288565525
 21
790.3930622957
 31
0.0
  0
LINE
  5
77
330
1F
100
AcDbEntity
  8
0
  6
Continuous
 62
     7
370
    18
100
AcDbLine
 10
204.0288565525
 20
810.3930622957
 30
0.0
 11
204.0288565525
 21
790.3930622957
 31
0.0
  0
LINE
  5
78
330
1F
100
AcDbEntity
  8
0
  6
Continuous
 62
     7
370
    18
100
AcDbLine
 10
1004.0288565525
 20
810.3930622957
 30
0.0
 11
1004.0288565525
 21
790.3930622957
 31
0.0
  0
LINE
  5
79
330
1F
100
AcDbEntity
  8
0
  6
Continuous
 62
     7
370
    18
100
AcDbLine
 10
1101.9859120242
 20
40.4030866469
 30
0.0
 11
1169.9859120242
 21
40.4030866469
 31
0.0
  0
LINE
  5
7A
330
1F
100
AcDbEntity
  8
0
  6
Continuous
 62
     7
370
    18
100
AcDbLine
 10
1101.9859120242
 20
64.4030866469
 30
0.0
 11
1169.9859120242
 21
64.4030866469
 31
0.0
  0
LINE
  5
7B
330
1F
100
AcDbEntity
  8
0
  6
Continuous
 62
     7
370
    18
100
AcDbLine
 10
1101.9859120242
 20
78.4030866469
 30
0.0
 11
1169.9859120242
 21
78.4030866469
 31
0.0
  0
LINE
  5
7C
330
1F
100
AcDbEntity
  8
0
  6
Continuous
 62
     7
370
    18
100
AcDbLine
 10
1101.9859120242
 20
78.4030866469
 30
0.0
 11
1101.9859120242
 21
26.4030866469
 31
0.0
  0
LINE
  5
7D
330
1F
100
AcDbEntity
  8
0
  6
Continuous
 62
     7
370
    18
100
AcDbLine
 10
421.2277210251
 20
26.3930622957
 30
0.0
 11
1170.0288565525
 21
26.3930622957
 31
0.0
  0
LINE
  5
7E
330
1F
100
AcDbEntity
  8
0
  6
Continuous
 62
     7
370
    18
100
AcDbLine
 10
421.1859120242
 20
26.4030866469
 30
0.0
 11
1169.9859120242
 21
26.4030866469
 31
0.0
  0
LINE
  5
7F
330
1F
100
AcDbEntity
  8
0
  6
Continuous
 62
     7
370
    18
100
AcDbLine
 10
421.1847764968
 20
26.4030866469
 30
0.0
 11
1169.9859120242
 21
26.4030866469
 31
0.0
  0
LINE
  5
80
330
1F
100
AcDbEntity
  8
0
  6
Continuous
 62
     7
370
    18
100
AcDbLine
 10
1169.9859120242
 20
203.2030866469
 30
0.0
 11
1169.9859120242
 21
26.4030866469
 31
0.0
  0
LINE
  5
81
330
1F
100
AcDbEntity
  8
0
  6
Continuous
 62
     7
370
    18
100
AcDbLine
 10
1101.9847764968
 20
139.199433529
 30
0.0
 11
1101.9847764968
 21
26.4030866469
 31
0.0
  0
LINE
  5
82
330
1F
100
AcDbEntity
  8
0
  6
Continuous
 62
     7
370
    18
100
AcDbLine
 10
1170.0288565525
 20
203.1930622957
 30
0.0
 11
1170.0288565525
 21
26.3930622957
 31
0.0
  0
LINE
  5
83
330
1F
100
AcDbEntity
  8
0
  6
Continuous
 62
     7
370
    18
100
AcDbLine
 10
1101.9847764968
 20
78.4030866469
 30
0.0
 11
1169.9859120242
 21
78.4030866469
 31
0.0
  0
LINE
  5
84
330
1F
100
AcDbEntity
  8
0
  6
Continuous
 62
     7
370
    18
100
AcDbLine
 10
421.1847764968
 20
203.2030866469
 30
0.0
 11
421.1847764968
 21
26.4030866469
 31
0.0
  0
LINE
  5
85
330
1F
100
AcDbEntity
  8
0
  6
Continuous
 62
     7
370
    18
100
AcDbLine
 10
521.4508788462
 20
139.199433529
 30
0.0
 11
521.4508788462
 21
115.2030866469
 31
0.0
  0
LINE
  5
86
330
1F
100
AcDbEntity
  8
0
  6
Continuous
 62
     7
370
    18
100
AcDbLine
 10
421.1847764968
 20
115.2030866469
 30
0.0
 11
659.1847764968
 21
115.2030866469
 31
0.0
  0
LINE
  5
87
330
1F
100
AcDbEntity
  8
0
  6
Continuous
 62
     7
370
    18
100
AcDbLine
 10
421.1847764968
 20
50.4030866469
 30
0.0
 11
659.4467593272
 21
50.4030866469
 31
0.0
  0
LINE
  5
88
330
1F
100
AcDbEntity
  8
0
  6
Continuous
 62
     7
370
    18
100
AcDbLine
 10
659.1847764968
 20
115.2030866469
 30
0.0
 11
659.1847764968
 21
26.4030866469
 31
0.0
  0
LINE
  5
89
330
1F
100
AcDbEntity
  8
0
  6
CENTERX2
 62
     7
370
    18
100
AcDbLine
 10
1108.3875256644
 20
97.4304737789
 30
0.0
 11
1162.3781332152
 21
97.4304737789
 31
0.0
  0
LINE
  5
8A
330
1F
100
AcDbEntity
  8
0
  6
CENTERX2
 62
     7
370
    18
100
AcDbLine
 10
1149.9598752879
 20
110.4385240773
 30
0.0
 11
1149.9598752879
 21
84.0589877231
 31
0.0
  0
LINE
  5
8B
330
1F
100
AcDbEntity
  8
0
  6
Continuous
 62
     7
370
    18
100
AcDbLine
 10
659.1847764968
 20
115.2030866469
 30
0.0
 11
1101.9847764968
 21
115.2030866469
 31
0.0
  0
LINE
  5
8C
330
1F
100
AcDbEntity
  8
TESTO
100
AcDbLine
 10
500.9840255362
 20
86.5029895596
 30
0.0
 11
484.1938632253
 21
73.6044697129
 31
0.0
  0
LINE
  5
8D
330
1F
100
AcDbEntity
  8
0
  6
Continuous
 62
     7
370
    18
100
AcDbLine
 10
659.1847764968
 20
58.4030866469
 30
0.0
 11
1101.9847764968
 21
58.4030866469
 31
0.0
  0
LINE
  5
8E
330
1F
100
AcDbEntity
  8
TESTO
100
AcDbLine
 10
468.994402849
 20
85.7116917838
 30
0.0
 11
473.8798796468
 21
81.8882751594
 31
0.0
  0
LINE
  5
8F
330
1F
100
AcDbEntity
  8
0
  6
Continuous
 62
     7
370
    18
100
AcDbLine
 10
996.5083062491
 20
115.2030866469
 30
0.0
 11
996.5083062491
 21
96.2697533135
 31
0.0
  0
LINE
  5
90
330
1F
100
AcDbEntity
  8
0
  6
Continuous
 62
     7
370
    18
100
AcDbLine
 10
996.5083062491
 20
96.2697533135
 30
0.0
 11
996.5083062491
 21
77.3364199802
 31
0.0
  0
LINE
  5
91
330
1F
100
AcDbEntity
  8
0
  6
Continuous
 62
     7
370
    18
100
AcDbLine
 10
1114.8685784712
 20
102.3160401727
 30
0.0
 11
1114.8685784712
 21
92.3160401727
 31
0.0
  0
LINE
  5
92
330
1F
100
AcDbEntity
  8
0
  6
Continuous
 62
     7
370
    18
100
AcDbLine
 10
1131.885007786
 20
105.3160401727
 30
0.0
 11
1131.8035894639
 21
89.3160401727
 31
0.0
  0
LINE
  5
93
330
1F
100
AcDbEntity
  8
0
  6
Continuous
 62
     7
370
    18
100
AcDbLine
 10
1131.885007786
 20
105.3160401727
 30
0.0
 11
1114.8685784712
 21
102.3160401727
 31
0.0
  0
LINE
  5
94
330
1F
100
AcDbEntity
  8
0
  6
Continuous
 62
     7
370
    18
100
AcDbLine
 10
1131.8035894639
 20
89.3160401727
 30
0.0
 11
1114.8685784712
 21
92.3160401727
 31
0.0
  0
LINE
  5
95
330
1F
100
AcDbEntity
  8
0
  6
Continuous
 62
     7
370
    18
100
AcDbLine
 10
996.5083062491
 20
77.3364199802
 30
0.0
 11
996.5083062491
 21
58.4030866469
 31
0.0
  0
LINE
  5
96
330
1F
100
AcDbEntity
  8
0
  6
Continuous
 62
     7
370
    18
100
AcDbLine
 10
996.5083062491
 20
96.2697533135
 30
0.0
 11
1101.9847764968
 21
96.2697533135
 31
0.0
  0
LINE
  5
97
330
1F
100
AcDbEntity
  8
0
  6
Continuous
 62
     7
370
    18
100
AcDbLine
 10
996.5083062491
 20
77.3364199802
 30
0.0
 11
1101.9847764968
 21
77.3364199802
 31
0.0
  0
LINE
  5
98
330
1F
100
AcDbEntity
  8
0
  6
Continuous
 62
     7
370
    18
100
AcDbLine
 10
1043.2098859096
 20
58.4030866469
 30
0.0
 11
1043.2098859096
 21
26.4030866469
 31
0.0
  0
LINE
  5
99
330
1F
100
AcDbEntity
  8
0
  6
Continuous
 62
     7
370
    18
100
AcDbLine
 10
815.2684579439
 20
58.4030866469
 30
0.0
 11
815.2684579439
 21
26.4030866469
 31
0.0
  0
LINE
  5
9A
330
1F
100
AcDbEntity
  8
0
  6
Continuous
 62
     7
370
    18
100
AcDbLine
 10
815.2684579439
 20
42.4030866469
 30
0.0
 11
659.1847764968
 21
42.4030866469
 31
0.0
  0
LINE
  5
9B
330
1F
100
AcDbEntity
  8
0
  6
Continuous
 62
     7
370
    18
100
AcDbLine
 10
661.1847764968
 20
203.2030866469
 30
0.0
 11
661.1847764968
 21
171.2030866469
 31
0.0
  0
LINE
  5
9C
330
1F
100
AcDbEntity
  8
0
  6
Continuous
 62
     7
370
    18
100
AcDbLine
 10
421.1847764968
 20
139.199433529
 30
0.0
 11
1169.9859120242
 21
139.199433529
 31
0.0
  0
LINE
  5
9D
330
1F
100
AcDbEntity
  8
TESTO
100
AcDbLine
 10
437.7909128012
 20
109.6351189401
 30
0.0
 11
526.0751622042
 21
109.6351189401
 31
0.0
  0
LINE
  5
9E
330
1F
100
AcDbEntity
  8
TESTO
100
AcDbLine
 10
437.7909128012
 20
109.6351189401
 30
0.0
 11
446.0964575346
 21
103.2546425874
 31
0.0
  0
LINE
  5
9F
330
1F
100
AcDbEntity
  8
0
  6
Continuous
 62
     7
370
    18
100
AcDbLine
 10
642.2408807957
 20
139.199433529
 30
0.0
 11
642.2408807957
 21
115.2030866469
 31
0.0
  0
LINE
  5
A0
330
1F
100
AcDbEntity
  8
0
  6
Continuous
 62
     7
370
    18
100
AcDbLine
 10
901.2505509314
 20
139.199433529
 30
0.0
 11
901.2505509314
 21
115.2030866469
 31
0.0
  0
LINE
  5
A1
330
1F
100
AcDbEntity
  8
0
  6
Continuous
 62
     7
370
    18
100
AcDbLine
 10
1008.4311078872
 20
139.199433529
 30
0.0
 11
1008.4311078872
 21
115.2030866469
 31
0.0
  0
LINE
  5
A2
330
1F
100
AcDbEntity
  8
0
  6
Continuous
 62
     7
370
    18
100
AcDbLine
 10
421.1847764968
 20
171.2030866469
 30
0.0
 11
1169.9859120242
 21
171.2030866469
 31
0.0
  0
LINE
  5
A3
330
1F
100
AcDbEntity
  8
TESTO
100
AcDbLine
 10
526.0751622042
 20
109.6351189401
 30
0.0
 11
517.6967345354
 21
103.1986525397
 31
0.0
  0
LINE
  5
A4
330
1F
100
AcDbEntity
  8
TESTO
100
AcDbLine
 10
458.7089806128
 20
93.5654641133
 30
0.0
 11
465.9372102131
 21
88.0126015959
 31
0.0
  0
LINE
  5
A5
330
1F
100
AcDbEntity
  8
0
  6
Continuous
 62
     7
370
    18
100
AcDbLine
 10
421.1847764968
 20
203.2030866469
 30
0.0
 11
1169.9859120242
 21
203.2030866469
 31
0.0
  0
LINE
  5
A6
330
1F
100
AcDbEntity
  8
0
  6
Continuous
 62
     7
370
    18
100
AcDbLine
 10
785.1847764968
 20
203.2030866469
 30
0.0
 11
785.1847764968
 21
171.2030866469
 31
0.0
  0
LINE
  5
A7
330
1F
100
AcDbEntity
  8
0
  6
Continuous
 62
     7
370
    18
100
AcDbLine
 10
901.1847764968
 20
171.2030866469
 30
0.0
 11
901.1847764968
 21
139.199433529
 31
0.0
  0
LINE
  5
A8
330
1F
100
AcDbEntity
  8
0
  6
Continuous
 62
     7
370
    18
100
AcDbLine
 10
901.1847764968
 20
171.2030866469
 30
0.0
 11
901.1847764968
 21
203.2030866469
 31
0.0
  0
LINE
  5
A9
330
1F
100
AcDbEntity
  8
0
  6
Continuous
 62
     7
370
    18
100
AcDbLine
 10
901.1847764968
 20
155.2030866469
 30
0.0
 11
1169.9859120242
 21
155.2030866469
 31
0.0
  0
LINE
  5
AA
330
1F
100
AcDbEntity
  8
0
  6
Continuous
 62
     7
370
    18
100
AcDbLine
 10
766.1612256257
 20
139.199433529
 30
0.0
 11
766.1612256257
 21
115.2030866469
 31
0.0
  0
LINE
  5
AB
330
1F
100
AcDbEntity
  8
0
  6
Continuous
 62
     7
370
    18
100
AcDbLine
 10
1170.0288565525
 20
790.3930622957
 30
0.0
 11
421.2288565525
 21
790.3930622957
 31
0.0
  0
LINE
  5
AC
330
1F
100
AcDbEntity
  8
0
  6
Continuous
 62
     7
370
    18
100
AcDbLine
 10
485.2288565525
 20
770.3930622957
 30
0.0
 11
485.2288565525
 21
790.3930622957
 31
0.0
  0
LINE
  5
AD
330
1F
100
AcDbEntity
  8
0
  6
Continuous
 62
     7
370
    18
100
AcDbLine
 10
421.2288565525
 20
770.3930622957
 30
0.0
 11
1170.0288565525
 21
770.3930622957
 31
0.0
  0
LINE
  5
AE
330
1F
100
AcDbEntity
  8
0
  6
Continuous
 62
     7
370
    18
100
AcDbLine
 10
421.2288565525
 20
790.3930622957
 30
0.0
 11
1170.0288565525
 21
790.3930622957
 31
0.0
  0
LINE
  5
AF
330
1F
100
AcDbEntity
  8
0
  6
Continuous
 62
     7
370
    18
100
AcDbLine
 10
1170.0288565525
 20
770.3930622957
 30
0.0
 11
1170.0288565525
 21
790.3930622957
 31
0.0
  0
LINE
  5
B0
330
1F
100
AcDbEntity
  8
0
  6
Continuous
 62
     7
370
    18
100
AcDbLine
 10
421.2288565525
 20
770.3930622957
 30
0.0
 11
421.2288565525
 21
790.3930622957
 31
0.0
  0
LINE
  5
B1
330
1F
100
AcDbEntity
  8
0
  6
Continuous
 62
     7
370
    18
100
AcDbLine
 10
421.2288565525
 20
790.3930622957
 30
0.0
 11
1170.0288565525
 21
790.3930622957
 31
0.0
  0
LINE
  5
B2
330
1F
100
AcDbEntity
  8
0
  6
Continuous
 62
     7
370
    18
100
AcDbLine
 10
1170.0288565525
 20
770.3930622957
 30
0.0
 11
1170.0288565525
 21
790.3930622957
 31
0.0
  0
LINE
  5
B3
330
1F
100
AcDbEntity
  8
0
  6
Continuous
 62
     7
370
    18
100
AcDbLine
 10
1106.0288565525
 20
770.3930622957
 30
0.0
 11
1106.0288565525
 21
790.3930622957
 31
0.0
  0
LINE
  5
B4
330
1F
100
AcDbEntity
  8
0
  6
Continuous
 62
     7
370
    18
100
AcDbLine
 10
987.6765062878
 20
770.3930622957
 30
0.0
 11
987.6765062878
 21
790.3930622957
 31
0.0
  0
LINE
  5
B5
330
1F
100
AcDbEntity
  8
0
  6
Continuous
 62
     7
370
    18
100
AcDbLine
 10
421.2288565525
 20
750.3930622957
 30
0.0
 11
1170.0288565525
 21
750.3930622957
 31
0.0
  0
LINE
  5
B6
330
1F
100
AcDbEntity
  8
0
  6
Continuous
 62
     7
370
    18
100
AcDbLine
 10
421.2288565525
 20
730.3930622957
 30
0.0
 11
1170.0288565525
 21
730.3930622957
 31
0.0
  0
LINE
  5
B7
330
1F
100
AcDbEntity
  8
0
  6
Continuous
 62
     7
370
    18
100
AcDbLine
 10
421.2288565525
 20
710.3930622957
 30
0.0
 11
1170.0288565525
 21
710.3930622957
 31
0.0
  0
LINE
  5
B8
330
1F
100
AcDbEntity
  8
0
  6
Continuous
 62
     7
370
    18
100
AcDbLine
 10
421.2288565525
 20
770.3930622957
 30
0.0
 11
421.2288565525
 21
710.3930622957
 31
0.0
  0
LINE
  5
B9
330
1F
100
AcDbEntity
  8
0
  6
Continuous
 62
     7
370
    18
100
AcDbLine
 10
1170.0288565525
 20
770.3930622957
 30
0.0
 11
1170.0288565525
 21
710.3930622957
 31
0.0
  0
LINE
  5
BA
330
1F
100
AcDbEntity
  8
0
  6
Continuous
 62
     7
370
    18
100
AcDbLine
 10
485.2288565525
 20
770.3930622957
 30
0.0
 11
485.2288565525
 21
710.3930622957
 31
0.0
  0
LINE
  5
BB
330
1F
100
AcDbEntity
  8
0
  6
Continuous
 62
     7
370
    18
100
AcDbLine
 10
987.6765062878
 20
770.3930622957
 30
0.0
 11
987.6765062878
 21
710.3930622957
 31
0.0
  0
LINE
  5
BC
330
1F
100
AcDbEntity
  8
0
  6
Continuous
 62
     7
370
    18
100
AcDbLine
 10
1106.0288565525
 20
770.3930622957
 30
0.0
 11
1106.0288565525
 21
710.3930622957
 31
0.0
  0
LINE
  5
BD
330
1F
100
AcDbEntity
  8
0
  6
Continuous
 62
     7
370
    18
100
AcDbLine
 10
1170.0288565525
 20
770.3930622957
 30
0.0
 11
1170.0288565525
 21
710.3930622957
 31
0.0
  0
LINE
  5
BE
330
1F
100
AcDbEntity
  8
0
  6
Continuous
 62
     7
370
    18
100
AcDbLine
 10
659.1847764968
 20
70.8030866469
 30
0.0
 11
996.5083062491
 21
70.8030866469
 31
0.0
  0
LINE
  5
BF
330
1F
100
AcDbEntity
  8
0
  6
Continuous
 62
     7
370
    18
100
AcDbLine
 10
901.2505509314
 20
70.8030866469
 30
0.0
 11
901.2505509314
 21
58.4030866469
 31
0.0
  0
CIRCLE
  5
C0
330
1F
100
AcDbEntity
  8
0
  6
Continuous
 62
     7
370
    18
100
AcDbCircle
 10
1149.9598752879
 20
97.4304737789
 30
0.0
 40
5.000000000000228
  0
CIRCLE
  5
C1
330
1F
100
AcDbEntity
  8
0
  6
Continuous
 62
     7
370
    18
100
AcDbCircle
 10
1149.9598752879
 20
97.4304737789
 30
0.0
 40
7.999999999999976
  0
MTEXT
  5
C3
330
1F
100
AcDbEntity
  8
0
  6
Continuous
 62
     7
370
     0
100
AcDbMText
 10
1124.8593097906
 20
59.5754276143
 30
0.0
 40
11.6416666667
 41
0.0
 71
     1
 72
     1
  1
A4
  7
SLDTEXTSTYLE0
 73
     1
 44
1.0
  0
MTEXT
  5
C4
330
1F
100
AcDbEntity
  8
0
  6
Continuous
 62
     7
370
     0
100
AcDbMText
 10
113.0250432952
 20
805.2052316419
 30
0.0
 40
9.525
 41
0.0
 71
     1
 72
     1
  1
1
  7
SLDTEXTSTYLE0
 73
     1
 44
1.0
  0
MTEXT
  5
C5
330
1F
100
AcDbEntity
  8
0
  6
Continuous
 62
     7
370
     0
100
AcDbMText
 10
300.4105537092
 20
805.2052316419
 30
0.0
 40
9.525
 41
0.0
 71
     1
 72
     1
  1
2
  7
SLDTEXTSTYLE0
 73
     1
 44
1.0
  0
MTEXT
  5
C6
330
1F
100
AcDbEntity
  8
0
  6
Continuous
 62
     7
370
     0
100
AcDbMText
 10
501.7362253604
 20
805.2052316419
 30
0.0
 40
9.525
 41
0.0
 71
     1
 72
     1
  1
3
  7
SLDTEXTSTYLE0
 73
     1
 44
1.0
  0
MTEXT
  5
C7
330
1F
100
AcDbEntity
  8
0
  6
Continuous
 62
     7
370
     0
100
AcDbMText
 10
699.1753487221
 20
805.2052316419
 30
0.0
 40
9.525
 41
0.0
 71
     1
 72
     1
  1
4
  7
SLDTEXTSTYLE0
 73
     1
 44
1.0
  0
MTEXT
  5
C8
330
1F
100
AcDbEntity
  8
0
  6
Continuous
 62
     7
370
     0
100
AcDbMText
 10
902.5084928249
 20
805.2052316419
 30
0.0
 40
9.525
 41
0.0
 71
     1
 72
     1
  1
5
  7
SLDTEXTSTYLE0
 73
     1
 44
1.0
  0
MTEXT
  5
C9
330
1F
100
AcDbEntity
  8
0
  6
Continuous
 62
     7
370
     0
100
AcDbMText
 10
1083.3435676982
 20
805.2052316419
 30
0.0
 40
9.525
 41
0.0
 71
     1
 72
     1
  1
6
  7
SLDTEXTSTYLE0
 73
     1
 44
1.0
  0
MTEXT
  5
CA
330
1F
100
AcDbEntity
  8
0
  6
Continuous
 62
     7
370
     0
100
AcDbMText
 10
24.1930668715
 20
710.5621446686
 30
0.0
 40
9.525
 41
0.0
 71
     1
 72
     1
  1
A
  7
SLDTEXTSTYLE0
 73
     1
 44
1.0
  0
MTEXT
  5
CB
330
1F
100
AcDbEntity
  8
0
  6
Continuous
 62
     7
370
     0
100
AcDbMText
 10
25.2514004249
 20
513.7823004455
 30
0.0
 40
9.525
 41
0.0
 71
     1
 72
     1
  1
B
  7
SLDTEXTSTYLE0
 73
     1
 44
1.0
  0
MTEXT
  5
CC
330
1F
100
AcDbEntity
  8
0
  6
Continuous
 62
     7
370
     0
100
AcDbMText
 10
23.7344561618
 20
315.117397212
 30
0.0
 40
9.525
 41
0.0
 71
     1
 72
     1
  1
C
  7
SLDTEXTSTYLE0
 73
     1
 44
1.0
  0
MTEXT
  5
CD
330
1F
100
AcDbEntity
  8
0
  6
Continuous
 62
     7
370
     0
100
AcDbMText
 10
23.7344561618
 20
124.2874838648
 30
0.0
 40
9.525
 41
0.0
 71
     1
 72
     1
  1
D
  7
SLDTEXTSTYLE0
 73
     1
 44
1.0
  0
MTEXT
  5
CE
330
1F
100
AcDbEntity
  8
0
  6
Continuous
 62
     7
370
     0
100
AcDbMText
 10
1108.1922271787
 20
763.3661308535
 30
0.0
 40
8.4666666667
 41
0.0
 71
     1
 72
     1
  1
09/01/2024
  7
SLDTEXTSTYLE0
 73
     1
 44
1.0
  0
MTEXT
  5
CF
330
1F
100
AcDbEntity
  8
0
  6
Continuous
 62
     7
370
     0
100
AcDbMText
 10
991.67527983
 20
763.3661308535
 30
0.0
 40
8.4666666667
 41
0.0
 71
     1
 72
     1
  1
Simone.Malighetti
  7
SLDTEXTSTYLE0
 73
     1
 44
1.0
  0
MTEXT
  5
D0
330
1F
100
AcDbEntity
  8
0
  6
Continuous
 62
     7
370
     0
100
AcDbMText
 10
447.1785606096
 20
765.4714165024
 30
0.0
 40
10.5833333333
 41
0.0
 71
     1
 72
     1
  1
00
  7
SLDTEXTSTYLE0
 73
     1
 44
1.0
  0
MTEXT
  5
D1
330
1F
100
AcDbEntity
  8
0
  6
Continuous
 62
     7
370
     0
100
AcDbMText
 10
492.3547922229
 20
765.4714165024
 30
0.0
 40
10.5833333333
 41
0.0
 71
     1
 72
     1
  1
EMISSIONE
  7
SLDTEXTSTYLE0
 73
     1
 44
1.0
  0
MTEXT
  5
D3
330
1F
100
AcDbEntity
  8
0
  6
Continuous
 62
     7
370
     0
100
AcDbMText
 10
428.3468599123
 20
784.9082803458
 30
0.0
 40
8.4666666667
 41
0.0
 71
     1
 72
     1
  1
Revisione
  7
SLDTEXTSTYLE1
 73
     1
 44
1.0
  0
MTEXT
  5
D4
330
1F
100
AcDbEntity
  8
0
  6
Continuous
 62
     7
370
     0
100
AcDbMText
 10
492.3547922229
 20
784.8350096344
 30
0.0
 40
8.4666666667
 41
0.0
 71
     1
 72
     1
  1
Descrizione revisione
  7
SLDTEXTSTYLE1
 73
     1
 44
1.0
  0
MTEXT
  5
D5
330
1F
100
AcDbEntity
  8
0
  6
Continuous
 62
     7
370
     0
100
AcDbMText
 10
1014.3257650426
 20
784.8350096344
 30
0.0
 40
8.4666666667
 41
0.0
 71
     1
 72
     1
  1
Disegnatore
  7
SLDTEXTSTYLE1
 73
     1
 44
1.0
  0
MTEXT
  5
D6
330
1F
100
AcDbEntity
  8
0
  6
Continuous
 62
     7
370
     0
100
AcDbMText
 10
1113.2001838002
 20
784.8350096344
 30
0.0
 40
8.4666666667
 41
0.0
 71
     1
 72
     1
  1
Data
  7
SLDTEXTSTYLE1
 73
     1
 44
1.0
  0
MTEXT
  5
D7
330
1F
100
AcDbEntity
  8
0
  6
Continuous
 62
     7
370
     0
100
AcDbMText
 10
1093.0485136098
 20
75.219724779
 30
0.0
 40
9.525
 41
0.0
 71
     3
 72
     1
  1
10
  7
SLDTEXTSTYLE0
 73
     1
 44
1.0
  0
MTEXT
  5
D8
330
1F
100
AcDbEntity
  8
0
  6
Continuous
 62
     7
370
     0
100
AcDbMText
 10
1092.9716520904
 20
111.7324112515
 30
0.0
 40
9.525
 41
0.0
 71
     3
 72
     1
  1
380
  7
SLDTEXTSTYLE0
 73
     1
 44
1.0
  0
MTEXT
  5
D9
330
1F
100
AcDbEntity
  8
0
  6
Continuous
 62
     7
370
     0
100
AcDbMText
 10
1093.8070834254
 20
93.7294994048
 30
0.0
 40
9.525
 41
0.0
 71
     3
 72
     1
  1
140
  7
SLDTEXTSTYLE0
 73
     1
 44
1.0
  0
MTEXT
  5
DA
330
1F
100
AcDbEntity
  8
0
  6
Continuous
 62
     7
370
     0
100
AcDbMText
 10
724.2161475437
 20
129.3451198104
 30
0.0
 40
10.5833333333
 41
0.0
 71
     1
 72
     1
  1
IT10
  7
SLDTEXTSTYLE0
 73
     1
 44
1.0
  0
MTEXT
  5
DB
330
1F
100
AcDbEntity
  8
0
  6
Continuous
 62
     7
370
     0
100
AcDbMText
 10
651.4635162988
 20
136.7479615603
 30
0.0
 40
5.2916666667
 41
0.0
 71
     1
 72
     1
  1
Grado Tolleranza
  7
SLDTEXTSTYLE0
 73
     1
 44
1.0
  0
MTEXT
  5
DC
330
1F
100
AcDbEntity
  8
0
  6
Continuous
 62
     7
370
     0
100
AcDbMText
 10
779.8230590319
 20
193.6143885448
 30
0.0
 40
10.5833333333
 41
0.0
 71
     3
 72
     1
  1
4.06
  7
SLDTEXTSTYLE0
 73
     1
 44
1.0
  0
MTEXT
  5
DD
330
1F
100
AcDbEntity
  8
0
  6
Continuous
 62
     7
370
     0
100
AcDbMText
 10
994.8574464652
 20
69.0843887894
 30
0.0
 40
7.4083333333
 41
0.0
 71
     3
 72
     1
  1
00
  7
SLDTEXTSTYLE0
 73
     1
 44
1.0
  0
MTEXT
  5
DE
330
1F
100
AcDbEntity
  8
0
  6
Continuous
 62
     7
370
     0
100
AcDbMText
 10
466.5626959109
 20
193.6143885448
 30
0.0
 40
10.5833333333
 41
0.0
 71
     1
 72
     1
  1
1.0037 (S235JR)
  7
SLDTEXTSTYLE0
 73
     1
 44
1.0
  0
MTEXT
  5
DF
330
1F
100
AcDbEntity
  8
0
  6
Continuous
 62
     7
370
     0
100
AcDbMText
 10
711.3298001058
 20
38.8175624736
 30
0.0
 40
7.4083333333
 41
0.0
 71
     1
 72
     1
  1
09/01/2024
  7
SLDTEXTSTYLE0
 73
     1
 44
1.0
  0
MTEXT
  5
E0
330
1F
100
AcDbEntity
  8
0
  6
Continuous
 62
     7
370
     0
100
AcDbMText
 10
711.3298001058
 20
54.8923990479
 30
0.0
 40
7.4083333333
 41
0.0
 71
     1
 72
     1
  1
Simone.Malighetti
  7
SLDTEXTSTYLE0
 73
     1
 44
1.0
  0
MTEXT
  5
E1
330
1F
100
AcDbEntity
  8
0
  6
Continuous
 62
     7
370
     0
100
AcDbMText
 10
670.8277295967
 20
99.0491666153
 30
0.0
 40
8.4666666667
 41
0.0
 71
     1
 72
     1
  1
Piastra sup.colonna sostegno
  7
SLDTEXTSTYLE0
 73
     1
 44
1.0
  0
MTEXT
  5
E2
330
1F
100
AcDbEntity
  8
0
  6
Continuous
 62
     7
370
     0
100
AcDbMText
 10
700.0720839645
 20
69.0843887894
 30
0.0
 40
7.4083333333
 41
0.0
 71
     1
 72
     1
  1
12000101
  7
SLDTEXTSTYLE0
 73
     1
 44
1.0
  0
MTEXT
  5
E4
330
1F
100
AcDbEntity
  8
TESTO
100
AcDbMText
 10
506.7491199163
 20
107.8238295448
 30
0.0
 40
19.2
 41
0.0
 71
     1
 72
     1
  1
A
  7
SLDTEXTSTYLE2
 73
     1
 44
1.0
  0
MTEXT
  5
E6
330
1F
100
AcDbEntity
  8
FORMAT
100
AcDbMText
 10
540.0915013929
 20
84.9066769897
 30
0.0
 40
5.4
 41
0.0
 71
     1
 72
     1
  1
Tel. 0341/632080
  7
SLDTEXTSTYLE3
 73
     1
 44
1.0
  0
MTEXT
  5
E7
330
1F
100
AcDbEntity
  8
FORMAT
100
AcDbMText
 10
540.61012754
 20
60.5717858518
 30
0.0
 40
5.4
 41
0.0
 71
     1
 72
     1
  1
E-mail: info@decasrl.biz
  7
SLDTEXTSTYLE3
 73
     1
 44
1.0
  0
MTEXT
  5
E8
330
1F
100
AcDbEntity
  8
FORMAT
100
AcDbMText
 10
440.5269092413
 20
71.7638061512
 30
0.0
 40
5.4
 41
0.0
 71
     1
 72
     1
  1
VIBROALIMENTATORI
  7
SLDTEXTSTYLE3
 73
     1
 44
1.0
  0
MTEXT
  5
E9
330
1F
100
AcDbEntity
  8
FORMAT
100
AcDbMText
 10
459.2885014528
 20
62.7954595604
 30
0.0
 40
5.4
 41
0.0
 71
     1
 72
     1
  1
ELEVATORI
  7
SLDTEXTSTYLE3
 73
     1
 44
1.0
  0
MTEXT
  5
EA
330
1F
100
AcDbEntity
  8
FORMAT
100
AcDbMText
 10
539.2878888129
 20
100.639250736
 30
0.0
 40
5.4
 41
0.0
 71
     1
 72
     1
  1
23804 Monte Marenzo (Lc)
  7
SLDTEXTSTYLE3
 73
     1
 44
1.0
  0
MTEXT
  5
EB
330
1F
100
AcDbEntity
  8
FORMAT
100
AcDbMText
 10
539.2878888129
 20
110.8782962708
 30
0.0
 40
5.4
 41
0.0
 71
     1
 72
     1
  1
Via Della Fontana,6
  7
SLDTEXTSTYLE3
 73
     1
 44
1.0
  0
MTEXT
  5
EC
330
1F
100
AcDbEntity
  8
TESTO
100
AcDbMText
 10
487.1583178721
 20
108.383828221
 30
0.0
 40
19.2
 41
0.0
 71
     1
 72
     1
  1
C
  7
SLDTEXTSTYLE2
 73
     1
 44
1.0
  0
MTEXT
  5
ED
330
1F
100
AcDbEntity
  8
TESTO
100
AcDbMText
 10
466.5626959109
 20
107.3990054755
 30
0.0
 40
19.2
 41
0.0
 71
     1
 72
     1
  1
E
  7
SLDTEXTSTYLE2
 73
     1
 44
1.0
  0
MTEXT
  5
EE
330
1F
100
AcDbEntity
  8
TESTO
100
AcDbMText
 10
474.7060742693
 20
84.4542685348
 30
0.0
 40
8.0
 41
0.0
 71
     1
 72
     1
  1
s.r.l.
  7
SLDTEXTSTYLE2
 73
     1
 44
1.0
  0
MTEXT
  5
EF
330
1F
100
AcDbEntity
  8
TESTO
100
AcDbMText
 10
446.9561627138
 20
107.8238295448
 30
0.0
 40
19.2
 41
0.0
 71
     1
 72
     1
  1
D
  7
SLDTEXTSTYLE2
 73
     1
 44
1.0
  0
MTEXT
  5
F0
330
1F
100
AcDbEntity
  8
0
  6
Continuous
 62
     7
370
     0
100
AcDbMText
 10
423.3511042438
 20
45.3040774023
 30
0.0
 40
4.2333333333
 41
0.0
 71
     1
 72
     1
  1
Deca S.r.l. si riserva tutti i diritti sul presente documento e con quanto rappresentato.
  7
SLDTEXTSTYLE0
 73
     1
 44
1.0
  0
MTEXT
  5
F1
330
1F
100
AcDbEntity
  8
0
  6
Continuous
 62
     7
370
     0
100
AcDbMText
 10
423.3511042438
 20
35.6596333017
 30
0.0
 40
4.2333333333
 41
0.0
 71
     1
 72
     1
  1
E' vietato riprodurlo, utilizzarlo e renderlo accessibile a terzi senza autorizzazione scritta
  7
SLDTEXTSTYLE0
 73
     1
 44
1.0
  0
MTEXT
  5
F2
330
1F
100
AcDbEntity
  8
0
  6
Continuous
 62
     7
370
     0
100
AcDbMText
 10
1048.5850570354
 20
54.6733857667
 30
0.0
 40
5.2916666667
 41
0.0
 71
     1
 72
     1
  1
Revisione
  7
SLDTEXTSTYLE0
 73
     1
 44
1.0
  0
MTEXT
  5
F3
330
1F
100
AcDbEntity
  8
0
  6
Continuous
 62
     7
370
     0
100
AcDbMText
 10
666.5472055702
 20
66.9791025584
 30
0.0
 40
5.2916666667
 41
0.0
 71
     1
 72
     1
  1
Disegno
  7
SLDTEXTSTYLE0
 73
     1
 44
1.0
  0
MTEXT
  5
F4
330
1F
100
AcDbEntity
  8
0
  6
Continuous
 62
     7
370
     0
100
AcDbMText
 10
1000.2541918712
 20
107.5218389059
 30
0.0
 40
5.2916666667
 41
0.0
 71
     1
 72
     1
  1
Lunghezza:
  7
SLDTEXTSTYLE0
 73
     1
 44
1.0
  0
MTEXT
  5
F5
330
1F
100
AcDbEntity
  8
0
  6
Continuous
 62
     7
370
     0
100
AcDbMText
 10
1000.3179116471
 20
89.5189270593
 30
0.0
 40
5.2916666667
 41
0.0
 71
     1
 72
     1
  1
Larghezza:
  7
SLDTEXTSTYLE0
 73
     1
 44
1.0
  0
MTEXT
  5
F6
330
1F
100
AcDbEntity
  8
0
  6
Continuous
 62
     7
370
     0
100
AcDbMText
 10
1000.3179116471
 20
71.0091524334
 30
0.0
 40
5.2916666667
 41
0.0
 71
     1
 72
     1
  1
Sp./Ø:
  7
SLDTEXTSTYLE0
 73
     1
 44
1.0
  0
MTEXT
  5
F7
330
1F
100
AcDbEntity
  8
0
  6
Continuous
 62
     7
370
     0
100
AcDbMText
 10
666.5472055702
 20
52.7871128169
 30
0.0
 40
5.2916666667
 41
0.0
 71
     1
 72
     1
  1
Disegnatore
  7
SLDTEXTSTYLE0
 73
     1
 44
1.0
  0
MTEXT
  5
F8
330
1F
100
AcDbEntity
  8
0
  6
Continuous
 62
     7
370
     0
100
AcDbMText
 10
666.5472055702
 20
36.7122762426
 30
0.0
 40
5.2916666667
 41
0.0
 71
     1
 72
     1
  1
Data
  7
SLDTEXTSTYLE0
 73
     1
 44
1.0
  0
MTEXT
  5
F9
330
1F
100
AcDbEntity
  8
0
  6
Continuous
 62
     7
370
     0
100
AcDbMText
 10
666.5472055702
 20
107.5218389059
 30
0.0
 40
5.2916666667
 41
0.0
 71
     1
 72
     1
  1
Descrizione
  7
SLDTEXTSTYLE0
 73
     1
 44
1.0
  0
MTEXT
  5
FA
330
1F
100
AcDbEntity
  8
0
  6
Continuous
 62
     7
370
     0
100
AcDbMText
 10
1119.870696477
 20
132.8935953432
 30
0.0
 40
5.2916666667
 41
0.0
 71
     1
 72
     1
  1
Sistema E
  7
SLDTEXTSTYLE0
 73
     1
 44
1.0
  0
MTEXT
  5
FC
330
1F
100
AcDbEntity
  8
0
  6
Continuous
 62
     7
370
     0
100
AcDbMText
 10
1119.870696477
 20
121.8380401485
 30
0.0
 40
5.2916666667
 41
0.0
 71
     1
 72
     1
  1
UNI  3970
  7
SLDTEXTSTYLE4
 73
     1
 44
1.0
  0
MTEXT
  5
FD
330
1F
100
AcDbEntity
  8
0
  6
Continuous
 62
     7
370
     0
100
AcDbMText
 10
424.966160326
 20
136.7479615603
 30
0.0
 40
5.2916666667
 41
0.0
 71
     1
 72
     1
  1
Tolleranze generali lineari
  7
SLDTEXTSTYLE0
 73
     1
 44
1.0
  0
MTEXT
  5
FE
330
1F
100
AcDbEntity
  8
0
  6
Continuous
 62
     7
370
     0
100
AcDbMText
 10
771.1466786311
 20
136.7479615603
 30
0.0
 40
5.2916666667
 41
0.0
 71
     1
 72
     1
  1
Tolleranze angolari
  7
SLDTEXTSTYLE0
 73
     1
 44
1.0
  0
MTEXT
  5
FF
330
1F
100
AcDbEntity
  8
0
  6
Continuous
 62
     7
370
     0
100
AcDbMText
 10
920.7190989869
 20
136.7479615603
 30
0.0
 40
5.2916666667
 41
0.0
 71
     1
 72
     1
  1
Smussi non quotati
  7
SLDTEXTSTYLE0
 73
     1
 44
1.0
  0
MTEXT
  5
100
330
1F
100
AcDbEntity
  8
0
  6
Continuous
 62
     7
370
     0
100
AcDbMText
 10
1022.9696752163
 20
136.7479615603
 30
0.0
 40
5.2916666667
 41
0.0
 71
     1
 72
     1
  1
Raggi non quotati
  7
SLDTEXTSTYLE0
 73
     1
 44
1.0
  0
MTEXT
  5
101
330
1F
100
AcDbEntity
  8
0
  6
Continuous
 62
     7
370
     0
100
AcDbMText
 10
528.4237795518
 20
136.7479615603
 30
0.0
 40
5.2916666667
 41
0.0
 71
     1
 72
     1
  1
Tolleranze generali geometriche
  7
SLDTEXTSTYLE0
 73
     1
 44
1.0
  0
MTEXT
  5
103
330
1F
100
AcDbEntity
  8
0
  6
Continuous
 62
     7
370
     0
100
AcDbMText
 10
549.6824796426
 20
126.1871906385
 30
0.0
 40
7.4083333333
 41
0.0
 71
     1
 72
     1
  1
UNI EN 2768 H
  7
SLDTEXTSTYLE5
 73
     1
 44
1.0
  0
MTEXT
  5
104
330
1F
100
AcDbEntity
  8
0
  6
Continuous
 62
     7
370
     0
100
AcDbMText
 10
427.8894561508
 20
126.1871906385
 30
0.0
 40
7.4083333333
 41
0.0
 71
     1
 72
     1
  1
ISO 286-1 ISO 8015
  7
SLDTEXTSTYLE0
 73
     1
 44
1.0
  0
MTEXT
  5
105
330
1F
100
AcDbEntity
  8
0
  6
Continuous
 62
     7
370
     0
100
AcDbMText
 10
425.9144092308
 20
168.1614746116
 30
0.0
 40
5.2916666667
 41
0.0
 71
     1
 72
     1
  1
Note
  7
SLDTEXTSTYLE0
 73
     1
 44
1.0
  0
MTEXT
  5
106
330
1F
100
AcDbEntity
  8
0
  6
Continuous
 62
     7
370
     0
100
AcDbMText
 10
425.9144092308
 20
198.2940517998
 30
0.0
 40
5.2916666667
 41
0.0
 71
     1
 72
     1
  1
Materiale
  7
SLDTEXTSTYLE0
 73
     1
 44
1.0
  0
MTEXT
  5
107
330
1F
100
AcDbEntity
  8
0
  6
Continuous
 62
     7
370
     0
100
AcDbMText
 10
664.6627879521
 20
198.2940517998
 30
0.0
 40
5.2916666667
 41
0.0
 71
     1
 72
     1
  1
Peso Kg
  7
SLDTEXTSTYLE0
 73
     1
 44
1.0
  0
MTEXT
  5
108
330
1F
100
AcDbEntity
  8
0
  6
Continuous
 62
     7
370
     0
100
AcDbMText
 10
905.1847764968
 20
198.2940517998
 30
0.0
 40
5.2916666667
 41
0.0
 71
     1
 72
     1
  1
Trattamento
  7
SLDTEXTSTYLE0
 73
     1
 44
1.0
  0
MTEXT
  5
109
330
1F
100
AcDbEntity
  8
0
  6
Continuous
 62
     7
370
     0
100
AcDbMText
 10
905.1490510715
 20
164.649492879
 30
0.0
 40
5.2916666667
 41
0.0
 71
     1
 72
     1
  1
Durezza
  7
SLDTEXTSTYLE0
 73
     1
 44
1.0
  0
MTEXT
  5
10A
330
1F
100
AcDbEntity
  8
0
  6
Continuous
 62
     7
370
     0
100
AcDbMText
 10
905.1490510715
 20
147.6381450404
 30
0.0
 40
5.2916666667
 41
0.0
 71
     1
 72
     1
  1
Profondità
  7
SLDTEXTSTYLE0
 73
     1
 44
1.0
  0
MTEXT
  5
10B
330
1F
100
AcDbEntity
  8
0
  6
Continuous
 62
     7
370
     0
100
AcDbMText
 10
789.4466791643
 20
198.2940517998
 30
0.0
 40
5.2916666667
 41
0.0
 71
     1
 72
     1
  1
Grado di finitura
  7
SLDTEXTSTYLE0
 73
     1
 44
1.0
  0
MTEXT
  5
10C
330
1F
100
AcDbEntity
  8
0
  6
Continuous
 62
     7
370
     0
100
AcDbMText
 10
1116.5874324249
 20
74.8819618058
 30
0.0
 40
6.0
 41
0.0
 71
     1
 72
     1
  1
SCALA:1:4
  7
SLDTEXTSTYLE0
 73
     1
 44
1.0
  0
MTEXT
  5
10D
330
1F
100
AcDbEntity
  8
0
  6
Continuous
 62
     7
370
     0
100
AcDbMText
 10
1108.8786448607
 20
36.3410137545
 30
0.0
 40
6.0
 41
0.0
 71
     1
 72
     1
  1
FOGLIO 1 DI 1
  7
SLDTEXTSTYLE5
 73
     1
 44
1.0
  0
MTEXT
  5
10E
330
1F
100
AcDbEntity
  8
0
  6
Continuous
 62
     7
370
     0
100
AcDbMText
 10
823.1878872494
 20
52.7871128169
 30
0.0
 40
5.2916666667
 41
0.0
 71
     1
 72
     1
  1
Codice
  7
SLDTEXTSTYLE0
 73
     1
 44
1.0
  0
MTEXT
  5
10F
330
1F
100
AcDbEntity
  8
0
  6
Continuous
 62
     7
370
     0
100
AcDbMText
 10
905.1490510715
 20
66.9791025584
 30
0.0
 40
5.2916666667
 41
0.0
 71
     1
 72
     1
  1
Revisione disegno
  7
SLDTEXTSTYLE0
 73
     1
 44
1.0
  0
MTEXT
  5
110
330
1F
100
AcDbEntity
  8
0
  6
Continuous
 62
     7
370
     0
100
AcDbMText
 10
853.1369880007
 20
41.9754914126
 30
0.0
 40
10.5833333333
 41
0.0
 71
     1
 72
     1
  1
12A401102
  7
SLDTEXTSTYLE0
 73
     1
 44
1.0
  0
MTEXT
  5
111
330
1F
100
AcDbEntity
  8
0
  6
Continuous
 62
     7
370
     0
100
AcDbMText
 10
1095.0461646193
 20
41.9754914126
 30
0.0
 40
10.5833333333
 41
0.0
 71
     3
 72
     1
  1
00
  7
SLDTEXTSTYLE0
 73
     1
 44
1.0
  0
ARC
  5
112
330
1F
100
AcDbEntity
  8
0
  6
Continuous
 62
     7
370
    25
100
AcDbCircle
 10
827.7658955663
 20
480.9801568493
 30
0.0
 40
5.0
100
AcDbArc
 50
0.0
 51
90.0
  0
LINE
  5
113
330
1F
100
AcDbEntity
  8
0
  6
Continuous
 62
     7
370
    25
100
AcDbLine
 10
832.7658955663
 20
350.9801568493
 30
0.0
 11
832.7658955663
 21
480.9801568493
 31
0.0
  0
ARC
  5
114
330
1F
100
AcDbEntity
  8
0
  6
Continuous
 62
     7
370
    25
100
AcDbCircle
 10
827.7658955663
 20
350.9801568493
 30
0.0
 40
5.0
100
AcDbArc
 50
270.0
 51
0.0
  0
LINE
  5
115
330
1F
100
AcDbEntity
  8
0
  6
Continuous
 62
     7
370
    25
100
AcDbLine
 10
457.7658955663
 20
345.9801568493
 30
0.0
 11
827.7658955663
 21
345.9801568493
 31
0.0
  0
ARC
  5
116
330
1F
100
AcDbEntity
  8
0
  6
Continuous
 62
     7
370
    25
100
AcDbCircle
 10
457.7658955663
 20
350.9801568493
 30
0.0
 40
5.0
100
AcDbArc
 50
180.0
 51
270.0
  0
LINE
  5
117
330
1F
100
AcDbEntity
  8
0
  6
Continuous
 62
     7
370
    25
100
AcDbLine
 10
452.7658955663
 20
480.9801568493
 30
0.0
 11
452.7658955663
 21
350.9801568493
 31
0.0
  0
ARC
  5
118
330
1F
100
AcDbEntity
  8
0
  6
Continuous
 62
     7
370
    25
100
AcDbCircle
 10
457.7658955663
 20
480.9801568493
 30
0.0
 40
5.0
100
AcDbArc
 50
90.0
 51
180.0
  0
LINE
  5
119
330
1F
100
AcDbEntity
  8
0
  6
Continuous
 62
     7
370
    25
100
AcDbLine
 10
827.7658955663
 20
485.9801568493
 30
0.0
 11
457.7658955663
 21
485.9801568493
 31
0.0
  0
CIRCLE
  5
11A
330
1F
100
AcDbEntity
  8
0
  6
Continuous
 62
     7
370
    25
100
AcDbCircle
 10
710.2658955663
 20
438.4801568493
 30
0.0
 40
9.124999999999943
  0
CIRCLE
  5
11B
330
1F
100
AcDbEntity
  8
0
  6
Continuous
 62
     7
370
    25
100
AcDbCircle
 10
755.2658955663
 20
438.4801568493
 30
0.0
 40
9.125
  0
CIRCLE
  5
11C
330
1F
100
AcDbEntity
  8
0
  6
Continuous
 62
     7
370
    25
100
AcDbCircle
 10
755.2658955663
 20
393.4801568493
 30
0.0
 40
9.125
  0
CIRCLE
  5
11D
330
1F
100
AcDbEntity
  8
0
  6
Continuous
 62
     7
370
    25
100
AcDbCircle
 10
710.2658955663
 20
393.4801568493
 30
0.0
 40
9.125
  0
CIRCLE
  5
11E
330
1F
100
AcDbEntity
  8
0
  6
Continuous
 62
     7
370
    25
100
AcDbCircle
 10
530.2658955663
 20
393.4801568493
 30
0.0
 40
9.125
  0
CIRCLE
  5
11F
330
1F
100
AcDbEntity
  8
0
  6
Continuous
 62
     7
370
    25
100
AcDbCircle
 10
575.2658955663
 20
393.4801568493
 30
0.0
 40
9.125
  0
CIRCLE
  5
120
330
1F
100
AcDbEntity
  8
0
  6
Continuous
 62
     7
370
    25
100
AcDbCircle
 10
575.2658955663
 20
438.4801568493
 30
0.0
 40
9.125000000000057
  0
CIRCLE
  5
121
330
1F
100
AcDbEntity
  8
0
  6
Continuous
 62
     7
370
    25
100
AcDbCircle
 10
530.2658955663
 20
438.4801568493
 30
0.0
 40
9.125000000000057
  0
CIRCLE
  5
122
330
1F
100
AcDbEntity
  8
0
  6
Continuous
 62
     7
370
    25
100
AcDbCircle
 10
482.7658955663
 20
375.9801568493
 30
0.0
 40
5.0
  0
CIRCLE
  5
123
330
1F
100
AcDbEntity
  8
0
  6
Continuous
 62
     7
370
    25
100
AcDbCircle
 10
482.7658955663
 20
455.9801568493
 30
0.0
 40
5.0
  0
CIRCLE
  5
124
330
1F
100
AcDbEntity
  8
0
  6
Continuous
 62
     7
370
    25
100
AcDbCircle
 10
802.7658955663
 20
375.9801568493
 30
0.0
 40
5.0
  0
CIRCLE
  5
125
330
1F
100
AcDbEntity
  8
0
  6
Continuous
 62
     7
370
    25
100
AcDbCircle
 10
802.7658955663
 20
455.9801568493
 30
0.0
 40
5.0
  0
CIRCLE
  5
126
330
1F
100
AcDbEntity
  8
0
  6
Continuous
 62
     7
370
    25
100
AcDbCircle
 10
530.2658955663
 20
438.4801568493
 30
0.0
 40
4.500000000000057
  0
CIRCLE
  5
127
330
1F
100
AcDbEntity
  8
0
  6
Continuous
 62
     7
370
    25
100
AcDbCircle
 10
755.2658955663
 20
393.4801568493
 30
0.0
 40
4.5
  0
CIRCLE
  5
128
330
1F
100
AcDbEntity
  8
0
  6
Continuous
 62
     7
370
    25
100
AcDbCircle
 10
575.2658955663
 20
393.4801568493
 30
0.0
 40
4.5
  0
CIRCLE
  5
129
330
1F
100
AcDbEntity
  8
0
  6
Continuous
 62
     7
370
    25
100
AcDbCircle
 10
575.2658955663
 20
438.4801568493
 30
0.0
 40
4.5
  0
CIRCLE
  5
12A
330
1F
100
AcDbEntity
  8
0
  6
Continuous
 62
     7
370
    25
100
AcDbCircle
 10
710.2658955663
 20
393.4801568493
 30
0.0
 40
4.5
  0
CIRCLE
  5
12B
330
1F
100
AcDbEntity
  8
0
  6
Continuous
 62
     7
370
    25
100
AcDbCircle
 10
530.2658955663
 20
393.4801568493
 30
0.0
 40
4.5
  0
CIRCLE
  5
12C
330
1F
100
AcDbEntity
  8
0
  6
Continuous
 62
     7
370
    25
100
AcDbCircle
 10
710.2658955663
 20
438.4801568493
 30
0.0
 40
4.499999999999943
  0
CIRCLE
  5
12D
330
1F
100
AcDbEntity
  8
0
  6
Continuous
 62
     7
370
    25
100
AcDbCircle
 10
755.2658955663
 20
438.4801568493
 30
0.0
 40
4.5
  0
DIMENSION
  5
12E
330
1F
100
AcDbEntity
  8
0
  6
Continuous
 62
     7
370
    18
100
AcDbDimension
  2
_D
 10
896.7658955663
 20
345.9801568493
 30
0.0
 11
896.7658955663
 21
415.9801568493
 31
0.0
 70
   160
  1
<>
 71
     2
 42
-1.0
  3
SLDDIMSTYLE0
100
AcDbAlignedDimension
 13
827.7658955663
 23
485.9801568493
 33
0.0
 14
827.7658955663
 24
345.9801568493
 34
0.0
 50
90.0
100
AcDbRotatedDimension
  0
DIMENSION
  5
139
330
1F
100
AcDbEntity
  8
0
  6
Continuous
 62
     7
370
    18
100
AcDbDimension
  2
_D_1
 10
452.7658955663
 20
265.9801568493
 30
0.0
 11
642.7658955663
 21
265.9801568493
 31
0.0
 70
   160
  1
<>
 71
     2
 42
-1.0
  3
SLDDIMSTYLE0
100
AcDbAlignedDimension
 13
832.7658955663
 23
350.9801568493
 33
0.0
 14
452.7658955663
 24
350.9801568493
 34
0.0
100
AcDbRotatedDimension
  0
DIMENSION
  5
143
330
1F
100
AcDbEntity
  8
0
  6
Continuous
 62
     7
370
    18
100
AcDbDimension
  2
_D_2
 10
457.7658955663
 20
480.9801568493
 30
0.0
 11
430.962899861
 21
505.6578221018
 31
0.0
 70
   164
  1
<>
 71
     1
 42
-1.0
  3
SLDDIMSTYLE1
100
AcDbRadialDimension
 15
454.0875285454
 25
484.3668390102
 35
0.0
 40
0.0
  0
DIMENSION
  5
14C
330
1F
100
AcDbEntity
  8
0
  6
Continuous
 62
     7
370
    18
100
AcDbDimension
  2
_D_3
 10
530.2658955663
 20
313.9801568493
 30
0.0
 11
491.5158955663
 21
313.9801568493
 31
0.0
 70
   160
  1
<>
 71
     2
 42
-1.0
  3
SLDDIMSTYLE0
100
AcDbAlignedDimension
 13
452.7658955663
 23
350.9801568493
 33
0.0
 14
530.2658955663
 24
438.4801568493
 34
0.0
100
AcDbRotatedDimension
  0
DIMENSION
  5
156
330
1F
100
AcDbEntity
  8
0
  6
Continuous
 62
     7
370
    18
100
AcDbDimension
  2
_D_4
 10
575.2658955663
 20
313.9801568493
 30
0.0
 11
552.7658955663
 21
313.9801568493
 31
0.0
 70
   160
  1
<>
 71
     2
 42
-1.0
  3
SLDDIMSTYLE0
100
AcDbAlignedDimension
 13
530.2658955663
 23
438.4801568493
 33
0.0
 14
575.2658955663
 24
438.4801568493
 34
0.0
100
AcDbRotatedDimension
  0
DIMENSION
  5
160
330
1F
100
AcDbEntity
  8
0
  6
Continuous
 62
     7
370
    18
100
AcDbDimension
  2
_D_5
 10
482.7658955663
 20
281.9801568493
 30
0.0
 11
467.7658955663
 21
281.9801568493
 31
0.0
 70
   160
  1
<>
 71
     2
 42
-1.0
  3
SLDDIMSTYLE2
100
AcDbAlignedDimension
 13
452.7658955663
 23
350.9801568493
 33
0.0
 14
482.7658955663
 24
455.9801568493
 34
0.0
100
AcDbRotatedDimension
  0
DIMENSION
  5
16D
330
1F
100
AcDbEntity
  8
0
  6
Continuous
 62
     7
370
    18
100
AcDbDimension
  2
_D_6
 10
802.7658955663
 20
281.9801568493
 30
0.0
 11
642.7658955663
 21
281.9801568493
 31
0.0
 70
   160
  1
<>
 71
     2
 42
-1.0
  3
SLDDIMSTYLE0
100
AcDbAlignedDimension
 13
482.7658955663
 23
455.9801568493
 33
0.0
 14
802.7658955663
 24
455.9801568493
 34
0.0
100
AcDbRotatedDimension
  0
DIMENSION
  5
177
330
1F
100
AcDbEntity
  8
0
  6
Continuous
 62
     7
370
    18
100
AcDbDimension
  2
_D_7
 10
832.7658955663
 20
281.9801568493
 30
0.0
 11
817.7658955663
 21
281.9801568493
 31
0.0
 70
   160
  1
<>
 71
     2
 42
-1.0
  3
SLDDIMSTYLE2
100
AcDbAlignedDimension
 13
802.7658955663
 23
455.9801568493
 33
0.0
 14
832.7658955663
 24
350.9801568493
 34
0.0
100
AcDbRotatedDimension
  0
DIMENSION
  5
183
330
1F
100
AcDbEntity
  8
0
  6
Continuous
 62
     7
370
    18
100
AcDbDimension
  2
_D_8
 10
864.7658955663
 20
375.9801568493
 30
0.0
 11
864.7658955663
 21
360.9801568493
 31
0.0
 70
   160
  1
<>
 71
     2
 42
-1.0
  3
SLDDIMSTYLE2
100
AcDbAlignedDimension
 13
827.7658955663
 23
345.9801568493
 33
0.0
 14
482.7658955663
 24
375.9801568493
 34
0.0
 50
90.0
100
AcDbRotatedDimension
  0
DIMENSION
  5
18F
330
1F
100
AcDbEntity
  8
0
  6
Continuous
 62
     7
370
    18
100
AcDbDimension
  2
_D_9
 10
864.7658955663
 20
455.9801568493
 30
0.0
 11
864.7658955663
 21
415.9801568493
 31
0.0
 70
   160
  1
<>
 71
     2
 42
-1.0
  3
SLDDIMSTYLE0
100
AcDbAlignedDimension
 13
482.7658955663
 23
375.9801568493
 33
0.0
 14
482.7658955663
 24
455.9801568493
 34
0.0
 50
90.0
100
AcDbRotatedDimension
  0
DIMENSION
  5
199
330
1F
100
AcDbEntity
  8
0
  6
Continuous
 62
     7
370
    18
100
AcDbDimension
  2
_D_10
 10
864.7658955663
 20
485.9801568493
 30
0.0
 11
864.7658955663
 21
470.9801568493
 31
0.0
 70
   160
  1
<>
 71
     2
 42
-1.0
  3
SLDDIMSTYLE2
100
AcDbAlignedDimension
 13
482.7658955663
 23
455.9801568493
 33
0.0
 14
827.7658955663
 24
485.9801568493
 34
0.0
 50
90.0
100
AcDbRotatedDimension
  0
DIMENSION
  5
1A5
330
1F
100
AcDbEntity
  8
0
  6
Continuous
 62
     7
370
    18
100
AcDbDimension
  2
_D_11
 10
487.0960225852
 20
373.4801568493
 30
0.0
 11
362.0635199866
 21
411.5287069502
 31
0.0
 70
   163
  1
4 x <> PASSANTE\P
 71
     1
 42
-1.0
  3
SLDDIMSTYLE3
100
AcDbDiametricDimension
 15
478.4357685474
 25
378.4801568493
 35
0.0
 40
0.0
  0
DIMENSION
  5
1B5
330
1F
100
AcDbEntity
  8
0
  6
Continuous
 62
     7
370
    18
100
AcDbDimension
  2
_D_12
 10
756.4305812693
 20
434.133490631
 30
0.0
 11
666.9325665109
 21
522.8093203653
 31
0.0
 70
   163
  1
8 x <> PASSANTE\P{\fGDT;w}%%c 18.25 X 90°\P
 71
     1
 42
-1.0
  3
SLDDIMSTYLE3
100
AcDbDiametricDimension
 15
754.1012098634
 25
442.8268230676
 35
0.0
 40
0.0
  0
DIMENSION
  5
1C8
330
1F
100
AcDbEntity
  8
0
  6
Continuous
 62
     7
370
    18
100
AcDbDimension
  2
_D_13
 10
710.2658955663
 20
313.9801568493
 30
0.0
 11
642.7658955663
 21
313.9801568493
 31
0.0
 70
   160
  1
<>
 71
     2
 42
-1.0
  3
SLDDIMSTYLE0
100
AcDbAlignedDimension
 13
575.2658955663
 23
438.4801568493
 33
0.0
 14
710.2658955663
 24
438.4801568493
 34
0.0
 50
0.0
100
AcDbRotatedDimension
  0
DIMENSION
  5
1D2
330
1F
100
AcDbEntity
  8
0
  6
Continuous
 62
     7
370
    18
100
AcDbDimension
  2
_D_14
 10
755.2658955663
 20
313.9801568493
 30
0.0
 11
732.7658955663
 21
313.9801568493
 31
0.0
 70
   160
  1
<>
 71
     2
 42
-1.0
  3
SLDDIMSTYLE2
100
AcDbAlignedDimension
 13
710.2658955663
 23
438.4801568493
 33
0.0
 14
755.2658955663
 24
438.4801568493
 34
0.0
 50
0.0
100
AcDbRotatedDimension
  0
DIMENSION
  5
1DE
330
1F
100
AcDbEntity
  8
0
  6
Continuous
 62
     7
370
    18
100
AcDbDimension
  2
_D_15
 10
832.7658955663
 20
313.9801568493
 30
0.0
 11
794.0158955663
 21
313.9801568493
 31
0.0
 70
   160
  1
<>
 71
     2
 42
-1.0
  3
SLDDIMSTYLE0
100
AcDbAlignedDimension
 13
755.2658955663
 23
438.4801568493
 33
0.0
 14
832.7658955663
 24
350.9801568493
 34
0.0
100
AcDbRotatedDimension
  0
LINE
  5
1E8
330
1F
100
AcDbEntity
  8
0
  6
Continuous
 62
     7
370
    25
100
AcDbLine
 10
457.7658955663
 20
610.8964533905
 30
0.0
 11
457.7658955663
 21
600.8964533905
 31
0.0
  0
LINE
  5
1E9
330
1F
100
AcDbEntity
  8
0
  6
Continuous
 62
     7
370
    25
100
AcDbLine
 10
452.7658955663
 20
600.8964533905
 30
0.0
 11
452.7658955663
 21
610.8964533905
 31
0.0
  0
LINE
  5
1EA
330
1F
100
AcDbEntity
  8
0
  6
Continuous
 62
     7
370
    25
100
AcDbLine
 10
457.7658955663
 20
600.8964533905
 30
0.0
 11
452.7658955663
 21
600.8964533905
 31
0.0
  0
LINE
  5
1EB
330
1F
100
AcDbEntity
  8
0
  6
Continuous
 62
     7
370
    25
100
AcDbLine
 10
452.7658955663
 20
610.8964533905
 30
0.0
 11
457.7658955663
 21
610.8964533905
 31
0.0
  0
LINE
  5
1EC
330
1F
100
AcDbEntity
  8
0
  6
Continuous
 62
     7
370
    25
100
AcDbLine
 10
827.7658955663
 20
600.8964533905
 30
0.0
 11
827.7658955663
 21
610.8964533905
 31
0.0
  0
LINE
  5
1ED
330
1F
100
AcDbEntity
  8
0
  6
Continuous
 62
     7
370
    25
100
AcDbLine
 10
457.7658955663
 20
600.8964533905
 30
0.0
 11
827.7658955663
 21
600.8964533905
 31
0.0
  0
LINE
  5
1EE
330
1F
100
AcDbEntity
  8
0
  6
Continuous
 62
     7
370
    25
100
AcDbLine
 10
457.7658955663
 20
610.8964533905
 30
0.0
 11
827.7658955663
 21
610.8964533905
 31
0.0
  0
LINE
  5
1EF
330
1F
100
AcDbEntity
  8
0
  6
Continuous
 62
     7
370
    25
100
AcDbLine
 10
832.7658955663
 20
610.8964533905
 30
0.0
 11
832.7658955663
 21
600.8964533905
 31
0.0
  0
LINE
  5
1F0
330
1F
100
AcDbEntity
  8
0
  6
Continuous
 62
     7
370
    25
100
AcDbLine
 10
832.7658955663
 20
600.8964533905
 30
0.0
 11
827.7658955663
 21
600.8964533905
 31
0.0
  0
LINE
  5
1F1
330
1F
100
AcDbEntity
  8
0
  6
Continuous
 62
     7
370
    25
100
AcDbLine
 10
827.7658955663
 20
610.8964533905
 30
0.0
 11
832.7658955663
 21
610.8964533905
 31
0.0
  0
LINE
  5
1F2
330
1F
100
AcDbEntity
  8
0
  6
HIDDEN
 62
     7
370
    18
100
AcDbLine
 10
575.2658955663
 20
606.2714533905
 30
0.0
 11
579.7658955663
 21
606.2714533905
 31
0.0
  0
LINE
  5
1F3
330
1F
100
AcDbEntity
  8
0
  6
HIDDEN
 62
     7
370
    18
100
AcDbLine
 10
570.7658955663
 20
606.2714533905
 30
0.0
 11
575.2658955663
 21
606.2714533905
 31
0.0
  0
LINE
  5
1F4
330
1F
100
AcDbEntity
  8
0
  6
HIDDEN
 62
     7
370
    18
100
AcDbLine
 10
530.2658955663
 20
606.2714533905
 30
0.0
 11
534.7658955663
 21
606.2714533905
 31
0.0
  0
LINE
  5
1F5
330
1F
100
AcDbEntity
  8
0
  6
HIDDEN
 62
     7
370
    18
100
AcDbLine
 10
525.7658955663
 20
606.2714533905
 30
0.0
 11
530.2658955663
 21
606.2714533905
 31
0.0
  0
LINE
  5
1F6
330
1F
100
AcDbEntity
  8
0
  6
HIDDEN
 62
     7
370
    18
100
AcDbLine
 10
710.2658955663
 20
606.2714533905
 30
0.0
 11
714.7658955663
 21
606.2714533905
 31
0.0
  0
LINE
  5
1F7
330
1F
100
AcDbEntity
  8
0
  6
HIDDEN
 62
     7
370
    18
100
AcDbLine
 10
705.7658955663
 20
606.2714533905
 30
0.0
 11
710.2658955663
 21
606.2714533905
 31
0.0
  0
LINE
  5
1F8
330
1F
100
AcDbEntity
  8
0
  6
HIDDEN
 62
     7
370
    18
100
AcDbLine
 10
755.2658955663
 20
606.2714533905
 30
0.0
 11
759.7658955663
 21
606.2714533905
 31
0.0
  0
LINE
  5
1F9
330
1F
100
AcDbEntity
  8
0
  6
HIDDEN
 62
     7
370
    18
100
AcDbLine
 10
750.7658955663
 20
606.2714533905
 30
0.0
 11
755.2658955663
 21
606.2714533905
 31
0.0
  0
LINE
  5
1FA
330
1F
100
AcDbEntity
  8
0
  6
HIDDEN
 62
     7
370
    18
100
AcDbLine
 10
457.7658955663
 20
600.8964533905
 30
0.0
 11
457.7658955663
 21
610.8964533905
 31
0.0
  0
LINE
  5
1FB
330
1F
100
AcDbEntity
  8
0
  6
HIDDEN
 62
     7
370
    18
100
AcDbLine
 10
827.7658955663
 20
610.8964533905
 30
0.0
 11
827.7658955663
 21
600.8964533905
 31
0.0
  0
LINE
  5
1FC
330
1F
100
AcDbEntity
  8
0
  6
HIDDEN
 62
     7
370
    18
100
AcDbLine
 10
477.7658955663
 20
610.8964533905
 30
0.0
 11
477.7658955663
 21
600.8964533905
 31
0.0
  0
LINE
  5
1FD
330
1F
100
AcDbEntity
  8
0
  6
HIDDEN
 62
     7
370
    18
100
AcDbLine
 10
487.7658955663
 20
600.8964533905
 30
0.0
 11
487.7658955663
 21
610.8964533905
 31
0.0
  0
LINE
  5
1FE
330
1F
100
AcDbEntity
  8
0
  6
HIDDEN
 62
     7
370
    18
100
AcDbLine
 10
797.7658955663
 20
610.8964533905
 30
0.0
 11
797.7658955663
 21
600.8964533905
 31
0.0
  0
LINE
  5
1FF
330
1F
100
AcDbEntity
  8
0
  6
HIDDEN
 62
     7
370
    18
100
AcDbLine
 10
807.7658955663
 20
600.8964533905
 30
0.0
 11
807.7658955663
 21
610.8964533905
 31
0.0
  0
LINE
  5
200
330
1F
100
AcDbEntity
  8
0
  6
HIDDEN
 62
     7
370
    18
100
AcDbLine
 10
566.1408955663
 20
610.8964533905
 30
0.0
 11
570.7658955663
 21
606.2714533905
 31
0.0
  0
LINE
  5
201
330
1F
100
AcDbEntity
  8
0
  6
HIDDEN
 62
     7
370
    18
100
AcDbLine
 10
579.7658955663
 20
606.2714533905
 30
0.0
 11
584.3908955663
 21
610.8964533905
 31
0.0
  0
LINE
  5
202
330
1F
100
AcDbEntity
  8
0
  6
HIDDEN
 62
     7
370
    18
100
AcDbLine
 10
521.1408955663
 20
610.8964533905
 30
0.0
 11
525.7658955663
 21
606.2714533905
 31
0.0
  0
LINE
  5
203
330
1F
100
AcDbEntity
  8
0
  6
HIDDEN
 62
     7
370
    18
100
AcDbLine
 10
534.7658955663
 20
606.2714533905
 30
0.0
 11
539.3908955663
 21
610.8964533905
 31
0.0
  0
LINE
  5
204
330
1F
100
AcDbEntity
  8
0
  6
HIDDEN
 62
     7
370
    18
100
AcDbLine
 10
701.1408955663
 20
610.8964533905
 30
0.0
 11
705.7658955663
 21
606.2714533905
 31
0.0
  0
LINE
  5
205
330
1F
100
AcDbEntity
  8
0
  6
HIDDEN
 62
     7
370
    18
100
AcDbLine
 10
714.7658955663
 20
606.2714533905
 30
0.0
 11
719.3908955663
 21
610.8964533905
 31
0.0
  0
LINE
  5
206
330
1F
100
AcDbEntity
  8
0
  6
HIDDEN
 62
     7
370
    18
100
AcDbLine
 10
746.1408955663
 20
610.8964533905
 30
0.0
 11
750.7658955663
 21
606.2714533905
 31
0.0
  0
LINE
  5
207
330
1F
100
AcDbEntity
  8
0
  6
HIDDEN
 62
     7
370
    18
100
AcDbLine
 10
759.7658955663
 20
606.2714533905
 30
0.0
 11
764.3908955663
 21
610.8964533905
 31
0.0
  0
LINE
  5
208
330
1F
100
AcDbEntity
  8
0
  6
HIDDEN
 62
     7
370
    18
100
AcDbLine
 10
570.7658955663
 20
606.2714533905
 30
0.0
 11
570.7658955663
 21
600.8964533905
 31
0.0
  0
LINE
  5
209
330
1F
100
AcDbEntity
  8
0
  6
HIDDEN
 62
     7
370
    18
100
AcDbLine
 10
579.7658955663
 20
600.8964533905
 30
0.0
 11
579.7658955663
 21
606.2714533905
 31
0.0
  0
LINE
  5
20A
330
1F
100
AcDbEntity
  8
0
  6
HIDDEN
 62
     7
370
    18
100
AcDbLine
 10
525.7658955663
 20
606.2714533905
 30
0.0
 11
525.7658955663
 21
600.8964533905
 31
0.0
  0
LINE
  5
20B
330
1F
100
AcDbEntity
  8
0
  6
HIDDEN
 62
     7
370
    18
100
AcDbLine
 10
534.7658955663
 20
600.8964533905
 30
0.0
 11
534.7658955663
 21
606.2714533905
 31
0.0
  0
LINE
  5
20C
330
1F
100
AcDbEntity
  8
0
  6
HIDDEN
 62
     7
370
    18
100
AcDbLine
 10
705.7658955663
 20
606.2714533905
 30
0.0
 11
705.7658955663
 21
600.8964533905
 31
0.0
  0
LINE
  5
20D
330
1F
100
AcDbEntity
  8
0
  6
HIDDEN
 62
     7
370
    18
100
AcDbLine
 10
714.7658955663
 20
600.8964533905
 30
0.0
 11
714.7658955663
 21
606.2714533905
 31
0.0
  0
LINE
  5
20E
330
1F
100
AcDbEntity
  8
0
  6
HIDDEN
 62
     7
370
    18
100
AcDbLine
 10
750.7658955663
 20
606.2714533905
 30
0.0
 11
750.7658955663
 21
600.8964533905
 31
0.0
  0
LINE
  5
20F
330
1F
100
AcDbEntity
  8
0
  6
HIDDEN
 62
     7
370
    18
100
AcDbLine
 10
759.7658955663
 20
600.8964533905
 30
0.0
 11
759.7658955663
 21
606.2714533905
 31
0.0
  0
DIMENSION
  5
210
330
1F
100
AcDbEntity
  8
0
  6
Continuous
 62
     7
370
    18
100
AcDbDimension
  2
_D_16
 10
864.7658955663
 20
600.8964533905
 30
0.0
 11
864.7658955663
 21
565.4061980748
 31
0.0
 70
   160
  1
<>
 71
     2
 42
-1.0
  3
SLDDIMSTYLE2
100
AcDbAlignedDimension
 13
832.7658955663
 23
610.8964533905
 33
0.0
 14
832.7658955663
 24
600.8964533905
 34
0.0
 50
90.0
100
AcDbRotatedDimension
  0
LINE
  5
21C
330
1F
100
AcDbEntity
  8
0
  6
Continuous
 62
     7
370
    25
100
AcDbLine
 10
365.6588867003
 20
109.2307315442
 30
0.0
 11
365.6588867003
 21
115.7630580393
 31
0.0
  0
LINE
  5
21D
330
1F
100
AcDbEntity
  8
0
  6
Continuous
 62
     7
370
    25
100
AcDbLine
 10
74.8161742257
 20
194.1382367743
 30
0.0
 11
74.8161742257
 21
187.6059102792
 31
0.0
  0
ARC
  5
21E
330
1F
100
AcDbEntity
  8
0
  6
Continuous
 62
     7
370
    25
100
AcDbCircle
 10
363.8676057179
 20
115.7630580393
 30
0.0
 40
1.746461267337021
100
AcDbArc
 50
290.7834207995
 51
69.2165792005
  0
LINE
  5
21F
330
1F
100
AcDbEntity
  8
0
  6
Continuous
 62
     7
370
    25
100
AcDbLine
 10
290.9482085817
 20
71.6770200008
 30
0.0
 11
364.4873138251
 21
114.1302418156
 31
0.0
  0
ARC
  5
220
330
1F
100
AcDbEntity
  8
0
  6
Continuous
 62
     7
370
    25
100
AcDbCircle
 10
288.1197814569
 20
77.1358643407
 30
0.0
 40
6.148087631647035
100
AcDbArc
 50
242.6096722366
 51
297.3903277634
  0
LINE
  5
221
330
1F
100
AcDbEntity
  8
0
  6
Continuous
 62
     7
370
    25
100
AcDbLine
 10
75.987747101
 20
192.5054205506
 30
0.0
 11
285.2913543322
 21
71.6770200008
 31
0.0
  0
ARC
  5
222
330
1F
100
AcDbEntity
  8
0
  6
Continuous
 62
     7
370
    25
100
AcDbCircle
 10
76.6074552082
 20
194.1382367743
 30
0.0
 40
1.746461267337067
100
AcDbArc
 50
110.7834207995
 51
249.2165792005
  0
LINE
  5
223
330
1F
100
AcDbEntity
  8
0
  6
Continuous
 62
     7
370
    25
100
AcDbLine
 10
149.5268523444
 20
238.2242748127
 30
0.0
 11
75.987747101
 21
195.7710529979
 31
0.0
  0
ARC
  5
224
330
1F
100
AcDbEntity
  8
0
  6
Continuous
 62
     7
370
    25
100
AcDbCircle
 10
152.3552794691
 20
232.7654304729
 30
0.0
 40
6.148087631646997
100
AcDbArc
 50
62.6096722366
 51
117.3903277634
  0
LINE
  5
225
330
1F
100
AcDbEntity
  8
0
  6
Continuous
 62
     7
370
    25
100
AcDbLine
 10
364.4873138251
 20
117.3958742629
 30
0.0
 11
155.1837065939
 21
238.2242748127
 31
0.0
  0
LWPOLYLINE
  5
226
330
1F
100
AcDbEntity
  8
0
  6
Continuous
 62
     7
370
    25
100
AcDbPolyline
 90
       37
 70
   128
 43
0.0
 10
265.9873392058
 20
137.2754117858
 10
266.9621107231
 20
136.8032306046
 10
268.0641053978
 20
136.4359388475
 10
269.2598396792
 20
136.1846964887
 10
270.5129817864
 20
136.0571374002
 10
271.7854556305
 20
136.0571374002
 10
273.0385977377
 20
136.1846964887
 10
274.2343320192
 20
136.4359388475
 10
275.3363266938
 20
136.8032306046
 10
276.3110982111
 20
137.2754117858
 10
277.1290286318
 20
137.8381354048
 10
277.7652655538
 20
138.4743033893
 10
278.2004772404
 20
139.1645860969
 10
278.4214400045
 20
139.8880096369
 10
278.4214400045
 20
140.622593151
 10
278.2004772404
 20
141.346016691
 10
277.7652655538
 20
142.0362993986
 10
277.1290286318
 20
142.6724673831
 10
276.3110982111
 20
143.2351910021
 10
275.3363266938
 20
143.7073721833
 10
274.2343320192
 20
144.0746639404
 10
273.0385977377
 20
144.3259062992
 10
271.7854556305
 20
144.4534653877
 10
270.5129817864
 20
144.4534653877
 10
269.2598396792
 20
144.3259062992
 10
268.0641053978
 20
144.0746639404
 10
266.9621107231
 20
143.7073721833
 10
265.9873392058
 20
143.2351910021
 10
265.1694087852
 20
142.6724673831
 10
264.5331718631
 20
142.0362993986
 10
264.0979601766
 20
141.346016691
 10
263.8769974124
 20
140.622593151
 10
263.8769974124
 20
139.8880096369
 10
264.0979601766
 20
139.1645860969
 10
264.5331718631
 20
138.4743033893
 10
265.1694087852
 20
137.8381354048
 10
265.9873392058
 20
137.2754117858
  0
LWPOLYLINE
  5
227
330
1F
100
AcDbEntity
  8
0
  6
Continuous
 62
     7
370
    25
100
AcDbPolyline
 90
       37
 70
   128
 43
0.0
 10
291.4431833285
 20
122.580065773
 10
292.4179548458
 20
122.1078845918
 10
293.5199495205
 20
121.7405928347
 10
294.7156838019
 20
121.4893504759
 10
295.9688259091
 20
121.3617913874
 10
297.2412997532
 20
121.3617913874
 10
298.4944418604
 20
121.4893504759
 10
299.6901761419
 20
121.7405928347
 10
300.7921708165
 20
122.1078845918
 10
301.7669423338
 20
122.580065773
 10
302.5848727545
 20
123.142789392
 10
303.2211096766
 20
123.7789573765
 10
303.6563213631
 20
124.4692400841
 10
303.8772841273
 20
125.1926636241
 10
303.8772841273
 20
125.9272471382
 10
303.6563213631
 20
126.6506706782
 10
303.2211096766
 20
127.3409533858
 10
302.5848727545
 20
127.9771213703
 10
301.7669423338
 20
128.5398449893
 10
300.7921708165
 20
129.0120261705
 10
299.6901761419
 20
129.3793179276
 10
298.4944418604
 20
129.6305602864
 10
297.2412997532
 20
129.7581193749
 10
295.9688259091
 20
129.7581193749
 10
294.7156838019
 20
129.6305602864
 10
293.5199495205
 20
129.3793179276
 10
292.4179548458
 20
129.0120261705
 10
291.4431833285
 20
128.5398449893
 10
290.6252529079
 20
127.9771213703
 10
289.9890159858
 20
127.3409533858
 10
289.5538042993
 20
126.6506706782
 10
289.3328415351
 20
125.9272471382
 10
289.3328415351
 20
125.1926636241
 10
289.5538042993
 20
124.4692400841
 10
289.9890159858
 20
123.7789573765
 10
290.6252529079
 20
123.142789392
 10
291.4431833285
 20
122.580065773
  0
LWPOLYLINE
  5
228
330
1F
100
AcDbEntity
  8
0
  6
Continuous
 62
     7
370
    25
100
AcDbPolyline
 90
       37
 70
   128
 43
0.0
 10
265.9873392058
 20
107.8847197602
 10
266.9621107231
 20
107.412538579
 10
268.0641053978
 20
107.0452468219
 10
269.2598396792
 20
106.7940044631
 10
270.5129817864
 20
106.6664453745
 10
271.7854556305
 20
106.6664453745
 10
273.0385977377
 20
106.7940044631
 10
274.2343320192
 20
107.0452468219
 10
275.3363266938
 20
107.412538579
 10
276.3110982111
 20
107.8847197602
 10
277.1290286318
 20
108.4474433792
 10
277.7652655538
 20
109.0836113637
 10
278.2004772404
 20
109.7738940713
 10
278.4214400045
 20
110.4973176113
 10
278.4214400045
 20
111.2319011254
 10
278.2004772404
 20
111.9553246654
 10
277.7652655538
 20
112.645607373
 10
277.1290286318
 20
113.2817753575
 10
276.3110982111
 20
113.8444989765
 10
275.3363266938
 20
114.3166801577
 10
274.2343320192
 20
114.6839719147
 10
273.0385977377
 20
114.9352142735
 10
271.7854556305
 20
115.0627733621
 10
270.5129817864
 20
115.0627733621
 10
269.2598396792
 20
114.9352142735
 10
268.0641053978
 20
114.6839719147
 10
266.9621107231
 20
114.3166801577
 10
265.9873392058
 20
113.8444989765
 10
265.1694087852
 20
113.2817753575
 10
264.5331718631
 20
112.645607373
 10
264.0979601766
 20
111.9553246654
 10
263.8769974124
 20
111.2319011254
 10
263.8769974124
 20
110.4973176113
 10
264.0979601766
 20
109.7738940713
 10
264.5331718631
 20
109.0836113637
 10
265.1694087852
 20
108.4474433792
 10
265.9873392058
 20
107.8847197602
  0
LWPOLYLINE
  5
229
330
1F
100
AcDbEntity
  8
0
  6
Continuous
 62
     7
370
    25
100
AcDbPolyline
 90
       37
 70
   128
 43
0.0
 10
240.5314950831
 20
122.580065773
 10
241.5062666004
 20
122.1078845918
 10
242.608261275
 20
121.7405928347
 10
243.8039955565
 20
121.4893504759
 10
245.0571376637
 20
121.3617913874
 10
246.3296115078
 20
121.3617913874
 10
247.582753615
 20
121.4893504759
 10
248.7784878965
 20
121.7405928347
 10
249.8804825711
 20
122.1078845918
 10
250.8552540884
 20
122.580065773
 10
251.6731845091
 20
123.142789392
 10
252.3094214311
 20
123.7789573765
 10
252.7446331177
 20
124.4692400841
 10
252.9655958818
 20
125.1926636241
 10
252.9655958818
 20
125.9272471382
 10
252.7446331177
 20
126.6506706782
 10
252.3094214311
 20
127.3409533858
 10
251.6731845091
 20
127.9771213703
 10
250.8552540884
 20
128.5398449893
 10
249.8804825711
 20
129.0120261705
 10
248.7784878965
 20
129.3793179276
 10
247.582753615
 20
129.6305602864
 10
246.3296115078
 20
129.7581193749
 10
245.0571376637
 20
129.7581193749
 10
243.8039955565
 20
129.6305602864
 10
242.608261275
 20
129.3793179276
 10
241.5062666004
 20
129.0120261705
 10
240.5314950831
 20
128.5398449893
 10
239.7135646624
 20
127.9771213703
 10
239.0773277404
 20
127.3409533858
 10
238.6421160538
 20
126.6506706782
 10
238.4211532897
 20
125.9272471382
 10
238.4211532897
 20
125.1926636241
 10
238.6421160538
 20
124.4692400841
 10
239.0773277404
 20
123.7789573765
 10
239.7135646624
 20
123.142789392
 10
240.5314950831
 20
122.580065773
  0
LWPOLYLINE
  5
22A
330
1F
100
AcDbEntity
  8
0
  6
Continuous
 62
     7
370
    25
100
AcDbPolyline
 90
       37
 70
   128
 43
0.0
 10
138.7081185922
 20
181.3614498242
 10
139.6828901095
 20
180.889268643
 10
140.7848847842
 20
180.521976886
 10
141.9806190656
 20
180.2707345272
 10
143.2337611728
 20
180.1431754386
 10
144.5062350169
 20
180.1431754386
 10
145.7593771241
 20
180.2707345272
 10
146.9551114056
 20
180.521976886
 10
148.0571060803
 20
180.889268643
 10
149.0318775976
 20
181.3614498242
 10
149.8498080182
 20
181.9241734433
 10
150.4860449403
 20
182.5603414277
 10
150.9212566268
 20
183.2506241353
 10
151.142219391
 20
183.9740476753
 10
151.142219391
 20
184.7086311895
 10
150.9212566268
 20
185.4320547294
 10
150.4860449403
 20
186.122337437
 10
149.8498080182
 20
186.7585054215
 10
149.0318775976
 20
187.3212290405
 10
148.0571060803
 20
187.7934102217
 10
146.9551114056
 20
188.1607019788
 10
145.7593771241
 20
188.4119443376
 10
144.5062350169
 20
188.5395034262
 10
143.2337611728
 20
188.5395034262
 10
141.9806190656
 20
188.4119443376
 10
140.7848847842
 20
188.1607019788
 10
139.6828901095
 20
187.7934102217
 10
138.7081185922
 20
187.3212290405
 10
137.8901881716
 20
186.7585054215
 10
137.2539512495
 20
186.122337437
 10
136.818739563
 20
185.4320547294
 10
136.5977767988
 20
184.7086311895
 10
136.5977767988
 20
183.9740476753
 10
136.818739563
 20
183.2506241353
 10
137.2539512495
 20
182.5603414277
 10
137.8901881716
 20
181.9241734433
 10
138.7081185922
 20
181.3614498242
  0
LWPOLYLINE
  5
22B
330
1F
100
AcDbEntity
  8
0
  6
Continuous
 62
     7
370
    25
100
AcDbPolyline
 90
       37
 70
   128
 43
0.0
 10
164.1639627149
 20
166.6661038114
 10
165.1387342322
 20
166.1939226302
 10
166.2407289069
 20
165.8266308732
 10
167.4364631884
 20
165.5753885144
 10
168.6896052955
 20
165.4478294258
 10
169.9620791397
 20
165.4478294258
 10
171.2152212469
 20
165.5753885144
 10
172.4109555283
 20
165.8266308732
 10
173.512950203
 20
166.1939226302
 10
174.4877217203
 20
166.6661038114
 10
175.3056521409
 20
167.2288274304
 10
175.941889063
 20
167.8649954149
 10
176.3771007495
 20
168.5552781225
 10
176.5980635137
 20
169.2787016625
 10
176.5980635137
 20
170.0132851767
 10
176.3771007495
 20
170.7367087166
 10
175.941889063
 20
171.4269914242
 10
175.3056521409
 20
172.0631594087
 10
174.4877217203
 20
172.6258830277
 10
173.512950203
 20
173.0980642089
 10
172.4109555283
 20
173.465355966
 10
171.2152212469
 20
173.7165983248
 10
169.9620791397
 20
173.8441574134
 10
168.6896052955
 20
173.8441574134
 10
167.4364631884
 20
173.7165983248
 10
166.2407289069
 20
173.465355966
 10
165.1387342322
 20
173.0980642089
 10
164.1639627149
 20
172.6258830277
 10
163.3460322943
 20
172.0631594087
 10
162.7097953722
 20
171.4269914242
 10
162.2745836857
 20
170.7367087166
 10
162.0536209215
 20
170.0132851767
 10
162.0536209215
 20
169.2787016625
 10
162.2745836857
 20
168.5552781225
 10
162.7097953722
 20
167.8649954149
 10
163.3460322943
 20
167.2288274304
 10
164.1639627149
 20
166.6661038114
  0
LWPOLYLINE
  5
22C
330
1F
100
AcDbEntity
  8
0
  6
Continuous
 62
     7
370
    25
100
AcDbPolyline
 90
       37
 70
   128
 43
0.0
 10
189.6198068377
 20
181.3614498242
 10
190.594578355
 20
180.889268643
 10
191.6965730296
 20
180.521976886
 10
192.8923073111
 20
180.2707345272
 10
194.1454494183
 20
180.1431754386
 10
195.4179232624
 20
180.1431754386
 10
196.6710653696
 20
180.2707345272
 10
197.866799651
 20
180.521976886
 10
198.9687943257
 20
180.889268643
 10
199.943565843
 20
181.3614498242
 10
200.7614962636
 20
181.9241734433
 10
201.3977331857
 20
182.5603414277
 10
201.8329448722
 20
183.2506241353
 10
202.0539076364
 20
183.9740476753
 10
202.0539076364
 20
184.7086311895
 10
201.8329448722
 20
185.4320547294
 10
201.3977331857
 20
186.122337437
 10
200.7614962636
 20
186.7585054215
 10
199.943565843
 20
187.3212290405
 10
198.9687943257
 20
187.7934102217
 10
197.866799651
 20
188.1607019788
 10
196.6710653696
 20
188.4119443376
 10
195.4179232624
 20
188.5395034262
 10
194.1454494183
 20
188.5395034262
 10
192.8923073111
 20
188.4119443376
 10
191.6965730296
 20
188.1607019788
 10
190.594578355
 20
187.7934102217
 10
189.6198068377
 20
187.3212290405
 10
188.801876417
 20
186.7585054215
 10
188.165639495
 20
186.122337437
 10
187.7304278084
 20
185.4320547294
 10
187.5094650443
 20
184.7086311895
 10
187.5094650443
 20
183.9740476753
 10
187.7304278084
 20
183.2506241353
 10
188.165639495
 20
182.5603414277
 10
188.801876417
 20
181.9241734433
 10
189.6198068377
 20
181.3614498242
  0
LWPOLYLINE
  5
22D
330
1F
100
AcDbEntity
  8
0
  6
Continuous
 62
     7
370
    25
100
AcDbPolyline
 90
       37
 70
   128
 43
0.0
 10
164.1639627149
 20
196.056795837
 10
165.1387342322
 20
195.5846146559
 10
166.2407289069
 20
195.2173228988
 10
167.4364631884
 20
194.96608054
 10
168.6896052955
 20
194.8385214514
 10
169.9620791397
 20
194.8385214514
 10
171.2152212469
 20
194.96608054
 10
172.4109555283
 20
195.2173228988
 10
173.512950203
 20
195.5846146559
 10
174.4877217203
 20
196.056795837
 10
175.3056521409
 20
196.6195194561
 10
175.941889063
 20
197.2556874405
 10
176.3771007495
 20
197.9459701481
 10
176.5980635137
 20
198.6693936881
 10
176.5980635137
 20
199.4039772023
 10
176.3771007495
 20
200.1274007422
 10
175.941889063
 20
200.8176834499
 10
175.3056521409
 20
201.4538514343
 10
174.4877217203
 20
202.0165750533
 10
173.512950203
 20
202.4887562345
 10
172.4109555283
 20
202.8560479916
 10
171.2152212469
 20
203.1072903504
 10
169.9620791397
 20
203.234849439
 10
168.6896052955
 20
203.234849439
 10
167.4364631884
 20
203.1072903504
 10
166.2407289069
 20
202.8560479916
 10
165.1387342322
 20
202.4887562345
 10
164.1639627149
 20
202.0165750533
 10
163.3460322943
 20
201.4538514343
 10
162.7097953722
 20
200.8176834499
 10
162.2745836857
 20
200.1274007422
 10
162.0536209215
 20
199.4039772023
 10
162.0536209215
 20
198.6693936881
 10
162.2745836857
 20
197.9459701481
 10
162.7097953722
 20
197.2556874405
 10
163.3460322943
 20
196.6195194561
 10
164.1639627149
 20
196.056795837
  0
LWPOLYLINE
  5
22E
330
1F
100
AcDbEntity
  8
0
  6
Continuous
 62
     7
370
    25
100
AcDbPolyline
 90
       27
 70
   128
 43
0.0
 10
104.2720183484
 20
192.5054205506
 10
105.0310942165
 20
192.1621087233
 10
105.9104332578
 20
191.9336422754
 10
106.8589314835
 20
191.8332988464
 10
107.8214656244
 20
191.8669100317
 10
108.742096695
 20
192.0325224713
 10
109.5673209637
 20
192.3205113722
 10
110.2491793956
 20
192.7141398663
 10
110.7480448572
 20
193.1905316964
 10
111.034925101
 20
193.7220007008
 10
111.0931476901
 20
194.2776598328
 10
110.9193289392
 20
194.8252162034
 10
110.5235705624
 20
195.3328478267
 10
109.9288725979
 20
195.7710529979
 10
109.1697967299
 20
196.1143648252
 10
108.2904576886
 20
196.3428312731
 10
107.3419594629
 20
196.4431747021
 10
106.3794253219
 20
196.4095635168
 10
105.4587942514
 20
196.2439510772
 10
104.6335699827
 20
195.9559621763
 10
103.9517115508
 20
195.5623336822
 10
103.4528460892
 20
195.0859418521
 10
103.1659658454
 20
194.5544728477
 10
103.1077432563
 20
193.9988137157
 10
103.2815620072
 20
193.4512573451
 10
103.677320384
 20
192.9436257218
 10
104.2720183484
 20
192.5054205506
  0
LWPOLYLINE
  5
22F
330
1F
100
AcDbEntity
  8
0
  6
Continuous
 62
     7
370
    25
100
AcDbPolyline
 90
       27
 70
   128
 43
0.0
 10
149.5268523444
 20
218.6304801289
 10
150.2859282124
 20
218.2871683016
 10
151.1652672537
 20
218.0587018538
 10
152.1137654794
 20
217.9583584248
 10
153.0762996204
 20
217.99196961
 10
153.9969306909
 20
218.1575820496
 10
154.8221549596
 20
218.4455709505
 10
155.5040133916
 20
218.8391994447
 10
156.0028788531
 20
219.3155912747
 10
156.2897590969
 20
219.8470602791
 10
156.347981686
 20
220.4027194111
 10
156.1741629352
 20
220.9502757818
 10
155.7784045583
 20
221.4579074051
 10
155.1837065939
 20
221.8961125762
 10
154.4246307258
 20
222.2394244035
 10
153.5452916846
 20
222.4678908514
 10
152.5967934588
 20
222.5682342804
 10
151.6342593179
 20
222.5346230952
 10
150.7136282473
 20
222.3690106556
 10
149.8884039786
 20
222.0810217546
 10
149.2065455467
 20
221.6873932605
 10
148.7076800852
 20
221.2110014305
 10
148.4207998413
 20
220.6795324261
 10
148.3625772522
 20
220.123873294
 10
148.5363960031
 20
219.5763169234
 10
148.9321543799
 20
219.0686853001
 10
149.5268523444
 20
218.6304801289
  0
LWPOLYLINE
  5
230
330
1F
100
AcDbEntity
  8
0
  6
Continuous
 62
     7
370
    25
100
AcDbPolyline
 90
       27
 70
   128
 43
0.0
 10
285.2913543322
 20
88.0051822373
 10
286.0504302002
 20
87.66187041
 10
286.9297692415
 20
87.4334039621
 10
287.8782674673
 20
87.3330605331
 10
288.8408016082
 20
87.3666717184
 10
289.7614326788
 20
87.532284158
 10
290.5866569475
 20
87.8202730589
 10
291.2685153794
 20
88.213901553
 10
291.7673808409
 20
88.6902933831
 10
292.0542610847
 20
89.2217623875
 10
292.1124836738
 20
89.7774215195
 10
291.938664923
 20
90.3249778901
 10
291.5429065462
 20
90.8326095134
 10
290.9482085817
 20
91.2708146846
 10
290.1891327137
 20
91.6141265119
 10
289.3097936724
 20
91.8425929598
 10
288.3612954466
 20
91.9429363888
 10
287.3987613057
 20
91.9093252035
 10
286.4781302351
 20
91.7437127639
 10
285.6529059664
 20
91.455723863
 10
284.9710475345
 20
91.0620953689
 10
284.472182073
 20
90.5857035388
 10
284.1853018292
 20
90.0542345344
 10
284.1270792401
 20
89.4985754024
 10
284.3008979909
 20
88.9510190318
 10
284.6966563677
 20
88.4433874085
 10
285.2913543322
 20
88.0051822373
  0
LWPOLYLINE
  5
231
330
1F
100
AcDbEntity
  8
0
  6
Continuous
 62
     7
370
    25
100
AcDbPolyline
 90
       27
 70
   128
 43
0.0
 10
330.5461883281
 20
114.1302418156
 10
331.3052641962
 20
113.7869299883
 10
332.1846032375
 20
113.5584635404
 10
333.1331014632
 20
113.4581201114
 10
334.0956356041
 20
113.4917312967
 10
335.0162666747
 20
113.6573437363
 10
335.8414909434
 20
113.9453326372
 10
336.5233493753
 20
114.3389611314
 10
337.0222148369
 20
114.8153529614
 10
337.3090950807
 20
115.3468219658
 10
337.3673176698
 20
115.9024810978
 10
337.1934989189
 20
116.4500374685
 10
336.7977405421
 20
116.9576690918
 10
336.2030425776
 20
117.3958742629
 10
335.4439667096
 20
117.7391860902
 10
334.5646276683
 20
117.9676525381
 10
333.6161294426
 20
118.0679959671
 10
332.6535953016
 20
118.0343847818
 10
331.7329642311
 20
117.8687723422
 10
330.9077399624
 20
117.5807834413
 10
330.2258815304
 20
117.1871549472
 10
329.7270160689
 20
116.7107631172
 10
329.4401358251
 20
116.1792941128
 10
329.381913236
 20
115.6236349807
 10
329.5557319869
 20
115.0760786101
 10
329.9514903637
 20
114.5684469868
 10
330.5461883281
 20
114.1302418156
  0
LINE
  5
232
330
1F
100
AcDbEntity
  8
0
  6
Continuous
 62
     7
370
    25
100
AcDbLine
 10
290.9482085817
 20
71.6770200008
 30
0.0
 11
290.9482085817
 21
65.1446935058
 31
0.0
  0
ARC
  5
233
330
1F
100
AcDbEntity
  8
0
  6
Continuous
 62
     7
370
    25
100
AcDbCircle
 10
288.1197814569
 20
70.6035378456
 30
0.0
 40
6.148087631647073
100
AcDbArc
 50
242.6096722366
 51
297.3903277634
  0
LINE
  5
234
330
1F
100
AcDbEntity
  8
0
  6
Continuous
 62
     7
370
    25
100
AcDbLine
 10
285.2913543322
 20
65.1446935058
 30
0.0
 11
285.2913543322
 21
71.6770200008
 31
0.0
  0
LINE
  5
235
330
1F
100
AcDbEntity
  8
0
  6
Continuous
 62
     7
370
    25
100
AcDbLine
 10
75.987747101
 20
192.5054205506
 30
0.0
 11
75.987747101
 21
185.9730940555
 31
0.0
  0
LINE
  5
236
330
1F
100
AcDbEntity
  8
0
  6
Continuous
 62
     7
370
    25
100
AcDbLine
 10
75.987747101
 20
185.9730940555
 30
0.0
 11
285.2913543322
 21
65.1446935058
 31
0.0
  0
LINE
  5
237
330
1F
100
AcDbEntity
  8
0
  6
Continuous
 62
     7
370
    25
100
AcDbLine
 10
364.4873138251
 20
107.5979153205
 30
0.0
 11
364.4873138251
 21
114.1302418156
 31
0.0
  0
LINE
  5
238
330
1F
100
AcDbEntity
  8
0
  6
Continuous
 62
     7
370
    25
100
AcDbLine
 10
290.9482085817
 20
65.1446935058
 30
0.0
 11
364.4873138251
 21
107.5979153205
 31
0.0
  0
LWPOLYLINE
  5
239
330
1F
100
AcDbEntity
  8
0
  6
Continuous
 62
     7
370
    25
100
AcDbPolyline
 90
       18
 70
   128
 43
0.0
 10
274.5302468562
 20
107.1296583105
 10
274.5363894767
 20
107.139431104
 10
274.733241781
 20
107.647829102
 10
274.7048967346
 20
108.1685160643
 10
274.4531353609
 20
108.6687753141
 10
273.993776753
 20
109.117173723
 10
273.3556841016
 20
109.4855367698
 10
272.5789511148
 20
109.7507188496
 10
271.7123827826
 20
109.896057597
 10
270.8104287805
 20
109.912420844
 10
269.9297621956
 20
109.7987804276
 10
269.1257185482
 20
109.5622767931
 10
268.4488188578
 20
109.2177703337
 10
267.9415952214
 20
108.7869076572
 10
267.6359183655
 20
108.2967614502
 10
267.5509950912
 20
107.7781294015
 10
267.69216144
 20
107.2635990701
 10
267.7681905608
 20
107.1296583105
  0
ARC
  5
23A
330
1F
100
AcDbEntity
  8
0
  6
Continuous
 62
     7
370
    25
100
AcDbCircle
 10
363.6570584504
 20
109.4303570518
 30
0.0
 40
2.01175711397487
100
AcDbArc
 50
294.3746582936
 51
354.3052007488
  0
LWPOLYLINE
  5
23B
330
1F
100
AcDbEntity
  8
0
  6
Continuous
 62
     7
370
    25
100
AcDbPolyline
 90
       18
 70
   128
 43
0.0
 10
249.0744027334
 20
121.8250043233
 10
249.080545354
 20
121.8347771169
 10
249.2773976583
 20
122.3431751148
 10
249.2490526119
 20
122.8638620771
 10
248.9972912382
 20
123.3641213269
 10
248.5379326303
 20
123.8125197358
 10
247.8998399789
 20
124.1808827826
 10
247.123106992
 20
124.4460648624
 10
246.2565386599
 20
124.5914036098
 10
245.3545846578
 20
124.6077668568
 10
244.4739180729
 20
124.4941264404
 10
243.6698744255
 20
124.2576228059
 10
242.9929747351
 20
123.9131163465
 10
242.4857510987
 20
123.48225367
 10
242.1800742428
 20
122.992107463
 10
242.0951509684
 20
122.4734754143
 10
242.2363173173
 20
121.9589450829
 10
242.3123464381
 20
121.8250043233
  0
LWPOLYLINE
  5
23C
330
1F
100
AcDbEntity
  8
0
  6
Continuous
 62
     7
370
    25
100
AcDbPolyline
 90
       18
 70
   128
 43
0.0
 10
299.9860909789
 20
121.8250043233
 10
299.9922335994
 20
121.8347771169
 10
300.1890859038
 20
122.3431751148
 10
300.1607408573
 20
122.8638620771
 10
299.9089794836
 20
123.3641213269
 10
299.4496208757
 20
123.8125197358
 10
298.8115282243
 20
124.1808827826
 10
298.0347952375
 20
124.4460648624
 10
297.1682269053
 20
124.5914036098
 10
296.2662729032
 20
124.6077668568
 10
295.3856063183
 20
124.4941264404
 10
294.5815626709
 20
124.2576228059
 10
293.9046629805
 20
123.9131163465
 10
293.3974393441
 20
123.48225367
 10
293.0917624882
 20
122.992107463
 10
293.0068392139
 20
122.4734754143
 10
293.1480055627
 20
121.9589450829
 10
293.2240346835
 20
121.8250043233
  0
LWPOLYLINE
  5
23D
330
1F
100
AcDbEntity
  8
0
  6
Continuous
 62
     7
370
    25
100
AcDbPolyline
 90
       18
 70
   128
 43
0.0
 10
274.5302468561
 20
136.5203503361
 10
274.5363894767
 20
136.5301231297
 10
274.733241781
 20
137.0385211276
 10
274.7048967346
 20
137.5592080899
 10
274.4531353609
 20
138.0594673397
 10
273.993776753
 20
138.5078657486
 10
273.3556841016
 20
138.8762287954
 10
272.5789511148
 20
139.1414108752
 10
271.7123827826
 20
139.2867496226
 10
270.8104287805
 20
139.3031128696
 10
269.9297621956
 20
139.1894724532
 10
269.1257185482
 20
138.9529688187
 10
268.4488188578
 20
138.6084623593
 10
267.9415952214
 20
138.1775996828
 10
267.6359183655
 20
137.6874534758
 10
267.5509950912
 20
137.1688214271
 10
267.69216144
 20
136.6542910957
 10
267.7681905608
 20
136.5203503361
  0
LWPOLYLINE
  5
23E
330
1F
100
AcDbEntity
  8
0
  6
Continuous
 62
     7
370
    25
100
AcDbPolyline
 90
       18
 70
   128
 43
0.0
 10
172.7068703653
 20
165.9110423618
 10
172.7130129858
 20
165.9208151553
 10
172.9098652902
 20
166.4292131532
 10
172.8815202437
 20
166.9499001155
 10
172.6297588701
 20
167.4501593653
 10
172.1704002622
 20
167.8985577742
 10
171.5323076108
 20
168.266920821
 10
170.7555746239
 20
168.5321029008
 10
169.8890062918
 20
168.6774416482
 10
168.9870522897
 20
168.6938048952
 10
168.1063857047
 20
168.5801644788
 10
167.3023420573
 20
168.3436608444
 10
166.6254423669
 20
167.9991543849
 10
166.1182187305
 20
167.5682917084
 10
165.8125418746
 20
167.0781455014
 10
165.7276186003
 20
166.5595134527
 10
165.8687849492
 20
166.0449831213
 10
165.9448140699
 20
165.9110423618
  0
LWPOLYLINE
  5
23F
330
1F
100
AcDbEntity
  8
0
  6
Continuous
 62
     7
370
    25
100
AcDbPolyline
 90
       18
 70
   128
 43
0.0
 10
198.162714488
 20
180.6063883746
 10
198.1688571086
 20
180.6161611681
 10
198.3657094129
 20
181.124559166
 10
198.3373643665
 20
181.6452461283
 10
198.0856029928
 20
182.1455053781
 10
197.6262443849
 20
182.593903787
 10
196.9881517335
 20
182.9622668338
 10
196.2114187466
 20
183.2274489136
 10
195.3448504145
 20
183.372787661
 10
194.4428964124
 20
183.389150908
 10
193.5622298274
 20
183.2755104916
 10
192.7581861801
 20
183.0390068572
 10
192.0812864897
 20
182.6945003978
 10
191.5740628532
 20
182.2636377213
 10
191.2683859973
 20
181.7734915142
 10
191.183462723
 20
181.2548594655
 10
191.3246290719
 20
180.7403291341
 10
191.4006581926
 20
180.6063883746
  0
LWPOLYLINE
  5
240
330
1F
100
AcDbEntity
  8
0
  6
Continuous
 62
     7
370
    25
100
AcDbPolyline
 90
       18
 70
   128
 43
0.0
 10
147.2510262426
 20
180.6063883746
 10
147.2571688631
 20
180.6161611681
 10
147.4540211675
 20
181.124559166
 10
147.425676121
 20
181.6452461283
 10
147.1739147474
 20
182.1455053781
 10
146.7145561394
 20
182.593903787
 10
146.076463488
 20
182.9622668338
 10
145.2997305012
 20
183.2274489136
 10
144.433162169
 20
183.372787661
 10
143.5312081669
 20
183.389150908
 10
142.650541582
 20
183.2755104916
 10
141.8464979346
 20
183.0390068572
 10
141.1695982442
 20
182.6945003978
 10
140.6623746078
 20
182.2636377213
 10
140.3566977519
 20
181.7734915142
 10
140.2717744776
 20
181.2548594655
 10
140.4129408265
 20
180.7403291341
 10
140.4889699472
 20
180.6063883746
  0
ARC
  5
241
330
1F
100
AcDbEntity
  8
0
  6
Continuous
 62
     7
370
    25
100
AcDbCircle
 10
76.8180024757
 20
187.8055357868
 30
0.0
 40
2.011757113974939
100
AcDbArc
 50
185.6947992512
 51
245.6253417064
  0
LWPOLYLINE
  5
242
330
1F
100
AcDbEntity
  8
0
  6
Continuous
 62
     7
370
    25
100
AcDbPolyline
 90
       18
 70
   128
 43
0.0
 10
172.7068703653
 20
195.3017343874
 10
172.7130129858
 20
195.3115071809
 10
172.9098652902
 20
195.8199051788
 10
172.8815202437
 20
196.3405921411
 10
172.6297588701
 20
196.8408513909
 10
172.1704002622
 20
197.2892497998
 10
171.5323076108
 20
197.6576128466
 10
170.7555746239
 20
197.9227949264
 10
169.8890062918
 20
198.0681336738
 10
168.9870522897
 20
198.0844969208
 10
168.1063857047
 20
197.9708565044
 10
167.3023420573
 20
197.73435287
 10
166.6254423669
 20
197.3898464106
 10
166.1182187305
 20
196.9589837341
 10
165.8125418746
 20
196.468837527
 10
165.7276186003
 20
195.9502054783
 10
165.8687849492
 20
195.4356751469
 10
165.9448140699
 20
195.3017343874
  0
ENDSEC
  0
SECTION
  2
OBJECTS
  0
DICTIONARY
  5
C
330
0
100
AcDbDictionary
281
     1
  3
ACAD_GROUP
350
D
  3
ACAD_LAYOUT
350
1A
  3
ACAD_MLINESTYLE
350
17
  3
ACAD_PLOTSETTINGS
350
19
  3
ACAD_PLOTSTYLENAME
350
E
  3
ACAD_SCALELIST
350
47
  3
DWGPROPS
350
243
  0
DICTIONARY
  5
D
102
{ACAD_REACTORS
330
C
102
}
330
C
100
AcDbDictionary
281
     1
  0
DICTIONARY
  5
1A
102
{ACAD_REACTORS
330
C
102
}
330
C
100
AcDbDictionary
281
     1
  3
Layout1
350
1E
  3
Layout2
350
26
  3
Model
350
22
  0
DICTIONARY
  5
17
102
{ACAD_REACTORS
330
C
102
}
330
C
100
AcDbDictionary
281
     1
  3
Standard
350
18
  0
DICTIONARY
  5
19
102
{ACAD_REACTORS
330
C
102
}
330
C
100
AcDbDictionary
281
     1
  0
ACDBDICTIONARYWDFLT
  5
E
102
{ACAD_REACTORS
330
C
102
}
330
C
100
AcDbDictionary
281
     1
  3
Normal
350
F
100
AcDbDictionaryWithDefault
340
F
  0
DICTIONARY
  5
47
102
{ACAD_REACTORS
330
C
102
}
330
C
100
AcDbDictionary
281
     1
  3
A0
350
48
  3
A1
350
49
  3
A2
350
4A
  3
A3
350
4B
  3
A4
350
4C
  3
A5
350
4D
  3
A6
350
4E
  3
A7
350
4F
  3
A8
350
50
  3
A9
350
51
  3
B0
350
52
  3
B1
350
53
  3
B2
350
54
  3
B3
350
55
  3
B4
350
56
  3
B5
350
57
  3
B6
350
58
  0
XRECORD
  5
243
102
{ACAD_REACTORS
330
C
102
}
330
C
100
AcDbXrecord
280
     1
  1
DWGPROPS COOKIE
  2

  3

  4

  6

  7

  8
Simone Malighetti
  9

300
=
301
=
302
=
303
=
304
=
305
=
306
=
307
=
308
=
309
=
 40
0.0
 41
2460321.608986366
 42
2460321.608989491
  1

 90
        0
  0
LAYOUT
  5
1E
102
{ACAD_REACTORS
330
1A
102
}
330
1A
100
AcDbPlotSettings
  1

  2
none_device
  4

  6

 40
0.0
 41
0.0
 42
0.0
 43
0.0
 44
0.0
 45
0.0
 46
0.0
 47
0.0
 48
0.0
 49
0.0
140
0.0
141
0.0
142
1.0
143
1.0
 70
   688
 72
     1
 73
     0
 74
     5
  7

 75
    16
147
1.0
148
0.0
149
0.0
100
AcDbLayout
  1
Layout1
 70
     1
 71
     1
 10
0.0
 20
0.0
 11
420.0
 21
297.0
 12
0.0
 22
0.0
 32
0.0
 14
1.0000000000E+20
 24
1.0000000000E+20
 34
1.0000000000E+20
 15
-1.0000000000E+20
 25
-1.0000000000E+20
 35
-1.0000000000E+20
146
0.0
 13
0.0
 23
0.0
 33
0.0
 16
1.0
 26
0.0
 36
0.0
 17
0.0
 27
1.0
 37
0.0
 76
     0
330
1B
  0
LAYOUT
  5
26
102
{ACAD_REACTORS
330
1A
102
}
330
1A
100
AcDbPlotSettings
  1

  2
none_device
  4

  6

 40
0.0
 41
0.0
 42
0.0
 43
0.0
 44
0.0
 45
0.0
 46
0.0
 47
0.0
 48
0.0
 49
0.0
140
0.0
141
0.0
142
1.0
143
1.0
 70
   688
 72
     1
 73
     0
 74
     5
  7

 75
    16
147
1.0
148
0.0
149
0.0
100
AcDbLayout
  1
Layout2
 70
     1
 71
     2
 10
0.0
 20
0.0
 11
0.0
 21
0.0
 12
0.0
 22
0.0
 32
0.0
 14
0.0
 24
0.0
 34
0.0
 15
0.0
 25
0.0
 35
0.0
146
0.0
 13
0.0
 23
0.0
 33
0.0
 16
1.0
 26
0.0
 36
0.0
 17
0.0
 27
1.0
 37
0.0
 76
     0
330
23
  0
LAYOUT
  5
22
102
{ACAD_REACTORS
330
1A
102
}
330
1A
100
AcDbPlotSettings
  1

  2
none_device
  4
Letter_(8.50_x_11.00_Inches)
  6

 40
6.35
 41
6.35
 42
6.35000508
 43
6.35000508
 44
215.9
 45
279.4
 46
0.0
 47
0.0
 48
0.0
 49
0.0
140
0.0
141
0.0
142
1.0
143
1.0
 70
  1712
 72
     1
 73
     0
 74
     0
  7

 75
     0
147
1.0
148
0.0
149
0.0
100
AcDbLayout
  1
Model
 70
     1
 71
     0
 10
0.0
 20
0.0
 11
1188.0
 21
840.0
 12
0.0
 22
0.0
 32
0.0
 14
0.0
 24
0.0
 34
0.0
 15
1188.0
 25
840.0
 35
0.0
146
0.0
 13
0.0
 23
0.0
 33
0.0
 16
1.0
 26
0.0
 36
0.0
 17
0.0
 27
1.0
 37
0.0
 76
     0
330
1F
331
29
  0
MLINESTYLE
  5
18
102
{ACAD_REACTORS
330
17
102
}
330
17
100
AcDbMlineStyle
  2
Standard
 70
     0
  3

 62
   256
 51
90.0
 52
90.0
 71
     2
 49
0.5
 62
   256
  6
BYLAYER
 49
-0.5
 62
   256
  6
BYLAYER
  0
ACDBPLACEHOLDER
  5
F
102
{ACAD_REACTORS
330
E
102
}
330
E
  0
SCALE
  5
48
102
{ACAD_REACTORS
330
47
102
}
330
47
100
AcDbScale
 70
     0
300
1:1
140
1.0
141
1.0
290
     1
  0
SCALE
  5
49
102
{ACAD_REACTORS
330
47
102
}
330
47
100
AcDbScale
 70
     0
300
1:2
140
1.0
141
2.0
290
     0
  0
SCALE
  5
4A
102
{ACAD_REACTORS
330
47
102
}
330
47
100
AcDbScale
 70
     0
300
1:4
140
1.0
141
4.0
290
     0
  0
SCALE
  5
4B
102
{ACAD_REACTORS
330
47
102
}
330
47
100
AcDbScale
 70
     0
300
1:5
140
1.0
141
5.0
290
     0
  0
SCALE
  5
4C
102
{ACAD_REACTORS
330
47
102
}
330
47
100
AcDbScale
 70
     0
300
1:8
140
1.0
141
8.0
290
     0
  0
SCALE
  5
4D
102
{ACAD_REACTORS
330
47
102
}
330
47
100
AcDbScale
 70
     0
300
1:10
140
1.0
141
10.0
290
     0
  0
SCALE
  5
4E
102
{ACAD_REACTORS
330
47
102
}
330
47
100
AcDbScale
 70
     0
300
1:16
140
1.0
141
16.0
290
     0
  0
SCALE
  5
4F
102
{ACAD_REACTORS
330
47
102
}
330
47
100
AcDbScale
 70
     0
300
1:20
140
1.0
141
20.0
290
     0
  0
SCALE
  5
50
102
{ACAD_REACTORS
330
47
102
}
330
47
100
AcDbScale
 70
     0
300
1:30
140
1.0
141
30.0
290
     0
  0
SCALE
  5
51
102
{ACAD_REACTORS
330
47
102
}
330
47
100
AcDbScale
 70
     0
300
1:40
140
1.0
141
40.0
290
     0
  0
SCALE
  5
52
102
{ACAD_REACTORS
330
47
102
}
330
47
100
AcDbScale
 70
     0
300
1:50
140
1.0
141
50.0
290
     0
  0
SCALE
  5
53
102
{ACAD_REACTORS
330
47
102
}
330
47
100
AcDbScale
 70
     0
300
1:100
140
1.0
141
100.0
290
     0
  0
SCALE
  5
54
102
{ACAD_REACTORS
330
47
102
}
330
47
100
AcDbScale
 70
     0
300
2:1
140
2.0
141
1.0
290
     0
  0
SCALE
  5
55
102
{ACAD_REACTORS
330
47
102
}
330
47
100
AcDbScale
 70
     0
300
4:1
140
4.0
141
1.0
290
     0
  0
SCALE
  5
56
102
{ACAD_REACTORS
330
47
102
}
330
47
100
AcDbScale
 70
     0
300
8:1
140
8.0
141
1.0
290
     0
  0
SCALE
  5
57
102
{ACAD_REACTORS
330
47
102
}
330
47
100
AcDbScale
 70
     0
300
10:1
140
10.0
141
1.0
290
     0
  0
SCALE
  5
58
102
{ACAD_REACTORS
330
47
102
}
330
47
100
AcDbScale
 70
     0
300
100:1
140
100.0
141
1.0
290
     0
  0
ENDSEC
  0
EOF
