  0
SECTION
  2
HEADER
  9
$ACADVER
  1
AC1012
  9
$DWGCODEPAGE
  3
ansi_1252
  9
$INSBASE
 10
0.0
 20
0.0
 30
0.0
  9
$EXTMIN
 10
0.0
 20
0.0
 30
0.0
  9
$EXTMAX
 10
630.0
 20
891.0
 30
0.0
  9
$LIMMIN
 10
0.0
 20
0.0
  9
$LIMMAX
 10
630.0
 20
891.0
  9
$ORTHOMODE
 70
     0
  9
$REGENMODE
 70
     1
  9
$FILLMODE
 70
     1
  9
$QTEXTMODE
 70
     0
  9
$MIRRTEXT
 70
     1
  9
$DRAGMODE
 70
     2
  9
$LTSCALE
 40
3.0
  9
$OSMODE
 70
    37
  9
$ATTMODE
 70
     1
  9
$TEXTSIZE
 40
9.0
  9
$TRACEWID
 40
1.0
  9
$TEXTSTYLE
  7
STANDARD
  9
$CLAYER
  8
0
  9
$CELTYPE
  6
BYLAYER
  9
$CECOLOR
 62
   256
  9
$CELTSCALE
 40
1.0
  9
$DELOBJ
 70
     1
  9
$DISPSILH
 70
     0
  9
$DIMSCALE
 40
1.0
  9
$DIMASZ
 40
9.0
  9
$DIMEXO
 40
3.0
  9
$DIMDLI
 40
3.75
  9
$DIMRND
 40
0.0
  9
$DIMDLE
 40
0.0
  9
$DIMEXE
 40
3.0
  9
$DIMTP
 40
0.0
  9
$DIMTM
 40
0.0
  9
$DIMTXT
 40
8.4
  9
$DIMCEN
 40
2.5
  9
$DIMTSZ
 40
0.0
  9
$DIMTOL
 70
     0
  9
$DIMLIM
 70
     0
  9
$DIMTIH
 70
     1
  9
$DIMTOH
 70
     1
  9
$DIMSE1
 70
     0
  9
$DIMSE2
 70
     0
  9
$DIMTAD
 70
     1
  9
$DIMZIN
 70
     0
  9
$DIMBLK
  1

  9
$DIMASO
 70
     1
  9
$DIMSHO
 70
     1
  9
$DIMPOST
  1

  9
$DIMAPOST
  1

  9
$DIMALT
 70
     0
  9
$DIMALTD
 70
     3
  9
$DIMALTF
 40
0.0393700787
  9
$DIMLFAC
 40
1.0
  9
$DIMTOFL
 70
     1
  9
$DIMTVP
 40
0.0
  9
$DIMTIX
 70
     0
  9
$DIMSOXD
 70
     0
  9
$DIMSAH
 70
     0
  9
$DIMBLK1
  1

  9
$DIMBLK2
  1

  9
$DIMSTYLE
  2
ISO-25
  9
$DIMCLRD
 70
     0
  9
$DIMCLRE
 70
     0
  9
$DIMCLRT
 70
     0
  9
$DIMTFAC
 40
1.0
  9
$DIMGAP
 40
4.572
  9
$DIMJUST
 70
     0
  9
$DIMSD1
 70
     0
  9
$DIMSD2
 70
     0
  9
$DIMTOLJ
 70
     0
  9
$DIMTZIN
 70
     0
  9
$DIMALTZ
 70
     0
  9
$DIMALTTZ
 70
     0
  9
$DIMFIT
 70
     3
  9
$DIMUPT
 70
     0
  9
$DIMUNIT
 70
     2
  9
$DIMDEC
 70
     2
  9
$DIMTDEC
 70
     2
  9
$DIMALTU
 70
     2
  9
$DIMALTTD
 70
     3
  9
$DIMTXSTY
  7
STANDARD
  9
$DIMAUNIT
 70
     0
  9
$LUNITS
 70
     2
  9
$LUPREC
 70
     2
  9
$SKETCHINC
 40
1.0
  9
$FILLETRAD
 40
10.0
  9
$AUNITS
 70
     0
  9
$AUPREC
 70
     2
  9
$MENU
  1
.
  9
$ELEVATION
 40
0.0
  9
$PELEVATION
 40
0.0
  9
$THICKNESS
 40
0.0
  9
$LIMCHECK
 70
     0
  9
$CHAMFERA
 40
0.0
  9
$CHAMFERB
 40
0.0
  9
$CHAMFERC
 40
0.0
  9
$CHAMFERD
 40
0.0
  9
$SKPOLY
 70
     0
  9
$TDCREATE
 40
2459606.549366504
  9
$TDUPDATE
 40
2459606.549374363
  9
$TDINDWG
 40
0.0000000116
  9
$TDUSRTIMER
 40
0.0000000116
  9
$USRTIMER
 70
     1
  9
$ANGBASE
 50
0.0
  9
$ANGDIR
 70
     0
  9
$PDMODE
 70
     0
  9
$PDSIZE
 40
-1.0
  9
$PLINEWID
 40
0.0
  9
$COORDS
 70
     1
  9
$SPLFRAME
 70
     0
  9
$SPLINETYPE
 70
     6
  9
$SPLINESEGS
 70
     8
  9
$ATTDIA
 70
     0
  9
$ATTREQ
 70
     1
  9
$HANDLING
 70
     1
  9
$HANDSEED
  5
439
  9
$SURFTAB1
 70
     6
  9
$SURFTAB2
 70
     6
  9
$SURFTYPE
 70
     6
  9
$SURFU
 70
     6
  9
$SURFV
 70
     6
  9
$UCSNAME
  2

  9
$UCSORG
 10
0.0
 20
0.0
 30
0.0
  9
$UCSXDIR
 10
1.0
 20
0.0
 30
0.0
  9
$UCSYDIR
 10
0.0
 20
1.0
 30
0.0
  9
$PUCSNAME
  2

  9
$PUCSORG
 10
0.0
 20
0.0
 30
0.0
  9
$PUCSXDIR
 10
1.0
 20
0.0
 30
0.0
  9
$PUCSYDIR
 10
0.0
 20
1.0
 30
0.0
  9
$USERI1
 70
     0
  9
$USERI2
 70
     0
  9
$USERI3
 70
     0
  9
$USERI4
 70
     0
  9
$USERI5
 70
     0
  9
$USERR1
 40
0.0
  9
$USERR2
 40
0.0
  9
$USERR3
 40
0.0
  9
$USERR4
 40
0.0
  9
$USERR5
 40
0.0
  9
$WORLDVIEW
 70
     1
  9
$SHADEDGE
 70
     3
  9
$SHADEDIF
 70
    70
  9
$TILEMODE
 70
     1
  9
$MAXACTVP
 70
    64
  9
$PINSBASE
 10
0.0
 20
0.0
 30
0.0
  9
$PLIMCHECK
 70
     0
  9
$PEXTMIN
 10
1.0000000000E+20
 20
1.0000000000E+20
 30
1.0000000000E+20
  9
$PEXTMAX
 10
-1.0000000000E+20
 20
-1.0000000000E+20
 30
-1.0000000000E+20
  9
$PLIMMIN
 10
0.0
 20
0.0
  9
$PLIMMAX
 10
420.0
 20
297.0
  9
$UNITMODE
 70
     0
  9
$VISRETAIN
 70
     1
  9
$PLINEGEN
 70
     0
  9
$PSLTSCALE
 70
     1
  9
$TREEDEPTH
 70
  3020
  9
$PICKSTYLE
 70
     1
  9
$CMLSTYLE
  2
STANDARD
  9
$CMLJUST
 70
     0
  9
$CMLSCALE
 40
20.0
  9
$SAVEIMAGES
 70
     1
  0
ENDSEC
  0
SECTION
  2
CLASSES
  0
CLASS
  1
ACDBDICTIONARYWDFLT
  2
AcDbDictionaryWithDefault
  3
ObjectDBX Classes
 90
    32768
280
     0
281
     0
  0
CLASS
  1
VISUALSTYLE
  2
AcDbVisualStyle
  3
ObjectDBX Classes
 90
     4095
280
     0
281
     0
  0
CLASS
  1
MATERIAL
  2
AcDbMaterial
  3
ObjectDBX Classes
 90
     1153
280
     0
281
     0
  0
CLASS
  1
SCALE
  2
AcDbScale
  3
ObjectDBX Classes
 90
     1153
280
     0
281
     0
  0
CLASS
  1
TABLESTYLE
  2
AcDbTableStyle
  3
ObjectDBX Classes
 90
     4095
280
     0
281
     0
  0
CLASS
  1
MLEADERSTYLE
  2
AcDbMLeaderStyle
  3
ACDB_MLEADERSTYLE_CLASS
 90
     4095
280
     0
281
     0
  0
CLASS
  1
SUN
  2
AcDbSun
  3
SCENEOE
 90
     1153
280
     0
281
     0
  0
CLASS
  1
XRECORD
  2
AcDbXrecord
  3
ObjectDBX Classes
 90
    32768
280
     0
281
     0
  0
ENDSEC
  0
SECTION
  2
TABLES
  0
TABLE
  2
VPORT
  5
8
330
0
100
AcDbSymbolTable
 70
     1
  0
VPORT
  5
29
330
8
100
AcDbSymbolTableRecord
100
AcDbViewportTableRecord
  2
*ACTIVE
 70
     0
 10
0.0
 20
0.0
 11
1.0
 21
1.0
 12
315.0
 22
445.5
 13
0.0
 23
0.0
 14
10.0
 24
10.0
 15
10.0
 25
10.0
 16
0.0
 26
0.0
 36
1.0
 17
0.0
 27
0.0
 37
0.0
 40
891.0
 41
0.7070707071
 42
50.0
 43
0.0
 44
0.0
 50
0.0
 51
0.0
 71
     0
 72
  2000
 73
     1
 74
     3
 75
     0
 76
     0
 77
     0
 78
     0
  0
ENDTAB
  0
TABLE
  2
LTYPE
  5
5
330
0
100
AcDbSymbolTable
 70
     6
  0
LTYPE
  5
14
330
5
100
AcDbSymbolTableRecord
100
AcDbLinetypeTableRecord
  2
BYBLOCK
 70
     0
  3

 72
    65
 73
     0
 40
0.0
  0
LTYPE
  5
15
330
5
100
AcDbSymbolTableRecord
100
AcDbLinetypeTableRecord
  2
BYLAYER
 70
     0
  3

 72
    65
 73
     0
 40
0.0
  0
LTYPE
  5
16
330
5
100
AcDbSymbolTableRecord
100
AcDbLinetypeTableRecord
  2
CONTINUOUS
 70
     0
  3
Solid line
 72
    65
 73
     0
 40
0.0
  0
LTYPE
  5
6E
330
5
100
AcDbSymbolTableRecord
100
AcDbLinetypeTableRecord
  2
HIDDEN
 70
     0
  3
Hidden __ __ __ __ __ __ __ __ __ __ __ __ __ __
 72
    65
 73
     2
 40
1.905
 49
1.27
 74
     0
 49
-0.635
 74
     0
  0
LTYPE
  5
6F
330
5
100
AcDbSymbolTableRecord
100
AcDbLinetypeTableRecord
  2
PHANTOM
 70
     0
  3
Phantom ______  __  __  ______  __  __  ______
 72
    65
 73
     6
 40
12.7
 49
6.35
 74
     0
 49
-1.27
 74
     0
 49
1.27
 74
     0
 49
-1.27
 74
     0
 49
1.27
 74
     0
 49
-1.27
 74
     0
  0
LTYPE
  5
70
330
5
100
AcDbSymbolTableRecord
100
AcDbLinetypeTableRecord
  2
CENTER
 70
     0
  3
Center ____ _ ____ _ ____ _ ____ _ ____ _ ____
 72
    65
 73
     4
 40
10.16
 49
6.35
 74
     0
 49
-1.27
 74
     0
 49
1.27
 74
     0
 49
-1.27
 74
     0
  0
LTYPE
  5
71
330
5
100
AcDbSymbolTableRecord
100
AcDbLinetypeTableRecord
  2
CENTERX2
 70
     0
  3
Center (2x) ________  __  ________  __  _____
 72
    65
 73
     4
 40
20.32
 49
12.7
 74
     0
 49
-2.54
 74
     0
 49
2.54
 74
     0
 49
-2.54
 74
     0
  0
LTYPE
  5
72
330
5
100
AcDbSymbolTableRecord
100
AcDbLinetypeTableRecord
  2
DOT2
 70
     0
  3
Dot (.5x) ........................................
 72
    65
 73
     2
 40
0.635
 49
0.0
 74
     0
 49
-0.635
 74
     0
  0
ENDTAB
  0
TABLE
  2
LAYER
  5
2
330
0
100
AcDbSymbolTable
 70
     3
  0
LAYER
  5
10
330
2
100
AcDbSymbolTableRecord
100
AcDbLayerTableRecord
  2
0
 70
     0
 62
     7
  6
CONTINUOUS
  0
LAYER
  5
73
330
2
100
AcDbSymbolTableRecord
100
AcDbLayerTableRecord
  2
FORMAT
 70
     0
 62
     7
  6
CONTINUOUS
  0
LAYER
  5
74
330
2
100
AcDbSymbolTableRecord
100
AcDbLayerTableRecord
  2
TESTO
 70
     0
 62
   179
  6
CONTINUOUS
  0
ENDTAB
  0
TABLE
  2
STYLE
  5
3
330
0
100
AcDbSymbolTable
 70
     8
  0
STYLE
  5
11
330
3
100
AcDbSymbolTableRecord
100
AcDbTextStyleTableRecord
  2
STANDARD
 70
     0
 40
0.0
 41
1.0
 50
0.0
 71
     0
 42
9.0
  3
txt
  4

  0
STYLE
  5
CB
330
3
100
AcDbSymbolTableRecord
100
AcDbTextStyleTableRecord
  2
SLDTEXTSTYLE0
 70
     0
 40
0.0
 41
0.75
 50
0.0
 71
     0
 42
9.0
  3
TXT
  4

  0
STYLE
  5
D7
330
3
100
AcDbSymbolTableRecord
100
AcDbTextStyleTableRecord
  2
SLDTEXTSTYLE1
 70
     0
 40
0.0
 41
0.6923076923
 50
0.0
 71
     0
 42
9.0
  3
TXT
  4

  0
STYLE
  5
EC
330
3
100
AcDbSymbolTableRecord
100
AcDbTextStyleTableRecord
  2
SLDTEXTSTYLE2
 70
     0
 40
0.0
 41
0.6944444444
 50
0.0
 71
     0
 42
9.0
  3
TXT
  4

  0
STYLE
  5
FD
330
3
100
AcDbSymbolTableRecord
100
AcDbTextStyleTableRecord
  2
SLDTEXTSTYLE3
 70
     0
 40
0.0
 41
0.7329842932
 50
0.0
 71
     0
 42
9.0
  3
TXT
  4

  0
STYLE
  5
102
330
3
100
AcDbSymbolTableRecord
100
AcDbTextStyleTableRecord
  2
SLDTEXTSTYLE4
 70
     0
 40
0.0
 41
0.6436170213
 50
0.0
 71
     0
 42
9.0
  3
TXT
  4

  0
STYLE
  5
10B
330
3
100
AcDbSymbolTableRecord
100
AcDbTextStyleTableRecord
  2
SLDTEXTSTYLE5
 70
     0
 40
0.0
 41
0.605
 50
0.0
 71
     0
 42
9.0
  3
TXT
  4

  0
STYLE
  5
158
330
3
100
AcDbSymbolTableRecord
100
AcDbTextStyleTableRecord
  2
SLDTEXTSTYLE6
 70
     0
 40
0.0
 41
0.7
 50
0.0
 71
     0
 42
9.0
  3
TXT
  4

  0
ENDTAB
  0
TABLE
  2
VIEW
  5
6
330
0
100
AcDbSymbolTable
 70
     0
  0
ENDTAB
  0
TABLE
  2
UCS
  5
7
330
0
100
AcDbSymbolTable
 70
     0
  0
ENDTAB
  0
TABLE
  2
APPID
  5
9
330
0
100
AcDbSymbolTable
 70
     1
  0
APPID
  5
12
330
9
100
AcDbSymbolTableRecord
100
AcDbRegAppTableRecord
  2
ACAD
 70
     0
  0
ENDTAB
  0
TABLE
  2
DIMSTYLE
  5
A
330
0
100
AcDbSymbolTable
 70
     4
  0
DIMSTYLE
105
27
330
A
100
AcDbSymbolTableRecord
100
AcDbDimStyleTableRecord
  2
ISO-25
 70
     0
  3

  4

  5

  6

  7

 40
1.0
 41
2.5
 42
0.625
 43
3.75
 44
1.25
 45
0.0
 46
0.0
 47
0.0
 48
0.0
140
2.5
141
2.5
142
0.0
143
0.0393700787
144
1.0
145
0.0
146
1.0
147
0.625
 71
     0
 72
     0
 73
     0
 74
     0
 75
     0
 76
     0
 77
     1
 78
     8
170
     0
171
     3
172
     1
173
     0
174
     0
175
     0
176
     0
177
     0
178
     0
270
     2
271
     2
272
     2
273
     2
274
     3
340
11
275
     0
280
     0
281
     0
282
     0
283
     0
284
     8
285
     0
286
     0
287
     3
288
     0
  0
DIMSTYLE
105
1C4
102
{ACAD_REACTORS
330
1C3
330
1DB
330
1F1
330
1FD
330
213
330
21F
330
28C
102
}
330
A
100
AcDbSymbolTableRecord
100
AcDbDimStyleTableRecord
  2
SLDDIMSTYLE0
 70
     0
  3

  4

  5

  6

  7

 40
1.0
 41
9.0
 42
0.0625
 43
0.38
 44
0.0
 45
0.000000001
 46
0.0
 47
0.0
 48
0.0
140
8.4
141
0.09
142
0.0
143
25.4
144
1.0
145
0.0
146
1.0
147
2.1
 71
     0
 72
     0
 73
     0
 74
     0
 75
     0
 76
     0
 77
     1
 78
    12
170
     0
171
     2
172
     1
173
     1
174
     0
175
     0
176
     0
177
     0
178
     0
270
     2
271
     2
272
     2
273
     2
274
     2
340
CB
275
     0
280
     0
281
     0
282
     0
283
     1
284
    12
285
     0
286
     0
288
     0
  0
DIMSTYLE
105
1D1
102
{ACAD_REACTORS
330
1D0
330
1E7
330
209
330
22B
330
235
330
23F
330
249
330
253
102
}
330
A
100
AcDbSymbolTableRecord
100
AcDbDimStyleTableRecord
  2
SLDDIMSTYLE1
 70
     0
  3

  4

  5

  6

  7

 40
1.0
 41
9.0
 42
0.0625
 43
0.38
 44
0.0
 45
0.000000001
 46
0.0
 47
0.0
 48
0.0
140
8.4
141
0.09
142
0.0
143
25.4
144
1.0
145
0.0
146
1.0
147
2.1
 71
     0
 72
     0
 73
     0
 74
     0
 75
     0
 76
     0
 77
     1
 78
    12
170
     0
171
     2
172
     0
173
     1
174
     0
175
     0
176
     0
177
     0
178
     0
270
     2
271
     2
272
     2
273
     2
274
     2
340
CB
275
     0
280
     0
281
     0
282
     0
283
     1
284
    12
285
     0
286
     0
287
     3
288
     0
  0
DIMSTYLE
105
25E
102
{ACAD_REACTORS
330
25D
102
}
330
A
100
AcDbSymbolTableRecord
100
AcDbDimStyleTableRecord
  2
SLDDIMSTYLE2
 70
     0
  3

  4

  5

  6

  7

 40
1.0
 41
9.0
 42
0.0625
 43
0.38
 44
0.0
 45
0.000000001
 46
0.0
 47
0.0
 48
0.0
140
8.4
141
0.0
142
0.0
143
25.4
144
1.0
145
0.0
146
1.0
147
2.1
 71
     0
 72
     0
 73
     0
 74
     0
 75
     0
 76
     0
 77
     1
 78
    12
170
     0
171
     2
172
     0
173
     1
174
     0
175
     0
176
     0
177
     0
178
     0
270
     2
271
     2
272
     2
273
     2
274
     2
340
CB
275
     0
280
     0
281
     0
282
     0
283
     1
284
    12
285
     0
286
     0
287
     3
288
     0
  0
ENDTAB
  0
TABLE
  2
BLOCK_RECORD
  5
1
330
0
100
AcDbSymbolTable
 70
    21
  0
BLOCK_RECORD
  5
1F
330
1
100
AcDbSymbolTableRecord
100
AcDbBlockTableRecord
  2
*MODEL_SPACE
  0
BLOCK_RECORD
  5
1B
330
1
100
AcDbSymbolTableRecord
100
AcDbBlockTableRecord
  2
*PAPER_SPACE
  0
BLOCK_RECORD
  5
23
330
1
100
AcDbSymbolTableRecord
100
AcDbBlockTableRecord
  2
*PAPER_SPACE0
  0
BLOCK_RECORD
  5
E8
330
1
100
AcDbSymbolTableRecord
100
AcDbBlockTableRecord
  2
SW_NOTE_0
  0
BLOCK_RECORD
  5
F7
330
1
100
AcDbSymbolTableRecord
100
AcDbBlockTableRecord
  2
SW_NOTE_0_1
  0
BLOCK_RECORD
  5
12A
330
1
100
AcDbSymbolTableRecord
100
AcDbBlockTableRecord
  2
SW_TABLEANNOTATION_0
  0
BLOCK_RECORD
  5
150
330
1
100
AcDbSymbolTableRecord
100
AcDbBlockTableRecord
  2
SW_SYMBOL_HOLE_SINK
  0
BLOCK_RECORD
  5
1C5
330
1
100
AcDbSymbolTableRecord
100
AcDbBlockTableRecord
  2
_D
  0
BLOCK_RECORD
  5
1D2
330
1
100
AcDbSymbolTableRecord
100
AcDbBlockTableRecord
  2
_D_1
  0
BLOCK_RECORD
  5
1DC
330
1
100
AcDbSymbolTableRecord
100
AcDbBlockTableRecord
  2
_D_2
  0
BLOCK_RECORD
  5
1E8
330
1
100
AcDbSymbolTableRecord
100
AcDbBlockTableRecord
  2
_D_3
  0
BLOCK_RECORD
  5
1F2
330
1
100
AcDbSymbolTableRecord
100
AcDbBlockTableRecord
  2
_D_4
  0
BLOCK_RECORD
  5
1FE
330
1
100
AcDbSymbolTableRecord
100
AcDbBlockTableRecord
  2
_D_5
  0
BLOCK_RECORD
  5
20A
330
1
100
AcDbSymbolTableRecord
100
AcDbBlockTableRecord
  2
_D_6
  0
BLOCK_RECORD
  5
214
330
1
100
AcDbSymbolTableRecord
100
AcDbBlockTableRecord
  2
_D_7
  0
BLOCK_RECORD
  5
220
330
1
100
AcDbSymbolTableRecord
100
AcDbBlockTableRecord
  2
_D_8
  0
BLOCK_RECORD
  5
22C
330
1
100
AcDbSymbolTableRecord
100
AcDbBlockTableRecord
  2
_D_9
  0
BLOCK_RECORD
  5
236
330
1
100
AcDbSymbolTableRecord
100
AcDbBlockTableRecord
  2
_D_10
  0
BLOCK_RECORD
  5
240
330
1
100
AcDbSymbolTableRecord
100
AcDbBlockTableRecord
  2
_D_11
  0
BLOCK_RECORD
  5
24A
330
1
100
AcDbSymbolTableRecord
100
AcDbBlockTableRecord
  2
_D_12
  0
BLOCK_RECORD
  5
254
330
1
100
AcDbSymbolTableRecord
100
AcDbBlockTableRecord
  2
_D_13
  0
BLOCK_RECORD
  5
25F
330
1
100
AcDbSymbolTableRecord
100
AcDbBlockTableRecord
  2
_D_14
  0
BLOCK_RECORD
  5
28D
330
1
100
AcDbSymbolTableRecord
100
AcDbBlockTableRecord
  2
_D_15
  0
ENDTAB
  0
ENDSEC
  0
SECTION
  2
BLOCKS
  0
BLOCK
  5
20
330
1F
100
AcDbEntity
  8
0
100
AcDbBlockBegin
  2
*MODEL_SPACE
 70
     0
 10
0.0
 20
0.0
 30
0.0
  3
*MODEL_SPACE
  1

  0
ENDBLK
  5
21
330
1F
100
AcDbEntity
  8
0
100
AcDbBlockEnd
  0
BLOCK
  5
1C
330
1B
100
AcDbEntity
 67
     1
  8
0
100
AcDbBlockBegin
  2
*PAPER_SPACE
 70
     0
 10
0.0
 20
0.0
 30
0.0
  3
*PAPER_SPACE
  1

  0
ENDBLK
  5
1D
330
1B
100
AcDbEntity
 67
     1
  8
0
100
AcDbBlockEnd
  0
BLOCK
  5
24
330
23
100
AcDbEntity
  8
0
100
AcDbBlockBegin
  2
*PAPER_SPACE0
 70
     0
 10
0.0
 20
0.0
 30
0.0
  3
*PAPER_SPACE0
  1

  0
ENDBLK
  5
25
330
23
100
AcDbEntity
  8
0
100
AcDbBlockEnd
  0
BLOCK
  5
E9
330
E8
100
AcDbEntity
  8
0
100
AcDbBlockBegin
  2
SW_NOTE_0
 70
     0
 10
0.0
 20
0.0
 30
0.0
  3
SW_NOTE_0
  1

  0
MTEXT
  5
EB
330
E8
100
AcDbEntity
  8
0
  6
CONTINUOUS
 62
     0
100
AcDbMText
 10
0.0
 20
5.1159875922
 30
0.0
 40
3.96875
 41
0.0
 71
     1
 72
     1
  1
Sistema E
  7
SLDTEXTSTYLE0
  0
MTEXT
  5
ED
330
E8
100
AcDbEntity
  8
0
  6
CONTINUOUS
 62
     0
100
AcDbMText
 10
0.0
 20
-3.1756788037
 30
0.0
 40
3.96875
 41
0.0
 71
     1
 72
     1
  1
UNI  3970
  7
SLDTEXTSTYLE2
  0
ENDBLK
  5
EA
330
E8
100
AcDbEntity
  8
0
100
AcDbBlockEnd
  0
BLOCK
  5
F8
330
F7
100
AcDbEntity
  8
0
100
AcDbBlockBegin
  2
SW_NOTE_0_1
 70
     0
 10
0.0
 20
0.0
 30
0.0
  3
SW_NOTE_0_1
  1

  0
MTEXT
  5
FA
330
F7
100
AcDbEntity
  8
0
  6
CONTINUOUS
 62
     0
100
AcDbMText
 10
0.0
 20
4.0927900738
 30
0.0
 40
3.175
 41
0.0
 71
     1
 72
     1
  1
Deca S.r.l. si riserva tutti i diritti sul presente documento e con quanto rappresentato.
  7
SLDTEXTSTYLE0
  0
MTEXT
  5
FB
330
F7
100
AcDbEntity
  8
0
  6
CONTINUOUS
 62
     0
100
AcDbMText
 10
0.0
 20
-3.1405430016
 30
0.0
 40
3.175
 41
0.0
 71
     1
 72
     1
  1
E' vietato riprodurlo, utilizzarlo e renderlo accessibile a terzi senza autorizzazione scritta
  7
SLDTEXTSTYLE0
  0
ENDBLK
  5
F9
330
F7
100
AcDbEntity
  8
0
100
AcDbBlockEnd
  0
BLOCK
  5
12B
330
12A
100
AcDbEntity
  8
0
100
AcDbBlockBegin
  2
SW_TABLEANNOTATION_0
 70
     0
 10
0.0
 20
0.0
 30
0.0
  3
SW_TABLEANNOTATION_0
  1

  0
LINE
  5
12D
330
12A
100
AcDbEntity
  8
0
  6
CONTINUOUS
 62
     0
100
AcDbLine
 10
0.0
 20
0.0
 30
0.0
 11
0.0
 21
-18.0877088656
 31
0.0
  0
LINE
  5
12E
330
12A
100
AcDbEntity
  8
0
  6
CONTINUOUS
 62
     0
100
AcDbLine
 10
59.0303791535
 20
0.0
 30
0.0
 11
59.0303791535
 21
-18.0877088656
 31
0.0
  0
LINE
  5
12F
330
12A
100
AcDbEntity
  8
0
  6
CONTINUOUS
 62
     0
100
AcDbLine
 10
248.0394729539
 20
0.0
 30
0.0
 11
248.0394729539
 21
-18.0877088656
 31
0.0
  0
LINE
  5
130
330
12A
100
AcDbEntity
  8
0
  6
CONTINUOUS
 62
     0
100
AcDbLine
 10
320.4234308167
 20
0.0
 30
0.0
 11
320.4234308167
 21
-18.0877088656
 31
0.0
  0
LINE
  5
131
330
12A
100
AcDbEntity
  8
0
  6
CONTINUOUS
 62
     0
100
AcDbLine
 10
0.0
 20
0.0
 30
0.0
 11
59.0303791535
 21
0.0
 31
0.0
  0
LINE
  5
132
330
12A
100
AcDbEntity
  8
0
  6
CONTINUOUS
 62
     0
100
AcDbLine
 10
0.0
 20
-18.0877088656
 30
0.0
 11
59.0303791535
 21
-18.0877088656
 31
0.0
  0
LINE
  5
133
330
12A
100
AcDbEntity
  8
0
  6
CONTINUOUS
 62
     0
100
AcDbLine
 10
59.0303791535
 20
0.0
 30
0.0
 11
248.0394729539
 21
0.0
 31
0.0
  0
LINE
  5
134
330
12A
100
AcDbEntity
  8
0
  6
CONTINUOUS
 62
     0
100
AcDbLine
 10
59.0303791535
 20
-18.0877088656
 30
0.0
 11
248.0394729539
 21
-18.0877088656
 31
0.0
  0
LINE
  5
135
330
12A
100
AcDbEntity
  8
0
  6
CONTINUOUS
 62
     0
100
AcDbLine
 10
248.0394729539
 20
0.0
 30
0.0
 11
320.4234308167
 21
0.0
 31
0.0
  0
LINE
  5
136
330
12A
100
AcDbEntity
  8
0
  6
CONTINUOUS
 62
     0
100
AcDbLine
 10
248.0394729539
 20
-18.0877088656
 30
0.0
 11
320.4234308167
 21
-18.0877088656
 31
0.0
  0
LINE
  5
137
330
12A
100
AcDbEntity
  8
0
  6
CONTINUOUS
 62
     0
100
AcDbLine
 10
0.0
 20
-18.0877088656
 30
0.0
 11
0.0
 21
-36.1754177311
 31
0.0
  0
LINE
  5
138
330
12A
100
AcDbEntity
  8
0
  6
CONTINUOUS
 62
     0
100
AcDbLine
 10
59.0303791535
 20
-18.0877088656
 30
0.0
 11
59.0303791535
 21
-36.1754177311
 31
0.0
  0
LINE
  5
139
330
12A
100
AcDbEntity
  8
0
  6
CONTINUOUS
 62
     0
100
AcDbLine
 10
0.0
 20
-36.1754177311
 30
0.0
 11
0.0
 21
-73.1634387355
 31
0.0
  0
LINE
  5
13A
330
12A
100
AcDbEntity
  8
0
  6
CONTINUOUS
 62
     0
100
AcDbLine
 10
59.0303791535
 20
-36.1754177311
 30
0.0
 11
59.0303791535
 21
-73.1634387355
 31
0.0
  0
LINE
  5
13B
330
12A
100
AcDbEntity
  8
0
  6
CONTINUOUS
 62
     0
100
AcDbLine
 10
248.0394729539
 20
-18.0877088656
 30
0.0
 11
248.0394729539
 21
-36.1754177311
 31
0.0
  0
LINE
  5
13C
330
12A
100
AcDbEntity
  8
0
  6
CONTINUOUS
 62
     0
100
AcDbLine
 10
248.0394729539
 20
-36.1754177311
 30
0.0
 11
248.0394729539
 21
-73.1634387355
 31
0.0
  0
LINE
  5
13D
330
12A
100
AcDbEntity
  8
0
  6
CONTINUOUS
 62
     0
100
AcDbLine
 10
320.4234308167
 20
-18.0877088656
 30
0.0
 11
320.4234308167
 21
-36.1754177311
 31
0.0
  0
LINE
  5
13E
330
12A
100
AcDbEntity
  8
0
  6
CONTINUOUS
 62
     0
100
AcDbLine
 10
320.4234308167
 20
-36.1754177311
 30
0.0
 11
320.4234308167
 21
-73.1634387355
 31
0.0
  0
LINE
  5
13F
330
12A
100
AcDbEntity
  8
0
  6
CONTINUOUS
 62
     0
100
AcDbLine
 10
0.0
 20
-36.1754177311
 30
0.0
 11
59.0303791535
 21
-36.1754177311
 31
0.0
  0
LINE
  5
140
330
12A
100
AcDbEntity
  8
0
  6
CONTINUOUS
 62
     0
100
AcDbLine
 10
59.0303791535
 20
-36.1754177311
 30
0.0
 11
248.0394729539
 21
-36.1754177311
 31
0.0
  0
LINE
  5
141
330
12A
100
AcDbEntity
  8
0
  6
CONTINUOUS
 62
     0
100
AcDbLine
 10
248.0394729539
 20
-36.1754177311
 30
0.0
 11
320.4234308167
 21
-36.1754177311
 31
0.0
  0
LINE
  5
142
330
12A
100
AcDbEntity
  8
0
  6
CONTINUOUS
 62
     0
100
AcDbLine
 10
0.0
 20
-73.1634387355
 30
0.0
 11
59.0303791535
 21
-73.1634387355
 31
0.0
  0
LINE
  5
143
330
12A
100
AcDbEntity
  8
0
  6
CONTINUOUS
 62
     0
100
AcDbLine
 10
59.0303791535
 20
-73.1634387355
 30
0.0
 11
248.0394729539
 21
-73.1634387355
 31
0.0
  0
LINE
  5
144
330
12A
100
AcDbEntity
  8
0
  6
CONTINUOUS
 62
     0
100
AcDbLine
 10
248.0394729539
 20
-73.1634387355
 30
0.0
 11
320.4234308167
 21
-73.1634387355
 31
0.0
  0
MTEXT
  5
145
330
12A
100
AcDbEntity
  8
0
  6
CONTINUOUS
 62
     0
100
AcDbMText
 10
3.1047710142
 20
-3.5963525586
 30
0.0
 40
10.5
 41
0.0
 71
     1
 72
     1
  1
Scheda
  7
SLDTEXTSTYLE0
  0
MTEXT
  5
146
330
12A
100
AcDbEntity
  8
0
  6
CONTINUOUS
 62
     0
100
AcDbMText
 10
114.0286778552
 20
-3.5963525586
 30
0.0
 40
10.5
 41
0.0
 71
     1
 72
     1
  1
Dimensione
  7
SLDTEXTSTYLE0
  0
MTEXT
  5
147
330
12A
100
AcDbEntity
  8
0
  6
CONTINUOUS
 62
     0
100
AcDbMText
 10
251.0394729539
 20
-3.9206208743
 30
0.0
 40
10.31875
 41
0.0
 71
     1
 72
     1
  1
QUANTITÀ
  7
SLDTEXTSTYLE0
  0
MTEXT
  5
148
330
12A
100
AcDbEntity
  8
0
  6
CONTINUOUS
 62
     0
100
AcDbMText
 10
24.4226955034
 20
-22.0083297399
 30
0.0
 40
10.31875
 41
0.0
 71
     1
 72
     1
  1
A
  7
SLDTEXTSTYLE0
  0
MTEXT
  5
149
330
12A
100
AcDbEntity
  8
0
  6
CONTINUOUS
 62
     0
100
AcDbMText
 10
115.0593669606
 20
-22.0083297399
 30
0.0
 40
10.31875
 41
0.0
 71
     1
 72
     1
  1
8,30
  7
SLDTEXTSTYLE0
  0
MTEXT
  5
14A
330
12A
100
AcDbEntity
  8
0
  6
CONTINUOUS
 62
     0
100
AcDbMText
 10
145.6047772346
 20
-22.0083297399
 30
0.0
 40
10.31875
 41
0.0
 71
     1
 72
     1
  1
X 18,30
  7
SLDTEXTSTYLE0
  0
MTEXT
  5
14B
330
12A
100
AcDbEntity
  8
0
  6
CONTINUOUS
 62
     0
100
AcDbMText
 10
281.5714519452
 20
-23.4012536883
 30
0.0
 40
7.2
 41
0.0
 71
     1
 72
     1
  1
4
  7
SLDTEXTSTYLE0
  0
MTEXT
  5
14C
330
12A
100
AcDbEntity
  8
0
  6
CONTINUOUS
 62
     0
100
AcDbMText
 10
25.5692232091
 20
-49.7627226078
 30
0.0
 40
10.31875
 41
0.0
 71
     1
 72
     1
  1
B
  7
SLDTEXTSTYLE0
  0
MTEXT
  5
14D
330
12A
100
AcDbEntity
  8
0
  6
CONTINUOUS
 62
     0
100
AcDbMText
 10
105.3033709047
 20
-41.3644069713
 30
0.0
 40
10.31875
 41
0.0
 71
     1
 72
     1
  1
%%c
  7
SLDTEXTSTYLE0
  0
MTEXT
  5
14E
330
12A
100
AcDbEntity
  8
0
  6
CONTINUOUS
 62
     0
100
AcDbMText
 10
124.7484815223
 20
-41.3644069713
 30
0.0
 40
10.31875
 41
0.0
 71
     1
 72
     1
  1
9
  7
SLDTEXTSTYLE0
  0
MTEXT
  5
14F
330
12A
100
AcDbEntity
  8
0
  6
CONTINUOUS
 62
     0
100
AcDbMText
 10
136.1755412919
 20
-41.3644069713
 30
0.0
 40
10.31875
 41
0.0
 71
     1
 72
     1
  1
PASSANTE
  7
SLDTEXTSTYLE0
  0
INSERT
  5
155
330
12A
100
AcDbEntity
  8
0
  6
CONTINUOUS
 62
     0
100
AcDbBlockReference
  2
SW_SYMBOL_HOLE_SINK
 10
94.3960673628
 20
-70.0316869708
 30
0.0
 41
0.0043935303
 42
0.0043935303
 43
0.0043935303
  0
MTEXT
  5
156
330
12A
100
AcDbEntity
  8
0
  6
CONTINUOUS
 62
     0
100
AcDbMText
 10
122.268158522
 20
-58.1610396412
 30
0.0
 40
10.31875
 41
0.0
 71
     1
 72
     1
  1
%%c
  7
SLDTEXTSTYLE0
  0
MTEXT
  5
157
330
12A
100
AcDbEntity
  8
0
  6
CONTINUOUS
 62
     0
100
AcDbMText
 10
141.7132691396
 20
-58.1610396412
 30
0.0
 40
10.31875
 41
0.0
 71
     1
 72
     1
  1
18,25
  7
SLDTEXTSTYLE0
  0
MTEXT
  5
159
330
12A
100
AcDbEntity
  8
0
  6
CONTINUOUS
 62
     0
100
AcDbMText
 10
179.8162079332
 20
-58.1610396412
 30
0.0
 40
10.31875
 41
0.0
 71
     1
 72
     1
  1
X 90°
  7
SLDTEXTSTYLE6
  0
MTEXT
  5
15A
330
12A
100
AcDbEntity
  8
0
  6
CONTINUOUS
 62
     0
100
AcDbMText
 10
281.5714519452
 20
-51.0884482322
 30
0.0
 40
7.2
 41
0.0
 71
     1
 72
     1
  1
4
  7
SLDTEXTSTYLE0
  0
ENDBLK
  5
12C
330
12A
100
AcDbEntity
  8
0
100
AcDbBlockEnd
  0
BLOCK
  5
151
330
150
100
AcDbEntity
  8
0
100
AcDbBlockBegin
  2
SW_SYMBOL_HOLE_SINK
 70
     0
 10
0.0
 20
0.0
 30
0.0
  3
SW_SYMBOL_HOLE_SINK
  1

  0
LINE
  5
153
330
150
100
AcDbEntity
  8
0
  6
CONTINUOUS
 62
     0
100
AcDbLine
 10
0.0
 20
2625.0
 30
0.0
 11
2400.0
 21
225.0
 31
0.0
  0
LINE
  5
154
330
150
100
AcDbEntity
  8
0
  6
CONTINUOUS
 62
     0
100
AcDbLine
 10
2400.0
 20
225.0
 30
0.0
 11
4800.0
 21
2625.0
 31
0.0
  0
ENDBLK
  5
152
330
150
100
AcDbEntity
  8
0
100
AcDbBlockEnd
  0
BLOCK
  5
1C6
330
1C5
100
AcDbEntity
  8
0
100
AcDbBlockBegin
  2
_D
 70
     0
 10
0.0
 20
0.0
 30
0.0
  3
_D
  1

  0
SOLID
  5
1C8
330
1C5
100
AcDbEntity
  8
0
  6
CONTINUOUS
 62
     7
100
AcDbTrace
 10
463.6207968127
 20
463.9167780435
 30
0.0
 11
454.6207968127
 21
465.3013934281
 31
0.0
 12
454.6207968127
 22
462.5321626589
 32
0.0
 13
454.6207968127
 23
462.5321626589
 33
0.0
  0
SOLID
  5
1C9
330
1C5
100
AcDbEntity
  8
0
  6
CONTINUOUS
 62
     7
100
AcDbTrace
 10
483.6207968127
 20
463.9167780435
 30
0.0
 11
492.6207968127
 21
462.5321626589
 31
0.0
 12
492.6207968127
 22
465.3013934281
 32
0.0
 13
492.6207968127
 23
465.3013934281
 33
0.0
  0
LINE
  5
1CA
330
1C5
100
AcDbEntity
  8
0
  6
CONTINUOUS
 62
     7
100
AcDbLine
 10
463.6207968127
 20
516.680940239
 30
0.0
 11
463.6207968127
 21
460.9167780435
 31
0.0
  0
LINE
  5
1CB
330
1C5
100
AcDbEntity
  8
0
  6
CONTINUOUS
 62
     7
100
AcDbLine
 10
483.6207968127
 20
510.830940239
 30
0.0
 11
483.6207968127
 21
460.9167780435
 31
0.0
  0
LINE
  5
1CC
330
1C5
100
AcDbEntity
  8
0
  6
CONTINUOUS
 62
     7
100
AcDbLine
 10
463.6207968127
 20
463.9167780435
 30
0.0
 11
446.3131045051
 21
463.9167780435
 31
0.0
  0
LINE
  5
1CD
330
1C5
100
AcDbEntity
  8
0
  6
CONTINUOUS
 62
     7
100
AcDbLine
 10
463.6207968127
 20
463.9167780435
 30
0.0
 11
483.6207968127
 21
463.9167780435
 31
0.0
  0
LINE
  5
1CE
330
1C5
100
AcDbEntity
  8
0
  6
CONTINUOUS
 62
     7
100
AcDbLine
 10
483.6207968127
 20
463.9167780435
 30
0.0
 11
500.9284891204
 21
463.9167780435
 31
0.0
  0
MTEXT
  5
1CF
330
1C5
100
AcDbEntity
  8
0
  6
CONTINUOUS
 62
     7
100
AcDbMText
 10
467.4141302277
 20
474.7449470576
 30
0.0
 40
8.4
 41
0.0
 71
     1
 72
     1
  1
20
  7
SLDTEXTSTYLE0
  0
ENDBLK
  5
1C7
330
1C5
100
AcDbEntity
  8
0
100
AcDbBlockEnd
  0
BLOCK
  5
1D3
330
1D2
100
AcDbEntity
  8
0
100
AcDbBlockBegin
  2
_D_1
 70
     0
 10
0.0
 20
0.0
 30
0.0
  3
_D_1
  1

  0
SOLID
  5
1D5
330
1D2
100
AcDbEntity
  8
0
  6
CONTINUOUS
 62
     7
100
AcDbTrace
 10
463.6207968127
 20
463.9167780435
 30
0.0
 11
454.6207968127
 21
465.3013934281
 31
0.0
 12
454.6207968127
 22
462.5321626589
 32
0.0
 13
454.6207968127
 23
462.5321626589
 33
0.0
  0
SOLID
  5
1D6
330
1D2
100
AcDbEntity
  8
0
  6
CONTINUOUS
 62
     7
100
AcDbTrace
 10
173.6207968127
 20
463.9167780435
 30
0.0
 11
182.6207968127
 21
462.5321626589
 31
0.0
 12
182.6207968127
 22
465.3013934281
 32
0.0
 13
182.6207968127
 23
465.3013934281
 33
0.0
  0
LINE
  5
1D7
330
1D2
100
AcDbEntity
  8
0
  6
CONTINUOUS
 62
     7
100
AcDbLine
 10
463.6207968127
 20
516.680940239
 30
0.0
 11
463.6207968127
 21
460.9167780435
 31
0.0
  0
LINE
  5
1D8
330
1D2
100
AcDbEntity
  8
0
  6
CONTINUOUS
 62
     7
100
AcDbLine
 10
173.6207968127
 20
516.680940239
 30
0.0
 11
173.6207968127
 21
460.9167780435
 31
0.0
  0
LINE
  5
1D9
330
1D2
100
AcDbEntity
  8
0
  6
CONTINUOUS
 62
     7
100
AcDbLine
 10
463.6207968127
 20
463.9167780435
 30
0.0
 11
173.6207968127
 21
463.9167780435
 31
0.0
  0
MTEXT
  5
1DA
330
1D2
100
AcDbEntity
  8
0
  6
CONTINUOUS
 62
     7
100
AcDbMText
 10
309.3107969352
 20
474.7449470576
 30
0.0
 40
8.4
 41
0.0
 71
     1
 72
     1
  1
290
  7
SLDTEXTSTYLE0
  0
ENDBLK
  5
1D4
330
1D2
100
AcDbEntity
  8
0
100
AcDbBlockEnd
  0
BLOCK
  5
1DD
330
1DC
100
AcDbEntity
  8
0
100
AcDbBlockBegin
  2
_D_2
 70
     0
 10
0.0
 20
0.0
 30
0.0
  3
_D_2
  1

  0
SOLID
  5
1DF
330
1DC
100
AcDbEntity
  8
0
  6
CONTINUOUS
 62
     7
100
AcDbTrace
 10
173.6207968127
 20
463.9167780435
 30
0.0
 11
182.6207968127
 21
462.5321626589
 31
0.0
 12
182.6207968127
 22
465.3013934281
 32
0.0
 13
182.6207968127
 23
465.3013934281
 33
0.0
  0
SOLID
  5
1E0
330
1DC
100
AcDbEntity
  8
0
  6
CONTINUOUS
 62
     7
100
AcDbTrace
 10
153.6207968127
 20
463.9167780435
 30
0.0
 11
144.6207968127
 21
465.3013934281
 31
0.0
 12
144.6207968127
 22
462.5321626589
 32
0.0
 13
144.6207968127
 23
462.5321626589
 33
0.0
  0
LINE
  5
1E1
330
1DC
100
AcDbEntity
  8
0
  6
CONTINUOUS
 62
     7
100
AcDbLine
 10
173.6207968127
 20
516.680940239
 30
0.0
 11
173.6207968127
 21
460.9167780435
 31
0.0
  0
LINE
  5
1E2
330
1DC
100
AcDbEntity
  8
0
  6
CONTINUOUS
 62
     7
100
AcDbLine
 10
153.6207968127
 20
510.830940239
 30
0.0
 11
153.6207968127
 21
460.9167780435
 31
0.0
  0
LINE
  5
1E3
330
1DC
100
AcDbEntity
  8
0
  6
CONTINUOUS
 62
     7
100
AcDbLine
 10
173.6207968127
 20
463.9167780435
 30
0.0
 11
190.9284891204
 21
463.9167780435
 31
0.0
  0
LINE
  5
1E4
330
1DC
100
AcDbEntity
  8
0
  6
CONTINUOUS
 62
     7
100
AcDbLine
 10
173.6207968127
 20
463.9167780435
 30
0.0
 11
153.6207968127
 21
463.9167780435
 31
0.0
  0
LINE
  5
1E5
330
1DC
100
AcDbEntity
  8
0
  6
CONTINUOUS
 62
     7
100
AcDbLine
 10
153.6207968127
 20
463.9167780435
 30
0.0
 11
136.3131045051
 21
463.9167780435
 31
0.0
  0
MTEXT
  5
1E6
330
1DC
100
AcDbEntity
  8
0
  6
CONTINUOUS
 62
     7
100
AcDbMText
 10
157.4141302277
 20
474.7449470576
 30
0.0
 40
8.4
 41
0.0
 71
     1
 72
     1
  1
20
  7
SLDTEXTSTYLE0
  0
ENDBLK
  5
1DE
330
1DC
100
AcDbEntity
  8
0
100
AcDbBlockEnd
  0
BLOCK
  5
1E9
330
1E8
100
AcDbEntity
  8
0
100
AcDbBlockBegin
  2
_D_3
 70
     0
 10
0.0
 20
0.0
 30
0.0
  3
_D_3
  1

  0
SOLID
  5
1EB
330
1E8
100
AcDbEntity
  8
0
  6
CONTINUOUS
 62
     7
100
AcDbTrace
 10
507.6207968127
 20
538.830940239
 30
0.0
 11
509.0054121974
 21
547.830940239
 31
0.0
 12
506.2361814281
 22
547.830940239
 32
0.0
 13
506.2361814281
 23
547.830940239
 33
0.0
  0
SOLID
  5
1EC
330
1E8
100
AcDbEntity
  8
0
  6
CONTINUOUS
 62
     7
100
AcDbTrace
 10
507.6207968127
 20
578.830940239
 30
0.0
 11
506.2361814281
 21
569.830940239
 31
0.0
 12
509.0054121974
 22
569.830940239
 32
0.0
 13
509.0054121974
 23
569.830940239
 33
0.0
  0
LINE
  5
1ED
330
1E8
100
AcDbEntity
  8
0
  6
CONTINUOUS
 62
     7
100
AcDbLine
 10
426.6207968127
 20
538.830940239
 30
0.0
 11
510.6207968127
 21
538.830940239
 31
0.0
  0
LINE
  5
1EE
330
1E8
100
AcDbEntity
  8
0
  6
CONTINUOUS
 62
     7
100
AcDbLine
 10
426.6207968127
 20
578.830940239
 30
0.0
 11
510.6207968127
 21
578.830940239
 31
0.0
  0
LINE
  5
1EF
330
1E8
100
AcDbEntity
  8
0
  6
CONTINUOUS
 62
     7
100
AcDbLine
 10
507.6207968127
 20
538.830940239
 30
0.0
 11
507.6207968127
 21
578.830940239
 31
0.0
  0
MTEXT
  5
1F0
330
1E8
100
AcDbEntity
  8
0
  6
CONTINUOUS
 62
     7
100
AcDbMText
 10
496.7926277987
 20
552.624273654
 30
0.0
 40
8.4
 41
0.0
 71
     1
 72
     1
  1
40
  7
SLDTEXTSTYLE0
 11
2.832769448823990E-16
 21
1.0
 31
0.0
  0
ENDBLK
  5
1EA
330
1E8
100
AcDbEntity
  8
0
100
AcDbBlockEnd
  0
BLOCK
  5
1F3
330
1F2
100
AcDbEntity
  8
0
100
AcDbBlockBegin
  2
_D_4
 70
     0
 10
0.0
 20
0.0
 30
0.0
  3
_D_4
  1

  0
SOLID
  5
1F5
330
1F2
100
AcDbEntity
  8
0
  6
CONTINUOUS
 62
     7
100
AcDbTrace
 10
507.6207968127
 20
578.830940239
 30
0.0
 11
506.2361814281
 21
569.830940239
 31
0.0
 12
509.0054121974
 22
569.830940239
 32
0.0
 13
509.0054121974
 23
569.830940239
 33
0.0
  0
SOLID
  5
1F6
330
1F2
100
AcDbEntity
  8
0
  6
CONTINUOUS
 62
     7
100
AcDbTrace
 10
507.6207968127
 20
608.830940239
 30
0.0
 11
509.0054121974
 21
617.830940239
 31
0.0
 12
506.2361814281
 22
617.830940239
 32
0.0
 13
506.2361814281
 23
617.830940239
 33
0.0
  0
LINE
  5
1F7
330
1F2
100
AcDbEntity
  8
0
  6
CONTINUOUS
 62
     7
100
AcDbLine
 10
426.6207968127
 20
578.830940239
 30
0.0
 11
510.6207968127
 21
578.830940239
 31
0.0
  0
LINE
  5
1F8
330
1F2
100
AcDbEntity
  8
0
  6
CONTINUOUS
 62
     7
100
AcDbLine
 10
481.6207968127
 20
608.830940239
 30
0.0
 11
510.6207968127
 21
608.830940239
 31
0.0
  0
LINE
  5
1F9
330
1F2
100
AcDbEntity
  8
0
  6
CONTINUOUS
 62
     7
100
AcDbLine
 10
507.6207968127
 20
578.830940239
 30
0.0
 11
507.6207968127
 21
561.5232479314
 31
0.0
  0
LINE
  5
1FA
330
1F2
100
AcDbEntity
  8
0
  6
CONTINUOUS
 62
     7
100
AcDbLine
 10
507.6207968127
 20
578.830940239
 30
0.0
 11
507.6207968127
 21
608.830940239
 31
0.0
  0
LINE
  5
1FB
330
1F2
100
AcDbEntity
  8
0
  6
CONTINUOUS
 62
     7
100
AcDbLine
 10
507.6207968127
 20
608.830940239
 30
0.0
 11
507.6207968127
 21
626.1386325467
 31
0.0
  0
MTEXT
  5
1FC
330
1F2
100
AcDbEntity
  8
0
  6
CONTINUOUS
 62
     7
100
AcDbMText
 10
496.7926277987
 20
587.624273654
 30
0.0
 40
8.4
 41
0.0
 71
     1
 72
     1
  1
30
  7
SLDTEXTSTYLE0
 11
-1.608122649676637E-16
 21
1.0
 31
0.0
  0
ENDBLK
  5
1F4
330
1F2
100
AcDbEntity
  8
0
100
AcDbBlockEnd
  0
BLOCK
  5
1FF
330
1FE
100
AcDbEntity
  8
0
100
AcDbBlockBegin
  2
_D_5
 70
     0
 10
0.0
 20
0.0
 30
0.0
  3
_D_5
  1

  0
SOLID
  5
201
330
1FE
100
AcDbEntity
  8
0
  6
CONTINUOUS
 62
     7
100
AcDbTrace
 10
507.6207968127
 20
538.830940239
 30
0.0
 11
509.0054121974
 21
547.830940239
 31
0.0
 12
506.2361814281
 22
547.830940239
 32
0.0
 13
506.2361814281
 23
547.830940239
 33
0.0
  0
SOLID
  5
202
330
1FE
100
AcDbEntity
  8
0
  6
CONTINUOUS
 62
     7
100
AcDbTrace
 10
507.6207968127
 20
508.830940239
 30
0.0
 11
506.2361814281
 21
499.830940239
 31
0.0
 12
509.0054121974
 22
499.830940239
 32
0.0
 13
509.0054121974
 23
499.830940239
 33
0.0
  0
LINE
  5
203
330
1FE
100
AcDbEntity
  8
0
  6
CONTINUOUS
 62
     7
100
AcDbLine
 10
426.6207968127
 20
538.830940239
 30
0.0
 11
510.6207968127
 21
538.830940239
 31
0.0
  0
LINE
  5
204
330
1FE
100
AcDbEntity
  8
0
  6
CONTINUOUS
 62
     7
100
AcDbLine
 10
481.6207968127
 20
508.830940239
 30
0.0
 11
510.6207968127
 21
508.830940239
 31
0.0
  0
LINE
  5
205
330
1FE
100
AcDbEntity
  8
0
  6
CONTINUOUS
 62
     7
100
AcDbLine
 10
507.6207968127
 20
538.830940239
 30
0.0
 11
507.6207968127
 21
556.1386325467
 31
0.0
  0
LINE
  5
206
330
1FE
100
AcDbEntity
  8
0
  6
CONTINUOUS
 62
     7
100
AcDbLine
 10
507.6207968127
 20
538.830940239
 30
0.0
 11
507.6207968127
 21
508.830940239
 31
0.0
  0
LINE
  5
207
330
1FE
100
AcDbEntity
  8
0
  6
CONTINUOUS
 62
     7
100
AcDbLine
 10
507.6207968127
 20
508.830940239
 30
0.0
 11
507.6207968127
 21
491.5232479314
 31
0.0
  0
MTEXT
  5
208
330
1FE
100
AcDbEntity
  8
0
  6
CONTINUOUS
 62
     7
100
AcDbMText
 10
496.7926277987
 20
517.624273654
 30
0.0
 40
8.4
 41
0.0
 71
     1
 72
     1
  1
30
  7
SLDTEXTSTYLE0
 11
-7.044195017643634E-15
 21
1.0
 31
0.0
  0
ENDBLK
  5
200
330
1FE
100
AcDbEntity
  8
0
100
AcDbBlockEnd
  0
BLOCK
  5
20B
330
20A
100
AcDbEntity
  8
0
100
AcDbBlockBegin
  2
_D_6
 70
     0
 10
0.0
 20
0.0
 30
0.0
  3
_D_6
  1

  0
SOLID
  5
20D
330
20A
100
AcDbEntity
  8
0
  6
CONTINUOUS
 62
     7
100
AcDbTrace
 10
531.6207968127
 20
593.830940239
 30
0.0
 11
530.2361814281
 21
584.830940239
 31
0.0
 12
533.0054121974
 22
584.830940239
 32
0.0
 13
533.0054121974
 23
584.830940239
 33
0.0
  0
SOLID
  5
20E
330
20A
100
AcDbEntity
  8
0
  6
CONTINUOUS
 62
     7
100
AcDbTrace
 10
531.6207968127
 20
523.830940239
 30
0.0
 11
533.0054121974
 21
532.830940239
 31
0.0
 12
530.2361814281
 22
532.830940239
 32
0.0
 13
530.2361814281
 23
532.830940239
 33
0.0
  0
LINE
  5
20F
330
20A
100
AcDbEntity
  8
0
  6
CONTINUOUS
 62
     7
100
AcDbLine
 10
471.6207968127
 20
593.830940239
 30
0.0
 11
534.6207968127
 21
593.830940239
 31
0.0
  0
LINE
  5
210
330
20A
100
AcDbEntity
  8
0
  6
CONTINUOUS
 62
     7
100
AcDbLine
 10
471.6207968127
 20
523.830940239
 30
0.0
 11
534.6207968127
 21
523.830940239
 31
0.0
  0
LINE
  5
211
330
20A
100
AcDbEntity
  8
0
  6
CONTINUOUS
 62
     7
100
AcDbLine
 10
531.6207968127
 20
593.830940239
 30
0.0
 11
531.6207968127
 21
523.830940239
 31
0.0
  0
MTEXT
  5
212
330
20A
100
AcDbEntity
  8
0
  6
CONTINUOUS
 62
     7
100
AcDbMText
 10
520.7926277987
 20
552.624273654
 30
0.0
 40
8.4
 41
0.0
 71
     1
 72
     1
  1
70
  7
SLDTEXTSTYLE0
 11
-7.044195017643634E-15
 21
1.0
 31
0.0
  0
ENDBLK
  5
20C
330
20A
100
AcDbEntity
  8
0
100
AcDbBlockEnd
  0
BLOCK
  5
215
330
214
100
AcDbEntity
  8
0
100
AcDbBlockBegin
  2
_D_7
 70
     0
 10
0.0
 20
0.0
 30
0.0
  3
_D_7
  1

  0
SOLID
  5
217
330
214
100
AcDbEntity
  8
0
  6
CONTINUOUS
 62
     7
100
AcDbTrace
 10
531.6207968127
 20
593.830940239
 30
0.0
 11
530.2361814281
 21
584.830940239
 31
0.0
 12
533.0054121974
 22
584.830940239
 32
0.0
 13
533.0054121974
 23
584.830940239
 33
0.0
  0
SOLID
  5
218
330
214
100
AcDbEntity
  8
0
  6
CONTINUOUS
 62
     7
100
AcDbTrace
 10
531.6207968127
 20
608.830940239
 30
0.0
 11
533.0054121974
 21
617.830940239
 31
0.0
 12
530.2361814281
 22
617.830940239
 32
0.0
 13
530.2361814281
 23
617.830940239
 33
0.0
  0
LINE
  5
219
330
214
100
AcDbEntity
  8
0
  6
CONTINUOUS
 62
     7
100
AcDbLine
 10
471.6207968127
 20
593.830940239
 30
0.0
 11
534.6207968127
 21
593.830940239
 31
0.0
  0
LINE
  5
21A
330
214
100
AcDbEntity
  8
0
  6
CONTINUOUS
 62
     7
100
AcDbLine
 10
481.6207968127
 20
608.830940239
 30
0.0
 11
534.6207968127
 21
608.830940239
 31
0.0
  0
LINE
  5
21B
330
214
100
AcDbEntity
  8
0
  6
CONTINUOUS
 62
     7
100
AcDbLine
 10
531.6207968127
 20
593.830940239
 30
0.0
 11
531.6207968127
 21
576.5232479314
 31
0.0
  0
LINE
  5
21C
330
214
100
AcDbEntity
  8
0
  6
CONTINUOUS
 62
     7
100
AcDbLine
 10
531.6207968127
 20
593.830940239
 30
0.0
 11
531.6207968127
 21
608.830940239
 31
0.0
  0
LINE
  5
21D
330
214
100
AcDbEntity
  8
0
  6
CONTINUOUS
 62
     7
100
AcDbLine
 10
531.6207968127
 20
608.830940239
 30
0.0
 11
531.6207968127
 21
639.0376068241
 31
0.0
  0
MTEXT
  5
21E
330
214
100
AcDbEntity
  8
0
  6
CONTINUOUS
 62
     7
100
AcDbMText
 10
520.7926277987
 20
626.624273654
 30
0.0
 40
8.4
 41
0.0
 71
     1
 72
     1
  1
15
  7
SLDTEXTSTYLE0
 11
-1.608122649676637E-16
 21
1.0
 31
0.0
  0
ENDBLK
  5
216
330
214
100
AcDbEntity
  8
0
100
AcDbBlockEnd
  0
BLOCK
  5
221
330
220
100
AcDbEntity
  8
0
100
AcDbBlockBegin
  2
_D_8
 70
     0
 10
0.0
 20
0.0
 30
0.0
  3
_D_8
  1

  0
SOLID
  5
223
330
220
100
AcDbEntity
  8
0
  6
CONTINUOUS
 62
     7
100
AcDbTrace
 10
531.6207968127
 20
508.830940239
 30
0.0
 11
530.2361814281
 21
499.830940239
 31
0.0
 12
533.0054121974
 22
499.830940239
 32
0.0
 13
533.0054121974
 23
499.830940239
 33
0.0
  0
SOLID
  5
224
330
220
100
AcDbEntity
  8
0
  6
CONTINUOUS
 62
     7
100
AcDbTrace
 10
531.6207968127
 20
523.830940239
 30
0.0
 11
533.0054121974
 21
532.830940239
 31
0.0
 12
530.2361814281
 22
532.830940239
 32
0.0
 13
530.2361814281
 23
532.830940239
 33
0.0
  0
LINE
  5
225
330
220
100
AcDbEntity
  8
0
  6
CONTINUOUS
 62
     7
100
AcDbLine
 10
481.6207968127
 20
508.830940239
 30
0.0
 11
534.6207968127
 21
508.830940239
 31
0.0
  0
LINE
  5
226
330
220
100
AcDbEntity
  8
0
  6
CONTINUOUS
 62
     7
100
AcDbLine
 10
471.6207968127
 20
523.830940239
 30
0.0
 11
534.6207968127
 21
523.830940239
 31
0.0
  0
LINE
  5
227
330
220
100
AcDbEntity
  8
0
  6
CONTINUOUS
 62
     7
100
AcDbLine
 10
531.6207968127
 20
508.830940239
 30
0.0
 11
531.6207968127
 21
478.624273654
 31
0.0
  0
LINE
  5
228
330
220
100
AcDbEntity
  8
0
  6
CONTINUOUS
 62
     7
100
AcDbLine
 10
531.6207968127
 20
508.830940239
 30
0.0
 11
531.6207968127
 21
523.830940239
 31
0.0
  0
LINE
  5
229
330
220
100
AcDbEntity
  8
0
  6
CONTINUOUS
 62
     7
100
AcDbLine
 10
531.6207968127
 20
523.830940239
 30
0.0
 11
531.6207968127
 21
541.1386325467
 31
0.0
  0
MTEXT
  5
22A
330
220
100
AcDbEntity
  8
0
  6
CONTINUOUS
 62
     7
100
AcDbMText
 10
520.7926277987
 20
478.624273654
 30
0.0
 40
8.4
 41
0.0
 71
     1
 72
     1
  1
15
  7
SLDTEXTSTYLE0
 11
-1.608122649676637E-16
 21
1.0
 31
0.0
  0
ENDBLK
  5
222
330
220
100
AcDbEntity
  8
0
100
AcDbBlockEnd
  0
BLOCK
  5
22D
330
22C
100
AcDbEntity
  8
0
100
AcDbBlockBegin
  2
_D_9
 70
     0
 10
0.0
 20
0.0
 30
0.0
  3
_D_9
  1

  0
SOLID
  5
22F
330
22C
100
AcDbEntity
  8
0
  6
CONTINUOUS
 62
     7
100
AcDbTrace
 10
555.6207968127
 20
608.830940239
 30
0.0
 11
554.2361814281
 21
599.830940239
 31
0.0
 12
557.0054121974
 22
599.830940239
 32
0.0
 13
557.0054121974
 23
599.830940239
 33
0.0
  0
SOLID
  5
230
330
22C
100
AcDbEntity
  8
0
  6
CONTINUOUS
 62
     7
100
AcDbTrace
 10
555.6207968127
 20
508.830940239
 30
0.0
 11
557.0054121974
 21
517.830940239
 31
0.0
 12
554.2361814281
 22
517.830940239
 32
0.0
 13
554.2361814281
 23
517.830940239
 33
0.0
  0
LINE
  5
231
330
22C
100
AcDbEntity
  8
0
  6
CONTINUOUS
 62
     7
100
AcDbLine
 10
481.6207968127
 20
608.830940239
 30
0.0
 11
558.6207968127
 21
608.830940239
 31
0.0
  0
LINE
  5
232
330
22C
100
AcDbEntity
  8
0
  6
CONTINUOUS
 62
     7
100
AcDbLine
 10
481.6207968127
 20
508.830940239
 30
0.0
 11
558.6207968127
 21
508.830940239
 31
0.0
  0
LINE
  5
233
330
22C
100
AcDbEntity
  8
0
  6
CONTINUOUS
 62
     7
100
AcDbLine
 10
555.6207968127
 20
608.830940239
 30
0.0
 11
555.6207968127
 21
508.830940239
 31
0.0
  0
MTEXT
  5
234
330
22C
100
AcDbEntity
  8
0
  6
CONTINUOUS
 62
     7
100
AcDbMText
 10
544.7926277987
 20
549.5209403615
 30
0.0
 40
8.4
 41
0.0
 71
     1
 72
     1
  1
100
  7
SLDTEXTSTYLE0
 11
-7.044195017643634E-15
 21
1.0
 31
0.0
  0
ENDBLK
  5
22E
330
22C
100
AcDbEntity
  8
0
100
AcDbBlockEnd
  0
BLOCK
  5
237
330
236
100
AcDbEntity
  8
0
100
AcDbBlockBegin
  2
_D_10
 70
     0
 10
0.0
 20
0.0
 30
0.0
  3
_D_10
  1

  0
SOLID
  5
239
330
236
100
AcDbEntity
  8
0
  6
CONTINUOUS
 62
     7
100
AcDbTrace
 10
423.6207968127
 20
484.830940239
 30
0.0
 11
414.6207968127
 21
486.2155556237
 31
0.0
 12
414.6207968127
 22
483.4463248544
 32
0.0
 13
414.6207968127
 23
483.4463248544
 33
0.0
  0
SOLID
  5
23A
330
236
100
AcDbEntity
  8
0
  6
CONTINUOUS
 62
     7
100
AcDbTrace
 10
213.6207968127
 20
484.830940239
 30
0.0
 11
222.6207968127
 21
483.4463248544
 31
0.0
 12
222.6207968127
 22
486.2155556237
 32
0.0
 13
222.6207968127
 23
486.2155556237
 33
0.0
  0
LINE
  5
23B
330
236
100
AcDbEntity
  8
0
  6
CONTINUOUS
 62
     7
100
AcDbLine
 10
423.6207968127
 20
535.830940239
 30
0.0
 11
423.6207968127
 21
481.830940239
 31
0.0
  0
LINE
  5
23C
330
236
100
AcDbEntity
  8
0
  6
CONTINUOUS
 62
     7
100
AcDbLine
 10
213.6207968127
 20
535.830940239
 30
0.0
 11
213.6207968127
 21
481.830940239
 31
0.0
  0
LINE
  5
23D
330
236
100
AcDbEntity
  8
0
  6
CONTINUOUS
 62
     7
100
AcDbLine
 10
423.6207968127
 20
484.830940239
 30
0.0
 11
213.6207968127
 21
484.830940239
 31
0.0
  0
MTEXT
  5
23E
330
236
100
AcDbEntity
  8
0
  6
CONTINUOUS
 62
     7
100
AcDbMText
 10
309.3107969352
 20
495.6591092531
 30
0.0
 40
8.4
 41
0.0
 71
     1
 72
     1
  1
210
  7
SLDTEXTSTYLE0
  0
ENDBLK
  5
238
330
236
100
AcDbEntity
  8
0
100
AcDbBlockEnd
  0
BLOCK
  5
241
330
240
100
AcDbEntity
  8
0
100
AcDbBlockBegin
  2
_D_11
 70
     0
 10
0.0
 20
0.0
 30
0.0
  3
_D_11
  1

  0
SOLID
  5
243
330
240
100
AcDbEntity
  8
0
  6
CONTINUOUS
 62
     7
100
AcDbTrace
 10
213.6207968127
 20
484.830940239
 30
0.0
 11
204.6207968127
 21
486.2155556237
 31
0.0
 12
204.6207968127
 22
483.4463248544
 32
0.0
 13
204.6207968127
 23
483.4463248544
 33
0.0
  0
SOLID
  5
244
330
240
100
AcDbEntity
  8
0
  6
CONTINUOUS
 62
     7
100
AcDbTrace
 10
153.6207968127
 20
484.830940239
 30
0.0
 11
162.6207968127
 21
483.4463248544
 31
0.0
 12
162.6207968127
 22
486.2155556237
 32
0.0
 13
162.6207968127
 23
486.2155556237
 33
0.0
  0
LINE
  5
245
330
240
100
AcDbEntity
  8
0
  6
CONTINUOUS
 62
     7
100
AcDbLine
 10
213.6207968127
 20
535.830940239
 30
0.0
 11
213.6207968127
 21
481.830940239
 31
0.0
  0
LINE
  5
246
330
240
100
AcDbEntity
  8
0
  6
CONTINUOUS
 62
     7
100
AcDbLine
 10
153.6207968127
 20
510.830940239
 30
0.0
 11
153.6207968127
 21
481.830940239
 31
0.0
  0
LINE
  5
247
330
240
100
AcDbEntity
  8
0
  6
CONTINUOUS
 62
     7
100
AcDbLine
 10
213.6207968127
 20
484.830940239
 30
0.0
 11
153.6207968127
 21
484.830940239
 31
0.0
  0
MTEXT
  5
248
330
240
100
AcDbEntity
  8
0
  6
CONTINUOUS
 62
     7
100
AcDbMText
 10
177.4141302277
 20
495.6591092531
 30
0.0
 40
8.4
 41
0.0
 71
     1
 72
     1
  1
60
  7
SLDTEXTSTYLE0
  0
ENDBLK
  5
242
330
240
100
AcDbEntity
  8
0
100
AcDbBlockEnd
  0
BLOCK
  5
24B
330
24A
100
AcDbEntity
  8
0
100
AcDbBlockBegin
  2
_D_12
 70
     0
 10
0.0
 20
0.0
 30
0.0
  3
_D_12
  1

  0
SOLID
  5
24D
330
24A
100
AcDbEntity
  8
0
  6
CONTINUOUS
 62
     7
100
AcDbTrace
 10
423.6207968127
 20
484.830940239
 30
0.0
 11
432.6207968127
 21
483.4463248544
 31
0.0
 12
432.6207968127
 22
486.2155556237
 32
0.0
 13
432.6207968127
 23
486.2155556237
 33
0.0
  0
SOLID
  5
24E
330
24A
100
AcDbEntity
  8
0
  6
CONTINUOUS
 62
     7
100
AcDbTrace
 10
483.6207968127
 20
484.830940239
 30
0.0
 11
474.6207968127
 21
486.2155556237
 31
0.0
 12
474.6207968127
 22
483.4463248544
 32
0.0
 13
474.6207968127
 23
483.4463248544
 33
0.0
  0
LINE
  5
24F
330
24A
100
AcDbEntity
  8
0
  6
CONTINUOUS
 62
     7
100
AcDbLine
 10
423.6207968127
 20
535.830940239
 30
0.0
 11
423.6207968127
 21
481.830940239
 31
0.0
  0
LINE
  5
250
330
24A
100
AcDbEntity
  8
0
  6
CONTINUOUS
 62
     7
100
AcDbLine
 10
483.6207968127
 20
510.830940239
 30
0.0
 11
483.6207968127
 21
481.830940239
 31
0.0
  0
LINE
  5
251
330
24A
100
AcDbEntity
  8
0
  6
CONTINUOUS
 62
     7
100
AcDbLine
 10
423.6207968127
 20
484.830940239
 30
0.0
 11
483.6207968127
 21
484.830940239
 31
0.0
  0
MTEXT
  5
252
330
24A
100
AcDbEntity
  8
0
  6
CONTINUOUS
 62
     7
100
AcDbMText
 10
447.4141302277
 20
495.6591092531
 30
0.0
 40
8.4
 41
0.0
 71
     1
 72
     1
  1
60
  7
SLDTEXTSTYLE0
  0
ENDBLK
  5
24C
330
24A
100
AcDbEntity
  8
0
100
AcDbBlockEnd
  0
BLOCK
  5
255
330
254
100
AcDbEntity
  8
0
100
AcDbBlockBegin
  2
_D_13
 70
     0
 10
0.0
 20
0.0
 30
0.0
  3
_D_13
  1

  0
SOLID
  5
257
330
254
100
AcDbEntity
  8
0
  6
CONTINUOUS
 62
     7
100
AcDbTrace
 10
153.6207968127
 20
448.830940239
 30
0.0
 11
162.6207968127
 21
447.4463248544
 31
0.0
 12
162.6207968127
 22
450.2155556237
 32
0.0
 13
162.6207968127
 23
450.2155556237
 33
0.0
  0
SOLID
  5
258
330
254
100
AcDbEntity
  8
0
  6
CONTINUOUS
 62
     7
100
AcDbTrace
 10
483.6207968127
 20
448.830940239
 30
0.0
 11
474.6207968127
 21
450.2155556237
 31
0.0
 12
474.6207968127
 22
447.4463248544
 32
0.0
 13
474.6207968127
 23
447.4463248544
 33
0.0
  0
LINE
  5
259
330
254
100
AcDbEntity
  8
0
  6
CONTINUOUS
 62
     7
100
AcDbLine
 10
153.6207968127
 20
510.830940239
 30
0.0
 11
153.6207968127
 21
445.830940239
 31
0.0
  0
LINE
  5
25A
330
254
100
AcDbEntity
  8
0
  6
CONTINUOUS
 62
     7
100
AcDbLine
 10
483.6207968127
 20
510.830940239
 30
0.0
 11
483.6207968127
 21
445.830940239
 31
0.0
  0
LINE
  5
25B
330
254
100
AcDbEntity
  8
0
  6
CONTINUOUS
 62
     7
100
AcDbLine
 10
153.6207968127
 20
448.830940239
 30
0.0
 11
483.6207968127
 21
448.830940239
 31
0.0
  0
MTEXT
  5
25C
330
254
100
AcDbEntity
  8
0
  6
CONTINUOUS
 62
     7
100
AcDbMText
 10
309.3107969352
 20
459.6591092531
 30
0.0
 40
8.4
 41
0.0
 71
     1
 72
     1
  1
330
  7
SLDTEXTSTYLE0
  0
ENDBLK
  5
256
330
254
100
AcDbEntity
  8
0
100
AcDbBlockEnd
  0
BLOCK
  5
260
330
25F
100
AcDbEntity
  8
0
100
AcDbBlockBegin
  2
_D_14
 70
     0
 10
0.0
 20
0.0
 30
0.0
  3
_D_14
  1

  0
SOLID
  5
262
330
25F
100
AcDbEntity
  8
0
  6
CONTINUOUS
 62
     7
100
AcDbTrace
 10
155.1413332165
 20
607.4216690066
 30
0.0
 11
149.8726544019
 21
614.8485245534
 31
0.0
 12
147.8839430845
 22
612.9214370231
 32
0.0
 13
147.8839430845
 23
612.9214370231
 33
0.0
  0
LINE
  5
263
330
25F
100
AcDbEntity
  8
0
  6
CONTINUOUS
 62
     7
100
AcDbLine
 10
155.1413332165
 20
607.4216690066
 30
0.0
 11
137.4512977589
 21
625.6773907463
 31
0.0
  0
LINE
  5
264
330
25F
100
AcDbEntity
  8
0
  6
CONTINUOUS
 62
     7
100
AcDbLine
 10
155.1413332165
 20
607.4216690066
 30
0.0
 11
158.6207968127
 21
603.830940239
 31
0.0
  0
MTEXT
  5
265
330
25F
100
AcDbEntity
  8
0
  6
CONTINUOUS
 62
     7
100
AcDbMText
 10
145.0628981063
 20
633.0531320046
 30
0.0
 40
8.4
 41
0.0
 71
     1
 72
     1
  1
R5
  7
SLDTEXTSTYLE0
 11
0.6958927192531746
 21
-0.7181457535141611
 31
0.0
  0
ENDBLK
  5
261
330
25F
100
AcDbEntity
  8
0
100
AcDbBlockEnd
  0
BLOCK
  5
28E
330
28D
100
AcDbEntity
  8
0
100
AcDbBlockBegin
  2
_D_15
 70
     0
 10
0.0
 20
0.0
 30
0.0
  3
_D_15
  1

  0
SOLID
  5
290
330
28D
100
AcDbEntity
  8
0
  6
CONTINUOUS
 62
     7
100
AcDbTrace
 10
507.6207968127
 20
737.0432589641
 30
0.0
 11
506.2361814281
 21
728.0432589641
 31
0.0
 12
509.0054121974
 22
728.0432589641
 32
0.0
 13
509.0054121974
 23
728.0432589641
 33
0.0
  0
SOLID
  5
291
330
28D
100
AcDbEntity
  8
0
  6
CONTINUOUS
 62
     7
100
AcDbTrace
 10
507.6207968127
 20
747.0432589641
 30
0.0
 11
509.0054121974
 21
756.0432589641
 31
0.0
 12
506.2361814281
 22
756.0432589641
 32
0.0
 13
506.2361814281
 23
756.0432589641
 33
0.0
  0
LINE
  5
292
330
28D
100
AcDbEntity
  8
0
  6
CONTINUOUS
 62
     7
100
AcDbLine
 10
486.6207968127
 20
737.0432589641
 30
0.0
 11
510.6207968127
 21
737.0432589641
 31
0.0
  0
LINE
  5
293
330
28D
100
AcDbEntity
  8
0
  6
CONTINUOUS
 62
     7
100
AcDbLine
 10
486.6207968127
 20
747.0432589641
 30
0.0
 11
510.6207968127
 21
747.0432589641
 31
0.0
  0
LINE
  5
294
330
28D
100
AcDbEntity
  8
0
  6
CONTINUOUS
 62
     7
100
AcDbLine
 10
507.6207968127
 20
737.0432589641
 30
0.0
 11
507.6207968127
 21
704.2189008923
 31
0.0
  0
LINE
  5
295
330
28D
100
AcDbEntity
  8
0
  6
CONTINUOUS
 62
     7
100
AcDbLine
 10
507.6207968127
 20
737.0432589641
 30
0.0
 11
507.6207968127
 21
747.0432589641
 31
0.0
  0
LINE
  5
296
330
28D
100
AcDbEntity
  8
0
  6
CONTINUOUS
 62
     7
100
AcDbLine
 10
507.6207968127
 20
747.0432589641
 30
0.0
 11
507.6207968127
 21
764.3509512718
 31
0.0
  0
MTEXT
  5
297
330
28D
100
AcDbEntity
  8
0
  6
CONTINUOUS
 62
     7
100
AcDbMText
 10
496.7926277987
 20
704.2189008923
 30
0.0
 40
8.4
 41
0.0
 71
     1
 72
     1
  1
10
  7
SLDTEXTSTYLE0
 11
6.123233995736766E-17
 21
1.0
 31
0.0
  0
ENDBLK
  5
28F
330
28D
100
AcDbEntity
  8
0
100
AcDbBlockEnd
  0
ENDSEC
  0
SECTION
  2
ENTITIES
  0
LINE
  5
75
330
1F
100
AcDbEntity
  8
0
  6
CONTINUOUS
 62
     7
100
AcDbLine
 10
548.853
 20
20.9559
 30
0.0
 11
599.853
 21
20.9559
 31
0.0
  0
LINE
  5
76
330
1F
100
AcDbEntity
  8
0
  6
CONTINUOUS
 62
     7
100
AcDbLine
 10
548.853
 20
38.9559
 30
0.0
 11
599.853
 21
38.9559
 31
0.0
  0
LINE
  5
77
330
1F
100
AcDbEntity
  8
0
  6
CONTINUOUS
 62
     7
100
AcDbLine
 10
548.853
 20
49.4559
 30
0.0
 11
599.853
 21
49.4559
 31
0.0
  0
LINE
  5
78
330
1F
100
AcDbEntity
  8
0
  6
CONTINUOUS
 62
     7
100
AcDbLine
 10
548.853
 20
49.4559
 30
0.0
 11
548.853
 21
10.4559
 31
0.0
  0
LINE
  5
79
330
1F
100
AcDbEntity
  8
0
  6
CONTINUOUS
 62
     7
100
AcDbLine
 10
38.253
 20
10.4559
 30
0.0
 11
599.853
 21
10.4559
 31
0.0
  0
LINE
  5
7A
330
1F
100
AcDbEntity
  8
0
  6
CONTINUOUS
 62
     7
100
AcDbLine
 10
38.2521483544
 20
10.4559
 30
0.0
 11
599.853
 21
10.4559
 31
0.0
  0
LINE
  5
7B
330
1F
100
AcDbEntity
  8
0
  6
CONTINUOUS
 62
     7
100
AcDbLine
 10
599.853
 20
143.0559
 30
0.0
 11
599.853
 21
10.4559
 31
0.0
  0
LINE
  5
7C
330
1F
100
AcDbEntity
  8
0
  6
CONTINUOUS
 62
     7
100
AcDbLine
 10
38.253
 20
182.2851883017
 30
0.0
 11
38.253
 21
10.4559
 31
0.0
  0
LINE
  5
7D
330
1F
100
AcDbEntity
  8
0
  6
CONTINUOUS
 62
     7
100
AcDbLine
 10
548.8521483544
 20
95.0531601616
 30
0.0
 11
548.8521483544
 21
10.4559
 31
0.0
  0
LINE
  5
7E
330
1F
100
AcDbEntity
  8
0
  6
CONTINUOUS
 62
     7
100
AcDbLine
 10
548.8521483544
 20
49.4559
 30
0.0
 11
599.853
 21
49.4559
 31
0.0
  0
LINE
  5
7F
330
1F
100
AcDbEntity
  8
0
  6
CONTINUOUS
 62
     7
100
AcDbLine
 10
38.2521483544
 20
143.0559
 30
0.0
 11
38.2521483544
 21
10.4559
 31
0.0
  0
LINE
  5
80
330
1F
100
AcDbEntity
  8
0
  6
CONTINUOUS
 62
     7
100
AcDbLine
 10
113.4517251165
 20
95.0531601616
 30
0.0
 11
113.4517251165
 21
77.0559
 31
0.0
  0
LINE
  5
81
330
1F
100
AcDbEntity
  8
0
  6
CONTINUOUS
 62
     7
100
AcDbLine
 10
38.2521483544
 20
77.0559
 30
0.0
 11
216.7521483544
 21
77.0559
 31
0.0
  0
LINE
  5
82
330
1F
100
AcDbEntity
  8
0
  6
CONTINUOUS
 62
     7
100
AcDbLine
 10
38.2521483544
 20
28.4559
 30
0.0
 11
216.9486354772
 21
28.4559
 31
0.0
  0
LINE
  5
83
330
1F
100
AcDbEntity
  8
0
  6
CONTINUOUS
 62
     7
100
AcDbLine
 10
216.7521483544
 20
77.0559
 30
0.0
 11
216.7521483544
 21
10.4559
 31
0.0
  0
LINE
  5
84
330
1F
100
AcDbEntity
  8
0
  6
CENTERX2
 62
     7
100
AcDbLine
 10
553.6542102301
 20
63.7264403491
 30
0.0
 11
594.1471658932
 21
63.7264403491
 31
0.0
  0
LINE
  5
85
330
1F
100
AcDbEntity
  8
0
  6
CENTERX2
 62
     7
100
AcDbLine
 10
584.8334724478
 20
73.4824780728
 30
0.0
 11
584.8334724478
 21
53.6978258072
 31
0.0
  0
LINE
  5
86
330
1F
100
AcDbEntity
  8
0
  6
CONTINUOUS
 62
     7
100
AcDbLine
 10
216.7521483544
 20
77.0559
 30
0.0
 11
548.8521483544
 21
77.0559
 31
0.0
  0
LINE
  5
87
330
1F
100
AcDbEntity
  8
TESTO
100
AcDbLine
 10
98.1015851339
 20
55.5308271846
 30
0.0
 11
85.5089634008
 21
45.8569372996
 31
0.0
  0
LINE
  5
88
330
1F
100
AcDbEntity
  8
0
  6
CONTINUOUS
 62
     7
100
AcDbLine
 10
216.7521483544
 20
34.4559
 30
0.0
 11
548.8521483544
 21
34.4559
 31
0.0
  0
LINE
  5
89
330
1F
100
AcDbEntity
  8
TESTO
100
AcDbLine
 10
74.1093681186
 20
54.9373538527
 30
0.0
 11
77.7734757169
 21
52.0697913844
 31
0.0
  0
LINE
  5
8A
330
1F
100
AcDbEntity
  8
0
  6
CONTINUOUS
 62
     7
100
AcDbLine
 10
469.7535197989
 20
77.0559
 30
0.0
 11
469.7535197989
 21
62.8559
 31
0.0
  0
LINE
  5
8B
330
1F
100
AcDbEntity
  8
0
  6
CONTINUOUS
 62
     7
100
AcDbLine
 10
469.7535197989
 20
62.8559
 30
0.0
 11
469.7535197989
 21
48.6559
 31
0.0
  0
LINE
  5
8C
330
1F
100
AcDbEntity
  8
0
  6
CONTINUOUS
 62
     7
100
AcDbLine
 10
599.853
 20
886.4559
 30
0.0
 11
23.253
 21
886.4559
 31
0.0
  0
LINE
  5
8D
330
1F
100
AcDbEntity
  8
0
  6
CONTINUOUS
 62
     7
100
AcDbLine
 10
558.5149998352
 20
67.3906151444
 30
0.0
 11
558.5149998352
 21
59.8906151444
 31
0.0
  0
LINE
  5
8E
330
1F
100
AcDbEntity
  8
0
  6
CONTINUOUS
 62
     7
100
AcDbLine
 10
571.2773218213
 20
69.6406151444
 30
0.0
 11
571.2162580798
 21
57.6406151444
 31
0.0
  0
LINE
  5
8F
330
1F
100
AcDbEntity
  8
0
  6
CONTINUOUS
 62
     7
100
AcDbLine
 10
571.2773218213
 20
69.6406151444
 30
0.0
 11
558.5149998352
 21
67.3906151444
 31
0.0
  0
LINE
  5
90
330
1F
100
AcDbEntity
  8
0
  6
CONTINUOUS
 62
     7
100
AcDbLine
 10
571.2162580798
 20
57.6406151444
 30
0.0
 11
558.5149998352
 21
59.8906151444
 31
0.0
  0
LINE
  5
91
330
1F
100
AcDbEntity
  8
0
  6
CONTINUOUS
 62
     7
100
AcDbLine
 10
469.7535197989
 20
48.6559
 30
0.0
 11
469.7535197989
 21
34.4559
 31
0.0
  0
LINE
  5
92
330
1F
100
AcDbEntity
  8
0
  6
CONTINUOUS
 62
     7
100
AcDbLine
 10
469.7535197989
 20
62.8559
 30
0.0
 11
548.8521483544
 21
62.8559
 31
0.0
  0
LINE
  5
93
330
1F
100
AcDbEntity
  8
0
  6
CONTINUOUS
 62
     7
100
AcDbLine
 10
469.7535197989
 20
48.6559
 30
0.0
 11
548.8521483544
 21
48.6559
 31
0.0
  0
LINE
  5
94
330
1F
100
AcDbEntity
  8
0
  6
CONTINUOUS
 62
     7
100
AcDbLine
 10
504.770980414
 20
34.4559
 30
0.0
 11
504.770980414
 21
10.4559
 31
0.0
  0
LINE
  5
95
330
1F
100
AcDbEntity
  8
0
  6
CONTINUOUS
 62
     7
100
AcDbLine
 10
333.8149094398
 20
34.4559
 30
0.0
 11
333.8149094398
 21
10.4559
 31
0.0
  0
LINE
  5
96
330
1F
100
AcDbEntity
  8
0
  6
CONTINUOUS
 62
     7
100
AcDbLine
 10
333.8149094398
 20
22.4559
 30
0.0
 11
216.7521483544
 21
22.4559
 31
0.0
  0
LINE
  5
97
330
1F
100
AcDbEntity
  8
0
  6
CONTINUOUS
 62
     7
100
AcDbLine
 10
23.253
 20
886.4559
 30
0.0
 11
23.253
 21
10.4559
 31
0.0
  0
LINE
  5
98
330
1F
100
AcDbEntity
  8
0
  6
CONTINUOUS
 62
     7
100
AcDbLine
 10
38.253
 20
140.9559
 30
0.0
 11
23.253
 21
140.9559
 31
0.0
  0
LINE
  5
99
330
1F
100
AcDbEntity
  8
0
  6
CONTINUOUS
 62
     7
100
AcDbLine
 10
23.253
 20
10.4559
 30
0.0
 11
38.253
 21
10.4559
 31
0.0
  0
LINE
  5
9A
330
1F
100
AcDbEntity
  8
0
  6
CONTINUOUS
 62
     7
100
AcDbLine
 10
38.253
 20
871.4559
 30
0.0
 11
38.253
 21
10.4559
 31
0.0
  0
LINE
  5
9B
330
1F
100
AcDbEntity
  8
0
  6
CONTINUOUS
 62
     7
100
AcDbLine
 10
599.853
 20
10.4559
 30
0.0
 11
599.853
 21
871.4559
 31
0.0
  0
LINE
  5
9C
330
1F
100
AcDbEntity
  8
0
  6
CONTINUOUS
 62
     7
100
AcDbLine
 10
599.853
 20
871.4559
 30
0.0
 11
38.253
 21
871.4559
 31
0.0
  0
LINE
  5
9D
330
1F
100
AcDbEntity
  8
0
  6
CONTINUOUS
 62
     7
100
AcDbLine
 10
23.253
 20
290.9559
 30
0.0
 11
38.253
 21
290.9559
 31
0.0
  0
LINE
  5
9E
330
1F
100
AcDbEntity
  8
0
  6
CONTINUOUS
 62
     7
100
AcDbLine
 10
23.253
 20
590.9559
 30
0.0
 11
38.253
 21
590.9559
 31
0.0
  0
LINE
  5
9F
330
1F
100
AcDbEntity
  8
0
  6
CONTINUOUS
 62
     7
100
AcDbLine
 10
38.253
 20
740.9559
 30
0.0
 11
23.253
 21
740.9559
 31
0.0
  0
LINE
  5
A0
330
1F
100
AcDbEntity
  8
0
  6
CONTINUOUS
 62
     7
100
AcDbLine
 10
161.553
 20
871.4559
 30
0.0
 11
161.553
 21
886.4559
 31
0.0
  0
LINE
  5
A1
330
1F
100
AcDbEntity
  8
0
  6
CONTINUOUS
 62
     7
100
AcDbLine
 10
461.553
 20
871.4559
 30
0.0
 11
461.553
 21
886.4559
 31
0.0
  0
LINE
  5
A2
330
1F
100
AcDbEntity
  8
0
  6
CONTINUOUS
 62
     7
100
AcDbLine
 10
38.253
 20
871.4559
 30
0.0
 11
23.253
 21
871.4559
 31
0.0
  0
LINE
  5
A3
330
1F
100
AcDbEntity
  8
0
  6
CONTINUOUS
 62
     7
100
AcDbLine
 10
38.253
 20
871.4559
 30
0.0
 11
38.253
 21
886.4559
 31
0.0
  0
LINE
  5
A4
330
1F
100
AcDbEntity
  8
0
  6
CONTINUOUS
 62
     7
100
AcDbLine
 10
599.853
 20
871.4559
 30
0.0
 11
599.853
 21
886.4559
 31
0.0
  0
LINE
  5
A5
330
1F
100
AcDbEntity
  8
0
  6
CONTINUOUS
 62
     7
100
AcDbLine
 10
311.553
 20
886.4559
 30
0.0
 11
311.553
 21
871.4559
 31
0.0
  0
LINE
  5
A6
330
1F
100
AcDbEntity
  8
0
  6
CONTINUOUS
 62
     7
100
AcDbLine
 10
23.253
 20
440.9559
 30
0.0
 11
53.253
 21
440.9559
 31
0.0
  0
LINE
  5
A7
330
1F
100
AcDbEntity
  8
0
  6
CONTINUOUS
 62
     7
100
AcDbLine
 10
218.2521483544
 20
143.0559
 30
0.0
 11
218.2521483544
 21
119.0559
 31
0.0
  0
LINE
  5
A8
330
1F
100
AcDbEntity
  8
0
  6
CONTINUOUS
 62
     7
100
AcDbLine
 10
38.2521483544
 20
95.0531601616
 30
0.0
 11
599.853
 21
95.0531601616
 31
0.0
  0
LINE
  5
A9
330
1F
100
AcDbEntity
  8
TESTO
100
AcDbLine
 10
50.7067505828
 20
72.8799242199
 30
0.0
 11
116.919937635
 21
72.8799242199
 31
0.0
  0
LINE
  5
AA
330
1F
100
AcDbEntity
  8
TESTO
100
AcDbLine
 10
50.7067505828
 20
72.8799242199
 30
0.0
 11
56.9359091328
 21
68.0945669554
 31
0.0
  0
LINE
  5
AB
330
1F
100
AcDbEntity
  8
0
  6
CONTINUOUS
 62
     7
100
AcDbLine
 10
204.0442265786
 20
95.0531601616
 30
0.0
 11
204.0442265786
 21
77.0559
 31
0.0
  0
LINE
  5
AC
330
1F
100
AcDbEntity
  8
0
  6
CONTINUOUS
 62
     7
100
AcDbLine
 10
398.3014791804
 20
95.0531601616
 30
0.0
 11
398.3014791804
 21
77.0559
 31
0.0
  0
LINE
  5
AD
330
1F
100
AcDbEntity
  8
0
  6
CONTINUOUS
 62
     7
100
AcDbLine
 10
478.6868968972
 20
95.0531601616
 30
0.0
 11
478.6868968972
 21
77.0559
 31
0.0
  0
LINE
  5
AE
330
1F
100
AcDbEntity
  8
0
  6
CONTINUOUS
 62
     7
100
AcDbLine
 10
38.2521483544
 20
119.0559
 30
0.0
 11
599.853
 21
119.0559
 31
0.0
  0
LINE
  5
AF
330
1F
100
AcDbEntity
  8
TESTO
100
AcDbLine
 10
116.919937635
 20
72.8799242199
 30
0.0
 11
110.6361168833
 21
68.0525744196
 31
0.0
  0
LINE
  5
B0
330
1F
100
AcDbEntity
  8
TESTO
100
AcDbLine
 10
66.3953014414
 20
60.8276830998
 30
0.0
 11
71.8164736417
 21
56.6630362118
 31
0.0
  0
LINE
  5
B1
330
1F
100
AcDbEntity
  8
0
  6
CONTINUOUS
 62
     7
100
AcDbLine
 10
38.2521483544
 20
143.0559
 30
0.0
 11
599.853
 21
143.0559
 31
0.0
  0
LINE
  5
B2
330
1F
100
AcDbEntity
  8
0
  6
CONTINUOUS
 62
     7
100
AcDbLine
 10
311.2521483544
 20
143.0559
 30
0.0
 11
311.2521483544
 21
119.0559
 31
0.0
  0
LINE
  5
B3
330
1F
100
AcDbEntity
  8
0
  6
CONTINUOUS
 62
     7
100
AcDbLine
 10
398.2521483544
 20
119.0559
 30
0.0
 11
398.2521483544
 21
95.0531601616
 31
0.0
  0
LINE
  5
B4
330
1F
100
AcDbEntity
  8
0
  6
CONTINUOUS
 62
     7
100
AcDbLine
 10
398.2521483544
 20
119.0559
 30
0.0
 11
398.2521483544
 21
143.0559
 31
0.0
  0
LINE
  5
B5
330
1F
100
AcDbEntity
  8
0
  6
CONTINUOUS
 62
     7
100
AcDbLine
 10
398.2521483544
 20
107.0559
 30
0.0
 11
599.853
 21
107.0559
 31
0.0
  0
LINE
  5
B6
330
1F
100
AcDbEntity
  8
0
  6
CONTINUOUS
 62
     7
100
AcDbLine
 10
86.253
 20
856.4559
 30
0.0
 11
86.253
 21
871.4559
 31
0.0
  0
LINE
  5
B7
330
1F
100
AcDbEntity
  8
0
  6
CONTINUOUS
 62
     7
100
AcDbLine
 10
38.253
 20
856.4559
 30
0.0
 11
599.853
 21
856.4559
 31
0.0
  0
LINE
  5
B8
330
1F
100
AcDbEntity
  8
0
  6
CONTINUOUS
 62
     7
100
AcDbLine
 10
38.253
 20
856.4559
 30
0.0
 11
38.253
 21
871.4559
 31
0.0
  0
LINE
  5
B9
330
1F
100
AcDbEntity
  8
0
  6
CONTINUOUS
 62
     7
100
AcDbLine
 10
38.253
 20
871.4559
 30
0.0
 11
599.853
 21
871.4559
 31
0.0
  0
LINE
  5
BA
330
1F
100
AcDbEntity
  8
0
  6
CONTINUOUS
 62
     7
100
AcDbLine
 10
599.853
 20
856.4559
 30
0.0
 11
599.853
 21
871.4559
 31
0.0
  0
LINE
  5
BB
330
1F
100
AcDbEntity
  8
0
  6
CONTINUOUS
 62
     7
100
AcDbLine
 10
551.853
 20
856.4559
 30
0.0
 11
551.853
 21
871.4559
 31
0.0
  0
LINE
  5
BC
330
1F
100
AcDbEntity
  8
0
  6
CONTINUOUS
 62
     7
100
AcDbLine
 10
463.0887373015
 20
856.4559
 30
0.0
 11
463.0887373015
 21
871.4559
 31
0.0
  0
LINE
  5
BD
330
1F
100
AcDbEntity
  8
0
  6
CONTINUOUS
 62
     7
100
AcDbLine
 10
38.253
 20
841.4559
 30
0.0
 11
599.853
 21
841.4559
 31
0.0
  0
LINE
  5
BE
330
1F
100
AcDbEntity
  8
0
  6
CONTINUOUS
 62
     7
100
AcDbLine
 10
38.253
 20
826.4559
 30
0.0
 11
599.853
 21
826.4559
 31
0.0
  0
LINE
  5
BF
330
1F
100
AcDbEntity
  8
0
  6
CONTINUOUS
 62
     7
100
AcDbLine
 10
38.253
 20
811.4559
 30
0.0
 11
599.853
 21
811.4559
 31
0.0
  0
LINE
  5
C0
330
1F
100
AcDbEntity
  8
0
  6
CONTINUOUS
 62
     7
100
AcDbLine
 10
38.253
 20
856.4559
 30
0.0
 11
38.253
 21
811.4559
 31
0.0
  0
LINE
  5
C1
330
1F
100
AcDbEntity
  8
0
  6
CONTINUOUS
 62
     7
100
AcDbLine
 10
86.253
 20
856.4559
 30
0.0
 11
86.253
 21
811.4559
 31
0.0
  0
LINE
  5
C2
330
1F
100
AcDbEntity
  8
0
  6
CONTINUOUS
 62
     7
100
AcDbLine
 10
463.0887373015
 20
856.4559
 30
0.0
 11
463.0887373015
 21
811.4559
 31
0.0
  0
LINE
  5
C3
330
1F
100
AcDbEntity
  8
0
  6
CONTINUOUS
 62
     7
100
AcDbLine
 10
551.853
 20
856.4559
 30
0.0
 11
551.853
 21
811.4559
 31
0.0
  0
LINE
  5
C4
330
1F
100
AcDbEntity
  8
0
  6
CONTINUOUS
 62
     7
100
AcDbLine
 10
599.853
 20
856.4559
 30
0.0
 11
599.853
 21
811.4559
 31
0.0
  0
LINE
  5
C5
330
1F
100
AcDbEntity
  8
0
  6
CONTINUOUS
 62
     7
100
AcDbLine
 10
296.9844852011
 20
95.0531601616
 30
0.0
 11
296.9844852011
 21
77.0559
 31
0.0
  0
LINE
  5
C6
330
1F
100
AcDbEntity
  8
0
  6
CONTINUOUS
 62
     7
100
AcDbLine
 10
216.7521483544
 20
43.7559
 30
0.0
 11
469.7535197989
 21
43.7559
 31
0.0
  0
LINE
  5
C7
330
1F
100
AcDbEntity
  8
0
  6
CONTINUOUS
 62
     7
100
AcDbLine
 10
399.0542505872
 20
43.7559
 30
0.0
 11
399.0542505872
 21
34.4559
 31
0.0
  0
LINE
  5
C8
330
1F
100
AcDbEntity
  8
0
  6
CONTINUOUS
 62
     7
100
AcDbLine
 10
38.253
 20
180.6857124379
 30
0.0
 11
38.253
 21
125.2059
 31
0.0
  0
CIRCLE
  5
C9
330
1F
100
AcDbEntity
  8
0
  6
CONTINUOUS
 62
     7
100
AcDbCircle
 10
584.8334724478
 20
63.7264403491
 30
0.0
 40
3.749999999999955
  0
CIRCLE
  5
CA
330
1F
100
AcDbEntity
  8
0
  6
CONTINUOUS
 62
     7
100
AcDbCircle
 10
584.8334724478
 20
63.7264403491
 30
0.0
 40
5.999999999999927
  0
MTEXT
  5
CC
330
1F
100
AcDbEntity
  8
0
  6
CONTINUOUS
 62
     7
100
AcDbMText
 10
28.253
 20
519.4599612107
 30
0.0
 40
5.55625
 41
0.0
 71
     1
 72
     1
  1
C
  7
SLDTEXTSTYLE0
  0
MTEXT
  5
CD
330
1F
100
AcDbEntity
  8
0
  6
CONTINUOUS
 62
     7
100
AcDbMText
 10
234.053009
 20
882.4599732107
 30
0.0
 40
5.55625
 41
0.0
 71
     1
 72
     1
  1
2
  7
SLDTEXTSTYLE0
  0
MTEXT
  5
CE
330
1F
100
AcDbEntity
  8
0
  6
CONTINUOUS
 62
     7
100
AcDbMText
 10
384.053009
 20
882.4599732107
 30
0.0
 40
5.55625
 41
0.0
 71
     1
 72
     1
  1
3
  7
SLDTEXTSTYLE0
  0
MTEXT
  5
CF
330
1F
100
AcDbEntity
  8
0
  6
CONTINUOUS
 62
     7
100
AcDbMText
 10
85.303009
 20
882.4599732107
 30
0.0
 40
5.55625
 41
0.0
 71
     1
 72
     1
  1
1
  7
SLDTEXTSTYLE0
  0
MTEXT
  5
D0
330
1F
100
AcDbEntity
  8
0
  6
CONTINUOUS
 62
     7
100
AcDbMText
 10
534.052982
 20
882.4599732107
 30
0.0
 40
5.55625
 41
0.0
 71
     1
 72
     1
  1
4
  7
SLDTEXTSTYLE0
  0
MTEXT
  5
D1
330
1F
100
AcDbEntity
  8
0
  6
CONTINUOUS
 62
     7
100
AcDbMText
 10
28.253
 20
669.4599612107
 30
0.0
 40
5.55625
 41
0.0
 71
     1
 72
     1
  1
B
  7
SLDTEXTSTYLE0
  0
MTEXT
  5
D2
330
1F
100
AcDbEntity
  8
0
  6
CONTINUOUS
 62
     7
100
AcDbMText
 10
28.253
 20
819.4599612107
 30
0.0
 40
5.55625
 41
0.0
 71
     1
 72
     1
  1
A
  7
SLDTEXTSTYLE0
  0
MTEXT
  5
D3
330
1F
100
AcDbEntity
  8
0
  6
CONTINUOUS
 62
     7
100
AcDbMText
 10
28.253
 20
369.4599612107
 30
0.0
 40
5.55625
 41
0.0
 71
     1
 72
     1
  1
D
  7
SLDTEXTSTYLE0
  0
MTEXT
  5
D4
330
1F
100
AcDbEntity
  8
0
  6
CONTINUOUS
 62
     7
100
AcDbMText
 10
28.253
 20
219.4599612107
 30
0.0
 40
5.55625
 41
0.0
 71
     1
 72
     1
  1
E
  7
SLDTEXTSTYLE0
  0
MTEXT
  5
D5
330
1F
100
AcDbEntity
  8
0
  6
CONTINUOUS
 62
     7
100
AcDbMText
 10
28.253
 20
69.4599612107
 30
0.0
 40
5.55625
 41
0.0
 71
     1
 72
     1
  1
F
  7
SLDTEXTSTYLE0
  0
MTEXT
  5
D6
330
1F
100
AcDbEntity
  8
0
  6
CONTINUOUS
 62
     7
100
AcDbMText
 10
566.5390288355
 20
34.0167293771
 30
0.0
 40
8.73125
 41
0.0
 71
     1
 72
     1
  1
A4
  7
SLDTEXTSTYLE0
  0
MTEXT
  5
D8
330
1F
100
AcDbEntity
  8
0
  6
CONTINUOUS
 62
     7
100
AcDbMText
 10
554.0225496273
 20
17.9093453307
 30
0.0
 40
4.5
 41
0.0
 71
     1
 72
     1
  1
FOGLIO 1 DI 1
  7
SLDTEXTSTYLE1
  0
MTEXT
  5
D9
330
1F
100
AcDbEntity
  8
0
  6
CONTINUOUS
 62
     7
100
AcDbMText
 10
559.8041403005
 20
46.8150563692
 30
0.0
 40
4.5
 41
0.0
 71
     1
 72
     1
  1
SCALA:1:3
  7
SLDTEXTSTYLE0
  0
MTEXT
  5
DA
330
1F
100
AcDbEntity
  8
0
  6
CONTINUOUS
 62
     7
100
AcDbMText
 10
314.448575355
 20
139.3741238647
 30
0.0
 40
3.96875
 41
0.0
 71
     1
 72
     1
  1
Grado di finitura
  7
SLDTEXTSTYLE0
  0
MTEXT
  5
DB
330
1F
100
AcDbEntity
  8
0
  6
CONTINUOUS
 62
     7
100
AcDbMText
 10
401.2253542854
 20
101.3821937952
 30
0.0
 40
3.96875
 41
0.0
 71
     1
 72
     1
  1
Profondità
  7
SLDTEXTSTYLE0
  0
MTEXT
  5
DC
330
1F
100
AcDbEntity
  8
0
  6
CONTINUOUS
 62
     7
100
AcDbMText
 10
401.2253542854
 20
114.1407046741
 30
0.0
 40
3.96875
 41
0.0
 71
     1
 72
     1
  1
Durezza
  7
SLDTEXTSTYLE0
  0
MTEXT
  5
DD
330
1F
100
AcDbEntity
  8
0
  6
CONTINUOUS
 62
     7
100
AcDbMText
 10
401.2521483544
 20
139.3741238647
 30
0.0
 40
3.96875
 41
0.0
 71
     1
 72
     1
  1
Trattamento
  7
SLDTEXTSTYLE0
  0
MTEXT
  5
DE
330
1F
100
AcDbEntity
  8
0
  6
CONTINUOUS
 62
     7
100
AcDbMText
 10
220.8606569459
 20
139.3741238647
 30
0.0
 40
3.96875
 41
0.0
 71
     1
 72
     1
  1
Peso Kg
  7
SLDTEXTSTYLE0
  0
MTEXT
  5
DF
330
1F
100
AcDbEntity
  8
0
  6
CONTINUOUS
 62
     7
100
AcDbMText
 10
41.7993729049
 20
139.3741238647
 30
0.0
 40
3.96875
 41
0.0
 71
     1
 72
     1
  1
Materiale
  7
SLDTEXTSTYLE0
  0
MTEXT
  5
E0
330
1F
100
AcDbEntity
  8
0
  6
CONTINUOUS
 62
     7
100
AcDbMText
 10
41.7993729049
 20
116.7746909735
 30
0.0
 40
3.96875
 41
0.0
 71
     1
 72
     1
  1
Note
  7
SLDTEXTSTYLE0
  0
MTEXT
  5
E1
330
1F
100
AcDbEntity
  8
0
  6
CONTINUOUS
 62
     7
100
AcDbMText
 10
43.2806580949
 20
85.2939779938
 30
0.0
 40
5.55625
 41
0.0
 71
     1
 72
     1
  1
ISO 286-1 ISO 8015
  7
SLDTEXTSTYLE0
  0
MTEXT
  5
E2
330
1F
100
AcDbEntity
  8
0
  6
CONTINUOUS
 62
     7
100
AcDbMText
 10
134.6254257137
 20
85.2939779938
 30
0.0
 40
5.55625
 41
0.0
 71
     1
 72
     1
  1
UNI EN 2768 H
  7
SLDTEXTSTYLE1
  0
MTEXT
  5
E3
330
1F
100
AcDbEntity
  8
0
  6
CONTINUOUS
 62
     7
100
AcDbMText
 10
118.6814006457
 20
93.2145561851
 30
0.0
 40
3.96875
 41
0.0
 71
     1
 72
     1
  1
Tolleranze generali geometriche
  7
SLDTEXTSTYLE0
  0
MTEXT
  5
E4
330
1F
100
AcDbEntity
  8
0
  6
CONTINUOUS
 62
     7
100
AcDbMText
 10
489.590822394
 20
93.2145561851
 30
0.0
 40
3.96875
 41
0.0
 71
     1
 72
     1
  1
Raggi non quotati
  7
SLDTEXTSTYLE0
  0
MTEXT
  5
E5
330
1F
100
AcDbEntity
  8
0
  6
CONTINUOUS
 62
     7
100
AcDbMText
 10
412.902890222
 20
93.2145561851
 30
0.0
 40
3.96875
 41
0.0
 71
     1
 72
     1
  1
Smussi non quotati
  7
SLDTEXTSTYLE0
  0
MTEXT
  5
E6
330
1F
100
AcDbEntity
  8
0
  6
CONTINUOUS
 62
     7
100
AcDbMText
 10
300.7235749551
 20
93.2145561851
 30
0.0
 40
3.96875
 41
0.0
 71
     1
 72
     1
  1
Tolleranze angolari
  7
SLDTEXTSTYLE0
  0
MTEXT
  5
E7
330
1F
100
AcDbEntity
  8
0
  6
CONTINUOUS
 62
     7
100
AcDbMText
 10
41.0881862263
 20
93.2145561851
 30
0.0
 40
3.96875
 41
0.0
 71
     1
 72
     1
  1
Tolleranze generali lineari
  7
SLDTEXTSTYLE0
  0
INSERT
  5
EE
330
1F
100
AcDbEntity
  8
0
  6
CONTINUOUS
 62
     7
100
AcDbBlockReference
  2
SW_NOTE_0
 10
562.2665883396
 20
85.20779393
 30
0.0
  0
MTEXT
  5
EF
330
1F
100
AcDbEntity
  8
0
  6
CONTINUOUS
 62
     7
100
AcDbMText
 10
222.2739701595
 20
71.2949641943
 30
0.0
 40
3.96875
 41
0.0
 71
     1
 72
     1
  1
Descrizione
  7
SLDTEXTSTYLE0
  0
MTEXT
  5
F0
330
1F
100
AcDbEntity
  8
0
  6
CONTINUOUS
 62
     7
100
AcDbMText
 10
222.2739701595
 20
18.1877921968
 30
0.0
 40
3.96875
 41
0.0
 71
     1
 72
     1
  1
Data
  7
SLDTEXTSTYLE0
  0
MTEXT
  5
F1
330
1F
100
AcDbEntity
  8
0
  6
CONTINUOUS
 62
     7
100
AcDbMText
 10
222.2739701595
 20
30.2439196276
 30
0.0
 40
3.96875
 41
0.0
 71
     1
 72
     1
  1
Disegnatore
  7
SLDTEXTSTYLE0
  0
MTEXT
  5
F2
330
1F
100
AcDbEntity
  8
0
  6
CONTINUOUS
 62
     7
100
AcDbMText
 10
472.6019997171
 20
43.9104493399
 30
0.0
 40
3.96875
 41
0.0
 71
     1
 72
     1
  1
Sp./Ø:
  7
SLDTEXTSTYLE0
  0
MTEXT
  5
F3
330
1F
100
AcDbEntity
  8
0
  6
CONTINUOUS
 62
     7
100
AcDbMText
 10
472.6019997171
 20
57.7927803093
 30
0.0
 40
3.96875
 41
0.0
 71
     1
 72
     1
  1
Larghezza:
  7
SLDTEXTSTYLE0
  0
MTEXT
  5
F4
330
1F
100
AcDbEntity
  8
0
  6
CONTINUOUS
 62
     7
100
AcDbMText
 10
472.5542098852
 20
71.2949641943
 30
0.0
 40
3.96875
 41
0.0
 71
     1
 72
     1
  1
Lunghezza:
  7
SLDTEXTSTYLE0
  0
MTEXT
  5
F5
330
1F
100
AcDbEntity
  8
0
  6
CONTINUOUS
 62
     7
100
AcDbMText
 10
222.2739701595
 20
40.9870697339
 30
0.0
 40
3.96875
 41
0.0
 71
     1
 72
     1
  1
Disegno
  7
SLDTEXTSTYLE0
  0
MTEXT
  5
F6
330
1F
100
AcDbEntity
  8
0
  6
CONTINUOUS
 62
     7
100
AcDbMText
 10
508.8023587584
 20
31.6586243399
 30
0.0
 40
3.96875
 41
0.0
 71
     1
 72
     1
  1
Revisione
  7
SLDTEXTSTYLE0
  0
INSERT
  5
FC
330
1F
100
AcDbEntity
  8
0
  6
CONTINUOUS
 62
     7
100
AcDbBlockReference
  2
SW_NOTE_0_1
 10
39.8768941647
 20
20.5388529928
 30
0.0
  0
MTEXT
  5
FE
330
1F
100
AcDbEntity
  8
TESTO
100
AcDbMText
 10
57.5806880172
 20
71.5214571735
 30
0.0
 40
14.4
 41
0.0
 71
     1
 72
     1
  1
D
  7
SLDTEXTSTYLE3
  0
MTEXT
  5
FF
330
1F
100
AcDbEntity
  8
TESTO
100
AcDbMText
 10
78.3931216838
 20
53.994286416
 30
0.0
 40
6.0
 41
0.0
 71
     1
 72
     1
  1
s.r.l.
  7
SLDTEXTSTYLE3
  0
MTEXT
  5
100
330
1F
100
AcDbEntity
  8
TESTO
100
AcDbMText
 10
72.285587915
 20
71.2028391215
 30
0.0
 40
14.4
 41
0.0
 71
     1
 72
     1
  1
E
  7
SLDTEXTSTYLE3
  0
MTEXT
  5
101
330
1F
100
AcDbEntity
  8
TESTO
100
AcDbMText
 10
87.7323043859
 20
71.9414561806
 30
0.0
 40
14.4
 41
0.0
 71
     1
 72
     1
  1
C
  7
SLDTEXTSTYLE3
  0
MTEXT
  5
103
330
1F
100
AcDbEntity
  8
FORMAT
100
AcDbMText
 10
126.8294825915
 20
73.812307218
 30
0.0
 40
4.05
 41
0.0
 71
     1
 72
     1
  1
Via XXV Aprile,2
  7
SLDTEXTSTYLE4
  0
MTEXT
  5
104
330
1F
100
AcDbEntity
  8
FORMAT
100
AcDbMText
 10
126.8294825915
 20
66.1330230668
 30
0.0
 40
4.05
 41
0.0
 71
     1
 72
     1
  1
23804 Monte Marenzo (Lc)
  7
SLDTEXTSTYLE4
  0
MTEXT
  5
105
330
1F
100
AcDbEntity
  8
FORMAT
100
AcDbMText
 10
66.8299420714
 20
37.7501796852
 30
0.0
 40
4.05
 41
0.0
 71
     1
 72
     1
  1
ELEVATORI
  7
SLDTEXTSTYLE4
  0
MTEXT
  5
106
330
1F
100
AcDbEntity
  8
FORMAT
100
AcDbMText
 10
52.7587479128
 20
44.4764396283
 30
0.0
 40
4.05
 41
0.0
 71
     1
 72
     1
  1
VIBROALIMENTATORI
  7
SLDTEXTSTYLE4
  0
MTEXT
  5
107
330
1F
100
AcDbEntity
  8
FORMAT
100
AcDbMText
 10
127.8211616368
 20
36.0824244037
 30
0.0
 40
4.05
 41
0.0
 71
     1
 72
     1
  1
E-mail: info@decasrl.biz
  7
SLDTEXTSTYLE4
  0
MTEXT
  5
108
330
1F
100
AcDbEntity
  8
FORMAT
100
AcDbMText
 10
127.8211616368
 20
47.091245162
 30
0.0
 40
4.05
 41
0.0
 71
     1
 72
     1
  1
Fax 0341/608154
  7
SLDTEXTSTYLE4
  0
MTEXT
  5
109
330
1F
100
AcDbEntity
  8
FORMAT
100
AcDbMText
 10
127.4321920265
 20
54.3335927571
 30
0.0
 40
4.05
 41
0.0
 71
     1
 72
     1
  1
Tel. 0341/632080
  7
SLDTEXTSTYLE4
  0
MTEXT
  5
10A
330
1F
100
AcDbEntity
  8
TESTO
100
AcDbMText
 10
102.425405919
 20
71.5214571735
 30
0.0
 40
14.4
 41
0.0
 71
     1
 72
     1
  1
A
  7
SLDTEXTSTYLE3
  0
MTEXT
  5
10C
330
1F
100
AcDbEntity
  8
0
  6
CONTINUOUS
 62
     7
100
AcDbMText
 10
557.2314954358
 20
867.287360504
 30
0.0
 40
6.35
 41
0.0
 71
     1
 72
     1
  1
Data
  7
SLDTEXTSTYLE5
  0
MTEXT
  5
10D
330
1F
100
AcDbEntity
  8
0
  6
CONTINUOUS
 62
     7
100
AcDbMText
 10
483.0756813675
 20
867.287360504
 30
0.0
 40
6.35
 41
0.0
 71
     1
 72
     1
  1
Disegnatore
  7
SLDTEXTSTYLE5
  0
MTEXT
  5
10E
330
1F
100
AcDbEntity
  8
0
  6
CONTINUOUS
 62
     7
100
AcDbMText
 10
91.5974517528
 20
867.287360504
 30
0.0
 40
6.35
 41
0.0
 71
     1
 72
     1
  1
Descrizione revisione
  7
SLDTEXTSTYLE5
  0
MTEXT
  5
10F
330
1F
100
AcDbEntity
  8
0
  6
CONTINUOUS
 62
     7
100
AcDbMText
 10
43.5915025199
 20
867.3423135376
 30
0.0
 40
6.35
 41
0.0
 71
     1
 72
     1
  1
Revisione
  7
SLDTEXTSTYLE5
  0
MTEXT
  5
110
330
1F
100
AcDbEntity
  8
0
  6
CONTINUOUS
 62
     7
100
AcDbMText
 10
255.8609160612
 20
42.5660344071
 30
0.0
 40
5.55625
 41
0.0
 71
     1
 72
     1
  1
12000017
  7
SLDTEXTSTYLE0
  0
MTEXT
  5
111
330
1F
100
AcDbEntity
  8
0
  6
CONTINUOUS
 62
     7
100
AcDbMText
 10
225.4843631793
 20
63.3839759524
 30
0.0
 40
6.35
 41
0.0
 71
     1
 72
     1
  1
Piastra inf.colonna sostegno 401501 TR
  7
SLDTEXTSTYLE0
  0
MTEXT
  5
112
330
1F
100
AcDbEntity
  8
0
  6
CONTINUOUS
 62
     7
100
AcDbMText
 10
225.4843631793
 20
53.600738297
 30
0.0
 40
6.35
 41
0.0
 71
     1
 72
     1
  1
Verniciata Ral 9006
  7
SLDTEXTSTYLE0
  0
MTEXT
  5
113
330
1F
100
AcDbEntity
  8
0
  6
CONTINUOUS
 62
     7
100
AcDbMText
 10
91.5974517528
 20
852.764665655
 30
0.0
 40
7.9375
 41
0.0
 71
     1
 72
     1
  1
Modificato numero disegno
  7
SLDTEXTSTYLE0
  0
MTEXT
  5
114
330
1F
100
AcDbEntity
  8
0
  6
CONTINUOUS
 62
     7
100
AcDbMText
 10
91.5974517528
 20
838.1194417656
 30
0.0
 40
7.9375
 41
0.0
 71
     1
 72
     1
  1
EMISSIONE
  7
SLDTEXTSTYLE0
  0
MTEXT
  5
115
330
1F
100
AcDbEntity
  8
0
  6
CONTINUOUS
 62
     7
100
AcDbMText
 10
255.8609160612
 20
31.8228843008
 30
0.0
 40
5.55625
 41
0.0
 71
     1
 72
     1
  1
Andrea Ponzoni
  7
SLDTEXTSTYLE0
  0
MTEXT
  5
116
330
1F
100
AcDbEntity
  8
0
  6
CONTINUOUS
 62
     7
100
AcDbMText
 10
255.8609160612
 20
19.7667568701
 30
0.0
 40
5.55625
 41
0.0
 71
     1
 72
     1
  1
12/01/2021
  7
SLDTEXTSTYLE0
  0
MTEXT
  5
117
330
1F
100
AcDbEntity
  8
0
  6
CONTINUOUS
 62
     7
100
AcDbMText
 10
72.285587915
 20
135.8643764235
 30
0.0
 40
7.9375
 41
0.0
 71
     1
 72
     1
  1
1.0037 (S235JR)
  7
SLDTEXTSTYLE0
  0
MTEXT
  5
118
330
1F
100
AcDbEntity
  8
0
  6
CONTINUOUS
 62
     7
100
AcDbMText
 10
57.7152780428
 20
838.1194417656
 30
0.0
 40
7.9375
 41
0.0
 71
     1
 72
     1
  1
00
  7
SLDTEXTSTYLE0
  0
MTEXT
  5
119
330
1F
100
AcDbEntity
  8
0
  6
CONTINUOUS
 62
     7
100
AcDbMText
 10
57.7152780428
 20
852.764665655
 30
0.0
 40
7.9375
 41
0.0
 71
     1
 72
     1
  1
01
  7
SLDTEXTSTYLE0
  0
MTEXT
  5
11A
330
1F
100
AcDbEntity
  8
0
  6
CONTINUOUS
 62
     7
100
AcDbMText
 10
466.0878174581
 20
836.5404775289
 30
0.0
 40
6.35
 41
0.0
 71
     1
 72
     1
  1
Andrea Ponzoni
  7
SLDTEXTSTYLE0
  0
MTEXT
  5
11B
330
1F
100
AcDbEntity
  8
0
  6
CONTINUOUS
 62
     7
100
AcDbMText
 10
466.0878174581
 20
851.1857014183
 30
0.0
 40
6.35
 41
0.0
 71
     1
 72
     1
  1
Fabrizio Fiorese
  7
SLDTEXTSTYLE0
  0
MTEXT
  5
11C
330
1F
100
AcDbEntity
  8
0
  6
CONTINUOUS
 62
     7
100
AcDbMText
 10
553.4755279696
 20
836.5404775289
 30
0.0
 40
6.35
 41
0.0
 71
     1
 72
     1
  1
12/01/2021
  7
SLDTEXTSTYLE0
  0
MTEXT
  5
11D
330
1F
100
AcDbEntity
  8
0
  6
CONTINUOUS
 62
     7
100
AcDbMText
 10
553.4755279696
 20
851.1857014183
 30
0.0
 40
6.35
 41
0.0
 71
     1
 72
     1
  1
29/06/2021
  7
SLDTEXTSTYLE0
  0
MTEXT
  5
11E
330
1F
100
AcDbEntity
  8
0
  6
CONTINUOUS
 62
     7
100
AcDbMText
 10
468.3897750373
 20
42.5660344071
 30
0.0
 40
5.55625
 41
0.0
 71
     3
 72
     1
  1
01
  7
SLDTEXTSTYLE0
  0
MTEXT
  5
11F
330
1F
100
AcDbEntity
  8
0
  6
CONTINUOUS
 62
     7
100
AcDbMText
 10
307.2308602557
 20
135.8643764235
 30
0.0
 40
7.9375
 41
0.0
 71
     3
 72
     1
  1
2.50
  7
SLDTEXTSTYLE0
  0
MTEXT
  5
120
330
1F
100
AcDbEntity
  8
0
  6
CONTINUOUS
 62
     7
100
AcDbMText
 10
439.1692270488
 20
135.8643764235
 30
0.0
 40
7.9375
 41
0.0
 71
     1
 72
     1
  1
Verniciatura
  7
SLDTEXTSTYLE0
  0
MTEXT
  5
121
330
1F
100
AcDbEntity
  8
0
  6
CONTINUOUS
 62
     7
100
AcDbMText
 10
210.9612032059
 20
93.2145561851
 30
0.0
 40
3.96875
 41
0.0
 71
     1
 72
     1
  1
Grado Tolleranza
  7
SLDTEXTSTYLE0
  0
MTEXT
  5
122
330
1F
100
AcDbEntity
  8
0
  6
CONTINUOUS
 62
     7
100
AcDbMText
 10
265.5256766396
 20
87.6624248727
 30
0.0
 40
7.9375
 41
0.0
 71
     1
 72
     1
  1
IT10
  7
SLDTEXTSTYLE0
  0
MTEXT
  5
123
330
1F
100
AcDbEntity
  8
0
  6
CONTINUOUS
 62
     7
100
AcDbMText
 10
542.7188785509
 20
60.9507095685
 30
0.0
 40
7.14375
 41
0.0
 71
     3
 72
     1
  1
100
  7
SLDTEXTSTYLE0
  0
MTEXT
  5
124
330
1F
100
AcDbEntity
  8
0
  6
CONTINUOUS
 62
     7
100
AcDbMText
 10
543.0413292779
 20
74.4528934535
 30
0.0
 40
7.14375
 41
0.0
 71
     3
 72
     1
  1
330
  7
SLDTEXTSTYLE0
  0
MTEXT
  5
125
330
1F
100
AcDbEntity
  8
0
  6
CONTINUOUS
 62
     7
100
AcDbMText
 10
543.9119950922
 20
47.0683785991
 30
0.0
 40
7.14375
 41
0.0
 71
     3
 72
     1
  1
10
  7
SLDTEXTSTYLE0
  0
MTEXT
  5
126
330
1F
100
AcDbEntity
  8
0
  6
CONTINUOUS
 62
     7
100
AcDbMText
 10
339.7092325385
 20
30.2439196276
 30
0.0
 40
3.96875
 41
0.0
 71
     1
 72
     1
  1
Codice
  7
SLDTEXTSTYLE0
  0
MTEXT
  5
127
330
1F
100
AcDbEntity
  8
0
  6
CONTINUOUS
 62
     7
100
AcDbMText
 10
361.5625668731
 20
22.1352035743
 30
0.0
 40
7.9375
 41
0.0
 71
     1
 72
     1
  1
12B200103
  7
SLDTEXTSTYLE0
  0
MTEXT
  5
128
330
1F
100
AcDbEntity
  8
0
  6
CONTINUOUS
 62
     7
100
AcDbMText
 10
401.2253542854
 20
40.9870697339
 30
0.0
 40
3.96875
 41
0.0
 71
     1
 72
     1
  1
Revisione disegno
  7
SLDTEXTSTYLE0
  0
MTEXT
  5
129
330
1F
100
AcDbEntity
  8
0
  6
CONTINUOUS
 62
     7
100
AcDbMText
 10
546.8579417668
 20
22.1352035743
 30
0.0
 40
7.9375
 41
0.0
 71
     3
 72
     1
  1
01
  7
SLDTEXTSTYLE0
  0
INSERT
  5
15B
330
1F
100
AcDbEntity
  8
0
  6
CONTINUOUS
 62
     7
100
AcDbBlockReference
  2
SW_TABLEANNOTATION_0
 10
157.8574183267
 20
398.067561753
 30
0.0
  0
LINE
  5
15C
330
1F
100
AcDbEntity
  8
0
  6
CONTINUOUS
 62
     7
100
AcDbLine
 10
469.5535594075
 20
174.8459392416
 30
0.0
 11
472.1417498585
 21
177.3459392416
 31
0.0
  0
LINE
  5
15D
330
1F
100
AcDbEntity
  8
0
  6
CONTINUOUS
 62
     7
100
AcDbLine
 10
156.0980195399
 20
292.9077449689
 30
0.0
 11
153.5098290889
 21
290.4077449689
 31
0.0
  0
POLYLINE
  5
15E
330
1F
100
AcDbEntity
  8
0
  6
CONTINUOUS
 62
     7
100
AcDb2dPolyline
 66
     1
 10
0.0
 20
0.0
 30
0.0
 70
   128
  0
VERTEX
  5
299
330
15E
100
AcDbEntity
  8
0
  6
CONTINUOUS
 62
     7
100
AcDbVertex
100
AcDb2dVertex
 10
456.4205681915
 20
192.7799356481
 30
0.0
  0
VERTEX
  5
29A
330
15E
100
AcDbEntity
  8
0
  6
CONTINUOUS
 62
     7
100
AcDbVertex
100
AcDb2dVertex
 10
457.3798870917
 20
192.5969241392
 30
0.0
  0
VERTEX
  5
29B
330
15E
100
AcDbEntity
  8
0
  6
CONTINUOUS
 62
     7
100
AcDbVertex
100
AcDb2dVertex
 10
458.2834538644
 20
192.1915837872
 30
0.0
  0
VERTEX
  5
29C
330
15E
100
AcDbEntity
  8
0
  6
CONTINUOUS
 62
     7
100
AcDbVertex
100
AcDb2dVertex
 10
459.0787564931
 20
191.5874715
 30
0.0
  0
VERTEX
  5
29D
330
15E
100
AcDbEntity
  8
0
  6
CONTINUOUS
 62
     7
100
AcDbVertex
100
AcDb2dVertex
 10
459.7195748799
 20
190.8196960879
 30
0.0
  0
VERTEX
  5
29E
330
15E
100
AcDbEntity
  8
0
  6
CONTINUOUS
 62
     7
100
AcDbVertex
100
AcDb2dVertex
 10
460.1686669893
 20
189.9328778669
 30
0.0
  0
VERTEX
  5
29F
330
15E
100
AcDbEntity
  8
0
  6
CONTINUOUS
 62
     7
100
AcDbVertex
100
AcDb2dVertex
 10
460.3999332204
 20
188.9785554888
 30
0.0
  0
VERTEX
  5
2A0
330
15E
100
AcDbEntity
  8
0
  6
CONTINUOUS
 62
     7
100
AcDbVertex
100
AcDb2dVertex
 10
460.3999332204
 20
188.0121907013
 30
0.0
  0
VERTEX
  5
2A1
330
15E
100
AcDbEntity
  8
0
  6
CONTINUOUS
 62
     7
100
AcDbVertex
100
AcDb2dVertex
 10
460.1686669893
 20
187.0899451132
 30
0.0
  0
VERTEX
  5
2A2
330
15E
100
AcDbEntity
  8
0
  6
CONTINUOUS
 62
     7
100
AcDbVertex
100
AcDb2dVertex
 10
459.7195748799
 20
186.2654162859
 30
0.0
  0
VERTEX
  5
2A3
330
15E
100
AcDbEntity
  8
0
  6
CONTINUOUS
 62
     7
100
AcDbVertex
100
AcDb2dVertex
 10
459.0787564931
 20
185.5865228379
 30
0.0
  0
VERTEX
  5
2A4
330
15E
100
AcDbEntity
  8
0
  6
CONTINUOUS
 62
     7
100
AcDbVertex
100
AcDb2dVertex
 10
458.2834538644
 20
185.0927195885
 30
0.0
  0
VERTEX
  5
2A5
330
15E
100
AcDbEntity
  8
0
  6
CONTINUOUS
 62
     7
100
AcDbVertex
100
AcDb2dVertex
 10
457.3798870917
 20
184.8127045878
 30
0.0
  0
VERTEX
  5
2A6
330
15E
100
AcDbEntity
  8
0
  6
CONTINUOUS
 62
     7
100
AcDbVertex
100
AcDb2dVertex
 10
456.4205681915
 20
184.7627512899
 30
0.0
  0
SEQEND
  5
425
330
15E
100
AcDbEntity
  8
0
  6
CONTINUOUS
 62
     7
  0
LINE
  5
15F
330
1F
100
AcDbEntity
  8
0
  6
CONTINUOUS
 62
     7
100
AcDbLine
 10
446.7613099286
 20
193.4498086292
 30
0.0
 11
456.4205681915
 21
192.7799356481
 31
0.0
  0
POLYLINE
  5
160
330
1F
100
AcDbEntity
  8
0
  6
CONTINUOUS
 62
     7
100
AcDb2dPolyline
 66
     1
 10
0.0
 20
0.0
 30
0.0
 70
   128
  0
VERTEX
  5
2A7
330
160
100
AcDbEntity
  8
0
  6
CONTINUOUS
 62
     7
100
AcDbVertex
100
AcDb2dVertex
 10
446.7613099286
 20
185.432624271
 30
0.0
  0
VERTEX
  5
2A8
330
160
100
AcDbEntity
  8
0
  6
CONTINUOUS
 62
     7
100
AcDbVertex
100
AcDb2dVertex
 10
445.8019910284
 20
185.6156357798
 30
0.0
  0
VERTEX
  5
2A9
330
160
100
AcDbEntity
  8
0
  6
CONTINUOUS
 62
     7
100
AcDbVertex
100
AcDb2dVertex
 10
444.8984242557
 20
186.0209761318
 30
0.0
  0
VERTEX
  5
2AA
330
160
100
AcDbEntity
  8
0
  6
CONTINUOUS
 62
     7
100
AcDbVertex
100
AcDb2dVertex
 10
444.103121627
 20
186.625088419
 30
0.0
  0
VERTEX
  5
2AB
330
160
100
AcDbEntity
  8
0
  6
CONTINUOUS
 62
     7
100
AcDbVertex
100
AcDb2dVertex
 10
443.4623032403
 20
187.3928638312
 30
0.0
  0
VERTEX
  5
2AC
330
160
100
AcDbEntity
  8
0
  6
CONTINUOUS
 62
     7
100
AcDbVertex
100
AcDb2dVertex
 10
443.0132111309
 20
188.2796820521
 30
0.0
  0
VERTEX
  5
2AD
330
160
100
AcDbEntity
  8
0
  6
CONTINUOUS
 62
     7
100
AcDbVertex
100
AcDb2dVertex
 10
442.7819448998
 20
189.2340044302
 30
0.0
  0
VERTEX
  5
2AE
330
160
100
AcDbEntity
  8
0
  6
CONTINUOUS
 62
     7
100
AcDbVertex
100
AcDb2dVertex
 10
442.7819448998
 20
190.2003692177
 30
0.0
  0
VERTEX
  5
2AF
330
160
100
AcDbEntity
  8
0
  6
CONTINUOUS
 62
     7
100
AcDbVertex
100
AcDb2dVertex
 10
443.0132111309
 20
191.1226148058
 30
0.0
  0
VERTEX
  5
2B0
330
160
100
AcDbEntity
  8
0
  6
CONTINUOUS
 62
     7
100
AcDbVertex
100
AcDb2dVertex
 10
443.4623032403
 20
191.9471436331
 30
0.0
  0
VERTEX
  5
2B1
330
160
100
AcDbEntity
  8
0
  6
CONTINUOUS
 62
     7
100
AcDbVertex
100
AcDb2dVertex
 10
444.103121627
 20
192.6260370812
 30
0.0
  0
VERTEX
  5
2B2
330
160
100
AcDbEntity
  8
0
  6
CONTINUOUS
 62
     7
100
AcDbVertex
100
AcDb2dVertex
 10
444.8984242557
 20
193.1198403305
 30
0.0
  0
VERTEX
  5
2B3
330
160
100
AcDbEntity
  8
0
  6
CONTINUOUS
 62
     7
100
AcDbVertex
100
AcDb2dVertex
 10
445.8019910284
 20
193.3998553312
 30
0.0
  0
VERTEX
  5
2B4
330
160
100
AcDbEntity
  8
0
  6
CONTINUOUS
 62
     7
100
AcDbVertex
100
AcDb2dVertex
 10
446.7613099286
 20
193.4498086292
 30
0.0
  0
SEQEND
  5
426
330
160
100
AcDbEntity
  8
0
  6
CONTINUOUS
 62
     7
  0
LINE
  5
161
330
1F
100
AcDbEntity
  8
0
  6
CONTINUOUS
 62
     7
100
AcDbLine
 10
456.4205681915
 20
184.7627512899
 30
0.0
 11
446.7613099286
 21
185.432624271
 31
0.0
  0
POLYLINE
  5
162
330
1F
100
AcDbEntity
  8
0
  6
CONTINUOUS
 62
     7
100
AcDb2dPolyline
 66
     1
 10
0.0
 20
0.0
 30
0.0
 70
   128
  0
VERTEX
  5
2B5
330
162
100
AcDbEntity
  8
0
  6
CONTINUOUS
 62
     7
100
AcDbVertex
100
AcDb2dVertex
 10
456.4205681915
 20
260.3947434883
 30
0.0
  0
VERTEX
  5
2B6
330
162
100
AcDbEntity
  8
0
  6
CONTINUOUS
 62
     7
100
AcDbVertex
100
AcDb2dVertex
 10
457.3798870917
 20
260.2117319795
 30
0.0
  0
VERTEX
  5
2B7
330
162
100
AcDbEntity
  8
0
  6
CONTINUOUS
 62
     7
100
AcDbVertex
100
AcDb2dVertex
 10
458.2834538644
 20
259.8063916275
 30
0.0
  0
VERTEX
  5
2B8
330
162
100
AcDbEntity
  8
0
  6
CONTINUOUS
 62
     7
100
AcDbVertex
100
AcDb2dVertex
 10
459.0787564931
 20
259.2022793403
 30
0.0
  0
VERTEX
  5
2B9
330
162
100
AcDbEntity
  8
0
  6
CONTINUOUS
 62
     7
100
AcDbVertex
100
AcDb2dVertex
 10
459.7195748799
 20
258.4345039281
 30
0.0
  0
VERTEX
  5
2BA
330
162
100
AcDbEntity
  8
0
  6
CONTINUOUS
 62
     7
100
AcDbVertex
100
AcDb2dVertex
 10
460.1686669893
 20
257.5476857072
 30
0.0
  0
VERTEX
  5
2BB
330
162
100
AcDbEntity
  8
0
  6
CONTINUOUS
 62
     7
100
AcDbVertex
100
AcDb2dVertex
 10
460.3999332204
 20
256.5933633291
 30
0.0
  0
VERTEX
  5
2BC
330
162
100
AcDbEntity
  8
0
  6
CONTINUOUS
 62
     7
100
AcDbVertex
100
AcDb2dVertex
 10
460.3999332204
 20
255.6269985415
 30
0.0
  0
VERTEX
  5
2BD
330
162
100
AcDbEntity
  8
0
  6
CONTINUOUS
 62
     7
100
AcDbVertex
100
AcDb2dVertex
 10
460.1686669893
 20
254.7047529534
 30
0.0
  0
VERTEX
  5
2BE
330
162
100
AcDbEntity
  8
0
  6
CONTINUOUS
 62
     7
100
AcDbVertex
100
AcDb2dVertex
 10
459.7195748799
 20
253.8802241262
 30
0.0
  0
VERTEX
  5
2BF
330
162
100
AcDbEntity
  8
0
  6
CONTINUOUS
 62
     7
100
AcDbVertex
100
AcDb2dVertex
 10
459.0787564931
 20
253.2013306781
 30
0.0
  0
VERTEX
  5
2C0
330
162
100
AcDbEntity
  8
0
  6
CONTINUOUS
 62
     7
100
AcDbVertex
100
AcDb2dVertex
 10
458.2834538644
 20
252.7075274287
 30
0.0
  0
VERTEX
  5
2C1
330
162
100
AcDbEntity
  8
0
  6
CONTINUOUS
 62
     7
100
AcDbVertex
100
AcDb2dVertex
 10
457.3798870917
 20
252.4275124281
 30
0.0
  0
VERTEX
  5
2C2
330
162
100
AcDbEntity
  8
0
  6
CONTINUOUS
 62
     7
100
AcDbVertex
100
AcDb2dVertex
 10
456.4205681915
 20
252.3775591301
 30
0.0
  0
SEQEND
  5
427
330
162
100
AcDbEntity
  8
0
  6
CONTINUOUS
 62
     7
  0
LINE
  5
163
330
1F
100
AcDbEntity
  8
0
  6
CONTINUOUS
 62
     7
100
AcDbLine
 10
446.7613099286
 20
261.0646164694
 30
0.0
 11
456.4205681915
 21
260.3947434883
 31
0.0
  0
POLYLINE
  5
164
330
1F
100
AcDbEntity
  8
0
  6
CONTINUOUS
 62
     7
100
AcDb2dPolyline
 66
     1
 10
0.0
 20
0.0
 30
0.0
 70
   128
  0
VERTEX
  5
2C3
330
164
100
AcDbEntity
  8
0
  6
CONTINUOUS
 62
     7
100
AcDbVertex
100
AcDb2dVertex
 10
446.7613099286
 20
253.0474321112
 30
0.0
  0
VERTEX
  5
2C4
330
164
100
AcDbEntity
  8
0
  6
CONTINUOUS
 62
     7
100
AcDbVertex
100
AcDb2dVertex
 10
445.8019910284
 20
253.23044362
 30
0.0
  0
VERTEX
  5
2C5
330
164
100
AcDbEntity
  8
0
  6
CONTINUOUS
 62
     7
100
AcDbVertex
100
AcDb2dVertex
 10
444.8984242557
 20
253.635783972
 30
0.0
  0
VERTEX
  5
2C6
330
164
100
AcDbEntity
  8
0
  6
CONTINUOUS
 62
     7
100
AcDbVertex
100
AcDb2dVertex
 10
444.103121627
 20
254.2398962592
 30
0.0
  0
VERTEX
  5
2C7
330
164
100
AcDbEntity
  8
0
  6
CONTINUOUS
 62
     7
100
AcDbVertex
100
AcDb2dVertex
 10
443.4623032403
 20
255.0076716714
 30
0.0
  0
VERTEX
  5
2C8
330
164
100
AcDbEntity
  8
0
  6
CONTINUOUS
 62
     7
100
AcDbVertex
100
AcDb2dVertex
 10
443.0132111309
 20
255.8944898923
 30
0.0
  0
VERTEX
  5
2C9
330
164
100
AcDbEntity
  8
0
  6
CONTINUOUS
 62
     7
100
AcDbVertex
100
AcDb2dVertex
 10
442.7819448998
 20
256.8488122705
 30
0.0
  0
VERTEX
  5
2CA
330
164
100
AcDbEntity
  8
0
  6
CONTINUOUS
 62
     7
100
AcDbVertex
100
AcDb2dVertex
 10
442.7819448998
 20
257.815177058
 30
0.0
  0
VERTEX
  5
2CB
330
164
100
AcDbEntity
  8
0
  6
CONTINUOUS
 62
     7
100
AcDbVertex
100
AcDb2dVertex
 10
443.0132111309
 20
258.7374226461
 30
0.0
  0
VERTEX
  5
2CC
330
164
100
AcDbEntity
  8
0
  6
CONTINUOUS
 62
     7
100
AcDbVertex
100
AcDb2dVertex
 10
443.4623032403
 20
259.5619514733
 30
0.0
  0
VERTEX
  5
2CD
330
164
100
AcDbEntity
  8
0
  6
CONTINUOUS
 62
     7
100
AcDbVertex
100
AcDb2dVertex
 10
444.103121627
 20
260.2408449214
 30
0.0
  0
VERTEX
  5
2CE
330
164
100
AcDbEntity
  8
0
  6
CONTINUOUS
 62
     7
100
AcDbVertex
100
AcDb2dVertex
 10
444.8984242557
 20
260.7346481708
 30
0.0
  0
VERTEX
  5
2CF
330
164
100
AcDbEntity
  8
0
  6
CONTINUOUS
 62
     7
100
AcDbVertex
100
AcDb2dVertex
 10
445.8019910284
 20
261.0146631714
 30
0.0
  0
VERTEX
  5
2D0
330
164
100
AcDbEntity
  8
0
  6
CONTINUOUS
 62
     7
100
AcDbVertex
100
AcDb2dVertex
 10
446.7613099286
 20
261.0646164694
 30
0.0
  0
SEQEND
  5
428
330
164
100
AcDbEntity
  8
0
  6
CONTINUOUS
 62
     7
  0
LINE
  5
165
330
1F
100
AcDbEntity
  8
0
  6
CONTINUOUS
 62
     7
100
AcDbLine
 10
456.4205681915
 20
252.3775591301
 30
0.0
 11
446.7613099286
 21
253.0474321112
 31
0.0
  0
POLYLINE
  5
166
330
1F
100
AcDbEntity
  8
0
  6
CONTINUOUS
 62
     7
100
AcDb2dPolyline
 66
     1
 10
0.0
 20
0.0
 30
0.0
 70
   128
  0
VERTEX
  5
2D1
330
166
100
AcDbEntity
  8
0
  6
CONTINUOUS
 62
     7
100
AcDbVertex
100
AcDb2dVertex
 10
166.6428203048
 20
272.4737485624
 30
0.0
  0
VERTEX
  5
2D2
330
166
100
AcDbEntity
  8
0
  6
CONTINUOUS
 62
     7
100
AcDbVertex
100
AcDb2dVertex
 10
165.6835014046
 20
272.6567600713
 30
0.0
  0
VERTEX
  5
2D3
330
166
100
AcDbEntity
  8
0
  6
CONTINUOUS
 62
     7
100
AcDbVertex
100
AcDb2dVertex
 10
164.7799346319
 20
273.0621004233
 30
0.0
  0
VERTEX
  5
2D4
330
166
100
AcDbEntity
  8
0
  6
CONTINUOUS
 62
     7
100
AcDbVertex
100
AcDb2dVertex
 10
163.9846320032
 20
273.6662127105
 30
0.0
  0
VERTEX
  5
2D5
330
166
100
AcDbEntity
  8
0
  6
CONTINUOUS
 62
     7
100
AcDbVertex
100
AcDb2dVertex
 10
163.3438136165
 20
274.4339881227
 30
0.0
  0
VERTEX
  5
2D6
330
166
100
AcDbEntity
  8
0
  6
CONTINUOUS
 62
     7
100
AcDbVertex
100
AcDb2dVertex
 10
162.8947215071
 20
275.3208063436
 30
0.0
  0
VERTEX
  5
2D7
330
166
100
AcDbEntity
  8
0
  6
CONTINUOUS
 62
     7
100
AcDbVertex
100
AcDb2dVertex
 10
162.663455276
 20
276.2751287217
 30
0.0
  0
VERTEX
  5
2D8
330
166
100
AcDbEntity
  8
0
  6
CONTINUOUS
 62
     7
100
AcDbVertex
100
AcDb2dVertex
 10
162.663455276
 20
277.2414935092
 30
0.0
  0
VERTEX
  5
2D9
330
166
100
AcDbEntity
  8
0
  6
CONTINUOUS
 62
     7
100
AcDbVertex
100
AcDb2dVertex
 10
162.8947215071
 20
278.1637390973
 30
0.0
  0
VERTEX
  5
2DA
330
166
100
AcDbEntity
  8
0
  6
CONTINUOUS
 62
     7
100
AcDbVertex
100
AcDb2dVertex
 10
163.3438136165
 20
278.9882679246
 30
0.0
  0
VERTEX
  5
2DB
330
166
100
AcDbEntity
  8
0
  6
CONTINUOUS
 62
     7
100
AcDbVertex
100
AcDb2dVertex
 10
163.9846320032
 20
279.6671613727
 30
0.0
  0
VERTEX
  5
2DC
330
166
100
AcDbEntity
  8
0
  6
CONTINUOUS
 62
     7
100
AcDbVertex
100
AcDb2dVertex
 10
164.7799346319
 20
280.160964622
 30
0.0
  0
VERTEX
  5
2DD
330
166
100
AcDbEntity
  8
0
  6
CONTINUOUS
 62
     7
100
AcDbVertex
100
AcDb2dVertex
 10
165.6835014046
 20
280.4409796227
 30
0.0
  0
VERTEX
  5
2DE
330
166
100
AcDbEntity
  8
0
  6
CONTINUOUS
 62
     7
100
AcDbVertex
100
AcDb2dVertex
 10
166.6428203048
 20
280.4909329206
 30
0.0
  0
SEQEND
  5
429
330
166
100
AcDbEntity
  8
0
  6
CONTINUOUS
 62
     7
  0
LINE
  5
167
330
1F
100
AcDbEntity
  8
0
  6
CONTINUOUS
 62
     7
100
AcDbLine
 10
176.3020785677
 20
271.8038755814
 30
0.0
 11
166.6428203048
 21
272.4737485624
 31
0.0
  0
POLYLINE
  5
168
330
1F
100
AcDbEntity
  8
0
  6
CONTINUOUS
 62
     7
100
AcDb2dPolyline
 66
     1
 10
0.0
 20
0.0
 30
0.0
 70
   128
  0
VERTEX
  5
2DF
330
168
100
AcDbEntity
  8
0
  6
CONTINUOUS
 62
     7
100
AcDbVertex
100
AcDb2dVertex
 10
176.3020785677
 20
279.8210599396
 30
0.0
  0
VERTEX
  5
2E0
330
168
100
AcDbEntity
  8
0
  6
CONTINUOUS
 62
     7
100
AcDbVertex
100
AcDb2dVertex
 10
177.2613974679
 20
279.6380484307
 30
0.0
  0
VERTEX
  5
2E1
330
168
100
AcDbEntity
  8
0
  6
CONTINUOUS
 62
     7
100
AcDbVertex
100
AcDb2dVertex
 10
178.1649642406
 20
279.2327080787
 30
0.0
  0
VERTEX
  5
2E2
330
168
100
AcDbEntity
  8
0
  6
CONTINUOUS
 62
     7
100
AcDbVertex
100
AcDb2dVertex
 10
178.9602668693
 20
278.6285957915
 30
0.0
  0
VERTEX
  5
2E3
330
168
100
AcDbEntity
  8
0
  6
CONTINUOUS
 62
     7
100
AcDbVertex
100
AcDb2dVertex
 10
179.601085256
 20
277.8608203794
 30
0.0
  0
VERTEX
  5
2E4
330
168
100
AcDbEntity
  8
0
  6
CONTINUOUS
 62
     7
100
AcDbVertex
100
AcDb2dVertex
 10
180.0501773655
 20
276.9740021584
 30
0.0
  0
VERTEX
  5
2E5
330
168
100
AcDbEntity
  8
0
  6
CONTINUOUS
 62
     7
100
AcDbVertex
100
AcDb2dVertex
 10
180.2814435965
 20
276.0196797803
 30
0.0
  0
VERTEX
  5
2E6
330
168
100
AcDbEntity
  8
0
  6
CONTINUOUS
 62
     7
100
AcDbVertex
100
AcDb2dVertex
 10
180.2814435965
 20
275.0533149928
 30
0.0
  0
VERTEX
  5
2E7
330
168
100
AcDbEntity
  8
0
  6
CONTINUOUS
 62
     7
100
AcDbVertex
100
AcDb2dVertex
 10
180.0501773655
 20
274.1310694047
 30
0.0
  0
VERTEX
  5
2E8
330
168
100
AcDbEntity
  8
0
  6
CONTINUOUS
 62
     7
100
AcDbVertex
100
AcDb2dVertex
 10
179.601085256
 20
273.3065405774
 30
0.0
  0
VERTEX
  5
2E9
330
168
100
AcDbEntity
  8
0
  6
CONTINUOUS
 62
     7
100
AcDbVertex
100
AcDb2dVertex
 10
178.9602668693
 20
272.6276471293
 30
0.0
  0
VERTEX
  5
2EA
330
168
100
AcDbEntity
  8
0
  6
CONTINUOUS
 62
     7
100
AcDbVertex
100
AcDb2dVertex
 10
178.1649642406
 20
272.13384388
 30
0.0
  0
VERTEX
  5
2EB
330
168
100
AcDbEntity
  8
0
  6
CONTINUOUS
 62
     7
100
AcDbVertex
100
AcDb2dVertex
 10
177.2613974679
 20
271.8538288793
 30
0.0
  0
VERTEX
  5
2EC
330
168
100
AcDbEntity
  8
0
  6
CONTINUOUS
 62
     7
100
AcDbVertex
100
AcDb2dVertex
 10
176.3020785677
 20
271.8038755814
 30
0.0
  0
SEQEND
  5
42A
330
168
100
AcDbEntity
  8
0
  6
CONTINUOUS
 62
     7
  0
LINE
  5
169
330
1F
100
AcDbEntity
  8
0
  6
CONTINUOUS
 62
     7
100
AcDbLine
 10
166.6428203048
 20
280.4909329206
 30
0.0
 11
176.3020785677
 21
279.8210599396
 31
0.0
  0
POLYLINE
  5
16A
330
1F
100
AcDbEntity
  8
0
  6
CONTINUOUS
 62
     7
100
AcDb2dPolyline
 66
     1
 10
0.0
 20
0.0
 30
0.0
 70
   128
  0
VERTEX
  5
2ED
330
16A
100
AcDbEntity
  8
0
  6
CONTINUOUS
 62
     7
100
AcDbVertex
100
AcDb2dVertex
 10
166.6428203048
 20
204.8589407222
 30
0.0
  0
VERTEX
  5
2EE
330
16A
100
AcDbEntity
  8
0
  6
CONTINUOUS
 62
     7
100
AcDbVertex
100
AcDb2dVertex
 10
165.6835014046
 20
205.0419522311
 30
0.0
  0
VERTEX
  5
2EF
330
16A
100
AcDbEntity
  8
0
  6
CONTINUOUS
 62
     7
100
AcDbVertex
100
AcDb2dVertex
 10
164.7799346319
 20
205.447292583
 30
0.0
  0
VERTEX
  5
2F0
330
16A
100
AcDbEntity
  8
0
  6
CONTINUOUS
 62
     7
100
AcDbVertex
100
AcDb2dVertex
 10
163.9846320032
 20
206.0514048703
 30
0.0
  0
VERTEX
  5
2F1
330
16A
100
AcDbEntity
  8
0
  6
CONTINUOUS
 62
     7
100
AcDbVertex
100
AcDb2dVertex
 10
163.3438136165
 20
206.8191802824
 30
0.0
  0
VERTEX
  5
2F2
330
16A
100
AcDbEntity
  8
0
  6
CONTINUOUS
 62
     7
100
AcDbVertex
100
AcDb2dVertex
 10
162.8947215071
 20
207.7059985033
 30
0.0
  0
VERTEX
  5
2F3
330
16A
100
AcDbEntity
  8
0
  6
CONTINUOUS
 62
     7
100
AcDbVertex
100
AcDb2dVertex
 10
162.663455276
 20
208.6603208815
 30
0.0
  0
VERTEX
  5
2F4
330
16A
100
AcDbEntity
  8
0
  6
CONTINUOUS
 62
     7
100
AcDbVertex
100
AcDb2dVertex
 10
162.663455276
 20
209.626685669
 30
0.0
  0
VERTEX
  5
2F5
330
16A
100
AcDbEntity
  8
0
  6
CONTINUOUS
 62
     7
100
AcDbVertex
100
AcDb2dVertex
 10
162.8947215071
 20
210.5489312571
 30
0.0
  0
VERTEX
  5
2F6
330
16A
100
AcDbEntity
  8
0
  6
CONTINUOUS
 62
     7
100
AcDbVertex
100
AcDb2dVertex
 10
163.3438136165
 20
211.3734600844
 30
0.0
  0
VERTEX
  5
2F7
330
16A
100
AcDbEntity
  8
0
  6
CONTINUOUS
 62
     7
100
AcDbVertex
100
AcDb2dVertex
 10
163.9846320032
 20
212.0523535324
 30
0.0
  0
VERTEX
  5
2F8
330
16A
100
AcDbEntity
  8
0
  6
CONTINUOUS
 62
     7
100
AcDbVertex
100
AcDb2dVertex
 10
164.7799346319
 20
212.5461567818
 30
0.0
  0
VERTEX
  5
2F9
330
16A
100
AcDbEntity
  8
0
  6
CONTINUOUS
 62
     7
100
AcDbVertex
100
AcDb2dVertex
 10
165.6835014046
 20
212.8261717825
 30
0.0
  0
VERTEX
  5
2FA
330
16A
100
AcDbEntity
  8
0
  6
CONTINUOUS
 62
     7
100
AcDbVertex
100
AcDb2dVertex
 10
166.6428203048
 20
212.8761250804
 30
0.0
  0
SEQEND
  5
42B
330
16A
100
AcDbEntity
  8
0
  6
CONTINUOUS
 62
     7
  0
LINE
  5
16B
330
1F
100
AcDbEntity
  8
0
  6
CONTINUOUS
 62
     7
100
AcDbLine
 10
176.3020785677
 20
204.1890677411
 30
0.0
 11
166.6428203048
 21
204.8589407222
 31
0.0
  0
POLYLINE
  5
16C
330
1F
100
AcDbEntity
  8
0
  6
CONTINUOUS
 62
     7
100
AcDb2dPolyline
 66
     1
 10
0.0
 20
0.0
 30
0.0
 70
   128
  0
VERTEX
  5
2FB
330
16C
100
AcDbEntity
  8
0
  6
CONTINUOUS
 62
     7
100
AcDbVertex
100
AcDb2dVertex
 10
176.3020785677
 20
212.2062520993
 30
0.0
  0
VERTEX
  5
2FC
330
16C
100
AcDbEntity
  8
0
  6
CONTINUOUS
 62
     7
100
AcDbVertex
100
AcDb2dVertex
 10
177.2613974679
 20
212.0232405905
 30
0.0
  0
VERTEX
  5
2FD
330
16C
100
AcDbEntity
  8
0
  6
CONTINUOUS
 62
     7
100
AcDbVertex
100
AcDb2dVertex
 10
178.1649642406
 20
211.6179002385
 30
0.0
  0
VERTEX
  5
2FE
330
16C
100
AcDbEntity
  8
0
  6
CONTINUOUS
 62
     7
100
AcDbVertex
100
AcDb2dVertex
 10
178.9602668693
 20
211.0137879513
 30
0.0
  0
VERTEX
  5
2FF
330
16C
100
AcDbEntity
  8
0
  6
CONTINUOUS
 62
     7
100
AcDbVertex
100
AcDb2dVertex
 10
179.601085256
 20
210.2460125391
 30
0.0
  0
VERTEX
  5
300
330
16C
100
AcDbEntity
  8
0
  6
CONTINUOUS
 62
     7
100
AcDbVertex
100
AcDb2dVertex
 10
180.0501773655
 20
209.3591943182
 30
0.0
  0
VERTEX
  5
301
330
16C
100
AcDbEntity
  8
0
  6
CONTINUOUS
 62
     7
100
AcDbVertex
100
AcDb2dVertex
 10
180.2814435965
 20
208.4048719401
 30
0.0
  0
VERTEX
  5
302
330
16C
100
AcDbEntity
  8
0
  6
CONTINUOUS
 62
     7
100
AcDbVertex
100
AcDb2dVertex
 10
180.2814435965
 20
207.4385071525
 30
0.0
  0
VERTEX
  5
303
330
16C
100
AcDbEntity
  8
0
  6
CONTINUOUS
 62
     7
100
AcDbVertex
100
AcDb2dVertex
 10
180.0501773655
 20
206.5162615645
 30
0.0
  0
VERTEX
  5
304
330
16C
100
AcDbEntity
  8
0
  6
CONTINUOUS
 62
     7
100
AcDbVertex
100
AcDb2dVertex
 10
179.601085256
 20
205.6917327372
 30
0.0
  0
VERTEX
  5
305
330
16C
100
AcDbEntity
  8
0
  6
CONTINUOUS
 62
     7
100
AcDbVertex
100
AcDb2dVertex
 10
178.9602668693
 20
205.0128392891
 30
0.0
  0
VERTEX
  5
306
330
16C
100
AcDbEntity
  8
0
  6
CONTINUOUS
 62
     7
100
AcDbVertex
100
AcDb2dVertex
 10
178.1649642406
 20
204.5190360398
 30
0.0
  0
VERTEX
  5
307
330
16C
100
AcDbEntity
  8
0
  6
CONTINUOUS
 62
     7
100
AcDbVertex
100
AcDb2dVertex
 10
177.2613974679
 20
204.2390210391
 30
0.0
  0
VERTEX
  5
308
330
16C
100
AcDbEntity
  8
0
  6
CONTINUOUS
 62
     7
100
AcDbVertex
100
AcDb2dVertex
 10
176.3020785677
 20
204.1890677411
 30
0.0
  0
SEQEND
  5
42C
330
16C
100
AcDbEntity
  8
0
  6
CONTINUOUS
 62
     7
  0
LINE
  5
16D
330
1F
100
AcDbEntity
  8
0
  6
CONTINUOUS
 62
     7
100
AcDbLine
 10
166.6428203048
 20
212.8761250804
 30
0.0
 11
176.3020785677
 21
212.2062520993
 31
0.0
  0
ARC
  5
16E
330
1F
100
AcDbEntity
  8
0
  6
CONTINUOUS
 62
     7
100
AcDbCircle
 10
156.6122720611
 20
287.197950399
 30
0.0
 40
4.458637073393048
100
AcDbArc
 50
85.2232010276
 51
180.6623549713
  0
LINE
  5
16F
330
1F
100
AcDbEntity
  8
0
  6
CONTINUOUS
 62
     7
100
AcDbLine
 10
156.9835620419
 20
291.641101117
 30
0.0
 11
466.0798264544
 21
270.2051657225
 31
0.0
  0
ARC
  5
170
330
1F
100
AcDbEntity
  8
0
  6
CONTINUOUS
 62
     7
100
AcDbCircle
 10
465.6657401923
 20
264.9774441954
 30
0.0
 40
5.24409570821307
100
AcDbArc
 50
0.6900435254
 51
85.4710743676
  0
LINE
  5
171
330
1F
100
AcDbEntity
  8
0
  6
CONTINUOUS
 62
     7
100
AcDbLine
 10
470.9094555859
 20
265.0406001005
 30
0.0
 11
470.9094555859
 21
178.1072757345
 31
0.0
  0
ARC
  5
172
330
1F
100
AcDbEntity
  8
0
  6
CONTINUOUS
 62
     7
100
AcDbCircle
 10
466.4511164352
 20
178.0557338115
 30
0.0
 40
4.458637073393183
100
AcDbArc
 50
265.2232010276
 51
0.6623549713
  0
LINE
  5
173
330
1F
100
AcDbEntity
  8
0
  6
CONTINUOUS
 62
     7
100
AcDbLine
 10
466.0798264544
 20
173.6125830936
 30
0.0
 11
156.9835620419
 21
195.0485184881
 31
0.0
  0
ARC
  5
174
330
1F
100
AcDbEntity
  8
0
  6
CONTINUOUS
 62
     7
100
AcDbCircle
 10
157.397648304
 20
200.2762400151
 30
0.0
 40
5.244095708213128
100
AcDbArc
 50
180.6900435254
 51
265.4710743676
  0
LINE
  5
175
330
1F
100
AcDbEntity
  8
0
  6
CONTINUOUS
 62
     7
100
AcDbLine
 10
152.1539329105
 20
200.21308411
 30
0.0
 11
152.1539329105
 21
287.1464084761
 31
0.0
  0
POLYLINE
  5
176
330
1F
100
AcDbEntity
  8
0
  6
CONTINUOUS
 62
     7
100
AcDb2dPolyline
 66
     1
 10
0.0
 20
0.0
 30
0.0
 70
   128
  0
VERTEX
  5
309
330
176
100
AcDbEntity
  8
0
  6
CONTINUOUS
 62
     7
100
AcDbVertex
100
AcDb2dVertex
 10
412.9539060085
 20
197.4605861133
 30
0.0
  0
VERTEX
  5
30A
330
176
100
AcDbEntity
  8
0
  6
CONTINUOUS
 62
     7
100
AcDbVertex
100
AcDb2dVertex
 10
414.3677827745
 20
197.4766731915
 30
0.0
  0
VERTEX
  5
30B
330
176
100
AcDbEntity
  8
0
  6
CONTINUOUS
 62
     7
100
AcDbVertex
100
AcDb2dVertex
 10
415.7450408749
 20
197.7206234879
 30
0.0
  0
VERTEX
  5
30C
330
176
100
AcDbEntity
  8
0
  6
CONTINUOUS
 62
     7
100
AcDbVertex
100
AcDb2dVertex
 10
417.0500100483
 20
198.1861188181
 30
0.0
  0
VERTEX
  5
30D
330
176
100
AcDbEntity
  8
0
  6
CONTINUOUS
 62
     7
100
AcDbVertex
100
AcDb2dVertex
 10
418.2488922788
 20
198.8611030975
 30
0.0
  0
VERTEX
  5
30E
330
176
100
AcDbEntity
  8
0
  6
CONTINUOUS
 62
     7
100
AcDbVertex
100
AcDb2dVertex
 10
419.3106371461
 20
199.7280945878
 30
0.0
  0
VERTEX
  5
30F
330
176
100
AcDbEntity
  8
0
  6
CONTINUOUS
 62
     7
100
AcDbVertex
100
AcDb2dVertex
 10
420.207746016
 20
200.7646386648
 30
0.0
  0
VERTEX
  5
310
330
176
100
AcDbEntity
  8
0
  6
CONTINUOUS
 62
     7
100
AcDbVertex
100
AcDb2dVertex
 10
420.91698424
 20
201.9438893815
 30
0.0
  0
VERTEX
  5
311
330
176
100
AcDbEntity
  8
0
  6
CONTINUOUS
 62
     7
100
AcDbVertex
100
AcDb2dVertex
 10
421.4199829206
 20
203.2353047636
 30
0.0
  0
VERTEX
  5
312
330
176
100
AcDbEntity
  8
0
  6
CONTINUOUS
 62
     7
100
AcDbVertex
100
AcDb2dVertex
 10
421.7037146563
 20
204.6054378311
 30
0.0
  0
VERTEX
  5
313
330
176
100
AcDbEntity
  8
0
  6
CONTINUOUS
 62
     7
100
AcDbVertex
100
AcDb2dVertex
 10
421.760830944
 20
206.0188028574
 30
0.0
  0
VERTEX
  5
314
330
176
100
AcDbEntity
  8
0
  6
CONTINUOUS
 62
     7
100
AcDbVertex
100
AcDb2dVertex
 10
421.5898525019
 20
207.4387944305
 30
0.0
  0
VERTEX
  5
315
330
176
100
AcDbEntity
  8
0
  6
CONTINUOUS
 62
     7
100
AcDbVertex
100
AcDb2dVertex
 10
421.1952075819
 20
208.8286355147
 30
0.0
  0
VERTEX
  5
316
330
176
100
AcDbEntity
  8
0
  6
CONTINUOUS
 62
     7
100
AcDbVertex
100
AcDb2dVertex
 10
420.5871172801
 20
210.1523299558
 30
0.0
  0
VERTEX
  5
317
330
176
100
AcDbEntity
  8
0
  6
CONTINUOUS
 62
     7
100
AcDbVertex
100
AcDb2dVertex
 10
419.781330816
 20
211.3755947633
 30
0.0
  0
VERTEX
  5
318
330
176
100
AcDbEntity
  8
0
  6
CONTINUOUS
 62
     7
100
AcDbVertex
100
AcDb2dVertex
 10
418.7987176356
 20
212.4667480211
 30
0.0
  0
VERTEX
  5
319
330
176
100
AcDbEntity
  8
0
  6
CONTINUOUS
 62
     7
100
AcDbVertex
100
AcDb2dVertex
 10
417.6647269041
 20
213.3975294331
 30
0.0
  0
VERTEX
  5
31A
330
176
100
AcDbEntity
  8
0
  6
CONTINUOUS
 62
     7
100
AcDbVertex
100
AcDb2dVertex
 10
416.408728386
 20
214.1438322495
 30
0.0
  0
VERTEX
  5
31B
330
176
100
AcDbEntity
  8
0
  6
CONTINUOUS
 62
     7
100
AcDbVertex
100
AcDb2dVertex
 10
415.0632517831
 20
214.6863276194
 30
0.0
  0
VERTEX
  5
31C
330
176
100
AcDbEntity
  8
0
  6
CONTINUOUS
 62
     7
100
AcDbVertex
100
AcDb2dVertex
 10
413.6631442325
 20
215.0109651977
 30
0.0
  0
VERTEX
  5
31D
330
176
100
AcDbEntity
  8
0
  6
CONTINUOUS
 62
     7
100
AcDbVertex
100
AcDb2dVertex
 10
412.2446677845
 20
215.1093370417
 30
0.0
  0
VERTEX
  5
31E
330
176
100
AcDbEntity
  8
0
  6
CONTINUOUS
 62
     7
100
AcDbVertex
100
AcDb2dVertex
 10
410.844560234
 20
214.9788953722
 30
0.0
  0
VERTEX
  5
31F
330
176
100
AcDbEntity
  8
0
  6
CONTINUOUS
 62
     7
100
AcDbVertex
100
AcDb2dVertex
 10
409.499083631
 20
214.6230185601
 30
0.0
  0
VERTEX
  5
320
330
176
100
AcDbEntity
  8
0
  6
CONTINUOUS
 62
     7
100
AcDbVertex
100
AcDb2dVertex
 10
408.2430851129
 20
214.0509236277
 30
0.0
  0
VERTEX
  5
321
330
176
100
AcDbEntity
  8
0
  6
CONTINUOUS
 62
     7
100
AcDbVertex
100
AcDb2dVertex
 10
407.1090943815
 20
213.2774275334
 30
0.0
  0
VERTEX
  5
322
330
176
100
AcDbEntity
  8
0
  6
CONTINUOUS
 62
     7
100
AcDbVertex
100
AcDb2dVertex
 10
406.1264812011
 20
212.3225634196
 30
0.0
  0
VERTEX
  5
323
330
176
100
AcDbEntity
  8
0
  6
CONTINUOUS
 62
     7
100
AcDbVertex
100
AcDb2dVertex
 10
405.3206947369
 20
211.2110617654
 30
0.0
  0
VERTEX
  5
324
330
176
100
AcDbEntity
  8
0
  6
CONTINUOUS
 62
     7
100
AcDbVertex
100
AcDb2dVertex
 10
404.7126044351
 20
209.9717098797
 30
0.0
  0
VERTEX
  5
325
330
176
100
AcDbEntity
  8
0
  6
CONTINUOUS
 62
     7
100
AcDbVertex
100
AcDb2dVertex
 10
404.3179595151
 20
208.6366063254
 30
0.0
  0
VERTEX
  5
326
330
176
100
AcDbEntity
  8
0
  6
CONTINUOUS
 62
     7
100
AcDbVertex
100
AcDb2dVertex
 10
404.1469810731
 20
207.2403295833
 30
0.0
  0
VERTEX
  5
327
330
176
100
AcDbEntity
  8
0
  6
CONTINUOUS
 62
     7
100
AcDbVertex
100
AcDb2dVertex
 10
404.2040973608
 20
205.8190424876
 30
0.0
  0
VERTEX
  5
328
330
176
100
AcDbEntity
  8
0
  6
CONTINUOUS
 62
     7
100
AcDbVertex
100
AcDb2dVertex
 10
404.4878290964
 20
204.4095556273
 30
0.0
  0
VERTEX
  5
329
330
176
100
AcDbEntity
  8
0
  6
CONTINUOUS
 62
     7
100
AcDbVertex
100
AcDb2dVertex
 10
404.990827777
 20
203.048373972
 30
0.0
  0
VERTEX
  5
32A
330
176
100
AcDbEntity
  8
0
  6
CONTINUOUS
 62
     7
100
AcDbVertex
100
AcDb2dVertex
 10
405.700066001
 20
201.7707514113
 30
0.0
  0
VERTEX
  5
32B
330
176
100
AcDbEntity
  8
0
  6
CONTINUOUS
 62
     7
100
AcDbVertex
100
AcDb2dVertex
 10
406.5971748709
 20
200.6097776987
 30
0.0
  0
VERTEX
  5
32C
330
176
100
AcDbEntity
  8
0
  6
CONTINUOUS
 62
     7
100
AcDbVertex
100
AcDb2dVertex
 10
407.6589197383
 20
199.5955214433
 30
0.0
  0
VERTEX
  5
32D
330
176
100
AcDbEntity
  8
0
  6
CONTINUOUS
 62
     7
100
AcDbVertex
100
AcDb2dVertex
 10
408.8578019687
 20
198.7542513494
 30
0.0
  0
VERTEX
  5
32E
330
176
100
AcDbEntity
  8
0
  6
CONTINUOUS
 62
     7
100
AcDbVertex
100
AcDb2dVertex
 10
410.1627711422
 20
198.1077558707
 30
0.0
  0
VERTEX
  5
32F
330
176
100
AcDbEntity
  8
0
  6
CONTINUOUS
 62
     7
100
AcDbVertex
100
AcDb2dVertex
 10
411.5400292426
 20
197.6727789003
 30
0.0
  0
VERTEX
  5
330
330
176
100
AcDbEntity
  8
0
  6
CONTINUOUS
 62
     7
100
AcDbVertex
100
AcDb2dVertex
 10
412.9539060085
 20
197.4605861133
 30
0.0
  0
SEQEND
  5
42D
330
176
100
AcDbEntity
  8
0
  6
CONTINUOUS
 62
     7
  0
POLYLINE
  5
177
330
1F
100
AcDbEntity
  8
0
  6
CONTINUOUS
 62
     7
100
AcDb2dPolyline
 66
     1
 10
0.0
 20
0.0
 30
0.0
 70
   128
  0
VERTEX
  5
331
330
177
100
AcDbEntity
  8
0
  6
CONTINUOUS
 62
     7
100
AcDbVertex
100
AcDb2dVertex
 10
412.9539060085
 20
236.0976191648
 30
0.0
  0
VERTEX
  5
332
330
177
100
AcDbEntity
  8
0
  6
CONTINUOUS
 62
     7
100
AcDbVertex
100
AcDb2dVertex
 10
414.3677827745
 20
236.113706243
 30
0.0
  0
VERTEX
  5
333
330
177
100
AcDbEntity
  8
0
  6
CONTINUOUS
 62
     7
100
AcDbVertex
100
AcDb2dVertex
 10
415.7450408749
 20
236.3576565395
 30
0.0
  0
VERTEX
  5
334
330
177
100
AcDbEntity
  8
0
  6
CONTINUOUS
 62
     7
100
AcDbVertex
100
AcDb2dVertex
 10
417.0500100483
 20
236.8231518697
 30
0.0
  0
VERTEX
  5
335
330
177
100
AcDbEntity
  8
0
  6
CONTINUOUS
 62
     7
100
AcDbVertex
100
AcDb2dVertex
 10
418.2488922788
 20
237.498136149
 30
0.0
  0
VERTEX
  5
336
330
177
100
AcDbEntity
  8
0
  6
CONTINUOUS
 62
     7
100
AcDbVertex
100
AcDb2dVertex
 10
419.3106371461
 20
238.3651276394
 30
0.0
  0
VERTEX
  5
337
330
177
100
AcDbEntity
  8
0
  6
CONTINUOUS
 62
     7
100
AcDbVertex
100
AcDb2dVertex
 10
420.207746016
 20
239.4016717164
 30
0.0
  0
VERTEX
  5
338
330
177
100
AcDbEntity
  8
0
  6
CONTINUOUS
 62
     7
100
AcDbVertex
100
AcDb2dVertex
 10
420.91698424
 20
240.580922433
 30
0.0
  0
VERTEX
  5
339
330
177
100
AcDbEntity
  8
0
  6
CONTINUOUS
 62
     7
100
AcDbVertex
100
AcDb2dVertex
 10
421.4199829206
 20
241.8723378151
 30
0.0
  0
VERTEX
  5
33A
330
177
100
AcDbEntity
  8
0
  6
CONTINUOUS
 62
     7
100
AcDbVertex
100
AcDb2dVertex
 10
421.7037146563
 20
243.2424708827
 30
0.0
  0
VERTEX
  5
33B
330
177
100
AcDbEntity
  8
0
  6
CONTINUOUS
 62
     7
100
AcDbVertex
100
AcDb2dVertex
 10
421.760830944
 20
244.6558359089
 30
0.0
  0
VERTEX
  5
33C
330
177
100
AcDbEntity
  8
0
  6
CONTINUOUS
 62
     7
100
AcDbVertex
100
AcDb2dVertex
 10
421.5898525019
 20
246.075827482
 30
0.0
  0
VERTEX
  5
33D
330
177
100
AcDbEntity
  8
0
  6
CONTINUOUS
 62
     7
100
AcDbVertex
100
AcDb2dVertex
 10
421.1952075819
 20
247.4656685662
 30
0.0
  0
VERTEX
  5
33E
330
177
100
AcDbEntity
  8
0
  6
CONTINUOUS
 62
     7
100
AcDbVertex
100
AcDb2dVertex
 10
420.5871172801
 20
248.7893630074
 30
0.0
  0
VERTEX
  5
33F
330
177
100
AcDbEntity
  8
0
  6
CONTINUOUS
 62
     7
100
AcDbVertex
100
AcDb2dVertex
 10
419.781330816
 20
250.0126278149
 30
0.0
  0
VERTEX
  5
340
330
177
100
AcDbEntity
  8
0
  6
CONTINUOUS
 62
     7
100
AcDbVertex
100
AcDb2dVertex
 10
418.7987176356
 20
251.1037810727
 30
0.0
  0
VERTEX
  5
341
330
177
100
AcDbEntity
  8
0
  6
CONTINUOUS
 62
     7
100
AcDbVertex
100
AcDb2dVertex
 10
417.6647269041
 20
252.0345624846
 30
0.0
  0
VERTEX
  5
342
330
177
100
AcDbEntity
  8
0
  6
CONTINUOUS
 62
     7
100
AcDbVertex
100
AcDb2dVertex
 10
416.408728386
 20
252.780865301
 30
0.0
  0
VERTEX
  5
343
330
177
100
AcDbEntity
  8
0
  6
CONTINUOUS
 62
     7
100
AcDbVertex
100
AcDb2dVertex
 10
415.0632517831
 20
253.3233606709
 30
0.0
  0
VERTEX
  5
344
330
177
100
AcDbEntity
  8
0
  6
CONTINUOUS
 62
     7
100
AcDbVertex
100
AcDb2dVertex
 10
413.6631442325
 20
253.6479982493
 30
0.0
  0
VERTEX
  5
345
330
177
100
AcDbEntity
  8
0
  6
CONTINUOUS
 62
     7
100
AcDbVertex
100
AcDb2dVertex
 10
412.2446677845
 20
253.7463700932
 30
0.0
  0
VERTEX
  5
346
330
177
100
AcDbEntity
  8
0
  6
CONTINUOUS
 62
     7
100
AcDbVertex
100
AcDb2dVertex
 10
410.844560234
 20
253.6159284238
 30
0.0
  0
VERTEX
  5
347
330
177
100
AcDbEntity
  8
0
  6
CONTINUOUS
 62
     7
100
AcDbVertex
100
AcDb2dVertex
 10
409.499083631
 20
253.2600516116
 30
0.0
  0
VERTEX
  5
348
330
177
100
AcDbEntity
  8
0
  6
CONTINUOUS
 62
     7
100
AcDbVertex
100
AcDb2dVertex
 10
408.2430851129
 20
252.6879566793
 30
0.0
  0
VERTEX
  5
349
330
177
100
AcDbEntity
  8
0
  6
CONTINUOUS
 62
     7
100
AcDbVertex
100
AcDb2dVertex
 10
407.1090943815
 20
251.9144605849
 30
0.0
  0
VERTEX
  5
34A
330
177
100
AcDbEntity
  8
0
  6
CONTINUOUS
 62
     7
100
AcDbVertex
100
AcDb2dVertex
 10
406.1264812011
 20
250.9595964712
 30
0.0
  0
VERTEX
  5
34B
330
177
100
AcDbEntity
  8
0
  6
CONTINUOUS
 62
     7
100
AcDbVertex
100
AcDb2dVertex
 10
405.3206947369
 20
249.8480948169
 30
0.0
  0
VERTEX
  5
34C
330
177
100
AcDbEntity
  8
0
  6
CONTINUOUS
 62
     7
100
AcDbVertex
100
AcDb2dVertex
 10
404.7126044351
 20
248.6087429313
 30
0.0
  0
VERTEX
  5
34D
330
177
100
AcDbEntity
  8
0
  6
CONTINUOUS
 62
     7
100
AcDbVertex
100
AcDb2dVertex
 10
404.3179595151
 20
247.273639377
 30
0.0
  0
VERTEX
  5
34E
330
177
100
AcDbEntity
  8
0
  6
CONTINUOUS
 62
     7
100
AcDbVertex
100
AcDb2dVertex
 10
404.1469810731
 20
245.8773626349
 30
0.0
  0
VERTEX
  5
34F
330
177
100
AcDbEntity
  8
0
  6
CONTINUOUS
 62
     7
100
AcDbVertex
100
AcDb2dVertex
 10
404.2040973608
 20
244.4560755391
 30
0.0
  0
VERTEX
  5
350
330
177
100
AcDbEntity
  8
0
  6
CONTINUOUS
 62
     7
100
AcDbVertex
100
AcDb2dVertex
 10
404.4878290964
 20
243.0465886789
 30
0.0
  0
VERTEX
  5
351
330
177
100
AcDbEntity
  8
0
  6
CONTINUOUS
 62
     7
100
AcDbVertex
100
AcDb2dVertex
 10
404.990827777
 20
241.6854070235
 30
0.0
  0
VERTEX
  5
352
330
177
100
AcDbEntity
  8
0
  6
CONTINUOUS
 62
     7
100
AcDbVertex
100
AcDb2dVertex
 10
405.700066001
 20
240.4077844629
 30
0.0
  0
VERTEX
  5
353
330
177
100
AcDbEntity
  8
0
  6
CONTINUOUS
 62
     7
100
AcDbVertex
100
AcDb2dVertex
 10
406.5971748709
 20
239.2468107502
 30
0.0
  0
VERTEX
  5
354
330
177
100
AcDbEntity
  8
0
  6
CONTINUOUS
 62
     7
100
AcDbVertex
100
AcDb2dVertex
 10
407.6589197383
 20
238.2325544949
 30
0.0
  0
VERTEX
  5
355
330
177
100
AcDbEntity
  8
0
  6
CONTINUOUS
 62
     7
100
AcDbVertex
100
AcDb2dVertex
 10
408.8578019687
 20
237.391284401
 30
0.0
  0
VERTEX
  5
356
330
177
100
AcDbEntity
  8
0
  6
CONTINUOUS
 62
     7
100
AcDbVertex
100
AcDb2dVertex
 10
410.1627711422
 20
236.7447889222
 30
0.0
  0
VERTEX
  5
357
330
177
100
AcDbEntity
  8
0
  6
CONTINUOUS
 62
     7
100
AcDbVertex
100
AcDb2dVertex
 10
411.5400292426
 20
236.3098119518
 30
0.0
  0
VERTEX
  5
358
330
177
100
AcDbEntity
  8
0
  6
CONTINUOUS
 62
     7
100
AcDbVertex
100
AcDb2dVertex
 10
412.9539060085
 20
236.0976191648
 30
0.0
  0
SEQEND
  5
42E
330
177
100
AcDbEntity
  8
0
  6
CONTINUOUS
 62
     7
  0
POLYLINE
  5
178
330
1F
100
AcDbEntity
  8
0
  6
CONTINUOUS
 62
     7
100
AcDb2dPolyline
 66
     1
 10
0.0
 20
0.0
 30
0.0
 70
   128
  0
VERTEX
  5
359
330
178
100
AcDbEntity
  8
0
  6
CONTINUOUS
 62
     7
100
AcDbVertex
100
AcDb2dVertex
 10
210.1094824878
 20
211.5279187159
 30
0.0
  0
VERTEX
  5
35A
330
178
100
AcDbEntity
  8
0
  6
CONTINUOUS
 62
     7
100
AcDbVertex
100
AcDb2dVertex
 10
211.5233592538
 20
211.5440057941
 30
0.0
  0
VERTEX
  5
35B
330
178
100
AcDbEntity
  8
0
  6
CONTINUOUS
 62
     7
100
AcDbVertex
100
AcDb2dVertex
 10
212.9006173542
 20
211.7879560905
 30
0.0
  0
VERTEX
  5
35C
330
178
100
AcDbEntity
  8
0
  6
CONTINUOUS
 62
     7
100
AcDbVertex
100
AcDb2dVertex
 10
214.2055865276
 20
212.2534514207
 30
0.0
  0
VERTEX
  5
35D
330
178
100
AcDbEntity
  8
0
  6
CONTINUOUS
 62
     7
100
AcDbVertex
100
AcDb2dVertex
 10
215.4044687581
 20
212.9284357001
 30
0.0
  0
VERTEX
  5
35E
330
178
100
AcDbEntity
  8
0
  6
CONTINUOUS
 62
     7
100
AcDbVertex
100
AcDb2dVertex
 10
216.4662136254
 20
213.7954271904
 30
0.0
  0
VERTEX
  5
35F
330
178
100
AcDbEntity
  8
0
  6
CONTINUOUS
 62
     7
100
AcDbVertex
100
AcDb2dVertex
 10
217.3633224953
 20
214.8319712675
 30
0.0
  0
VERTEX
  5
360
330
178
100
AcDbEntity
  8
0
  6
CONTINUOUS
 62
     7
100
AcDbVertex
100
AcDb2dVertex
 10
218.0725607193
 20
216.0112219841
 30
0.0
  0
VERTEX
  5
361
330
178
100
AcDbEntity
  8
0
  6
CONTINUOUS
 62
     7
100
AcDbVertex
100
AcDb2dVertex
 10
218.5755593999
 20
217.3026373662
 30
0.0
  0
VERTEX
  5
362
330
178
100
AcDbEntity
  8
0
  6
CONTINUOUS
 62
     7
100
AcDbVertex
100
AcDb2dVertex
 10
218.8592911356
 20
218.6727704338
 30
0.0
  0
VERTEX
  5
363
330
178
100
AcDbEntity
  8
0
  6
CONTINUOUS
 62
     7
100
AcDbVertex
100
AcDb2dVertex
 10
218.9164074233
 20
220.08613546
 30
0.0
  0
VERTEX
  5
364
330
178
100
AcDbEntity
  8
0
  6
CONTINUOUS
 62
     7
100
AcDbVertex
100
AcDb2dVertex
 10
218.7454289812
 20
221.5061270331
 30
0.0
  0
VERTEX
  5
365
330
178
100
AcDbEntity
  8
0
  6
CONTINUOUS
 62
     7
100
AcDbVertex
100
AcDb2dVertex
 10
218.3507840612
 20
222.8959681173
 30
0.0
  0
VERTEX
  5
366
330
178
100
AcDbEntity
  8
0
  6
CONTINUOUS
 62
     7
100
AcDbVertex
100
AcDb2dVertex
 10
217.7426937594
 20
224.2196625585
 30
0.0
  0
VERTEX
  5
367
330
178
100
AcDbEntity
  8
0
  6
CONTINUOUS
 62
     7
100
AcDbVertex
100
AcDb2dVertex
 10
216.9369072953
 20
225.442927366
 30
0.0
  0
VERTEX
  5
368
330
178
100
AcDbEntity
  8
0
  6
CONTINUOUS
 62
     7
100
AcDbVertex
100
AcDb2dVertex
 10
215.9542941148
 20
226.5340806238
 30
0.0
  0
VERTEX
  5
369
330
178
100
AcDbEntity
  8
0
  6
CONTINUOUS
 62
     7
100
AcDbVertex
100
AcDb2dVertex
 10
214.8203033834
 20
227.4648620357
 30
0.0
  0
VERTEX
  5
36A
330
178
100
AcDbEntity
  8
0
  6
CONTINUOUS
 62
     7
100
AcDbVertex
100
AcDb2dVertex
 10
213.5643048653
 20
228.2111648521
 30
0.0
  0
VERTEX
  5
36B
330
178
100
AcDbEntity
  8
0
  6
CONTINUOUS
 62
     7
100
AcDbVertex
100
AcDb2dVertex
 10
212.2188282624
 20
228.753660222
 30
0.0
  0
VERTEX
  5
36C
330
178
100
AcDbEntity
  8
0
  6
CONTINUOUS
 62
     7
100
AcDbVertex
100
AcDb2dVertex
 10
210.8187207118
 20
229.0782978003
 30
0.0
  0
VERTEX
  5
36D
330
178
100
AcDbEntity
  8
0
  6
CONTINUOUS
 62
     7
100
AcDbVertex
100
AcDb2dVertex
 10
209.4002442638
 20
229.1766696443
 30
0.0
  0
VERTEX
  5
36E
330
178
100
AcDbEntity
  8
0
  6
CONTINUOUS
 62
     7
100
AcDbVertex
100
AcDb2dVertex
 10
208.0001367133
 20
229.0462279749
 30
0.0
  0
VERTEX
  5
36F
330
178
100
AcDbEntity
  8
0
  6
CONTINUOUS
 62
     7
100
AcDbVertex
100
AcDb2dVertex
 10
206.6546601103
 20
228.6903511627
 30
0.0
  0
VERTEX
  5
370
330
178
100
AcDbEntity
  8
0
  6
CONTINUOUS
 62
     7
100
AcDbVertex
100
AcDb2dVertex
 10
205.3986615922
 20
228.1182562303
 30
0.0
  0
VERTEX
  5
371
330
178
100
AcDbEntity
  8
0
  6
CONTINUOUS
 62
     7
100
AcDbVertex
100
AcDb2dVertex
 10
204.2646708608
 20
227.344760136
 30
0.0
  0
VERTEX
  5
372
330
178
100
AcDbEntity
  8
0
  6
CONTINUOUS
 62
     7
100
AcDbVertex
100
AcDb2dVertex
 10
203.2820576804
 20
226.3898960222
 30
0.0
  0
VERTEX
  5
373
330
178
100
AcDbEntity
  8
0
  6
CONTINUOUS
 62
     7
100
AcDbVertex
100
AcDb2dVertex
 10
202.4762712162
 20
225.278394368
 30
0.0
  0
VERTEX
  5
374
330
178
100
AcDbEntity
  8
0
  6
CONTINUOUS
 62
     7
100
AcDbVertex
100
AcDb2dVertex
 10
201.8681809144
 20
224.0390424824
 30
0.0
  0
VERTEX
  5
375
330
178
100
AcDbEntity
  8
0
  6
CONTINUOUS
 62
     7
100
AcDbVertex
100
AcDb2dVertex
 10
201.4735359944
 20
222.7039389281
 30
0.0
  0
VERTEX
  5
376
330
178
100
AcDbEntity
  8
0
  6
CONTINUOUS
 62
     7
100
AcDbVertex
100
AcDb2dVertex
 10
201.3025575524
 20
221.307662186
 30
0.0
  0
VERTEX
  5
377
330
178
100
AcDbEntity
  8
0
  6
CONTINUOUS
 62
     7
100
AcDbVertex
100
AcDb2dVertex
 10
201.3596738401
 20
219.8863750902
 30
0.0
  0
VERTEX
  5
378
330
178
100
AcDbEntity
  8
0
  6
CONTINUOUS
 62
     7
100
AcDbVertex
100
AcDb2dVertex
 10
201.6434055757
 20
218.47688823
 30
0.0
  0
VERTEX
  5
379
330
178
100
AcDbEntity
  8
0
  6
CONTINUOUS
 62
     7
100
AcDbVertex
100
AcDb2dVertex
 10
202.1464042563
 20
217.1157065746
 30
0.0
  0
VERTEX
  5
37A
330
178
100
AcDbEntity
  8
0
  6
CONTINUOUS
 62
     7
100
AcDbVertex
100
AcDb2dVertex
 10
202.8556424803
 20
215.838084014
 30
0.0
  0
VERTEX
  5
37B
330
178
100
AcDbEntity
  8
0
  6
CONTINUOUS
 62
     7
100
AcDbVertex
100
AcDb2dVertex
 10
203.7527513502
 20
214.6771103013
 30
0.0
  0
VERTEX
  5
37C
330
178
100
AcDbEntity
  8
0
  6
CONTINUOUS
 62
     7
100
AcDbVertex
100
AcDb2dVertex
 10
204.8144962176
 20
213.6628540459
 30
0.0
  0
VERTEX
  5
37D
330
178
100
AcDbEntity
  8
0
  6
CONTINUOUS
 62
     7
100
AcDbVertex
100
AcDb2dVertex
 10
206.013378448
 20
212.8215839521
 30
0.0
  0
VERTEX
  5
37E
330
178
100
AcDbEntity
  8
0
  6
CONTINUOUS
 62
     7
100
AcDbVertex
100
AcDb2dVertex
 10
207.3183476215
 20
212.1750884733
 30
0.0
  0
VERTEX
  5
37F
330
178
100
AcDbEntity
  8
0
  6
CONTINUOUS
 62
     7
100
AcDbVertex
100
AcDb2dVertex
 10
208.6956057219
 20
211.7401115029
 30
0.0
  0
VERTEX
  5
380
330
178
100
AcDbEntity
  8
0
  6
CONTINUOUS
 62
     7
100
AcDbVertex
100
AcDb2dVertex
 10
210.1094824878
 20
211.5279187159
 30
0.0
  0
SEQEND
  5
42F
330
178
100
AcDbEntity
  8
0
  6
CONTINUOUS
 62
     7
  0
POLYLINE
  5
179
330
1F
100
AcDbEntity
  8
0
  6
CONTINUOUS
 62
     7
100
AcDb2dPolyline
 66
     1
 10
0.0
 20
0.0
 30
0.0
 70
   128
  0
VERTEX
  5
381
330
179
100
AcDbEntity
  8
0
  6
CONTINUOUS
 62
     7
100
AcDbVertex
100
AcDb2dVertex
 10
210.1094824878
 20
250.1649517675
 30
0.0
  0
VERTEX
  5
382
330
179
100
AcDbEntity
  8
0
  6
CONTINUOUS
 62
     7
100
AcDbVertex
100
AcDb2dVertex
 10
211.5233592538
 20
250.1810388456
 30
0.0
  0
VERTEX
  5
383
330
179
100
AcDbEntity
  8
0
  6
CONTINUOUS
 62
     7
100
AcDbVertex
100
AcDb2dVertex
 10
212.9006173542
 20
250.4249891421
 30
0.0
  0
VERTEX
  5
384
330
179
100
AcDbEntity
  8
0
  6
CONTINUOUS
 62
     7
100
AcDbVertex
100
AcDb2dVertex
 10
214.2055865276
 20
250.8904844723
 30
0.0
  0
VERTEX
  5
385
330
179
100
AcDbEntity
  8
0
  6
CONTINUOUS
 62
     7
100
AcDbVertex
100
AcDb2dVertex
 10
215.4044687581
 20
251.5654687517
 30
0.0
  0
VERTEX
  5
386
330
179
100
AcDbEntity
  8
0
  6
CONTINUOUS
 62
     7
100
AcDbVertex
100
AcDb2dVertex
 10
216.4662136254
 20
252.432460242
 30
0.0
  0
VERTEX
  5
387
330
179
100
AcDbEntity
  8
0
  6
CONTINUOUS
 62
     7
100
AcDbVertex
100
AcDb2dVertex
 10
217.3633224953
 20
253.469004319
 30
0.0
  0
VERTEX
  5
388
330
179
100
AcDbEntity
  8
0
  6
CONTINUOUS
 62
     7
100
AcDbVertex
100
AcDb2dVertex
 10
218.0725607193
 20
254.6482550357
 30
0.0
  0
VERTEX
  5
389
330
179
100
AcDbEntity
  8
0
  6
CONTINUOUS
 62
     7
100
AcDbVertex
100
AcDb2dVertex
 10
218.5755593999
 20
255.9396704178
 30
0.0
  0
VERTEX
  5
38A
330
179
100
AcDbEntity
  8
0
  6
CONTINUOUS
 62
     7
100
AcDbVertex
100
AcDb2dVertex
 10
218.8592911356
 20
257.3098034853
 30
0.0
  0
VERTEX
  5
38B
330
179
100
AcDbEntity
  8
0
  6
CONTINUOUS
 62
     7
100
AcDbVertex
100
AcDb2dVertex
 10
218.9164074233
 20
258.7231685115
 30
0.0
  0
VERTEX
  5
38C
330
179
100
AcDbEntity
  8
0
  6
CONTINUOUS
 62
     7
100
AcDbVertex
100
AcDb2dVertex
 10
218.7454289812
 20
260.1431600847
 30
0.0
  0
VERTEX
  5
38D
330
179
100
AcDbEntity
  8
0
  6
CONTINUOUS
 62
     7
100
AcDbVertex
100
AcDb2dVertex
 10
218.3507840612
 20
261.5330011688
 30
0.0
  0
VERTEX
  5
38E
330
179
100
AcDbEntity
  8
0
  6
CONTINUOUS
 62
     7
100
AcDbVertex
100
AcDb2dVertex
 10
217.7426937594
 20
262.85669561
 30
0.0
  0
VERTEX
  5
38F
330
179
100
AcDbEntity
  8
0
  6
CONTINUOUS
 62
     7
100
AcDbVertex
100
AcDb2dVertex
 10
216.9369072953
 20
264.0799604175
 30
0.0
  0
VERTEX
  5
390
330
179
100
AcDbEntity
  8
0
  6
CONTINUOUS
 62
     7
100
AcDbVertex
100
AcDb2dVertex
 10
215.9542941148
 20
265.1711136753
 30
0.0
  0
VERTEX
  5
391
330
179
100
AcDbEntity
  8
0
  6
CONTINUOUS
 62
     7
100
AcDbVertex
100
AcDb2dVertex
 10
214.8203033834
 20
266.1018950873
 30
0.0
  0
VERTEX
  5
392
330
179
100
AcDbEntity
  8
0
  6
CONTINUOUS
 62
     7
100
AcDbVertex
100
AcDb2dVertex
 10
213.5643048653
 20
266.8481979037
 30
0.0
  0
VERTEX
  5
393
330
179
100
AcDbEntity
  8
0
  6
CONTINUOUS
 62
     7
100
AcDbVertex
100
AcDb2dVertex
 10
212.2188282624
 20
267.3906932736
 30
0.0
  0
VERTEX
  5
394
330
179
100
AcDbEntity
  8
0
  6
CONTINUOUS
 62
     7
100
AcDbVertex
100
AcDb2dVertex
 10
210.8187207118
 20
267.7153308519
 30
0.0
  0
VERTEX
  5
395
330
179
100
AcDbEntity
  8
0
  6
CONTINUOUS
 62
     7
100
AcDbVertex
100
AcDb2dVertex
 10
209.4002442638
 20
267.8137026959
 30
0.0
  0
VERTEX
  5
396
330
179
100
AcDbEntity
  8
0
  6
CONTINUOUS
 62
     7
100
AcDbVertex
100
AcDb2dVertex
 10
208.0001367133
 20
267.6832610264
 30
0.0
  0
VERTEX
  5
397
330
179
100
AcDbEntity
  8
0
  6
CONTINUOUS
 62
     7
100
AcDbVertex
100
AcDb2dVertex
 10
206.6546601103
 20
267.3273842143
 30
0.0
  0
VERTEX
  5
398
330
179
100
AcDbEntity
  8
0
  6
CONTINUOUS
 62
     7
100
AcDbVertex
100
AcDb2dVertex
 10
205.3986615922
 20
266.7552892819
 30
0.0
  0
VERTEX
  5
399
330
179
100
AcDbEntity
  8
0
  6
CONTINUOUS
 62
     7
100
AcDbVertex
100
AcDb2dVertex
 10
204.2646708608
 20
265.9817931876
 30
0.0
  0
VERTEX
  5
39A
330
179
100
AcDbEntity
  8
0
  6
CONTINUOUS
 62
     7
100
AcDbVertex
100
AcDb2dVertex
 10
203.2820576804
 20
265.0269290738
 30
0.0
  0
VERTEX
  5
39B
330
179
100
AcDbEntity
  8
0
  6
CONTINUOUS
 62
     7
100
AcDbVertex
100
AcDb2dVertex
 10
202.4762712162
 20
263.9154274196
 30
0.0
  0
VERTEX
  5
39C
330
179
100
AcDbEntity
  8
0
  6
CONTINUOUS
 62
     7
100
AcDbVertex
100
AcDb2dVertex
 10
201.8681809144
 20
262.6760755339
 30
0.0
  0
VERTEX
  5
39D
330
179
100
AcDbEntity
  8
0
  6
CONTINUOUS
 62
     7
100
AcDbVertex
100
AcDb2dVertex
 10
201.4735359944
 20
261.3409719796
 30
0.0
  0
VERTEX
  5
39E
330
179
100
AcDbEntity
  8
0
  6
CONTINUOUS
 62
     7
100
AcDbVertex
100
AcDb2dVertex
 10
201.3025575524
 20
259.9446952375
 30
0.0
  0
VERTEX
  5
39F
330
179
100
AcDbEntity
  8
0
  6
CONTINUOUS
 62
     7
100
AcDbVertex
100
AcDb2dVertex
 10
201.3596738401
 20
258.5234081417
 30
0.0
  0
VERTEX
  5
3A0
330
179
100
AcDbEntity
  8
0
  6
CONTINUOUS
 62
     7
100
AcDbVertex
100
AcDb2dVertex
 10
201.6434055757
 20
257.1139212815
 30
0.0
  0
VERTEX
  5
3A1
330
179
100
AcDbEntity
  8
0
  6
CONTINUOUS
 62
     7
100
AcDbVertex
100
AcDb2dVertex
 10
202.1464042563
 20
255.7527396262
 30
0.0
  0
VERTEX
  5
3A2
330
179
100
AcDbEntity
  8
0
  6
CONTINUOUS
 62
     7
100
AcDbVertex
100
AcDb2dVertex
 10
202.8556424803
 20
254.4751170655
 30
0.0
  0
VERTEX
  5
3A3
330
179
100
AcDbEntity
  8
0
  6
CONTINUOUS
 62
     7
100
AcDbVertex
100
AcDb2dVertex
 10
203.7527513502
 20
253.3141433529
 30
0.0
  0
VERTEX
  5
3A4
330
179
100
AcDbEntity
  8
0
  6
CONTINUOUS
 62
     7
100
AcDbVertex
100
AcDb2dVertex
 10
204.8144962176
 20
252.2998870975
 30
0.0
  0
VERTEX
  5
3A5
330
179
100
AcDbEntity
  8
0
  6
CONTINUOUS
 62
     7
100
AcDbVertex
100
AcDb2dVertex
 10
206.013378448
 20
251.4586170036
 30
0.0
  0
VERTEX
  5
3A6
330
179
100
AcDbEntity
  8
0
  6
CONTINUOUS
 62
     7
100
AcDbVertex
100
AcDb2dVertex
 10
207.3183476215
 20
250.8121215249
 30
0.0
  0
VERTEX
  5
3A7
330
179
100
AcDbEntity
  8
0
  6
CONTINUOUS
 62
     7
100
AcDbVertex
100
AcDb2dVertex
 10
208.6956057219
 20
250.3771445545
 30
0.0
  0
VERTEX
  5
3A8
330
179
100
AcDbEntity
  8
0
  6
CONTINUOUS
 62
     7
100
AcDbVertex
100
AcDb2dVertex
 10
210.1094824878
 20
250.1649517675
 30
0.0
  0
SEQEND
  5
430
330
179
100
AcDbEntity
  8
0
  6
CONTINUOUS
 62
     7
  0
LINE
  5
17A
330
1F
100
AcDbEntity
  8
0
  6
CONTINUOUS
 62
     7
100
AcDbLine
 10
473.4976460369
 20
267.5406001005
 30
0.0
 11
470.9094555859
 21
265.0406001005
 31
0.0
  0
LINE
  5
17B
330
1F
100
AcDbEntity
  8
0
  6
CONTINUOUS
 62
     7
100
AcDbLine
 10
466.0798264544
 20
270.2051657225
 30
0.0
 11
468.6680169054
 21
272.7051657225
 31
0.0
  0
ARC
  5
17C
330
1F
100
AcDbEntity
  8
0
  6
CONTINUOUS
 62
     7
100
AcDbCircle
 10
468.2539306433
 20
267.4774441954
 30
0.0
 40
5.24409570821307
100
AcDbArc
 50
0.6900435254
 51
85.4710743676
  0
LINE
  5
17D
330
1F
100
AcDbEntity
  8
0
  6
CONTINUOUS
 62
     7
100
AcDbLine
 10
159.5717524929
 20
294.141101117
 30
0.0
 11
156.9835620419
 21
291.641101117
 31
0.0
  0
LINE
  5
17E
330
1F
100
AcDbEntity
  8
0
  6
CONTINUOUS
 62
     7
100
AcDbLine
 10
159.5717524929
 20
294.141101117
 30
0.0
 11
468.6680169054
 21
272.7051657225
 31
0.0
  0
LINE
  5
17F
330
1F
100
AcDbEntity
  8
0
  6
CONTINUOUS
 62
     7
100
AcDbLine
 10
473.4976460369
 20
267.5406001005
 30
0.0
 11
473.4976460369
 21
180.6072757345
 31
0.0
  0
LINE
  5
180
330
1F
100
AcDbEntity
  8
0
  6
CONTINUOUS
 62
     7
100
AcDbLine
 10
470.9094555859
 20
178.1072757345
 30
0.0
 11
473.4976460369
 21
180.6072757345
 31
0.0
  0
LINE
  5
181
330
1F
100
AcDbEntity
  8
0
  6
CONTINUOUS
 62
     7
100
AcDbLine
 10
459.0087586426
 20
254.8775591301
 30
0.0
 11
456.4205681915
 21
252.3775591301
 31
0.0
  0
POLYLINE
  5
182
330
1F
100
AcDbEntity
  8
0
  6
CONTINUOUS
 62
     7
100
AcDb2dPolyline
 66
     1
 10
0.0
 20
0.0
 30
0.0
 70
   128
  0
VERTEX
  5
3A9
330
182
100
AcDbEntity
  8
0
  6
CONTINUOUS
 62
     7
100
AcDbVertex
100
AcDb2dVertex
 10
460.2676838808
 20
254.993070035
 30
0.0
  0
VERTEX
  5
3AA
330
182
100
AcDbEntity
  8
0
  6
CONTINUOUS
 62
     7
100
AcDbVertex
100
AcDb2dVertex
 10
459.9680775428
 20
254.9275124281
 30
0.0
  0
VERTEX
  5
3AB
330
182
100
AcDbEntity
  8
0
  6
CONTINUOUS
 62
     7
100
AcDbVertex
100
AcDb2dVertex
 10
459.0087586426
 20
254.8775591301
 30
0.0
  0
SEQEND
  5
431
330
182
100
AcDbEntity
  8
0
  6
CONTINUOUS
 62
     7
  0
LINE
  5
183
330
1F
100
AcDbEntity
  8
0
  6
CONTINUOUS
 62
     7
100
AcDbLine
 10
449.3495003797
 20
255.5474321112
 30
0.0
 11
446.7613099286
 21
253.0474321112
 31
0.0
  0
LINE
  5
184
330
1F
100
AcDbEntity
  8
0
  6
CONTINUOUS
 62
     7
100
AcDbLine
 10
459.0087586426
 20
254.8775591301
 30
0.0
 11
449.3495003797
 21
255.5474321112
 31
0.0
  0
ARC
  5
185
330
1F
100
AcDbEntity
  8
0
  6
CONTINUOUS
 62
     7
100
AcDbCircle
 10
449.6568736
 20
259.8371560551
 30
0.0
 40
4.300722010494655
100
AcDbArc
 50
165.015988219
 51
265.9015682193
  0
POLYLINE
  5
186
330
1F
100
AcDbEntity
  8
0
  6
CONTINUOUS
 62
     7
100
AcDb2dPolyline
 66
     1
 10
0.0
 20
0.0
 30
0.0
 70
   128
  0
VERTEX
  5
3AC
330
186
100
AcDbEntity
  8
0
  6
CONTINUOUS
 62
     7
100
AcDbVertex
100
AcDb2dVertex
 10
414.1509440921
 20
241.7212761114
 30
0.0
  0
VERTEX
  5
3AD
330
186
100
AcDbEntity
  8
0
  6
CONTINUOUS
 62
     7
100
AcDbVertex
100
AcDb2dVertex
 10
415.1533543069
 20
241.7689235585
 30
0.0
  0
VERTEX
  5
3AE
330
186
100
AcDbEntity
  8
0
  6
CONTINUOUS
 62
     7
100
AcDbVertex
100
AcDb2dVertex
 10
416.1017243275
 20
242.0483322203
 30
0.0
  0
VERTEX
  5
3AF
330
186
100
AcDbEntity
  8
0
  6
CONTINUOUS
 62
     7
100
AcDbVertex
100
AcDb2dVertex
 10
416.9449272807
 20
242.5444391036
 30
0.0
  0
VERTEX
  5
3B0
330
186
100
AcDbEntity
  8
0
  6
CONTINUOUS
 62
     7
100
AcDbVertex
100
AcDb2dVertex
 10
417.637505877
 20
243.2304989578
 30
0.0
  0
VERTEX
  5
3B1
330
186
100
AcDbEntity
  8
0
  6
CONTINUOUS
 62
     7
100
AcDbVertex
100
AcDb2dVertex
 10
418.142123025
 20
244.0695261186
 30
0.0
  0
VERTEX
  5
3B2
330
186
100
AcDbEntity
  8
0
  6
CONTINUOUS
 62
     7
100
AcDbVertex
100
AcDb2dVertex
 10
418.4315746837
 20
245.0162884146
 30
0.0
  0
VERTEX
  5
3B3
330
186
100
AcDbEntity
  8
0
  6
CONTINUOUS
 62
     7
100
AcDbVertex
100
AcDb2dVertex
 10
418.4902564391
 20
246.0197456454
 30
0.0
  0
VERTEX
  5
3B4
330
186
100
AcDbEntity
  8
0
  6
CONTINUOUS
 62
     7
100
AcDbVertex
100
AcDb2dVertex
 10
418.3150047428
 20
247.0258011719
 30
0.0
  0
VERTEX
  5
3B5
330
186
100
AcDbEntity
  8
0
  6
CONTINUOUS
 62
     7
100
AcDbVertex
100
AcDb2dVertex
 10
417.9152674589
 20
247.9802182804
 30
0.0
  0
VERTEX
  5
3B6
330
186
100
AcDbEntity
  8
0
  6
CONTINUOUS
 62
     7
100
AcDbVertex
100
AcDb2dVertex
 10
417.312594528
 20
248.8315440973
 30
0.0
  0
VERTEX
  5
3B7
330
186
100
AcDbEntity
  8
0
  6
CONTINUOUS
 62
     7
100
AcDbVertex
100
AcDb2dVertex
 10
416.5394762038
 20
249.5338834276
 30
0.0
  0
VERTEX
  5
3B8
330
186
100
AcDbEntity
  8
0
  6
CONTINUOUS
 62
     7
100
AcDbVertex
100
AcDb2dVertex
 10
415.6375914951
 20
250.0493729762
 30
0.0
  0
VERTEX
  5
3B9
330
186
100
AcDbEntity
  8
0
  6
CONTINUOUS
 62
     7
100
AcDbVertex
100
AcDb2dVertex
 10
414.6555612401
 20
250.3502225681
 30
0.0
  0
VERTEX
  5
3BA
330
186
100
AcDbEntity
  8
0
  6
CONTINUOUS
 62
     7
100
AcDbVertex
100
AcDb2dVertex
 10
413.6463269441
 20
250.420213324
 30
0.0
  0
VERTEX
  5
3BB
330
186
100
AcDbEntity
  8
0
  6
CONTINUOUS
 62
     7
100
AcDbVertex
100
AcDb2dVertex
 10
412.6642966892
 20
250.2555720239
 30
0.0
  0
VERTEX
  5
3BC
330
186
100
AcDbEntity
  8
0
  6
CONTINUOUS
 62
     7
100
AcDbVertex
100
AcDb2dVertex
 10
411.7624119805
 20
249.8651745232
 30
0.0
  0
VERTEX
  5
3BD
330
186
100
AcDbEntity
  8
0
  6
CONTINUOUS
 62
     7
100
AcDbVertex
100
AcDb2dVertex
 10
410.9892936562
 20
249.270067252
 30
0.0
  0
VERTEX
  5
3BE
330
186
100
AcDbEntity
  8
0
  6
CONTINUOUS
 62
     7
100
AcDbVertex
100
AcDb2dVertex
 10
410.3866207253
 20
248.5023325974
 30
0.0
  0
VERTEX
  5
3BF
330
186
100
AcDbEntity
  8
0
  6
CONTINUOUS
 62
     7
100
AcDbVertex
100
AcDb2dVertex
 10
409.9868834415
 20
247.6033593334
 30
0.0
  0
VERTEX
  5
3C0
330
186
100
AcDbEntity
  8
0
  6
CONTINUOUS
 62
     7
100
AcDbVertex
100
AcDb2dVertex
 10
409.8116317451
 20
246.6216113412
 30
0.0
  0
VERTEX
  5
3C1
330
186
100
AcDbEntity
  8
0
  6
CONTINUOUS
 62
     7
100
AcDbVertex
100
AcDb2dVertex
 10
409.8703135006
 20
245.6100149094
 30
0.0
  0
VERTEX
  5
3C2
330
186
100
AcDbEntity
  8
0
  6
CONTINUOUS
 62
     7
100
AcDbVertex
100
AcDb2dVertex
 10
410.1597651592
 20
244.6231054633
 30
0.0
  0
VERTEX
  5
3C3
330
186
100
AcDbEntity
  8
0
  6
CONTINUOUS
 62
     7
100
AcDbVertex
100
AcDb2dVertex
 10
410.6643823073
 20
243.7140875466
 30
0.0
  0
VERTEX
  5
3C4
330
186
100
AcDbEntity
  8
0
  6
CONTINUOUS
 62
     7
100
AcDbVertex
100
AcDb2dVertex
 10
411.3569609036
 20
242.9319665506
 30
0.0
  0
VERTEX
  5
3C5
330
186
100
AcDbEntity
  8
0
  6
CONTINUOUS
 62
     7
100
AcDbVertex
100
AcDb2dVertex
 10
412.2001638567
 20
242.3189068206
 30
0.0
  0
VERTEX
  5
3C6
330
186
100
AcDbEntity
  8
0
  6
CONTINUOUS
 62
     7
100
AcDbVertex
100
AcDb2dVertex
 10
413.1485338774
 20
241.9079585653
 30
0.0
  0
VERTEX
  5
3C7
330
186
100
AcDbEntity
  8
0
  6
CONTINUOUS
 62
     7
100
AcDbVertex
100
AcDb2dVertex
 10
414.1509440921
 20
241.7212761114
 30
0.0
  0
SEQEND
  5
432
330
186
100
AcDbEntity
  8
0
  6
CONTINUOUS
 62
     7
  0
LINE
  5
187
330
1F
100
AcDbEntity
  8
0
  6
CONTINUOUS
 62
     7
100
AcDbLine
 10
459.0087586426
 20
187.2627512899
 30
0.0
 11
456.4205681915
 21
184.7627512899
 31
0.0
  0
POLYLINE
  5
188
330
1F
100
AcDbEntity
  8
0
  6
CONTINUOUS
 62
     7
100
AcDb2dPolyline
 66
     1
 10
0.0
 20
0.0
 30
0.0
 70
   128
  0
VERTEX
  5
3C8
330
188
100
AcDbEntity
  8
0
  6
CONTINUOUS
 62
     7
100
AcDbVertex
100
AcDb2dVertex
 10
460.2676838808
 20
187.3782621948
 30
0.0
  0
VERTEX
  5
3C9
330
188
100
AcDbEntity
  8
0
  6
CONTINUOUS
 62
     7
100
AcDbVertex
100
AcDb2dVertex
 10
459.9680775428
 20
187.3127045878
 30
0.0
  0
VERTEX
  5
3CA
330
188
100
AcDbEntity
  8
0
  6
CONTINUOUS
 62
     7
100
AcDbVertex
100
AcDb2dVertex
 10
459.0087586426
 20
187.2627512899
 30
0.0
  0
SEQEND
  5
433
330
188
100
AcDbEntity
  8
0
  6
CONTINUOUS
 62
     7
  0
ARC
  5
189
330
1F
100
AcDbEntity
  8
0
  6
CONTINUOUS
 62
     7
100
AcDbCircle
 10
468.9908935553
 20
180.5684276682
 30
0.0
 40
4.506919913067658
100
AcDbArc
 50
314.3560609515
 51
0.493875606
  0
ARC
  5
18A
330
1F
100
AcDbEntity
  8
0
  6
CONTINUOUS
 62
     7
100
AcDbCircle
 10
415.8538353573
 20
247.1777225777
 30
0.0
 40
4.12449431619535
100
AcDbArc
 50
265.6653175688
 51
299.5635782973
  0
ARC
  5
18B
330
1F
100
AcDbEntity
  8
0
  6
CONTINUOUS
 62
     7
100
AcDbCircle
 10
415.7992884983
 20
247.6417547089
 30
0.0
 40
4.583949432545155
100
AcDbArc
 50
150.637286455
 51
266.7836118078
  0
LINE
  5
18C
330
1F
100
AcDbEntity
  8
0
  6
CONTINUOUS
 62
     7
100
AcDbLine
 10
449.3495003797
 20
187.932624271
 30
0.0
 11
446.7613099286
 21
185.432624271
 31
0.0
  0
LINE
  5
18D
330
1F
100
AcDbEntity
  8
0
  6
CONTINUOUS
 62
     7
100
AcDbLine
 10
459.0087586426
 20
187.2627512899
 30
0.0
 11
449.3495003797
 21
187.932624271
 31
0.0
  0
ARC
  5
18E
330
1F
100
AcDbEntity
  8
0
  6
CONTINUOUS
 62
     7
100
AcDbCircle
 10
449.6568736
 20
192.2223482149
 30
0.0
 40
4.30072201049499
100
AcDbArc
 50
165.015988219
 51
265.9015682192
  0
POLYLINE
  5
18F
330
1F
100
AcDbEntity
  8
0
  6
CONTINUOUS
 62
     7
100
AcDb2dPolyline
 66
     1
 10
0.0
 20
0.0
 30
0.0
 70
   128
  0
VERTEX
  5
3CB
330
18F
100
AcDbEntity
  8
0
  6
CONTINUOUS
 62
     7
100
AcDbVertex
100
AcDb2dVertex
 10
414.1509440921
 20
203.0842430599
 30
0.0
  0
VERTEX
  5
3CC
330
18F
100
AcDbEntity
  8
0
  6
CONTINUOUS
 62
     7
100
AcDbVertex
100
AcDb2dVertex
 10
415.1533543069
 20
203.131890507
 30
0.0
  0
VERTEX
  5
3CD
330
18F
100
AcDbEntity
  8
0
  6
CONTINUOUS
 62
     7
100
AcDbVertex
100
AcDb2dVertex
 10
416.1017243275
 20
203.4112991688
 30
0.0
  0
VERTEX
  5
3CE
330
18F
100
AcDbEntity
  8
0
  6
CONTINUOUS
 62
     7
100
AcDbVertex
100
AcDb2dVertex
 10
416.9449272807
 20
203.907406052
 30
0.0
  0
VERTEX
  5
3CF
330
18F
100
AcDbEntity
  8
0
  6
CONTINUOUS
 62
     7
100
AcDbVertex
100
AcDb2dVertex
 10
417.637505877
 20
204.5934659062
 30
0.0
  0
VERTEX
  5
3D0
330
18F
100
AcDbEntity
  8
0
  6
CONTINUOUS
 62
     7
100
AcDbVertex
100
AcDb2dVertex
 10
418.142123025
 20
205.432493067
 30
0.0
  0
VERTEX
  5
3D1
330
18F
100
AcDbEntity
  8
0
  6
CONTINUOUS
 62
     7
100
AcDbVertex
100
AcDb2dVertex
 10
418.4315746837
 20
206.379255363
 30
0.0
  0
VERTEX
  5
3D2
330
18F
100
AcDbEntity
  8
0
  6
CONTINUOUS
 62
     7
100
AcDbVertex
100
AcDb2dVertex
 10
418.4902564391
 20
207.3827125939
 30
0.0
  0
VERTEX
  5
3D3
330
18F
100
AcDbEntity
  8
0
  6
CONTINUOUS
 62
     7
100
AcDbVertex
100
AcDb2dVertex
 10
418.3150047428
 20
208.3887681204
 30
0.0
  0
VERTEX
  5
3D4
330
18F
100
AcDbEntity
  8
0
  6
CONTINUOUS
 62
     7
100
AcDbVertex
100
AcDb2dVertex
 10
417.9152674589
 20
209.3431852288
 30
0.0
  0
VERTEX
  5
3D5
330
18F
100
AcDbEntity
  8
0
  6
CONTINUOUS
 62
     7
100
AcDbVertex
100
AcDb2dVertex
 10
417.312594528
 20
210.1945110457
 30
0.0
  0
VERTEX
  5
3D6
330
18F
100
AcDbEntity
  8
0
  6
CONTINUOUS
 62
     7
100
AcDbVertex
100
AcDb2dVertex
 10
416.5394762038
 20
210.8968503761
 30
0.0
  0
VERTEX
  5
3D7
330
18F
100
AcDbEntity
  8
0
  6
CONTINUOUS
 62
     7
100
AcDbVertex
100
AcDb2dVertex
 10
415.6375914951
 20
211.4123399247
 30
0.0
  0
VERTEX
  5
3D8
330
18F
100
AcDbEntity
  8
0
  6
CONTINUOUS
 62
     7
100
AcDbVertex
100
AcDb2dVertex
 10
414.6555612401
 20
211.7131895166
 30
0.0
  0
VERTEX
  5
3D9
330
18F
100
AcDbEntity
  8
0
  6
CONTINUOUS
 62
     7
100
AcDbVertex
100
AcDb2dVertex
 10
413.6463269441
 20
211.7831802724
 30
0.0
  0
VERTEX
  5
3DA
330
18F
100
AcDbEntity
  8
0
  6
CONTINUOUS
 62
     7
100
AcDbVertex
100
AcDb2dVertex
 10
412.6642966892
 20
211.6185389724
 30
0.0
  0
VERTEX
  5
3DB
330
18F
100
AcDbEntity
  8
0
  6
CONTINUOUS
 62
     7
100
AcDbVertex
100
AcDb2dVertex
 10
411.7624119805
 20
211.2281414716
 30
0.0
  0
VERTEX
  5
3DC
330
18F
100
AcDbEntity
  8
0
  6
CONTINUOUS
 62
     7
100
AcDbVertex
100
AcDb2dVertex
 10
410.9892936562
 20
210.6330342004
 30
0.0
  0
VERTEX
  5
3DD
330
18F
100
AcDbEntity
  8
0
  6
CONTINUOUS
 62
     7
100
AcDbVertex
100
AcDb2dVertex
 10
410.3866207253
 20
209.8652995458
 30
0.0
  0
VERTEX
  5
3DE
330
18F
100
AcDbEntity
  8
0
  6
CONTINUOUS
 62
     7
100
AcDbVertex
100
AcDb2dVertex
 10
409.9868834415
 20
208.9663262818
 30
0.0
  0
VERTEX
  5
3DF
330
18F
100
AcDbEntity
  8
0
  6
CONTINUOUS
 62
     7
100
AcDbVertex
100
AcDb2dVertex
 10
409.8116317451
 20
207.9845782897
 30
0.0
  0
VERTEX
  5
3E0
330
18F
100
AcDbEntity
  8
0
  6
CONTINUOUS
 62
     7
100
AcDbVertex
100
AcDb2dVertex
 10
409.8703135006
 20
206.9729818578
 30
0.0
  0
VERTEX
  5
3E1
330
18F
100
AcDbEntity
  8
0
  6
CONTINUOUS
 62
     7
100
AcDbVertex
100
AcDb2dVertex
 10
410.1597651592
 20
205.9860724117
 30
0.0
  0
VERTEX
  5
3E2
330
18F
100
AcDbEntity
  8
0
  6
CONTINUOUS
 62
     7
100
AcDbVertex
100
AcDb2dVertex
 10
410.6643823073
 20
205.0770544951
 30
0.0
  0
VERTEX
  5
3E3
330
18F
100
AcDbEntity
  8
0
  6
CONTINUOUS
 62
     7
100
AcDbVertex
100
AcDb2dVertex
 10
411.3569609036
 20
204.2949334991
 30
0.0
  0
VERTEX
  5
3E4
330
18F
100
AcDbEntity
  8
0
  6
CONTINUOUS
 62
     7
100
AcDbVertex
100
AcDb2dVertex
 10
412.2001638567
 20
203.681873769
 30
0.0
  0
VERTEX
  5
3E5
330
18F
100
AcDbEntity
  8
0
  6
CONTINUOUS
 62
     7
100
AcDbVertex
100
AcDb2dVertex
 10
413.1485338774
 20
203.2709255137
 30
0.0
  0
VERTEX
  5
3E6
330
18F
100
AcDbEntity
  8
0
  6
CONTINUOUS
 62
     7
100
AcDbVertex
100
AcDb2dVertex
 10
414.1509440921
 20
203.0842430599
 30
0.0
  0
SEQEND
  5
434
330
18F
100
AcDbEntity
  8
0
  6
CONTINUOUS
 62
     7
  0
ARC
  5
190
330
1F
100
AcDbEntity
  8
0
  6
CONTINUOUS
 62
     7
100
AcDbCircle
 10
415.8538353573
 20
208.5406895262
 30
0.0
 40
4.124494316203609
100
AcDbArc
 50
265.6653175688
 51
299.5635782954
  0
ARC
  5
191
330
1F
100
AcDbEntity
  8
0
  6
CONTINUOUS
 62
     7
100
AcDbCircle
 10
415.7992884983
 20
209.0047216574
 30
0.0
 40
4.583949432551527
100
AcDbArc
 50
150.6372864566
 51
266.7836118078
  0
POLYLINE
  5
192
330
1F
100
AcDbEntity
  8
0
  6
CONTINUOUS
 62
     7
100
AcDb2dPolyline
 66
     1
 10
0.0
 20
0.0
 30
0.0
 70
   128
  0
VERTEX
  5
3E7
330
192
100
AcDbEntity
  8
0
  6
CONTINUOUS
 62
     7
100
AcDbVertex
100
AcDb2dVertex
 10
211.3065205714
 20
255.7886087141
 30
0.0
  0
VERTEX
  5
3E8
330
192
100
AcDbEntity
  8
0
  6
CONTINUOUS
 62
     7
100
AcDbVertex
100
AcDb2dVertex
 10
212.3089307862
 20
255.8362561612
 30
0.0
  0
VERTEX
  5
3E9
330
192
100
AcDbEntity
  8
0
  6
CONTINUOUS
 62
     7
100
AcDbVertex
100
AcDb2dVertex
 10
213.2573008068
 20
256.115664823
 30
0.0
  0
VERTEX
  5
3EA
330
192
100
AcDbEntity
  8
0
  6
CONTINUOUS
 62
     7
100
AcDbVertex
100
AcDb2dVertex
 10
214.10050376
 20
256.6117717062
 30
0.0
  0
VERTEX
  5
3EB
330
192
100
AcDbEntity
  8
0
  6
CONTINUOUS
 62
     7
100
AcDbVertex
100
AcDb2dVertex
 10
214.7930823563
 20
257.2978315604
 30
0.0
  0
VERTEX
  5
3EC
330
192
100
AcDbEntity
  8
0
  6
CONTINUOUS
 62
     7
100
AcDbVertex
100
AcDb2dVertex
 10
215.2976995043
 20
258.1368587212
 30
0.0
  0
VERTEX
  5
3ED
330
192
100
AcDbEntity
  8
0
  6
CONTINUOUS
 62
     7
100
AcDbVertex
100
AcDb2dVertex
 10
215.587151163
 20
259.0836210172
 30
0.0
  0
VERTEX
  5
3EE
330
192
100
AcDbEntity
  8
0
  6
CONTINUOUS
 62
     7
100
AcDbVertex
100
AcDb2dVertex
 10
215.6458329184
 20
260.087078248
 30
0.0
  0
VERTEX
  5
3EF
330
192
100
AcDbEntity
  8
0
  6
CONTINUOUS
 62
     7
100
AcDbVertex
100
AcDb2dVertex
 10
215.4705812221
 20
261.0931337746
 30
0.0
  0
VERTEX
  5
3F0
330
192
100
AcDbEntity
  8
0
  6
CONTINUOUS
 62
     7
100
AcDbVertex
100
AcDb2dVertex
 10
215.0708439382
 20
262.047550883
 30
0.0
  0
VERTEX
  5
3F1
330
192
100
AcDbEntity
  8
0
  6
CONTINUOUS
 62
     7
100
AcDbVertex
100
AcDb2dVertex
 10
214.4681710073
 20
262.8988766999
 30
0.0
  0
VERTEX
  5
3F2
330
192
100
AcDbEntity
  8
0
  6
CONTINUOUS
 62
     7
100
AcDbVertex
100
AcDb2dVertex
 10
213.6950526831
 20
263.6012160303
 30
0.0
  0
VERTEX
  5
3F3
330
192
100
AcDbEntity
  8
0
  6
CONTINUOUS
 62
     7
100
AcDbVertex
100
AcDb2dVertex
 10
212.7931679744
 20
264.1167055789
 30
0.0
  0
VERTEX
  5
3F4
330
192
100
AcDbEntity
  8
0
  6
CONTINUOUS
 62
     7
100
AcDbVertex
100
AcDb2dVertex
 10
211.8111377194
 20
264.4175551708
 30
0.0
  0
VERTEX
  5
3F5
330
192
100
AcDbEntity
  8
0
  6
CONTINUOUS
 62
     7
100
AcDbVertex
100
AcDb2dVertex
 10
210.8019034234
 20
264.4875459266
 30
0.0
  0
VERTEX
  5
3F6
330
192
100
AcDbEntity
  8
0
  6
CONTINUOUS
 62
     7
100
AcDbVertex
100
AcDb2dVertex
 10
209.8198731684
 20
264.3229046266
 30
0.0
  0
VERTEX
  5
3F7
330
192
100
AcDbEntity
  8
0
  6
CONTINUOUS
 62
     7
100
AcDbVertex
100
AcDb2dVertex
 10
208.9179884598
 20
263.9325071258
 30
0.0
  0
VERTEX
  5
3F8
330
192
100
AcDbEntity
  8
0
  6
CONTINUOUS
 62
     7
100
AcDbVertex
100
AcDb2dVertex
 10
208.1448701355
 20
263.3373998546
 30
0.0
  0
VERTEX
  5
3F9
330
192
100
AcDbEntity
  8
0
  6
CONTINUOUS
 62
     7
100
AcDbVertex
100
AcDb2dVertex
 10
207.5421972046
 20
262.5696652
 30
0.0
  0
VERTEX
  5
3FA
330
192
100
AcDbEntity
  8
0
  6
CONTINUOUS
 62
     7
100
AcDbVertex
100
AcDb2dVertex
 10
207.1424599208
 20
261.670691936
 30
0.0
  0
VERTEX
  5
3FB
330
192
100
AcDbEntity
  8
0
  6
CONTINUOUS
 62
     7
100
AcDbVertex
100
AcDb2dVertex
 10
206.9672082244
 20
260.6889439439
 30
0.0
  0
VERTEX
  5
3FC
330
192
100
AcDbEntity
  8
0
  6
CONTINUOUS
 62
     7
100
AcDbVertex
100
AcDb2dVertex
 10
207.0258899799
 20
259.677347512
 30
0.0
  0
VERTEX
  5
3FD
330
192
100
AcDbEntity
  8
0
  6
CONTINUOUS
 62
     7
100
AcDbVertex
100
AcDb2dVertex
 10
207.3153416385
 20
258.6904380659
 30
0.0
  0
VERTEX
  5
3FE
330
192
100
AcDbEntity
  8
0
  6
CONTINUOUS
 62
     7
100
AcDbVertex
100
AcDb2dVertex
 10
207.8199587866
 20
257.7814201493
 30
0.0
  0
VERTEX
  5
3FF
330
192
100
AcDbEntity
  8
0
  6
CONTINUOUS
 62
     7
100
AcDbVertex
100
AcDb2dVertex
 10
208.5125373829
 20
256.9992991533
 30
0.0
  0
VERTEX
  5
400
330
192
100
AcDbEntity
  8
0
  6
CONTINUOUS
 62
     7
100
AcDbVertex
100
AcDb2dVertex
 10
209.355740336
 20
256.3862394232
 30
0.0
  0
VERTEX
  5
401
330
192
100
AcDbEntity
  8
0
  6
CONTINUOUS
 62
     7
100
AcDbVertex
100
AcDb2dVertex
 10
210.3041103567
 20
255.9752911679
 30
0.0
  0
VERTEX
  5
402
330
192
100
AcDbEntity
  8
0
  6
CONTINUOUS
 62
     7
100
AcDbVertex
100
AcDb2dVertex
 10
211.3065205714
 20
255.7886087141
 30
0.0
  0
SEQEND
  5
435
330
192
100
AcDbEntity
  8
0
  6
CONTINUOUS
 62
     7
  0
ARC
  5
193
330
1F
100
AcDbEntity
  8
0
  6
CONTINUOUS
 62
     7
100
AcDbCircle
 10
213.0094118366
 20
261.2450551804
 30
0.0
 40
4.124494316200303
100
AcDbArc
 50
265.6653175688
 51
299.5635782964
  0
ARC
  5
194
330
1F
100
AcDbEntity
  8
0
  6
CONTINUOUS
 62
     7
100
AcDbCircle
 10
212.9548649776
 20
261.7090873116
 30
0.0
 40
4.583949432548686
100
AcDbArc
 50
150.6372864558
 51
266.7836118078
  0
LINE
  5
195
330
1F
100
AcDbEntity
  8
0
  6
CONTINUOUS
 62
     7
100
AcDbLine
 10
178.8902690187
 20
274.3038755814
 30
0.0
 11
176.3020785677
 21
271.8038755814
 31
0.0
  0
POLYLINE
  5
196
330
1F
100
AcDbEntity
  8
0
  6
CONTINUOUS
 62
     7
100
AcDb2dPolyline
 66
     1
 10
0.0
 20
0.0
 30
0.0
 70
   128
  0
VERTEX
  5
403
330
196
100
AcDbEntity
  8
0
  6
CONTINUOUS
 62
     7
100
AcDbVertex
100
AcDb2dVertex
 10
180.1491942569
 20
274.4193864863
 30
0.0
  0
VERTEX
  5
404
330
196
100
AcDbEntity
  8
0
  6
CONTINUOUS
 62
     7
100
AcDbVertex
100
AcDb2dVertex
 10
179.8495879189
 20
274.3538288793
 30
0.0
  0
VERTEX
  5
405
330
196
100
AcDbEntity
  8
0
  6
CONTINUOUS
 62
     7
100
AcDbVertex
100
AcDb2dVertex
 10
178.8902690187
 20
274.3038755814
 30
0.0
  0
SEQEND
  5
436
330
196
100
AcDbEntity
  8
0
  6
CONTINUOUS
 62
     7
  0
POLYLINE
  5
197
330
1F
100
AcDbEntity
  8
0
  6
CONTINUOUS
 62
     7
100
AcDb2dPolyline
 66
     1
 10
0.0
 20
0.0
 30
0.0
 70
   128
  0
VERTEX
  5
406
330
197
100
AcDbEntity
  8
0
  6
CONTINUOUS
 62
     7
100
AcDbVertex
100
AcDb2dVertex
 10
211.3065205714
 20
217.1515756625
 30
0.0
  0
VERTEX
  5
407
330
197
100
AcDbEntity
  8
0
  6
CONTINUOUS
 62
     7
100
AcDbVertex
100
AcDb2dVertex
 10
212.3089307862
 20
217.1992231096
 30
0.0
  0
VERTEX
  5
408
330
197
100
AcDbEntity
  8
0
  6
CONTINUOUS
 62
     7
100
AcDbVertex
100
AcDb2dVertex
 10
213.2573008068
 20
217.4786317714
 30
0.0
  0
VERTEX
  5
409
330
197
100
AcDbEntity
  8
0
  6
CONTINUOUS
 62
     7
100
AcDbVertex
100
AcDb2dVertex
 10
214.10050376
 20
217.9747386546
 30
0.0
  0
VERTEX
  5
40A
330
197
100
AcDbEntity
  8
0
  6
CONTINUOUS
 62
     7
100
AcDbVertex
100
AcDb2dVertex
 10
214.7930823563
 20
218.6607985088
 30
0.0
  0
VERTEX
  5
40B
330
197
100
AcDbEntity
  8
0
  6
CONTINUOUS
 62
     7
100
AcDbVertex
100
AcDb2dVertex
 10
215.2976995043
 20
219.4998256696
 30
0.0
  0
VERTEX
  5
40C
330
197
100
AcDbEntity
  8
0
  6
CONTINUOUS
 62
     7
100
AcDbVertex
100
AcDb2dVertex
 10
215.587151163
 20
220.4465879657
 30
0.0
  0
VERTEX
  5
40D
330
197
100
AcDbEntity
  8
0
  6
CONTINUOUS
 62
     7
100
AcDbVertex
100
AcDb2dVertex
 10
215.6458329184
 20
221.4500451965
 30
0.0
  0
VERTEX
  5
40E
330
197
100
AcDbEntity
  8
0
  6
CONTINUOUS
 62
     7
100
AcDbVertex
100
AcDb2dVertex
 10
215.4705812221
 20
222.456100723
 30
0.0
  0
VERTEX
  5
40F
330
197
100
AcDbEntity
  8
0
  6
CONTINUOUS
 62
     7
100
AcDbVertex
100
AcDb2dVertex
 10
215.0708439382
 20
223.4105178314
 30
0.0
  0
VERTEX
  5
410
330
197
100
AcDbEntity
  8
0
  6
CONTINUOUS
 62
     7
100
AcDbVertex
100
AcDb2dVertex
 10
214.4681710073
 20
224.2618436484
 30
0.0
  0
VERTEX
  5
411
330
197
100
AcDbEntity
  8
0
  6
CONTINUOUS
 62
     7
100
AcDbVertex
100
AcDb2dVertex
 10
213.6950526831
 20
224.9641829787
 30
0.0
  0
VERTEX
  5
412
330
197
100
AcDbEntity
  8
0
  6
CONTINUOUS
 62
     7
100
AcDbVertex
100
AcDb2dVertex
 10
212.7931679744
 20
225.4796725273
 30
0.0
  0
VERTEX
  5
413
330
197
100
AcDbEntity
  8
0
  6
CONTINUOUS
 62
     7
100
AcDbVertex
100
AcDb2dVertex
 10
211.8111377194
 20
225.7805221192
 30
0.0
  0
VERTEX
  5
414
330
197
100
AcDbEntity
  8
0
  6
CONTINUOUS
 62
     7
100
AcDbVertex
100
AcDb2dVertex
 10
210.8019034234
 20
225.850512875
 30
0.0
  0
VERTEX
  5
415
330
197
100
AcDbEntity
  8
0
  6
CONTINUOUS
 62
     7
100
AcDbVertex
100
AcDb2dVertex
 10
209.8198731684
 20
225.685871575
 30
0.0
  0
VERTEX
  5
416
330
197
100
AcDbEntity
  8
0
  6
CONTINUOUS
 62
     7
100
AcDbVertex
100
AcDb2dVertex
 10
208.9179884598
 20
225.2954740742
 30
0.0
  0
VERTEX
  5
417
330
197
100
AcDbEntity
  8
0
  6
CONTINUOUS
 62
     7
100
AcDbVertex
100
AcDb2dVertex
 10
208.1448701355
 20
224.7003668031
 30
0.0
  0
VERTEX
  5
418
330
197
100
AcDbEntity
  8
0
  6
CONTINUOUS
 62
     7
100
AcDbVertex
100
AcDb2dVertex
 10
207.5421972046
 20
223.9326321485
 30
0.0
  0
VERTEX
  5
419
330
197
100
AcDbEntity
  8
0
  6
CONTINUOUS
 62
     7
100
AcDbVertex
100
AcDb2dVertex
 10
207.1424599208
 20
223.0336588844
 30
0.0
  0
VERTEX
  5
41A
330
197
100
AcDbEntity
  8
0
  6
CONTINUOUS
 62
     7
100
AcDbVertex
100
AcDb2dVertex
 10
206.9672082244
 20
222.0519108923
 30
0.0
  0
VERTEX
  5
41B
330
197
100
AcDbEntity
  8
0
  6
CONTINUOUS
 62
     7
100
AcDbVertex
100
AcDb2dVertex
 10
207.0258899799
 20
221.0403144604
 30
0.0
  0
VERTEX
  5
41C
330
197
100
AcDbEntity
  8
0
  6
CONTINUOUS
 62
     7
100
AcDbVertex
100
AcDb2dVertex
 10
207.3153416385
 20
220.0534050144
 30
0.0
  0
VERTEX
  5
41D
330
197
100
AcDbEntity
  8
0
  6
CONTINUOUS
 62
     7
100
AcDbVertex
100
AcDb2dVertex
 10
207.8199587866
 20
219.1443870977
 30
0.0
  0
VERTEX
  5
41E
330
197
100
AcDbEntity
  8
0
  6
CONTINUOUS
 62
     7
100
AcDbVertex
100
AcDb2dVertex
 10
208.5125373829
 20
218.3622661017
 30
0.0
  0
VERTEX
  5
41F
330
197
100
AcDbEntity
  8
0
  6
CONTINUOUS
 62
     7
100
AcDbVertex
100
AcDb2dVertex
 10
209.355740336
 20
217.7492063717
 30
0.0
  0
VERTEX
  5
420
330
197
100
AcDbEntity
  8
0
  6
CONTINUOUS
 62
     7
100
AcDbVertex
100
AcDb2dVertex
 10
210.3041103567
 20
217.3382581163
 30
0.0
  0
VERTEX
  5
421
330
197
100
AcDbEntity
  8
0
  6
CONTINUOUS
 62
     7
100
AcDbVertex
100
AcDb2dVertex
 10
211.3065205714
 20
217.1515756625
 30
0.0
  0
SEQEND
  5
437
330
197
100
AcDbEntity
  8
0
  6
CONTINUOUS
 62
     7
  0
LINE
  5
198
330
1F
100
AcDbEntity
  8
0
  6
CONTINUOUS
 62
     7
100
AcDbLine
 10
169.2310107558
 20
274.9737485624
 30
0.0
 11
166.6428203048
 21
272.4737485624
 31
0.0
  0
LINE
  5
199
330
1F
100
AcDbEntity
  8
0
  6
CONTINUOUS
 62
     7
100
AcDbLine
 10
178.8902690187
 20
274.3038755814
 30
0.0
 11
169.2310107558
 21
274.9737485624
 31
0.0
  0
ARC
  5
19A
330
1F
100
AcDbEntity
  8
0
  6
CONTINUOUS
 62
     7
100
AcDbCircle
 10
159.2134459871
 20
289.6417252469
 30
0.0
 40
4.513620140456086
100
AcDbArc
 50
85.4468756531
 51
133.6481500146
  0
ARC
  5
19B
330
1F
100
AcDbEntity
  8
0
  6
CONTINUOUS
 62
     7
100
AcDbCircle
 10
169.5383839762
 20
279.2634725064
 30
0.0
 40
4.30072201049476
100
AcDbArc
 50
165.015988219
 51
265.9015682193
  0
ARC
  5
19C
330
1F
100
AcDbEntity
  8
0
  6
CONTINUOUS
 62
     7
100
AcDbCircle
 10
213.0094118366
 20
222.6080221288
 30
0.0
 40
4.124494316198589
100
AcDbArc
 50
265.6653175688
 51
299.5635782964
  0
ARC
  5
19D
330
1F
100
AcDbEntity
  8
0
  6
CONTINUOUS
 62
     7
100
AcDbCircle
 10
212.9548649776
 20
223.07205426
 30
0.0
 40
4.583949432548718
100
AcDbArc
 50
150.6372864559
 51
266.7836118078
  0
LINE
  5
19E
330
1F
100
AcDbEntity
  8
0
  6
CONTINUOUS
 62
     7
100
AcDbLine
 10
178.8902690187
 20
206.6890677411
 30
0.0
 11
176.3020785677
 21
204.1890677411
 31
0.0
  0
POLYLINE
  5
19F
330
1F
100
AcDbEntity
  8
0
  6
CONTINUOUS
 62
     7
100
AcDb2dPolyline
 66
     1
 10
0.0
 20
0.0
 30
0.0
 70
   128
  0
VERTEX
  5
422
330
19F
100
AcDbEntity
  8
0
  6
CONTINUOUS
 62
     7
100
AcDbVertex
100
AcDb2dVertex
 10
180.1491942569
 20
206.804578646
 30
0.0
  0
VERTEX
  5
423
330
19F
100
AcDbEntity
  8
0
  6
CONTINUOUS
 62
     7
100
AcDbVertex
100
AcDb2dVertex
 10
179.8495879189
 20
206.7390210391
 30
0.0
  0
VERTEX
  5
424
330
19F
100
AcDbEntity
  8
0
  6
CONTINUOUS
 62
     7
100
AcDbVertex
100
AcDb2dVertex
 10
178.8902690187
 20
206.6890677411
 30
0.0
  0
SEQEND
  5
438
330
19F
100
AcDbEntity
  8
0
  6
CONTINUOUS
 62
     7
  0
LINE
  5
1A0
330
1F
100
AcDbEntity
  8
0
  6
CONTINUOUS
 62
     7
100
AcDbLine
 10
169.2310107558
 20
207.3589407222
 30
0.0
 11
166.6428203048
 21
204.8589407222
 31
0.0
  0
LINE
  5
1A1
330
1F
100
AcDbEntity
  8
0
  6
CONTINUOUS
 62
     7
100
AcDbLine
 10
178.8902690187
 20
206.6890677411
 30
0.0
 11
169.2310107558
 21
207.3589407222
 31
0.0
  0
ARC
  5
1A2
330
1F
100
AcDbEntity
  8
0
  6
CONTINUOUS
 62
     7
100
AcDbCircle
 10
169.5383839762
 20
211.6486646661
 30
0.0
 40
4.300722010494755
100
AcDbArc
 50
165.015988219
 51
265.9015682193
  0
LINE
  5
1A3
330
1F
100
AcDbEntity
  8
0
  6
CONTINUOUS
 62
     7
100
AcDbLine
 10
458.6207968127
 20
589.680940239
 30
0.0
 11
468.6207968127
 21
589.680940239
 31
0.0
  0
ARC
  5
1A4
330
1F
100
AcDbEntity
  8
0
  6
CONTINUOUS
 62
     7
100
AcDbCircle
 10
468.6207968127
 20
593.830940239
 30
0.0
 40
4.150000000000091
100
AcDbArc
 50
270.0
 51
90.0
  0
LINE
  5
1A5
330
1F
100
AcDbEntity
  8
0
  6
CONTINUOUS
 62
     7
100
AcDbLine
 10
468.6207968127
 20
597.980940239
 30
0.0
 11
458.6207968127
 21
597.980940239
 31
0.0
  0
ARC
  5
1A6
330
1F
100
AcDbEntity
  8
0
  6
CONTINUOUS
 62
     7
100
AcDbCircle
 10
458.6207968127
 20
593.830940239
 30
0.0
 40
4.150000000000091
100
AcDbArc
 50
90.0
 51
270.0
  0
LINE
  5
1A7
330
1F
100
AcDbEntity
  8
0
  6
CONTINUOUS
 62
     7
100
AcDbLine
 10
178.6207968127
 20
527.980940239
 30
0.0
 11
168.6207968127
 21
527.980940239
 31
0.0
  0
ARC
  5
1A8
330
1F
100
AcDbEntity
  8
0
  6
CONTINUOUS
 62
     7
100
AcDbCircle
 10
168.6207968127
 20
523.830940239
 30
0.0
 40
4.149999999999977
100
AcDbArc
 50
90.0
 51
270.0
  0
LINE
  5
1A9
330
1F
100
AcDbEntity
  8
0
  6
CONTINUOUS
 62
     7
100
AcDbLine
 10
168.6207968127
 20
519.680940239
 30
0.0
 11
178.6207968127
 21
519.680940239
 31
0.0
  0
ARC
  5
1AA
330
1F
100
AcDbEntity
  8
0
  6
CONTINUOUS
 62
     7
100
AcDbCircle
 10
178.6207968127
 20
523.830940239
 30
0.0
 40
4.149999999999977
100
AcDbArc
 50
270.0
 51
90.0
  0
ARC
  5
1AB
330
1F
100
AcDbEntity
  8
0
  6
CONTINUOUS
 62
     7
100
AcDbCircle
 10
478.6207968127
 20
603.830940239
 30
0.0
 40
4.999999999999943
100
AcDbArc
 50
0.0
 51
90.0
  0
LINE
  5
1AC
330
1F
100
AcDbEntity
  8
0
  6
CONTINUOUS
 62
     7
100
AcDbLine
 10
483.6207968127
 20
513.830940239
 30
0.0
 11
483.6207968127
 21
603.830940239
 31
0.0
  0
ARC
  5
1AD
330
1F
100
AcDbEntity
  8
0
  6
CONTINUOUS
 62
     7
100
AcDbCircle
 10
478.6207968127
 20
513.830940239
 30
0.0
 40
5.000000000000057
100
AcDbArc
 50
270.0
 51
0.0
  0
LINE
  5
1AE
330
1F
100
AcDbEntity
  8
0
  6
CONTINUOUS
 62
     7
100
AcDbLine
 10
158.6207968127
 20
508.830940239
 30
0.0
 11
478.6207968127
 21
508.830940239
 31
0.0
  0
ARC
  5
1AF
330
1F
100
AcDbEntity
  8
0
  6
CONTINUOUS
 62
     7
100
AcDbCircle
 10
158.6207968127
 20
513.830940239
 30
0.0
 40
5.000000000000028
100
AcDbArc
 50
180.0
 51
270.0
  0
LINE
  5
1B0
330
1F
100
AcDbEntity
  8
0
  6
CONTINUOUS
 62
     7
100
AcDbLine
 10
153.6207968127
 20
603.830940239
 30
0.0
 11
153.6207968127
 21
513.830940239
 31
0.0
  0
ARC
  5
1B1
330
1F
100
AcDbEntity
  8
0
  6
CONTINUOUS
 62
     7
100
AcDbCircle
 10
158.6207968127
 20
603.830940239
 30
0.0
 40
5.0
100
AcDbArc
 50
90.0
 51
180.0
  0
LINE
  5
1B2
330
1F
100
AcDbEntity
  8
0
  6
CONTINUOUS
 62
     7
100
AcDbLine
 10
478.6207968127
 20
608.830940239
 30
0.0
 11
158.6207968127
 21
608.830940239
 31
0.0
  0
LINE
  5
1B3
330
1F
100
AcDbEntity
  8
0
  6
CONTINUOUS
 62
     7
100
AcDbLine
 10
178.6207968127
 20
597.980940239
 30
0.0
 11
168.6207968127
 21
597.980940239
 31
0.0
  0
ARC
  5
1B4
330
1F
100
AcDbEntity
  8
0
  6
CONTINUOUS
 62
     7
100
AcDbCircle
 10
168.6207968127
 20
593.830940239
 30
0.0
 40
4.150000000000091
100
AcDbArc
 50
90.0
 51
270.0
  0
LINE
  5
1B5
330
1F
100
AcDbEntity
  8
0
  6
CONTINUOUS
 62
     7
100
AcDbLine
 10
168.6207968127
 20
589.680940239
 30
0.0
 11
178.6207968127
 21
589.680940239
 31
0.0
  0
ARC
  5
1B6
330
1F
100
AcDbEntity
  8
0
  6
CONTINUOUS
 62
     7
100
AcDbCircle
 10
178.6207968127
 20
593.830940239
 30
0.0
 40
4.150000000000091
100
AcDbArc
 50
270.0
 51
90.0
  0
LINE
  5
1B7
330
1F
100
AcDbEntity
  8
0
  6
CONTINUOUS
 62
     7
100
AcDbLine
 10
458.6207968127
 20
519.680940239
 30
0.0
 11
468.6207968127
 21
519.680940239
 31
0.0
  0
ARC
  5
1B8
330
1F
100
AcDbEntity
  8
0
  6
CONTINUOUS
 62
     7
100
AcDbCircle
 10
468.6207968127
 20
523.830940239
 30
0.0
 40
4.150000000000091
100
AcDbArc
 50
270.0
 51
90.0
  0
LINE
  5
1B9
330
1F
100
AcDbEntity
  8
0
  6
CONTINUOUS
 62
     7
100
AcDbLine
 10
468.6207968127
 20
527.980940239
 30
0.0
 11
458.6207968127
 21
527.980940239
 31
0.0
  0
ARC
  5
1BA
330
1F
100
AcDbEntity
  8
0
  6
CONTINUOUS
 62
     7
100
AcDbCircle
 10
458.6207968127
 20
523.830940239
 30
0.0
 40
4.150000000000091
100
AcDbArc
 50
90.0
 51
270.0
  0
CIRCLE
  5
1BB
330
1F
100
AcDbEntity
  8
0
  6
CONTINUOUS
 62
     7
100
AcDbCircle
 10
423.6207968127
 20
578.830940239
 30
0.0
 40
4.5
  0
CIRCLE
  5
1BC
330
1F
100
AcDbEntity
  8
0
  6
CONTINUOUS
 62
     7
100
AcDbCircle
 10
423.6207968127
 20
538.830940239
 30
0.0
 40
4.5
  0
CIRCLE
  5
1BD
330
1F
100
AcDbEntity
  8
0
  6
CONTINUOUS
 62
     7
100
AcDbCircle
 10
213.6207968127
 20
578.830940239
 30
0.0
 40
4.5
  0
CIRCLE
  5
1BE
330
1F
100
AcDbEntity
  8
0
  6
CONTINUOUS
 62
     7
100
AcDbCircle
 10
213.6207968127
 20
538.830940239
 30
0.0
 40
4.5
  0
CIRCLE
  5
1BF
330
1F
100
AcDbEntity
  8
0
  6
HIDDEN
 62
     7
100
AcDbCircle
 10
213.6207968127
 20
538.830940239
 30
0.0
 40
9.124999999999886
  0
CIRCLE
  5
1C0
330
1F
100
AcDbEntity
  8
0
  6
HIDDEN
 62
     7
100
AcDbCircle
 10
213.6207968127
 20
578.830940239
 30
0.0
 40
9.125
  0
CIRCLE
  5
1C1
330
1F
100
AcDbEntity
  8
0
  6
HIDDEN
 62
     7
100
AcDbCircle
 10
423.6207968127
 20
538.830940239
 30
0.0
 40
9.124999999999886
  0
CIRCLE
  5
1C2
330
1F
100
AcDbEntity
  8
0
  6
HIDDEN
 62
     7
100
AcDbCircle
 10
423.6207968127
 20
578.830940239
 30
0.0
 40
9.125
  0
DIMENSION
  5
1C3
330
1F
100
AcDbEntity
  8
0
  6
CONTINUOUS
 62
     7
100
AcDbDimension
  2
_D
 10
483.6207968127
 20
463.9167780435
 30
0.0
 11
473.6207968127
 21
463.9167780435
 31
0.0
 70
   160
  1
<>
  3
SLDDIMSTYLE0
100
AcDbAlignedDimension
 13
463.6207968127
 23
519.680940239
 33
0.0
 14
483.6207968127
 24
513.830940239
 34
0.0
100
AcDbRotatedDimension
  0
DIMENSION
  5
1D0
330
1F
100
AcDbEntity
  8
0
  6
CONTINUOUS
 62
     7
100
AcDbDimension
  2
_D_1
 10
173.6207968127
 20
463.9167780435
 30
0.0
 11
318.6207968127
 21
463.9167780435
 31
0.0
 70
   160
  1
<>
  3
SLDDIMSTYLE1
100
AcDbAlignedDimension
 13
463.6207968127
 23
519.680940239
 33
0.0
 14
173.6207968127
 24
519.680940239
 34
0.0
100
AcDbRotatedDimension
  0
DIMENSION
  5
1DB
330
1F
100
AcDbEntity
  8
0
  6
CONTINUOUS
 62
     7
100
AcDbDimension
  2
_D_2
 10
153.6207968127
 20
463.9167780435
 30
0.0
 11
163.6207968127
 21
463.9167780435
 31
0.0
 70
   160
  1
<>
  3
SLDDIMSTYLE0
100
AcDbAlignedDimension
 13
173.6207968127
 23
519.680940239
 33
0.0
 14
153.6207968127
 24
513.830940239
 34
0.0
100
AcDbRotatedDimension
  0
DIMENSION
  5
1E7
330
1F
100
AcDbEntity
  8
0
  6
CONTINUOUS
 62
     7
100
AcDbDimension
  2
_D_3
 10
507.6207968127
 20
578.830940239
 30
0.0
 11
507.6207968127
 21
558.830940239
 31
0.0
 70
   160
  1
<>
  3
SLDDIMSTYLE1
100
AcDbAlignedDimension
 13
423.6207968127
 23
538.830940239
 33
0.0
 14
423.6207968127
 24
578.830940239
 34
0.0
 50
90.0
100
AcDbRotatedDimension
  0
DIMENSION
  5
1F1
330
1F
100
AcDbEntity
  8
0
  6
CONTINUOUS
 62
     7
100
AcDbDimension
  2
_D_4
 10
507.6207968127
 20
608.830940239
 30
0.0
 11
507.6207968127
 21
593.830940239
 31
0.0
 70
   160
  1
<>
  3
SLDDIMSTYLE0
100
AcDbAlignedDimension
 13
423.6207968127
 23
578.830940239
 33
0.0
 14
478.6207968127
 24
608.830940239
 34
0.0
 50
90.0
100
AcDbRotatedDimension
  0
DIMENSION
  5
1FD
330
1F
100
AcDbEntity
  8
0
  6
CONTINUOUS
 62
     7
100
AcDbDimension
  2
_D_5
 10
507.6207968127
 20
508.830940239
 30
0.0
 11
507.6207968127
 21
523.830940239
 31
0.0
 70
   160
  1
<>
  3
SLDDIMSTYLE0
100
AcDbAlignedDimension
 13
423.6207968127
 23
538.830940239
 33
0.0
 14
478.6207968127
 24
508.830940239
 34
0.0
 50
90.0
100
AcDbRotatedDimension
  0
DIMENSION
  5
209
330
1F
100
AcDbEntity
  8
0
  6
CONTINUOUS
 62
     7
100
AcDbDimension
  2
_D_6
 10
531.6207968127
 20
523.830940239
 30
0.0
 11
531.6207968127
 21
558.830940239
 31
0.0
 70
   160
  1
<>
  3
SLDDIMSTYLE1
100
AcDbAlignedDimension
 13
468.6207968127
 23
593.830940239
 33
0.0
 14
468.6207968127
 24
523.830940239
 34
0.0
 50
90.0
100
AcDbRotatedDimension
  0
DIMENSION
  5
213
330
1F
100
AcDbEntity
  8
0
  6
CONTINUOUS
 62
     7
100
AcDbDimension
  2
_D_7
 10
531.6207968127
 20
608.830940239
 30
0.0
 11
531.6207968127
 21
632.830940239
 31
0.0
 70
   160
  1
<>
  3
SLDDIMSTYLE0
100
AcDbAlignedDimension
 13
468.6207968127
 23
593.830940239
 33
0.0
 14
478.6207968127
 24
608.830940239
 34
0.0
 50
90.0
100
AcDbRotatedDimension
  0
DIMENSION
  5
21F
330
1F
100
AcDbEntity
  8
0
  6
CONTINUOUS
 62
     7
100
AcDbDimension
  2
_D_8
 10
531.6207968127
 20
523.830940239
 30
0.0
 11
531.6207968127
 21
484.830940239
 31
0.0
 70
   160
  1
<>
  3
SLDDIMSTYLE0
100
AcDbAlignedDimension
 13
478.6207968127
 23
508.830940239
 33
0.0
 14
468.6207968127
 24
523.830940239
 34
0.0
 50
90.0
100
AcDbRotatedDimension
  0
DIMENSION
  5
22B
330
1F
100
AcDbEntity
  8
0
  6
CONTINUOUS
 62
     7
100
AcDbDimension
  2
_D_9
 10
555.6207968127
 20
508.830940239
 30
0.0
 11
555.6207968127
 21
558.830940239
 31
0.0
 70
   160
  1
<>
  3
SLDDIMSTYLE1
100
AcDbAlignedDimension
 13
478.6207968127
 23
608.830940239
 33
0.0
 14
478.6207968127
 24
508.830940239
 34
0.0
 50
90.0
100
AcDbRotatedDimension
  0
DIMENSION
  5
235
330
1F
100
AcDbEntity
  8
0
  6
CONTINUOUS
 62
     7
100
AcDbDimension
  2
_D_10
 10
213.6207968127
 20
484.830940239
 30
0.0
 11
318.6207968127
 21
484.830940239
 31
0.0
 70
   160
  1
<>
  3
SLDDIMSTYLE1
100
AcDbAlignedDimension
 13
423.6207968127
 23
538.830940239
 33
0.0
 14
213.6207968127
 24
538.830940239
 34
0.0
 50
0.0
100
AcDbRotatedDimension
  0
DIMENSION
  5
23F
330
1F
100
AcDbEntity
  8
0
  6
CONTINUOUS
 62
     7
100
AcDbDimension
  2
_D_11
 10
153.6207968127
 20
484.830940239
 30
0.0
 11
183.6207968127
 21
484.830940239
 31
0.0
 70
   160
  1
<>
  3
SLDDIMSTYLE1
100
AcDbAlignedDimension
 13
213.6207968127
 23
538.830940239
 33
0.0
 14
153.6207968127
 24
513.830940239
 34
0.0
100
AcDbRotatedDimension
  0
DIMENSION
  5
249
330
1F
100
AcDbEntity
  8
0
  6
CONTINUOUS
 62
     7
100
AcDbDimension
  2
_D_12
 10
483.6207968127
 20
484.830940239
 30
0.0
 11
453.6207968127
 21
484.830940239
 31
0.0
 70
   160
  1
<>
  3
SLDDIMSTYLE1
100
AcDbAlignedDimension
 13
423.6207968127
 23
538.830940239
 33
0.0
 14
483.6207968127
 24
513.830940239
 34
0.0
100
AcDbRotatedDimension
  0
DIMENSION
  5
253
330
1F
100
AcDbEntity
  8
0
  6
CONTINUOUS
 62
     7
100
AcDbDimension
  2
_D_13
 10
483.6207968127
 20
448.830940239
 30
0.0
 11
318.6207968127
 21
448.830940239
 31
0.0
 70
   160
  1
<>
  3
SLDDIMSTYLE1
100
AcDbAlignedDimension
 13
153.6207968127
 23
513.830940239
 33
0.0
 14
483.6207968127
 24
513.830940239
 34
0.0
100
AcDbRotatedDimension
  0
DIMENSION
  5
25D
330
1F
100
AcDbEntity
  8
0
  6
CONTINUOUS
 62
     7
100
AcDbDimension
  2
_D_14
 10
158.6207968127
 20
603.830940239
 30
0.0
 11
141.3850219635
 21
621.6179361297
 31
0.0
 70
   164
  1
<>
  3
SLDDIMSTYLE2
100
AcDbRadialDimension
 15
155.1413332165
 25
607.4216690066
 35
0.0
 40
0.0
  0
MTEXT
  5
266
330
1F
100
AcDbEntity
  8
0
  6
CONTINUOUS
 62
     7
100
AcDbMText
 10
327.2121442042
 20
567.0238974169
 30
0.0
 40
9.0
 41
0.0
 71
     1
 72
     1
  1
A
  7
SLDTEXTSTYLE0
  0
MTEXT
  5
267
330
1F
100
AcDbEntity
  8
0
  6
CONTINUOUS
 62
     7
100
AcDbMText
 10
182.2121442042
 20
602.0238974169
 30
0.0
 40
9.0
 41
0.0
 71
     1
 72
     1
  1
A
  7
SLDTEXTSTYLE0
  0
MTEXT
  5
268
330
1F
100
AcDbEntity
  8
0
  6
CONTINUOUS
 62
     7
100
AcDbMText
 10
222.4596315776
 20
547.2713847903
 30
0.0
 40
9.0
 41
0.0
 71
     1
 72
     1
  1
B
  7
SLDTEXTSTYLE0
  0
MTEXT
  5
269
330
1F
100
AcDbEntity
  8
0
  6
CONTINUOUS
 62
     7
100
AcDbMText
 10
222.4596315776
 20
587.2713847903
 30
0.0
 40
9.0
 41
0.0
 71
     1
 72
     1
  1
B
  7
SLDTEXTSTYLE0
  0
MTEXT
  5
26A
330
1F
100
AcDbEntity
  8
0
  6
CONTINUOUS
 62
     7
100
AcDbMText
 10
432.4596315776
 20
547.2713847903
 30
0.0
 40
9.0
 41
0.0
 71
     1
 72
     1
  1
B
  7
SLDTEXTSTYLE0
  0
MTEXT
  5
26B
330
1F
100
AcDbEntity
  8
0
  6
CONTINUOUS
 62
     7
100
AcDbMText
 10
432.4596315776
 20
587.2713847903
 30
0.0
 40
9.0
 41
0.0
 71
     1
 72
     1
  1
B
  7
SLDTEXTSTYLE0
  0
MTEXT
  5
26C
330
1F
100
AcDbEntity
  8
0
  6
CONTINUOUS
 62
     7
100
AcDbMText
 10
472.2121442042
 20
532.0238974169
 30
0.0
 40
9.0
 41
0.0
 71
     1
 72
     1
  1
A
  7
SLDTEXTSTYLE0
  0
MTEXT
  5
26D
330
1F
100
AcDbEntity
  8
0
  6
CONTINUOUS
 62
     7
100
AcDbMText
 10
472.2121442042
 20
602.0238974169
 30
0.0
 40
9.0
 41
0.0
 71
     1
 72
     1
  1
A
  7
SLDTEXTSTYLE0
  0
LINE
  5
26E
330
1F
100
AcDbEntity
  8
0
  6
CONTINUOUS
 62
     7
100
AcDbLine
 10
158.6207968127
 20
747.0432589641
 30
0.0
 11
158.6207968127
 21
737.0432589641
 31
0.0
  0
LINE
  5
26F
330
1F
100
AcDbEntity
  8
0
  6
CONTINUOUS
 62
     7
100
AcDbLine
 10
153.6207968127
 20
737.0432589641
 30
0.0
 11
153.6207968127
 21
747.0432589641
 31
0.0
  0
LINE
  5
270
330
1F
100
AcDbEntity
  8
0
  6
CONTINUOUS
 62
     7
100
AcDbLine
 10
158.6207968127
 20
737.0432589641
 30
0.0
 11
153.6207968127
 21
737.0432589641
 31
0.0
  0
LINE
  5
271
330
1F
100
AcDbEntity
  8
0
  6
CONTINUOUS
 62
     7
100
AcDbLine
 10
153.6207968127
 20
747.0432589641
 30
0.0
 11
158.6207968127
 21
747.0432589641
 31
0.0
  0
LINE
  5
272
330
1F
100
AcDbEntity
  8
0
  6
CONTINUOUS
 62
     7
100
AcDbLine
 10
478.6207968127
 20
737.0432589641
 30
0.0
 11
478.6207968127
 21
747.0432589641
 31
0.0
  0
LINE
  5
273
330
1F
100
AcDbEntity
  8
0
  6
CONTINUOUS
 62
     7
100
AcDbLine
 10
158.6207968127
 20
737.0432589641
 30
0.0
 11
478.6207968127
 21
737.0432589641
 31
0.0
  0
LINE
  5
274
330
1F
100
AcDbEntity
  8
0
  6
CONTINUOUS
 62
     7
100
AcDbLine
 10
158.6207968127
 20
747.0432589641
 30
0.0
 11
478.6207968127
 21
747.0432589641
 31
0.0
  0
LINE
  5
275
330
1F
100
AcDbEntity
  8
0
  6
CONTINUOUS
 62
     7
100
AcDbLine
 10
483.6207968127
 20
747.0432589641
 30
0.0
 11
483.6207968127
 21
737.0432589641
 31
0.0
  0
LINE
  5
276
330
1F
100
AcDbEntity
  8
0
  6
CONTINUOUS
 62
     7
100
AcDbLine
 10
483.6207968127
 20
737.0432589641
 30
0.0
 11
478.6207968127
 21
737.0432589641
 31
0.0
  0
LINE
  5
277
330
1F
100
AcDbEntity
  8
0
  6
CONTINUOUS
 62
     7
100
AcDbLine
 10
478.6207968127
 20
747.0432589641
 30
0.0
 11
483.6207968127
 21
747.0432589641
 31
0.0
  0
LINE
  5
278
330
1F
100
AcDbEntity
  8
0
  6
HIDDEN
 62
     7
100
AcDbLine
 10
458.6207968127
 20
747.0432589641
 30
0.0
 11
458.6207968127
 21
737.0432589641
 31
0.0
  0
LINE
  5
279
330
1F
100
AcDbEntity
  8
0
  6
HIDDEN
 62
     7
100
AcDbLine
 10
468.6207968127
 20
747.0432589641
 30
0.0
 11
468.6207968127
 21
737.0432589641
 31
0.0
  0
LINE
  5
27A
330
1F
100
AcDbEntity
  8
0
  6
HIDDEN
 62
     7
100
AcDbLine
 10
178.6207968127
 20
747.0432589641
 30
0.0
 11
178.6207968127
 21
737.0432589641
 31
0.0
  0
LINE
  5
27B
330
1F
100
AcDbEntity
  8
0
  6
HIDDEN
 62
     7
100
AcDbLine
 10
168.6207968127
 20
747.0432589641
 30
0.0
 11
168.6207968127
 21
737.0432589641
 31
0.0
  0
LINE
  5
27C
330
1F
100
AcDbEntity
  8
0
  6
HIDDEN
 62
     7
100
AcDbLine
 10
218.1207968127
 20
741.6682589641
 30
0.0
 11
209.1207968127
 21
741.6682589641
 31
0.0
  0
LINE
  5
27D
330
1F
100
AcDbEntity
  8
0
  6
HIDDEN
 62
     7
100
AcDbLine
 10
428.1207968127
 20
741.6682589641
 30
0.0
 11
419.1207968127
 21
741.6682589641
 31
0.0
  0
LINE
  5
27E
330
1F
100
AcDbEntity
  8
0
  6
HIDDEN
 62
     7
100
AcDbLine
 10
158.6207968127
 20
737.0432589641
 30
0.0
 11
158.6207968127
 21
747.0432589641
 31
0.0
  0
LINE
  5
27F
330
1F
100
AcDbEntity
  8
0
  6
HIDDEN
 62
     7
100
AcDbLine
 10
478.6207968127
 20
747.0432589641
 30
0.0
 11
478.6207968127
 21
737.0432589641
 31
0.0
  0
LINE
  5
280
330
1F
100
AcDbEntity
  8
0
  6
HIDDEN
 62
     7
100
AcDbLine
 10
454.4707968127
 20
747.0432589641
 30
0.0
 11
454.4707968127
 21
737.0432589641
 31
0.0
  0
LINE
  5
281
330
1F
100
AcDbEntity
  8
0
  6
HIDDEN
 62
     7
100
AcDbLine
 10
472.7707968127
 20
737.0432589641
 30
0.0
 11
472.7707968127
 21
747.0432589641
 31
0.0
  0
LINE
  5
282
330
1F
100
AcDbEntity
  8
0
  6
HIDDEN
 62
     7
100
AcDbLine
 10
182.7707968127
 20
737.0432589641
 30
0.0
 11
182.7707968127
 21
747.0432589641
 31
0.0
  0
LINE
  5
283
330
1F
100
AcDbEntity
  8
0
  6
HIDDEN
 62
     7
100
AcDbLine
 10
164.4707968127
 20
747.0432589641
 30
0.0
 11
164.4707968127
 21
737.0432589641
 31
0.0
  0
LINE
  5
284
330
1F
100
AcDbEntity
  8
0
  6
HIDDEN
 62
     7
100
AcDbLine
 10
222.7457968127
 20
737.0432589641
 30
0.0
 11
218.1207968127
 21
741.6682589641
 31
0.0
  0
LINE
  5
285
330
1F
100
AcDbEntity
  8
0
  6
HIDDEN
 62
     7
100
AcDbLine
 10
209.1207968127
 20
741.6682589641
 30
0.0
 11
204.4957968127
 21
737.0432589641
 31
0.0
  0
LINE
  5
286
330
1F
100
AcDbEntity
  8
0
  6
HIDDEN
 62
     7
100
AcDbLine
 10
432.7457968127
 20
737.0432589641
 30
0.0
 11
428.1207968127
 21
741.6682589641
 31
0.0
  0
LINE
  5
287
330
1F
100
AcDbEntity
  8
0
  6
HIDDEN
 62
     7
100
AcDbLine
 10
419.1207968127
 20
741.6682589641
 30
0.0
 11
414.4957968127
 21
737.0432589641
 31
0.0
  0
LINE
  5
288
330
1F
100
AcDbEntity
  8
0
  6
HIDDEN
 62
     7
100
AcDbLine
 10
218.1207968127
 20
741.6682589641
 30
0.0
 11
218.1207968127
 21
747.0432589641
 31
0.0
  0
LINE
  5
289
330
1F
100
AcDbEntity
  8
0
  6
HIDDEN
 62
     7
100
AcDbLine
 10
209.1207968127
 20
747.0432589641
 30
0.0
 11
209.1207968127
 21
741.6682589641
 31
0.0
  0
LINE
  5
28A
330
1F
100
AcDbEntity
  8
0
  6
HIDDEN
 62
     7
100
AcDbLine
 10
428.1207968127
 20
741.6682589641
 30
0.0
 11
428.1207968127
 21
747.0432589641
 31
0.0
  0
LINE
  5
28B
330
1F
100
AcDbEntity
  8
0
  6
HIDDEN
 62
     7
100
AcDbLine
 10
419.1207968127
 20
747.0432589641
 30
0.0
 11
419.1207968127
 21
741.6682589641
 31
0.0
  0
DIMENSION
  5
28C
330
1F
100
AcDbEntity
  8
0
  6
CONTINUOUS
 62
     7
100
AcDbDimension
  2
_D_15
 10
507.6207968127
 20
747.0432589641
 30
0.0
 11
507.6207968127
 21
710.4255674774
 31
0.0
 70
   160
  1
<>
  3
SLDDIMSTYLE0
100
AcDbAlignedDimension
 13
483.6207968127
 23
737.0432589641
 33
0.0
 14
483.6207968127
 24
747.0432589641
 34
0.0
 50
90.0
100
AcDbRotatedDimension
  0
ENDSEC
  0
SECTION
  2
OBJECTS
  0
DICTIONARY
  5
C
330
0
100
AcDbDictionary
  3
ACAD_GROUP
350
D
  3
ACAD_MLINESTYLE
350
17
  3
ACAD_SCALELIST
350
47
  3
DWGPROPS
350
298
1001
ACAD
1000
TREAT_AS_HARD
1070
     0
  0
DICTIONARY
  5
D
102
{ACAD_REACTORS
330
C
102
}
330
C
100
AcDbDictionary
1001
ACAD
1000
TREAT_AS_HARD
1070
     0
  0
DICTIONARY
  5
17
102
{ACAD_REACTORS
330
C
102
}
330
C
100
AcDbDictionary
  3
STANDARD
350
18
1001
ACAD
1000
TREAT_AS_HARD
1070
     0
  0
DICTIONARY
  5
47
102
{ACAD_REACTORS
330
C
102
}
330
C
100
AcDbDictionary
1001
ACAD
1000
TREAT_AS_HARD
1070
     0
  0
XRECORD
  5
298
102
{ACAD_REACTORS
330
C
102
}
330
C
100
AcDbXrecord
  1
DWGPROPS COOKIE
  2

  3

  4

  6

  7

  8
antonio messinetti
  9

300
=
301
=
302
=
303
=
304
=
305
=
306
=
307
=
308
=
309
=
 40
0.0
 41
2459606.507699838
 42
2459606.507707697
  1

 90
        0
  0
MLINESTYLE
  5
18
102
{ACAD_REACTORS
330
17
102
}
330
17
100
AcDbMlineStyle
  2
Standard
 70
     0
  3

 62
   256
 51
90.0
 52
90.0
 71
     2
 49
0.5
 62
   256
  6
BYLAYER
 49
-0.5
 62
   256
  6
BYLAYER
  0
ENDSEC
  0
EOF
