  0
SECTION
  2
HEADER
  9
$ACADVER
  1
AC1015
  9
$ACADMAINTVER
 70
     6
  9
$DWGCODEPAGE
  3
ANSI_1252
  9
$INSBASE
 10
0.0
 20
0.0
 30
0.0
  9
$EXTMIN
 10
0.0
 20
0.0
 30
0.0
  9
$EXTMAX
 10
891.0
 20
630.0
 30
0.0
  9
$LIMMIN
 10
0.0
 20
0.0
  9
$LIMMAX
 10
891.0
 20
630.0
  9
$ORTHOMODE
 70
     0
  9
$REGENMODE
 70
     1
  9
$FILLMODE
 70
     1
  9
$QTEXTMODE
 70
     0
  9
$MIRRTEXT
 70
     1
  9
$LTSCALE
 40
3.0
  9
$ATTMODE
 70
     1
  9
$TEXTSIZE
 40
9.0
  9
$TRACEWID
 40
1.0
  9
$TEXTSTYLE
  7
Standard
  9
$CLAYER
  8
0
  9
$CELTYPE
  6
ByLayer
  9
$CECOLOR
 62
   256
  9
$CELTSCALE
 40
1.0
  9
$DISPSILH
 70
     0
  9
$DIMSCALE
 40
1.0
  9
$DIMASZ
 40
9.0
  9
$DIMEXO
 40
3.0
  9
$DIMDLI
 40
3.75
  9
$DIMRND
 40
0.0
  9
$DIMDLE
 40
0.0
  9
$DIMEXE
 40
3.0
  9
$DIMTP
 40
0.0
  9
$DIMTM
 40
0.0
  9
$DIMTXT
 40
8.4
  9
$DIMCEN
 40
2.5
  9
$DIMTSZ
 40
0.0
  9
$DIMTOL
 70
     0
  9
$DIMLIM
 70
     0
  9
$DIMTIH
 70
     1
  9
$DIMTOH
 70
     1
  9
$DIMSE1
 70
     0
  9
$DIMSE2
 70
     0
  9
$DIMTAD
 70
     1
  9
$DIMZIN
 70
     0
  9
$DIMBLK
  1

  9
$DIMASO
 70
     1
  9
$DIMSHO
 70
     1
  9
$DIMPOST
  1

  9
$DIMAPOST
  1

  9
$DIMALT
 70
     0
  9
$DIMALTD
 70
     3
  9
$DIMALTF
 40
0.0393700787
  9
$DIMLFAC
 40
1.0
  9
$DIMTOFL
 70
     1
  9
$DIMTVP
 40
0.0
  9
$DIMTIX
 70
     0
  9
$DIMSOXD
 70
     0
  9
$DIMSAH
 70
     0
  9
$DIMBLK1
  1

  9
$DIMBLK2
  1

  9
$DIMSTYLE
  2
ISO-25
  9
$DIMCLRD
 70
     0
  9
$DIMCLRE
 70
     0
  9
$DIMCLRT
 70
     0
  9
$DIMTFAC
 40
1.0
  9
$DIMGAP
 40
4.572
  9
$DIMJUST
 70
     0
  9
$DIMSD1
 70
     0
  9
$DIMSD2
 70
     0
  9
$DIMTOLJ
 70
     0
  9
$DIMTZIN
 70
     0
  9
$DIMALTZ
 70
     0
  9
$DIMALTTZ
 70
     0
  9
$DIMUPT
 70
     0
  9
$DIMDEC
 70
     2
  9
$DIMTDEC
 70
     2
  9
$DIMALTU
 70
     2
  9
$DIMALTTD
 70
     3
  9
$DIMTXSTY
  7
Standard
  9
$DIMAUNIT
 70
     0
  9
$DIMADEC
 70
     2
  9
$DIMALTRND
 40
0.0
  9
$DIMAZIN
 70
     0
  9
$DIMDSEP
 70
    44
  9
$DIMATFIT
 70
     3
  9
$DIMFRAC
 70
     0
  9
$DIMLDRBLK
  1

  9
$DIMLUNIT
 70
     2
  9
$DIMLWD
 70
    -2
  9
$DIMLWE
 70
    -2
  9
$DIMTMOVE
 70
     0
  9
$LUNITS
 70
     2
  9
$LUPREC
 70
     2
  9
$SKETCHINC
 40
1.0
  9
$FILLETRAD
 40
0.0
  9
$AUNITS
 70
     0
  9
$AUPREC
 70
     2
  9
$MENU
  1
.
  9
$ELEVATION
 40
0.0
  9
$PELEVATION
 40
0.0
  9
$THICKNESS
 40
0.0
  9
$LIMCHECK
 70
     0
  9
$CHAMFERA
 40
0.0
  9
$CHAMFERB
 40
0.0
  9
$CHAMFERC
 40
0.0
  9
$CHAMFERD
 40
0.0
  9
$SKPOLY
 70
     0
  9
$TDCREATE
 40
2460321.650608218
  9
$TDUCREATE
 40
2460321.608941551
  9
$TDUPDATE
 40
2460321.650612674
  9
$TDUUPDATE
 40
2460321.608946007
  9
$TDINDWG
 40
0.0000000116
  9
$TDUSRTIMER
 40
0.0000000116
  9
$USRTIMER
 70
     1
  9
$ANGBASE
 50
0.0
  9
$ANGDIR
 70
     0
  9
$PDMODE
 70
     0
  9
$PDSIZE
 40
-1.0
  9
$PLINEWID
 40
0.0
  9
$SPLFRAME
 70
     0
  9
$SPLINETYPE
 70
     6
  9
$SPLINESEGS
 70
     8
  9
$HANDSEED
  5
2F0
  9
$SURFTAB1
 70
     6
  9
$SURFTAB2
 70
     6
  9
$SURFTYPE
 70
     6
  9
$SURFU
 70
     6
  9
$SURFV
 70
     6
  9
$UCSBASE
  2

  9
$UCSNAME
  2

  9
$UCSORG
 10
0.0
 20
0.0
 30
0.0
  9
$UCSXDIR
 10
1.0
 20
0.0
 30
0.0
  9
$UCSYDIR
 10
0.0
 20
1.0
 30
0.0
  9
$UCSORTHOREF
  2

  9
$UCSORTHOVIEW
 70
     0
  9
$UCSORGTOP
 10
0.0
 20
0.0
 30
0.0
  9
$UCSORGBOTTOM
 10
0.0
 20
0.0
 30
0.0
  9
$UCSORGLEFT
 10
0.0
 20
0.0
 30
0.0
  9
$UCSORGRIGHT
 10
0.0
 20
0.0
 30
0.0
  9
$UCSORGFRONT
 10
0.0
 20
0.0
 30
0.0
  9
$UCSORGBACK
 10
0.0
 20
0.0
 30
0.0
  9
$PUCSBASE
  2

  9
$PUCSNAME
  2

  9
$PUCSORG
 10
0.0
 20
0.0
 30
0.0
  9
$PUCSXDIR
 10
1.0
 20
0.0
 30
0.0
  9
$PUCSYDIR
 10
0.0
 20
1.0
 30
0.0
  9
$PUCSORTHOREF
  2

  9
$PUCSORTHOVIEW
 70
     0
  9
$PUCSORGTOP
 10
0.0
 20
0.0
 30
0.0
  9
$PUCSORGBOTTOM
 10
0.0
 20
0.0
 30
0.0
  9
$PUCSORGLEFT
 10
0.0
 20
0.0
 30
0.0
  9
$PUCSORGRIGHT
 10
0.0
 20
0.0
 30
0.0
  9
$PUCSORGFRONT
 10
0.0
 20
0.0
 30
0.0
  9
$PUCSORGBACK
 10
0.0
 20
0.0
 30
0.0
  9
$USERI1
 70
     0
  9
$USERI2
 70
     0
  9
$USERI3
 70
     0
  9
$USERI4
 70
     0
  9
$USERI5
 70
     0
  9
$USERR1
 40
0.0
  9
$USERR2
 40
0.0
  9
$USERR3
 40
0.0
  9
$USERR4
 40
0.0
  9
$USERR5
 40
0.0
  9
$WORLDVIEW
 70
     1
  9
$SHADEDGE
 70
     3
  9
$SHADEDIF
 70
    70
  9
$TILEMODE
 70
     1
  9
$MAXACTVP
 70
    64
  9
$PINSBASE
 10
0.0
 20
0.0
 30
0.0
  9
$PLIMCHECK
 70
     0
  9
$PEXTMIN
 10
1.0000000000E+20
 20
1.0000000000E+20
 30
1.0000000000E+20
  9
$PEXTMAX
 10
-1.0000000000E+20
 20
-1.0000000000E+20
 30
-1.0000000000E+20
  9
$PLIMMIN
 10
0.0
 20
0.0
  9
$PLIMMAX
 10
420.0
 20
297.0
  9
$UNITMODE
 70
     0
  9
$VISRETAIN
 70
     1
  9
$PLINEGEN
 70
     0
  9
$PSLTSCALE
 70
     1
  9
$TREEDEPTH
 70
  3020
  9
$CMLSTYLE
  2
Standard
  9
$CMLJUST
 70
     0
  9
$CMLSCALE
 40
20.0
  9
$PROXYGRAPHICS
 70
     1
  9
$MEASUREMENT
 70
     1
  9
$CELWEIGHT
370
    -1
  9
$ENDCAPS
280
     0
  9
$JOINSTYLE
280
     0
  9
$LWDISPLAY
290
     1
  9
$INSUNITS
 70
     4
  9
$HYPERLINKBASE
  1

  9
$STYLESHEET
  1

  9
$XEDIT
290
     1
  9
$CEPSNTYPE
380
     0
  9
$PSTYLEMODE
290
     1
  9
$FINGERPRINTGUID
  2
{bcc99121-6f85-4aaf-a6e7-86090068c637}
  9
$VERSIONGUID
  2
{FAEB1C32-E019-11D5-929B-00C0DF256EC4}
  9
$EXTNAMES
290
     1
  9
$PSVPSCALE
 40
0.0
  9
$OLESTARTUP
290
     0
  0
ENDSEC
  0
SECTION
  2
CLASSES
  0
CLASS
  1
ACDBDICTIONARYWDFLT
  2
AcDbDictionaryWithDefault
  3
ObjectDBX Classes
 90
        0
280
     0
281
     0
  0
CLASS
  1
VISUALSTYLE
  2
AcDbVisualStyle
  3
ObjectDBX Classes
 90
     4095
280
     0
281
     0
  0
CLASS
  1
MATERIAL
  2
AcDbMaterial
  3
ObjectDBX Classes
 90
     1153
280
     0
281
     0
  0
CLASS
  1
SCALE
  2
AcDbScale
  3
ObjectDBX Classes
 90
     1153
280
     0
281
     0
  0
CLASS
  1
TABLESTYLE
  2
AcDbTableStyle
  3
ObjectDBX Classes
 90
     4095
280
     0
281
     0
  0
CLASS
  1
MLEADERSTYLE
  2
AcDbMLeaderStyle
  3
ACDB_MLEADERSTYLE_CLASS
 90
     4095
280
     0
281
     0
  0
CLASS
  1
SUN
  2
AcDbSun
  3
SCENEOE
 90
     1153
280
     0
281
     0
  0
CLASS
  1
ACDBPLACEHOLDER
  2
AcDbPlaceHolder
  3
ObjectDBX Classes
 90
        0
280
     0
281
     0
  0
CLASS
  1
LAYOUT
  2
AcDbLayout
  3
ObjectDBX Classes
 90
        0
280
     0
281
     0
  0
ENDSEC
  0
SECTION
  2
TABLES
  0
TABLE
  2
VPORT
  5
8
330
0
100
AcDbSymbolTable
 70
     1
  0
VPORT
  5
29
330
8
100
AcDbSymbolTableRecord
100
AcDbViewportTableRecord
  2
*Active
 70
     0
 10
0.0
 20
0.0
 11
1.0
 21
1.0
 12
445.5
 22
315.0
 13
0.0
 23
0.0
 14
10.0
 24
10.0
 15
10.0
 25
10.0
 16
0.0
 26
0.0
 36
1.0
 17
0.0
 27
0.0
 37
0.0
 40
630.0
 41
1.4142857143
 42
50.0
 43
0.0
 44
0.0
 50
0.0
 51
0.0
 71
     0
 72
  2000
 73
     1
 74
     3
 75
     0
 76
     0
 77
     0
 78
     0
281
     0
 65
     1
110
0.0
120
0.0
130
0.0
111
1.0
121
0.0
131
0.0
112
0.0
122
1.0
132
0.0
 79
     0
146
0.0
  0
ENDTAB
  0
TABLE
  2
LTYPE
  5
5
330
0
100
AcDbSymbolTable
 70
     6
  0
LTYPE
  5
14
330
5
100
AcDbSymbolTableRecord
100
AcDbLinetypeTableRecord
  2
ByBlock
 70
     0
  3

 72
    65
 73
     0
 40
0.0
  0
LTYPE
  5
15
330
5
100
AcDbSymbolTableRecord
100
AcDbLinetypeTableRecord
  2
ByLayer
 70
     0
  3

 72
    65
 73
     0
 40
0.0
  0
LTYPE
  5
16
330
5
100
AcDbSymbolTableRecord
100
AcDbLinetypeTableRecord
  2
Continuous
 70
     0
  3
Solid line
 72
    65
 73
     0
 40
0.0
  0
LTYPE
  5
5E
330
5
100
AcDbSymbolTableRecord
100
AcDbLinetypeTableRecord
  2
HIDDEN
 70
     0
  3
Hidden __ __ __ __ __ __ __ __ __ __ __ __ __ __
 72
    65
 73
     2
 40
1.905
 49
1.27
 74
     0
 49
-0.635
 74
     0
  0
LTYPE
  5
5F
330
5
100
AcDbSymbolTableRecord
100
AcDbLinetypeTableRecord
  2
PHANTOM
 70
     0
  3
Phantom ______  __  __  ______  __  __  ______
 72
    65
 73
     6
 40
12.7
 49
6.35
 74
     0
 49
-1.27
 74
     0
 49
1.27
 74
     0
 49
-1.27
 74
     0
 49
1.27
 74
     0
 49
-1.27
 74
     0
  0
LTYPE
  5
60
330
5
100
AcDbSymbolTableRecord
100
AcDbLinetypeTableRecord
  2
CENTER
 70
     0
  3
Center ____ _ ____ _ ____ _ ____ _ ____ _ ____
 72
    65
 73
     4
 40
10.16
 49
6.35
 74
     0
 49
-1.27
 74
     0
 49
1.27
 74
     0
 49
-1.27
 74
     0
  0
LTYPE
  5
61
330
5
100
AcDbSymbolTableRecord
100
AcDbLinetypeTableRecord
  2
CENTERX2
 70
     0
  3
Center (2x) ________  __  ________  __  _____
 72
    65
 73
     4
 40
20.32
 49
12.7
 74
     0
 49
-2.54
 74
     0
 49
2.54
 74
     0
 49
-2.54
 74
     0
  0
LTYPE
  5
62
330
5
100
AcDbSymbolTableRecord
100
AcDbLinetypeTableRecord
  2
DOT2
 70
     0
  3
Dot (.5x) ........................................
 72
    65
 73
     2
 40
0.635
 49
0.0
 74
     0
 49
-0.635
 74
     0
  0
ENDTAB
  0
TABLE
  2
LAYER
  5
2
330
0
100
AcDbSymbolTable
 70
     3
  0
LAYER
  5
10
330
2
100
AcDbSymbolTableRecord
100
AcDbLayerTableRecord
  2
0
 70
     0
 62
     7
  6
Continuous
370
    -3
390
F
  0
LAYER
  5
63
330
2
100
AcDbSymbolTableRecord
100
AcDbLayerTableRecord
  2
FORMAT
 70
     0
 62
     7
  6
Continuous
370
    -3
390
F
  0
LAYER
  5
64
330
2
100
AcDbSymbolTableRecord
100
AcDbLayerTableRecord
  2
TESTO
 70
     0
 62
   179
  6
Continuous
370
    -3
390
F
  0
ENDTAB
  0
TABLE
  2
STYLE
  5
3
330
0
100
AcDbSymbolTable
 70
     8
  0
STYLE
  5
11
330
3
100
AcDbSymbolTableRecord
100
AcDbTextStyleTableRecord
  2
Standard
 70
     0
 40
0.0
 41
1.0
 50
0.0
 71
     0
 42
9.0
  3
txt
  4

  0
STYLE
  5
C2
330
3
100
AcDbSymbolTableRecord
100
AcDbTextStyleTableRecord
  2
SLDTEXTSTYLE0
 70
     0
 40
0.0
 41
0.75
 50
0.0
 71
     0
 42
9.0
  3
TXT
  4

  0
STYLE
  5
D2
330
3
100
AcDbSymbolTableRecord
100
AcDbTextStyleTableRecord
  2
SLDTEXTSTYLE1
 70
     0
 40
0.0
 41
0.605
 50
0.0
 71
     0
 42
9.0
  3
TXT
  4

  0
STYLE
  5
E4
330
3
100
AcDbSymbolTableRecord
100
AcDbTextStyleTableRecord
  2
SLDTEXTSTYLE2
 70
     0
 40
0.0
 41
0.7329842932
 50
0.0
 71
     0
 42
9.0
  3
TXT
  4

  0
STYLE
  5
E6
330
3
100
AcDbSymbolTableRecord
100
AcDbTextStyleTableRecord
  2
SLDTEXTSTYLE3
 70
     0
 40
0.0
 41
0.6436170213
 50
0.0
 71
     0
 42
9.0
  3
TXT
  4

  0
STYLE
  5
FC
330
3
100
AcDbSymbolTableRecord
100
AcDbTextStyleTableRecord
  2
SLDTEXTSTYLE4
 70
     0
 40
0.0
 41
0.6944444444
 50
0.0
 71
     0
 42
9.0
  3
TXT
  4

  0
STYLE
  5
103
330
3
100
AcDbSymbolTableRecord
100
AcDbTextStyleTableRecord
  2
SLDTEXTSTYLE5
 70
     0
 40
0.0
 41
0.6923076923
 50
0.0
 71
     0
 42
9.0
  3
TXT
  4

  0
STYLE
  5
1F3
330
3
100
AcDbSymbolTableRecord
100
AcDbTextStyleTableRecord
  2
SLDTEXTSTYLE6
 70
     0
 40
0.0
 41
0.6666666667
 50
0.0
 71
     0
 42
9.0
  3
TXT
  4

  0
ENDTAB
  0
TABLE
  2
VIEW
  5
6
330
0
100
AcDbSymbolTable
 70
     0
  0
ENDTAB
  0
TABLE
  2
UCS
  5
7
330
0
100
AcDbSymbolTable
 70
     0
  0
ENDTAB
  0
TABLE
  2
APPID
  5
9
330
0
100
AcDbSymbolTable
 70
     1
  0
APPID
  5
12
330
9
100
AcDbSymbolTableRecord
100
AcDbRegAppTableRecord
  2
ACAD
 70
     0
  0
ENDTAB
  0
TABLE
  2
DIMSTYLE
  5
A
330
0
100
AcDbSymbolTable
 70
     7
100
AcDbDimStyleTable
  0
DIMSTYLE
105
27
330
A
100
AcDbSymbolTableRecord
100
AcDbDimStyleTableRecord
  2
ISO-25
 70
     0
 41
2.5
 42
0.625
 43
3.75
 44
1.25
 73
     0
 74
     0
 77
     1
 78
     8
140
2.5
141
2.5
143
0.0393700787
147
0.625
171
     3
172
     1
178
     0
271
     2
272
     2
274
     3
278
    44
283
     0
284
     8
340
11
  0
DIMSTYLE
105
142
102
{ACAD_REACTORS
330
141
330
159
330
23C
330
2A8
102
}
330
A
100
AcDbSymbolTableRecord
100
AcDbDimStyleTableRecord
  2
SLDDIMSTYLE0
 70
     0
 41
9.0
 44
0.0
 45
0.000000001
 73
     0
 74
     0
 77
     1
 78
    12
 79
     3
140
8.4
147
2.1
172
     1
173
     1
178
     0
271
     2
272
     2
276
     2
284
    12
289
     0
340
C2
  0
DIMSTYLE
105
14F
102
{ACAD_REACTORS
330
14E
330
165
330
16F
330
179
330
183
330
18D
330
197
330
1A1
330
1AB
330
1B5
330
1BF
330
1C9
330
1D3
330
1DD
330
270
330
27A
102
}
330
A
100
AcDbSymbolTableRecord
100
AcDbDimStyleTableRecord
  2
SLDDIMSTYLE1
 70
     0
 41
9.0
 44
0.0
 45
0.000000001
 73
     0
 74
     0
 77
     1
 78
    12
 79
     3
140
8.4
147
2.1
173
     1
178
     0
271
     2
272
     2
276
     2
284
    12
340
C2
  0
DIMSTYLE
105
1E8
102
{ACAD_REACTORS
330
1E7
102
}
330
A
100
AcDbSymbolTableRecord
100
AcDbDimStyleTableRecord
  2
SLDDIMSTYLE2
 70
     0
 41
9.0
 44
0.0
 45
0.000000001
 78
    12
 79
     3
140
8.4
141
0.0
147
2.1
172
     1
173
     1
178
     0
271
     6
272
     2
276
     2
284
    12
340
C2
341
1E9
343
1E9
  0
DIMSTYLE
105
200
102
{ACAD_REACTORS
330
1FF
102
}
330
A
100
AcDbSymbolTableRecord
100
AcDbDimStyleTableRecord
  2
SLDDIMSTYLE3
 70
     0
  3
<>
 41
9.0
 44
0.0
 45
0.000000001
 78
     4
 79
     1
140
8.4
141
0.0
147
2.1
173
     1
178
     0
271
     2
272
     2
276
     2
284
    12
340
C2
  0
DIMSTYLE
105
20A
102
{ACAD_REACTORS
330
209
102
}
330
A
100
AcDbSymbolTableRecord
100
AcDbDimStyleTableRecord
  2
SLDDIMSTYLE4
 70
     0
 41
9.0
 44
0.0
 45
0.000000001
 73
     0
 74
     0
 77
     1
 78
    12
 79
     3
140
8.4
141
0.0
147
2.1
173
     1
178
     0
271
     2
272
     2
276
     2
284
    12
340
C2
  0
DIMSTYLE
105
289
330
A
100
AcDbSymbolTableRecord
100
AcDbDimStyleTableRecord
  2
SLDDIMSTYLE5
 70
     0
 41
2.7692307692
 44
0.0
 45
0.000000001
146
2.7692307692
147
0.0
173
     1
178
     0
271
     0
272
     0
276
     2
340
11
341
28A
343
28A
344
28A
  0
ENDTAB
  0
TABLE
  2
BLOCK_RECORD
  5
1
330
0
100
AcDbSymbolTable
 70
    28
  0
BLOCK_RECORD
  5
1F
330
1
100
AcDbSymbolTableRecord
100
AcDbBlockTableRecord
  2
*Model_Space
340
22
  0
BLOCK_RECORD
  5
1B
330
1
100
AcDbSymbolTableRecord
100
AcDbBlockTableRecord
  2
*Paper_Space
340
1E
  0
BLOCK_RECORD
  5
23
330
1
100
AcDbSymbolTableRecord
100
AcDbBlockTableRecord
  2
*Paper_Space0
340
26
  0
BLOCK_RECORD
  5
143
330
1
100
AcDbSymbolTableRecord
100
AcDbBlockTableRecord
  2
_D
340
0
  0
BLOCK_RECORD
  5
150
330
1
100
AcDbSymbolTableRecord
100
AcDbBlockTableRecord
  2
_D_1
340
0
  0
BLOCK_RECORD
  5
15A
330
1
100
AcDbSymbolTableRecord
100
AcDbBlockTableRecord
  2
_D_2
340
0
  0
BLOCK_RECORD
  5
166
330
1
100
AcDbSymbolTableRecord
100
AcDbBlockTableRecord
  2
_D_3
340
0
  0
BLOCK_RECORD
  5
170
330
1
100
AcDbSymbolTableRecord
100
AcDbBlockTableRecord
  2
_D_4
340
0
  0
BLOCK_RECORD
  5
17A
330
1
100
AcDbSymbolTableRecord
100
AcDbBlockTableRecord
  2
_D_5
340
0
  0
BLOCK_RECORD
  5
184
330
1
100
AcDbSymbolTableRecord
100
AcDbBlockTableRecord
  2
_D_6
340
0
  0
BLOCK_RECORD
  5
18E
330
1
100
AcDbSymbolTableRecord
100
AcDbBlockTableRecord
  2
_D_7
340
0
  0
BLOCK_RECORD
  5
198
330
1
100
AcDbSymbolTableRecord
100
AcDbBlockTableRecord
  2
_D_8
340
0
  0
BLOCK_RECORD
  5
1A2
330
1
100
AcDbSymbolTableRecord
100
AcDbBlockTableRecord
  2
_D_9
340
0
  0
BLOCK_RECORD
  5
1AC
330
1
100
AcDbSymbolTableRecord
100
AcDbBlockTableRecord
  2
_D_10
340
0
  0
BLOCK_RECORD
  5
1B6
330
1
100
AcDbSymbolTableRecord
100
AcDbBlockTableRecord
  2
_D_11
340
0
  0
BLOCK_RECORD
  5
1C0
330
1
100
AcDbSymbolTableRecord
100
AcDbBlockTableRecord
  2
_D_12
340
0
  0
BLOCK_RECORD
  5
1CA
330
1
100
AcDbSymbolTableRecord
100
AcDbBlockTableRecord
  2
_D_13
340
0
  0
BLOCK_RECORD
  5
1D4
330
1
100
AcDbSymbolTableRecord
100
AcDbBlockTableRecord
  2
_D_14
340
0
  0
BLOCK_RECORD
  5
1DE
330
1
100
AcDbSymbolTableRecord
100
AcDbBlockTableRecord
  2
_D_15
340
0
  0
BLOCK_RECORD
  5
1E9
330
1
100
AcDbSymbolTableRecord
100
AcDbBlockTableRecord
  2
_None
340
0
  0
BLOCK_RECORD
  5
1EC
330
1
100
AcDbSymbolTableRecord
100
AcDbBlockTableRecord
  2
_D_16
340
0
  0
BLOCK_RECORD
  5
1F7
330
1
100
AcDbSymbolTableRecord
100
AcDbBlockTableRecord
  2
SW_SYMBOL_HOLE_SINK
340
0
102
{BLKREFS
331
1FC
102
}
  0
BLOCK_RECORD
  5
201
330
1
100
AcDbSymbolTableRecord
100
AcDbBlockTableRecord
  2
_D_17
340
0
  0
BLOCK_RECORD
  5
20B
330
1
100
AcDbSymbolTableRecord
100
AcDbBlockTableRecord
  2
_D_18
340
0
  0
BLOCK_RECORD
  5
23D
330
1
100
AcDbSymbolTableRecord
100
AcDbBlockTableRecord
  2
_D_19
340
0
  0
BLOCK_RECORD
  5
271
330
1
100
AcDbSymbolTableRecord
100
AcDbBlockTableRecord
  2
_D_20
340
0
  0
BLOCK_RECORD
  5
27B
330
1
100
AcDbSymbolTableRecord
100
AcDbBlockTableRecord
  2
_D_21
340
0
  0
BLOCK_RECORD
  5
284
330
1
100
AcDbSymbolTableRecord
100
AcDbBlockTableRecord
  2
SW_NOTE_0
340
0
102
{BLKREFS
331
288
102
}
  0
BLOCK_RECORD
  5
28A
330
1
100
AcDbSymbolTableRecord
100
AcDbBlockTableRecord
  2
_Dot
340
0
  0
BLOCK_RECORD
  5
2A9
330
1
100
AcDbSymbolTableRecord
100
AcDbBlockTableRecord
  2
_D_22
340
0
  0
ENDTAB
  0
ENDSEC
  0
SECTION
  2
BLOCKS
  0
BLOCK
  5
20
330
1F
100
AcDbEntity
  8
0
100
AcDbBlockBegin
  2
*Model_Space
 70
     0
 10
0.0
 20
0.0
 30
0.0
  3
*Model_Space
  1

  0
ENDBLK
  5
21
330
1F
100
AcDbEntity
  8
0
100
AcDbBlockEnd
  0
BLOCK
  5
1C
330
1B
100
AcDbEntity
 67
     1
  8
0
100
AcDbBlockBegin
  2
*Paper_Space
 70
     0
 10
0.0
 20
0.0
 30
0.0
  3
*Paper_Space
  1

  0
ENDBLK
  5
1D
330
1B
100
AcDbEntity
 67
     1
  8
0
100
AcDbBlockEnd
  0
BLOCK
  5
24
330
23
100
AcDbEntity
  8
0
100
AcDbBlockBegin
  2
*Paper_Space0
 70
     0
 10
0.0
 20
0.0
 30
0.0
  3
*Paper_Space0
  1

  0
ENDBLK
  5
25
330
23
100
AcDbEntity
  8
0
100
AcDbBlockEnd
  0
BLOCK
  5
144
330
143
100
AcDbEntity
  8
0
100
AcDbBlockBegin
  2
_D
 70
     0
 10
0.0
 20
0.0
 30
0.0
  3
_D
  1

  0
SOLID
  5
146
330
143
100
AcDbEntity
  8
0
  6
Continuous
 62
     7
370
    18
100
AcDbTrace
 10
424.6159034764
 20
208.7873031009
 30
0.0
 11
415.6159034764
 21
210.1719184855
 31
0.0
 12
415.6159034764
 22
207.4026877163
 32
0.0
 13
415.6159034764
 23
207.4026877163
 33
0.0
  0
SOLID
  5
147
330
143
100
AcDbEntity
  8
0
  6
Continuous
 62
     7
370
    18
100
AcDbTrace
 10
444.6159034764
 20
208.7873031009
 30
0.0
 11
453.6159034764
 21
207.4026877163
 31
0.0
 12
453.6159034764
 22
210.1719184855
 32
0.0
 13
453.6159034764
 23
210.1719184855
 33
0.0
  0
LINE
  5
148
330
143
100
AcDbEntity
  8
0
  6
Continuous
 62
     7
370
     0
100
AcDbLine
 10
424.6159034764
 20
239.7873031009
 30
0.0
 11
424.6159034764
 21
205.7873031009
 31
0.0
  0
LINE
  5
149
330
143
100
AcDbEntity
  8
0
  6
Continuous
 62
     7
370
     0
100
AcDbLine
 10
444.6159034764
 20
330.6373031009
 30
0.0
 11
444.6159034764
 21
205.7873031009
 31
0.0
  0
LINE
  5
14A
330
143
100
AcDbEntity
  8
0
  6
Continuous
 62
     7
370
     0
100
AcDbLine
 10
424.6159034764
 20
208.7873031009
 30
0.0
 11
407.3082111687
 21
208.7873031009
 31
0.0
  0
LINE
  5
14B
330
143
100
AcDbEntity
  8
0
  6
Continuous
 62
     7
370
     0
100
AcDbLine
 10
424.6159034764
 20
208.7873031009
 30
0.0
 11
444.6159034764
 21
208.7873031009
 31
0.0
  0
LINE
  5
14C
330
143
100
AcDbEntity
  8
0
  6
Continuous
 62
     7
370
     0
100
AcDbLine
 10
444.6159034764
 20
208.7873031009
 30
0.0
 11
461.9235957841
 21
208.7873031009
 31
0.0
  0
MTEXT
  5
14D
330
143
100
AcDbEntity
  8
0
  6
Continuous
 62
     7
370
    18
100
AcDbMText
 10
428.4092368914
 20
219.615472115
 30
0.0
 40
8.4
 41
0.0
 71
     1
 72
     1
  1
20
  7
SLDTEXTSTYLE0
 73
     1
 44
1.0
  0
ENDBLK
  5
145
330
143
100
AcDbEntity
  8
0
100
AcDbBlockEnd
  0
BLOCK
  5
151
330
150
100
AcDbEntity
  8
0
100
AcDbBlockBegin
  2
_D_1
 70
     0
 10
0.0
 20
0.0
 30
0.0
  3
_D_1
  1

  0
SOLID
  5
153
330
150
100
AcDbEntity
  8
0
  6
Continuous
 62
     7
370
    18
100
AcDbTrace
 10
444.6159034764
 20
208.7873031009
 30
0.0
 11
453.6159034764
 21
207.4026877163
 31
0.0
 12
453.6159034764
 22
210.1719184855
 32
0.0
 13
453.6159034764
 23
210.1719184855
 33
0.0
  0
SOLID
  5
154
330
150
100
AcDbEntity
  8
0
  6
Continuous
 62
     7
370
    18
100
AcDbTrace
 10
754.6159034764
 20
208.7873031009
 30
0.0
 11
745.6159034764
 21
210.1719184855
 31
0.0
 12
745.6159034764
 22
207.4026877163
 32
0.0
 13
745.6159034764
 23
207.4026877163
 33
0.0
  0
LINE
  5
155
330
150
100
AcDbEntity
  8
0
  6
Continuous
 62
     7
370
     0
100
AcDbLine
 10
444.6159034764
 20
330.6373031009
 30
0.0
 11
444.6159034764
 21
205.7873031009
 31
0.0
  0
LINE
  5
156
330
150
100
AcDbEntity
  8
0
  6
Continuous
 62
     7
370
     0
100
AcDbLine
 10
754.6159034764
 20
330.6373031009
 30
0.0
 11
754.6159034764
 21
205.7873031009
 31
0.0
  0
LINE
  5
157
330
150
100
AcDbEntity
  8
0
  6
Continuous
 62
     7
370
     0
100
AcDbLine
 10
444.6159034764
 20
208.7873031009
 30
0.0
 11
754.6159034764
 21
208.7873031009
 31
0.0
  0
MTEXT
  5
158
330
150
100
AcDbEntity
  8
0
  6
Continuous
 62
     7
370
    18
100
AcDbMText
 10
590.3059035989
 20
219.615472115
 30
0.0
 40
8.4
 41
0.0
 71
     1
 72
     1
  1
310
  7
SLDTEXTSTYLE0
 73
     1
 44
1.0
  0
ENDBLK
  5
152
330
150
100
AcDbEntity
  8
0
100
AcDbBlockEnd
  0
BLOCK
  5
15B
330
15A
100
AcDbEntity
  8
0
100
AcDbBlockBegin
  2
_D_2
 70
     0
 10
0.0
 20
0.0
 30
0.0
  3
_D_2
  1

  0
SOLID
  5
15D
330
15A
100
AcDbEntity
  8
0
  6
Continuous
 62
     7
370
    18
100
AcDbTrace
 10
754.6159034764
 20
208.7873031009
 30
0.0
 11
745.6159034764
 21
210.1719184855
 31
0.0
 12
745.6159034764
 22
207.4026877163
 32
0.0
 13
745.6159034764
 23
207.4026877163
 33
0.0
  0
SOLID
  5
15E
330
15A
100
AcDbEntity
  8
0
  6
Continuous
 62
     7
370
    18
100
AcDbTrace
 10
774.6159034764
 20
208.7873031009
 30
0.0
 11
783.6159034764
 21
207.4026877163
 31
0.0
 12
783.6159034764
 22
210.1719184855
 32
0.0
 13
783.6159034764
 23
210.1719184855
 33
0.0
  0
LINE
  5
15F
330
15A
100
AcDbEntity
  8
0
  6
Continuous
 62
     7
370
     0
100
AcDbLine
 10
754.6159034764
 20
330.6373031009
 30
0.0
 11
754.6159034764
 21
205.7873031009
 31
0.0
  0
LINE
  5
160
330
15A
100
AcDbEntity
  8
0
  6
Continuous
 62
     7
370
     0
100
AcDbLine
 10
774.6159034764
 20
239.7873031009
 30
0.0
 11
774.6159034764
 21
205.7873031009
 31
0.0
  0
LINE
  5
161
330
15A
100
AcDbEntity
  8
0
  6
Continuous
 62
     7
370
     0
100
AcDbLine
 10
754.6159034764
 20
208.7873031009
 30
0.0
 11
737.3082111687
 21
208.7873031009
 31
0.0
  0
LINE
  5
162
330
15A
100
AcDbEntity
  8
0
  6
Continuous
 62
     7
370
     0
100
AcDbLine
 10
754.6159034764
 20
208.7873031009
 30
0.0
 11
774.6159034764
 21
208.7873031009
 31
0.0
  0
LINE
  5
163
330
15A
100
AcDbEntity
  8
0
  6
Continuous
 62
     7
370
     0
100
AcDbLine
 10
774.6159034764
 20
208.7873031009
 30
0.0
 11
791.9235957841
 21
208.7873031009
 31
0.0
  0
MTEXT
  5
164
330
15A
100
AcDbEntity
  8
0
  6
Continuous
 62
     7
370
    18
100
AcDbMText
 10
758.4092368914
 20
219.615472115
 30
0.0
 40
8.4
 41
0.0
 71
     1
 72
     1
  1
20
  7
SLDTEXTSTYLE0
 73
     1
 44
1.0
  0
ENDBLK
  5
15C
330
15A
100
AcDbEntity
  8
0
100
AcDbBlockEnd
  0
BLOCK
  5
167
330
166
100
AcDbEntity
  8
0
100
AcDbBlockBegin
  2
_D_3
 70
     0
 10
0.0
 20
0.0
 30
0.0
  3
_D_3
  1

  0
SOLID
  5
169
330
166
100
AcDbEntity
  8
0
  6
Continuous
 62
     7
370
    18
100
AcDbTrace
 10
798.6159034764
 20
232.7873031009
 30
0.0
 11
800.0005188611
 21
241.7873031009
 31
0.0
 12
797.2312880918
 22
241.7873031009
 32
0.0
 13
797.2312880918
 23
241.7873031009
 33
0.0
  0
SOLID
  5
16A
330
166
100
AcDbEntity
  8
0
  6
Continuous
 62
     7
370
    18
100
AcDbTrace
 10
798.6159034764
 20
267.7873031009
 30
0.0
 11
797.2312880918
 21
258.7873031009
 31
0.0
 12
800.0005188611
 22
258.7873031009
 32
0.0
 13
800.0005188611
 23
258.7873031009
 33
0.0
  0
LINE
  5
16B
330
166
100
AcDbEntity
  8
0
  6
Continuous
 62
     7
370
     0
100
AcDbLine
 10
767.6159034764
 20
232.7873031009
 30
0.0
 11
801.6159034764
 21
232.7873031009
 31
0.0
  0
LINE
  5
16C
330
166
100
AcDbEntity
  8
0
  6
Continuous
 62
     7
370
     0
100
AcDbLine
 10
452.6159034764
 20
267.7873031009
 30
0.0
 11
801.6159034764
 21
267.7873031009
 31
0.0
  0
LINE
  5
16D
330
166
100
AcDbEntity
  8
0
  6
Continuous
 62
     7
370
     0
100
AcDbLine
 10
798.6159034764
 20
232.7873031009
 30
0.0
 11
798.6159034764
 21
267.7873031009
 31
0.0
  0
MTEXT
  5
16E
330
166
100
AcDbEntity
  8
0
  6
Continuous
 62
     7
370
    18
100
AcDbMText
 10
787.7877344624
 20
244.0806365158
 30
0.0
 40
8.4
 41
0.0
 71
     1
 72
     1
  1
35
  7
SLDTEXTSTYLE0
 11
6.123233995736766E-17
 21
1.0
 31
0.0
 73
     1
 44
1.0
  0
ENDBLK
  5
168
330
166
100
AcDbEntity
  8
0
100
AcDbBlockEnd
  0
BLOCK
  5
171
330
170
100
AcDbEntity
  8
0
100
AcDbBlockBegin
  2
_D_4
 70
     0
 10
0.0
 20
0.0
 30
0.0
  3
_D_4
  1

  0
SOLID
  5
173
330
170
100
AcDbEntity
  8
0
  6
Continuous
 62
     7
370
    18
100
AcDbTrace
 10
798.6159034764
 20
267.7873031009
 30
0.0
 11
800.0005188611
 21
276.7873031009
 31
0.0
 12
797.2312880918
 22
276.7873031009
 32
0.0
 13
797.2312880918
 23
276.7873031009
 33
0.0
  0
SOLID
  5
174
330
170
100
AcDbEntity
  8
0
  6
Continuous
 62
     7
370
    18
100
AcDbTrace
 10
798.6159034764
 20
337.7873031009
 30
0.0
 11
797.2312880918
 21
328.7873031009
 31
0.0
 12
800.0005188611
 22
328.7873031009
 32
0.0
 13
800.0005188611
 23
328.7873031009
 33
0.0
  0
LINE
  5
175
330
170
100
AcDbEntity
  8
0
  6
Continuous
 62
     7
370
     0
100
AcDbLine
 10
452.6159034764
 20
267.7873031009
 30
0.0
 11
801.6159034764
 21
267.7873031009
 31
0.0
  0
LINE
  5
176
330
170
100
AcDbEntity
  8
0
  6
Continuous
 62
     7
370
     0
100
AcDbLine
 10
452.6159034764
 20
337.7873031009
 30
0.0
 11
801.6159034764
 21
337.7873031009
 31
0.0
  0
LINE
  5
177
330
170
100
AcDbEntity
  8
0
  6
Continuous
 62
     7
370
     0
100
AcDbLine
 10
798.6159034764
 20
267.7873031009
 30
0.0
 11
798.6159034764
 21
337.7873031009
 31
0.0
  0
MTEXT
  5
178
330
170
100
AcDbEntity
  8
0
  6
Continuous
 62
     7
370
    18
100
AcDbMText
 10
787.7877344624
 20
296.5806365158
 30
0.0
 40
8.4
 41
0.0
 71
     1
 72
     1
  1
70
  7
SLDTEXTSTYLE0
 11
6.123233995736766E-17
 21
1.0
 31
0.0
 73
     1
 44
1.0
  0
ENDBLK
  5
172
330
170
100
AcDbEntity
  8
0
100
AcDbBlockEnd
  0
BLOCK
  5
17B
330
17A
100
AcDbEntity
  8
0
100
AcDbBlockBegin
  2
_D_5
 70
     0
 10
0.0
 20
0.0
 30
0.0
  3
_D_5
  1

  0
SOLID
  5
17D
330
17A
100
AcDbEntity
  8
0
  6
Continuous
 62
     7
370
    18
100
AcDbTrace
 10
798.6159034764
 20
337.7873031009
 30
0.0
 11
800.0005188611
 21
346.7873031009
 31
0.0
 12
797.2312880918
 22
346.7873031009
 32
0.0
 13
797.2312880918
 23
346.7873031009
 33
0.0
  0
SOLID
  5
17E
330
17A
100
AcDbEntity
  8
0
  6
Continuous
 62
     7
370
    18
100
AcDbTrace
 10
798.6159034764
 20
372.7873031009
 30
0.0
 11
797.2312880918
 21
363.7873031009
 31
0.0
 12
800.0005188611
 22
363.7873031009
 32
0.0
 13
800.0005188611
 23
363.7873031009
 33
0.0
  0
LINE
  5
17F
330
17A
100
AcDbEntity
  8
0
  6
Continuous
 62
     7
370
     0
100
AcDbLine
 10
452.6159034764
 20
337.7873031009
 30
0.0
 11
801.6159034764
 21
337.7873031009
 31
0.0
  0
LINE
  5
180
330
17A
100
AcDbEntity
  8
0
  6
Continuous
 62
     7
370
     0
100
AcDbLine
 10
767.6159034764
 20
372.7873031009
 30
0.0
 11
801.6159034764
 21
372.7873031009
 31
0.0
  0
LINE
  5
181
330
17A
100
AcDbEntity
  8
0
  6
Continuous
 62
     7
370
     0
100
AcDbLine
 10
798.6159034764
 20
337.7873031009
 30
0.0
 11
798.6159034764
 21
372.7873031009
 31
0.0
  0
MTEXT
  5
182
330
17A
100
AcDbEntity
  8
0
  6
Continuous
 62
     7
370
    18
100
AcDbMText
 10
787.7877344624
 20
349.0806365158
 30
0.0
 40
8.4
 41
0.0
 71
     1
 72
     1
  1
35
  7
SLDTEXTSTYLE0
 11
2.832769448823990E-16
 21
1.0
 31
0.0
 73
     1
 44
1.0
  0
ENDBLK
  5
17C
330
17A
100
AcDbEntity
  8
0
100
AcDbBlockEnd
  0
BLOCK
  5
185
330
184
100
AcDbEntity
  8
0
100
AcDbBlockBegin
  2
_D_6
 70
     0
 10
0.0
 20
0.0
 30
0.0
  3
_D_6
  1

  0
SOLID
  5
187
330
184
100
AcDbEntity
  8
0
  6
Continuous
 62
     7
370
    18
100
AcDbTrace
 10
424.6159034764
 20
386.7993061286
 30
0.0
 11
433.6159034764
 21
385.4146907439
 31
0.0
 12
433.6159034764
 22
388.1839215132
 32
0.0
 13
433.6159034764
 23
388.1839215132
 33
0.0
  0
SOLID
  5
188
330
184
100
AcDbEntity
  8
0
  6
Continuous
 62
     7
370
    18
100
AcDbTrace
 10
487.1159034764
 20
386.7993061286
 30
0.0
 11
478.1159034764
 21
388.1839215132
 31
0.0
 12
478.1159034764
 22
385.4146907439
 32
0.0
 13
478.1159034764
 23
385.4146907439
 33
0.0
  0
LINE
  5
189
330
184
100
AcDbEntity
  8
0
  6
Continuous
 62
     7
370
     0
100
AcDbLine
 10
424.6159034764
 20
365.7873031009
 30
0.0
 11
424.6159034764
 21
389.7993061286
 31
0.0
  0
LINE
  5
18A
330
184
100
AcDbEntity
  8
0
  6
Continuous
 62
     7
370
     0
100
AcDbLine
 10
487.1159034764
 20
283.2873031009
 30
0.0
 11
487.1159034764
 21
389.7993061286
 31
0.0
  0
LINE
  5
18B
330
184
100
AcDbEntity
  8
0
  6
Continuous
 62
     7
370
     0
100
AcDbLine
 10
424.6159034764
 20
386.7993061286
 30
0.0
 11
487.1159034764
 21
386.7993061286
 31
0.0
  0
MTEXT
  5
18C
330
184
100
AcDbEntity
  8
0
  6
Continuous
 62
     7
370
    18
100
AcDbMText
 10
441.9009040093
 20
397.6274751426
 30
0.0
 40
8.4
 41
0.0
 71
     1
 72
     1
  1
62,50
  7
SLDTEXTSTYLE0
 73
     1
 44
1.0
  0
ENDBLK
  5
186
330
184
100
AcDbEntity
  8
0
100
AcDbBlockEnd
  0
BLOCK
  5
18F
330
18E
100
AcDbEntity
  8
0
100
AcDbBlockBegin
  2
_D_7
 70
     0
 10
0.0
 20
0.0
 30
0.0
  3
_D_7
  1

  0
SOLID
  5
191
330
18E
100
AcDbEntity
  8
0
  6
Continuous
 62
     7
370
    18
100
AcDbTrace
 10
487.1159034764
 20
386.7993061286
 30
0.0
 11
496.1159034764
 21
385.4146907439
 31
0.0
 12
496.1159034764
 22
388.1839215132
 32
0.0
 13
496.1159034764
 23
388.1839215132
 33
0.0
  0
SOLID
  5
192
330
18E
100
AcDbEntity
  8
0
  6
Continuous
 62
     7
370
    18
100
AcDbTrace
 10
532.1159034764
 20
386.7993061286
 30
0.0
 11
523.1159034764
 21
388.1839215132
 31
0.0
 12
523.1159034764
 22
385.4146907439
 32
0.0
 13
523.1159034764
 23
385.4146907439
 33
0.0
  0
LINE
  5
193
330
18E
100
AcDbEntity
  8
0
  6
Continuous
 62
     7
370
     0
100
AcDbLine
 10
487.1159034764
 20
283.2873031009
 30
0.0
 11
487.1159034764
 21
389.7993061286
 31
0.0
  0
LINE
  5
194
330
18E
100
AcDbEntity
  8
0
  6
Continuous
 62
     7
370
     0
100
AcDbLine
 10
532.1159034764
 20
283.2873031009
 30
0.0
 11
532.1159034764
 21
389.7993061286
 31
0.0
  0
LINE
  5
195
330
18E
100
AcDbEntity
  8
0
  6
Continuous
 62
     7
370
     0
100
AcDbLine
 10
487.1159034764
 20
386.7993061286
 30
0.0
 11
532.1159034764
 21
386.7993061286
 31
0.0
  0
MTEXT
  5
196
330
18E
100
AcDbEntity
  8
0
  6
Continuous
 62
     7
370
    18
100
AcDbMText
 10
503.4092368914
 20
397.6274751426
 30
0.0
 40
8.4
 41
0.0
 71
     1
 72
     1
  1
45
  7
SLDTEXTSTYLE0
 73
     1
 44
1.0
  0
ENDBLK
  5
190
330
18E
100
AcDbEntity
  8
0
100
AcDbBlockEnd
  0
BLOCK
  5
199
330
198
100
AcDbEntity
  8
0
100
AcDbBlockBegin
  2
_D_8
 70
     0
 10
0.0
 20
0.0
 30
0.0
  3
_D_8
  1

  0
SOLID
  5
19B
330
198
100
AcDbEntity
  8
0
  6
Continuous
 62
     7
370
    18
100
AcDbTrace
 10
532.1159034764
 20
386.7993061286
 30
0.0
 11
541.1159034764
 21
385.4146907439
 31
0.0
 12
541.1159034764
 22
388.1839215132
 32
0.0
 13
541.1159034764
 23
388.1839215132
 33
0.0
  0
SOLID
  5
19C
330
198
100
AcDbEntity
  8
0
  6
Continuous
 62
     7
370
    18
100
AcDbTrace
 10
667.1159034764
 20
386.7993061286
 30
0.0
 11
658.1159034764
 21
388.1839215132
 31
0.0
 12
658.1159034764
 22
385.4146907439
 32
0.0
 13
658.1159034764
 23
385.4146907439
 33
0.0
  0
LINE
  5
19D
330
198
100
AcDbEntity
  8
0
  6
Continuous
 62
     7
370
     0
100
AcDbLine
 10
532.1159034764
 20
283.2873031009
 30
0.0
 11
532.1159034764
 21
389.7993061286
 31
0.0
  0
LINE
  5
19E
330
198
100
AcDbEntity
  8
0
  6
Continuous
 62
     7
370
     0
100
AcDbLine
 10
667.1159034764
 20
283.2873031009
 30
0.0
 11
667.1159034764
 21
389.7993061286
 31
0.0
  0
LINE
  5
19F
330
198
100
AcDbEntity
  8
0
  6
Continuous
 62
     7
370
     0
100
AcDbLine
 10
532.1159034764
 20
386.7993061286
 30
0.0
 11
667.1159034764
 21
386.7993061286
 31
0.0
  0
MTEXT
  5
1A0
330
198
100
AcDbEntity
  8
0
  6
Continuous
 62
     7
370
    18
100
AcDbMText
 10
590.3059035989
 20
397.6274751426
 30
0.0
 40
8.4
 41
0.0
 71
     1
 72
     1
  1
135
  7
SLDTEXTSTYLE0
 73
     1
 44
1.0
  0
ENDBLK
  5
19A
330
198
100
AcDbEntity
  8
0
100
AcDbBlockEnd
  0
BLOCK
  5
1A3
330
1A2
100
AcDbEntity
  8
0
100
AcDbBlockBegin
  2
_D_9
 70
     0
 10
0.0
 20
0.0
 30
0.0
  3
_D_9
  1

  0
SOLID
  5
1A5
330
1A2
100
AcDbEntity
  8
0
  6
Continuous
 62
     7
370
    18
100
AcDbTrace
 10
667.1159034764
 20
386.7993061285
 30
0.0
 11
676.1159034764
 21
385.4146907439
 31
0.0
 12
676.1159034764
 22
388.1839215132
 32
0.0
 13
676.1159034764
 23
388.1839215132
 33
0.0
  0
SOLID
  5
1A6
330
1A2
100
AcDbEntity
  8
0
  6
Continuous
 62
     7
370
    18
100
AcDbTrace
 10
712.1159034764
 20
386.7993061285
 30
0.0
 11
703.1159034764
 21
388.1839215132
 31
0.0
 12
703.1159034764
 22
385.4146907439
 32
0.0
 13
703.1159034764
 23
385.4146907439
 33
0.0
  0
LINE
  5
1A7
330
1A2
100
AcDbEntity
  8
0
  6
Continuous
 62
     7
370
     0
100
AcDbLine
 10
667.1159034764
 20
283.2873031009
 30
0.0
 11
667.1159034764
 21
389.7993061285
 31
0.0
  0
LINE
  5
1A8
330
1A2
100
AcDbEntity
  8
0
  6
Continuous
 62
     7
370
     0
100
AcDbLine
 10
712.1159034764
 20
283.2873031009
 30
0.0
 11
712.1159034764
 21
389.7993061285
 31
0.0
  0
LINE
  5
1A9
330
1A2
100
AcDbEntity
  8
0
  6
Continuous
 62
     7
370
     0
100
AcDbLine
 10
667.1159034764
 20
386.7993061285
 30
0.0
 11
712.1159034764
 21
386.7993061285
 31
0.0
  0
MTEXT
  5
1AA
330
1A2
100
AcDbEntity
  8
0
  6
Continuous
 62
     7
370
    18
100
AcDbMText
 10
683.4092368914
 20
397.6274751426
 30
0.0
 40
8.4
 41
0.0
 71
     1
 72
     1
  1
45
  7
SLDTEXTSTYLE0
 73
     1
 44
1.0
  0
ENDBLK
  5
1A4
330
1A2
100
AcDbEntity
  8
0
100
AcDbBlockEnd
  0
BLOCK
  5
1AD
330
1AC
100
AcDbEntity
  8
0
100
AcDbBlockBegin
  2
_D_10
 70
     0
 10
0.0
 20
0.0
 30
0.0
  3
_D_10
  1

  0
SOLID
  5
1AF
330
1AC
100
AcDbEntity
  8
0
  6
Continuous
 62
     7
370
    18
100
AcDbTrace
 10
712.1159034764
 20
386.7993061286
 30
0.0
 11
721.1159034764
 21
385.4146907439
 31
0.0
 12
721.1159034764
 22
388.1839215132
 32
0.0
 13
721.1159034764
 23
388.1839215132
 33
0.0
  0
SOLID
  5
1B0
330
1AC
100
AcDbEntity
  8
0
  6
Continuous
 62
     7
370
    18
100
AcDbTrace
 10
774.6159034764
 20
386.7993061286
 30
0.0
 11
765.6159034764
 21
388.1839215132
 31
0.0
 12
765.6159034764
 22
385.4146907439
 32
0.0
 13
765.6159034764
 23
385.4146907439
 33
0.0
  0
LINE
  5
1B1
330
1AC
100
AcDbEntity
  8
0
  6
Continuous
 62
     7
370
     0
100
AcDbLine
 10
712.1159034764
 20
283.2873031009
 30
0.0
 11
712.1159034764
 21
389.7993061286
 31
0.0
  0
LINE
  5
1B2
330
1AC
100
AcDbEntity
  8
0
  6
Continuous
 62
     7
370
     0
100
AcDbLine
 10
774.6159034764
 20
365.7873031009
 30
0.0
 11
774.6159034764
 21
389.7993061286
 31
0.0
  0
LINE
  5
1B3
330
1AC
100
AcDbEntity
  8
0
  6
Continuous
 62
     7
370
     0
100
AcDbLine
 10
712.1159034764
 20
386.7993061286
 30
0.0
 11
774.6159034764
 21
386.7993061286
 31
0.0
  0
MTEXT
  5
1B4
330
1AC
100
AcDbEntity
  8
0
  6
Continuous
 62
     7
370
    18
100
AcDbMText
 10
729.4009040093
 20
397.6274751426
 30
0.0
 40
8.4
 41
0.0
 71
     1
 72
     1
  1
62,50
  7
SLDTEXTSTYLE0
 73
     1
 44
1.0
  0
ENDBLK
  5
1AE
330
1AC
100
AcDbEntity
  8
0
100
AcDbBlockEnd
  0
BLOCK
  5
1B7
330
1B6
100
AcDbEntity
  8
0
100
AcDbBlockBegin
  2
_D_11
 70
     0
 10
0.0
 20
0.0
 30
0.0
  3
_D_11
  1

  0
SOLID
  5
1B9
330
1B6
100
AcDbEntity
  8
0
  6
Continuous
 62
     7
370
    18
100
AcDbTrace
 10
424.6159034764
 20
196.7873031009
 30
0.0
 11
433.6159034764
 21
195.4026877163
 31
0.0
 12
433.6159034764
 22
198.1719184855
 32
0.0
 13
433.6159034764
 23
198.1719184855
 33
0.0
  0
SOLID
  5
1BA
330
1B6
100
AcDbEntity
  8
0
  6
Continuous
 62
     7
370
    18
100
AcDbTrace
 10
774.6159034764
 20
196.7873031009
 30
0.0
 11
765.6159034764
 21
198.1719184855
 31
0.0
 12
765.6159034764
 22
195.4026877163
 32
0.0
 13
765.6159034764
 23
195.4026877163
 33
0.0
  0
LINE
  5
1BB
330
1B6
100
AcDbEntity
  8
0
  6
Continuous
 62
     7
370
     0
100
AcDbLine
 10
424.6159034764
 20
239.7873031009
 30
0.0
 11
424.6159034764
 21
193.7873031009
 31
0.0
  0
LINE
  5
1BC
330
1B6
100
AcDbEntity
  8
0
  6
Continuous
 62
     7
370
     0
100
AcDbLine
 10
774.6159034764
 20
239.7873031009
 30
0.0
 11
774.6159034764
 21
193.7873031009
 31
0.0
  0
LINE
  5
1BD
330
1B6
100
AcDbEntity
  8
0
  6
Continuous
 62
     7
370
     0
100
AcDbLine
 10
424.6159034764
 20
196.7873031009
 30
0.0
 11
774.6159034764
 21
196.7873031009
 31
0.0
  0
MTEXT
  5
1BE
330
1B6
100
AcDbEntity
  8
0
  6
Continuous
 62
     7
370
    18
100
AcDbMText
 10
590.3059035989
 20
207.615472115
 30
0.0
 40
8.4
 41
0.0
 71
     1
 72
     1
  1
350
  7
SLDTEXTSTYLE0
 73
     1
 44
1.0
  0
ENDBLK
  5
1B8
330
1B6
100
AcDbEntity
  8
0
100
AcDbBlockEnd
  0
BLOCK
  5
1C1
330
1C0
100
AcDbEntity
  8
0
100
AcDbBlockBegin
  2
_D_12
 70
     0
 10
0.0
 20
0.0
 30
0.0
  3
_D_12
  1

  0
SOLID
  5
1C3
330
1C0
100
AcDbEntity
  8
0
  6
Continuous
 62
     7
370
    18
100
AcDbTrace
 10
810.6159034764
 20
232.7873031009
 30
0.0
 11
812.0005188611
 21
241.7873031009
 31
0.0
 12
809.2312880918
 22
241.7873031009
 32
0.0
 13
809.2312880918
 23
241.7873031009
 33
0.0
  0
SOLID
  5
1C4
330
1C0
100
AcDbEntity
  8
0
  6
Continuous
 62
     7
370
    18
100
AcDbTrace
 10
810.6159034764
 20
372.7873031009
 30
0.0
 11
809.2312880918
 21
363.7873031009
 31
0.0
 12
812.0005188611
 22
363.7873031009
 32
0.0
 13
812.0005188611
 23
363.7873031009
 33
0.0
  0
LINE
  5
1C5
330
1C0
100
AcDbEntity
  8
0
  6
Continuous
 62
     7
370
     0
100
AcDbLine
 10
767.6159034764
 20
232.7873031009
 30
0.0
 11
813.6159034764
 21
232.7873031009
 31
0.0
  0
LINE
  5
1C6
330
1C0
100
AcDbEntity
  8
0
  6
Continuous
 62
     7
370
     0
100
AcDbLine
 10
767.6159034764
 20
372.7873031009
 30
0.0
 11
813.6159034764
 21
372.7873031009
 31
0.0
  0
LINE
  5
1C7
330
1C0
100
AcDbEntity
  8
0
  6
Continuous
 62
     7
370
     0
100
AcDbLine
 10
810.6159034764
 20
232.7873031009
 30
0.0
 11
810.6159034764
 21
372.7873031009
 31
0.0
  0
MTEXT
  5
1C8
330
1C0
100
AcDbEntity
  8
0
  6
Continuous
 62
     7
370
    18
100
AcDbMText
 10
799.7877344624
 20
293.4773032233
 30
0.0
 40
8.4
 41
0.0
 71
     1
 72
     1
  1
140
  7
SLDTEXTSTYLE0
 11
6.123233995736766E-17
 21
1.0
 31
0.0
 73
     1
 44
1.0
  0
ENDBLK
  5
1C2
330
1C0
100
AcDbEntity
  8
0
100
AcDbBlockEnd
  0
BLOCK
  5
1CB
330
1CA
100
AcDbEntity
  8
0
100
AcDbBlockBegin
  2
_D_13
 70
     0
 10
0.0
 20
0.0
 30
0.0
  3
_D_13
  1

  0
SOLID
  5
1CD
330
1CA
100
AcDbEntity
  8
0
  6
Continuous
 62
     7
370
    18
100
AcDbTrace
 10
400.6159034764
 20
232.7873031009
 30
0.0
 11
402.0005188611
 21
241.7873031009
 31
0.0
 12
399.2312880918
 22
241.7873031009
 32
0.0
 13
399.2312880918
 23
241.7873031009
 33
0.0
  0
SOLID
  5
1CE
330
1CA
100
AcDbEntity
  8
0
  6
Continuous
 62
     7
370
    18
100
AcDbTrace
 10
400.6159034764
 20
280.2873031009
 30
0.0
 11
399.2312880918
 21
271.2873031009
 31
0.0
 12
402.0005188611
 22
271.2873031009
 32
0.0
 13
402.0005188611
 23
271.2873031009
 33
0.0
  0
LINE
  5
1CF
330
1CA
100
AcDbEntity
  8
0
  6
Continuous
 62
     7
370
     0
100
AcDbLine
 10
431.6159034764
 20
232.7873031009
 30
0.0
 11
397.6159034764
 21
232.7873031009
 31
0.0
  0
LINE
  5
1D0
330
1CA
100
AcDbEntity
  8
0
  6
Continuous
 62
     7
370
     0
100
AcDbLine
 10
709.1159034764
 20
280.2873031009
 30
0.0
 11
397.6159034764
 21
280.2873031009
 31
0.0
  0
LINE
  5
1D1
330
1CA
100
AcDbEntity
  8
0
  6
Continuous
 62
     7
370
     0
100
AcDbLine
 10
400.6159034764
 20
232.7873031009
 30
0.0
 11
400.6159034764
 21
280.2873031009
 31
0.0
  0
MTEXT
  5
1D2
330
1CA
100
AcDbEntity
  8
0
  6
Continuous
 62
     7
370
    18
100
AcDbMText
 10
389.7877344624
 20
242.5723036338
 30
0.0
 40
8.4
 41
0.0
 71
     1
 72
     1
  1
47,50
  7
SLDTEXTSTYLE0
 11
6.123233995736766E-17
 21
1.0
 31
0.0
 73
     1
 44
1.0
  0
ENDBLK
  5
1CC
330
1CA
100
AcDbEntity
  8
0
100
AcDbBlockEnd
  0
BLOCK
  5
1D5
330
1D4
100
AcDbEntity
  8
0
100
AcDbBlockBegin
  2
_D_14
 70
     0
 10
0.0
 20
0.0
 30
0.0
  3
_D_14
  1

  0
SOLID
  5
1D7
330
1D4
100
AcDbEntity
  8
0
  6
Continuous
 62
     7
370
    18
100
AcDbTrace
 10
400.6159034764
 20
280.2873031009
 30
0.0
 11
402.0005188611
 21
289.2873031009
 31
0.0
 12
399.2312880918
 22
289.2873031009
 32
0.0
 13
399.2312880918
 23
289.2873031009
 33
0.0
  0
SOLID
  5
1D8
330
1D4
100
AcDbEntity
  8
0
  6
Continuous
 62
     7
370
    18
100
AcDbTrace
 10
400.6159034764
 20
325.2873031009
 30
0.0
 11
399.2312880918
 21
316.2873031009
 31
0.0
 12
402.0005188611
 22
316.2873031009
 32
0.0
 13
402.0005188611
 23
316.2873031009
 33
0.0
  0
LINE
  5
1D9
330
1D4
100
AcDbEntity
  8
0
  6
Continuous
 62
     7
370
     0
100
AcDbLine
 10
709.1159034764
 20
280.2873031009
 30
0.0
 11
397.6159034764
 21
280.2873031009
 31
0.0
  0
LINE
  5
1DA
330
1D4
100
AcDbEntity
  8
0
  6
Continuous
 62
     7
370
     0
100
AcDbLine
 10
709.1159034764
 20
325.2873031009
 30
0.0
 11
397.6159034764
 21
325.2873031009
 31
0.0
  0
LINE
  5
1DB
330
1D4
100
AcDbEntity
  8
0
  6
Continuous
 62
     7
370
     0
100
AcDbLine
 10
400.6159034764
 20
280.2873031009
 30
0.0
 11
400.6159034764
 21
325.2873031009
 31
0.0
  0
MTEXT
  5
1DC
330
1D4
100
AcDbEntity
  8
0
  6
Continuous
 62
     7
370
    18
100
AcDbMText
 10
389.7877344624
 20
296.5806365158
 30
0.0
 40
8.4
 41
0.0
 71
     1
 72
     1
  1
45
  7
SLDTEXTSTYLE0
 11
6.123233995736766E-17
 21
1.0
 31
0.0
 73
     1
 44
1.0
  0
ENDBLK
  5
1D6
330
1D4
100
AcDbEntity
  8
0
100
AcDbBlockEnd
  0
BLOCK
  5
1DF
330
1DE
100
AcDbEntity
  8
0
100
AcDbBlockBegin
  2
_D_15
 70
     0
 10
0.0
 20
0.0
 30
0.0
  3
_D_15
  1

  0
SOLID
  5
1E1
330
1DE
100
AcDbEntity
  8
0
  6
Continuous
 62
     7
370
    18
100
AcDbTrace
 10
400.6159034764
 20
325.2873031009
 30
0.0
 11
402.0005188611
 21
334.2873031009
 31
0.0
 12
399.2312880918
 22
334.2873031009
 32
0.0
 13
399.2312880918
 23
334.2873031009
 33
0.0
  0
SOLID
  5
1E2
330
1DE
100
AcDbEntity
  8
0
  6
Continuous
 62
     7
370
    18
100
AcDbTrace
 10
400.6159034764
 20
372.7873031009
 30
0.0
 11
399.2312880918
 21
363.7873031009
 31
0.0
 12
402.0005188611
 22
363.7873031009
 32
0.0
 13
402.0005188611
 23
363.7873031009
 33
0.0
  0
LINE
  5
1E3
330
1DE
100
AcDbEntity
  8
0
  6
Continuous
 62
     7
370
     0
100
AcDbLine
 10
709.1159034764
 20
325.2873031009
 30
0.0
 11
397.6159034764
 21
325.2873031009
 31
0.0
  0
LINE
  5
1E4
330
1DE
100
AcDbEntity
  8
0
  6
Continuous
 62
     7
370
     0
100
AcDbLine
 10
431.6159034764
 20
372.7873031009
 30
0.0
 11
397.6159034764
 21
372.7873031009
 31
0.0
  0
LINE
  5
1E5
330
1DE
100
AcDbEntity
  8
0
  6
Continuous
 62
     7
370
     0
100
AcDbLine
 10
400.6159034764
 20
325.2873031009
 30
0.0
 11
400.6159034764
 21
372.7873031009
 31
0.0
  0
MTEXT
  5
1E6
330
1DE
100
AcDbEntity
  8
0
  6
Continuous
 62
     7
370
    18
100
AcDbMText
 10
389.7877344624
 20
335.0723036338
 30
0.0
 40
8.4
 41
0.0
 71
     1
 72
     1
  1
47,50
  7
SLDTEXTSTYLE0
 11
6.123233995736766E-17
 21
1.0
 31
0.0
 73
     1
 44
1.0
  0
ENDBLK
  5
1E0
330
1DE
100
AcDbEntity
  8
0
100
AcDbBlockEnd
  0
BLOCK
  5
1EA
330
1E9
100
AcDbEntity
  8
0
100
AcDbBlockBegin
  2
_None
 70
     0
 10
0.0
 20
0.0
 30
0.0
  3
_None
  1

  0
ENDBLK
  5
1EB
330
1E9
100
AcDbEntity
  8
0
100
AcDbBlockEnd
  0
BLOCK
  5
1ED
330
1EC
100
AcDbEntity
  8
0
100
AcDbBlockBegin
  2
_D_16
 70
     0
 10
0.0
 20
0.0
 30
0.0
  3
_D_16
  1

  0
SOLID
  5
1EF
330
1EC
100
AcDbEntity
  8
0
  6
Continuous
 62
     7
370
    18
100
AcDbTrace
 10
483.5395446197
 20
328.0185404263
 30
0.0
 11
477.2272076217
 21
334.5814331869
 31
0.0
 12
475.5464461907
 22
332.3805969673
 32
0.0
 13
475.5464461907
 23
332.3805969673
 33
0.0
  0
LINE
  5
1F0
330
1EC
100
AcDbEntity
  8
0
  6
Continuous
 62
     7
370
     0
100
AcDbLine
 10
483.5395446197
 20
328.0185404263
 30
0.0
 11
406.5703592357
 21
386.7993061286
 31
0.0
  0
LINE
  5
1F1
330
1EC
100
AcDbEntity
  8
0
  6
Continuous
 62
     7
370
     0
100
AcDbLine
 10
490.6922623332
 20
322.5560657755
 30
0.0
 11
483.5395446197
 21
328.0185404263
 31
0.0
  0
LINE
  5
1F2
330
1EC
100
AcDbEntity
  8
0
  6
Continuous
 62
     7
370
     0
100
AcDbLine
 10
406.5703592357
 20
386.7993061286
 30
0.0
 11
305.5117835042
 21
386.7993061286
 31
0.0
  0
MTEXT
  5
1F4
330
1EC
100
AcDbEntity
  8
0
  6
Continuous
 62
     7
370
    18
100
AcDbMText
 10
305.518204042
 20
411.2191432455
 30
0.0
 40
8.4
 41
0.0
 71
     1
 72
     1
  1
8 x
  7
SLDTEXTSTYLE6
 73
     1
 44
1.0
  0
MTEXT
  5
1F5
330
1EC
100
AcDbEntity
  8
0
  6
Continuous
 62
     7
370
    18
100
AcDbMText
 10
323.3098705982
 20
411.0908098469
 30
0.0
 40
8.4
 41
0.0
 71
     1
 72
     1
  1
%%c
  7
SLDTEXTSTYLE0
 73
     1
 44
1.0
  0
MTEXT
  5
1F6
330
1EC
100
AcDbEntity
  8
0
  6
Continuous
 62
     7
370
    18
100
AcDbMText
 10
339.1281211925
 20
411.2191432455
 30
0.0
 40
8.4
 41
0.0
 71
     1
 72
     1
  1
9 PASSANTE
  7
SLDTEXTSTYLE0
 73
     1
 44
1.0
  0
INSERT
  5
1FC
330
1EC
100
AcDbEntity
  8
0
  6
Continuous
 62
     7
370
    18
100
AcDbBlockReference
  2
SW_SYMBOL_HOLE_SINK
 10
305.5117835042
 20
387.9641504024
 30
0.0
 41
0.0035765625
 42
0.0035765625
 43
0.0035765625
  0
MTEXT
  5
1FD
330
1EC
100
AcDbEntity
  8
0
  6
Continuous
 62
     7
370
    18
100
AcDbMText
 10
328.1812832442
 20
397.6274756665
 30
0.0
 40
8.4
 41
0.0
 71
     1
 72
     1
  1
%%c
  7
SLDTEXTSTYLE0
 73
     1
 44
1.0
  0
MTEXT
  5
1FE
330
1EC
100
AcDbEntity
  8
0
  6
Continuous
 62
     7
370
    18
100
AcDbMText
 10
343.9995352355
 20
397.7558090651
 30
0.0
 40
8.4
 41
0.0
 71
     1
 72
     1
  1
18,25 X 90°
  7
SLDTEXTSTYLE0
 73
     1
 44
1.0
  0
ENDBLK
  5
1EE
330
1EC
100
AcDbEntity
  8
0
100
AcDbBlockEnd
  0
BLOCK
  5
1F8
330
1F7
100
AcDbEntity
  8
0
100
AcDbBlockBegin
  2
SW_SYMBOL_HOLE_SINK
 70
     0
 10
0.0
 20
0.0
 30
0.0
  3
SW_SYMBOL_HOLE_SINK
  1

  0
LINE
  5
1FA
330
1F7
100
AcDbEntity
  8
0
  6
Continuous
 62
     0
370
    18
100
AcDbLine
 10
0.0
 20
2625.0
 30
0.0
 11
2400.0
 21
225.0
 31
0.0
  0
LINE
  5
1FB
330
1F7
100
AcDbEntity
  8
0
  6
Continuous
 62
     0
370
    18
100
AcDbLine
 10
2400.0
 20
225.0
 30
0.0
 11
4800.0
 21
2625.0
 31
0.0
  0
ENDBLK
  5
1F9
330
1F7
100
AcDbEntity
  8
0
100
AcDbBlockEnd
  0
BLOCK
  5
202
330
201
100
AcDbEntity
  8
0
100
AcDbBlockBegin
  2
_D_17
 70
     0
 10
0.0
 20
0.0
 30
0.0
  3
_D_17
  1

  0
SOLID
  5
204
330
201
100
AcDbEntity
  8
0
  6
Continuous
 62
     7
370
    18
100
AcDbTrace
 10
761.6909034764
 20
341.3813085266
 30
0.0
 11
767.390015574
 21
348.4832294684
 31
0.0
 12
764.9917913789
 22
349.867844853
 32
0.0
 13
764.9917913789
 23
349.867844853
 33
0.0
  0
LINE
  5
205
330
201
100
AcDbEntity
  8
0
  6
Continuous
 62
     7
370
     0
100
AcDbLine
 10
761.6909034764
 20
341.3813085266
 30
0.0
 11
792.9103080578
 21
395.4549034435
 31
0.0
  0
LINE
  5
206
330
201
100
AcDbEntity
  8
0
  6
Continuous
 62
     7
370
     0
100
AcDbLine
 10
759.6159034764
 20
337.7873031009
 30
0.0
 11
761.6909034764
 21
341.3813085266
 31
0.0
  0
LINE
  5
207
330
201
100
AcDbEntity
  8
0
  6
Continuous
 62
     7
370
     0
100
AcDbLine
 10
792.9103080578
 20
395.4549034435
 30
0.0
 11
860.3578041113
 21
395.4549034435
 31
0.0
  0
MTEXT
  5
208
330
201
100
AcDbEntity
  8
0
  6
Continuous
 62
     7
370
    18
100
AcDbMText
 10
797.6728080578
 20
406.2830724576
 30
0.0
 40
8.4
 41
0.0
 71
     1
 72
     1
  1
8,30 X 18,30
  7
SLDTEXTSTYLE0
 73
     1
 44
1.0
  0
ENDBLK
  5
203
330
201
100
AcDbEntity
  8
0
100
AcDbBlockEnd
  0
BLOCK
  5
20C
330
20B
100
AcDbEntity
  8
0
100
AcDbBlockBegin
  2
_D_18
 70
     0
 10
0.0
 20
0.0
 30
0.0
  3
_D_18
  1

  0
SOLID
  5
20E
330
20B
100
AcDbEntity
  8
0
  6
Continuous
 62
     7
370
    18
100
AcDbTrace
 10
772.5227980999
 20
236.6651288618
 30
0.0
 11
778.7913175971
 21
230.0603712527
 31
0.0
 12
780.4866889249
 22
232.2499728407
 32
0.0
 13
780.4866889249
 23
232.2499728407
 33
0.0
  0
LINE
  5
20F
330
20B
100
AcDbEntity
  8
0
  6
Continuous
 62
     7
370
     0
100
AcDbLine
 10
772.5227980999
 20
236.6651288618
 30
0.0
 11
814.8588216835
 21
203.8850647138
 31
0.0
  0
LINE
  5
210
330
20B
100
AcDbEntity
  8
0
  6
Continuous
 62
     7
370
     0
100
AcDbLine
 10
772.5227980999
 20
236.6651288618
 30
0.0
 11
764.6159034764
 21
242.7873031009
 31
0.0
  0
MTEXT
  5
211
330
20B
100
AcDbEntity
  8
0
  6
Continuous
 62
     7
370
    18
100
AcDbMText
 10
806.2645326031
 20
224.171299686
 30
0.0
 40
8.4
 41
0.0
 71
     1
 72
     1
  1
R10
  7
SLDTEXTSTYLE0
 11
0.7906894623456309
 21
-0.6122174239072072
 31
0.0
 73
     1
 44
1.0
  0
ENDBLK
  5
20D
330
20B
100
AcDbEntity
  8
0
100
AcDbBlockEnd
  0
BLOCK
  5
23E
330
23D
100
AcDbEntity
  8
0
100
AcDbBlockBegin
  2
_D_19
 70
     0
 10
0.0
 20
0.0
 30
0.0
  3
_D_19
  1

  0
SOLID
  5
240
330
23D
100
AcDbEntity
  8
0
  6
Continuous
 62
     7
370
    18
100
AcDbTrace
 10
793.8331463228
 20
453.5313403737
 30
0.0
 11
795.2177617074
 21
462.5313403737
 31
0.0
 12
792.4485309382
 22
462.5313403737
 32
0.0
 13
792.4485309382
 23
462.5313403737
 33
0.0
  0
SOLID
  5
241
330
23D
100
AcDbEntity
  8
0
  6
Continuous
 62
     7
370
    18
100
AcDbTrace
 10
793.8331463228
 20
443.5313403737
 30
0.0
 11
792.4485309382
 21
434.5313403737
 31
0.0
 12
795.2177617074
 22
434.5313403737
 32
0.0
 13
795.2177617074
 23
434.5313403737
 33
0.0
  0
LINE
  5
242
330
23D
100
AcDbEntity
  8
0
  6
Continuous
 62
     7
370
     0
100
AcDbLine
 10
777.6159034764
 20
453.5313403737
 30
0.0
 11
796.8331463228
 21
453.5313403737
 31
0.0
  0
LINE
  5
243
330
23D
100
AcDbEntity
  8
0
  6
Continuous
 62
     7
370
     0
100
AcDbLine
 10
777.6159034764
 20
443.5313403737
 30
0.0
 11
796.8331463228
 21
443.5313403737
 31
0.0
  0
LINE
  5
244
330
23D
100
AcDbEntity
  8
0
  6
Continuous
 62
     7
370
     0
100
AcDbLine
 10
793.8331463228
 20
453.5313403737
 30
0.0
 11
793.8331463228
 21
473.8764191739
 31
0.0
  0
LINE
  5
245
330
23D
100
AcDbEntity
  8
0
  6
Continuous
 62
     7
370
     0
100
AcDbLine
 10
793.8331463228
 20
453.5313403737
 30
0.0
 11
793.8331463228
 21
443.5313403737
 31
0.0
  0
LINE
  5
246
330
23D
100
AcDbEntity
  8
0
  6
Continuous
 62
     7
370
     0
100
AcDbLine
 10
793.8331463228
 20
443.5313403737
 30
0.0
 11
793.8331463228
 21
426.223648066
 31
0.0
  0
MTEXT
  5
247
330
23D
100
AcDbEntity
  8
0
  6
Continuous
 62
     7
370
    18
100
AcDbMText
 10
783.0049773087
 20
461.4630860038
 30
0.0
 40
8.4
 41
0.0
 71
     1
 72
     1
  1
10
  7
SLDTEXTSTYLE0
 11
-7.044195017643634E-15
 21
1.0
 31
0.0
 73
     1
 44
1.0
  0
ENDBLK
  5
23F
330
23D
100
AcDbEntity
  8
0
100
AcDbBlockEnd
  0
BLOCK
  5
272
330
271
100
AcDbEntity
  8
0
100
AcDbBlockBegin
  2
_D_20
 70
     0
 10
0.0
 20
0.0
 30
0.0
  3
_D_20
  1

  0
SOLID
  5
274
330
271
100
AcDbEntity
  8
0
  6
Continuous
 62
     7
370
    18
100
AcDbTrace
 10
98.8807229894
 20
138.802717303
 30
0.0
 11
107.8807229894
 21
137.4181019184
 31
0.0
 12
107.8807229894
 22
140.1873326876
 32
0.0
 13
107.8807229894
 23
140.1873326876
 33
0.0
  0
SOLID
  5
275
330
271
100
AcDbEntity
  8
0
  6
Continuous
 62
     7
370
    18
100
AcDbTrace
 10
238.8807229894
 20
138.802717303
 30
0.0
 11
229.8807229894
 21
140.1873326876
 31
0.0
 12
229.8807229894
 22
137.4181019184
 32
0.0
 13
229.8807229894
 23
137.4181019184
 33
0.0
  0
LINE
  5
276
330
271
100
AcDbEntity
  8
0
  6
Continuous
 62
     7
370
     0
100
AcDbLine
 10
98.8807229894
 20
169.802717303
 30
0.0
 11
98.8807229894
 21
135.802717303
 31
0.0
  0
LINE
  5
277
330
271
100
AcDbEntity
  8
0
  6
Continuous
 62
     7
370
     0
100
AcDbLine
 10
238.8807229894
 20
169.802717303
 30
0.0
 11
238.8807229894
 21
135.802717303
 31
0.0
  0
LINE
  5
278
330
271
100
AcDbEntity
  8
0
  6
Continuous
 62
     7
370
     0
100
AcDbLine
 10
98.8807229894
 20
138.802717303
 30
0.0
 11
238.8807229894
 21
138.802717303
 31
0.0
  0
MTEXT
  5
279
330
271
100
AcDbEntity
  8
0
  6
Continuous
 62
     7
370
    18
100
AcDbMText
 10
159.5707231119
 20
149.6308863171
 30
0.0
 40
8.4
 41
0.0
 71
     1
 72
     1
  1
140
  7
SLDTEXTSTYLE0
 73
     1
 44
1.0
  0
ENDBLK
  5
273
330
271
100
AcDbEntity
  8
0
100
AcDbBlockEnd
  0
BLOCK
  5
27C
330
27B
100
AcDbEntity
  8
0
100
AcDbBlockBegin
  2
_D_21
 70
     0
 10
0.0
 20
0.0
 30
0.0
  3
_D_21
  1

  0
SOLID
  5
27E
330
27B
100
AcDbEntity
  8
0
  6
Continuous
 62
     7
370
    18
100
AcDbTrace
 10
74.8807229894
 20
512.802717303
 30
0.0
 11
73.4961076048
 21
503.802717303
 31
0.0
 12
76.2653383741
 22
503.802717303
 32
0.0
 13
76.2653383741
 23
503.802717303
 33
0.0
  0
SOLID
  5
27F
330
27B
100
AcDbEntity
  8
0
  6
Continuous
 62
     7
370
    18
100
AcDbTrace
 10
74.8807229894
 20
162.802717303
 30
0.0
 11
76.2653383741
 21
171.802717303
 31
0.0
 12
73.4961076048
 22
171.802717303
 32
0.0
 13
73.4961076048
 23
171.802717303
 33
0.0
  0
LINE
  5
280
330
27B
100
AcDbEntity
  8
0
  6
Continuous
 62
     7
370
     0
100
AcDbLine
 10
105.8807229894
 20
512.802717303
 30
0.0
 11
71.8807229894
 21
512.802717303
 31
0.0
  0
LINE
  5
281
330
27B
100
AcDbEntity
  8
0
  6
Continuous
 62
     7
370
     0
100
AcDbLine
 10
105.8807229894
 20
162.802717303
 30
0.0
 11
71.8807229894
 21
162.802717303
 31
0.0
  0
LINE
  5
282
330
27B
100
AcDbEntity
  8
0
  6
Continuous
 62
     7
370
     0
100
AcDbLine
 10
74.8807229894
 20
512.802717303
 30
0.0
 11
74.8807229894
 21
162.802717303
 31
0.0
  0
MTEXT
  5
283
330
27B
100
AcDbEntity
  8
0
  6
Continuous
 62
     7
370
    18
100
AcDbMText
 10
64.0525539754
 20
328.4927174254
 30
0.0
 40
8.4
 41
0.0
 71
     1
 72
     1
  1
350
  7
SLDTEXTSTYLE0
 11
-7.044195017643634E-15
 21
1.0
 31
0.0
 73
     1
 44
1.0
  0
ENDBLK
  5
27D
330
27B
100
AcDbEntity
  8
0
100
AcDbBlockEnd
  0
BLOCK
  5
285
330
284
100
AcDbEntity
  8
0
100
AcDbBlockBegin
  2
SW_NOTE_0
 70
     0
 10
0.0
 20
0.0
 30
0.0
  3
SW_NOTE_0
  1

  0
MTEXT
  5
287
330
284
100
AcDbEntity
  8
0
  6
Continuous
 62
     0
370
     0
100
AcDbMText
 10
30.8107090887
 20
4.3401459185
 30
0.0
 40
9.0
 41
0.0
 71
     2
 72
     1
  1
12B200107
  7
SLDTEXTSTYLE0
 73
     1
 44
1.0
  0
ENDBLK
  5
286
330
284
100
AcDbEntity
  8
0
100
AcDbBlockEnd
  0
BLOCK
  5
28B
330
28A
100
AcDbEntity
  8
0
100
AcDbBlockBegin
  2
_Dot
 70
     0
 10
0.0
 20
0.0
 30
0.0
  3
_Dot
  1

  0
LWPOLYLINE
  5
28D
330
28A
100
AcDbEntity
  8
0
  6
ByBlock
 62
     0
100
AcDbPolyline
 90
        2
 70
     1
 43
0.5
 10
-0.25
 20
0.0
 42
1.0
 10
0.25
 20
0.0
 42
1.0
  0
LINE
  5
28E
330
28A
100
AcDbEntity
  8
0
  6
ByBlock
 62
     0
370
    -2
100
AcDbLine
 10
-0.5
 20
0.0
 30
0.0
 11
-1.0
 21
0.0
 31
0.0
  0
ENDBLK
  5
28C
330
28A
100
AcDbEntity
  8
0
100
AcDbBlockEnd
  0
BLOCK
  5
2AA
330
2A9
100
AcDbEntity
  8
0
100
AcDbBlockBegin
  2
_D_22
 70
     0
 10
0.0
 20
0.0
 30
0.0
  3
_D_22
  1

  0
SOLID
  5
2AC
330
2A9
100
AcDbEntity
  8
0
  6
Continuous
 62
     7
370
    18
100
AcDbTrace
 10
255.1901798237
 20
552.8136436915
 30
0.0
 11
256.5747952083
 21
561.8136436915
 31
0.0
 12
253.8055644391
 22
561.8136436915
 32
0.0
 13
253.8055644391
 23
561.8136436915
 33
0.0
  0
SOLID
  5
2AD
330
2A9
100
AcDbEntity
  8
0
  6
Continuous
 62
     7
370
    18
100
AcDbTrace
 10
255.1901798237
 20
542.8136436915
 30
0.0
 11
253.8055644391
 21
533.8136436915
 31
0.0
 12
256.5747952083
 22
533.8136436915
 32
0.0
 13
256.5747952083
 23
533.8136436915
 33
0.0
  0
LINE
  5
2AE
330
2A9
100
AcDbEntity
  8
0
  6
Continuous
 62
     7
370
     0
100
AcDbLine
 10
241.8807229894
 20
552.8136436915
 30
0.0
 11
258.1901798237
 21
552.8136436915
 31
0.0
  0
LINE
  5
2AF
330
2A9
100
AcDbEntity
  8
0
  6
Continuous
 62
     7
370
     0
100
AcDbLine
 10
241.8807229894
 20
542.8136436915
 30
0.0
 11
258.1901798237
 21
542.8136436915
 31
0.0
  0
LINE
  5
2B0
330
2A9
100
AcDbEntity
  8
0
  6
Continuous
 62
     7
370
     0
100
AcDbLine
 10
255.1901798237
 20
552.8136436915
 30
0.0
 11
255.1901798237
 21
570.1213359992
 31
0.0
  0
LINE
  5
2B1
330
2A9
100
AcDbEntity
  8
0
  6
Continuous
 62
     7
370
     0
100
AcDbLine
 10
255.1901798237
 20
552.8136436915
 30
0.0
 11
255.1901798237
 21
542.8136436915
 31
0.0
  0
LINE
  5
2B2
330
2A9
100
AcDbEntity
  8
0
  6
Continuous
 62
     7
370
     0
100
AcDbLine
 10
255.1901798237
 20
542.8136436915
 30
0.0
 11
255.1901798237
 21
522.345322404
 31
0.0
  0
MTEXT
  5
2B3
330
2A9
100
AcDbEntity
  8
0
  6
Continuous
 62
     7
370
    18
100
AcDbMText
 10
244.3620108096
 20
522.345322404
 30
0.0
 40
8.4
 41
0.0
 71
     1
 72
     1
  1
10
  7
SLDTEXTSTYLE0
 11
-7.044195017643634E-15
 21
1.0
 31
0.0
 73
     1
 44
1.0
  0
ENDBLK
  5
2AB
330
2A9
100
AcDbEntity
  8
0
100
AcDbBlockEnd
  0
ENDSEC
  0
SECTION
  2
ENTITIES
  0
LINE
  5
65
330
1F
100
AcDbEntity
  8
0
  6
Continuous
 62
     7
370
    18
100
AcDbLine
 10
28.5216424144
 20
607.7947967218
 30
0.0
 11
877.5216424144
 21
607.7947967218
 31
0.0
  0
LINE
  5
66
330
1F
100
AcDbEntity
  8
0
  6
Continuous
 62
     7
370
    18
100
AcDbLine
 10
28.5216424144
 20
19.7947967218
 30
0.0
 11
877.5216424144
 21
19.7947967218
 31
0.0
  0
LINE
  5
67
330
1F
100
AcDbEntity
  8
0
  6
Continuous
 62
     7
370
    18
100
AcDbLine
 10
28.5216424144
 20
19.7947967218
 30
0.0
 11
28.5216424144
 21
592.7947967218
 31
0.0
  0
LINE
  5
68
330
1F
100
AcDbEntity
  8
0
  6
Continuous
 62
     7
370
    18
100
AcDbLine
 10
28.5216424144
 20
592.7947967218
 30
0.0
 11
877.5216424144
 21
592.7947967218
 31
0.0
  0
LINE
  5
69
330
1F
100
AcDbEntity
  8
0
  6
Continuous
 62
     7
370
    18
100
AcDbLine
 10
877.5216424144
 20
19.7947967218
 30
0.0
 11
877.5216424144
 21
592.7947967218
 31
0.0
  0
LINE
  5
6A
330
1F
100
AcDbEntity
  8
0
  6
Continuous
 62
     7
370
    18
100
AcDbLine
 10
13.5216424144
 20
19.7947967218
 30
0.0
 11
13.5216424144
 21
592.7947967218
 31
0.0
  0
LINE
  5
6B
330
1F
100
AcDbEntity
  8
0
  6
Continuous
 62
     7
370
    18
100
AcDbLine
 10
877.5216424144
 20
607.7947967218
 30
0.0
 11
877.5216424144
 21
592.7947967218
 31
0.0
  0
LINE
  5
6C
330
1F
100
AcDbEntity
  8
0
  6
Continuous
 62
     7
370
    18
100
AcDbLine
 10
13.5216424144
 20
592.7947967218
 30
0.0
 11
28.5216424144
 21
592.7947967218
 31
0.0
  0
LINE
  5
6D
330
1F
100
AcDbEntity
  8
0
  6
Continuous
 62
     7
370
    18
100
AcDbLine
 10
13.5216424144
 20
592.7947967218
 30
0.0
 11
13.5216424144
 21
607.7947967218
 31
0.0
  0
LINE
  5
6E
330
1F
100
AcDbEntity
  8
0
  6
Continuous
 62
     7
370
    18
100
AcDbLine
 10
13.5216424144
 20
607.7947967218
 30
0.0
 11
28.5216424144
 21
607.7947967218
 31
0.0
  0
LINE
  5
6F
330
1F
100
AcDbEntity
  8
0
  6
Continuous
 62
     7
370
    18
100
AcDbLine
 10
28.5216424144
 20
592.7947967218
 30
0.0
 11
28.5216424144
 21
607.7947967218
 31
0.0
  0
LINE
  5
70
330
1F
100
AcDbEntity
  8
0
  6
Continuous
 62
     7
370
    18
100
AcDbLine
 10
13.5216424144
 20
19.7947967218
 30
0.0
 11
28.5216424144
 21
19.7947967218
 31
0.0
  0
LINE
  5
71
330
1F
100
AcDbEntity
  8
0
  6
Continuous
 62
     7
370
    18
100
AcDbLine
 10
453.0216424144
 20
607.7947967218
 30
0.0
 11
453.0216424144
 21
592.7947967218
 31
0.0
  0
LINE
  5
72
330
1F
100
AcDbEntity
  8
0
  6
Continuous
 62
     7
370
    18
100
AcDbLine
 10
28.5216424144
 20
306.2947967218
 30
0.0
 11
13.5216424144
 21
306.2947967218
 31
0.0
  0
LINE
  5
73
330
1F
100
AcDbEntity
  8
0
  6
Continuous
 62
     7
370
    18
100
AcDbLine
 10
28.5216424144
 20
456.2947967218
 30
0.0
 11
13.5216424144
 21
456.2947967218
 31
0.0
  0
LINE
  5
74
330
1F
100
AcDbEntity
  8
0
  6
Continuous
 62
     7
370
    18
100
AcDbLine
 10
28.5216424144
 20
156.2947967218
 30
0.0
 11
13.5216424144
 21
156.2947967218
 31
0.0
  0
LINE
  5
75
330
1F
100
AcDbEntity
  8
0
  6
Continuous
 62
     7
370
    18
100
AcDbLine
 10
303.0216424144
 20
607.7947967218
 30
0.0
 11
303.0216424144
 21
592.7947967218
 31
0.0
  0
LINE
  5
76
330
1F
100
AcDbEntity
  8
0
  6
Continuous
 62
     7
370
    18
100
AcDbLine
 10
603.0216424144
 20
607.7947967218
 30
0.0
 11
603.0216424144
 21
592.7947967218
 31
0.0
  0
LINE
  5
77
330
1F
100
AcDbEntity
  8
0
  6
Continuous
 62
     7
370
    18
100
AcDbLine
 10
153.0216424144
 20
607.7947967218
 30
0.0
 11
153.0216424144
 21
592.7947967218
 31
0.0
  0
LINE
  5
78
330
1F
100
AcDbEntity
  8
0
  6
Continuous
 62
     7
370
    18
100
AcDbLine
 10
753.0216424144
 20
607.7947967218
 30
0.0
 11
753.0216424144
 21
592.7947967218
 31
0.0
  0
LINE
  5
79
330
1F
100
AcDbEntity
  8
0
  6
Continuous
 62
     7
370
    18
100
AcDbLine
 10
826.4894340182
 20
30.3023149851
 30
0.0
 11
877.4894340182
 21
30.3023149851
 31
0.0
  0
LINE
  5
7A
330
1F
100
AcDbEntity
  8
0
  6
Continuous
 62
     7
370
    18
100
AcDbLine
 10
826.4894340182
 20
48.3023149851
 30
0.0
 11
877.4894340182
 21
48.3023149851
 31
0.0
  0
LINE
  5
7B
330
1F
100
AcDbEntity
  8
0
  6
Continuous
 62
     7
370
    18
100
AcDbLine
 10
826.4894340182
 20
58.8023149851
 30
0.0
 11
877.4894340182
 21
58.8023149851
 31
0.0
  0
LINE
  5
7C
330
1F
100
AcDbEntity
  8
0
  6
Continuous
 62
     7
370
    18
100
AcDbLine
 10
826.4894340182
 20
58.8023149851
 30
0.0
 11
826.4894340182
 21
19.8023149851
 31
0.0
  0
LINE
  5
7D
330
1F
100
AcDbEntity
  8
0
  6
Continuous
 62
     7
370
    18
100
AcDbLine
 10
315.9207907688
 20
19.7947967218
 30
0.0
 11
877.5216424144
 21
19.7947967218
 31
0.0
  0
LINE
  5
7E
330
1F
100
AcDbEntity
  8
0
  6
Continuous
 62
     7
370
    18
100
AcDbLine
 10
315.8894340182
 20
19.8023149851
 30
0.0
 11
877.4894340182
 21
19.8023149851
 31
0.0
  0
LINE
  5
7F
330
1F
100
AcDbEntity
  8
0
  6
Continuous
 62
     7
370
    18
100
AcDbLine
 10
315.8885823726
 20
19.8023149851
 30
0.0
 11
877.4894340182
 21
19.8023149851
 31
0.0
  0
LINE
  5
80
330
1F
100
AcDbEntity
  8
0
  6
Continuous
 62
     7
370
    18
100
AcDbLine
 10
877.4894340182
 20
152.4023149851
 30
0.0
 11
877.4894340182
 21
19.8023149851
 31
0.0
  0
LINE
  5
81
330
1F
100
AcDbEntity
  8
0
  6
Continuous
 62
     7
370
    18
100
AcDbLine
 10
826.4885823726
 20
104.3995751467
 30
0.0
 11
826.4885823726
 21
19.8023149851
 31
0.0
  0
LINE
  5
82
330
1F
100
AcDbEntity
  8
0
  6
Continuous
 62
     7
370
    18
100
AcDbLine
 10
877.5216424144
 20
152.3947967218
 30
0.0
 11
877.5216424144
 21
19.7947967218
 31
0.0
  0
LINE
  5
83
330
1F
100
AcDbEntity
  8
0
  6
Continuous
 62
     7
370
    18
100
AcDbLine
 10
826.4885823726
 20
58.8023149851
 30
0.0
 11
877.4894340182
 21
58.8023149851
 31
0.0
  0
LINE
  5
84
330
1F
100
AcDbEntity
  8
0
  6
Continuous
 62
     7
370
    18
100
AcDbLine
 10
315.8885823726
 20
152.4023149851
 30
0.0
 11
315.8885823726
 21
19.8023149851
 31
0.0
  0
LINE
  5
85
330
1F
100
AcDbEntity
  8
0
  6
Continuous
 62
     7
370
    18
100
AcDbLine
 10
391.0881591346
 20
104.3995751467
 30
0.0
 11
391.0881591346
 21
86.4023149851
 31
0.0
  0
LINE
  5
86
330
1F
100
AcDbEntity
  8
0
  6
Continuous
 62
     7
370
    18
100
AcDbLine
 10
315.8885823726
 20
86.4023149851
 30
0.0
 11
494.3885823726
 21
86.4023149851
 31
0.0
  0
LINE
  5
87
330
1F
100
AcDbEntity
  8
0
  6
Continuous
 62
     7
370
    18
100
AcDbLine
 10
315.8885823726
 20
37.8023149851
 30
0.0
 11
494.5850694954
 21
37.8023149851
 31
0.0
  0
LINE
  5
88
330
1F
100
AcDbEntity
  8
0
  6
Continuous
 62
     7
370
    18
100
AcDbLine
 10
494.3885823726
 20
86.4023149851
 30
0.0
 11
494.3885823726
 21
19.8023149851
 31
0.0
  0
LINE
  5
89
330
1F
100
AcDbEntity
  8
0
  6
CENTERX2
 62
     7
370
    18
100
AcDbLine
 10
831.2906442483
 20
73.0728553342
 30
0.0
 11
871.7835999114
 21
73.0728553342
 31
0.0
  0
LINE
  5
8A
330
1F
100
AcDbEntity
  8
0
  6
CENTERX2
 62
     7
370
    18
100
AcDbLine
 10
862.469906466
 20
82.8288930579
 30
0.0
 11
862.469906466
 21
63.0442407923
 31
0.0
  0
LINE
  5
8B
330
1F
100
AcDbEntity
  8
0
  6
Continuous
 62
     7
370
    18
100
AcDbLine
 10
494.3885823726
 20
86.4023149851
 30
0.0
 11
826.4885823726
 21
86.4023149851
 31
0.0
  0
LINE
  5
8C
330
1F
100
AcDbEntity
  8
TESTO
100
AcDbLine
 10
375.7380191521
 20
64.8772421697
 30
0.0
 11
363.145397419
 21
55.2033522847
 31
0.0
  0
LINE
  5
8D
330
1F
100
AcDbEntity
  8
0
  6
Continuous
 62
     7
370
    18
100
AcDbLine
 10
494.3885823726
 20
43.8023149851
 30
0.0
 11
826.4885823726
 21
43.8023149851
 31
0.0
  0
LINE
  5
8E
330
1F
100
AcDbEntity
  8
TESTO
100
AcDbLine
 10
351.7458021368
 20
64.2837688378
 30
0.0
 11
355.4099097351
 21
61.4162063696
 31
0.0
  0
LINE
  5
8F
330
1F
100
AcDbEntity
  8
0
  6
Continuous
 62
     7
370
    18
100
AcDbLine
 10
747.3812296868
 20
86.4023149851
 30
0.0
 11
747.3812296868
 21
72.2023149851
 31
0.0
  0
LINE
  5
90
330
1F
100
AcDbEntity
  8
0
  6
Continuous
 62
     7
370
    18
100
AcDbLine
 10
747.3812296868
 20
72.2023149851
 30
0.0
 11
747.3812296868
 21
58.0023149851
 31
0.0
  0
LINE
  5
91
330
1F
100
AcDbEntity
  8
0
  6
Continuous
 62
     7
370
    18
100
AcDbLine
 10
836.1514338534
 20
76.7370301295
 30
0.0
 11
836.1514338534
 21
69.2370301295
 31
0.0
  0
LINE
  5
92
330
1F
100
AcDbEntity
  8
0
  6
Continuous
 62
     7
370
    18
100
AcDbLine
 10
848.9137558395
 20
78.9870301295
 30
0.0
 11
848.852692098
 21
66.9870301295
 31
0.0
  0
LINE
  5
93
330
1F
100
AcDbEntity
  8
0
  6
Continuous
 62
     7
370
    18
100
AcDbLine
 10
848.9137558395
 20
78.9870301295
 30
0.0
 11
836.1514338534
 21
76.7370301295
 31
0.0
  0
LINE
  5
94
330
1F
100
AcDbEntity
  8
0
  6
Continuous
 62
     7
370
    18
100
AcDbLine
 10
848.852692098
 20
66.9870301295
 30
0.0
 11
836.1514338534
 21
69.2370301295
 31
0.0
  0
LINE
  5
95
330
1F
100
AcDbEntity
  8
0
  6
Continuous
 62
     7
370
    18
100
AcDbLine
 10
747.3812296868
 20
58.0023149851
 30
0.0
 11
747.3812296868
 21
43.8023149851
 31
0.0
  0
LINE
  5
96
330
1F
100
AcDbEntity
  8
0
  6
Continuous
 62
     7
370
    18
100
AcDbLine
 10
747.3812296868
 20
72.2023149851
 30
0.0
 11
826.4885823726
 21
72.2023149851
 31
0.0
  0
LINE
  5
97
330
1F
100
AcDbEntity
  8
0
  6
Continuous
 62
     7
370
    18
100
AcDbLine
 10
747.3812296868
 20
58.0023149851
 30
0.0
 11
826.4885823726
 21
58.0023149851
 31
0.0
  0
LINE
  5
98
330
1F
100
AcDbEntity
  8
0
  6
Continuous
 62
     7
370
    18
100
AcDbLine
 10
782.4074144322
 20
43.8023149851
 30
0.0
 11
782.4074144322
 21
19.8023149851
 31
0.0
  0
LINE
  5
99
330
1F
100
AcDbEntity
  8
0
  6
Continuous
 62
     7
370
    18
100
AcDbLine
 10
611.4513434579
 20
43.8023149851
 30
0.0
 11
611.4513434579
 21
19.8023149851
 31
0.0
  0
LINE
  5
9A
330
1F
100
AcDbEntity
  8
0
  6
Continuous
 62
     7
370
    18
100
AcDbLine
 10
611.4513434579
 20
31.8023149851
 30
0.0
 11
494.3885823726
 21
31.8023149851
 31
0.0
  0
LINE
  5
9B
330
1F
100
AcDbEntity
  8
0
  6
Continuous
 62
     7
370
    18
100
AcDbLine
 10
495.8885823726
 20
152.4023149851
 30
0.0
 11
495.8885823726
 21
128.4023149851
 31
0.0
  0
LINE
  5
9C
330
1F
100
AcDbEntity
  8
0
  6
Continuous
 62
     7
370
    18
100
AcDbLine
 10
315.8885823726
 20
104.3995751467
 30
0.0
 11
877.4894340182
 21
104.3995751467
 31
0.0
  0
LINE
  5
9D
330
1F
100
AcDbEntity
  8
TESTO
100
AcDbLine
 10
328.3431846009
 20
82.226339205
 30
0.0
 11
394.5563716532
 21
82.226339205
 31
0.0
  0
LINE
  5
9E
330
1F
100
AcDbEntity
  8
TESTO
100
AcDbLine
 10
328.3431846009
 20
82.226339205
 30
0.0
 11
334.572343151
 21
77.4409819406
 31
0.0
  0
LINE
  5
9F
330
1F
100
AcDbEntity
  8
0
  6
Continuous
 62
     7
370
    18
100
AcDbLine
 10
481.6806605968
 20
104.3995751467
 30
0.0
 11
481.6806605968
 21
86.4023149851
 31
0.0
  0
LINE
  5
A0
330
1F
100
AcDbEntity
  8
0
  6
Continuous
 62
     7
370
    18
100
AcDbLine
 10
675.9379131985
 20
104.3995751467
 30
0.0
 11
675.9379131985
 21
86.4023149851
 31
0.0
  0
LINE
  5
A1
330
1F
100
AcDbEntity
  8
0
  6
Continuous
 62
     7
370
    18
100
AcDbLine
 10
756.3233309154
 20
104.3995751467
 30
0.0
 11
756.3233309154
 21
86.4023149851
 31
0.0
  0
LINE
  5
A2
330
1F
100
AcDbEntity
  8
0
  6
Continuous
 62
     7
370
    18
100
AcDbLine
 10
315.8885823726
 20
128.4023149851
 30
0.0
 11
877.4894340182
 21
128.4023149851
 31
0.0
  0
LINE
  5
A3
330
1F
100
AcDbEntity
  8
TESTO
100
AcDbLine
 10
394.5563716532
 20
82.226339205
 30
0.0
 11
388.2725509015
 21
77.3989894048
 31
0.0
  0
LINE
  5
A4
330
1F
100
AcDbEntity
  8
TESTO
100
AcDbLine
 10
344.0317354596
 20
70.1740980849
 30
0.0
 11
349.4529076599
 21
66.0094511969
 31
0.0
  0
LINE
  5
A5
330
1F
100
AcDbEntity
  8
0
  6
Continuous
 62
     7
370
    18
100
AcDbLine
 10
315.8885823726
 20
152.4023149851
 30
0.0
 11
877.4894340182
 21
152.4023149851
 31
0.0
  0
LINE
  5
A6
330
1F
100
AcDbEntity
  8
0
  6
Continuous
 62
     7
370
    18
100
AcDbLine
 10
588.8885823726
 20
152.4023149851
 30
0.0
 11
588.8885823726
 21
128.4023149851
 31
0.0
  0
LINE
  5
A7
330
1F
100
AcDbEntity
  8
0
  6
Continuous
 62
     7
370
    18
100
AcDbLine
 10
675.8885823726
 20
128.4023149851
 30
0.0
 11
675.8885823726
 21
104.3995751467
 31
0.0
  0
LINE
  5
A8
330
1F
100
AcDbEntity
  8
0
  6
Continuous
 62
     7
370
    18
100
AcDbLine
 10
675.8885823726
 20
128.4023149851
 30
0.0
 11
675.8885823726
 21
152.4023149851
 31
0.0
  0
LINE
  5
A9
330
1F
100
AcDbEntity
  8
0
  6
Continuous
 62
     7
370
    18
100
AcDbLine
 10
675.8885823726
 20
116.4023149851
 30
0.0
 11
877.4894340182
 21
116.4023149851
 31
0.0
  0
LINE
  5
AA
330
1F
100
AcDbEntity
  8
0
  6
Continuous
 62
     7
370
    18
100
AcDbLine
 10
574.6209192193
 20
104.3995751467
 30
0.0
 11
574.6209192193
 21
86.4023149851
 31
0.0
  0
LINE
  5
AB
330
1F
100
AcDbEntity
  8
0
  6
Continuous
 62
     7
370
    18
100
AcDbLine
 10
877.5216424144
 20
592.7947967218
 30
0.0
 11
315.9216424144
 21
592.7947967218
 31
0.0
  0
LINE
  5
AC
330
1F
100
AcDbEntity
  8
0
  6
Continuous
 62
     7
370
    18
100
AcDbLine
 10
363.9216424144
 20
577.7947967218
 30
0.0
 11
363.9216424144
 21
592.7947967218
 31
0.0
  0
LINE
  5
AD
330
1F
100
AcDbEntity
  8
0
  6
Continuous
 62
     7
370
    18
100
AcDbLine
 10
315.9216424144
 20
577.7947967218
 30
0.0
 11
877.5216424144
 21
577.7947967218
 31
0.0
  0
LINE
  5
AE
330
1F
100
AcDbEntity
  8
0
  6
Continuous
 62
     7
370
    18
100
AcDbLine
 10
315.9216424144
 20
592.7947967218
 30
0.0
 11
877.5216424144
 21
592.7947967218
 31
0.0
  0
LINE
  5
AF
330
1F
100
AcDbEntity
  8
0
  6
Continuous
 62
     7
370
    18
100
AcDbLine
 10
877.5216424144
 20
577.7947967218
 30
0.0
 11
877.5216424144
 21
592.7947967218
 31
0.0
  0
LINE
  5
B0
330
1F
100
AcDbEntity
  8
0
  6
Continuous
 62
     7
370
    18
100
AcDbLine
 10
315.9216424144
 20
577.7947967218
 30
0.0
 11
315.9216424144
 21
592.7947967218
 31
0.0
  0
LINE
  5
B1
330
1F
100
AcDbEntity
  8
0
  6
Continuous
 62
     7
370
    18
100
AcDbLine
 10
315.9216424144
 20
592.7947967218
 30
0.0
 11
877.5216424144
 21
592.7947967218
 31
0.0
  0
LINE
  5
B2
330
1F
100
AcDbEntity
  8
0
  6
Continuous
 62
     7
370
    18
100
AcDbLine
 10
877.5216424144
 20
577.7947967218
 30
0.0
 11
877.5216424144
 21
592.7947967218
 31
0.0
  0
LINE
  5
B3
330
1F
100
AcDbEntity
  8
0
  6
Continuous
 62
     7
370
    18
100
AcDbLine
 10
829.5216424144
 20
577.7947967218
 30
0.0
 11
829.5216424144
 21
592.7947967218
 31
0.0
  0
LINE
  5
B4
330
1F
100
AcDbEntity
  8
0
  6
Continuous
 62
     7
370
    18
100
AcDbLine
 10
740.7573797159
 20
577.7947967218
 30
0.0
 11
740.7573797159
 21
592.7947967218
 31
0.0
  0
LINE
  5
B5
330
1F
100
AcDbEntity
  8
0
  6
Continuous
 62
     7
370
    18
100
AcDbLine
 10
315.9216424144
 20
562.7947967218
 30
0.0
 11
877.5216424144
 21
562.7947967218
 31
0.0
  0
LINE
  5
B6
330
1F
100
AcDbEntity
  8
0
  6
Continuous
 62
     7
370
    18
100
AcDbLine
 10
315.9216424144
 20
547.7947967218
 30
0.0
 11
877.5216424144
 21
547.7947967218
 31
0.0
  0
LINE
  5
B7
330
1F
100
AcDbEntity
  8
0
  6
Continuous
 62
     7
370
    18
100
AcDbLine
 10
315.9216424144
 20
532.7947967218
 30
0.0
 11
877.5216424144
 21
532.7947967218
 31
0.0
  0
LINE
  5
B8
330
1F
100
AcDbEntity
  8
0
  6
Continuous
 62
     7
370
    18
100
AcDbLine
 10
315.9216424144
 20
577.7947967218
 30
0.0
 11
315.9216424144
 21
532.7947967218
 31
0.0
  0
LINE
  5
B9
330
1F
100
AcDbEntity
  8
0
  6
Continuous
 62
     7
370
    18
100
AcDbLine
 10
877.5216424144
 20
577.7947967218
 30
0.0
 11
877.5216424144
 21
532.7947967218
 31
0.0
  0
LINE
  5
BA
330
1F
100
AcDbEntity
  8
0
  6
Continuous
 62
     7
370
    18
100
AcDbLine
 10
363.9216424144
 20
577.7947967218
 30
0.0
 11
363.9216424144
 21
532.7947967218
 31
0.0
  0
LINE
  5
BB
330
1F
100
AcDbEntity
  8
0
  6
Continuous
 62
     7
370
    18
100
AcDbLine
 10
740.7573797159
 20
577.7947967218
 30
0.0
 11
740.7573797159
 21
532.7947967218
 31
0.0
  0
LINE
  5
BC
330
1F
100
AcDbEntity
  8
0
  6
Continuous
 62
     7
370
    18
100
AcDbLine
 10
829.5216424144
 20
577.7947967218
 30
0.0
 11
829.5216424144
 21
532.7947967218
 31
0.0
  0
LINE
  5
BD
330
1F
100
AcDbEntity
  8
0
  6
Continuous
 62
     7
370
    18
100
AcDbLine
 10
877.5216424144
 20
577.7947967218
 30
0.0
 11
877.5216424144
 21
532.7947967218
 31
0.0
  0
LINE
  5
BE
330
1F
100
AcDbEntity
  8
0
  6
Continuous
 62
     7
370
    18
100
AcDbLine
 10
494.3885823726
 20
53.1023149851
 30
0.0
 11
747.3812296868
 21
53.1023149851
 31
0.0
  0
LINE
  5
BF
330
1F
100
AcDbEntity
  8
0
  6
Continuous
 62
     7
370
    18
100
AcDbLine
 10
675.9379131985
 20
53.1023149851
 30
0.0
 11
675.9379131985
 21
43.8023149851
 31
0.0
  0
CIRCLE
  5
C0
330
1F
100
AcDbEntity
  8
0
  6
Continuous
 62
     7
370
    18
100
AcDbCircle
 10
862.469906466
 20
73.0728553342
 30
0.0
 40
3.749999999999955
  0
CIRCLE
  5
C1
330
1F
100
AcDbEntity
  8
0
  6
Continuous
 62
     7
370
    18
100
AcDbCircle
 10
862.469906466
 20
73.0728553342
 30
0.0
 40
5.999999999999818
  0
MTEXT
  5
C3
330
1F
100
AcDbEntity
  8
0
  6
Continuous
 62
     7
370
     0
100
AcDbMText
 10
843.644482343
 20
44.6815707107
 30
0.0
 40
8.73125
 41
0.0
 71
     1
 72
     1
  1
A4
  7
SLDTEXTSTYLE0
 73
     1
 44
1.0
  0
MTEXT
  5
C4
330
1F
100
AcDbEntity
  8
0
  6
Continuous
 62
     7
370
     0
100
AcDbMText
 10
84.7687824714
 20
603.9039237314
 30
0.0
 40
7.14375
 41
0.0
 71
     1
 72
     1
  1
1
  7
SLDTEXTSTYLE0
 73
     1
 44
1.0
  0
MTEXT
  5
C5
330
1F
100
AcDbEntity
  8
0
  6
Continuous
 62
     7
370
     0
100
AcDbMText
 10
225.3079152819
 20
603.9039237314
 30
0.0
 40
7.14375
 41
0.0
 71
     1
 72
     1
  1
2
  7
SLDTEXTSTYLE0
 73
     1
 44
1.0
  0
MTEXT
  5
C6
330
1F
100
AcDbEntity
  8
0
  6
Continuous
 62
     7
370
     0
100
AcDbMText
 10
376.3021690203
 20
603.9039237314
 30
0.0
 40
7.14375
 41
0.0
 71
     1
 72
     1
  1
3
  7
SLDTEXTSTYLE0
 73
     1
 44
1.0
  0
MTEXT
  5
C7
330
1F
100
AcDbEntity
  8
0
  6
Continuous
 62
     7
370
     0
100
AcDbMText
 10
524.3815115416
 20
603.9039237314
 30
0.0
 40
7.14375
 41
0.0
 71
     1
 72
     1
  1
4
  7
SLDTEXTSTYLE0
 73
     1
 44
1.0
  0
MTEXT
  5
C8
330
1F
100
AcDbEntity
  8
0
  6
Continuous
 62
     7
370
     0
100
AcDbMText
 10
676.8813696186
 20
603.9039237314
 30
0.0
 40
7.14375
 41
0.0
 71
     1
 72
     1
  1
5
  7
SLDTEXTSTYLE0
 73
     1
 44
1.0
  0
MTEXT
  5
C9
330
1F
100
AcDbEntity
  8
0
  6
Continuous
 62
     7
370
     0
100
AcDbMText
 10
812.5076757736
 20
603.9039237314
 30
0.0
 40
7.14375
 41
0.0
 71
     1
 72
     1
  1
6
  7
SLDTEXTSTYLE0
 73
     1
 44
1.0
  0
MTEXT
  5
CA
330
1F
100
AcDbEntity
  8
0
  6
Continuous
 62
     7
370
     0
100
AcDbMText
 10
18.1448001536
 20
532.9216085015
 30
0.0
 40
7.14375
 41
0.0
 71
     1
 72
     1
  1
A
  7
SLDTEXTSTYLE0
 73
     1
 44
1.0
  0
MTEXT
  5
CB
330
1F
100
AcDbEntity
  8
0
  6
Continuous
 62
     7
370
     0
100
AcDbMText
 10
18.9385503187
 20
385.3367253341
 30
0.0
 40
7.14375
 41
0.0
 71
     1
 72
     1
  1
B
  7
SLDTEXTSTYLE0
 73
     1
 44
1.0
  0
MTEXT
  5
CC
330
1F
100
AcDbEntity
  8
0
  6
Continuous
 62
     7
370
     0
100
AcDbMText
 10
17.8008421213
 20
236.338047909
 30
0.0
 40
7.14375
 41
0.0
 71
     1
 72
     1
  1
C
  7
SLDTEXTSTYLE0
 73
     1
 44
1.0
  0
MTEXT
  5
CD
330
1F
100
AcDbEntity
  8
0
  6
Continuous
 62
     7
370
     0
100
AcDbMText
 10
17.8008421213
 20
93.2156128986
 30
0.0
 40
7.14375
 41
0.0
 71
     1
 72
     1
  1
D
  7
SLDTEXTSTYLE0
 73
     1
 44
1.0
  0
MTEXT
  5
CE
330
1F
100
AcDbEntity
  8
0
  6
Continuous
 62
     7
370
     0
100
AcDbMText
 10
831.144170384
 20
572.5245981401
 30
0.0
 40
6.35
 41
0.0
 71
     1
 72
     1
  1
09/01/2024
  7
SLDTEXTSTYLE0
 73
     1
 44
1.0
  0
MTEXT
  5
CF
330
1F
100
AcDbEntity
  8
0
  6
Continuous
 62
     7
370
     0
100
AcDbMText
 10
743.7564598725
 20
572.5245981401
 30
0.0
 40
6.35
 41
0.0
 71
     1
 72
     1
  1
Simone.Malighetti
  7
SLDTEXTSTYLE0
 73
     1
 44
1.0
  0
MTEXT
  5
D0
330
1F
100
AcDbEntity
  8
0
  6
Continuous
 62
     7
370
     0
100
AcDbMText
 10
335.3839204572
 20
574.1035623768
 30
0.0
 40
7.9375
 41
0.0
 71
     1
 72
     1
  1
00
  7
SLDTEXTSTYLE0
 73
     1
 44
1.0
  0
MTEXT
  5
D1
330
1F
100
AcDbEntity
  8
0
  6
Continuous
 62
     7
370
     0
100
AcDbMText
 10
369.2660941672
 20
574.1035623768
 30
0.0
 40
7.9375
 41
0.0
 71
     1
 72
     1
  1
EMISSIONE
  7
SLDTEXTSTYLE0
 73
     1
 44
1.0
  0
MTEXT
  5
D3
330
1F
100
AcDbEntity
  8
0
  6
Continuous
 62
     7
370
     0
100
AcDbMText
 10
321.2601449343
 20
588.6812102593
 30
0.0
 40
6.35
 41
0.0
 71
     1
 72
     1
  1
Revisione
  7
SLDTEXTSTYLE1
 73
     1
 44
1.0
  0
MTEXT
  5
D4
330
1F
100
AcDbEntity
  8
0
  6
Continuous
 62
     7
370
     0
100
AcDbMText
 10
369.2660941672
 20
588.6262572258
 30
0.0
 40
6.35
 41
0.0
 71
     1
 72
     1
  1
Descrizione revisione
  7
SLDTEXTSTYLE1
 73
     1
 44
1.0
  0
MTEXT
  5
D5
330
1F
100
AcDbEntity
  8
0
  6
Continuous
 62
     7
370
     0
100
AcDbMText
 10
760.7443237819
 20
588.6262572258
 30
0.0
 40
6.35
 41
0.0
 71
     1
 72
     1
  1
Disegnatore
  7
SLDTEXTSTYLE1
 73
     1
 44
1.0
  0
MTEXT
  5
D6
330
1F
100
AcDbEntity
  8
0
  6
Continuous
 62
     7
370
     0
100
AcDbMText
 10
834.9001378502
 20
588.6262572258
 30
0.0
 40
6.35
 41
0.0
 71
     1
 72
     1
  1
Data
  7
SLDTEXTSTYLE1
 73
     1
 44
1.0
  0
MTEXT
  5
D7
330
1F
100
AcDbEntity
  8
0
  6
Continuous
 62
     7
370
     0
100
AcDbMText
 10
819.7863852074
 20
56.4147935842
 30
0.0
 40
7.14375
 41
0.0
 71
     3
 72
     1
  1
10
  7
SLDTEXTSTYLE0
 73
     1
 44
1.0
  0
MTEXT
  5
D8
330
1F
100
AcDbEntity
  8
0
  6
Continuous
 62
     7
370
     0
100
AcDbMText
 10
819.7287390678
 20
83.7993084386
 30
0.0
 40
7.14375
 41
0.0
 71
     3
 72
     1
  1
350
  7
SLDTEXTSTYLE0
 73
     1
 44
1.0
  0
MTEXT
  5
D9
330
1F
100
AcDbEntity
  8
0
  6
Continuous
 62
     7
370
     0
100
AcDbMText
 10
820.355312569
 20
70.2971245536
 30
0.0
 40
7.14375
 41
0.0
 71
     3
 72
     1
  1
140
  7
SLDTEXTSTYLE0
 73
     1
 44
1.0
  0
MTEXT
  5
DA
330
1F
100
AcDbEntity
  8
0
  6
Continuous
 62
     7
370
     0
100
AcDbMText
 10
543.1621106578
 20
97.0088398578
 30
0.0
 40
7.9375
 41
0.0
 71
     1
 72
     1
  1
IT10
  7
SLDTEXTSTYLE0
 73
     1
 44
1.0
  0
MTEXT
  5
DB
330
1F
100
AcDbEntity
  8
0
  6
Continuous
 62
     7
370
     0
100
AcDbMText
 10
488.5976372241
 20
102.5609711702
 30
0.0
 40
3.96875
 41
0.0
 71
     1
 72
     1
  1
Grado Tolleranza
  7
SLDTEXTSTYLE0
 73
     1
 44
1.0
  0
MTEXT
  5
DC
330
1F
100
AcDbEntity
  8
0
  6
Continuous
 62
     7
370
     0
100
AcDbMText
 10
584.8672942739
 20
145.2107914086
 30
0.0
 40
7.9375
 41
0.0
 71
     3
 72
     1
  1
3.71
  7
SLDTEXTSTYLE0
 73
     1
 44
1.0
  0
MTEXT
  5
DD
330
1F
100
AcDbEntity
  8
0
  6
Continuous
 62
     7
370
     0
100
AcDbMText
 10
746.1430848489
 20
51.8132915921
 30
0.0
 40
5.55625
 41
0.0
 71
     3
 72
     1
  1
00
  7
SLDTEXTSTYLE0
 73
     1
 44
1.0
  0
MTEXT
  5
DE
330
1F
100
AcDbEntity
  8
0
  6
Continuous
 62
     7
370
     0
100
AcDbMText
 10
349.9220219332
 20
145.2107914086
 30
0.0
 40
7.9375
 41
0.0
 71
     1
 72
     1
  1
1.0037 (S235JR)
  7
SLDTEXTSTYLE0
 73
     1
 44
1.0
  0
MTEXT
  5
DF
330
1F
100
AcDbEntity
  8
0
  6
Continuous
 62
     7
370
     0
100
AcDbMText
 10
533.4973500794
 20
29.1131718552
 30
0.0
 40
5.55625
 41
0.0
 71
     1
 72
     1
  1
09/01/2024
  7
SLDTEXTSTYLE0
 73
     1
 44
1.0
  0
MTEXT
  5
E0
330
1F
100
AcDbEntity
  8
0
  6
Continuous
 62
     7
370
     0
100
AcDbMText
 10
533.4973500794
 20
41.1692992859
 30
0.0
 40
5.55625
 41
0.0
 71
     1
 72
     1
  1
Simone.Malighetti
  7
SLDTEXTSTYLE0
 73
     1
 44
1.0
  0
MTEXT
  5
E1
330
1F
100
AcDbEntity
  8
0
  6
Continuous
 62
     7
370
     0
100
AcDbMText
 10
503.1207971975
 20
64.0991311043
 30
0.0
 40
6.35
 41
0.0
 71
     1
 72
     1
  1
.
  7
SLDTEXTSTYLE0
 73
     1
 44
1.0
  0
MTEXT
  5
E2
330
1F
100
AcDbEntity
  8
0
  6
Continuous
 62
     7
370
     0
100
AcDbMText
 10
503.1207971975
 20
74.2868749615
 30
0.0
 40
6.35
 41
0.0
 71
     1
 72
     1
  1
Piastra inf.colonna sostegno
  7
SLDTEXTSTYLE0
 73
     1
 44
1.0
  0
MTEXT
  5
E3
330
1F
100
AcDbEntity
  8
0
  6
Continuous
 62
     7
370
     0
100
AcDbMText
 10
525.0540629734
 20
51.8132915921
 30
0.0
 40
5.55625
 41
0.0
 71
     1
 72
     1
  1
12000100
  7
SLDTEXTSTYLE0
 73
     1
 44
1.0
  0
MTEXT
  5
E5
330
1F
100
AcDbEntity
  8
TESTO
100
AcDbMText
 10
380.0618399372
 20
80.8678721586
 30
0.0
 40
14.4
 41
0.0
 71
     1
 72
     1
  1
A
  7
SLDTEXTSTYLE2
 73
     1
 44
1.0
  0
MTEXT
  5
E7
330
1F
100
AcDbEntity
  8
FORMAT
100
AcDbMText
 10
405.0686260447
 20
63.6800077423
 30
0.0
 40
4.05
 41
0.0
 71
     1
 72
     1
  1
Tel. 0341/632080
  7
SLDTEXTSTYLE3
 73
     1
 44
1.0
  0
MTEXT
  5
E8
330
1F
100
AcDbEntity
  8
FORMAT
100
AcDbMText
 10
405.457595655
 20
45.4288393888
 30
0.0
 40
4.05
 41
0.0
 71
     1
 72
     1
  1
E-mail: info@decasrl.biz
  7
SLDTEXTSTYLE3
 73
     1
 44
1.0
  0
MTEXT
  5
E9
330
1F
100
AcDbEntity
  8
FORMAT
100
AcDbMText
 10
330.3951819309
 20
53.8228546134
 30
0.0
 40
4.05
 41
0.0
 71
     1
 72
     1
  1
VIBROALIMENTATORI
  7
SLDTEXTSTYLE3
 73
     1
 44
1.0
  0
MTEXT
  5
EA
330
1F
100
AcDbEntity
  8
FORMAT
100
AcDbMText
 10
344.4663760896
 20
47.0965946703
 30
0.0
 40
4.05
 41
0.0
 71
     1
 72
     1
  1
ELEVATORI
  7
SLDTEXTSTYLE3
 73
     1
 44
1.0
  0
MTEXT
  5
EB
330
1F
100
AcDbEntity
  8
FORMAT
100
AcDbMText
 10
404.4659166097
 20
75.479438052
 30
0.0
 40
4.05
 41
0.0
 71
     1
 72
     1
  1
23804 Monte Marenzo (Lc)
  7
SLDTEXTSTYLE3
 73
     1
 44
1.0
  0
MTEXT
  5
EC
330
1F
100
AcDbEntity
  8
FORMAT
100
AcDbMText
 10
404.4659166097
 20
83.1587222031
 30
0.0
 40
4.05
 41
0.0
 71
     1
 72
     1
  1
Via Della Fontana,6
  7
SLDTEXTSTYLE3
 73
     1
 44
1.0
  0
MTEXT
  5
ED
330
1F
100
AcDbEntity
  8
TESTO
100
AcDbMText
 10
365.3687384041
 20
81.2878711658
 30
0.0
 40
14.4
 41
0.0
 71
     1
 72
     1
  1
C
  7
SLDTEXTSTYLE2
 73
     1
 44
1.0
  0
MTEXT
  5
EE
330
1F
100
AcDbEntity
  8
TESTO
100
AcDbMText
 10
349.9220219332
 20
80.5492541066
 30
0.0
 40
14.4
 41
0.0
 71
     1
 72
     1
  1
E
  7
SLDTEXTSTYLE2
 73
     1
 44
1.0
  0
MTEXT
  5
EF
330
1F
100
AcDbEntity
  8
TESTO
100
AcDbMText
 10
356.029555702
 20
63.3407014011
 30
0.0
 40
6.0
 41
0.0
 71
     1
 72
     1
  1
s.r.l.
  7
SLDTEXTSTYLE2
 73
     1
 44
1.0
  0
MTEXT
  5
F0
330
1F
100
AcDbEntity
  8
TESTO
100
AcDbMText
 10
335.2171220354
 20
80.8678721586
 30
0.0
 40
14.4
 41
0.0
 71
     1
 72
     1
  1
D
  7
SLDTEXTSTYLE2
 73
     1
 44
1.0
  0
MTEXT
  5
F1
330
1F
100
AcDbEntity
  8
0
  6
Continuous
 62
     7
370
     0
100
AcDbMText
 10
317.5133281829
 20
33.9780580517
 30
0.0
 40
3.175
 41
0.0
 71
     1
 72
     1
  1
Deca S.r.l. si riserva tutti i diritti sul presente documento e con quanto rappresentato.
  7
SLDTEXTSTYLE0
 73
     1
 44
1.0
  0
MTEXT
  5
F2
330
1F
100
AcDbEntity
  8
0
  6
Continuous
 62
     7
370
     0
100
AcDbMText
 10
317.5133281829
 20
26.7447249763
 30
0.0
 40
3.175
 41
0.0
 71
     1
 72
     1
  1
E' vietato riprodurlo, utilizzarlo e renderlo accessibile a terzi senza autorizzazione scritta
  7
SLDTEXTSTYLE0
 73
     1
 44
1.0
  0
MTEXT
  5
F3
330
1F
100
AcDbEntity
  8
0
  6
Continuous
 62
     7
370
     0
100
AcDbMText
 10
786.4387927766
 20
41.005039325
 30
0.0
 40
3.96875
 41
0.0
 71
     1
 72
     1
  1
Revisione
  7
SLDTEXTSTYLE0
 73
     1
 44
1.0
  0
MTEXT
  5
F4
330
1F
100
AcDbEntity
  8
0
  6
Continuous
 62
     7
370
     0
100
AcDbMText
 10
499.9104041776
 20
50.2343269188
 30
0.0
 40
3.96875
 41
0.0
 71
     1
 72
     1
  1
Disegno
  7
SLDTEXTSTYLE0
 73
     1
 44
1.0
  0
MTEXT
  5
F5
330
1F
100
AcDbEntity
  8
0
  6
Continuous
 62
     7
370
     0
100
AcDbMText
 10
750.1906439034
 20
80.6413791794
 30
0.0
 40
3.96875
 41
0.0
 71
     1
 72
     1
  1
Lunghezza:
  7
SLDTEXTSTYLE0
 73
     1
 44
1.0
  0
MTEXT
  5
F6
330
1F
100
AcDbEntity
  8
0
  6
Continuous
 62
     7
370
     0
100
AcDbMText
 10
750.2384337353
 20
67.1391952944
 30
0.0
 40
3.96875
 41
0.0
 71
     1
 72
     1
  1
Larghezza:
  7
SLDTEXTSTYLE0
 73
     1
 44
1.0
  0
MTEXT
  5
F7
330
1F
100
AcDbEntity
  8
0
  6
Continuous
 62
     7
370
     0
100
AcDbMText
 10
750.2384337353
 20
53.256864325
 30
0.0
 40
3.96875
 41
0.0
 71
     1
 72
     1
  1
Sp./Ø:
  7
SLDTEXTSTYLE0
 73
     1
 44
1.0
  0
MTEXT
  5
F8
330
1F
100
AcDbEntity
  8
0
  6
Continuous
 62
     7
370
     0
100
AcDbMText
 10
499.9104041776
 20
39.5903346127
 30
0.0
 40
3.96875
 41
0.0
 71
     1
 72
     1
  1
Disegnatore
  7
SLDTEXTSTYLE0
 73
     1
 44
1.0
  0
MTEXT
  5
F9
330
1F
100
AcDbEntity
  8
0
  6
Continuous
 62
     7
370
     0
100
AcDbMText
 10
499.9104041776
 20
27.534207182
 30
0.0
 40
3.96875
 41
0.0
 71
     1
 72
     1
  1
Data
  7
SLDTEXTSTYLE0
 73
     1
 44
1.0
  0
MTEXT
  5
FA
330
1F
100
AcDbEntity
  8
0
  6
Continuous
 62
     7
370
     0
100
AcDbMText
 10
499.9104041776
 20
80.6413791794
 30
0.0
 40
3.96875
 41
0.0
 71
     1
 72
     1
  1
Descrizione
  7
SLDTEXTSTYLE0
 73
     1
 44
1.0
  0
MTEXT
  5
FB
330
1F
100
AcDbEntity
  8
0
  6
Continuous
 62
     7
370
     0
100
AcDbMText
 10
839.9030223578
 20
99.6701965074
 30
0.0
 40
3.96875
 41
0.0
 71
     1
 72
     1
  1
Sistema E
  7
SLDTEXTSTYLE0
 73
     1
 44
1.0
  0
MTEXT
  5
FD
330
1F
100
AcDbEntity
  8
0
  6
Continuous
 62
     7
370
     0
100
AcDbMText
 10
839.9030223578
 20
91.3785301114
 30
0.0
 40
3.96875
 41
0.0
 71
     1
 72
     1
  1
UNI  3970
  7
SLDTEXTSTYLE4
 73
     1
 44
1.0
  0
MTEXT
  5
FE
330
1F
100
AcDbEntity
  8
0
  6
Continuous
 62
     7
370
     0
100
AcDbMText
 10
318.7246202445
 20
102.5609711702
 30
0.0
 40
3.96875
 41
0.0
 71
     1
 72
     1
  1
Tolleranze generali lineari
  7
SLDTEXTSTYLE0
 73
     1
 44
1.0
  0
MTEXT
  5
FF
330
1F
100
AcDbEntity
  8
0
  6
Continuous
 62
     7
370
     0
100
AcDbMText
 10
578.3600089733
 20
102.5609711702
 30
0.0
 40
3.96875
 41
0.0
 71
     1
 72
     1
  1
Tolleranze angolari
  7
SLDTEXTSTYLE0
 73
     1
 44
1.0
  0
MTEXT
  5
100
330
1F
100
AcDbEntity
  8
0
  6
Continuous
 62
     7
370
     0
100
AcDbMText
 10
690.5393242402
 20
102.5609711702
 30
0.0
 40
3.96875
 41
0.0
 71
     1
 72
     1
  1
Smussi non quotati
  7
SLDTEXTSTYLE0
 73
     1
 44
1.0
  0
MTEXT
  5
101
330
1F
100
AcDbEntity
  8
0
  6
Continuous
 62
     7
370
     0
100
AcDbMText
 10
767.2272564122
 20
102.5609711702
 30
0.0
 40
3.96875
 41
0.0
 71
     1
 72
     1
  1
Raggi non quotati
  7
SLDTEXTSTYLE0
 73
     1
 44
1.0
  0
MTEXT
  5
102
330
1F
100
AcDbEntity
  8
0
  6
Continuous
 62
     7
370
     0
100
AcDbMText
 10
396.3178346639
 20
102.5609711702
 30
0.0
 40
3.96875
 41
0.0
 71
     1
 72
     1
  1
Tolleranze generali geometriche
  7
SLDTEXTSTYLE0
 73
     1
 44
1.0
  0
MTEXT
  5
104
330
1F
100
AcDbEntity
  8
0
  6
Continuous
 62
     7
370
     0
100
AcDbMText
 10
412.2618597319
 20
94.6403929789
 30
0.0
 40
5.55625
 41
0.0
 71
     1
 72
     1
  1
UNI EN 2768 H
  7
SLDTEXTSTYLE5
 73
     1
 44
1.0
  0
MTEXT
  5
105
330
1F
100
AcDbEntity
  8
0
  6
Continuous
 62
     7
370
     0
100
AcDbMText
 10
320.9170921131
 20
94.6403929789
 30
0.0
 40
5.55625
 41
0.0
 71
     1
 72
     1
  1
ISO 286-1 ISO 8015
  7
SLDTEXTSTYLE0
 73
     1
 44
1.0
  0
MTEXT
  5
106
330
1F
100
AcDbEntity
  8
0
  6
Continuous
 62
     7
370
     0
100
AcDbMText
 10
319.4358069231
 20
126.1211059587
 30
0.0
 40
3.96875
 41
0.0
 71
     1
 72
     1
  1
Note
  7
SLDTEXTSTYLE0
 73
     1
 44
1.0
  0
MTEXT
  5
107
330
1F
100
AcDbEntity
  8
0
  6
Continuous
 62
     7
370
     0
100
AcDbMText
 10
319.4358069231
 20
148.7205388499
 30
0.0
 40
3.96875
 41
0.0
 71
     1
 72
     1
  1
Materiale
  7
SLDTEXTSTYLE0
 73
     1
 44
1.0
  0
MTEXT
  5
108
330
1F
100
AcDbEntity
  8
0
  6
Continuous
 62
     7
370
     0
100
AcDbMText
 10
498.4970909641
 20
148.7205388499
 30
0.0
 40
3.96875
 41
0.0
 71
     1
 72
     1
  1
Peso Kg
  7
SLDTEXTSTYLE0
 73
     1
 44
1.0
  0
MTEXT
  5
109
330
1F
100
AcDbEntity
  8
0
  6
Continuous
 62
     7
370
     0
100
AcDbMText
 10
678.8885823726
 20
148.7205388499
 30
0.0
 40
3.96875
 41
0.0
 71
     1
 72
     1
  1
Trattamento
  7
SLDTEXTSTYLE0
 73
     1
 44
1.0
  0
MTEXT
  5
10A
330
1F
100
AcDbEntity
  8
0
  6
Continuous
 62
     7
370
     0
100
AcDbMText
 10
678.8617883036
 20
123.4871196592
 30
0.0
 40
3.96875
 41
0.0
 71
     1
 72
     1
  1
Durezza
  7
SLDTEXTSTYLE0
 73
     1
 44
1.0
  0
MTEXT
  5
10B
330
1F
100
AcDbEntity
  8
0
  6
Continuous
 62
     7
370
     0
100
AcDbMText
 10
678.8617883036
 20
110.7286087803
 30
0.0
 40
3.96875
 41
0.0
 71
     1
 72
     1
  1
Profondità
  7
SLDTEXTSTYLE0
 73
     1
 44
1.0
  0
MTEXT
  5
10C
330
1F
100
AcDbEntity
  8
0
  6
Continuous
 62
     7
370
     0
100
AcDbMText
 10
592.0850093732
 20
148.7205388499
 30
0.0
 40
3.96875
 41
0.0
 71
     1
 72
     1
  1
Grado di finitura
  7
SLDTEXTSTYLE0
 73
     1
 44
1.0
  0
MTEXT
  5
10D
330
1F
100
AcDbEntity
  8
0
  6
Continuous
 62
     7
370
     0
100
AcDbMText
 10
837.4405743187
 20
56.1614713544
 30
0.0
 40
4.5
 41
0.0
 71
     1
 72
     1
  1
SCALA:1:3
  7
SLDTEXTSTYLE0
 73
     1
 44
1.0
  0
MTEXT
  5
10E
330
1F
100
AcDbEntity
  8
0
  6
Continuous
 62
     7
370
     0
100
AcDbMText
 10
831.6589836455
 20
27.2557603159
 30
0.0
 40
4.5
 41
0.0
 71
     1
 72
     1
  1
FOGLIO 1 DI 1
  7
SLDTEXTSTYLE5
 73
     1
 44
1.0
  0
MTEXT
  5
10F
330
1F
100
AcDbEntity
  8
0
  6
Continuous
 62
     7
370
     0
100
AcDbMText
 10
617.390915437
 20
39.5903346127
 30
0.0
 40
3.96875
 41
0.0
 71
     1
 72
     1
  1
Codice
  7
SLDTEXTSTYLE0
 73
     1
 44
1.0
  0
MTEXT
  5
110
330
1F
100
AcDbEntity
  8
0
  6
Continuous
 62
     7
370
     0
100
AcDbMText
 10
678.8617883036
 20
50.2343269188
 30
0.0
 40
3.96875
 41
0.0
 71
     1
 72
     1
  1
Revisione disegno
  7
SLDTEXTSTYLE0
 73
     1
 44
1.0
  0
MTEXT
  5
111
330
1F
100
AcDbEntity
  8
0
  6
Continuous
 62
     7
370
     0
100
AcDbMText
 10
639.8527410005
 20
31.4816185595
 30
0.0
 40
7.9375
 41
0.0
 71
     1
 72
     1
  1
12B200105
  7
SLDTEXTSTYLE0
 73
     1
 44
1.0
  0
MTEXT
  5
112
330
1F
100
AcDbEntity
  8
0
  6
Continuous
 62
     7
370
     0
100
AcDbMText
 10
821.2846234645
 20
31.4816185595
 30
0.0
 40
7.9375
 41
0.0
 71
     3
 72
     1
  1
00
  7
SLDTEXTSTYLE0
 73
     1
 44
1.0
  0
CIRCLE
  5
113
330
1F
100
AcDbEntity
  8
0
  6
Continuous
 62
     7
370
    25
100
AcDbCircle
 10
712.1159034764
 20
325.2873031009
 30
0.0
 40
9.125
  0
CIRCLE
  5
114
330
1F
100
AcDbEntity
  8
0
  6
Continuous
 62
     7
370
    25
100
AcDbCircle
 10
712.1159034764
 20
325.2873031009
 30
0.0
 40
4.5
  0
CIRCLE
  5
115
330
1F
100
AcDbEntity
  8
0
  6
Continuous
 62
     7
370
    25
100
AcDbCircle
 10
712.1159034764
 20
280.2873031009
 30
0.0
 40
9.125
  0
CIRCLE
  5
116
330
1F
100
AcDbEntity
  8
0
  6
Continuous
 62
     7
370
    25
100
AcDbCircle
 10
712.1159034764
 20
280.2873031009
 30
0.0
 40
4.5
  0
CIRCLE
  5
117
330
1F
100
AcDbEntity
  8
0
  6
Continuous
 62
     7
370
    25
100
AcDbCircle
 10
667.1159034764
 20
325.2873031009
 30
0.0
 40
9.125
  0
CIRCLE
  5
118
330
1F
100
AcDbEntity
  8
0
  6
Continuous
 62
     7
370
    25
100
AcDbCircle
 10
667.1159034764
 20
325.2873031009
 30
0.0
 40
4.5
  0
CIRCLE
  5
119
330
1F
100
AcDbEntity
  8
0
  6
Continuous
 62
     7
370
    25
100
AcDbCircle
 10
667.1159034764
 20
280.2873031009
 30
0.0
 40
9.125
  0
CIRCLE
  5
11A
330
1F
100
AcDbEntity
  8
0
  6
Continuous
 62
     7
370
    25
100
AcDbCircle
 10
667.1159034764
 20
280.2873031009
 30
0.0
 40
4.5
  0
CIRCLE
  5
11B
330
1F
100
AcDbEntity
  8
0
  6
Continuous
 62
     7
370
    25
100
AcDbCircle
 10
532.1159034764
 20
325.2873031009
 30
0.0
 40
9.125
  0
CIRCLE
  5
11C
330
1F
100
AcDbEntity
  8
0
  6
Continuous
 62
     7
370
    25
100
AcDbCircle
 10
532.1159034764
 20
325.2873031009
 30
0.0
 40
4.5
  0
ARC
  5
11D
330
1F
100
AcDbEntity
  8
0
  6
Continuous
 62
     7
370
    25
100
AcDbCircle
 10
434.6159034764
 20
362.7873031009
 30
0.0
 40
10.0
100
AcDbArc
 50
90.0
 51
180.0
  0
LINE
  5
11E
330
1F
100
AcDbEntity
  8
0
  6
Continuous
 62
     7
370
    25
100
AcDbLine
 10
434.6159034764
 20
372.7873031009
 30
0.0
 11
764.6159034764
 21
372.7873031009
 31
0.0
  0
ARC
  5
11F
330
1F
100
AcDbEntity
  8
0
  6
Continuous
 62
     7
370
    25
100
AcDbCircle
 10
764.6159034764
 20
362.7873031009
 30
0.0
 40
10.0
100
AcDbArc
 50
0.0
 51
90.0
  0
LINE
  5
120
330
1F
100
AcDbEntity
  8
0
  6
Continuous
 62
     7
370
    25
100
AcDbLine
 10
774.6159034764
 20
362.7873031009
 30
0.0
 11
774.6159034764
 21
242.7873031009
 31
0.0
  0
ARC
  5
121
330
1F
100
AcDbEntity
  8
0
  6
Continuous
 62
     7
370
    25
100
AcDbCircle
 10
764.6159034764
 20
242.7873031009
 30
0.0
 40
10.00000000000003
100
AcDbArc
 50
270.0
 51
0.0
  0
LINE
  5
122
330
1F
100
AcDbEntity
  8
0
  6
Continuous
 62
     7
370
    25
100
AcDbLine
 10
764.6159034764
 20
232.7873031009
 30
0.0
 11
434.6159034764
 21
232.7873031009
 31
0.0
  0
ARC
  5
123
330
1F
100
AcDbEntity
  8
0
  6
Continuous
 62
     7
370
    25
100
AcDbCircle
 10
434.6159034764
 20
242.7873031009
 30
0.0
 40
9.999999999999972
100
AcDbArc
 50
180.0
 51
270.0
  0
LINE
  5
124
330
1F
100
AcDbEntity
  8
0
  6
Continuous
 62
     7
370
    25
100
AcDbLine
 10
424.6159034764
 20
242.7873031009
 30
0.0
 11
424.6159034764
 21
362.7873031009
 31
0.0
  0
ARC
  5
125
330
1F
100
AcDbEntity
  8
0
  6
Continuous
 62
     7
370
    25
100
AcDbCircle
 10
449.6159034764
 20
337.7873031009
 30
0.0
 40
4.149999999999977
100
AcDbArc
 50
270.0
 51
90.0
  0
LINE
  5
126
330
1F
100
AcDbEntity
  8
0
  6
Continuous
 62
     7
370
    25
100
AcDbLine
 10
439.6159034764
 20
341.9373031009
 30
0.0
 11
449.6159034764
 21
341.9373031009
 31
0.0
  0
ARC
  5
127
330
1F
100
AcDbEntity
  8
0
  6
Continuous
 62
     7
370
    25
100
AcDbCircle
 10
439.6159034764
 20
337.7873031009
 30
0.0
 40
4.149999999999977
100
AcDbArc
 50
90.0
 51
270.0
  0
LINE
  5
128
330
1F
100
AcDbEntity
  8
0
  6
Continuous
 62
     7
370
    25
100
AcDbLine
 10
449.6159034764
 20
333.6373031009
 30
0.0
 11
439.6159034764
 21
333.6373031009
 31
0.0
  0
ARC
  5
129
330
1F
100
AcDbEntity
  8
0
  6
Continuous
 62
     7
370
    25
100
AcDbCircle
 10
749.6159034764
 20
267.7873031009
 30
0.0
 40
4.150000000000034
100
AcDbArc
 50
90.0
 51
270.0
  0
LINE
  5
12A
330
1F
100
AcDbEntity
  8
0
  6
Continuous
 62
     7
370
    25
100
AcDbLine
 10
759.6159034764
 20
263.6373031009
 30
0.0
 11
749.6159034764
 21
263.6373031009
 31
0.0
  0
ARC
  5
12B
330
1F
100
AcDbEntity
  8
0
  6
Continuous
 62
     7
370
    25
100
AcDbCircle
 10
759.6159034764
 20
267.7873031009
 30
0.0
 40
4.150000000000034
100
AcDbArc
 50
270.0
 51
90.0
  0
LINE
  5
12C
330
1F
100
AcDbEntity
  8
0
  6
Continuous
 62
     7
370
    25
100
AcDbLine
 10
749.6159034764
 20
271.9373031009
 30
0.0
 11
759.6159034764
 21
271.9373031009
 31
0.0
  0
ARC
  5
12D
330
1F
100
AcDbEntity
  8
0
  6
Continuous
 62
     7
370
    25
100
AcDbCircle
 10
449.6159034764
 20
267.7873031009
 30
0.0
 40
4.14999999999992
100
AcDbArc
 50
270.0
 51
90.0
  0
LINE
  5
12E
330
1F
100
AcDbEntity
  8
0
  6
Continuous
 62
     7
370
    25
100
AcDbLine
 10
439.6159034764
 20
271.9373031009
 30
0.0
 11
449.6159034764
 21
271.9373031009
 31
0.0
  0
ARC
  5
12F
330
1F
100
AcDbEntity
  8
0
  6
Continuous
 62
     7
370
    25
100
AcDbCircle
 10
439.6159034764
 20
267.7873031009
 30
0.0
 40
4.150000000000034
100
AcDbArc
 50
90.0
 51
270.0
  0
LINE
  5
130
330
1F
100
AcDbEntity
  8
0
  6
Continuous
 62
     7
370
    25
100
AcDbLine
 10
449.6159034764
 20
263.6373031009
 30
0.0
 11
439.6159034764
 21
263.6373031009
 31
0.0
  0
ARC
  5
131
330
1F
100
AcDbEntity
  8
0
  6
Continuous
 62
     7
370
    25
100
AcDbCircle
 10
749.6159034764
 20
337.7873031009
 30
0.0
 40
4.14999999999992
100
AcDbArc
 50
90.0
 51
270.0
  0
LINE
  5
132
330
1F
100
AcDbEntity
  8
0
  6
Continuous
 62
     7
370
    25
100
AcDbLine
 10
759.6159034764
 20
333.6373031009
 30
0.0
 11
749.6159034764
 21
333.6373031009
 31
0.0
  0
ARC
  5
133
330
1F
100
AcDbEntity
  8
0
  6
Continuous
 62
     7
370
    25
100
AcDbCircle
 10
759.6159034764
 20
337.7873031009
 30
0.0
 40
4.149999999999977
100
AcDbArc
 50
270.0
 51
90.0
  0
LINE
  5
134
330
1F
100
AcDbEntity
  8
0
  6
Continuous
 62
     7
370
    25
100
AcDbLine
 10
749.6159034764
 20
341.9373031009
 30
0.0
 11
759.6159034764
 21
341.9373031009
 31
0.0
  0
CIRCLE
  5
135
330
1F
100
AcDbEntity
  8
0
  6
Continuous
 62
     7
370
    25
100
AcDbCircle
 10
532.1159034764
 20
280.2873031009
 30
0.0
 40
9.125
  0
CIRCLE
  5
136
330
1F
100
AcDbEntity
  8
0
  6
Continuous
 62
     7
370
    25
100
AcDbCircle
 10
487.1159034764
 20
280.2873031009
 30
0.0
 40
9.125
  0
CIRCLE
  5
137
330
1F
100
AcDbEntity
  8
0
  6
Continuous
 62
     7
370
    25
100
AcDbCircle
 10
487.1159034764
 20
325.2873031009
 30
0.0
 40
9.125
  0
CIRCLE
  5
138
330
1F
100
AcDbEntity
  8
0
  6
Continuous
 62
     7
370
    25
100
AcDbCircle
 10
532.1159034764
 20
280.2873031009
 30
0.0
 40
4.5
  0
CIRCLE
  5
139
330
1F
100
AcDbEntity
  8
0
  6
Continuous
 62
     7
370
    25
100
AcDbCircle
 10
487.1159034764
 20
280.2873031009
 30
0.0
 40
4.5
  0
CIRCLE
  5
13A
330
1F
100
AcDbEntity
  8
0
  6
Continuous
 62
     7
370
    25
100
AcDbCircle
 10
487.1159034764
 20
325.2873031009
 30
0.0
 40
4.5
  0
LINE
  5
13B
330
1F
100
AcDbEntity
  8
0
  6
CENTERX2
 62
     7
370
    18
100
AcDbLine
 10
439.6159034764
 20
337.7873031009
 30
0.0
 11
449.6159034764
 21
337.7873031009
 31
0.0
  0
LINE
  5
13C
330
1F
100
AcDbEntity
  8
0
  6
CENTERX2
 62
     7
370
    18
100
AcDbLine
 10
444.6159034764
 20
341.9373031009
 30
0.0
 11
444.6159034764
 21
333.6373031009
 31
0.0
  0
LINE
  5
13D
330
1F
100
AcDbEntity
  8
0
  6
CENTERX2
 62
     7
370
    18
100
AcDbLine
 10
754.6159034764
 20
341.9373031009
 30
0.0
 11
754.6159034764
 21
333.6373031009
 31
0.0
  0
LINE
  5
13E
330
1F
100
AcDbEntity
  8
0
  6
CENTERX2
 62
     7
370
    18
100
AcDbLine
 10
749.6159034764
 20
337.7873031009
 30
0.0
 11
759.6159034764
 21
337.7873031009
 31
0.0
  0
LINE
  5
13F
330
1F
100
AcDbEntity
  8
0
  6
CENTERX2
 62
     7
370
    18
100
AcDbLine
 10
439.6159034764
 20
267.7873031009
 30
0.0
 11
449.6159034764
 21
267.7873031009
 31
0.0
  0
LINE
  5
140
330
1F
100
AcDbEntity
  8
0
  6
CENTERX2
 62
     7
370
    18
100
AcDbLine
 10
749.6159034764
 20
267.7873031009
 30
0.0
 11
759.6159034764
 21
267.7873031009
 31
0.0
  0
DIMENSION
  5
141
330
1F
100
AcDbEntity
  8
0
  6
Continuous
 62
     7
370
    18
100
AcDbDimension
  2
_D
 10
444.6159034764
 20
208.7873031009
 30
0.0
 11
434.6159034764
 21
208.7873031009
 31
0.0
 70
   160
  1
<>
 71
     2
 42
-1.0
  3
SLDDIMSTYLE0
100
AcDbAlignedDimension
 13
424.6159034764
 23
242.7873031009
 33
0.0
 14
444.6159034764
 24
333.6373031009
 34
0.0
100
AcDbRotatedDimension
  0
DIMENSION
  5
14E
330
1F
100
AcDbEntity
  8
0
  6
Continuous
 62
     7
370
    18
100
AcDbDimension
  2
_D_1
 10
754.6159034764
 20
208.7873031009
 30
0.0
 11
599.6159034764
 21
208.7873031009
 31
0.0
 70
   160
  1
<>
 71
     2
 42
-1.0
  3
SLDDIMSTYLE1
100
AcDbAlignedDimension
 13
444.6159034764
 23
333.6373031009
 33
0.0
 14
754.6159034764
 24
333.6373031009
 34
0.0
100
AcDbRotatedDimension
  0
DIMENSION
  5
159
330
1F
100
AcDbEntity
  8
0
  6
Continuous
 62
     7
370
    18
100
AcDbDimension
  2
_D_2
 10
774.6159034764
 20
208.7873031009
 30
0.0
 11
764.6159034764
 21
208.7873031009
 31
0.0
 70
   160
  1
<>
 71
     2
 42
-1.0
  3
SLDDIMSTYLE0
100
AcDbAlignedDimension
 13
754.6159034764
 23
333.6373031009
 33
0.0
 14
774.6159034764
 24
242.7873031009
 34
0.0
100
AcDbRotatedDimension
  0
DIMENSION
  5
165
330
1F
100
AcDbEntity
  8
0
  6
Continuous
 62
     7
370
    18
100
AcDbDimension
  2
_D_3
 10
798.6159034764
 20
267.7873031009
 30
0.0
 11
798.6159034764
 21
250.2873031009
 31
0.0
 70
   160
  1
<>
 71
     2
 42
-1.0
  3
SLDDIMSTYLE1
100
AcDbAlignedDimension
 13
764.6159034764
 23
232.7873031009
 33
0.0
 14
449.6159034764
 24
267.7873031009
 34
0.0
 50
90.0
100
AcDbRotatedDimension
  0
DIMENSION
  5
16F
330
1F
100
AcDbEntity
  8
0
  6
Continuous
 62
     7
370
    18
100
AcDbDimension
  2
_D_4
 10
798.6159034764
 20
337.7873031009
 30
0.0
 11
798.6159034764
 21
302.7873031009
 31
0.0
 70
   160
  1
<>
 71
     2
 42
-1.0
  3
SLDDIMSTYLE1
100
AcDbAlignedDimension
 13
449.6159034764
 23
267.7873031009
 33
0.0
 14
449.6159034764
 24
337.7873031009
 34
0.0
 50
90.0
100
AcDbRotatedDimension
  0
DIMENSION
  5
179
330
1F
100
AcDbEntity
  8
0
  6
Continuous
 62
     7
370
    18
100
AcDbDimension
  2
_D_5
 10
798.6159034764
 20
372.7873031009
 30
0.0
 11
798.6159034764
 21
355.2873031009
 31
0.0
 70
   160
  1
<>
 71
     2
 42
-1.0
  3
SLDDIMSTYLE1
100
AcDbAlignedDimension
 13
449.6159034764
 23
337.7873031009
 33
0.0
 14
764.6159034764
 24
372.7873031009
 34
0.0
 50
90.0
100
AcDbRotatedDimension
  0
DIMENSION
  5
183
330
1F
100
AcDbEntity
  8
0
  6
Continuous
 62
     7
370
    18
100
AcDbDimension
  2
_D_6
 10
487.1159034764
 20
386.7993061286
 30
0.0
 11
455.8659034764
 21
386.7993061286
 31
0.0
 70
   160
  1
<>
 71
     2
 42
-1.0
  3
SLDDIMSTYLE1
100
AcDbAlignedDimension
 13
424.6159034764
 23
362.7873031009
 33
0.0
 14
487.1159034764
 24
280.2873031009
 34
0.0
100
AcDbRotatedDimension
  0
DIMENSION
  5
18D
330
1F
100
AcDbEntity
  8
0
  6
Continuous
 62
     7
370
    18
100
AcDbDimension
  2
_D_7
 10
532.1159034764
 20
386.7993061286
 30
0.0
 11
509.6159034764
 21
386.7993061286
 31
0.0
 70
   160
  1
<>
 71
     2
 42
-1.0
  3
SLDDIMSTYLE1
100
AcDbAlignedDimension
 13
487.1159034764
 23
280.2873031009
 33
0.0
 14
532.1159034764
 24
280.2873031009
 34
0.0
100
AcDbRotatedDimension
  0
DIMENSION
  5
197
330
1F
100
AcDbEntity
  8
0
  6
Continuous
 62
     7
370
    18
100
AcDbDimension
  2
_D_8
 10
667.1159034764
 20
386.7993061286
 30
0.0
 11
599.6159034764
 21
386.7993061286
 31
0.0
 70
   160
  1
<>
 71
     2
 42
-1.0
  3
SLDDIMSTYLE1
100
AcDbAlignedDimension
 13
532.1159034764
 23
280.2873031009
 33
0.0
 14
667.1159034764
 24
280.2873031009
 34
0.0
100
AcDbRotatedDimension
  0
DIMENSION
  5
1A1
330
1F
100
AcDbEntity
  8
0
  6
Continuous
 62
     7
370
    18
100
AcDbDimension
  2
_D_9
 10
712.1159034764
 20
386.7993061286
 30
0.0
 11
689.6159034764
 21
386.7993061286
 31
0.0
 70
   160
  1
<>
 71
     2
 42
-1.0
  3
SLDDIMSTYLE1
100
AcDbAlignedDimension
 13
667.1159034764
 23
280.2873031009
 33
0.0
 14
712.1159034764
 24
280.2873031009
 34
0.0
100
AcDbRotatedDimension
  0
DIMENSION
  5
1AB
330
1F
100
AcDbEntity
  8
0
  6
Continuous
 62
     7
370
    18
100
AcDbDimension
  2
_D_10
 10
774.6159034764
 20
386.7993061286
 30
0.0
 11
743.3659034764
 21
386.7993061286
 31
0.0
 70
   160
  1
<>
 71
     2
 42
-1.0
  3
SLDDIMSTYLE1
100
AcDbAlignedDimension
 13
712.1159034764
 23
280.2873031009
 33
0.0
 14
774.6159034764
 24
362.7873031009
 34
0.0
100
AcDbRotatedDimension
  0
DIMENSION
  5
1B5
330
1F
100
AcDbEntity
  8
0
  6
Continuous
 62
     7
370
    18
100
AcDbDimension
  2
_D_11
 10
774.6159034764
 20
196.7873031009
 30
0.0
 11
599.6159034764
 21
196.7873031009
 31
0.0
 70
   160
  1
<>
 71
     2
 42
-1.0
  3
SLDDIMSTYLE1
100
AcDbAlignedDimension
 13
424.6159034764
 23
242.7873031009
 33
0.0
 14
774.6159034764
 24
242.7873031009
 34
0.0
100
AcDbRotatedDimension
  0
DIMENSION
  5
1BF
330
1F
100
AcDbEntity
  8
0
  6
Continuous
 62
     7
370
    18
100
AcDbDimension
  2
_D_12
 10
810.6159034764
 20
372.7873031009
 30
0.0
 11
810.6159034764
 21
302.7873031009
 31
0.0
 70
   160
  1
<>
 71
     2
 42
-1.0
  3
SLDDIMSTYLE1
100
AcDbAlignedDimension
 13
764.6159034764
 23
232.7873031009
 33
0.0
 14
764.6159034764
 24
372.7873031009
 34
0.0
 50
90.0
100
AcDbRotatedDimension
  0
DIMENSION
  5
1C9
330
1F
100
AcDbEntity
  8
0
  6
Continuous
 62
     7
370
    18
100
AcDbDimension
  2
_D_13
 10
400.6159034764
 20
280.2873031009
 30
0.0
 11
400.6159034764
 21
256.5373031009
 31
0.0
 70
   160
  1
<>
 71
     2
 42
-1.0
  3
SLDDIMSTYLE1
100
AcDbAlignedDimension
 13
434.6159034764
 23
232.7873031009
 33
0.0
 14
712.1159034764
 24
280.2873031009
 34
0.0
 50
90.0
100
AcDbRotatedDimension
  0
DIMENSION
  5
1D3
330
1F
100
AcDbEntity
  8
0
  6
Continuous
 62
     7
370
    18
100
AcDbDimension
  2
_D_14
 10
400.6159034764
 20
325.2873031009
 30
0.0
 11
400.6159034764
 21
302.7873031009
 31
0.0
 70
   160
  1
<>
 71
     2
 42
-1.0
  3
SLDDIMSTYLE1
100
AcDbAlignedDimension
 13
712.1159034764
 23
280.2873031009
 33
0.0
 14
712.1159034764
 24
325.2873031009
 34
0.0
 50
90.0
100
AcDbRotatedDimension
  0
DIMENSION
  5
1DD
330
1F
100
AcDbEntity
  8
0
  6
Continuous
 62
     7
370
    18
100
AcDbDimension
  2
_D_15
 10
400.6159034764
 20
372.7873031009
 30
0.0
 11
400.6159034764
 21
349.0373031009
 31
0.0
 70
   160
  1
<>
 71
     2
 42
-1.0
  3
SLDDIMSTYLE1
100
AcDbAlignedDimension
 13
712.1159034764
 23
325.2873031009
 33
0.0
 14
434.6159034764
 24
372.7873031009
 34
0.0
 50
90.0
100
AcDbRotatedDimension
  0
DIMENSION
  5
1E7
330
1F
100
AcDbEntity
  8
0
  6
Continuous
 62
     7
370
    18
100
AcDbDimension
  2
_D_16
 10
490.6922623332
 20
322.5560657755
 30
0.0
 11
353.65982137
 21
400.262640309
 31
0.0
 70
   163
  1
8 x <> PASSANTE\P{\fGDT;w}%%c 18.25 X 90°\P
 71
     1
 42
-1.0
  3
SLDDIMSTYLE2
100
AcDbDiametricDimension
 15
483.5395446197
 25
328.0185404263
 35
0.0
 40
0.0
  0
DIMENSION
  5
1FF
330
1F
100
AcDbEntity
  8
0
  6
Continuous
 62
     7
370
    18
100
AcDbDimension
  2
_D_17
 10
759.6159034764
 20
337.7873031009
 30
0.0
 11
829.0153060845
 21
402.1224035725
 31
0.0
 70
   164
  1
<> X 18.30\P
 71
     1
 42
-1.0
  3
SLDDIMSTYLE3
100
AcDbRadialDimension
 15
761.6909034764
 25
341.3813085266
 35
0.0
 40
0.0
  0
DIMENSION
  5
209
330
1F
100
AcDbEntity
  8
0
  6
Continuous
 62
     7
370
    18
100
AcDbDimension
  2
_D_18
 10
764.6159034764
 20
242.7873031009
 30
0.0
 11
807.5821263949
 21
209.5193395379
 31
0.0
 70
   164
  1
<>
 71
     1
 42
-1.0
  3
SLDDIMSTYLE4
100
AcDbRadialDimension
 15
772.5227980999
 25
236.6651288618
 35
0.0
 40
0.0
  0
LINE
  5
212
330
1F
100
AcDbEntity
  8
0
  6
Continuous
 62
     7
370
    25
100
AcDbLine
 10
774.6159034764
 20
453.5313403737
 30
0.0
 11
774.6159034764
 21
443.5313403737
 31
0.0
  0
LINE
  5
213
330
1F
100
AcDbEntity
  8
0
  6
Continuous
 62
     7
370
    25
100
AcDbLine
 10
764.6159034764
 20
443.5313403737
 30
0.0
 11
764.6159034764
 21
453.5313403737
 31
0.0
  0
LINE
  5
214
330
1F
100
AcDbEntity
  8
0
  6
Continuous
 62
     7
370
    25
100
AcDbLine
 10
764.6159034764
 20
453.5313403737
 30
0.0
 11
774.6159034764
 21
453.5313403737
 31
0.0
  0
LINE
  5
215
330
1F
100
AcDbEntity
  8
0
  6
Continuous
 62
     7
370
    25
100
AcDbLine
 10
774.6159034764
 20
443.5313403737
 30
0.0
 11
764.6159034764
 21
443.5313403737
 31
0.0
  0
LINE
  5
216
330
1F
100
AcDbEntity
  8
0
  6
Continuous
 62
     7
370
    25
100
AcDbLine
 10
434.6159034764
 20
453.5313403737
 30
0.0
 11
434.6159034764
 21
443.5313403737
 31
0.0
  0
LINE
  5
217
330
1F
100
AcDbEntity
  8
0
  6
Continuous
 62
     7
370
    25
100
AcDbLine
 10
764.6159034764
 20
453.5313403737
 30
0.0
 11
434.6159034764
 21
453.5313403737
 31
0.0
  0
LINE
  5
218
330
1F
100
AcDbEntity
  8
0
  6
Continuous
 62
     7
370
    25
100
AcDbLine
 10
764.6159034764
 20
443.5313403737
 30
0.0
 11
434.6159034764
 21
443.5313403737
 31
0.0
  0
LINE
  5
219
330
1F
100
AcDbEntity
  8
0
  6
Continuous
 62
     7
370
    25
100
AcDbLine
 10
424.6159034764
 20
443.5313403737
 30
0.0
 11
424.6159034764
 21
453.5313403737
 31
0.0
  0
LINE
  5
21A
330
1F
100
AcDbEntity
  8
0
  6
Continuous
 62
     7
370
    25
100
AcDbLine
 10
424.6159034764
 20
453.5313403737
 30
0.0
 11
434.6159034764
 21
453.5313403737
 31
0.0
  0
LINE
  5
21B
330
1F
100
AcDbEntity
  8
0
  6
Continuous
 62
     7
370
    25
100
AcDbLine
 10
434.6159034764
 20
443.5313403737
 30
0.0
 11
424.6159034764
 21
443.5313403737
 31
0.0
  0
LINE
  5
21C
330
1F
100
AcDbEntity
  8
0
  6
HIDDEN
 62
     7
370
    18
100
AcDbLine
 10
759.6159034764
 20
453.5313403737
 30
0.0
 11
759.6159034764
 21
443.5313403737
 31
0.0
  0
LINE
  5
21D
330
1F
100
AcDbEntity
  8
0
  6
HIDDEN
 62
     7
370
    18
100
AcDbLine
 10
749.6159034764
 20
453.5313403737
 30
0.0
 11
749.6159034764
 21
443.5313403737
 31
0.0
  0
LINE
  5
21E
330
1F
100
AcDbEntity
  8
0
  6
HIDDEN
 62
     7
370
    18
100
AcDbLine
 10
439.6159034764
 20
453.5313403737
 30
0.0
 11
439.6159034764
 21
443.5313403737
 31
0.0
  0
LINE
  5
21F
330
1F
100
AcDbEntity
  8
0
  6
HIDDEN
 62
     7
370
    18
100
AcDbLine
 10
449.6159034764
 20
453.5313403737
 30
0.0
 11
449.6159034764
 21
443.5313403737
 31
0.0
  0
LINE
  5
220
330
1F
100
AcDbEntity
  8
0
  6
HIDDEN
 62
     7
370
    18
100
AcDbLine
 10
667.1159034764
 20
448.9063403737
 30
0.0
 11
671.6159034764
 21
448.9063403737
 31
0.0
  0
LINE
  5
221
330
1F
100
AcDbEntity
  8
0
  6
HIDDEN
 62
     7
370
    18
100
AcDbLine
 10
662.6159034764
 20
448.9063403737
 30
0.0
 11
667.1159034764
 21
448.9063403737
 31
0.0
  0
LINE
  5
222
330
1F
100
AcDbEntity
  8
0
  6
HIDDEN
 62
     7
370
    18
100
AcDbLine
 10
487.1159034764
 20
448.9063403737
 30
0.0
 11
491.6159034764
 21
448.9063403737
 31
0.0
  0
LINE
  5
223
330
1F
100
AcDbEntity
  8
0
  6
HIDDEN
 62
     7
370
    18
100
AcDbLine
 10
482.6159034764
 20
448.9063403737
 30
0.0
 11
487.1159034764
 21
448.9063403737
 31
0.0
  0
LINE
  5
224
330
1F
100
AcDbEntity
  8
0
  6
HIDDEN
 62
     7
370
    18
100
AcDbLine
 10
712.1159034764
 20
448.9063403737
 30
0.0
 11
716.6159034764
 21
448.9063403737
 31
0.0
  0
LINE
  5
225
330
1F
100
AcDbEntity
  8
0
  6
HIDDEN
 62
     7
370
    18
100
AcDbLine
 10
707.6159034764
 20
448.9063403737
 30
0.0
 11
712.1159034764
 21
448.9063403737
 31
0.0
  0
LINE
  5
226
330
1F
100
AcDbEntity
  8
0
  6
HIDDEN
 62
     7
370
    18
100
AcDbLine
 10
532.1159034764
 20
448.9063403737
 30
0.0
 11
536.6159034764
 21
448.9063403737
 31
0.0
  0
LINE
  5
227
330
1F
100
AcDbEntity
  8
0
  6
HIDDEN
 62
     7
370
    18
100
AcDbLine
 10
527.6159034764
 20
448.9063403737
 30
0.0
 11
532.1159034764
 21
448.9063403737
 31
0.0
  0
LINE
  5
228
330
1F
100
AcDbEntity
  8
0
  6
HIDDEN
 62
     7
370
    18
100
AcDbLine
 10
763.7659034764
 20
443.5313403737
 30
0.0
 11
763.7659034764
 21
453.5313403737
 31
0.0
  0
LINE
  5
229
330
1F
100
AcDbEntity
  8
0
  6
HIDDEN
 62
     7
370
    18
100
AcDbLine
 10
745.4659034764
 20
453.5313403737
 30
0.0
 11
745.4659034764
 21
443.5313403737
 31
0.0
  0
LINE
  5
22A
330
1F
100
AcDbEntity
  8
0
  6
HIDDEN
 62
     7
370
    18
100
AcDbLine
 10
435.4659034764
 20
453.5313403737
 30
0.0
 11
435.4659034764
 21
443.5313403737
 31
0.0
  0
LINE
  5
22B
330
1F
100
AcDbEntity
  8
0
  6
HIDDEN
 62
     7
370
    18
100
AcDbLine
 10
453.7659034764
 20
443.5313403737
 30
0.0
 11
453.7659034764
 21
453.5313403737
 31
0.0
  0
LINE
  5
22C
330
1F
100
AcDbEntity
  8
0
  6
HIDDEN
 62
     7
370
    18
100
AcDbLine
 10
657.9909034764
 20
453.5313403737
 30
0.0
 11
662.6159034764
 21
448.9063403737
 31
0.0
  0
LINE
  5
22D
330
1F
100
AcDbEntity
  8
0
  6
HIDDEN
 62
     7
370
    18
100
AcDbLine
 10
671.6159034764
 20
448.9063403737
 30
0.0
 11
676.2409034764
 21
453.5313403737
 31
0.0
  0
LINE
  5
22E
330
1F
100
AcDbEntity
  8
0
  6
HIDDEN
 62
     7
370
    18
100
AcDbLine
 10
477.9909034764
 20
453.5313403737
 30
0.0
 11
482.6159034764
 21
448.9063403737
 31
0.0
  0
LINE
  5
22F
330
1F
100
AcDbEntity
  8
0
  6
HIDDEN
 62
     7
370
    18
100
AcDbLine
 10
491.6159034764
 20
448.9063403737
 30
0.0
 11
496.2409034764
 21
453.5313403737
 31
0.0
  0
LINE
  5
230
330
1F
100
AcDbEntity
  8
0
  6
HIDDEN
 62
     7
370
    18
100
AcDbLine
 10
702.9909034764
 20
453.5313403737
 30
0.0
 11
707.6159034764
 21
448.9063403737
 31
0.0
  0
LINE
  5
231
330
1F
100
AcDbEntity
  8
0
  6
HIDDEN
 62
     7
370
    18
100
AcDbLine
 10
716.6159034764
 20
448.9063403737
 30
0.0
 11
721.2409034764
 21
453.5313403737
 31
0.0
  0
LINE
  5
232
330
1F
100
AcDbEntity
  8
0
  6
HIDDEN
 62
     7
370
    18
100
AcDbLine
 10
522.9909034764
 20
453.5313403737
 30
0.0
 11
527.6159034764
 21
448.9063403737
 31
0.0
  0
LINE
  5
233
330
1F
100
AcDbEntity
  8
0
  6
HIDDEN
 62
     7
370
    18
100
AcDbLine
 10
536.6159034764
 20
448.9063403737
 30
0.0
 11
541.2409034764
 21
453.5313403737
 31
0.0
  0
LINE
  5
234
330
1F
100
AcDbEntity
  8
0
  6
HIDDEN
 62
     7
370
    18
100
AcDbLine
 10
707.6159034764
 20
448.9063403737
 30
0.0
 11
707.6159034764
 21
443.5313403737
 31
0.0
  0
LINE
  5
235
330
1F
100
AcDbEntity
  8
0
  6
HIDDEN
 62
     7
370
    18
100
AcDbLine
 10
716.6159034764
 20
443.5313403737
 30
0.0
 11
716.6159034764
 21
448.9063403737
 31
0.0
  0
LINE
  5
236
330
1F
100
AcDbEntity
  8
0
  6
HIDDEN
 62
     7
370
    18
100
AcDbLine
 10
482.6159034764
 20
448.9063403737
 30
0.0
 11
482.6159034764
 21
443.5313403737
 31
0.0
  0
LINE
  5
237
330
1F
100
AcDbEntity
  8
0
  6
HIDDEN
 62
     7
370
    18
100
AcDbLine
 10
491.6159034764
 20
443.5313403737
 30
0.0
 11
491.6159034764
 21
448.9063403737
 31
0.0
  0
LINE
  5
238
330
1F
100
AcDbEntity
  8
0
  6
HIDDEN
 62
     7
370
    18
100
AcDbLine
 10
662.6159034764
 20
448.9063403737
 30
0.0
 11
662.6159034764
 21
443.5313403737
 31
0.0
  0
LINE
  5
239
330
1F
100
AcDbEntity
  8
0
  6
HIDDEN
 62
     7
370
    18
100
AcDbLine
 10
671.6159034764
 20
443.5313403737
 30
0.0
 11
671.6159034764
 21
448.9063403737
 31
0.0
  0
LINE
  5
23A
330
1F
100
AcDbEntity
  8
0
  6
HIDDEN
 62
     7
370
    18
100
AcDbLine
 10
527.6159034764
 20
448.9063403737
 30
0.0
 11
527.6159034764
 21
443.5313403737
 31
0.0
  0
LINE
  5
23B
330
1F
100
AcDbEntity
  8
0
  6
HIDDEN
 62
     7
370
    18
100
AcDbLine
 10
536.6159034764
 20
443.5313403737
 30
0.0
 11
536.6159034764
 21
448.9063403737
 31
0.0
  0
DIMENSION
  5
23C
330
1F
100
AcDbEntity
  8
0
  6
Continuous
 62
     7
370
    18
100
AcDbDimension
  2
_D_19
 10
793.8331463228
 20
443.5313403737
 30
0.0
 11
793.8331463228
 21
467.6697525888
 31
0.0
 70
   160
  1
<>
 71
     2
 42
-1.0
  3
SLDDIMSTYLE0
100
AcDbAlignedDimension
 13
774.6159034764
 23
453.5313403737
 33
0.0
 14
774.6159034764
 24
443.5313403737
 34
0.0
 50
90.0
100
AcDbRotatedDimension
  0
CIRCLE
  5
248
330
1F
100
AcDbEntity
  8
0
  6
Continuous
 62
     7
370
    25
100
AcDbCircle
 10
146.3807229894
 20
450.302717303
 30
0.0
 40
4.5
  0
LINE
  5
249
330
1F
100
AcDbEntity
  8
0
  6
Continuous
 62
     7
370
    25
100
AcDbLine
 10
199.7307229894
 20
497.802717303
 30
0.0
 11
199.7307229894
 21
487.802717303
 31
0.0
  0
ARC
  5
24A
330
1F
100
AcDbEntity
  8
0
  6
Continuous
 62
     7
370
    25
100
AcDbCircle
 10
203.8807229894
 20
487.802717303
 30
0.0
 40
4.150000000000006
100
AcDbArc
 50
180.0
 51
0.0
  0
LINE
  5
24B
330
1F
100
AcDbEntity
  8
0
  6
Continuous
 62
     7
370
    25
100
AcDbLine
 10
208.0307229894
 20
487.802717303
 30
0.0
 11
208.0307229894
 21
497.802717303
 31
0.0
  0
ARC
  5
24C
330
1F
100
AcDbEntity
  8
0
  6
Continuous
 62
     7
370
    25
100
AcDbCircle
 10
203.8807229894
 20
497.802717303
 30
0.0
 40
4.150000000000063
100
AcDbArc
 50
360.0
 51
180.0
  0
LINE
  5
24D
330
1F
100
AcDbEntity
  8
0
  6
Continuous
 62
     7
370
    25
100
AcDbLine
 10
138.0307229894
 20
177.802717303
 30
0.0
 11
138.0307229894
 21
187.802717303
 31
0.0
  0
ARC
  5
24E
330
1F
100
AcDbEntity
  8
0
  6
Continuous
 62
     7
370
    25
100
AcDbCircle
 10
133.8807229894
 20
187.802717303
 30
0.0
 40
4.149999999999977
100
AcDbArc
 50
0.0
 51
180.0
  0
LINE
  5
24F
330
1F
100
AcDbEntity
  8
0
  6
Continuous
 62
     7
370
    25
100
AcDbLine
 10
129.7307229894
 20
187.802717303
 30
0.0
 11
129.7307229894
 21
177.802717303
 31
0.0
  0
ARC
  5
250
330
1F
100
AcDbEntity
  8
0
  6
Continuous
 62
     7
370
    25
100
AcDbCircle
 10
133.8807229894
 20
177.802717303
 30
0.0
 40
4.150000000000034
100
AcDbArc
 50
180.0
 51
0.0
  0
LINE
  5
251
330
1F
100
AcDbEntity
  8
0
  6
Continuous
 62
     7
370
    25
100
AcDbLine
 10
129.7307229894
 20
497.802717303
 30
0.0
 11
129.7307229894
 21
487.802717303
 31
0.0
  0
ARC
  5
252
330
1F
100
AcDbEntity
  8
0
  6
Continuous
 62
     7
370
    25
100
AcDbCircle
 10
133.8807229894
 20
487.802717303
 30
0.0
 40
4.149999999999977
100
AcDbArc
 50
180.0
 51
0.0
  0
LINE
  5
253
330
1F
100
AcDbEntity
  8
0
  6
Continuous
 62
     7
370
    25
100
AcDbLine
 10
138.0307229894
 20
487.802717303
 30
0.0
 11
138.0307229894
 21
497.802717303
 31
0.0
  0
ARC
  5
254
330
1F
100
AcDbEntity
  8
0
  6
Continuous
 62
     7
370
    25
100
AcDbCircle
 10
133.8807229894
 20
497.802717303
 30
0.0
 40
4.150000000000063
100
AcDbArc
 50
0.0
 51
180.0
  0
LINE
  5
255
330
1F
100
AcDbEntity
  8
0
  6
Continuous
 62
     7
370
    25
100
AcDbLine
 10
208.0307229894
 20
177.802717303
 30
0.0
 11
208.0307229894
 21
187.802717303
 31
0.0
  0
ARC
  5
256
330
1F
100
AcDbEntity
  8
0
  6
Continuous
 62
     7
370
    25
100
AcDbCircle
 10
203.8807229894
 20
187.802717303
 30
0.0
 40
4.150000000000006
100
AcDbArc
 50
0.0
 51
180.0
  0
LINE
  5
257
330
1F
100
AcDbEntity
  8
0
  6
Continuous
 62
     7
370
    25
100
AcDbLine
 10
199.7307229894
 20
187.802717303
 30
0.0
 11
199.7307229894
 21
177.802717303
 31
0.0
  0
ARC
  5
258
330
1F
100
AcDbEntity
  8
0
  6
Continuous
 62
     7
370
    25
100
AcDbCircle
 10
203.8807229894
 20
177.802717303
 30
0.0
 40
4.150000000000034
100
AcDbArc
 50
180.0
 51
0.0
  0
ARC
  5
259
330
1F
100
AcDbEntity
  8
0
  6
Continuous
 62
     7
370
    25
100
AcDbCircle
 10
108.8807229894
 20
502.802717303
 30
0.0
 40
10.0
100
AcDbArc
 50
90.0
 51
180.0
  0
LINE
  5
25A
330
1F
100
AcDbEntity
  8
0
  6
Continuous
 62
     7
370
    25
100
AcDbLine
 10
228.8807229894
 20
512.802717303
 30
0.0
 11
108.8807229894
 21
512.802717303
 31
0.0
  0
ARC
  5
25B
330
1F
100
AcDbEntity
  8
0
  6
Continuous
 62
     7
370
    25
100
AcDbCircle
 10
228.8807229894
 20
502.802717303
 30
0.0
 40
10.00000000000003
100
AcDbArc
 50
0.0
 51
90.0
  0
LINE
  5
25C
330
1F
100
AcDbEntity
  8
0
  6
Continuous
 62
     7
370
    25
100
AcDbLine
 10
238.8807229894
 20
172.802717303
 30
0.0
 11
238.8807229894
 21
502.802717303
 31
0.0
  0
ARC
  5
25D
330
1F
100
AcDbEntity
  8
0
  6
Continuous
 62
     7
370
    25
100
AcDbCircle
 10
228.8807229894
 20
172.802717303
 30
0.0
 40
10.0
100
AcDbArc
 50
270.0
 51
0.0
  0
LINE
  5
25E
330
1F
100
AcDbEntity
  8
0
  6
Continuous
 62
     7
370
    25
100
AcDbLine
 10
108.8807229894
 20
162.802717303
 30
0.0
 11
228.8807229894
 21
162.802717303
 31
0.0
  0
ARC
  5
25F
330
1F
100
AcDbEntity
  8
0
  6
Continuous
 62
     7
370
    25
100
AcDbCircle
 10
108.8807229894
 20
172.802717303
 30
0.0
 40
10.0
100
AcDbArc
 50
180.0
 51
270.0
  0
LINE
  5
260
330
1F
100
AcDbEntity
  8
0
  6
Continuous
 62
     7
370
    25
100
AcDbLine
 10
98.8807229894
 20
502.802717303
 30
0.0
 11
98.8807229894
 21
172.802717303
 31
0.0
  0
CIRCLE
  5
261
330
1F
100
AcDbEntity
  8
0
  6
Continuous
 62
     7
370
    25
100
AcDbCircle
 10
146.3807229894
 20
405.302717303
 30
0.0
 40
4.5
  0
CIRCLE
  5
262
330
1F
100
AcDbEntity
  8
0
  6
Continuous
 62
     7
370
    25
100
AcDbCircle
 10
191.3807229894
 20
450.302717303
 30
0.0
 40
4.5
  0
CIRCLE
  5
263
330
1F
100
AcDbEntity
  8
0
  6
Continuous
 62
     7
370
    25
100
AcDbCircle
 10
191.3807229894
 20
405.302717303
 30
0.0
 40
4.5
  0
CIRCLE
  5
264
330
1F
100
AcDbEntity
  8
0
  6
Continuous
 62
     7
370
    25
100
AcDbCircle
 10
191.3807229894
 20
270.302717303
 30
0.0
 40
4.5
  0
CIRCLE
  5
265
330
1F
100
AcDbEntity
  8
0
  6
Continuous
 62
     7
370
    25
100
AcDbCircle
 10
146.3807229894
 20
270.302717303
 30
0.0
 40
4.5
  0
CIRCLE
  5
266
330
1F
100
AcDbEntity
  8
0
  6
Continuous
 62
     7
370
    25
100
AcDbCircle
 10
146.3807229894
 20
225.302717303
 30
0.0
 40
4.5
  0
CIRCLE
  5
267
330
1F
100
AcDbEntity
  8
0
  6
Continuous
 62
     7
370
    25
100
AcDbCircle
 10
191.3807229894
 20
225.302717303
 30
0.0
 40
4.5
  0
CIRCLE
  5
268
330
1F
100
AcDbEntity
  8
0
  6
HIDDEN
 62
     7
370
    18
100
AcDbCircle
 10
191.3807229894
 20
270.302717303
 30
0.0
 40
9.125
  0
CIRCLE
  5
269
330
1F
100
AcDbEntity
  8
0
  6
HIDDEN
 62
     7
370
    18
100
AcDbCircle
 10
146.3807229894
 20
225.302717303
 30
0.0
 40
9.125
  0
CIRCLE
  5
26A
330
1F
100
AcDbEntity
  8
0
  6
HIDDEN
 62
     7
370
    18
100
AcDbCircle
 10
191.3807229894
 20
405.302717303
 30
0.0
 40
9.125
  0
CIRCLE
  5
26B
330
1F
100
AcDbEntity
  8
0
  6
HIDDEN
 62
     7
370
    18
100
AcDbCircle
 10
146.3807229894
 20
270.302717303
 30
0.0
 40
9.125
  0
CIRCLE
  5
26C
330
1F
100
AcDbEntity
  8
0
  6
HIDDEN
 62
     7
370
    18
100
AcDbCircle
 10
191.3807229894
 20
225.302717303
 30
0.0
 40
9.125
  0
CIRCLE
  5
26D
330
1F
100
AcDbEntity
  8
0
  6
HIDDEN
 62
     7
370
    18
100
AcDbCircle
 10
191.3807229894
 20
450.302717303
 30
0.0
 40
9.125
  0
CIRCLE
  5
26E
330
1F
100
AcDbEntity
  8
0
  6
HIDDEN
 62
     7
370
    18
100
AcDbCircle
 10
146.3807229894
 20
405.302717303
 30
0.0
 40
9.125
  0
CIRCLE
  5
26F
330
1F
100
AcDbEntity
  8
0
  6
HIDDEN
 62
     7
370
    18
100
AcDbCircle
 10
146.3807229894
 20
450.302717303
 30
0.0
 40
9.125
  0
DIMENSION
  5
270
330
1F
100
AcDbEntity
  8
0
  6
Continuous
 62
     7
370
    18
100
AcDbDimension
  2
_D_20
 10
238.8807229894
 20
138.802717303
 30
0.0
 11
168.8807229894
 21
138.802717303
 31
0.0
 70
   160
  1
<>
 71
     2
 42
-1.0
  3
SLDDIMSTYLE1
100
AcDbAlignedDimension
 13
98.8807229894
 23
172.802717303
 33
0.0
 14
238.8807229894
 24
172.802717303
 34
0.0
100
AcDbRotatedDimension
  0
DIMENSION
  5
27A
330
1F
100
AcDbEntity
  8
0
  6
Continuous
 62
     7
370
    18
100
AcDbDimension
  2
_D_21
 10
74.8807229894
 20
162.802717303
 30
0.0
 11
74.8807229894
 21
337.802717303
 31
0.0
 70
   160
  1
<>
 71
     2
 42
-1.0
  3
SLDDIMSTYLE1
100
AcDbAlignedDimension
 13
108.8807229894
 23
512.802717303
 33
0.0
 14
108.8807229894
 24
162.802717303
 34
0.0
 50
90.0
100
AcDbRotatedDimension
  0
INSERT
  5
288
330
1F
100
AcDbEntity
  8
0
  6
Continuous
 62
     7
370
     0
100
AcDbBlockReference
  2
SW_NOTE_0
 10
277.7851340374
 20
479.8537774167
 30
0.0
  0
LEADER
  5
28F
330
1F
100
AcDbEntity
  8
0
  6
Continuous
 62
     7
370
     0
100
AcDbLeader
  3
SLDDIMSTYLE5
 76
     2
 10
214.727775792
 20
440.1582258117
 30
0.0
 10
277.7851340374
 20
479.8537774167
 30
0.0
  0
LINE
  5
290
330
1F
100
AcDbEntity
  8
0
  6
Continuous
 62
     7
370
    25
100
AcDbLine
 10
228.8807229894
 20
542.8136436915
 30
0.0
 11
228.8807229894
 21
552.8136436915
 31
0.0
  0
LINE
  5
291
330
1F
100
AcDbEntity
  8
0
  6
Continuous
 62
     7
370
    25
100
AcDbLine
 10
108.8807229894
 20
552.8136436915
 30
0.0
 11
108.8807229894
 21
542.8136436915
 31
0.0
  0
LINE
  5
292
330
1F
100
AcDbEntity
  8
0
  6
Continuous
 62
     7
370
    25
100
AcDbLine
 10
108.8807229894
 20
552.8136436915
 30
0.0
 11
228.8807229894
 21
552.8136436915
 31
0.0
  0
LINE
  5
293
330
1F
100
AcDbEntity
  8
0
  6
Continuous
 62
     7
370
    25
100
AcDbLine
 10
108.8807229894
 20
542.8136436915
 30
0.0
 11
228.8807229894
 21
542.8136436915
 31
0.0
  0
LINE
  5
294
330
1F
100
AcDbEntity
  8
0
  6
Continuous
 62
     7
370
    25
100
AcDbLine
 10
228.8807229894
 20
552.8136436915
 30
0.0
 11
238.8807229894
 21
552.8136436915
 31
0.0
  0
LINE
  5
295
330
1F
100
AcDbEntity
  8
0
  6
Continuous
 62
     7
370
    25
100
AcDbLine
 10
238.8807229894
 20
552.8136436915
 30
0.0
 11
238.8807229894
 21
542.8136436915
 31
0.0
  0
LINE
  5
296
330
1F
100
AcDbEntity
  8
0
  6
Continuous
 62
     7
370
    25
100
AcDbLine
 10
238.8807229894
 20
542.8136436915
 30
0.0
 11
228.8807229894
 21
542.8136436915
 31
0.0
  0
LINE
  5
297
330
1F
100
AcDbEntity
  8
0
  6
Continuous
 62
     7
370
    25
100
AcDbLine
 10
98.8807229894
 20
542.8136436915
 30
0.0
 11
98.8807229894
 21
552.8136436915
 31
0.0
  0
LINE
  5
298
330
1F
100
AcDbEntity
  8
0
  6
Continuous
 62
     7
370
    25
100
AcDbLine
 10
98.8807229894
 20
552.8136436915
 30
0.0
 11
108.8807229894
 21
552.8136436915
 31
0.0
  0
LINE
  5
299
330
1F
100
AcDbEntity
  8
0
  6
Continuous
 62
     7
370
    25
100
AcDbLine
 10
108.8807229894
 20
542.8136436915
 30
0.0
 11
98.8807229894
 21
542.8136436915
 31
0.0
  0
LINE
  5
29A
330
1F
100
AcDbEntity
  8
0
  6
HIDDEN
 62
     7
370
    18
100
AcDbLine
 10
129.7307229894
 20
542.8136436915
 30
0.0
 11
129.7307229894
 21
552.8136436915
 31
0.0
  0
LINE
  5
29B
330
1F
100
AcDbEntity
  8
0
  6
HIDDEN
 62
     7
370
    18
100
AcDbLine
 10
138.0307229894
 20
542.8136436915
 30
0.0
 11
138.0307229894
 21
552.8136436915
 31
0.0
  0
LINE
  5
29C
330
1F
100
AcDbEntity
  8
0
  6
HIDDEN
 62
     7
370
    18
100
AcDbLine
 10
199.7307229894
 20
542.8136436915
 30
0.0
 11
199.7307229894
 21
552.8136436915
 31
0.0
  0
LINE
  5
29D
330
1F
100
AcDbEntity
  8
0
  6
HIDDEN
 62
     7
370
    18
100
AcDbLine
 10
208.0307229894
 20
542.8136436915
 30
0.0
 11
208.0307229894
 21
552.8136436915
 31
0.0
  0
LINE
  5
29E
330
1F
100
AcDbEntity
  8
0
  6
HIDDEN
 62
     7
370
    18
100
AcDbLine
 10
150.8807229894
 20
547.4386436915
 30
0.0
 11
141.8807229894
 21
547.4386436915
 31
0.0
  0
LINE
  5
29F
330
1F
100
AcDbEntity
  8
0
  6
HIDDEN
 62
     7
370
    18
100
AcDbLine
 10
195.8807229894
 20
547.4386436915
 30
0.0
 11
186.8807229894
 21
547.4386436915
 31
0.0
  0
LINE
  5
2A0
330
1F
100
AcDbEntity
  8
0
  6
HIDDEN
 62
     7
370
    18
100
AcDbLine
 10
155.5057229894
 20
542.8136436915
 30
0.0
 11
150.8807229894
 21
547.4386436915
 31
0.0
  0
LINE
  5
2A1
330
1F
100
AcDbEntity
  8
0
  6
HIDDEN
 62
     7
370
    18
100
AcDbLine
 10
141.8807229894
 20
547.4386436915
 30
0.0
 11
137.2557229894
 21
542.8136436915
 31
0.0
  0
LINE
  5
2A2
330
1F
100
AcDbEntity
  8
0
  6
HIDDEN
 62
     7
370
    18
100
AcDbLine
 10
200.5057229894
 20
542.8136436915
 30
0.0
 11
195.8807229894
 21
547.4386436915
 31
0.0
  0
LINE
  5
2A3
330
1F
100
AcDbEntity
  8
0
  6
HIDDEN
 62
     7
370
    18
100
AcDbLine
 10
186.8807229894
 20
547.4386436915
 30
0.0
 11
182.2557229894
 21
542.8136436915
 31
0.0
  0
LINE
  5
2A4
330
1F
100
AcDbEntity
  8
0
  6
HIDDEN
 62
     7
370
    18
100
AcDbLine
 10
150.8807229894
 20
547.4386436915
 30
0.0
 11
150.8807229894
 21
552.8136436915
 31
0.0
  0
LINE
  5
2A5
330
1F
100
AcDbEntity
  8
0
  6
HIDDEN
 62
     7
370
    18
100
AcDbLine
 10
141.8807229894
 20
552.8136436915
 30
0.0
 11
141.8807229894
 21
547.4386436915
 31
0.0
  0
LINE
  5
2A6
330
1F
100
AcDbEntity
  8
0
  6
HIDDEN
 62
     7
370
    18
100
AcDbLine
 10
195.8807229894
 20
547.4386436915
 30
0.0
 11
195.8807229894
 21
552.8136436915
 31
0.0
  0
LINE
  5
2A7
330
1F
100
AcDbEntity
  8
0
  6
HIDDEN
 62
     7
370
    18
100
AcDbLine
 10
186.8807229894
 20
552.8136436915
 30
0.0
 11
186.8807229894
 21
547.4386436915
 31
0.0
  0
DIMENSION
  5
2A8
330
1F
100
AcDbEntity
  8
0
  6
Continuous
 62
     7
370
    18
100
AcDbDimension
  2
_D_22
 10
255.1901798237
 20
542.8136436915
 30
0.0
 11
255.1901798237
 21
528.551988989
 31
0.0
 70
   160
  1
<>
 71
     2
 42
-1.0
  3
SLDDIMSTYLE0
100
AcDbAlignedDimension
 13
238.8807229894
 23
552.8136436915
 33
0.0
 14
238.8807229894
 24
542.8136436915
 34
0.0
 50
90.0
100
AcDbRotatedDimension
  0
LINE
  5
2B4
330
1F
100
AcDbEntity
  8
0
  6
Continuous
 62
     7
370
    25
100
AcDbLine
 10
235.8984872215
 20
57.0082177262
 30
0.0
 11
235.8984872215
 21
60.0702457708
 31
0.0
  0
LINE
  5
2B5
330
1F
100
AcDbEntity
  8
0
  6
Continuous
 62
     7
370
    25
100
AcDbLine
 10
109.0742178963
 20
92.2163151738
 30
0.0
 11
109.0742178963
 21
89.1542871293
 31
0.0
  0
LWPOLYLINE
  5
2B6
330
1F
100
AcDbEntity
  8
0
  6
Continuous
 62
     7
370
    25
100
AcDbPolyline
 90
       27
 70
   128
 43
0.0
 10
209.4768760497
 20
63.0552379297
 10
209.7277642535
 20
62.8703701231
 10
209.8947248187
 20
62.656213032
 10
209.9680546042
 20
62.4252126881
 10
209.9434919494
 20
62.1907939918
 10
209.8224643466
 20
61.9665805056
 10
209.61200548
 20
61.7656027023
 10
209.324346454
 20
61.5995406813
 10
208.9762049657
 20
61.4780453638
 10
208.5878137328
 20
61.4081776158
 10
208.1817446421
 20
61.393997897
 10
207.7815969531
 20
61.4363302811
 10
207.410625795
 20
61.5327145638
 10
207.0903906632
 20
61.677549241
 10
206.8395024595
 20
61.8624170475
 10
206.6725418942
 20
62.0765741386
 10
206.5992121087
 20
62.3075744825
 10
206.6237747635
 20
62.5419931788
 10
206.7448023664
 20
62.766206665
 10
206.9552612329
 20
62.9671844683
 10
207.2429202589
 20
63.1332464893
 10
207.5910617473
 20
63.2547418069
 10
207.9794529802
 20
63.3246095548
 10
208.3855220709
 20
63.3387892736
 10
208.7856697598
 20
63.2964568895
 10
209.1566409179
 20
63.2000726068
 10
209.4768760497
 20
63.0552379297
  0
LINE
  5
2B7
330
1F
100
AcDbEntity
  8
0
  6
Continuous
 62
     7
370
    25
100
AcDbLine
 10
206.7324178552
 20
46.9286264458
 30
0.0
 11
204.0807674258
 21
48.4593916555
 31
0.0
  0
LWPOLYLINE
  5
2B8
330
1F
100
AcDbEntity
  8
0
  6
Continuous
 62
     7
370
    25
100
AcDbPolyline
 90
       13
 70
   128
 43
0.0
 10
204.0807674258
 20
48.4593916555
 10
203.7584574976
 20
48.602164782
 10
203.3831196365
 20
48.6919157214
 10
202.9803324976
 20
48.7225280954
 10
202.5775453586
 20
48.6919157214
 10
202.2022074976
 20
48.602164782
 10
201.8798975693
 20
48.4593916555
 10
201.6325804629
 20
48.2733260944
 10
201.4771104304
 20
48.0566481594
 10
201.4240824976
 20
47.8241240935
 10
201.4771104304
 20
47.5916000276
 10
201.6325804629
 20
47.3749220925
 10
201.8798975693
 20
47.1888565315
  0
LINE
  5
2B9
330
1F
100
AcDbEntity
  8
0
  6
Continuous
 62
     7
370
    25
100
AcDbLine
 10
201.8798975693
 20
47.1888565315
 30
0.0
 11
204.5315479988
 21
45.6580913218
 31
0.0
  0
LWPOLYLINE
  5
2BA
330
1F
100
AcDbEntity
  8
0
  6
Continuous
 62
     7
370
    25
100
AcDbPolyline
 90
       13
 70
   128
 43
0.0
 10
204.5315479988
 20
45.6580913218
 10
204.853857927
 20
45.5153181953
 10
205.2291957881
 20
45.4255672559
 10
205.631982927
 20
45.3949548819
 10
206.034770066
 20
45.4255672559
 10
206.410107927
 20
45.5153181953
 10
206.7324178552
 20
45.6580913218
 10
206.9797349617
 20
45.8441568828
 10
207.1352049942
 20
46.0608348179
 10
207.188232927
 20
46.2933588838
 10
207.1352049942
 20
46.5258829497
 10
206.9797349617
 20
46.7425608848
 10
206.7324178552
 20
46.9286264458
  0
LINE
  5
2BB
330
1F
100
AcDbEntity
  8
0
  6
Continuous
 62
     7
370
    25
100
AcDbLine
 10
138.2402872626
 20
105.3579344988
 30
0.0
 11
140.891937692
 21
103.8271692892
 31
0.0
  0
LWPOLYLINE
  5
2BC
330
1F
100
AcDbEntity
  8
0
  6
Continuous
 62
     7
370
    25
100
AcDbPolyline
 90
       13
 70
   128
 43
0.0
 10
140.891937692
 20
103.8271692892
 10
141.2142476202
 20
103.6843961626
 10
141.5895854813
 20
103.5946452233
 10
141.9923726202
 20
103.5640328492
 10
142.3951597592
 20
103.5946452233
 10
142.7704976202
 20
103.6843961626
 10
143.0928075484
 20
103.8271692892
 10
143.3401246549
 20
104.0132348502
 10
143.4955946874
 20
104.2299127853
 10
143.5486226202
 20
104.4624368512
 10
143.4955946874
 20
104.6949609171
 10
143.3401246549
 20
104.9116388521
 10
143.0928075484
 20
105.0977044132
  0
LINE
  5
2BD
330
1F
100
AcDbEntity
  8
0
  6
Continuous
 62
     7
370
    25
100
AcDbLine
 10
143.0928075484
 20
105.0977044132
 30
0.0
 11
140.441157119
 21
106.6284696229
 31
0.0
  0
LWPOLYLINE
  5
2BE
330
1F
100
AcDbEntity
  8
0
  6
Continuous
 62
     7
370
    25
100
AcDbPolyline
 90
       13
 70
   128
 43
0.0
 10
140.441157119
 20
106.6284696229
 10
140.1188471908
 20
106.7712427494
 10
139.7435093297
 20
106.8609936888
 10
139.3407221908
 20
106.8916060628
 10
138.9379350518
 20
106.8609936888
 10
138.5625971908
 20
106.7712427494
 10
138.2402872626
 20
106.6284696229
 10
137.9929701561
 20
106.4424040618
 10
137.8375001236
 20
106.2257261267
 10
137.7844721908
 20
105.9932020608
 10
137.8375001236
 20
105.7606779949
 10
137.9929701561
 20
105.5440000599
 10
138.2402872626
 20
105.3579344988
  0
LINE
  5
2BF
330
1F
100
AcDbEntity
  8
0
  6
Continuous
 62
     7
370
    25
100
AcDbLine
 10
225.2939708614
 20
57.6439829135
 30
0.0
 11
222.6423204319
 21
59.1747481232
 31
0.0
  0
LWPOLYLINE
  5
2C0
330
1F
100
AcDbEntity
  8
0
  6
Continuous
 62
     7
370
    25
100
AcDbPolyline
 90
       13
 70
   128
 43
0.0
 10
222.6423204319
 20
59.1747481232
 10
222.3200105037
 20
59.3175212497
 10
221.9446726427
 20
59.4072721891
 10
221.5418855037
 20
59.4378845631
 10
221.1390983648
 20
59.4072721891
 10
220.7637605037
 20
59.3175212497
 10
220.4414505755
 20
59.1747481232
 10
220.1941334691
 20
58.9886825621
 10
220.0386634365
 20
58.772004627
 10
219.9856355037
 20
58.5394805611
 10
220.0386634365
 20
58.3069564953
 10
220.1941334691
 20
58.0902785602
 10
220.4414505755
 20
57.9042129991
  0
LINE
  5
2C1
330
1F
100
AcDbEntity
  8
0
  6
Continuous
 62
     7
370
    25
100
AcDbLine
 10
220.4414505755
 20
57.9042129991
 30
0.0
 11
223.0931010049
 21
56.3734477895
 31
0.0
  0
LWPOLYLINE
  5
2C2
330
1F
100
AcDbEntity
  8
0
  6
Continuous
 62
     7
370
    25
100
AcDbPolyline
 90
       13
 70
   128
 43
0.0
 10
223.0931010049
 20
56.3734477895
 10
223.4154109332
 20
56.2306746629
 10
223.7907487942
 20
56.1409237236
 10
224.1935359332
 20
56.1103113495
 10
224.5963230721
 20
56.1409237236
 10
224.9716609332
 20
56.2306746629
 10
225.2939708614
 20
56.3734477895
 10
225.5412879678
 20
56.5595133505
 10
225.6967580003
 20
56.7761912856
 10
225.7497859332
 20
57.0087153515
 10
225.6967580003
 20
57.2412394174
 10
225.5412879678
 20
57.4579173524
 10
225.2939708614
 20
57.6439829135
  0
LINE
  5
2C3
330
1F
100
AcDbEntity
  8
0
  6
Continuous
 62
     7
370
    25
100
AcDbLine
 10
119.6787342564
 20
94.6425780312
 30
0.0
 11
122.3303846859
 21
93.1118128215
 31
0.0
  0
LWPOLYLINE
  5
2C4
330
1F
100
AcDbEntity
  8
0
  6
Continuous
 62
     7
370
    25
100
AcDbPolyline
 90
       13
 70
   128
 43
0.0
 10
122.3303846859
 20
93.1118128215
 10
122.6526946141
 20
92.969039695
 10
123.0280324751
 20
92.8792887556
 10
123.4308196141
 20
92.8486763816
 10
123.833606753
 20
92.8792887556
 10
124.2089446141
 20
92.969039695
 10
124.5312545423
 20
93.1118128215
 10
124.7785716487
 20
93.2978783825
 10
124.9340416812
 20
93.5145563176
 10
124.9870696141
 20
93.7470803835
 10
124.9340416812
 20
93.9796044494
 10
124.7785716487
 20
94.1962823845
 10
124.5312545423
 20
94.3823479455
  0
LINE
  5
2C5
330
1F
100
AcDbEntity
  8
0
  6
Continuous
 62
     7
370
    25
100
AcDbLine
 10
124.5312545423
 20
94.3823479455
 30
0.0
 11
121.8796041129
 21
95.9131131552
 31
0.0
  0
LWPOLYLINE
  5
2C6
330
1F
100
AcDbEntity
  8
0
  6
Continuous
 62
     7
370
    25
100
AcDbPolyline
 90
       13
 70
   128
 43
0.0
 10
121.8796041129
 20
95.9131131552
 10
121.5572941846
 20
96.0558862817
 10
121.1819563236
 20
96.1456372211
 10
120.7791691846
 20
96.1762495951
 10
120.3763820457
 20
96.1456372211
 10
120.0010441846
 20
96.0558862817
 10
119.6787342564
 20
95.9131131552
 10
119.43141715
 20
95.7270475941
 10
119.2759471175
 20
95.5103696591
 10
119.2229191846
 20
95.2778455932
 10
119.2759471175
 20
95.0453215273
 10
119.43141715
 20
94.8286435922
 10
119.6787342564
 20
94.6425780312
  0
LWPOLYLINE
  5
2C7
330
1F
100
AcDbEntity
  8
0
  6
Continuous
 62
     7
370
    25
100
AcDbPolyline
 90
       10
 70
   128
 43
0.0
 10
234.800137651
 20
58.5394805611
 10
235.2203073876
 20
58.8285509134
 10
235.5471414229
 20
59.1553495355
 10
235.7707090701
 20
59.5099468168
 10
235.8842173394
 20
59.8815684983
 10
235.8842173394
 20
60.2589230433
 10
235.7707090701
 20
60.6305447248
 10
235.5471414229
 20
60.9851420061
 10
235.2203073876
 20
61.3119406282
 10
234.800137651
 20
61.6010109805
  0
LINE
  5
2C8
330
1F
100
AcDbEntity
  8
0
  6
Continuous
 62
     7
370
    25
100
AcDbLine
 10
202.9803324976
 20
40.1702980451
 30
0.0
 11
234.800137651
 21
58.5394805611
 31
0.0
  0
ARC
  5
2C9
330
1F
100
AcDbEntity
  8
0
  6
Continuous
 62
     7
370
    25
100
AcDbCircle
 10
200.3286820681
 20
45.2598496519
 30
0.0
 40
5.738883650811102
100
AcDbArc
 50
242.4805390039
 51
297.5194609961
  0
LINE
  5
2CA
330
1F
100
AcDbEntity
  8
0
  6
Continuous
 62
     7
370
    25
100
AcDbLine
 10
110.1725674668
 20
90.6855499642
 30
0.0
 11
197.6770316387
 21
40.1702980451
 31
0.0
  0
LWPOLYLINE
  5
2CB
330
1F
100
AcDbEntity
  8
0
  6
Continuous
 62
     7
370
    25
100
AcDbPolyline
 90
       10
 70
   128
 43
0.0
 10
110.1725674668
 20
93.7470803835
 10
109.7523977302
 20
93.4580100313
 10
109.4255636949
 20
93.1312114091
 10
109.2019960477
 20
92.7766141278
 10
109.0884877784
 20
92.4049924463
 10
109.0884877784
 20
92.0276379014
 10
109.2019960477
 20
91.6560162199
 10
109.4255636949
 20
91.3014189386
 10
109.7523977302
 20
90.9746203164
 10
110.1725674668
 20
90.6855499642
  0
LINE
  5
2CC
330
1F
100
AcDbEntity
  8
0
  6
Continuous
 62
     7
370
    25
100
AcDbLine
 10
141.9923726202
 20
112.1162628995
 30
0.0
 11
110.1725674668
 21
93.7470803835
 31
0.0
  0
ARC
  5
2CD
330
1F
100
AcDbEntity
  8
0
  6
Continuous
 62
     7
370
    25
100
AcDbCircle
 10
144.6440230497
 20
107.0267112928
 30
0.0
 40
5.738883650811134
100
AcDbArc
 50
62.4805390039
 51
117.5194609961
  0
LINE
  5
2CE
330
1F
100
AcDbEntity
  8
0
  6
Continuous
 62
     7
370
    25
100
AcDbLine
 10
234.800137651
 20
61.6010109805
 30
0.0
 11
147.2956734791
 21
112.1162628995
 31
0.0
  0
LWPOLYLINE
  5
2CF
330
1F
100
AcDbEntity
  8
0
  6
Continuous
 62
     7
370
    25
100
AcDbPolyline
 90
       27
 70
   128
 43
0.0
 10
197.5444491172
 20
69.9436813732
 10
197.7953373209
 20
69.7588135666
 10
197.9622978862
 20
69.5446564755
 10
198.0356276717
 20
69.3136561316
 10
198.0110650169
 20
69.0792374353
 10
197.8900374141
 20
68.8550239491
 10
197.6795785475
 20
68.6540461458
 10
197.3919195215
 20
68.4879841248
 10
197.0437780331
 20
68.3664888073
 10
196.6553868003
 20
68.2966210593
 10
196.2493177095
 20
68.2824413405
 10
195.8491700206
 20
68.3247737246
 10
195.4781988625
 20
68.4211580073
 10
195.1579637307
 20
68.5659926845
 10
194.9070755269
 20
68.7508604911
 10
194.7401149617
 20
68.9650175821
 10
194.6667851762
 20
69.196017926
 10
194.691347831
 20
69.4304366223
 10
194.8123754338
 20
69.6546501086
 10
195.0228343004
 20
69.8556279119
 10
195.3104933264
 20
70.0216899328
 10
195.6586348147
 20
70.1431852504
 10
196.0470260476
 20
70.2130529983
 10
196.4530951383
 20
70.2272327171
 10
196.8532428273
 20
70.184900333
 10
197.2242139854
 20
70.0885160503
 10
197.5444491172
 20
69.9436813732
  0
LWPOLYLINE
  5
2D0
330
1F
100
AcDbEntity
  8
0
  6
Continuous
 62
     7
370
    25
100
AcDbPolyline
 90
       27
 70
   128
 43
0.0
 10
197.5444491172
 20
56.1667944862
 10
197.7953373209
 20
55.9819266796
 10
197.9622978862
 20
55.7677695885
 10
198.0356276717
 20
55.5367692446
 10
198.0110650169
 20
55.3023505483
 10
197.8900374141
 20
55.0781370621
 10
197.6795785475
 20
54.8771592588
 10
197.3919195215
 20
54.7110972378
 10
197.0437780331
 20
54.5896019202
 10
196.6553868003
 20
54.5197341723
 10
196.2493177095
 20
54.5055544535
 10
195.8491700206
 20
54.5478868376
 10
195.4781988625
 20
54.6442711203
 10
195.1579637307
 20
54.7891057975
 10
194.9070755269
 20
54.973973604
 10
194.7401149617
 20
55.1881306951
 10
194.6667851762
 20
55.419131039
 10
194.691347831
 20
55.6535497353
 10
194.8123754338
 20
55.8777632215
 10
195.0228343004
 20
56.0787410248
 10
195.3104933264
 20
56.2448030458
 10
195.6586348147
 20
56.3662983634
 10
196.0470260476
 20
56.4361661113
 10
196.4530951383
 20
56.4503458301
 10
196.8532428273
 20
56.408013446
 10
197.2242139854
 20
56.3116291633
 10
197.5444491172
 20
56.1667944862
  0
LWPOLYLINE
  5
2D1
330
1F
100
AcDbEntity
  8
0
  6
Continuous
 62
     7
370
    25
100
AcDbPolyline
 90
       27
 70
   128
 43
0.0
 10
185.6120221847
 20
63.0552379297
 10
185.8629103884
 20
62.8703701231
 10
186.0298709537
 20
62.656213032
 10
186.1032007392
 20
62.4252126881
 10
186.0786380844
 20
62.1907939918
 10
185.9576104815
 20
61.9665805056
 10
185.7471516149
 20
61.7656027023
 10
185.459492589
 20
61.5995406813
 10
185.1113511006
 20
61.4780453638
 10
184.7229598677
 20
61.4081776158
 10
184.316890777
 20
61.393997897
 10
183.916743088
 20
61.4363302811
 10
183.54577193
 20
61.5327145638
 10
183.2255367982
 20
61.677549241
 10
182.9746485944
 20
61.8624170475
 10
182.8076880292
 20
62.0765741386
 10
182.7343582437
 20
62.3075744825
 10
182.7589208984
 20
62.5419931788
 10
182.8799485013
 20
62.766206665
 10
183.0904073679
 20
62.9671844683
 10
183.3780663939
 20
63.1332464893
 10
183.7262078822
 20
63.2547418069
 10
184.1145991151
 20
63.3246095548
 10
184.5206682058
 20
63.3387892736
 10
184.9208158948
 20
63.2964568895
 10
185.2917870528
 20
63.2000726068
 10
185.6120221847
 20
63.0552379297
  0
LWPOLYLINE
  5
2D2
330
1F
100
AcDbEntity
  8
0
  6
Continuous
 62
     7
370
    25
100
AcDbPolyline
 90
       27
 70
   128
 43
0.0
 10
149.8147413871
 20
83.7205682602
 10
150.0656295909
 20
83.5357004536
 10
150.2325901561
 20
83.3215433625
 10
150.3059199416
 20
83.0905430187
 10
150.2813572868
 20
82.8561243223
 10
150.160329684
 20
82.6319108361
 10
149.9498708174
 20
82.4309330328
 10
149.6622117914
 20
82.2648710118
 10
149.3140703031
 20
82.1433756943
 10
148.9256790702
 20
82.0735079463
 10
148.5196099794
 20
82.0593282275
 10
148.1194622905
 20
82.1016606116
 10
147.7484911324
 20
82.1980448943
 10
147.4282560006
 20
82.3428795715
 10
147.1773677968
 20
82.5277473781
 10
147.0104072316
 20
82.7419044691
 10
146.9370774461
 20
82.972904813
 10
146.9616401009
 20
83.2073235093
 10
147.0826677037
 20
83.4315369956
 10
147.2931265703
 20
83.6325147989
 10
147.5807855963
 20
83.7985768198
 10
147.9289270846
 20
83.9200721374
 10
148.3173183175
 20
83.9899398854
 10
148.7233874082
 20
84.0041196041
 10
149.1235350972
 20
83.96178722
 10
149.4945062553
 20
83.8654029373
 10
149.8147413871
 20
83.7205682602
  0
LWPOLYLINE
  5
2D3
330
1F
100
AcDbEntity
  8
0
  6
Continuous
 62
     7
370
    25
100
AcDbPolyline
 90
       27
 70
   128
 43
0.0
 10
161.7471683196
 20
90.6090117037
 10
161.9980565234
 20
90.4241438971
 10
162.1650170886
 20
90.209986806
 10
162.2383468741
 20
89.9789864622
 10
162.2137842193
 20
89.7445677658
 10
162.0927566165
 20
89.5203542796
 10
161.8822977499
 20
89.3193764763
 10
161.5946387239
 20
89.1533144553
 10
161.2464972356
 20
89.0318191378
 10
160.8581060027
 20
88.9619513898
 10
160.452036912
 20
88.947771671
 10
160.051889223
 20
88.9901040551
 10
159.6809180649
 20
89.0864883378
 10
159.3606829331
 20
89.231323015
 10
159.1097947294
 20
89.4161908216
 10
158.9428341641
 20
89.6303479126
 10
158.8695043786
 20
89.8613482565
 10
158.8940670334
 20
90.0957669528
 10
159.0150946363
 20
90.3199804391
 10
159.2255535028
 20
90.5209582424
 10
159.5132125288
 20
90.6870202633
 10
159.8613540172
 20
90.8085155809
 10
160.2497452501
 20
90.8783833289
 10
160.6558143408
 20
90.8925630476
 10
161.0559620298
 20
90.8502306635
 10
161.4269331878
 20
90.7538463808
 10
161.7471683196
 20
90.6090117037
  0
LWPOLYLINE
  5
2D4
330
1F
100
AcDbEntity
  8
0
  6
Continuous
 62
     7
370
    25
100
AcDbPolyline
 90
       27
 70
   128
 43
0.0
 10
149.8147413871
 20
97.4974551472
 10
150.0656295909
 20
97.3125873406
 10
150.2325901561
 20
97.0984302495
 10
150.3059199416
 20
96.8674299057
 10
150.2813572868
 20
96.6330112093
 10
150.160329684
 20
96.4087977231
 10
149.9498708174
 20
96.2078199198
 10
149.6622117914
 20
96.0417578988
 10
149.3140703031
 20
95.9202625813
 10
148.9256790702
 20
95.8503948333
 10
148.5196099794
 20
95.8362151145
 10
148.1194622905
 20
95.8785474986
 10
147.7484911324
 20
95.9749317814
 10
147.4282560006
 20
96.1197664585
 10
147.1773677968
 20
96.3046342651
 10
147.0104072316
 20
96.5187913561
 10
146.9370774461
 20
96.7497917
 10
146.9616401009
 20
96.9842103963
 10
147.0826677037
 20
97.2084238826
 10
147.2931265703
 20
97.4094016859
 10
147.5807855963
 20
97.5754637068
 10
147.9289270846
 20
97.6969590244
 10
148.3173183175
 20
97.7668267724
 10
148.7233874082
 20
97.7810064911
 10
149.1235350972
 20
97.738674107
 10
149.4945062553
 20
97.6422898243
 10
149.8147413871
 20
97.4974551472
  0
LWPOLYLINE
  5
2D5
330
1F
100
AcDbEntity
  8
0
  6
Continuous
 62
     7
370
    25
100
AcDbPolyline
 90
       27
 70
   128
 43
0.0
 10
137.8823144546
 20
90.6090117037
 10
138.1332026583
 20
90.4241438971
 10
138.3001632236
 20
90.209986806
 10
138.3734930091
 20
89.9789864622
 10
138.3489303543
 20
89.7445677658
 10
138.2279027514
 20
89.5203542796
 10
138.0174438849
 20
89.3193764763
 10
137.7297848589
 20
89.1533144553
 10
137.3816433705
 20
89.0318191378
 10
136.9932521376
 20
88.9619513898
 10
136.5871830469
 20
88.947771671
 10
136.1870353579
 20
88.9901040551
 10
135.8160641999
 20
89.0864883378
 10
135.4958290681
 20
89.231323015
 10
135.2449408643
 20
89.4161908216
 10
135.0779802991
 20
89.6303479126
 10
135.0046505136
 20
89.8613482565
 10
135.0292131684
 20
90.0957669528
 10
135.1502407712
 20
90.3199804391
 10
135.3606996378
 20
90.5209582424
 10
135.6483586638
 20
90.6870202633
 10
135.9965001521
 20
90.8085155809
 10
136.384891385
 20
90.8783833289
 10
136.7909604757
 20
90.8925630476
 10
137.1911081647
 20
90.8502306635
 10
137.5620793228
 20
90.7538463808
 10
137.8823144546
 20
90.6090117037
  0
LINE
  5
2D6
330
1F
100
AcDbEntity
  8
0
  6
Continuous
 62
     7
370
    25
100
AcDbLine
 10
197.6770316387
 20
37.1082700006
 30
0.0
 11
197.6770316387
 21
40.1702980451
 31
0.0
  0
LINE
  5
2D7
330
1F
100
AcDbEntity
  8
0
  6
Continuous
 62
     7
370
    25
100
AcDbLine
 10
202.9803324976
 20
40.1702980451
 30
0.0
 11
202.9803324976
 21
37.1082700006
 31
0.0
  0
ARC
  5
2D8
330
1F
100
AcDbEntity
  8
0
  6
Continuous
 62
     7
370
    25
100
AcDbCircle
 10
200.3286820681
 20
42.1978216073
 30
0.0
 40
5.738883650811127
100
AcDbArc
 50
242.4805390039
 51
297.5194609961
  0
LINE
  5
2D9
330
1F
100
AcDbEntity
  8
0
  6
Continuous
 62
     7
370
    25
100
AcDbLine
 10
110.1725674668
 20
90.6855499642
 30
0.0
 11
110.1725674668
 21
87.6235219196
 31
0.0
  0
LINE
  5
2DA
330
1F
100
AcDbEntity
  8
0
  6
Continuous
 62
     7
370
    25
100
AcDbLine
 10
110.1725674668
 20
87.6235219196
 30
0.0
 11
197.6770316387
 21
37.1082700006
 31
0.0
  0
LINE
  5
2DB
330
1F
100
AcDbEntity
  8
0
  6
Continuous
 62
     7
370
    25
100
AcDbLine
 10
234.800137651
 20
55.4774525166
 30
0.0
 11
234.800137651
 21
58.5394805611
 31
0.0
  0
LINE
  5
2DC
330
1F
100
AcDbEntity
  8
0
  6
Continuous
 62
     7
370
    25
100
AcDbLine
 10
202.9803324976
 20
37.1082700006
 30
0.0
 11
234.800137651
 21
55.4774525166
 31
0.0
  0
LINE
  5
2DD
330
1F
100
AcDbEntity
  8
0
  6
Continuous
 62
     7
370
    25
100
AcDbLine
 10
206.7324178552
 20
45.6580913218
 30
0.0
 11
206.7324178552
 21
46.9286264458
 31
0.0
  0
LINE
  5
2DE
330
1F
100
AcDbEntity
  8
0
  6
Continuous
 62
     7
370
    25
100
AcDbLine
 10
204.0807674258
 20
45.9183214074
 30
0.0
 11
204.0807674258
 21
48.4593916555
 31
0.0
  0
ARC
  5
2DF
330
1F
100
AcDbEntity
  8
0
  6
Continuous
 62
     7
370
    25
100
AcDbCircle
 10
196.3512064239
 20
52.1104895212
 30
0.0
 40
2.700057507537991
100
AcDbArc
 50
70.4589971718
 51
109.5410028282
  0
LINE
  5
2E0
330
1F
100
AcDbEntity
  8
0
  6
Continuous
 62
     7
370
    25
100
AcDbLine
 10
225.2939708614
 20
56.3734477895
 30
0.0
 11
225.2939708614
 21
57.6439829135
 31
0.0
  0
LINE
  5
2E1
330
1F
100
AcDbEntity
  8
0
  6
Continuous
 62
     7
370
    25
100
AcDbLine
 10
222.6423204319
 20
56.6336778751
 30
0.0
 11
222.6423204319
 21
59.1747481232
 31
0.0
  0
ARC
  5
2E2
330
1F
100
AcDbEntity
  8
0
  6
Continuous
 62
     7
370
    25
100
AcDbCircle
 10
234.023988487
 20
57.1937771609
 30
0.0
 40
1.88366074686366
100
AcDbArc
 50
294.333235592
 51
354.3466234504
  0
ARC
  5
2E3
330
1F
100
AcDbEntity
  8
0
  6
Continuous
 62
     7
370
    25
100
AcDbCircle
 10
208.2836333565
 20
58.9989329647
 30
0.0
 40
2.700057507537561
100
AcDbArc
 50
70.4589971718
 51
109.5410028282
  0
ARC
  5
2E4
330
1F
100
AcDbEntity
  8
0
  6
Continuous
 62
     7
370
    25
100
AcDbCircle
 10
184.4187794914
 20
58.9989329647
 30
0.0
 40
2.700057507537554
100
AcDbArc
 50
70.4589971718
 51
109.5410028282
  0
ARC
  5
2E5
330
1F
100
AcDbEntity
  8
0
  6
Continuous
 62
     7
370
    25
100
AcDbCircle
 10
196.3512064239
 20
65.8873764082
 30
0.0
 40
2.700057507537312
100
AcDbArc
 50
70.4589971718
 51
109.5410028282
  0
ARC
  5
2E6
330
1F
100
AcDbEntity
  8
0
  6
Continuous
 62
     7
370
    25
100
AcDbCircle
 10
148.6214986938
 20
79.6642632952
 30
0.0
 40
2.700057507538368
100
AcDbArc
 50
70.4589971719
 51
109.5410028281
  0
ARC
  5
2E7
330
1F
100
AcDbEntity
  8
0
  6
Continuous
 62
     7
370
    25
100
AcDbCircle
 10
160.5539256264
 20
86.5527067387
 30
0.0
 40
2.700057507538636
100
AcDbArc
 50
70.4589971719
 51
109.5410028281
  0
ARC
  5
2E8
330
1F
100
AcDbEntity
  8
0
  6
Continuous
 62
     7
370
    25
100
AcDbCircle
 10
136.6890717613
 20
86.5527067387
 30
0.0
 40
2.700057507537919
100
AcDbArc
 50
70.4589971718
 51
109.5410028281
  0
ARC
  5
2E9
330
1F
100
AcDbEntity
  8
0
  6
Continuous
 62
     7
370
    25
100
AcDbCircle
 10
110.9033788241
 20
89.3073159314
 30
0.0
 40
1.835551011054047
100
AcDbArc
 50
184.7822660226
 51
246.537874935
  0
LINE
  5
2EA
330
1F
100
AcDbEntity
  8
0
  6
Continuous
 62
     7
370
    25
100
AcDbLine
 10
124.5312545423
 20
93.1118128215
 30
0.0
 11
124.5312545423
 21
94.3823479455
 31
0.0
  0
LINE
  5
2EB
330
1F
100
AcDbEntity
  8
0
  6
Continuous
 62
     7
370
    25
100
AcDbLine
 10
121.8796041129
 20
93.3720429071
 30
0.0
 11
121.8796041129
 21
95.9131131552
 31
0.0
  0
ARC
  5
2EC
330
1F
100
AcDbEntity
  8
0
  6
Continuous
 62
     7
370
    25
100
AcDbCircle
 10
148.6214986938
 20
93.4411501822
 30
0.0
 40
2.700057507537678
100
AcDbArc
 50
70.4589971718
 51
109.5410028282
  0
LINE
  5
2ED
330
1F
100
AcDbEntity
  8
0
  6
Continuous
 62
     7
370
    25
100
AcDbLine
 10
143.0928075484
 20
103.8271692892
 30
0.0
 11
143.0928075484
 21
105.0977044132
 31
0.0
  0
LINE
  5
2EE
330
1F
100
AcDbEntity
  8
0
  6
Continuous
 62
     7
370
    25
100
AcDbLine
 10
140.441157119
 20
104.0873993748
 30
0.0
 11
140.441157119
 21
106.6284696229
 31
0.0
  0
ENDSEC
  0
SECTION
  2
OBJECTS
  0
DICTIONARY
  5
C
330
0
100
AcDbDictionary
281
     1
  3
ACAD_GROUP
350
D
  3
ACAD_LAYOUT
350
1A
  3
ACAD_MLINESTYLE
350
17
  3
ACAD_PLOTSETTINGS
350
19
  3
ACAD_PLOTSTYLENAME
350
E
  3
ACAD_SCALELIST
350
47
  3
DWGPROPS
350
2EF
  0
DICTIONARY
  5
D
102
{ACAD_REACTORS
330
C
102
}
330
C
100
AcDbDictionary
281
     1
  0
DICTIONARY
  5
1A
102
{ACAD_REACTORS
330
C
102
}
330
C
100
AcDbDictionary
281
     1
  3
Layout1
350
1E
  3
Layout2
350
26
  3
Model
350
22
  0
DICTIONARY
  5
17
102
{ACAD_REACTORS
330
C
102
}
330
C
100
AcDbDictionary
281
     1
  3
Standard
350
18
  0
DICTIONARY
  5
19
102
{ACAD_REACTORS
330
C
102
}
330
C
100
AcDbDictionary
281
     1
  0
ACDBDICTIONARYWDFLT
  5
E
102
{ACAD_REACTORS
330
C
102
}
330
C
100
AcDbDictionary
281
     1
  3
Normal
350
F
100
AcDbDictionaryWithDefault
340
F
  0
DICTIONARY
  5
47
102
{ACAD_REACTORS
330
C
102
}
330
C
100
AcDbDictionary
281
     1
  3
A0
350
48
  3
A1
350
49
  3
A2
350
4A
  3
A3
350
4B
  3
A4
350
4C
  3
A5
350
4D
  3
A6
350
4E
  3
A7
350
4F
  3
A8
350
50
  3
A9
350
51
  3
B0
350
52
  3
B1
350
53
  3
B2
350
54
  3
B3
350
55
  3
B4
350
56
  3
B5
350
57
  3
B6
350
58
  0
XRECORD
  5
2EF
102
{ACAD_REACTORS
330
C
102
}
330
C
100
AcDbXrecord
280
     1
  1
DWGPROPS COOKIE
  2

  3

  4

  6

  7

  8
Simone Malighetti
  9

300
=
301
=
302
=
303
=
304
=
305
=
306
=
307
=
308
=
309
=
 40
0.0
 41
2460321.608941551
 42
2460321.608946007
  1

 90
        0
  0
LAYOUT
  5
1E
102
{ACAD_REACTORS
330
1A
102
}
330
1A
100
AcDbPlotSettings
  1

  2
none_device
  4

  6

 40
0.0
 41
0.0
 42
0.0
 43
0.0
 44
0.0
 45
0.0
 46
0.0
 47
0.0
 48
0.0
 49
0.0
140
0.0
141
0.0
142
1.0
143
1.0
 70
   688
 72
     1
 73
     0
 74
     5
  7

 75
    16
147
1.0
148
0.0
149
0.0
100
AcDbLayout
  1
Layout1
 70
     1
 71
     1
 10
0.0
 20
0.0
 11
420.0
 21
297.0
 12
0.0
 22
0.0
 32
0.0
 14
1.0000000000E+20
 24
1.0000000000E+20
 34
1.0000000000E+20
 15
-1.0000000000E+20
 25
-1.0000000000E+20
 35
-1.0000000000E+20
146
0.0
 13
0.0
 23
0.0
 33
0.0
 16
1.0
 26
0.0
 36
0.0
 17
0.0
 27
1.0
 37
0.0
 76
     0
330
1B
  0
LAYOUT
  5
26
102
{ACAD_REACTORS
330
1A
102
}
330
1A
100
AcDbPlotSettings
  1

  2
none_device
  4

  6

 40
0.0
 41
0.0
 42
0.0
 43
0.0
 44
0.0
 45
0.0
 46
0.0
 47
0.0
 48
0.0
 49
0.0
140
0.0
141
0.0
142
1.0
143
1.0
 70
   688
 72
     1
 73
     0
 74
     5
  7

 75
    16
147
1.0
148
0.0
149
0.0
100
AcDbLayout
  1
Layout2
 70
     1
 71
     2
 10
0.0
 20
0.0
 11
0.0
 21
0.0
 12
0.0
 22
0.0
 32
0.0
 14
0.0
 24
0.0
 34
0.0
 15
0.0
 25
0.0
 35
0.0
146
0.0
 13
0.0
 23
0.0
 33
0.0
 16
1.0
 26
0.0
 36
0.0
 17
0.0
 27
1.0
 37
0.0
 76
     0
330
23
  0
LAYOUT
  5
22
102
{ACAD_REACTORS
330
1A
102
}
330
1A
100
AcDbPlotSettings
  1

  2
none_device
  4
Letter_(8.50_x_11.00_Inches)
  6

 40
6.35
 41
6.35
 42
6.35000508
 43
6.35000508
 44
215.9
 45
279.4
 46
0.0
 47
0.0
 48
0.0
 49
0.0
140
0.0
141
0.0
142
1.0
143
1.0
 70
  1712
 72
     1
 73
     0
 74
     0
  7

 75
     0
147
1.0
148
0.0
149
0.0
100
AcDbLayout
  1
Model
 70
     1
 71
     0
 10
0.0
 20
0.0
 11
891.0
 21
630.0
 12
0.0
 22
0.0
 32
0.0
 14
0.0
 24
0.0
 34
0.0
 15
891.0
 25
630.0
 35
0.0
146
0.0
 13
0.0
 23
0.0
 33
0.0
 16
1.0
 26
0.0
 36
0.0
 17
0.0
 27
1.0
 37
0.0
 76
     0
330
1F
331
29
  0
MLINESTYLE
  5
18
102
{ACAD_REACTORS
330
17
102
}
330
17
100
AcDbMlineStyle
  2
Standard
 70
     0
  3

 62
   256
 51
90.0
 52
90.0
 71
     2
 49
0.5
 62
   256
  6
BYLAYER
 49
-0.5
 62
   256
  6
BYLAYER
  0
ACDBPLACEHOLDER
  5
F
102
{ACAD_REACTORS
330
E
102
}
330
E
  0
SCALE
  5
48
102
{ACAD_REACTORS
330
47
102
}
330
47
100
AcDbScale
 70
     0
300
1:1
140
1.0
141
1.0
290
     1
  0
SCALE
  5
49
102
{ACAD_REACTORS
330
47
102
}
330
47
100
AcDbScale
 70
     0
300
1:2
140
1.0
141
2.0
290
     0
  0
SCALE
  5
4A
102
{ACAD_REACTORS
330
47
102
}
330
47
100
AcDbScale
 70
     0
300
1:4
140
1.0
141
4.0
290
     0
  0
SCALE
  5
4B
102
{ACAD_REACTORS
330
47
102
}
330
47
100
AcDbScale
 70
     0
300
1:5
140
1.0
141
5.0
290
     0
  0
SCALE
  5
4C
102
{ACAD_REACTORS
330
47
102
}
330
47
100
AcDbScale
 70
     0
300
1:8
140
1.0
141
8.0
290
     0
  0
SCALE
  5
4D
102
{ACAD_REACTORS
330
47
102
}
330
47
100
AcDbScale
 70
     0
300
1:10
140
1.0
141
10.0
290
     0
  0
SCALE
  5
4E
102
{ACAD_REACTORS
330
47
102
}
330
47
100
AcDbScale
 70
     0
300
1:16
140
1.0
141
16.0
290
     0
  0
SCALE
  5
4F
102
{ACAD_REACTORS
330
47
102
}
330
47
100
AcDbScale
 70
     0
300
1:20
140
1.0
141
20.0
290
     0
  0
SCALE
  5
50
102
{ACAD_REACTORS
330
47
102
}
330
47
100
AcDbScale
 70
     0
300
1:30
140
1.0
141
30.0
290
     0
  0
SCALE
  5
51
102
{ACAD_REACTORS
330
47
102
}
330
47
100
AcDbScale
 70
     0
300
1:40
140
1.0
141
40.0
290
     0
  0
SCALE
  5
52
102
{ACAD_REACTORS
330
47
102
}
330
47
100
AcDbScale
 70
     0
300
1:50
140
1.0
141
50.0
290
     0
  0
SCALE
  5
53
102
{ACAD_REACTORS
330
47
102
}
330
47
100
AcDbScale
 70
     0
300
1:100
140
1.0
141
100.0
290
     0
  0
SCALE
  5
54
102
{ACAD_REACTORS
330
47
102
}
330
47
100
AcDbScale
 70
     0
300
2:1
140
2.0
141
1.0
290
     0
  0
SCALE
  5
55
102
{ACAD_REACTORS
330
47
102
}
330
47
100
AcDbScale
 70
     0
300
4:1
140
4.0
141
1.0
290
     0
  0
SCALE
  5
56
102
{ACAD_REACTORS
330
47
102
}
330
47
100
AcDbScale
 70
     0
300
8:1
140
8.0
141
1.0
290
     0
  0
SCALE
  5
57
102
{ACAD_REACTORS
330
47
102
}
330
47
100
AcDbScale
 70
     0
300
10:1
140
10.0
141
1.0
290
     0
  0
SCALE
  5
58
102
{ACAD_REACTORS
330
47
102
}
330
47
100
AcDbScale
 70
     0
300
100:1
140
100.0
141
1.0
290
     0
  0
ENDSEC
  0
EOF
