  0
SECTION
  2
HEADER
  9
$ACADVER
  1
AC1015
  9
$ACADMAINTVER
 70
     6
  9
$DWGCODEPAGE
  3
ANSI_1252
  9
$INSBASE
 10
0.0
 20
0.0
 30
0.0
  9
$EXTMIN
 10
0.0
 20
0.0
 30
0.0
  9
$EXTMAX
 10
1485.0
 20
1050.0
 30
0.0
  9
$LIMMIN
 10
0.0
 20
0.0
  9
$LIMMAX
 10
1485.0
 20
1050.0
  9
$ORTHOMODE
 70
     0
  9
$REGENMODE
 70
     1
  9
$FILLMODE
 70
     1
  9
$QTEXTMODE
 70
     0
  9
$MIRRTEXT
 70
     1
  9
$LTSCALE
 40
5.0
  9
$ATTMODE
 70
     1
  9
$TEXTSIZE
 40
15.0
  9
$TRACEWID
 40
1.0
  9
$TEXTSTYLE
  7
Standard
  9
$CLAYER
  8
0
  9
$CELTYPE
  6
ByLayer
  9
$CECOLOR
 62
   256
  9
$CELTSCALE
 40
1.0
  9
$DISPSILH
 70
     0
  9
$DIMSCALE
 40
1.0
  9
$DIMASZ
 40
14.0
  9
$DIMEXO
 40
5.0
  9
$DIMDLI
 40
3.75
  9
$DIMRND
 40
0.0
  9
$DIMDLE
 40
0.0
  9
$DIMEXE
 40
5.0
  9
$DIMTP
 40
0.0
  9
$DIMTM
 40
0.0
  9
$DIMTXT
 40
14.0
  9
$DIMCEN
 40
2.5
  9
$DIMTSZ
 40
0.0
  9
$DIMTOL
 70
     0
  9
$DIMLIM
 70
     0
  9
$DIMTIH
 70
     1
  9
$DIMTOH
 70
     1
  9
$DIMSE1
 70
     0
  9
$DIMSE2
 70
     0
  9
$DIMTAD
 70
     1
  9
$DIMZIN
 70
     0
  9
$DIMBLK
  1

  9
$DIMASO
 70
     1
  9
$DIMSHO
 70
     1
  9
$DIMPOST
  1

  9
$DIMAPOST
  1

  9
$DIMALT
 70
     0
  9
$DIMALTD
 70
     3
  9
$DIMALTF
 40
0.0393700787
  9
$DIMLFAC
 40
1.0
  9
$DIMTOFL
 70
     1
  9
$DIMTVP
 40
0.0
  9
$DIMTIX
 70
     0
  9
$DIMSOXD
 70
     0
  9
$DIMSAH
 70
     0
  9
$DIMBLK1
  1

  9
$DIMBLK2
  1

  9
$DIMSTYLE
  2
ISO-25
  9
$DIMCLRD
 70
     0
  9
$DIMCLRE
 70
     0
  9
$DIMCLRT
 70
     0
  9
$DIMTFAC
 40
1.0
  9
$DIMGAP
 40
7.62
  9
$DIMJUST
 70
     0
  9
$DIMSD1
 70
     0
  9
$DIMSD2
 70
     0
  9
$DIMTOLJ
 70
     0
  9
$DIMTZIN
 70
     0
  9
$DIMALTZ
 70
     0
  9
$DIMALTTZ
 70
     0
  9
$DIMUPT
 70
     0
  9
$DIMDEC
 70
     2
  9
$DIMTDEC
 70
     2
  9
$DIMALTU
 70
     2
  9
$DIMALTTD
 70
     3
  9
$DIMTXSTY
  7
Standard
  9
$DIMAUNIT
 70
     0
  9
$DIMADEC
 70
     2
  9
$DIMALTRND
 40
0.0
  9
$DIMAZIN
 70
     0
  9
$DIMDSEP
 70
    44
  9
$DIMATFIT
 70
     3
  9
$DIMFRAC
 70
     0
  9
$DIMLDRBLK
  1

  9
$DIMLUNIT
 70
     2
  9
$DIMLWD
 70
    -2
  9
$DIMLWE
 70
    -2
  9
$DIMTMOVE
 70
     0
  9
$LUNITS
 70
     2
  9
$LUPREC
 70
     2
  9
$SKETCHINC
 40
1.0
  9
$FILLETRAD
 40
0.0
  9
$AUNITS
 70
     0
  9
$AUPREC
 70
     2
  9
$MENU
  1
.
  9
$ELEVATION
 40
0.0
  9
$PELEVATION
 40
0.0
  9
$THICKNESS
 40
0.0
  9
$LIMCHECK
 70
     0
  9
$CHAMFERA
 40
0.0
  9
$CHAMFERB
 40
0.0
  9
$CHAMFERC
 40
0.0
  9
$CHAMFERD
 40
0.0
  9
$SKPOLY
 70
     0
  9
$TDCREATE
 40
2460320.624970382
  9
$TDUCREATE
 40
2460320.583303715
  9
$TDUPDATE
 40
2460320.62497368
  9
$TDUUPDATE
 40
2460320.583307014
  9
$TDINDWG
 40
0.0000000116
  9
$TDUSRTIMER
 40
0.0000000116
  9
$USRTIMER
 70
     1
  9
$ANGBASE
 50
0.0
  9
$ANGDIR
 70
     0
  9
$PDMODE
 70
     0
  9
$PDSIZE
 40
-1.0
  9
$PLINEWID
 40
0.0
  9
$SPLFRAME
 70
     0
  9
$SPLINETYPE
 70
     6
  9
$SPLINESEGS
 70
     8
  9
$HANDSEED
  5
1A1
  9
$SURFTAB1
 70
     6
  9
$SURFTAB2
 70
     6
  9
$SURFTYPE
 70
     6
  9
$SURFU
 70
     6
  9
$SURFV
 70
     6
  9
$UCSBASE
  2

  9
$UCSNAME
  2

  9
$UCSORG
 10
0.0
 20
0.0
 30
0.0
  9
$UCSXDIR
 10
1.0
 20
0.0
 30
0.0
  9
$UCSYDIR
 10
0.0
 20
1.0
 30
0.0
  9
$UCSORTHOREF
  2

  9
$UCSORTHOVIEW
 70
     0
  9
$UCSORGTOP
 10
0.0
 20
0.0
 30
0.0
  9
$UCSORGBOTTOM
 10
0.0
 20
0.0
 30
0.0
  9
$UCSORGLEFT
 10
0.0
 20
0.0
 30
0.0
  9
$UCSORGRIGHT
 10
0.0
 20
0.0
 30
0.0
  9
$UCSORGFRONT
 10
0.0
 20
0.0
 30
0.0
  9
$UCSORGBACK
 10
0.0
 20
0.0
 30
0.0
  9
$PUCSBASE
  2

  9
$PUCSNAME
  2

  9
$PUCSORG
 10
0.0
 20
0.0
 30
0.0
  9
$PUCSXDIR
 10
1.0
 20
0.0
 30
0.0
  9
$PUCSYDIR
 10
0.0
 20
1.0
 30
0.0
  9
$PUCSORTHOREF
  2

  9
$PUCSORTHOVIEW
 70
     0
  9
$PUCSORGTOP
 10
0.0
 20
0.0
 30
0.0
  9
$PUCSORGBOTTOM
 10
0.0
 20
0.0
 30
0.0
  9
$PUCSORGLEFT
 10
0.0
 20
0.0
 30
0.0
  9
$PUCSORGRIGHT
 10
0.0
 20
0.0
 30
0.0
  9
$PUCSORGFRONT
 10
0.0
 20
0.0
 30
0.0
  9
$PUCSORGBACK
 10
0.0
 20
0.0
 30
0.0
  9
$USERI1
 70
     0
  9
$USERI2
 70
     0
  9
$USERI3
 70
     0
  9
$USERI4
 70
     0
  9
$USERI5
 70
     0
  9
$USERR1
 40
0.0
  9
$USERR2
 40
0.0
  9
$USERR3
 40
0.0
  9
$USERR4
 40
0.0
  9
$USERR5
 40
0.0
  9
$WORLDVIEW
 70
     1
  9
$SHADEDGE
 70
     3
  9
$SHADEDIF
 70
    70
  9
$TILEMODE
 70
     1
  9
$MAXACTVP
 70
    64
  9
$PINSBASE
 10
0.0
 20
0.0
 30
0.0
  9
$PLIMCHECK
 70
     0
  9
$PEXTMIN
 10
1.0000000000E+20
 20
1.0000000000E+20
 30
1.0000000000E+20
  9
$PEXTMAX
 10
-1.0000000000E+20
 20
-1.0000000000E+20
 30
-1.0000000000E+20
  9
$PLIMMIN
 10
0.0
 20
0.0
  9
$PLIMMAX
 10
420.0
 20
297.0
  9
$UNITMODE
 70
     0
  9
$VISRETAIN
 70
     1
  9
$PLINEGEN
 70
     0
  9
$PSLTSCALE
 70
     1
  9
$TREEDEPTH
 70
  3020
  9
$CMLSTYLE
  2
Standard
  9
$CMLJUST
 70
     0
  9
$CMLSCALE
 40
20.0
  9
$PROXYGRAPHICS
 70
     1
  9
$MEASUREMENT
 70
     1
  9
$CELWEIGHT
370
    -1
  9
$ENDCAPS
280
     0
  9
$JOINSTYLE
280
     0
  9
$LWDISPLAY
290
     1
  9
$INSUNITS
 70
     4
  9
$HYPERLINKBASE
  1

  9
$STYLESHEET
  1

  9
$XEDIT
290
     1
  9
$CEPSNTYPE
380
     0
  9
$PSTYLEMODE
290
     1
  9
$FINGERPRINTGUID
  2
{4d61a6d1-7ae8-4526-a5ad-ee23f7552780}
  9
$VERSIONGUID
  2
{FAEB1C32-E019-11D5-929B-00C0DF256EC4}
  9
$EXTNAMES
290
     1
  9
$PSVPSCALE
 40
0.0
  9
$OLESTARTUP
290
     0
  0
ENDSEC
  0
SECTION
  2
CLASSES
  0
CLASS
  1
ACDBDICTIONARYWDFLT
  2
AcDbDictionaryWithDefault
  3
ObjectDBX Classes
 90
        0
280
     0
281
     0
  0
CLASS
  1
VISUALSTYLE
  2
AcDbVisualStyle
  3
ObjectDBX Classes
 90
     4095
280
     0
281
     0
  0
CLASS
  1
MATERIAL
  2
AcDbMaterial
  3
ObjectDBX Classes
 90
     1153
280
     0
281
     0
  0
CLASS
  1
SCALE
  2
AcDbScale
  3
ObjectDBX Classes
 90
     1153
280
     0
281
     0
  0
CLASS
  1
TABLESTYLE
  2
AcDbTableStyle
  3
ObjectDBX Classes
 90
     4095
280
     0
281
     0
  0
CLASS
  1
MLEADERSTYLE
  2
AcDbMLeaderStyle
  3
ACDB_MLEADERSTYLE_CLASS
 90
     4095
280
     0
281
     0
  0
CLASS
  1
SUN
  2
AcDbSun
  3
SCENEOE
 90
     1153
280
     0
281
     0
  0
CLASS
  1
ACDBPLACEHOLDER
  2
AcDbPlaceHolder
  3
ObjectDBX Classes
 90
        0
280
     0
281
     0
  0
CLASS
  1
LAYOUT
  2
AcDbLayout
  3
ObjectDBX Classes
 90
        0
280
     0
281
     0
  0
ENDSEC
  0
SECTION
  2
TABLES
  0
TABLE
  2
VPORT
  5
8
330
0
100
AcDbSymbolTable
 70
     1
  0
VPORT
  5
29
330
8
100
AcDbSymbolTableRecord
100
AcDbViewportTableRecord
  2
*Active
 70
     0
 10
0.0
 20
0.0
 11
1.0
 21
1.0
 12
742.5
 22
525.0
 13
0.0
 23
0.0
 14
10.0
 24
10.0
 15
10.0
 25
10.0
 16
0.0
 26
0.0
 36
1.0
 17
0.0
 27
0.0
 37
0.0
 40
1050.0
 41
1.4142857143
 42
50.0
 43
0.0
 44
0.0
 50
0.0
 51
0.0
 71
     0
 72
  2000
 73
     1
 74
     3
 75
     0
 76
     0
 77
     0
 78
     0
281
     0
 65
     1
110
0.0
120
0.0
130
0.0
111
1.0
121
0.0
131
0.0
112
0.0
122
1.0
132
0.0
 79
     0
146
0.0
  0
ENDTAB
  0
TABLE
  2
LTYPE
  5
5
330
0
100
AcDbSymbolTable
 70
     6
  0
LTYPE
  5
14
330
5
100
AcDbSymbolTableRecord
100
AcDbLinetypeTableRecord
  2
ByBlock
 70
     0
  3

 72
    65
 73
     0
 40
0.0
  0
LTYPE
  5
15
330
5
100
AcDbSymbolTableRecord
100
AcDbLinetypeTableRecord
  2
ByLayer
 70
     0
  3

 72
    65
 73
     0
 40
0.0
  0
LTYPE
  5
16
330
5
100
AcDbSymbolTableRecord
100
AcDbLinetypeTableRecord
  2
Continuous
 70
     0
  3
Solid line
 72
    65
 73
     0
 40
0.0
  0
LTYPE
  5
5E
330
5
100
AcDbSymbolTableRecord
100
AcDbLinetypeTableRecord
  2
HIDDEN
 70
     0
  3
Hidden __ __ __ __ __ __ __ __ __ __ __ __ __ __
 72
    65
 73
     2
 40
1.905
 49
1.27
 74
     0
 49
-0.635
 74
     0
  0
LTYPE
  5
5F
330
5
100
AcDbSymbolTableRecord
100
AcDbLinetypeTableRecord
  2
PHANTOM
 70
     0
  3
Phantom ______  __  __  ______  __  __  ______
 72
    65
 73
     6
 40
12.7
 49
6.35
 74
     0
 49
-1.27
 74
     0
 49
1.27
 74
     0
 49
-1.27
 74
     0
 49
1.27
 74
     0
 49
-1.27
 74
     0
  0
LTYPE
  5
60
330
5
100
AcDbSymbolTableRecord
100
AcDbLinetypeTableRecord
  2
CENTER
 70
     0
  3
Center ____ _ ____ _ ____ _ ____ _ ____ _ ____
 72
    65
 73
     4
 40
10.16
 49
6.35
 74
     0
 49
-1.27
 74
     0
 49
1.27
 74
     0
 49
-1.27
 74
     0
  0
LTYPE
  5
61
330
5
100
AcDbSymbolTableRecord
100
AcDbLinetypeTableRecord
  2
CENTERX2
 70
     0
  3
Center (2x) ________  __  ________  __  _____
 72
    65
 73
     4
 40
20.32
 49
12.7
 74
     0
 49
-2.54
 74
     0
 49
2.54
 74
     0
 49
-2.54
 74
     0
  0
LTYPE
  5
62
330
5
100
AcDbSymbolTableRecord
100
AcDbLinetypeTableRecord
  2
DOT2
 70
     0
  3
Dot (.5x) ........................................
 72
    65
 73
     2
 40
0.635
 49
0.0
 74
     0
 49
-0.635
 74
     0
  0
ENDTAB
  0
TABLE
  2
LAYER
  5
2
330
0
100
AcDbSymbolTable
 70
     3
  0
LAYER
  5
10
330
2
100
AcDbSymbolTableRecord
100
AcDbLayerTableRecord
  2
0
 70
     0
 62
     7
  6
Continuous
370
    -3
390
F
  0
LAYER
  5
63
330
2
100
AcDbSymbolTableRecord
100
AcDbLayerTableRecord
  2
FORMAT
 70
     0
 62
     7
  6
Continuous
370
    -3
390
F
  0
LAYER
  5
64
330
2
100
AcDbSymbolTableRecord
100
AcDbLayerTableRecord
  2
TESTO
 70
     0
 62
   179
  6
Continuous
370
    -3
390
F
  0
ENDTAB
  0
TABLE
  2
STYLE
  5
3
330
0
100
AcDbSymbolTable
 70
     7
  0
STYLE
  5
11
330
3
100
AcDbSymbolTableRecord
100
AcDbTextStyleTableRecord
  2
Standard
 70
     0
 40
0.0
 41
1.0
 50
0.0
 71
     0
 42
15.0
  3
txt
  4

  0
STYLE
  5
C2
330
3
100
AcDbSymbolTableRecord
100
AcDbTextStyleTableRecord
  2
SLDTEXTSTYLE0
 70
     0
 40
0.0
 41
0.75
 50
0.0
 71
     0
 42
15.0
  3
TXT
  4

  0
STYLE
  5
D2
330
3
100
AcDbSymbolTableRecord
100
AcDbTextStyleTableRecord
  2
SLDTEXTSTYLE1
 70
     0
 40
0.0
 41
0.605
 50
0.0
 71
     0
 42
15.0
  3
TXT
  4

  0
STYLE
  5
E2
330
3
100
AcDbSymbolTableRecord
100
AcDbTextStyleTableRecord
  2
SLDTEXTSTYLE2
 70
     0
 40
0.0
 41
0.7329842932
 50
0.0
 71
     0
 42
15.0
  3
TXT
  4

  0
STYLE
  5
E4
330
3
100
AcDbSymbolTableRecord
100
AcDbTextStyleTableRecord
  2
SLDTEXTSTYLE3
 70
     0
 40
0.0
 41
0.6436170213
 50
0.0
 71
     0
 42
15.0
  3
TXT
  4

  0
STYLE
  5
FA
330
3
100
AcDbSymbolTableRecord
100
AcDbTextStyleTableRecord
  2
SLDTEXTSTYLE4
 70
     0
 40
0.0
 41
0.6944444444
 50
0.0
 71
     0
 42
15.0
  3
TXT
  4

  0
STYLE
  5
101
330
3
100
AcDbSymbolTableRecord
100
AcDbTextStyleTableRecord
  2
SLDTEXTSTYLE5
 70
     0
 40
0.0
 41
0.6923076923
 50
0.0
 71
     0
 42
15.0
  3
TXT
  4

  0
ENDTAB
  0
TABLE
  2
VIEW
  5
6
330
0
100
AcDbSymbolTable
 70
     0
  0
ENDTAB
  0
TABLE
  2
UCS
  5
7
330
0
100
AcDbSymbolTable
 70
     0
  0
ENDTAB
  0
TABLE
  2
APPID
  5
9
330
0
100
AcDbSymbolTable
 70
     1
  0
APPID
  5
12
330
9
100
AcDbSymbolTableRecord
100
AcDbRegAppTableRecord
  2
ACAD
 70
     0
  0
ENDTAB
  0
TABLE
  2
DIMSTYLE
  5
A
330
0
100
AcDbSymbolTable
 70
     5
100
AcDbDimStyleTable
  0
DIMSTYLE
105
27
330
A
100
AcDbSymbolTableRecord
100
AcDbDimStyleTableRecord
  2
ISO-25
 70
     0
 41
2.5
 42
0.625
 43
3.75
 44
1.25
 73
     0
 74
     0
 77
     1
 78
     8
140
2.5
141
2.5
143
0.0393700787
147
0.625
171
     3
172
     1
178
     0
271
     2
272
     2
274
     3
278
    44
283
     0
284
     8
340
11
  0
DIMSTYLE
105
11A
102
{ACAD_REACTORS
330
119
330
17E
102
}
330
A
100
AcDbSymbolTableRecord
100
AcDbDimStyleTableRecord
  2
SLDDIMSTYLE0
 70
     0
 41
14.0
 44
0.0
 45
0.000000001
 73
     0
 74
     0
 77
     1
 78
    12
 79
     3
140
14.0
147
3.5
173
     1
178
     0
271
     2
272
     2
276
     2
284
    12
340
C2
  0
DIMSTYLE
105
125
102
{ACAD_REACTORS
330
124
330
139
330
155
330
161
330
188
102
}
330
A
100
AcDbSymbolTableRecord
100
AcDbDimStyleTableRecord
  2
SLDDIMSTYLE1
 70
     0
 41
14.0
 44
0.0
 45
0.000000001
 73
     0
 74
     0
 77
     1
 78
    12
 79
     3
140
14.0
147
3.5
172
     1
173
     1
178
     0
271
     2
272
     2
276
     2
284
    12
289
     0
340
C2
  0
DIMSTYLE
105
16E
102
{ACAD_REACTORS
330
16D
102
}
330
A
100
AcDbSymbolTableRecord
100
AcDbDimStyleTableRecord
  2
SLDDIMSTYLE2
 70
     0
 41
14.0
 44
0.0
 45
0.000000001
 73
     0
 74
     0
 77
     1
 78
    12
 79
     3
140
14.0
141
0.0
147
3.5
173
     1
178
     0
271
     2
272
     2
276
     2
284
    12
340
C2
  0
DIMSTYLE
105
199
330
A
100
AcDbSymbolTableRecord
100
AcDbDimStyleTableRecord
  2
SLDDIMSTYLE3
 70
     0
 41
4.3076923077
 44
0.0
 45
0.000000001
146
4.3076923077
147
0.0
173
     1
178
     0
271
     0
272
     0
276
     2
340
11
341
19A
343
19A
344
19A
  0
ENDTAB
  0
TABLE
  2
BLOCK_RECORD
  5
1
330
0
100
AcDbSymbolTable
 70
    11
  0
BLOCK_RECORD
  5
1F
330
1
100
AcDbSymbolTableRecord
100
AcDbBlockTableRecord
  2
*Model_Space
340
22
  0
BLOCK_RECORD
  5
1B
330
1
100
AcDbSymbolTableRecord
100
AcDbBlockTableRecord
  2
*Paper_Space
340
1E
  0
BLOCK_RECORD
  5
23
330
1
100
AcDbSymbolTableRecord
100
AcDbBlockTableRecord
  2
*Paper_Space0
340
26
  0
BLOCK_RECORD
  5
11B
330
1
100
AcDbSymbolTableRecord
100
AcDbBlockTableRecord
  2
_D
340
0
  0
BLOCK_RECORD
  5
126
330
1
100
AcDbSymbolTableRecord
100
AcDbBlockTableRecord
  2
_D_1
340
0
  0
BLOCK_RECORD
  5
13A
330
1
100
AcDbSymbolTableRecord
100
AcDbBlockTableRecord
  2
_D_2
340
0
  0
BLOCK_RECORD
  5
156
330
1
100
AcDbSymbolTableRecord
100
AcDbBlockTableRecord
  2
_D_3
340
0
  0
BLOCK_RECORD
  5
162
330
1
100
AcDbSymbolTableRecord
100
AcDbBlockTableRecord
  2
_D_4
340
0
  0
BLOCK_RECORD
  5
16F
330
1
100
AcDbSymbolTableRecord
100
AcDbBlockTableRecord
  2
_D_5
340
0
  0
BLOCK_RECORD
  5
17F
330
1
100
AcDbSymbolTableRecord
100
AcDbBlockTableRecord
  2
_D_6
340
0
  0
BLOCK_RECORD
  5
189
330
1
100
AcDbSymbolTableRecord
100
AcDbBlockTableRecord
  2
_D_7
340
0
  0
BLOCK_RECORD
  5
194
330
1
100
AcDbSymbolTableRecord
100
AcDbBlockTableRecord
  2
SW_NOTE_0
340
0
102
{BLKREFS
331
198
102
}
  0
BLOCK_RECORD
  5
19A
330
1
100
AcDbSymbolTableRecord
100
AcDbBlockTableRecord
  2
_Dot
340
0
  0
ENDTAB
  0
ENDSEC
  0
SECTION
  2
BLOCKS
  0
BLOCK
  5
20
330
1F
100
AcDbEntity
  8
0
100
AcDbBlockBegin
  2
*Model_Space
 70
     0
 10
0.0
 20
0.0
 30
0.0
  3
*Model_Space
  1

  0
ENDBLK
  5
21
330
1F
100
AcDbEntity
  8
0
100
AcDbBlockEnd
  0
BLOCK
  5
1C
330
1B
100
AcDbEntity
 67
     1
  8
0
100
AcDbBlockBegin
  2
*Paper_Space
 70
     0
 10
0.0
 20
0.0
 30
0.0
  3
*Paper_Space
  1

  0
ENDBLK
  5
1D
330
1B
100
AcDbEntity
 67
     1
  8
0
100
AcDbBlockEnd
  0
BLOCK
  5
24
330
23
100
AcDbEntity
  8
0
100
AcDbBlockBegin
  2
*Paper_Space0
 70
     0
 10
0.0
 20
0.0
 30
0.0
  3
*Paper_Space0
  1

  0
ENDBLK
  5
25
330
23
100
AcDbEntity
  8
0
100
AcDbBlockEnd
  0
BLOCK
  5
11C
330
11B
100
AcDbEntity
  8
0
100
AcDbBlockBegin
  2
_D
 70
     0
 10
0.0
 20
0.0
 30
0.0
  3
_D
  1

  0
SOLID
  5
11E
330
11B
100
AcDbEntity
  8
0
  6
Continuous
 62
     7
370
    18
100
AcDbTrace
 10
533.6008920695
 20
620.0938951828
 30
0.0
 11
547.6008920695
 21
617.9400490289
 31
0.0
 12
547.6008920695
 22
622.2477413366
 32
0.0
 13
547.6008920695
 23
622.2477413366
 33
0.0
  0
SOLID
  5
11F
330
11B
100
AcDbEntity
  8
0
  6
Continuous
 62
     7
370
    18
100
AcDbTrace
 10
1281.6008920695
 20
620.0938951828
 30
0.0
 11
1267.6008920695
 21
622.2477413366
 31
0.0
 12
1267.6008920695
 22
617.9400490289
 32
0.0
 13
1267.6008920695
 23
617.9400490289
 33
0.0
  0
LINE
  5
120
330
11B
100
AcDbEntity
  8
0
  6
Continuous
 62
     7
370
     0
100
AcDbLine
 10
533.6008920695
 20
679.6233719093
 30
0.0
 11
533.6008920695
 21
615.0938951828
 31
0.0
  0
LINE
  5
121
330
11B
100
AcDbEntity
  8
0
  6
Continuous
 62
     7
370
     0
100
AcDbLine
 10
1281.6008920695
 20
675.0938951828
 30
0.0
 11
1281.6008920695
 21
615.0938951828
 31
0.0
  0
LINE
  5
122
330
11B
100
AcDbEntity
  8
0
  6
Continuous
 62
     7
370
     0
100
AcDbLine
 10
533.6008920695
 20
620.0938951828
 30
0.0
 11
1281.6008920695
 21
620.0938951828
 31
0.0
  0
MTEXT
  5
123
330
11B
100
AcDbEntity
  8
0
  6
Continuous
 62
     7
370
    18
100
AcDbMText
 10
892.0842256069
 20
638.1408435396
 30
0.0
 40
14.0
 41
0.0
 71
     1
 72
     1
  1
748
  7
SLDTEXTSTYLE0
 73
     1
 44
1.0
  0
ENDBLK
  5
11D
330
11B
100
AcDbEntity
  8
0
100
AcDbBlockEnd
  0
BLOCK
  5
127
330
126
100
AcDbEntity
  8
0
100
AcDbBlockBegin
  2
_D_1
 70
     0
 10
0.0
 20
0.0
 30
0.0
  3
_D_1
  1

  0
SOLID
  5
129
330
126
100
AcDbEntity
  8
0
  6
Continuous
 62
     7
370
    18
100
AcDbTrace
 10
1331.6008920695
 20
700.0938951828
 30
0.0
 11
1333.7547382234
 21
714.0938951828
 31
0.0
 12
1329.4470459157
 22
714.0938951828
 32
0.0
 13
1329.4470459157
 23
714.0938951828
 33
0.0
  0
SOLID
  5
12A
330
126
100
AcDbEntity
  8
0
  6
Continuous
 62
     7
370
    18
100
AcDbTrace
 10
1331.6008920695
 20
670.0938951828
 30
0.0
 11
1329.4470459157
 21
656.0938951828
 31
0.0
 12
1333.7547382234
 22
656.0938951828
 32
0.0
 13
1333.7547382234
 23
656.0938951828
 33
0.0
  0
LINE
  5
12B
330
126
100
AcDbEntity
  8
0
  6
Continuous
 62
     7
370
     0
100
AcDbLine
 10
1286.6008920695
 20
700.0938951828
 30
0.0
 11
1336.6008920695
 21
700.0938951828
 31
0.0
  0
LINE
  5
12C
330
126
100
AcDbEntity
  8
0
  6
Continuous
 62
     7
370
     0
100
AcDbLine
 10
1276.6008920695
 20
670.0938951828
 30
0.0
 11
1336.6008920695
 21
670.0938951828
 31
0.0
  0
LINE
  5
12D
330
126
100
AcDbEntity
  8
0
  6
Continuous
 62
     7
370
     0
100
AcDbLine
 10
1331.6008920695
 20
700.0938951828
 30
0.0
 11
1331.6008920695
 21
727.0169721058
 31
0.0
  0
LINE
  5
12E
330
126
100
AcDbEntity
  8
0
  6
Continuous
 62
     7
370
     0
100
AcDbLine
 10
1331.6008920695
 20
700.0938951828
 30
0.0
 11
1331.6008920695
 21
670.0938951828
 31
0.0
  0
LINE
  5
12F
330
126
100
AcDbEntity
  8
0
  6
Continuous
 62
     7
370
     0
100
AcDbLine
 10
1331.6008920695
 20
670.0938951828
 30
0.0
 11
1331.6008920695
 21
643.1708182597
 31
0.0
  0
MTEXT
  5
130
330
126
100
AcDbEntity
  8
0
  6
Continuous
 62
     7
370
    18
100
AcDbMText
 10
1313.5539437127
 20
674.7494508743
 30
0.0
 40
14.0
 41
0.0
 71
     1
 72
     1
  1
30
  7
SLDTEXTSTYLE0
 11
-7.044195017643634E-15
 21
1.0
 31
0.0
 73
     1
 44
1.0
  0
ENDBLK
  5
128
330
126
100
AcDbEntity
  8
0
100
AcDbBlockEnd
  0
BLOCK
  5
13B
330
13A
100
AcDbEntity
  8
0
100
AcDbBlockBegin
  2
_D_2
 70
     0
 10
0.0
 20
0.0
 30
0.0
  3
_D_2
  1

  0
SOLID
  5
13D
330
13A
100
AcDbEntity
  8
0
  6
Continuous
 62
     7
370
    18
100
AcDbTrace
 10
1334.9247286647
 20
510.2912578372
 30
0.0
 11
1337.0785748186
 21
524.2912578372
 31
0.0
 12
1332.7708825109
 22
524.2912578372
 32
0.0
 13
1332.7708825109
 23
524.2912578372
 33
0.0
  0
SOLID
  5
13E
330
13A
100
AcDbEntity
  8
0
  6
Continuous
 62
     7
370
    18
100
AcDbTrace
 10
1334.9247286647
 20
507.2912578372
 30
0.0
 11
1332.7708825109
 21
493.2912578372
 31
0.0
 12
1337.0785748186
 22
493.2912578372
 32
0.0
 13
1337.0785748186
 23
493.2912578372
 33
0.0
  0
LINE
  5
13F
330
13A
100
AcDbEntity
  8
0
  6
Continuous
 62
     7
370
     0
100
AcDbLine
 10
1286.6008920695
 20
510.2912578372
 30
0.0
 11
1339.9247286647
 21
510.2912578372
 31
0.0
  0
LINE
  5
140
330
13A
100
AcDbEntity
  8
0
  6
Continuous
 62
     7
370
     0
100
AcDbLine
 10
1286.6008920695
 20
507.2912578372
 30
0.0
 11
1339.9247286647
 21
507.2912578372
 31
0.0
  0
LINE
  5
141
330
13A
100
AcDbEntity
  8
0
  6
Continuous
 62
     7
370
     0
100
AcDbLine
 10
1334.9247286647
 20
510.2912578372
 30
0.0
 11
1334.9247286647
 21
543.8203224014
 31
0.0
  0
LINE
  5
142
330
13A
100
AcDbEntity
  8
0
  6
Continuous
 62
     7
370
     0
100
AcDbLine
 10
1334.9247286647
 20
510.2912578372
 30
0.0
 11
1334.9247286647
 21
507.2912578372
 31
0.0
  0
LINE
  5
143
330
13A
100
AcDbEntity
  8
0
  6
Continuous
 62
     7
370
     0
100
AcDbLine
 10
1334.9247286647
 20
507.2912578372
 30
0.0
 11
1334.9247286647
 21
480.3681809141
 31
0.0
  0
MTEXT
  5
144
330
13A
100
AcDbEntity
  8
0
  6
Continuous
 62
     7
370
    18
100
AcDbMText
 10
1316.8777803079
 20
533.475878093
 30
0.0
 40
14.0
 41
0.0
 71
     1
 72
     1
  1
3
  7
SLDTEXTSTYLE0
 11
-7.044195017643634E-15
 21
1.0
 31
0.0
 73
     1
 44
1.0
  0
ENDBLK
  5
13C
330
13A
100
AcDbEntity
  8
0
100
AcDbBlockEnd
  0
BLOCK
  5
157
330
156
100
AcDbEntity
  8
0
100
AcDbBlockBegin
  2
_D_3
 70
     0
 10
0.0
 20
0.0
 30
0.0
  3
_D_3
  1

  0
SOLID
  5
159
330
156
100
AcDbEntity
  8
0
  6
Continuous
 62
     7
370
    18
100
AcDbTrace
 10
506.3007183701
 20
377.7422740424
 30
0.0
 11
508.4545645239
 21
391.7422740424
 31
0.0
 12
504.1468722162
 22
391.7422740424
 32
0.0
 13
504.1468722162
 23
391.7422740424
 33
0.0
  0
SOLID
  5
15A
330
156
100
AcDbEntity
  8
0
  6
Continuous
 62
     7
370
    18
100
AcDbTrace
 10
506.3007183701
 20
359.7422740424
 30
0.0
 11
504.1468722162
 21
345.7422740424
 31
0.0
 12
508.4545645239
 22
345.7422740424
 32
0.0
 13
508.4545645239
 23
345.7422740424
 33
0.0
  0
LINE
  5
15B
330
156
100
AcDbEntity
  8
0
  6
Continuous
 62
     7
370
     0
100
AcDbLine
 10
528.6008920695
 20
377.7422740424
 30
0.0
 11
501.3007183701
 21
377.7422740424
 31
0.0
  0
LINE
  5
15C
330
156
100
AcDbEntity
  8
0
  6
Continuous
 62
     7
370
     0
100
AcDbLine
 10
528.6008920695
 20
359.7422740424
 30
0.0
 11
501.3007183701
 21
359.7422740424
 31
0.0
  0
LINE
  5
15D
330
156
100
AcDbEntity
  8
0
  6
Continuous
 62
     7
370
     0
100
AcDbLine
 10
506.3007183701
 20
377.7422740424
 30
0.0
 11
506.3007183701
 21
404.6653509655
 31
0.0
  0
LINE
  5
15E
330
156
100
AcDbEntity
  8
0
  6
Continuous
 62
     7
370
     0
100
AcDbLine
 10
506.3007183701
 20
377.7422740424
 30
0.0
 11
506.3007183701
 21
359.7422740424
 31
0.0
  0
LINE
  5
15F
330
156
100
AcDbEntity
  8
0
  6
Continuous
 62
     7
370
     0
100
AcDbLine
 10
506.3007183701
 20
359.7422740424
 30
0.0
 11
506.3007183701
 21
332.8191971193
 31
0.0
  0
MTEXT
  5
160
330
156
100
AcDbEntity
  8
0
  6
Continuous
 62
     7
370
    18
100
AcDbMText
 10
488.2537700133
 20
358.397829734
 30
0.0
 40
14.0
 41
0.0
 71
     1
 72
     1
  1
18
  7
SLDTEXTSTYLE0
 11
-7.044195017643634E-15
 21
1.0
 31
0.0
 73
     1
 44
1.0
  0
ENDBLK
  5
158
330
156
100
AcDbEntity
  8
0
100
AcDbBlockEnd
  0
BLOCK
  5
163
330
162
100
AcDbEntity
  8
0
100
AcDbBlockBegin
  2
_D_4
 70
     0
 10
0.0
 20
0.0
 30
0.0
  3
_D_4
  1

  0
SOLID
  5
165
330
162
100
AcDbEntity
  8
0
  6
Continuous
 62
     7
370
    18
100
AcDbTrace
 10
533.6008920695
 20
430.7831402388
 30
0.0
 11
519.6008920695
 21
432.9369863926
 31
0.0
 12
519.6008920695
 22
428.6292940849
 32
0.0
 13
519.6008920695
 23
428.6292940849
 33
0.0
  0
SOLID
  5
166
330
162
100
AcDbEntity
  8
0
  6
Continuous
 62
     7
370
    18
100
AcDbTrace
 10
603.6008920695
 20
430.7831402388
 30
0.0
 11
617.6008920695
 21
428.6292940849
 31
0.0
 12
617.6008920695
 22
432.9369863926
 32
0.0
 13
617.6008920695
 23
432.9369863926
 33
0.0
  0
LINE
  5
167
330
162
100
AcDbEntity
  8
0
  6
Continuous
 62
     7
370
     0
100
AcDbLine
 10
533.6008920695
 20
382.7422740424
 30
0.0
 11
533.6008920695
 21
435.7831402388
 31
0.0
  0
LINE
  5
168
330
162
100
AcDbEntity
  8
0
  6
Continuous
 62
     7
370
     0
100
AcDbLine
 10
603.6008920695
 20
394.7422740424
 30
0.0
 11
603.6008920695
 21
435.7831402388
 31
0.0
  0
LINE
  5
169
330
162
100
AcDbEntity
  8
0
  6
Continuous
 62
     7
370
     0
100
AcDbLine
 10
533.6008920695
 20
430.7831402388
 30
0.0
 11
506.6778151464
 21
430.7831402388
 31
0.0
  0
LINE
  5
16A
330
162
100
AcDbEntity
  8
0
  6
Continuous
 62
     7
370
     0
100
AcDbLine
 10
533.6008920695
 20
430.7831402388
 30
0.0
 11
603.6008920695
 21
430.7831402388
 31
0.0
  0
LINE
  5
16B
330
162
100
AcDbEntity
  8
0
  6
Continuous
 62
     7
370
     0
100
AcDbLine
 10
603.6008920695
 20
430.7831402388
 30
0.0
 11
630.5239689926
 21
430.7831402388
 31
0.0
  0
MTEXT
  5
16C
330
162
100
AcDbEntity
  8
0
  6
Continuous
 62
     7
370
    18
100
AcDbMText
 10
558.2564477611
 20
448.8300885956
 30
0.0
 40
14.0
 41
0.0
 71
     1
 72
     1
  1
70
  7
SLDTEXTSTYLE0
 73
     1
 44
1.0
  0
ENDBLK
  5
164
330
162
100
AcDbEntity
  8
0
100
AcDbBlockEnd
  0
BLOCK
  5
170
330
16F
100
AcDbEntity
  8
0
100
AcDbBlockBegin
  2
_D_5
 70
     0
 10
0.0
 20
0.0
 30
0.0
  3
_D_5
  1

  0
SOLID
  5
172
330
16F
100
AcDbEntity
  8
0
  6
Continuous
 62
     7
370
    18
100
AcDbTrace
 10
1279.6865828326
 20
385.626286694
 30
0.0
 11
1292.2738757027
 21
392.1223710111
 31
0.0
 12
1289.739224099
 22
395.6054378014
 32
0.0
 13
1289.739224099
 23
395.6054378014
 33
0.0
  0
LINE
  5
173
330
16F
100
AcDbEntity
  8
0
  6
Continuous
 62
     7
370
     0
100
AcDbLine
 10
1279.6865828326
 20
385.626286694
 30
0.0
 11
1326.3890727591
 21
419.6120090821
 31
0.0
  0
LINE
  5
174
330
16F
100
AcDbEntity
  8
0
  6
Continuous
 62
     7
370
     0
100
AcDbLine
 10
1279.6865828326
 20
385.626286694
 30
0.0
 11
1271.6008920695
 21
379.7422740424
 31
0.0
  0
MTEXT
  5
175
330
16F
100
AcDbEntity
  8
0
  6
Continuous
 62
     7
370
    18
100
AcDbMText
 10
1290.0155781157
 20
415.1685829117
 30
0.0
 40
14.0
 41
0.0
 71
     1
 72
     1
  1
R10
  7
SLDTEXTSTYLE0
 11
0.8085690763056299
 21
0.588401265160316
 31
0.0
 73
     1
 44
1.0
  0
ENDBLK
  5
171
330
16F
100
AcDbEntity
  8
0
100
AcDbBlockEnd
  0
BLOCK
  5
180
330
17F
100
AcDbEntity
  8
0
100
AcDbBlockBegin
  2
_D_6
 70
     0
 10
0.0
 20
0.0
 30
0.0
  3
_D_6
  1

  0
SOLID
  5
182
330
17F
100
AcDbEntity
  8
0
  6
Continuous
 62
     7
370
    18
100
AcDbTrace
 10
200.3786352559
 20
876.9883834281
 30
0.0
 11
198.224789102
 21
862.9883834281
 31
0.0
 12
202.5324814097
 22
862.9883834281
 32
0.0
 13
202.5324814097
 23
862.9883834281
 33
0.0
  0
SOLID
  5
183
330
17F
100
AcDbEntity
  8
0
  6
Continuous
 62
     7
370
    18
100
AcDbTrace
 10
200.3786352559
 20
128.9883834281
 30
0.0
 11
202.5324814097
 21
142.9883834281
 31
0.0
 12
198.224789102
 22
142.9883834281
 32
0.0
 13
198.224789102
 23
142.9883834281
 33
0.0
  0
LINE
  5
184
330
17F
100
AcDbEntity
  8
0
  6
Continuous
 62
     7
370
     0
100
AcDbLine
 10
245.3786352559
 20
876.9883834281
 30
0.0
 11
195.3786352559
 21
876.9883834281
 31
0.0
  0
LINE
  5
185
330
17F
100
AcDbEntity
  8
0
  6
Continuous
 62
     7
370
     0
100
AcDbLine
 10
245.3786352559
 20
128.9883834281
 30
0.0
 11
195.3786352559
 21
128.9883834281
 31
0.0
  0
LINE
  5
186
330
17F
100
AcDbEntity
  8
0
  6
Continuous
 62
     7
370
     0
100
AcDbLine
 10
200.3786352559
 20
876.9883834281
 30
0.0
 11
200.3786352559
 21
128.9883834281
 31
0.0
  0
MTEXT
  5
187
330
17F
100
AcDbEntity
  8
0
  6
Continuous
 62
     7
370
    18
100
AcDbMText
 10
182.3316868991
 20
487.4717169655
 30
0.0
 40
14.0
 41
0.0
 71
     1
 72
     1
  1
748
  7
SLDTEXTSTYLE0
 11
-1.059690869644414E-14
 21
1.0
 31
0.0
 73
     1
 44
1.0
  0
ENDBLK
  5
181
330
17F
100
AcDbEntity
  8
0
100
AcDbBlockEnd
  0
BLOCK
  5
18A
330
189
100
AcDbEntity
  8
0
100
AcDbBlockBegin
  2
_D_7
 70
     0
 10
0.0
 20
0.0
 30
0.0
  3
_D_7
  1

  0
SOLID
  5
18C
330
189
100
AcDbEntity
  8
0
  6
Continuous
 62
     7
370
    18
100
AcDbTrace
 10
250.3786352559
 20
926.9883834281
 30
0.0
 11
236.3786352559
 21
929.142229582
 31
0.0
 12
236.3786352559
 22
924.8345372743
 32
0.0
 13
236.3786352559
 23
924.8345372743
 33
0.0
  0
SOLID
  5
18D
330
189
100
AcDbEntity
  8
0
  6
Continuous
 62
     7
370
    18
100
AcDbTrace
 10
280.3786352559
 20
926.9883834281
 30
0.0
 11
294.3786352559
 21
924.8345372743
 31
0.0
 12
294.3786352559
 22
929.142229582
 32
0.0
 13
294.3786352559
 23
929.142229582
 33
0.0
  0
LINE
  5
18E
330
189
100
AcDbEntity
  8
0
  6
Continuous
 62
     7
370
     0
100
AcDbLine
 10
250.3786352559
 20
881.9883834281
 30
0.0
 11
250.3786352559
 21
931.9883834281
 31
0.0
  0
LINE
  5
18F
330
189
100
AcDbEntity
  8
0
  6
Continuous
 62
     7
370
     0
100
AcDbLine
 10
280.3786352559
 20
871.9883834281
 30
0.0
 11
280.3786352559
 21
931.9883834281
 31
0.0
  0
LINE
  5
190
330
189
100
AcDbEntity
  8
0
  6
Continuous
 62
     7
370
     0
100
AcDbLine
 10
250.3786352559
 20
926.9883834281
 30
0.0
 11
223.4555583328
 21
926.9883834281
 31
0.0
  0
LINE
  5
191
330
189
100
AcDbEntity
  8
0
  6
Continuous
 62
     7
370
     0
100
AcDbLine
 10
250.3786352559
 20
926.9883834281
 30
0.0
 11
280.3786352559
 21
926.9883834281
 31
0.0
  0
LINE
  5
192
330
189
100
AcDbEntity
  8
0
  6
Continuous
 62
     7
370
     0
100
AcDbLine
 10
280.3786352559
 20
926.9883834281
 30
0.0
 11
340.7230795643
 21
926.9883834281
 31
0.0
  0
MTEXT
  5
193
330
189
100
AcDbEntity
  8
0
  6
Continuous
 62
     7
370
    18
100
AcDbMText
 10
320.0341909475
 20
945.0353317849
 30
0.0
 40
14.0
 41
0.0
 71
     1
 72
     1
  1
30
  7
SLDTEXTSTYLE0
 73
     1
 44
1.0
  0
ENDBLK
  5
18B
330
189
100
AcDbEntity
  8
0
100
AcDbBlockEnd
  0
BLOCK
  5
195
330
194
100
AcDbEntity
  8
0
100
AcDbBlockBegin
  2
SW_NOTE_0
 70
     0
 10
0.0
 20
0.0
 30
0.0
  3
SW_NOTE_0
  1

  0
MTEXT
  5
197
330
194
100
AcDbEntity
  8
0
  6
Continuous
 62
     0
370
     0
100
AcDbMText
 10
51.7299354327
 20
7.3342279817
 30
0.0
 40
15.0
 41
0.0
 71
     2
 72
     1
  1
13R025214
  7
SLDTEXTSTYLE0
 73
     1
 44
1.0
  0
ENDBLK
  5
196
330
194
100
AcDbEntity
  8
0
100
AcDbBlockEnd
  0
BLOCK
  5
19B
330
19A
100
AcDbEntity
  8
0
100
AcDbBlockBegin
  2
_Dot
 70
     0
 10
0.0
 20
0.0
 30
0.0
  3
_Dot
  1

  0
LWPOLYLINE
  5
19D
330
19A
100
AcDbEntity
  8
0
  6
ByBlock
 62
     0
100
AcDbPolyline
 90
        2
 70
     1
 43
0.5
 10
-0.25
 20
0.0
 42
1.0
 10
0.25
 20
0.0
 42
1.0
  0
LINE
  5
19E
330
19A
100
AcDbEntity
  8
0
  6
ByBlock
 62
     0
370
    -2
100
AcDbLine
 10
-0.5
 20
0.0
 30
0.0
 11
-1.0
 21
0.0
 31
0.0
  0
ENDBLK
  5
19C
330
19A
100
AcDbEntity
  8
0
100
AcDbBlockEnd
  0
ENDSEC
  0
SECTION
  2
ENTITIES
  0
LINE
  5
65
330
1F
100
AcDbEntity
  8
0
  6
Continuous
 62
     7
370
    18
100
AcDbLine
 10
47.5360706906
 20
1012.9913278696
 30
0.0
 11
1462.5360706906
 21
1012.9913278696
 31
0.0
  0
LINE
  5
66
330
1F
100
AcDbEntity
  8
0
  6
Continuous
 62
     7
370
    18
100
AcDbLine
 10
47.5360706906
 20
32.9913278696
 30
0.0
 11
1462.5360706906
 21
32.9913278696
 31
0.0
  0
LINE
  5
67
330
1F
100
AcDbEntity
  8
0
  6
Continuous
 62
     7
370
    18
100
AcDbLine
 10
47.5360706906
 20
32.9913278696
 30
0.0
 11
47.5360706906
 21
987.9913278696
 31
0.0
  0
LINE
  5
68
330
1F
100
AcDbEntity
  8
0
  6
Continuous
 62
     7
370
    18
100
AcDbLine
 10
47.5360706906
 20
987.9913278696
 30
0.0
 11
1462.5360706906
 21
987.9913278696
 31
0.0
  0
LINE
  5
69
330
1F
100
AcDbEntity
  8
0
  6
Continuous
 62
     7
370
    18
100
AcDbLine
 10
1462.5360706906
 20
32.9913278696
 30
0.0
 11
1462.5360706906
 21
987.9913278696
 31
0.0
  0
LINE
  5
6A
330
1F
100
AcDbEntity
  8
0
  6
Continuous
 62
     7
370
    18
100
AcDbLine
 10
22.5360706906
 20
32.9913278696
 30
0.0
 11
22.5360706906
 21
987.9913278696
 31
0.0
  0
LINE
  5
6B
330
1F
100
AcDbEntity
  8
0
  6
Continuous
 62
     7
370
    18
100
AcDbLine
 10
1462.5360706906
 20
1012.9913278696
 30
0.0
 11
1462.5360706906
 21
987.9913278696
 31
0.0
  0
LINE
  5
6C
330
1F
100
AcDbEntity
  8
0
  6
Continuous
 62
     7
370
    18
100
AcDbLine
 10
22.5360706906
 20
987.9913278696
 30
0.0
 11
47.5360706906
 21
987.9913278696
 31
0.0
  0
LINE
  5
6D
330
1F
100
AcDbEntity
  8
0
  6
Continuous
 62
     7
370
    18
100
AcDbLine
 10
22.5360706906
 20
987.9913278696
 30
0.0
 11
22.5360706906
 21
1012.9913278696
 31
0.0
  0
LINE
  5
6E
330
1F
100
AcDbEntity
  8
0
  6
Continuous
 62
     7
370
    18
100
AcDbLine
 10
22.5360706906
 20
1012.9913278696
 30
0.0
 11
47.5360706906
 21
1012.9913278696
 31
0.0
  0
LINE
  5
6F
330
1F
100
AcDbEntity
  8
0
  6
Continuous
 62
     7
370
    18
100
AcDbLine
 10
47.5360706906
 20
987.9913278696
 30
0.0
 11
47.5360706906
 21
1012.9913278696
 31
0.0
  0
LINE
  5
70
330
1F
100
AcDbEntity
  8
0
  6
Continuous
 62
     7
370
    18
100
AcDbLine
 10
22.5360706906
 20
32.9913278696
 30
0.0
 11
47.5360706906
 21
32.9913278696
 31
0.0
  0
LINE
  5
71
330
1F
100
AcDbEntity
  8
0
  6
Continuous
 62
     7
370
    18
100
AcDbLine
 10
755.0360706906
 20
1012.9913278696
 30
0.0
 11
755.0360706906
 21
987.9913278696
 31
0.0
  0
LINE
  5
72
330
1F
100
AcDbEntity
  8
0
  6
Continuous
 62
     7
370
    18
100
AcDbLine
 10
47.5360706906
 20
510.4913278696
 30
0.0
 11
22.5360706906
 21
510.4913278696
 31
0.0
  0
LINE
  5
73
330
1F
100
AcDbEntity
  8
0
  6
Continuous
 62
     7
370
    18
100
AcDbLine
 10
47.5360706906
 20
760.4913278696
 30
0.0
 11
22.5360706906
 21
760.4913278696
 31
0.0
  0
LINE
  5
74
330
1F
100
AcDbEntity
  8
0
  6
Continuous
 62
     7
370
    18
100
AcDbLine
 10
47.5360706906
 20
260.4913278696
 30
0.0
 11
22.5360706906
 21
260.4913278696
 31
0.0
  0
LINE
  5
75
330
1F
100
AcDbEntity
  8
0
  6
Continuous
 62
     7
370
    18
100
AcDbLine
 10
505.0360706906
 20
1012.9913278696
 30
0.0
 11
505.0360706906
 21
987.9913278696
 31
0.0
  0
LINE
  5
76
330
1F
100
AcDbEntity
  8
0
  6
Continuous
 62
     7
370
    18
100
AcDbLine
 10
1005.0360706906
 20
1012.9913278696
 30
0.0
 11
1005.0360706906
 21
987.9913278696
 31
0.0
  0
LINE
  5
77
330
1F
100
AcDbEntity
  8
0
  6
Continuous
 62
     7
370
    18
100
AcDbLine
 10
255.0360706906
 20
1012.9913278696
 30
0.0
 11
255.0360706906
 21
987.9913278696
 31
0.0
  0
LINE
  5
78
330
1F
100
AcDbEntity
  8
0
  6
Continuous
 62
     7
370
    18
100
AcDbLine
 10
1255.0360706906
 20
1012.9913278696
 30
0.0
 11
1255.0360706906
 21
987.9913278696
 31
0.0
  0
LINE
  5
79
330
1F
100
AcDbEntity
  8
0
  6
Continuous
 62
     7
370
    18
100
AcDbLine
 10
1377.4823900303
 20
50.5038583086
 30
0.0
 11
1462.4823900303
 21
50.5038583086
 31
0.0
  0
LINE
  5
7A
330
1F
100
AcDbEntity
  8
0
  6
Continuous
 62
     7
370
    18
100
AcDbLine
 10
1377.4823900303
 20
80.5038583086
 30
0.0
 11
1462.4823900303
 21
80.5038583086
 31
0.0
  0
LINE
  5
7B
330
1F
100
AcDbEntity
  8
0
  6
Continuous
 62
     7
370
    18
100
AcDbLine
 10
1377.4823900303
 20
98.0038583086
 30
0.0
 11
1462.4823900303
 21
98.0038583086
 31
0.0
  0
LINE
  5
7C
330
1F
100
AcDbEntity
  8
0
  6
Continuous
 62
     7
370
    18
100
AcDbLine
 10
1377.4823900303
 20
98.0038583086
 30
0.0
 11
1377.4823900303
 21
33.0038583086
 31
0.0
  0
LINE
  5
7D
330
1F
100
AcDbEntity
  8
0
  6
Continuous
 62
     7
370
    18
100
AcDbLine
 10
526.5346512813
 20
32.9913278696
 30
0.0
 11
1462.5360706906
 21
32.9913278696
 31
0.0
  0
LINE
  5
7E
330
1F
100
AcDbEntity
  8
0
  6
Continuous
 62
     7
370
    18
100
AcDbLine
 10
526.4823900303
 20
33.0038583086
 30
0.0
 11
1462.4823900303
 21
33.0038583086
 31
0.0
  0
LINE
  5
7F
330
1F
100
AcDbEntity
  8
0
  6
Continuous
 62
     7
370
    18
100
AcDbLine
 10
526.480970621
 20
33.0038583086
 30
0.0
 11
1462.4823900303
 21
33.0038583086
 31
0.0
  0
LINE
  5
80
330
1F
100
AcDbEntity
  8
0
  6
Continuous
 62
     7
370
    18
100
AcDbLine
 10
1462.4823900303
 20
254.0038583086
 30
0.0
 11
1462.4823900303
 21
33.0038583086
 31
0.0
  0
LINE
  5
81
330
1F
100
AcDbEntity
  8
0
  6
Continuous
 62
     7
370
    18
100
AcDbLine
 10
1377.480970621
 20
173.9992919112
 30
0.0
 11
1377.480970621
 21
33.0038583086
 31
0.0
  0
LINE
  5
82
330
1F
100
AcDbEntity
  8
0
  6
Continuous
 62
     7
370
    18
100
AcDbLine
 10
1462.5360706906
 20
253.9913278696
 30
0.0
 11
1462.5360706906
 21
32.9913278696
 31
0.0
  0
LINE
  5
83
330
1F
100
AcDbEntity
  8
0
  6
Continuous
 62
     7
370
    18
100
AcDbLine
 10
1377.480970621
 20
98.0038583086
 30
0.0
 11
1462.4823900303
 21
98.0038583086
 31
0.0
  0
LINE
  5
84
330
1F
100
AcDbEntity
  8
0
  6
Continuous
 62
     7
370
    18
100
AcDbLine
 10
526.480970621
 20
254.0038583086
 30
0.0
 11
526.480970621
 21
33.0038583086
 31
0.0
  0
LINE
  5
85
330
1F
100
AcDbEntity
  8
0
  6
Continuous
 62
     7
370
    18
100
AcDbLine
 10
651.8135985577
 20
173.9992919112
 30
0.0
 11
651.8135985577
 21
144.0038583086
 31
0.0
  0
LINE
  5
86
330
1F
100
AcDbEntity
  8
0
  6
Continuous
 62
     7
370
    18
100
AcDbLine
 10
526.480970621
 20
144.0038583086
 30
0.0
 11
823.980970621
 21
144.0038583086
 31
0.0
  0
LINE
  5
87
330
1F
100
AcDbEntity
  8
0
  6
Continuous
 62
     7
370
    18
100
AcDbLine
 10
526.480970621
 20
63.0038583086
 30
0.0
 11
824.308449159
 21
63.0038583086
 31
0.0
  0
LINE
  5
88
330
1F
100
AcDbEntity
  8
0
  6
Continuous
 62
     7
370
    18
100
AcDbLine
 10
823.980970621
 20
144.0038583086
 30
0.0
 11
823.980970621
 21
33.0038583086
 31
0.0
  0
LINE
  5
89
330
1F
100
AcDbEntity
  8
0
  6
CENTERX2
 62
     7
370
    18
100
AcDbLine
 10
1385.4844070805
 20
121.7880922236
 30
0.0
 11
1452.972666519
 21
121.7880922236
 31
0.0
  0
LINE
  5
8A
330
1F
100
AcDbEntity
  8
0
  6
CENTERX2
 62
     7
370
    18
100
AcDbLine
 10
1437.4498441099
 20
138.0481550966
 30
0.0
 11
1437.4498441099
 21
105.0737346539
 31
0.0
  0
LINE
  5
8B
330
1F
100
AcDbEntity
  8
0
  6
Continuous
 62
     7
370
    18
100
AcDbLine
 10
823.980970621
 20
144.0038583086
 30
0.0
 11
1377.480970621
 21
144.0038583086
 31
0.0
  0
LINE
  5
8C
330
1F
100
AcDbEntity
  8
TESTO
100
AcDbLine
 10
626.2300319202
 20
108.1287369495
 30
0.0
 11
605.2423290317
 21
92.0055871412
 31
0.0
  0
LINE
  5
8D
330
1F
100
AcDbEntity
  8
0
  6
Continuous
 62
     7
370
    18
100
AcDbLine
 10
823.980970621
 20
73.0038583086
 30
0.0
 11
1377.480970621
 21
73.0038583086
 31
0.0
  0
LINE
  5
8E
330
1F
100
AcDbEntity
  8
TESTO
100
AcDbLine
 10
586.2430035613
 20
107.1396147297
 30
0.0
 11
592.3498495585
 21
102.3603439493
 31
0.0
  0
LINE
  5
8F
330
1F
100
AcDbEntity
  8
0
  6
Continuous
 62
     7
370
    18
100
AcDbLine
 10
1245.6353828114
 20
144.0038583086
 30
0.0
 11
1245.6353828114
 21
120.3371916419
 31
0.0
  0
LINE
  5
90
330
1F
100
AcDbEntity
  8
0
  6
Continuous
 62
     7
370
    18
100
AcDbLine
 10
1245.6353828114
 20
120.3371916419
 30
0.0
 11
1245.6353828114
 21
96.6705249752
 31
0.0
  0
LINE
  5
91
330
1F
100
AcDbEntity
  8
0
  6
Continuous
 62
     7
370
    18
100
AcDbLine
 10
1393.585723089
 20
127.8950502159
 30
0.0
 11
1393.585723089
 21
115.3950502159
 31
0.0
  0
LINE
  5
92
330
1F
100
AcDbEntity
  8
0
  6
Continuous
 62
     7
370
    18
100
AcDbLine
 10
1414.8562597325
 20
131.6450502159
 30
0.0
 11
1414.7544868299
 21
111.6450502159
 31
0.0
  0
LINE
  5
93
330
1F
100
AcDbEntity
  8
0
  6
Continuous
 62
     7
370
    18
100
AcDbLine
 10
1414.8562597325
 20
131.6450502159
 30
0.0
 11
1393.585723089
 21
127.8950502159
 31
0.0
  0
LINE
  5
94
330
1F
100
AcDbEntity
  8
0
  6
Continuous
 62
     7
370
    18
100
AcDbLine
 10
1414.7544868299
 20
111.6450502159
 30
0.0
 11
1393.585723089
 21
115.3950502159
 31
0.0
  0
LINE
  5
95
330
1F
100
AcDbEntity
  8
0
  6
Continuous
 62
     7
370
    18
100
AcDbLine
 10
1245.6353828114
 20
96.6705249752
 30
0.0
 11
1245.6353828114
 21
73.0038583086
 31
0.0
  0
LINE
  5
96
330
1F
100
AcDbEntity
  8
0
  6
Continuous
 62
     7
370
    18
100
AcDbLine
 10
1245.6353828114
 20
120.3371916419
 30
0.0
 11
1377.480970621
 21
120.3371916419
 31
0.0
  0
LINE
  5
97
330
1F
100
AcDbEntity
  8
0
  6
Continuous
 62
     7
370
    18
100
AcDbLine
 10
1245.6353828114
 20
96.6705249752
 30
0.0
 11
1377.480970621
 21
96.6705249752
 31
0.0
  0
LINE
  5
98
330
1F
100
AcDbEntity
  8
0
  6
Continuous
 62
     7
370
    18
100
AcDbLine
 10
1304.012357387
 20
73.0038583086
 30
0.0
 11
1304.012357387
 21
33.0038583086
 31
0.0
  0
LINE
  5
99
330
1F
100
AcDbEntity
  8
0
  6
Continuous
 62
     7
370
    18
100
AcDbLine
 10
1019.0855724299
 20
73.0038583086
 30
0.0
 11
1019.0855724299
 21
33.0038583086
 31
0.0
  0
LINE
  5
9A
330
1F
100
AcDbEntity
  8
0
  6
Continuous
 62
     7
370
    18
100
AcDbLine
 10
1019.0855724299
 20
53.0038583086
 30
0.0
 11
823.980970621
 21
53.0038583086
 31
0.0
  0
LINE
  5
9B
330
1F
100
AcDbEntity
  8
0
  6
Continuous
 62
     7
370
    18
100
AcDbLine
 10
826.480970621
 20
254.0038583086
 30
0.0
 11
826.480970621
 21
214.0038583086
 31
0.0
  0
LINE
  5
9C
330
1F
100
AcDbEntity
  8
0
  6
Continuous
 62
     7
370
    18
100
AcDbLine
 10
526.480970621
 20
173.9992919112
 30
0.0
 11
1462.4823900303
 21
173.9992919112
 31
0.0
  0
LINE
  5
9D
330
1F
100
AcDbEntity
  8
TESTO
100
AcDbLine
 10
547.2386410016
 20
137.0438986751
 30
0.0
 11
657.5939527553
 21
137.0438986751
 31
0.0
  0
LINE
  5
9E
330
1F
100
AcDbEntity
  8
TESTO
100
AcDbLine
 10
547.2386410016
 20
137.0438986751
 30
0.0
 11
557.6205719183
 21
129.0683032343
 31
0.0
  0
LINE
  5
9F
330
1F
100
AcDbEntity
  8
0
  6
Continuous
 62
     7
370
    18
100
AcDbLine
 10
802.8011009947
 20
173.9992919112
 30
0.0
 11
802.8011009947
 21
144.0038583086
 31
0.0
  0
LINE
  5
A0
330
1F
100
AcDbEntity
  8
0
  6
Continuous
 62
     7
370
    18
100
AcDbLine
 10
1126.5631886642
 20
173.9992919112
 30
0.0
 11
1126.5631886642
 21
144.0038583086
 31
0.0
  0
LINE
  5
A1
330
1F
100
AcDbEntity
  8
0
  6
Continuous
 62
     7
370
    18
100
AcDbLine
 10
1260.538884859
 20
173.9992919112
 30
0.0
 11
1260.538884859
 21
144.0038583086
 31
0.0
  0
LINE
  5
A2
330
1F
100
AcDbEntity
  8
0
  6
Continuous
 62
     7
370
    18
100
AcDbLine
 10
526.480970621
 20
214.0038583086
 30
0.0
 11
1462.4823900303
 21
214.0038583086
 31
0.0
  0
LINE
  5
A3
330
1F
100
AcDbEntity
  8
TESTO
100
AcDbLine
 10
657.5939527553
 20
137.0438986751
 30
0.0
 11
647.1209181692
 21
128.9983156746
 31
0.0
  0
LINE
  5
A4
330
1F
100
AcDbEntity
  8
TESTO
100
AcDbLine
 10
573.386225766
 20
116.9568301416
 30
0.0
 11
582.4215127664
 21
110.0157519949
 31
0.0
  0
LINE
  5
A5
330
1F
100
AcDbEntity
  8
0
  6
Continuous
 62
     7
370
    18
100
AcDbLine
 10
526.480970621
 20
254.0038583086
 30
0.0
 11
1462.4823900303
 21
254.0038583086
 31
0.0
  0
LINE
  5
A6
330
1F
100
AcDbEntity
  8
0
  6
Continuous
 62
     7
370
    18
100
AcDbLine
 10
981.480970621
 20
254.0038583086
 30
0.0
 11
981.480970621
 21
214.0038583086
 31
0.0
  0
LINE
  5
A7
330
1F
100
AcDbEntity
  8
0
  6
Continuous
 62
     7
370
    18
100
AcDbLine
 10
1126.480970621
 20
214.0038583086
 30
0.0
 11
1126.480970621
 21
173.9992919112
 31
0.0
  0
LINE
  5
A8
330
1F
100
AcDbEntity
  8
0
  6
Continuous
 62
     7
370
    18
100
AcDbLine
 10
1126.480970621
 20
214.0038583086
 30
0.0
 11
1126.480970621
 21
254.0038583086
 31
0.0
  0
LINE
  5
A9
330
1F
100
AcDbEntity
  8
0
  6
Continuous
 62
     7
370
    18
100
AcDbLine
 10
1126.480970621
 20
194.0038583086
 30
0.0
 11
1462.4823900303
 21
194.0038583086
 31
0.0
  0
LINE
  5
AA
330
1F
100
AcDbEntity
  8
0
  6
Continuous
 62
     7
370
    18
100
AcDbLine
 10
957.7015320321
 20
173.9992919112
 30
0.0
 11
957.7015320321
 21
144.0038583086
 31
0.0
  0
LINE
  5
AB
330
1F
100
AcDbEntity
  8
0
  6
Continuous
 62
     7
370
    18
100
AcDbLine
 10
1462.5360706906
 20
987.9913278696
 30
0.0
 11
526.5360706906
 21
987.9913278696
 31
0.0
  0
LINE
  5
AC
330
1F
100
AcDbEntity
  8
0
  6
Continuous
 62
     7
370
    18
100
AcDbLine
 10
606.5360706906
 20
962.9913278696
 30
0.0
 11
606.5360706906
 21
987.9913278696
 31
0.0
  0
LINE
  5
AD
330
1F
100
AcDbEntity
  8
0
  6
Continuous
 62
     7
370
    18
100
AcDbLine
 10
526.5360706906
 20
962.9913278696
 30
0.0
 11
1462.5360706906
 21
962.9913278696
 31
0.0
  0
LINE
  5
AE
330
1F
100
AcDbEntity
  8
0
  6
Continuous
 62
     7
370
    18
100
AcDbLine
 10
526.5360706906
 20
987.9913278696
 30
0.0
 11
1462.5360706906
 21
987.9913278696
 31
0.0
  0
LINE
  5
AF
330
1F
100
AcDbEntity
  8
0
  6
Continuous
 62
     7
370
    18
100
AcDbLine
 10
1462.5360706906
 20
962.9913278696
 30
0.0
 11
1462.5360706906
 21
987.9913278696
 31
0.0
  0
LINE
  5
B0
330
1F
100
AcDbEntity
  8
0
  6
Continuous
 62
     7
370
    18
100
AcDbLine
 10
526.5360706906
 20
962.9913278696
 30
0.0
 11
526.5360706906
 21
987.9913278696
 31
0.0
  0
LINE
  5
B1
330
1F
100
AcDbEntity
  8
0
  6
Continuous
 62
     7
370
    18
100
AcDbLine
 10
526.5360706906
 20
987.9913278696
 30
0.0
 11
1462.5360706906
 21
987.9913278696
 31
0.0
  0
LINE
  5
B2
330
1F
100
AcDbEntity
  8
0
  6
Continuous
 62
     7
370
    18
100
AcDbLine
 10
1462.5360706906
 20
962.9913278696
 30
0.0
 11
1462.5360706906
 21
987.9913278696
 31
0.0
  0
LINE
  5
B3
330
1F
100
AcDbEntity
  8
0
  6
Continuous
 62
     7
370
    18
100
AcDbLine
 10
1382.5360706906
 20
962.9913278696
 30
0.0
 11
1382.5360706906
 21
987.9913278696
 31
0.0
  0
LINE
  5
B4
330
1F
100
AcDbEntity
  8
0
  6
Continuous
 62
     7
370
    18
100
AcDbLine
 10
1234.5956328598
 20
962.9913278696
 30
0.0
 11
1234.5956328598
 21
987.9913278696
 31
0.0
  0
LINE
  5
B5
330
1F
100
AcDbEntity
  8
0
  6
Continuous
 62
     7
370
    18
100
AcDbLine
 10
526.5360706906
 20
937.9913278696
 30
0.0
 11
1462.5360706906
 21
937.9913278696
 31
0.0
  0
LINE
  5
B6
330
1F
100
AcDbEntity
  8
0
  6
Continuous
 62
     7
370
    18
100
AcDbLine
 10
526.5360706906
 20
912.9913278696
 30
0.0
 11
1462.5360706906
 21
912.9913278696
 31
0.0
  0
LINE
  5
B7
330
1F
100
AcDbEntity
  8
0
  6
Continuous
 62
     7
370
    18
100
AcDbLine
 10
526.5360706906
 20
887.9913278696
 30
0.0
 11
1462.5360706906
 21
887.9913278696
 31
0.0
  0
LINE
  5
B8
330
1F
100
AcDbEntity
  8
0
  6
Continuous
 62
     7
370
    18
100
AcDbLine
 10
526.5360706906
 20
962.9913278696
 30
0.0
 11
526.5360706906
 21
887.9913278696
 31
0.0
  0
LINE
  5
B9
330
1F
100
AcDbEntity
  8
0
  6
Continuous
 62
     7
370
    18
100
AcDbLine
 10
1462.5360706906
 20
962.9913278696
 30
0.0
 11
1462.5360706906
 21
887.9913278696
 31
0.0
  0
LINE
  5
BA
330
1F
100
AcDbEntity
  8
0
  6
Continuous
 62
     7
370
    18
100
AcDbLine
 10
606.5360706906
 20
962.9913278696
 30
0.0
 11
606.5360706906
 21
887.9913278696
 31
0.0
  0
LINE
  5
BB
330
1F
100
AcDbEntity
  8
0
  6
Continuous
 62
     7
370
    18
100
AcDbLine
 10
1234.5956328598
 20
962.9913278696
 30
0.0
 11
1234.5956328598
 21
887.9913278696
 31
0.0
  0
LINE
  5
BC
330
1F
100
AcDbEntity
  8
0
  6
Continuous
 62
     7
370
    18
100
AcDbLine
 10
1382.5360706906
 20
962.9913278696
 30
0.0
 11
1382.5360706906
 21
887.9913278696
 31
0.0
  0
LINE
  5
BD
330
1F
100
AcDbEntity
  8
0
  6
Continuous
 62
     7
370
    18
100
AcDbLine
 10
1462.5360706906
 20
962.9913278696
 30
0.0
 11
1462.5360706906
 21
887.9913278696
 31
0.0
  0
LINE
  5
BE
330
1F
100
AcDbEntity
  8
0
  6
Continuous
 62
     7
370
    18
100
AcDbLine
 10
823.980970621
 20
88.5038583086
 30
0.0
 11
1245.6353828114
 21
88.5038583086
 31
0.0
  0
LINE
  5
BF
330
1F
100
AcDbEntity
  8
0
  6
Continuous
 62
     7
370
    18
100
AcDbLine
 10
1126.5631886642
 20
88.5038583086
 30
0.0
 11
1126.5631886642
 21
73.0038583086
 31
0.0
  0
CIRCLE
  5
C0
330
1F
100
AcDbEntity
  8
0
  6
Continuous
 62
     7
370
    18
100
AcDbCircle
 10
1437.4498441099
 20
121.7880922236
 30
0.0
 40
6.250000000000179
  0
CIRCLE
  5
C1
330
1F
100
AcDbEntity
  8
0
  6
Continuous
 62
     7
370
    18
100
AcDbCircle
 10
1437.4498441099
 20
121.7880922236
 30
0.0
 40
10.00000000000003
  0
MTEXT
  5
C3
330
1F
100
AcDbEntity
  8
0
  6
Continuous
 62
     7
370
     0
100
AcDbMText
 10
1406.0741372383
 20
74.4692845178
 30
0.0
 40
14.5520833333
 41
0.0
 71
     1
 72
     1
  1
A4
  7
SLDTEXTSTYLE0
 73
     1
 44
1.0
  0
MTEXT
  5
C4
330
1F
100
AcDbEntity
  8
0
  6
Continuous
 62
     7
370
     0
100
AcDbMText
 10
141.281304119
 20
1006.5065395524
 30
0.0
 40
11.90625
 41
0.0
 71
     1
 72
     1
  1
1
  7
SLDTEXTSTYLE0
 73
     1
 44
1.0
  0
MTEXT
  5
C5
330
1F
100
AcDbEntity
  8
0
  6
Continuous
 62
     7
370
     0
100
AcDbMText
 10
375.5131921365
 20
1006.5065395524
 30
0.0
 40
11.90625
 41
0.0
 71
     1
 72
     1
  1
2
  7
SLDTEXTSTYLE0
 73
     1
 44
1.0
  0
MTEXT
  5
C6
330
1F
100
AcDbEntity
  8
0
  6
Continuous
 62
     7
370
     0
100
AcDbMText
 10
627.1702817005
 20
1006.5065395524
 30
0.0
 40
11.90625
 41
0.0
 71
     1
 72
     1
  1
3
  7
SLDTEXTSTYLE0
 73
     1
 44
1.0
  0
MTEXT
  5
C7
330
1F
100
AcDbEntity
  8
0
  6
Continuous
 62
     7
370
     0
100
AcDbMText
 10
873.9691859027
 20
1006.5065395524
 30
0.0
 40
11.90625
 41
0.0
 71
     1
 72
     1
  1
4
  7
SLDTEXTSTYLE0
 73
     1
 44
1.0
  0
MTEXT
  5
C8
330
1F
100
AcDbEntity
  8
0
  6
Continuous
 62
     7
370
     0
100
AcDbMText
 10
1128.1356160311
 20
1006.5065395524
 30
0.0
 40
11.90625
 41
0.0
 71
     1
 72
     1
  1
5
  7
SLDTEXTSTYLE0
 73
     1
 44
1.0
  0
MTEXT
  5
C9
330
1F
100
AcDbEntity
  8
0
  6
Continuous
 62
     7
370
     0
100
AcDbMText
 10
1354.1794596227
 20
1006.5065395524
 30
0.0
 40
11.90625
 41
0.0
 71
     1
 72
     1
  1
6
  7
SLDTEXTSTYLE0
 73
     1
 44
1.0
  0
MTEXT
  5
CA
330
1F
100
AcDbEntity
  8
0
  6
Continuous
 62
     7
370
     0
100
AcDbMText
 10
30.2413335894
 20
888.2026808358
 30
0.0
 40
11.90625
 41
0.0
 71
     1
 72
     1
  1
A
  7
SLDTEXTSTYLE0
 73
     1
 44
1.0
  0
MTEXT
  5
CB
330
1F
100
AcDbEntity
  8
0
  6
Continuous
 62
     7
370
     0
100
AcDbMText
 10
31.5642505311
 20
642.2278755569
 30
0.0
 40
11.90625
 41
0.0
 71
     1
 72
     1
  1
B
  7
SLDTEXTSTYLE0
 73
     1
 44
1.0
  0
MTEXT
  5
CC
330
1F
100
AcDbEntity
  8
0
  6
Continuous
 62
     7
370
     0
100
AcDbMText
 10
29.6680702022
 20
393.896746515
 30
0.0
 40
11.90625
 41
0.0
 71
     1
 72
     1
  1
C
  7
SLDTEXTSTYLE0
 73
     1
 44
1.0
  0
MTEXT
  5
CD
330
1F
100
AcDbEntity
  8
0
  6
Continuous
 62
     7
370
     0
100
AcDbMText
 10
29.6680702022
 20
155.359354831
 30
0.0
 40
11.90625
 41
0.0
 71
     1
 72
     1
  1
D
  7
SLDTEXTSTYLE0
 73
     1
 44
1.0
  0
MTEXT
  5
CE
330
1F
100
AcDbEntity
  8
0
  6
Continuous
 62
     7
370
     0
100
AcDbMText
 10
1385.2402839734
 20
954.2076635668
 30
0.0
 40
10.5833333333
 41
0.0
 71
     1
 72
     1
  1
09/01/2024
  7
SLDTEXTSTYLE0
 73
     1
 44
1.0
  0
MTEXT
  5
CF
330
1F
100
AcDbEntity
  8
0
  6
Continuous
 62
     7
370
     0
100
AcDbMText
 10
1239.5940997875
 20
954.2076635668
 30
0.0
 40
10.5833333333
 41
0.0
 71
     1
 72
     1
  1
Simone.Malighetti
  7
SLDTEXTSTYLE0
 73
     1
 44
1.0
  0
MTEXT
  5
D0
330
1F
100
AcDbEntity
  8
0
  6
Continuous
 62
     7
370
     0
100
AcDbMText
 10
558.973200762
 20
956.839270628
 30
0.0
 40
13.2291666667
 41
0.0
 71
     1
 72
     1
  1
00
  7
SLDTEXTSTYLE0
 73
     1
 44
1.0
  0
MTEXT
  5
D1
330
1F
100
AcDbEntity
  8
0
  6
Continuous
 62
     7
370
     0
100
AcDbMText
 10
615.4434902787
 20
956.839270628
 30
0.0
 40
13.2291666667
 41
0.0
 71
     1
 72
     1
  1
EMISSIONE
  7
SLDTEXTSTYLE0
 73
     1
 44
1.0
  0
MTEXT
  5
D3
330
1F
100
AcDbEntity
  8
0
  6
Continuous
 62
     7
370
     0
100
AcDbMText
 10
535.4335748904
 20
981.1353504322
 30
0.0
 40
10.5833333333
 41
0.0
 71
     1
 72
     1
  1
Revisione
  7
SLDTEXTSTYLE1
 73
     1
 44
1.0
  0
MTEXT
  5
D4
330
1F
100
AcDbEntity
  8
0
  6
Continuous
 62
     7
370
     0
100
AcDbMText
 10
615.4434902787
 20
981.043762043
 30
0.0
 40
10.5833333333
 41
0.0
 71
     1
 72
     1
  1
Descrizione revisione
  7
SLDTEXTSTYLE1
 73
     1
 44
1.0
  0
MTEXT
  5
D5
330
1F
100
AcDbEntity
  8
0
  6
Continuous
 62
     7
370
     0
100
AcDbMText
 10
1267.9072063032
 20
981.043762043
 30
0.0
 40
10.5833333333
 41
0.0
 71
     1
 72
     1
  1
Disegnatore
  7
SLDTEXTSTYLE1
 73
     1
 44
1.0
  0
MTEXT
  5
D6
330
1F
100
AcDbEntity
  8
0
  6
Continuous
 62
     7
370
     0
100
AcDbMText
 10
1391.5002297503
 20
981.043762043
 30
0.0
 40
10.5833333333
 41
0.0
 71
     1
 72
     1
  1
Data
  7
SLDTEXTSTYLE1
 73
     1
 44
1.0
  0
MTEXT
  5
D7
330
1F
100
AcDbEntity
  8
0
  6
Continuous
 62
     7
370
     0
100
AcDbMText
 10
1366.5504206828
 20
94.0246559737
 30
0.0
 40
11.90625
 41
0.0
 71
     3
 72
     1
  1
3
  7
SLDTEXTSTYLE0
 73
     1
 44
1.0
  0
MTEXT
  5
D8
330
1F
100
AcDbEntity
  8
0
  6
Continuous
 62
     7
370
     0
100
AcDbMText
 10
1366.2145651131
 20
139.6655140644
 30
0.0
 40
11.90625
 41
0.0
 71
     3
 72
     1
  1
748
  7
SLDTEXTSTYLE0
 73
     1
 44
1.0
  0
MTEXT
  5
D9
330
1F
100
AcDbEntity
  8
0
  6
Continuous
 62
     7
370
     0
100
AcDbMText
 10
1367.4986323701
 20
117.161874256
 30
0.0
 40
11.90625
 41
0.0
 71
     3
 72
     1
  1
30
  7
SLDTEXTSTYLE0
 73
     1
 44
1.0
  0
MTEXT
  5
DA
330
1F
100
AcDbEntity
  8
0
  6
Continuous
 62
     7
370
     0
100
AcDbMText
 10
814.3293953735
 20
170.9349519504
 30
0.0
 40
6.6145833333
 41
0.0
 71
     1
 72
     1
  1
Grado Tolleranza
  7
SLDTEXTSTYLE0
 73
     1
 44
1.0
  0
MTEXT
  5
DB
330
1F
100
AcDbEntity
  8
0
  6
Continuous
 62
     7
370
     0
100
AcDbMText
 10
974.7788237898
 20
242.017985681
 30
0.0
 40
13.2291666667
 41
0.0
 71
     3
 72
     1
  1
0.51
  7
SLDTEXTSTYLE0
 73
     1
 44
1.0
  0
MTEXT
  5
DC
330
1F
100
AcDbEntity
  8
0
  6
Continuous
 62
     7
370
     0
100
AcDbMText
 10
1243.5718080815
 20
86.3554859868
 30
0.0
 40
9.2604166667
 41
0.0
 71
     3
 72
     1
  1
00
  7
SLDTEXTSTYLE0
 73
     1
 44
1.0
  0
MTEXT
  5
DD
330
1F
100
AcDbEntity
  8
0
  6
Continuous
 62
     7
370
     0
100
AcDbMText
 10
583.2033698886
 20
242.017985681
 30
0.0
 40
13.2291666667
 41
0.0
 71
     1
 72
     1
  1
S235JR
  7
SLDTEXTSTYLE0
 73
     1
 44
1.0
  0
MTEXT
  5
DE
330
1F
100
AcDbEntity
  8
0
  6
Continuous
 62
     7
370
     0
100
AcDbMText
 10
889.1622501323
 20
48.521953092
 30
0.0
 40
9.2604166667
 41
0.0
 71
     1
 72
     1
  1
09/01/2024
  7
SLDTEXTSTYLE0
 73
     1
 44
1.0
  0
MTEXT
  5
DF
330
1F
100
AcDbEntity
  8
0
  6
Continuous
 62
     7
370
     0
100
AcDbMText
 10
889.1622501323
 20
68.6154988099
 30
0.0
 40
9.2604166667
 41
0.0
 71
     1
 72
     1
  1
Simone.Malighetti
  7
SLDTEXTSTYLE0
 73
     1
 44
1.0
  0
MTEXT
  5
E0
330
1F
100
AcDbEntity
  8
0
  6
Continuous
 62
     7
370
     0
100
AcDbMText
 10
838.5346619958
 20
123.8114582692
 30
0.0
 40
10.5833333333
 41
0.0
 71
     1
 72
     1
  1
Nervatura inferiore per CVE 025 Lt.
  7
SLDTEXTSTYLE0
 73
     1
 44
1.0
  0
MTEXT
  5
E1
330
1F
100
AcDbEntity
  8
0
  6
Continuous
 62
     7
370
     0
100
AcDbMText
 10
875.0901049556
 20
86.3554859868
 30
0.0
 40
9.2604166667
 41
0.0
 71
     1
 72
     1
  1
13000246
  7
SLDTEXTSTYLE0
 73
     1
 44
1.0
  0
MTEXT
  5
E3
330
1F
100
AcDbEntity
  8
TESTO
100
AcDbMText
 10
633.4363998953
 20
134.779786931
 30
0.0
 40
24.0
 41
0.0
 71
     1
 72
     1
  1
A
  7
SLDTEXTSTYLE2
 73
     1
 44
1.0
  0
MTEXT
  5
E5
330
1F
100
AcDbEntity
  8
FORMAT
100
AcDbMText
 10
675.1143767411
 20
106.1333462371
 30
0.0
 40
6.75
 41
0.0
 71
     1
 72
     1
  1
Tel. 0341/632080
  7
SLDTEXTSTYLE3
 73
     1
 44
1.0
  0
MTEXT
  5
E6
330
1F
100
AcDbEntity
  8
FORMAT
100
AcDbMText
 10
675.762659425
 20
75.7147323147
 30
0.0
 40
6.75
 41
0.0
 71
     1
 72
     1
  1
E-mail: info@decasrl.biz
  7
SLDTEXTSTYLE3
 73
     1
 44
1.0
  0
MTEXT
  5
E7
330
1F
100
AcDbEntity
  8
FORMAT
100
AcDbMText
 10
550.6586365516
 20
89.704757689
 30
0.0
 40
6.75
 41
0.0
 71
     1
 72
     1
  1
VIBROALIMENTATORI
  7
SLDTEXTSTYLE3
 73
     1
 44
1.0
  0
MTEXT
  5
E8
330
1F
100
AcDbEntity
  8
FORMAT
100
AcDbMText
 10
574.110626816
 20
78.4943244505
 30
0.0
 40
6.75
 41
0.0
 71
     1
 72
     1
  1
ELEVATORI
  7
SLDTEXTSTYLE3
 73
     1
 44
1.0
  0
MTEXT
  5
E9
330
1F
100
AcDbEntity
  8
FORMAT
100
AcDbMText
 10
674.1098610161
 20
125.79906342
 30
0.0
 40
6.75
 41
0.0
 71
     1
 72
     1
  1
23804 Monte Marenzo (Lc)
  7
SLDTEXTSTYLE3
 73
     1
 44
1.0
  0
MTEXT
  5
EA
330
1F
100
AcDbEntity
  8
FORMAT
100
AcDbMText
 10
674.1098610161
 20
138.5978703385
 30
0.0
 40
6.75
 41
0.0
 71
     1
 72
     1
  1
Via Della Fontana,6
  7
SLDTEXTSTYLE3
 73
     1
 44
1.0
  0
MTEXT
  5
EB
330
1F
100
AcDbEntity
  8
TESTO
100
AcDbMText
 10
608.9478973401
 20
135.4797852763
 30
0.0
 40
24.0
 41
0.0
 71
     1
 72
     1
  1
C
  7
SLDTEXTSTYLE2
 73
     1
 44
1.0
  0
MTEXT
  5
EC
330
1F
100
AcDbEntity
  8
TESTO
100
AcDbMText
 10
583.2033698886
 20
134.2487568443
 30
0.0
 40
24.0
 41
0.0
 71
     1
 72
     1
  1
E
  7
SLDTEXTSTYLE2
 73
     1
 44
1.0
  0
MTEXT
  5
ED
330
1F
100
AcDbEntity
  8
TESTO
100
AcDbMText
 10
593.3825928366
 20
105.5678356685
 30
0.0
 40
10.0
 41
0.0
 71
     1
 72
     1
  1
s.r.l.
  7
SLDTEXTSTYLE2
 73
     1
 44
1.0
  0
MTEXT
  5
EE
330
1F
100
AcDbEntity
  8
TESTO
100
AcDbMText
 10
558.6952033923
 20
134.779786931
 30
0.0
 40
24.0
 41
0.0
 71
     1
 72
     1
  1
D
  7
SLDTEXTSTYLE2
 73
     1
 44
1.0
  0
MTEXT
  5
EF
330
1F
100
AcDbEntity
  8
0
  6
Continuous
 62
     7
370
     0
100
AcDbMText
 10
529.1888803048
 20
56.6300967529
 30
0.0
 40
5.2916666667
 41
0.0
 71
     1
 72
     1
  1
Deca S.r.l. si riserva tutti i diritti sul presente documento e con quanto rappresentato.
  7
SLDTEXTSTYLE0
 73
     1
 44
1.0
  0
MTEXT
  5
F0
330
1F
100
AcDbEntity
  8
0
  6
Continuous
 62
     7
370
     0
100
AcDbMText
 10
529.1888803048
 20
44.5745416272
 30
0.0
 40
5.2916666667
 41
0.0
 71
     1
 72
     1
  1
E' vietato riprodurlo, utilizzarlo e renderlo accessibile a terzi senza autorizzazione scritta
  7
SLDTEXTSTYLE0
 73
     1
 44
1.0
  0
MTEXT
  5
F1
330
1F
100
AcDbEntity
  8
0
  6
Continuous
 62
     7
370
     0
100
AcDbMText
 10
1310.7313212943
 20
68.3417322084
 30
0.0
 40
6.6145833333
 41
0.0
 71
     1
 72
     1
  1
Revisione
  7
SLDTEXTSTYLE0
 73
     1
 44
1.0
  0
MTEXT
  5
F2
330
1F
100
AcDbEntity
  8
0
  6
Continuous
 62
     7
370
     0
100
AcDbMText
 10
833.1840069627
 20
83.7238781981
 30
0.0
 40
6.6145833333
 41
0.0
 71
     1
 72
     1
  1
Disegno
  7
SLDTEXTSTYLE0
 73
     1
 44
1.0
  0
MTEXT
  5
F3
330
1F
100
AcDbEntity
  8
0
  6
Continuous
 62
     7
370
     0
100
AcDbMText
 10
1250.317739839
 20
134.4022986324
 30
0.0
 40
6.6145833333
 41
0.0
 71
     1
 72
     1
  1
Lunghezza:
  7
SLDTEXTSTYLE0
 73
     1
 44
1.0
  0
MTEXT
  5
F4
330
1F
100
AcDbEntity
  8
0
  6
Continuous
 62
     7
370
     0
100
AcDbMText
 10
1250.3973895588
 20
111.8986588241
 30
0.0
 40
6.6145833333
 41
0.0
 71
     1
 72
     1
  1
Larghezza:
  7
SLDTEXTSTYLE0
 73
     1
 44
1.0
  0
MTEXT
  5
F5
330
1F
100
AcDbEntity
  8
0
  6
Continuous
 62
     7
370
     0
100
AcDbMText
 10
1250.3973895588
 20
88.7614405417
 30
0.0
 40
6.6145833333
 41
0.0
 71
     1
 72
     1
  1
Sp./:
  7
SLDTEXTSTYLE0
 73
     1
 44
1.0
  0
MTEXT
  5
F6
330
1F
100
AcDbEntity
  8
0
  6
Continuous
 62
     7
370
     0
100
AcDbMText
 10
833.1840069627
 20
65.9838910212
 30
0.0
 40
6.6145833333
 41
0.0
 71
     1
 72
     1
  1
Disegnatore
  7
SLDTEXTSTYLE0
 73
     1
 44
1.0
  0
MTEXT
  5
F7
330
1F
100
AcDbEntity
  8
0
  6
Continuous
 62
     7
370
     0
100
AcDbMText
 10
833.1840069627
 20
45.8903453033
 30
0.0
 40
6.6145833333
 41
0.0
 71
     1
 72
     1
  1
Data
  7
SLDTEXTSTYLE0
 73
     1
 44
1.0
  0
MTEXT
  5
F8
330
1F
100
AcDbEntity
  8
0
  6
Continuous
 62
     7
370
     0
100
AcDbMText
 10
833.1840069627
 20
134.4022986324
 30
0.0
 40
6.6145833333
 41
0.0
 71
     1
 72
     1
  1
Descrizione
  7
SLDTEXTSTYLE0
 73
     1
 44
1.0
  0
MTEXT
  5
F9
330
1F
100
AcDbEntity
  8
0
  6
Continuous
 62
     7
370
     0
100
AcDbMText
 10
1399.8383705963
 20
166.1169941789
 30
0.0
 40
6.6145833333
 41
0.0
 71
     1
 72
     1
  1
Sistema E
  7
SLDTEXTSTYLE0
 73
     1
 44
1.0
  0
MTEXT
  5
FB
330
1F
100
AcDbEntity
  8
0
  6
Continuous
 62
     7
370
     0
100
AcDbMText
 10
1399.8383705963
 20
152.2975501857
 30
0.0
 40
6.6145833333
 41
0.0
 71
     1
 72
     1
  1
UNI  3970
  7
SLDTEXTSTYLE4
 73
     1
 44
1.0
  0
MTEXT
  5
FC
330
1F
100
AcDbEntity
  8
0
  6
Continuous
 62
     7
370
     0
100
AcDbMText
 10
531.2077004074
 20
170.9349519504
 30
0.0
 40
6.6145833333
 41
0.0
 71
     1
 72
     1
  1
Tolleranze generali lineari
  7
SLDTEXTSTYLE0
 73
     1
 44
1.0
  0
MTEXT
  5
FD
330
1F
100
AcDbEntity
  8
0
  6
Continuous
 62
     7
370
     0
100
AcDbMText
 10
963.9333482888
 20
170.9349519504
 30
0.0
 40
6.6145833333
 41
0.0
 71
     1
 72
     1
  1
Tolleranze angolari
  7
SLDTEXTSTYLE0
 73
     1
 44
1.0
  0
MTEXT
  5
FE
330
1F
100
AcDbEntity
  8
0
  6
Continuous
 62
     7
370
     0
100
AcDbMText
 10
1150.8988737337
 20
170.9349519504
 30
0.0
 40
6.6145833333
 41
0.0
 71
     1
 72
     1
  1
Smussi non quotati
  7
SLDTEXTSTYLE0
 73
     1
 44
1.0
  0
MTEXT
  5
FF
330
1F
100
AcDbEntity
  8
0
  6
Continuous
 62
     7
370
     0
100
AcDbMText
 10
1278.7120940204
 20
170.9349519504
 30
0.0
 40
6.6145833333
 41
0.0
 71
     1
 72
     1
  1
Raggi non quotati
  7
SLDTEXTSTYLE0
 73
     1
 44
1.0
  0
MTEXT
  5
100
330
1F
100
AcDbEntity
  8
0
  6
Continuous
 62
     7
370
     0
100
AcDbMText
 10
660.5297244398
 20
170.9349519504
 30
0.0
 40
6.6145833333
 41
0.0
 71
     1
 72
     1
  1
Tolleranze generali geometriche
  7
SLDTEXTSTYLE0
 73
     1
 44
1.0
  0
MTEXT
  5
102
330
1F
100
AcDbEntity
  8
0
  6
Continuous
 62
     7
370
     0
100
AcDbMText
 10
687.1030995532
 20
157.7339882982
 30
0.0
 40
9.2604166667
 41
0.0
 71
     1
 72
     1
  1
UNI EN 2768 H
  7
SLDTEXTSTYLE5
 73
     1
 44
1.0
  0
MTEXT
  5
103
330
1F
100
AcDbEntity
  8
0
  6
Continuous
 62
     7
370
     0
100
AcDbMText
 10
534.8618201885
 20
157.7339882982
 30
0.0
 40
9.2604166667
 41
0.0
 71
     1
 72
     1
  1
ISO 286-1 ISO 8015
  7
SLDTEXTSTYLE0
 73
     1
 44
1.0
  0
MTEXT
  5
104
330
1F
100
AcDbEntity
  8
0
  6
Continuous
 62
     7
370
     0
100
AcDbMText
 10
532.3930115385
 20
210.2018432644
 30
0.0
 40
6.6145833333
 41
0.0
 71
     1
 72
     1
  1
Note
  7
SLDTEXTSTYLE0
 73
     1
 44
1.0
  0
MTEXT
  5
105
330
1F
100
AcDbEntity
  8
0
  6
Continuous
 62
     7
370
     0
100
AcDbMText
 10
532.3930115385
 20
247.8675647498
 30
0.0
 40
6.6145833333
 41
0.0
 71
     1
 72
     1
  1
Materiale
  7
SLDTEXTSTYLE0
 73
     1
 44
1.0
  0
MTEXT
  5
106
330
1F
100
AcDbEntity
  8
0
  6
Continuous
 62
     7
370
     0
100
AcDbMText
 10
830.8284849402
 20
247.8675647498
 30
0.0
 40
6.6145833333
 41
0.0
 71
     1
 72
     1
  1
Peso Kg
  7
SLDTEXTSTYLE0
 73
     1
 44
1.0
  0
MTEXT
  5
107
330
1F
100
AcDbEntity
  8
0
  6
Continuous
 62
     7
370
     0
100
AcDbMText
 10
1131.480970621
 20
247.8675647498
 30
0.0
 40
6.6145833333
 41
0.0
 71
     1
 72
     1
  1
Trattamento
  7
SLDTEXTSTYLE0
 73
     1
 44
1.0
  0
MTEXT
  5
108
330
1F
100
AcDbEntity
  8
0
  6
Continuous
 62
     7
370
     0
100
AcDbMText
 10
1131.4363138393
 20
205.8118660987
 30
0.0
 40
6.6145833333
 41
0.0
 71
     1
 72
     1
  1
Durezza
  7
SLDTEXTSTYLE0
 73
     1
 44
1.0
  0
MTEXT
  5
109
330
1F
100
AcDbEntity
  8
0
  6
Continuous
 62
     7
370
     0
100
AcDbMText
 10
1131.4363138393
 20
184.5476813005
 30
0.0
 40
6.6145833333
 41
0.0
 71
     1
 72
     1
  1
Profondit
  7
SLDTEXTSTYLE0
 73
     1
 44
1.0
  0
MTEXT
  5
10A
330
1F
100
AcDbEntity
  8
0
  6
Continuous
 62
     7
370
     0
100
AcDbMText
 10
986.8083489554
 20
247.8675647498
 30
0.0
 40
6.6145833333
 41
0.0
 71
     1
 72
     1
  1
Grado di finitura
  7
SLDTEXTSTYLE0
 73
     1
 44
1.0
  0
MTEXT
  5
10B
330
1F
100
AcDbEntity
  8
0
  6
Continuous
 62
     7
370
     0
100
AcDbMText
 10
1395.7342905312
 20
93.6024522573
 30
0.0
 40
7.5
 41
0.0
 71
     1
 72
     1
  1
SCALA:1:5
  7
SLDTEXTSTYLE0
 73
     1
 44
1.0
  0
MTEXT
  5
10C
330
1F
100
AcDbEntity
  8
0
  6
Continuous
 62
     7
370
     0
100
AcDbMText
 10
1386.0983060759
 20
45.4262671931
 30
0.0
 40
7.5
 41
0.0
 71
     1
 72
     1
  1
FOGLIO 1 DI 1
  7
SLDTEXTSTYLE5
 73
     1
 44
1.0
  0
MTEXT
  5
10D
330
1F
100
AcDbEntity
  8
0
  6
Continuous
 62
     7
370
     0
100
AcDbMText
 10
1028.9848590617
 20
65.9838910212
 30
0.0
 40
6.6145833333
 41
0.0
 71
     1
 72
     1
  1
Codice
  7
SLDTEXTSTYLE0
 73
     1
 44
1.0
  0
MTEXT
  5
10E
330
1F
100
AcDbEntity
  8
0
  6
Continuous
 62
     7
370
     0
100
AcDbMText
 10
1131.4363138393
 20
83.7238781981
 30
0.0
 40
6.6145833333
 41
0.0
 71
     1
 72
     1
  1
Revisione disegno
  7
SLDTEXTSTYLE0
 73
     1
 44
1.0
  0
MTEXT
  5
10F
330
1F
100
AcDbEntity
  8
0
  6
Continuous
 62
     7
370
     0
100
AcDbMText
 10
1066.4212350009
 20
52.4693642658
 30
0.0
 40
13.2291666667
 41
0.0
 71
     1
 72
     1
  1
13R025108
  7
SLDTEXTSTYLE0
 73
     1
 44
1.0
  0
MTEXT
  5
110
330
1F
100
AcDbEntity
  8
0
  6
Continuous
 62
     7
370
     0
100
AcDbMText
 10
1368.8077057741
 20
52.4693642658
 30
0.0
 40
13.2291666667
 41
0.0
 71
     3
 72
     1
  1
00
  7
SLDTEXTSTYLE0
 73
     1
 44
1.0
  0
LINE
  5
111
330
1F
100
AcDbEntity
  8
0
  6
Continuous
 62
     7
370
    25
100
AcDbLine
 10
1281.6008920695
 20
700.0938951828
 30
0.0
 11
533.6008920695
 21
700.0938951828
 31
0.0
  0
LINE
  5
112
330
1F
100
AcDbEntity
  8
0
  6
Continuous
 62
     7
370
    25
100
AcDbLine
 10
1281.6008920695
 20
680.0938951828
 30
0.0
 11
1281.6008920695
 21
700.0938951828
 31
0.0
  0
ARC
  5
113
330
1F
100
AcDbEntity
  8
0
  6
Continuous
 62
     7
370
    25
100
AcDbCircle
 10
604.4518284181
 20
680.0938951828
 30
0.0
 40
10.00000000000013
100
AcDbArc
 50
260.2724214486
 51
270.0
  0
LINE
  5
114
330
1F
100
AcDbEntity
  8
0
  6
Continuous
 62
     7
370
    25
100
AcDbLine
 10
602.762190267
 20
670.2376726346
 30
0.0
 11
536.0940006242
 21
681.6665051448
 31
0.0
  0
ARC
  5
115
330
1F
100
AcDbEntity
  8
0
  6
Continuous
 62
     7
370
    25
100
AcDbCircle
 10
536.6008920695
 20
684.6233719093
 30
0.0
 40
3.0
100
AcDbArc
 50
180.0
 51
260.2724214486
  0
ARC
  5
116
330
1F
100
AcDbEntity
  8
0
  6
Continuous
 62
     7
370
    25
100
AcDbCircle
 10
1271.6008920695
 20
680.0938951828
 30
0.0
 40
10.0
100
AcDbArc
 50
270.0
 51
0.0
  0
LINE
  5
117
330
1F
100
AcDbEntity
  8
0
  6
Continuous
 62
     7
370
    25
100
AcDbLine
 10
533.6008920695
 20
700.0938951828
 30
0.0
 11
533.6008920695
 21
684.6233719093
 31
0.0
  0
LINE
  5
118
330
1F
100
AcDbEntity
  8
0
  6
Continuous
 62
     7
370
    25
100
AcDbLine
 10
604.4518284181
 20
670.0938951828
 30
0.0
 11
1271.6008920695
 21
670.0938951828
 31
0.0
  0
DIMENSION
  5
119
330
1F
100
AcDbEntity
  8
0
  6
Continuous
 62
     7
370
    18
100
AcDbDimension
  2
_D
 10
1281.6008920695
 20
620.0938951828
 30
0.0
 11
907.6008920695
 21
620.0938951828
 31
0.0
 70
   160
  1
<>
 71
     2
 42
-1.0
  3
SLDDIMSTYLE0
100
AcDbAlignedDimension
 13
533.6008920695
 23
684.6233719093
 33
0.0
 14
1281.6008920695
 24
680.0938951828
 34
0.0
 50
0.0
100
AcDbRotatedDimension
  0
DIMENSION
  5
124
330
1F
100
AcDbEntity
  8
0
  6
Continuous
 62
     7
370
    18
100
AcDbDimension
  2
_D_1
 10
1331.6008920695
 20
670.0938951828
 30
0.0
 11
1331.6008920695
 21
685.0938951828
 31
0.0
 70
   160
  1
<>
 71
     2
 42
-1.0
  3
SLDDIMSTYLE1
100
AcDbAlignedDimension
 13
1281.6008920695
 23
700.0938951828
 33
0.0
 14
1271.6008920695
 24
670.0938951828
 34
0.0
 50
90.0
100
AcDbRotatedDimension
  0
LINE
  5
131
330
1F
100
AcDbEntity
  8
0
  6
Continuous
 62
     7
370
    25
100
AcDbLine
 10
533.6008920695
 20
510.2912578372
 30
0.0
 11
533.6008920695
 21
507.2912578372
 31
0.0
  0
LINE
  5
132
330
1F
100
AcDbEntity
  8
0
  6
Continuous
 62
     7
370
    25
100
AcDbLine
 10
1281.6008920695
 20
510.2912578372
 30
0.0
 11
533.6008920695
 21
510.2912578372
 31
0.0
  0
LINE
  5
133
330
1F
100
AcDbEntity
  8
0
  6
Continuous
 62
     7
370
    25
100
AcDbLine
 10
1281.6008920695
 20
510.2912578372
 30
0.0
 11
1281.6008920695
 21
507.2912578372
 31
0.0
  0
LINE
  5
134
330
1F
100
AcDbEntity
  8
0
  6
Continuous
 62
     7
370
    25
100
AcDbLine
 10
1281.6008920695
 20
507.2912578372
 30
0.0
 11
533.6008920695
 21
507.2912578372
 31
0.0
  0
LINE
  5
135
330
1F
100
AcDbEntity
  8
0
  6
HIDDEN
 62
     7
370
    18
100
AcDbLine
 10
536.0940006242
 20
507.2912578372
 30
0.0
 11
536.0940006242
 21
510.2912578372
 31
0.0
  0
LINE
  5
136
330
1F
100
AcDbEntity
  8
0
  6
HIDDEN
 62
     7
370
    18
100
AcDbLine
 10
1271.6008920695
 20
510.2912578372
 30
0.0
 11
1271.6008920695
 21
507.2912578372
 31
0.0
  0
LINE
  5
137
330
1F
100
AcDbEntity
  8
0
  6
HIDDEN
 62
     7
370
    18
100
AcDbLine
 10
602.762190267
 20
510.2912578372
 30
0.0
 11
602.762190267
 21
507.2912578372
 31
0.0
  0
LINE
  5
138
330
1F
100
AcDbEntity
  8
0
  6
HIDDEN
 62
     7
370
    18
100
AcDbLine
 10
604.4518284181
 20
507.2912578372
 30
0.0
 11
604.4518284181
 21
510.2912578372
 31
0.0
  0
DIMENSION
  5
139
330
1F
100
AcDbEntity
  8
0
  6
Continuous
 62
     7
370
    18
100
AcDbDimension
  2
_D_2
 10
1334.9247286647
 20
507.2912578372
 30
0.0
 11
1334.9247286647
 21
538.6481002472
 31
0.0
 70
   160
  1
<>
 71
     2
 42
-1.0
  3
SLDDIMSTYLE1
100
AcDbAlignedDimension
 13
1281.6008920695
 23
510.2912578372
 33
0.0
 14
1281.6008920695
 24
507.2912578372
 34
0.0
 50
90.0
100
AcDbRotatedDimension
  0
ARC
  5
145
330
1F
100
AcDbEntity
  8
0
  6
Continuous
 62
     7
370
    25
100
AcDbCircle
 10
1271.6008920695
 20
379.7422740424
 30
0.0
 40
10.0
100
AcDbArc
 50
0.0
 51
90.0
  0
LINE
  5
146
330
1F
100
AcDbEntity
  8
0
  6
Continuous
 62
     7
370
    25
100
AcDbLine
 10
1281.6008920695
 20
379.7422740424
 30
0.0
 11
1281.6008920695
 21
359.7422740424
 31
0.0
  0
LINE
  5
147
330
1F
100
AcDbEntity
  8
0
  6
Continuous
 62
     7
370
    25
100
AcDbLine
 10
1281.6008920695
 20
359.7422740424
 30
0.0
 11
533.6008920695
 21
359.7422740424
 31
0.0
  0
LINE
  5
148
330
1F
100
AcDbEntity
  8
0
  6
Continuous
 62
     7
370
    25
100
AcDbLine
 10
533.6008920695
 20
359.7422740424
 30
0.0
 11
533.6008920695
 21
375.2127973159
 31
0.0
  0
ARC
  5
149
330
1F
100
AcDbEntity
  8
0
  6
Continuous
 62
     7
370
    25
100
AcDbCircle
 10
536.6008920695
 20
375.2127973159
 30
0.0
 40
3.0
100
AcDbArc
 50
99.7275785514
 51
180.0
  0
LINE
  5
14A
330
1F
100
AcDbEntity
  8
0
  6
Continuous
 62
     7
370
    25
100
AcDbLine
 10
602.762190267
 20
389.5984965905
 30
0.0
 11
536.0940006242
 21
378.1696640803
 31
0.0
  0
ARC
  5
14B
330
1F
100
AcDbEntity
  8
0
  6
Continuous
 62
     7
370
    25
100
AcDbCircle
 10
604.4518284181
 20
379.7422740424
 30
0.0
 40
10.00000000000002
100
AcDbArc
 50
90.0
 51
99.7275785514
  0
LINE
  5
14C
330
1F
100
AcDbEntity
  8
0
  6
Continuous
 62
     7
370
    25
100
AcDbLine
 10
604.4518284181
 20
389.7422740424
 30
0.0
 11
1271.6008920695
 21
389.7422740424
 31
0.0
  0
LINE
  5
14D
330
1F
100
AcDbEntity
  8
0
  6
Continuous
 62
     7
370
     0
100
AcDbLine
 10
535.1083783694
 20
378.0007002652
 30
0.0
 11
532.6152698147
 21
377.5733102273
 31
0.0
  0
LINE
  5
14E
330
1F
100
AcDbEntity
  8
0
  6
Continuous
 62
     7
370
     0
100
AcDbLine
 10
533.6008920695
 20
376.2127973159
 30
0.0
 11
533.6008920695
 21
378.7422740424
 31
0.0
  0
LINE
  5
14F
330
1F
100
AcDbEntity
  8
0
  6
Continuous
 62
     7
370
     0
100
AcDbLine
 10
603.4518284181
 20
389.7422740424
 30
0.0
 11
602.6008920695
 21
389.7422740424
 31
0.0
  0
LINE
  5
150
330
1F
100
AcDbEntity
  8
0
  6
Continuous
 62
     7
370
     0
100
AcDbLine
 10
603.7478125218
 20
389.7674604056
 30
0.0
 11
604.5865143243
 21
389.9112378575
 31
0.0
  0
LINE
  5
151
330
1F
100
AcDbEntity
  8
0
  6
Continuous
 62
     7
370
     0
100
AcDbLine
 10
603.7478125218
 20
389.7674604056
 30
0.0
 11
604.5865143243
 21
389.9112378575
 31
0.0
  0
LINE
  5
152
330
1F
100
AcDbEntity
  8
0
  6
Continuous
 62
     7
370
     0
100
AcDbLine
 10
603.4518284181
 20
389.7422740424
 30
0.0
 11
602.6008920695
 21
389.7422740424
 31
0.0
  0
LINE
  5
153
330
1F
100
AcDbEntity
  8
0
  6
Continuous
 62
     7
370
     0
100
AcDbLine
 10
603.4518284181
 20
389.7422740424
 30
0.0
 11
602.6008920695
 21
389.7422740424
 31
0.0
  0
LINE
  5
154
330
1F
100
AcDbEntity
  8
0
  6
Continuous
 62
     7
370
     0
100
AcDbLine
 10
603.7478125218
 20
389.7674604056
 30
0.0
 11
604.5865143243
 21
389.9112378575
 31
0.0
  0
DIMENSION
  5
155
330
1F
100
AcDbEntity
  8
0
  6
Continuous
 62
     7
370
    18
100
AcDbDimension
  2
_D_3
 10
506.3007183701
 20
359.7422740424
 30
0.0
 11
506.3007183701
 21
368.7422740424
 31
0.0
 70
   160
  1
<>
 71
     2
 42
-1.0
  3
SLDDIMSTYLE1
100
AcDbAlignedDimension
 13
533.6008920695
 23
377.7422740424
 33
0.0
 14
533.6008920695
 24
359.7422740424
 34
0.0
 50
90.0
100
AcDbRotatedDimension
  0
DIMENSION
  5
161
330
1F
100
AcDbEntity
  8
0
  6
Continuous
 62
     7
370
    18
100
AcDbDimension
  2
_D_4
 10
603.6008920695
 20
430.7831402388
 30
0.0
 11
568.6008920695
 21
430.7831402388
 31
0.0
 70
   160
  1
<>
 71
     2
 42
-1.0
  3
SLDDIMSTYLE1
100
AcDbAlignedDimension
 13
533.6008920695
 23
377.7422740424
 33
0.0
 14
603.6008920695
 24
389.7422740424
 34
0.0
100
AcDbRotatedDimension
  0
DIMENSION
  5
16D
330
1F
100
AcDbEntity
  8
0
  6
Continuous
 62
     7
370
    18
100
AcDbDimension
  2
_D_5
 10
1271.6008920695
 20
379.7422740424
 30
0.0
 11
1314.35589502
 21
410.8553966853
 31
0.0
 70
   164
  1
<>
 71
     1
 42
-1.0
  3
SLDDIMSTYLE2
100
AcDbRadialDimension
 15
1279.6865828326
 25
385.626286694
 35
0.0
 40
0.0
  0
LINE
  5
176
330
1F
100
AcDbEntity
  8
0
  6
Continuous
 62
     7
370
    25
100
AcDbLine
 10
250.3786352559
 20
876.9883834281
 30
0.0
 11
250.3786352559
 21
128.9883834281
 31
0.0
  0
LINE
  5
177
330
1F
100
AcDbEntity
  8
0
  6
Continuous
 62
     7
370
    25
100
AcDbLine
 10
270.3786352559
 20
876.9883834281
 30
0.0
 11
250.3786352559
 21
876.9883834281
 31
0.0
  0
ARC
  5
178
330
1F
100
AcDbEntity
  8
0
  6
Continuous
 62
     7
370
    25
100
AcDbCircle
 10
270.3786352559
 20
199.8393197767
 30
0.0
 40
10.00000000000002
100
AcDbArc
 50
350.2724214486
 51
0.0
  0
LINE
  5
179
330
1F
100
AcDbEntity
  8
0
  6
Continuous
 62
     7
370
    25
100
AcDbLine
 10
280.234857804
 20
198.1496816255
 30
0.0
 11
268.8060252938
 21
131.4814919828
 31
0.0
  0
ARC
  5
17A
330
1F
100
AcDbEntity
  8
0
  6
Continuous
 62
     7
370
    25
100
AcDbCircle
 10
265.8491585294
 20
131.9883834281
 30
0.0
 40
3.000000000000001
100
AcDbArc
 50
270.0
 51
350.2724214486
  0
ARC
  5
17B
330
1F
100
AcDbEntity
  8
0
  6
Continuous
 62
     7
370
    25
100
AcDbCircle
 10
270.3786352559
 20
866.9883834281
 30
0.0
 40
10.0
100
AcDbArc
 50
0.0
 51
90.0
  0
LINE
  5
17C
330
1F
100
AcDbEntity
  8
0
  6
Continuous
 62
     7
370
    25
100
AcDbLine
 10
250.3786352559
 20
128.9883834281
 30
0.0
 11
265.8491585294
 21
128.9883834281
 31
0.0
  0
LINE
  5
17D
330
1F
100
AcDbEntity
  8
0
  6
Continuous
 62
     7
370
    25
100
AcDbLine
 10
280.3786352559
 20
199.8393197767
 30
0.0
 11
280.3786352559
 21
866.9883834281
 31
0.0
  0
DIMENSION
  5
17E
330
1F
100
AcDbEntity
  8
0
  6
Continuous
 62
     7
370
    18
100
AcDbDimension
  2
_D_6
 10
200.3786352559
 20
128.9883834281
 30
0.0
 11
200.3786352559
 21
502.9883834281
 31
0.0
 70
   160
  1
<>
 71
     2
 42
-1.0
  3
SLDDIMSTYLE0
100
AcDbAlignedDimension
 13
250.3786352559
 23
876.9883834281
 33
0.0
 14
250.3786352559
 24
128.9883834281
 34
0.0
 50
90.0
100
AcDbRotatedDimension
  0
DIMENSION
  5
188
330
1F
100
AcDbEntity
  8
0
  6
Continuous
 62
     7
370
    18
100
AcDbDimension
  2
_D_7
 10
280.3786352559
 20
926.9883834281
 30
0.0
 11
330.3786352559
 21
926.9883834281
 31
0.0
 70
   160
  1
<>
 71
     2
 42
-1.0
  3
SLDDIMSTYLE1
100
AcDbAlignedDimension
 13
250.3786352559
 23
876.9883834281
 33
0.0
 14
280.3786352559
 24
866.9883834281
 34
0.0
 50
0.0
100
AcDbRotatedDimension
  0
INSERT
  5
198
330
1F
100
AcDbEntity
  8
0
  6
Continuous
 62
     7
370
     0
100
AcDbBlockReference
  2
SW_NOTE_0
 10
328.5316815597
 20
808.2859463851
 30
0.0
  0
LEADER
  5
19F
330
1F
100
AcDbEntity
  8
0
  6
Continuous
 62
     7
370
     0
100
AcDbLeader
  3
SLDDIMSTYLE3
 76
     2
 10
262.6641592201
 20
768.6764256004
 30
0.0
 10
328.5316815597
 20
808.2859463851
 30
0.0
  0
ENDSEC
  0
SECTION
  2
OBJECTS
  0
DICTIONARY
  5
C
330
0
100
AcDbDictionary
281
     1
  3
ACAD_GROUP
350
D
  3
ACAD_LAYOUT
350
1A
  3
ACAD_MLINESTYLE
350
17
  3
ACAD_PLOTSETTINGS
350
19
  3
ACAD_PLOTSTYLENAME
350
E
  3
ACAD_SCALELIST
350
47
  3
DWGPROPS
350
1A0
  0
DICTIONARY
  5
D
102
{ACAD_REACTORS
330
C
102
}
330
C
100
AcDbDictionary
281
     1
  0
DICTIONARY
  5
1A
102
{ACAD_REACTORS
330
C
102
}
330
C
100
AcDbDictionary
281
     1
  3
Layout1
350
1E
  3
Layout2
350
26
  3
Model
350
22
  0
DICTIONARY
  5
17
102
{ACAD_REACTORS
330
C
102
}
330
C
100
AcDbDictionary
281
     1
  3
Standard
350
18
  0
DICTIONARY
  5
19
102
{ACAD_REACTORS
330
C
102
}
330
C
100
AcDbDictionary
281
     1
  0
ACDBDICTIONARYWDFLT
  5
E
102
{ACAD_REACTORS
330
C
102
}
330
C
100
AcDbDictionary
281
     1
  3
Normal
350
F
100
AcDbDictionaryWithDefault
340
F
  0
DICTIONARY
  5
47
102
{ACAD_REACTORS
330
C
102
}
330
C
100
AcDbDictionary
281
     1
  3
A0
350
48
  3
A1
350
49
  3
A2
350
4A
  3
A3
350
4B
  3
A4
350
4C
  3
A5
350
4D
  3
A6
350
4E
  3
A7
350
4F
  3
A8
350
50
  3
A9
350
51
  3
B0
350
52
  3
B1
350
53
  3
B2
350
54
  3
B3
350
55
  3
B4
350
56
  3
B5
350
57
  3
B6
350
58
  0
XRECORD
  5
1A0
102
{ACAD_REACTORS
330
C
102
}
330
C
100
AcDbXrecord
280
     1
  1
DWGPROPS COOKIE
  2

  3

  4

  6

  7

  8
Simone Malighetti
  9

300
=
301
=
302
=
303
=
304
=
305
=
306
=
307
=
308
=
309
=
 40
0.0
 41
2460320.583303715
 42
2460320.583307014
  1

 90
        0
  0
LAYOUT
  5
1E
102
{ACAD_REACTORS
330
1A
102
}
330
1A
100
AcDbPlotSettings
  1

  2
none_device
  4

  6

 40
0.0
 41
0.0
 42
0.0
 43
0.0
 44
0.0
 45
0.0
 46
0.0
 47
0.0
 48
0.0
 49
0.0
140
0.0
141
0.0
142
1.0
143
1.0
 70
   688
 72
     1
 73
     0
 74
     5
  7

 75
    16
147
1.0
148
0.0
149
0.0
100
AcDbLayout
  1
Layout1
 70
     1
 71
     1
 10
0.0
 20
0.0
 11
420.0
 21
297.0
 12
0.0
 22
0.0
 32
0.0
 14
1.0000000000E+20
 24
1.0000000000E+20
 34
1.0000000000E+20
 15
-1.0000000000E+20
 25
-1.0000000000E+20
 35
-1.0000000000E+20
146
0.0
 13
0.0
 23
0.0
 33
0.0
 16
1.0
 26
0.0
 36
0.0
 17
0.0
 27
1.0
 37
0.0
 76
     0
330
1B
  0
LAYOUT
  5
26
102
{ACAD_REACTORS
330
1A
102
}
330
1A
100
AcDbPlotSettings
  1

  2
none_device
  4

  6

 40
0.0
 41
0.0
 42
0.0
 43
0.0
 44
0.0
 45
0.0
 46
0.0
 47
0.0
 48
0.0
 49
0.0
140
0.0
141
0.0
142
1.0
143
1.0
 70
   688
 72
     1
 73
     0
 74
     5
  7

 75
    16
147
1.0
148
0.0
149
0.0
100
AcDbLayout
  1
Layout2
 70
     1
 71
     2
 10
0.0
 20
0.0
 11
0.0
 21
0.0
 12
0.0
 22
0.0
 32
0.0
 14
0.0
 24
0.0
 34
0.0
 15
0.0
 25
0.0
 35
0.0
146
0.0
 13
0.0
 23
0.0
 33
0.0
 16
1.0
 26
0.0
 36
0.0
 17
0.0
 27
1.0
 37
0.0
 76
     0
330
23
  0
LAYOUT
  5
22
102
{ACAD_REACTORS
330
1A
102
}
330
1A
100
AcDbPlotSettings
  1

  2
none_device
  4
Letter_(8.50_x_11.00_Inches)
  6

 40
6.35
 41
6.35
 42
6.35000508
 43
6.35000508
 44
215.9
 45
279.4
 46
0.0
 47
0.0
 48
0.0
 49
0.0
140
0.0
141
0.0
142
1.0
143
1.0
 70
  1712
 72
     1
 73
     0
 74
     0
  7

 75
     0
147
1.0
148
0.0
149
0.0
100
AcDbLayout
  1
Model
 70
     1
 71
     0
 10
0.0
 20
0.0
 11
1485.0
 21
1050.0
 12
0.0
 22
0.0
 32
0.0
 14
0.0
 24
0.0
 34
0.0
 15
1485.0
 25
1050.0
 35
0.0
146
0.0
 13
0.0
 23
0.0
 33
0.0
 16
1.0
 26
0.0
 36
0.0
 17
0.0
 27
1.0
 37
0.0
 76
     0
330
1F
331
29
  0
MLINESTYLE
  5
18
102
{ACAD_REACTORS
330
17
102
}
330
17
100
AcDbMlineStyle
  2
Standard
 70
     0
  3

 62
   256
 51
90.0
 52
90.0
 71
     2
 49
0.5
 62
   256
  6
BYLAYER
 49
-0.5
 62
   256
  6
BYLAYER
  0
ACDBPLACEHOLDER
  5
F
102
{ACAD_REACTORS
330
E
102
}
330
E
  0
SCALE
  5
48
102
{ACAD_REACTORS
330
47
102
}
330
47
100
AcDbScale
 70
     0
300
1:1
140
1.0
141
1.0
290
     1
  0
SCALE
  5
49
102
{ACAD_REACTORS
330
47
102
}
330
47
100
AcDbScale
 70
     0
300
1:2
140
1.0
141
2.0
290
     0
  0
SCALE
  5
4A
102
{ACAD_REACTORS
330
47
102
}
330
47
100
AcDbScale
 70
     0
300
1:4
140
1.0
141
4.0
290
     0
  0
SCALE
  5
4B
102
{ACAD_REACTORS
330
47
102
}
330
47
100
AcDbScale
 70
     0
300
1:5
140
1.0
141
5.0
290
     0
  0
SCALE
  5
4C
102
{ACAD_REACTORS
330
47
102
}
330
47
100
AcDbScale
 70
     0
300
1:8
140
1.0
141
8.0
290
     0
  0
SCALE
  5
4D
102
{ACAD_REACTORS
330
47
102
}
330
47
100
AcDbScale
 70
     0
300
1:10
140
1.0
141
10.0
290
     0
  0
SCALE
  5
4E
102
{ACAD_REACTORS
330
47
102
}
330
47
100
AcDbScale
 70
     0
300
1:16
140
1.0
141
16.0
290
     0
  0
SCALE
  5
4F
102
{ACAD_REACTORS
330
47
102
}
330
47
100
AcDbScale
 70
     0
300
1:20
140
1.0
141
20.0
290
     0
  0
SCALE
  5
50
102
{ACAD_REACTORS
330
47
102
}
330
47
100
AcDbScale
 70
     0
300
1:30
140
1.0
141
30.0
290
     0
  0
SCALE
  5
51
102
{ACAD_REACTORS
330
47
102
}
330
47
100
AcDbScale
 70
     0
300
1:40
140
1.0
141
40.0
290
     0
  0
SCALE
  5
52
102
{ACAD_REACTORS
330
47
102
}
330
47
100
AcDbScale
 70
     0
300
1:50
140
1.0
141
50.0
290
     0
  0
SCALE
  5
53
102
{ACAD_REACTORS
330
47
102
}
330
47
100
AcDbScale
 70
     0
300
1:100
140
1.0
141
100.0
290
     0
  0
SCALE
  5
54
102
{ACAD_REACTORS
330
47
102
}
330
47
100
AcDbScale
 70
     0
300
2:1
140
2.0
141
1.0
290
     0
  0
SCALE
  5
55
102
{ACAD_REACTORS
330
47
102
}
330
47
100
AcDbScale
 70
     0
300
4:1
140
4.0
141
1.0
290
     0
  0
SCALE
  5
56
102
{ACAD_REACTORS
330
47
102
}
330
47
100
AcDbScale
 70
     0
300
8:1
140
8.0
141
1.0
290
     0
  0
SCALE
  5
57
102
{ACAD_REACTORS
330
47
102
}
330
47
100
AcDbScale
 70
     0
300
10:1
140
10.0
141
1.0
290
     0
  0
SCALE
  5
58
102
{ACAD_REACTORS
330
47
102
}
330
47
100
AcDbScale
 70
     0
300
100:1
140
100.0
141
1.0
290
     0
  0
ENDSEC
  0
EOF
